<svg xmlns="http://www.w3.org/2000/svg" viewBox="0 0 109.77 109.4"><defs><style>.cls-1{fill:#fff;}.cls-2{fill:#139ab0;}.cls-3{opacity:0.1;}.cls-4{fill:#d7d9d8;}.cls-5{fill:#13181b;}.cls-6{fill:#e8f5f8;}.cls-7{fill:none;stroke:#e4eaea;stroke-linecap:round;stroke-miterlimit:10;stroke-width:3px;}.cls-8{fill:#eb5032;}</style></defs><title>07 Профессиональная  гигиена</title><g id="Слой_2" data-name="Слой 2"><path class="cls-1" d="M44.93,84.41a4.74,4.74,0,0,1,.75.06c1.1.19,4,.91,4.53,3.16.64,2.8.21,15.71.21,16.78s-.21,2.26,2.37,3.55c.77.39,3.13.07,4.54-.13A20,20,0,0,0,70.41,100c4.09-5.29,7.37-12.91,5.83-23.38-.46-3-.69-5.57-.84-7.6a17.89,17.89,0,0,1,3.16-11.53c7.83-11.16,10-17.89,10-28.39C88.51,11,77.05,2.3,62.91,2.3,57.4,2.3,52.06,4.66,47.6,8.61a4.67,4.67,0,0,1-1.87,1h0a4.63,4.63,0,0,1-2.45,0h0a4.67,4.67,0,0,1-1.87-1C37,4.66,31.61,2.3,26.1,2.3,12,2.3.5,11,.5,29.14c0,10.5,2.12,17.23,9.94,28.39a17.9,17.9,0,0,1,3.17,11.53c-.15,2-.39,4.56-.84,7.6C11.22,87.13,14.51,94.75,18.6,100a20,20,0,0,0,13.07,7.79c1.42.2,3.78.52,4.55.13,2.58-1.29,2.37-2.47,2.37-3.55s-.43-14,.21-16.78c.52-2.25,3.42-3,4.52-3.16a4.87,4.87,0,0,1,.76-.06Z"/><path class="cls-2" d="M35,108.64a26.11,26.11,0,0,1-3.32-.31,20.48,20.48,0,0,1-13.44-8c-5.26-6.8-7.25-14.79-5.92-23.76.38-2.55.65-5,.83-7.57A17.37,17.37,0,0,0,10,57.82C2.34,46.86,0,40.16,0,29.14,0,9,13.48,1.8,26.1,1.8,31.58,1.8,37,4,41.74,8.24a4.27,4.27,0,0,0,1.67.93,4.07,4.07,0,0,0,2.19,0,4.27,4.27,0,0,0,1.67-.93C52,4,57.43,1.8,62.91,1.8,75.53,1.8,89,9,89,29.14c0,11-2.35,17.72-10,28.68A17.42,17.42,0,0,0,75.9,69c.18,2.55.45,5,.83,7.57,1.33,9-.67,17-5.92,23.76a20.51,20.51,0,0,1-13.41,8c-2.08.28-4,.5-4.84.08-2.67-1.34-2.66-2.69-2.64-3.77v-.23c0-.17,0-.63,0-1.31.08-3.57.3-13.06-.23-15.35-.46-2-3.27-2.64-4.12-2.79a3.78,3.78,0,0,0-.67,0h-.85a3.71,3.71,0,0,0-.67,0c-.85.15-3.66.79-4.12,2.79C38.76,90,39,99.53,39.06,103.1c0,.68,0,1.14,0,1.31v.23c0,1.08,0,2.43-2.65,3.77A3.5,3.5,0,0,1,35,108.64Zm9.12-24.73h.85a4.53,4.53,0,0,1,.84.07c1.29.22,4.34,1,4.92,3.54s.34,12,.26,15.6c0,.67,0,1.12,0,1.29v.24c0,1,0,1.8,2.09,2.86.63.32,3.06,0,4.23-.17A19.46,19.46,0,0,0,70,99.73c5.08-6.57,7-14.31,5.72-23-.38-2.58-.65-5.08-.84-7.65a18.45,18.45,0,0,1,3.26-11.85C85.71,46.48,88,39.91,88,29.14,88,9.72,75,2.8,62.91,2.8c-5.23,0-10.41,2.14-15,6.19a5.23,5.23,0,0,1-2.07,1.14,5,5,0,0,1-2.72,0A5.3,5.3,0,0,1,41.07,9c-4.56-4-9.74-6.19-15-6.19C14,2.8,1,9.72,1,29.14c0,10.77,2.3,17.34,9.85,28.1A18.4,18.4,0,0,1,14.1,69.09c-.18,2.57-.45,5.07-.83,7.65-1.29,8.68.64,16.42,5.72,23a19.45,19.45,0,0,0,12.75,7.61c1.2.16,3.62.49,4.26.17,2.11-1.06,2.1-1.89,2.09-2.86v-.24c0-.17,0-.62,0-1.29-.08-3.6-.3-13.18.25-15.6S42,84.2,43.24,84A4.53,4.53,0,0,1,44.08,83.91Z"/><g class="cls-3"><path class="cls-2" d="M24.89,101.09c-4-3.58-12-15.47-8.39-27.53,3.28-11,12.48-11,14.12-11.35-1.22.09-6.4-.71-18.42-16.62C2.45,32.7,4.93,17.73,7.33,9.83,3.27,14.25.78,20.61.78,29.05c0,10.87,2.28,17.71,10.81,29.6A13.14,13.14,0,0,1,14,67c-.13,2.3-.35,5.45-.95,9.56C11.51,87,14.79,94.65,18.88,99.94A20.1,20.1,0,0,0,32,107.74c1.41.19,3.77.51,4.54.12,2.58-1.29,2.37-2.47,2.37-3.54,0-.16,0-.61,0-1.23C35.21,105.46,29,104.75,24.89,101.09Z"/></g><path class="cls-4" d="M30.62,62.21a1.76,1.76,0,0,0,.29-.05A2.2,2.2,0,0,0,30.62,62.21Z"/><g class="cls-3"><path class="cls-2" d="M88.79,29.05c0-18.18-11.46-26.84-25.6-26.84-5.85,0-11.5,2.65-16.11,7.05l-2.29.63L42.5,9.26c-4.62-4.4-10.27-7-16.12-7C12.24,2.21.78,10.87.78,29.05c0,10.87,2.28,17.71,10.81,29.6A13.14,13.14,0,0,1,14,67c-.13,2.3-.35,5.45-.95,9.56C11.51,87,14.79,94.65,18.88,99.94A20.1,20.1,0,0,0,32,107.74c1.41.19,3.77.51,4.54.12,2.58-1.29,2.37-2.47,2.37-3.54s-.43-14,.21-16.78,5-3.23,5-3.23h1.51a8.44,8.44,0,0,1,3.6,1.31c-1.23-1.86-4.38-2.18-4.38-2.18H43.3s-4.18.42-4.8,3.13-.21,15.24-.21,16.28.21,2.19-2.3,3.44c-.75.38-3,.07-4.41-.12a19.54,19.54,0,0,1-12.69-7.56c-4-5.13-7.15-12.52-5.65-22.68.59-4,.8-7,.93-9.27a12.69,12.69,0,0,0-2.35-8.11C3.54,47,1.33,40.37,1.33,29.82c0-17.63,11.12-26,24.84-26,5.68,0,11.16,2.58,15.64,6.84l2.22.62,2.22-.62c4.48-4.26,10-6.84,15.64-6.84,13.71,0,24.83,8.41,24.83,26,0,10.55-2.2,17.18-10.48,28.73a12.69,12.69,0,0,0-2.35,8.11c.12,2.23.34,5.29.93,9.27,1.5,10.16-1.68,17.55-5.65,22.68a19.54,19.54,0,0,1-12.69,7.56c-1.37.19-3.66.5-4.41.12a6.35,6.35,0,0,1-1.31-.83c.13.75.61,1.55,2.31,2.4.78.39,3.13.07,4.55-.12a20.12,20.12,0,0,0,13.08-7.8c4.09-5.29,7.37-12.9,5.82-23.37-.61-4.11-.83-7.26-1-9.56A13.14,13.14,0,0,1,78,58.65C86.52,46.76,88.79,39.92,88.79,29.05Z"/></g><path class="cls-5" d="M33.09,34.17c.65,2,0,2-1.39,2.46s-3.08,1.2-3.73-.8,0-4,1.39-4.46S32.44,32.17,33.09,34.17Z"/><path class="cls-5" d="M62.53,35.66c-.52,2-2.1,1.4-3.54,1s-2.2-.31-1.68-2.36,2.1-3.41,3.54-3S63,33.61,62.53,35.66Z"/><path class="cls-5" d="M63.29,24.49s1.22-.06,5.63,2.67a14.27,14.27,0,0,0-5.15-4.43A17.87,17.87,0,0,1,63.29,24.49Z"/><path class="cls-5" d="M26.21,24.49s-1.22-.06-5.62,2.67a14.13,14.13,0,0,1,5.14-4.43A17.87,17.87,0,0,0,26.21,24.49Z"/><path class="cls-6" d="M79.54,12.8a16.92,16.92,0,0,0-2.13-2.26c-.47-.13-1.77,1-9.5,4.61a18.15,18.15,0,0,1,4.29,5.7,27.3,27.3,0,0,1,1.42,12,34.84,34.84,0,0,0,10.13-2C83.87,21.24,81.62,15.37,79.54,12.8Z"/><path class="cls-6" d="M72.59,38.44a30.18,30.18,0,0,1-4.14,8.87c-2.52,3.68-4,5.83-4.88,7.06-.18.24-1,1.1-1,1.1l13.55-3.25a34.46,34.46,0,0,0,7.07-15.33A35.24,35.24,0,0,1,72.59,38.44Z"/><path class="cls-6" d="M63,88.05a13,13,0,0,1-1,2.17,44.15,44.15,0,0,1-4.92,7.31s-1.2,3.66,3.06,1.94c3.47-1.4,8.4-5.79,10.8-11l-1.33.33A12.06,12.06,0,0,1,63,88.05Z"/><path class="cls-6" d="M72.69,81.83c.59-4.7,0-7.45-1.23-10.32a14.82,14.82,0,0,0-1.37-2l-8.17,2a29.54,29.54,0,0,1,1.9,13.11l.75.09C67.81,85.05,70.88,83.22,72.69,81.83Z"/><path class="cls-1" d="M80.9,63.87a16.78,16.78,0,0,1-7.29-1.7,1.49,1.49,0,0,1-.62-2,1.51,1.51,0,0,1,2-.63c.07,0,4.82,2.47,9.68.7C88.17,59,90.93,55.84,92.92,51a1.5,1.5,0,0,1,2.77,1.13c-2.32,5.69-5.68,9.37-10,10.93A14,14,0,0,1,80.9,63.87Z"/><path class="cls-7" d="M12.67,58.11"/><path class="cls-1" d="M11,81.35a1.47,1.47,0,0,1-.73-.19,1.51,1.51,0,0,1-.59-2l.74-1.32a12.65,12.65,0,0,1-6.08-4,10.84,10.84,0,0,1-2.5-8.51c.88-6.19,7.08-10.45,13.84-9.49a1.5,1.5,0,0,1-.43,3C10.13,58,5.44,61.16,4.8,65.71a7.84,7.84,0,0,0,1.84,6.17,9.91,9.91,0,0,0,6.26,3.41A1.5,1.5,0,0,1,14,77.5l-1.7,3.07A1.49,1.49,0,0,1,11,81.35Z"/><polygon class="cls-6" points="29.37 0 22.47 8.93 29.57 17.71 20.63 10.81 11.86 17.91 18.76 8.97 11.66 0.2 20.59 7.1 29.37 0"/><polygon class="cls-6" points="20.69 15.71 19.91 9.67 13.86 9.03 19.9 8.25 20.54 2.2 21.31 8.24 27.37 8.88 21.33 9.65 20.69 15.71"/><path class="cls-1" d="M30.36,32.84a.83.83,0,1,1-.82-.83A.83.83,0,0,1,30.36,32.84Z"/><path class="cls-1" d="M31.5,33.32a.48.48,0,1,1-.95,0,.48.48,0,1,1,.95,0Z"/><path class="cls-1" d="M60.68,32.84a.83.83,0,1,1-.68-1A.82.82,0,0,1,60.68,32.84Z"/><path class="cls-1" d="M61.73,33.5a.48.48,0,0,1-.55.4.49.49,0,0,1-.4-.56.49.49,0,0,1,.56-.39A.48.48,0,0,1,61.73,33.5Z"/><path class="cls-8" d="M45.6,53.43c-3.69,0-7.1-1.41-8.82-3.74l.81-.6c1.75,2.38,5.71,3.72,9.63,3.24,3.73-.45,7.18-2.5,8.59-5.1l.88.48c-1.58,2.92-5.25,5.12-9.35,5.61A12.81,12.81,0,0,1,45.6,53.43Z"/><path class="cls-8" d="M56.47,49.62s-.26-2.86-1.9-3.27l.24-1c2.34.58,2.64,4,2.65,4.16Z"/><rect class="cls-1" x="96.37" y="23.41" width="2.06" height="8.35" transform="translate(35.69 107.83) rotate(-68.25)"/><rect class="cls-1" x="97.47" y="20.51" width="2.06" height="8.35" transform="translate(39.08 107.02) rotate(-68.25)"/><rect class="cls-1" x="95.28" y="26.21" width="2.06" height="8.35" transform="translate(32.4 108.59) rotate(-68.25)"/><rect class="cls-1" x="94.22" y="28.88" width="2.06" height="8.35" transform="translate(29.25 109.27) rotate(-68.25)"/><rect class="cls-1" x="93.15" y="31.54" width="2.06" height="8.35" transform="translate(26.11 109.96) rotate(-68.25)"/><rect class="cls-1" x="92.09" y="34.21" width="2.06" height="8.35" transform="translate(22.96 110.65) rotate(-68.25)"/><rect class="cls-1" x="91.03" y="36.87" width="2.06" height="8.35" transform="translate(19.83 111.35) rotate(-68.26)"/><rect class="cls-1" x="89.96" y="39.54" width="2.06" height="8.35" transform="translate(16.67 112.03) rotate(-68.25)"/><path class="cls-8" d="M92.34,49c1-1.21,1.33-2.38.79-2.6s-.3-2.1.55-4.16l6-15.62c.85-2.07,2-3.58,2.52-3.36l1.34.54c.19.08-.89-.23-.26,0s.46,2.16-.38,4.23L96.85,43.94c-.84,2.07-.43,2.78-1.56,4a22.4,22.4,0,0,0-3.42,6.1l-18.3,49.79c-.75,2.1-2.64,6-3.87,5.5s-1.56-2.61-.72-4.68L89,55A29.38,29.38,0,0,1,92.34,49Z"/><polygon class="cls-1" points="101.06 31.41 103.49 26.26 99.04 22.7 104.19 25.13 107.75 20.68 105.32 25.83 109.77 29.39 104.62 26.96 101.06 31.41"/></g></svg>