<svg xmlns="http://www.w3.org/2000/svg" viewBox="0 0 137.03 62.42"><defs><style>.cls-1{isolation:isolate;}.cls-2{fill:#fff;}.cls-3{fill:#139ab0;}.cls-4{opacity:0.1;}.cls-5{fill:#d7d9d8;}.cls-6{fill:#13181b;}.cls-7{fill:#e8f5f8;}.cls-8{fill:none;stroke:#e4eaea;stroke-linecap:round;stroke-miterlimit:10;stroke-width:3px;}.cls-9{fill:#eb5032;}.cls-10{fill:#1d1d1b;}.cls-11{mix-blend-mode:multiply;}.cls-12{fill:#c3d8ed;}.cls-13{fill:#ec6d75;}.cls-14{opacity:0.5;mix-blend-mode:soft-light;}.cls-15{fill:#d9d9d9;}</style></defs><title>09 Пародонтология</title><g class="cls-1"><g id="Слой_6" data-name="Слой 6"><path class="cls-2" d="M67.29,37.7a2,2,0,0,1,.34,0c.49.09,1.78.41,2,1.41a66.45,66.45,0,0,1,.09,7.5c0,.48-.09,1,1.06,1.58a5.64,5.64,0,0,0,2,0,9,9,0,0,0,5.84-3.49,13.25,13.25,0,0,0,2.6-10.44c-.2-1.36-.3-2.48-.37-3.4a8,8,0,0,1,1.41-5.14c3.5-5,4.44-8,4.44-12.68,0-8.12-5.11-12-11.43-12a10.4,10.4,0,0,0-6.84,2.82,2.19,2.19,0,0,1-.83.46h0a2.05,2.05,0,0,1-1.1,0h0a2.19,2.19,0,0,1-.83-.46A10.4,10.4,0,0,0,58.88,1C52.56,1,47.44,4.9,47.44,13c0,4.68,1,7.69,4.45,12.68a8,8,0,0,1,1.41,5.15c-.07.91-.17,2-.37,3.39a13.25,13.25,0,0,0,2.6,10.44,9,9,0,0,0,5.84,3.49,5.64,5.64,0,0,0,2,0c1.15-.57,1.06-1.1,1.06-1.58a66.45,66.45,0,0,1,.09-7.5c.24-1,1.53-1.32,2-1.41a2,2,0,0,1,.34,0Z"/><path class="cls-3" d="M62.84,48.55a11.16,11.16,0,0,1-1.5-.14,9.14,9.14,0,0,1-6-3.57,13.53,13.53,0,0,1-2.65-10.63c.17-1.15.29-2.25.37-3.38a7.79,7.79,0,0,0-1.37-5c-3.44-4.9-4.48-7.9-4.48-12.82,0-9,6-12.24,11.68-12.24a10.58,10.58,0,0,1,7,2.88,1.82,1.82,0,0,0,.74.41,1.74,1.74,0,0,0,1,0,1.82,1.82,0,0,0,.74-.41,10.58,10.58,0,0,1,7-2.88C81,.78,87,4,87,13c0,4.92-1,7.92-4.48,12.82a7.79,7.79,0,0,0-1.37,5c.08,1.14.2,2.24.37,3.38a13.53,13.53,0,0,1-2.65,10.63,9.14,9.14,0,0,1-6,3.57,5,5,0,0,1-2.17,0c-1.12-.56-1.21-1.11-1.2-1.71v-.1c0-.08,0-.29,0-.59a54.62,54.62,0,0,0-.1-6.85C69.2,38.32,68,38,67.58,38a1.36,1.36,0,0,0-.29,0h-.38a1.36,1.36,0,0,0-.29,0c-.38.06-1.62.34-1.82,1.22a56.47,56.47,0,0,0-.11,6.85c0,.3,0,.51,0,.59v.1c0,.6-.08,1.15-1.2,1.71A1.72,1.72,0,0,1,62.84,48.55Zm4.07-11.1h.38a2.43,2.43,0,0,1,.38,0c.58.11,2,.46,2.22,1.61a49.13,49.13,0,0,1,.11,7c0,.3,0,.5,0,.58v.1c0,.43,0,.79.92,1.26a6.5,6.5,0,0,0,1.88-.08,8.64,8.64,0,0,0,5.68-3.39A13,13,0,0,0,81,34.28c-.17-1.14-.3-2.26-.38-3.42a8.31,8.31,0,0,1,1.46-5.31c3.37-4.8,4.39-7.73,4.39-12.53,0-8.66-5.77-11.74-11.18-11.74A10.07,10.07,0,0,0,68.65,4a2.28,2.28,0,0,1-2.16.52A2.31,2.31,0,0,1,65.55,4a10.07,10.07,0,0,0-6.67-2.75C53.47,1.28,47.7,4.36,47.7,13c0,4.8,1,7.73,4.39,12.53a8.31,8.31,0,0,1,1.46,5.31c-.08,1.15-.21,2.26-.38,3.42a13.06,13.06,0,0,0,2.55,10.25,8.68,8.68,0,0,0,5.68,3.39,6.58,6.58,0,0,0,1.89.08c.93-.47.92-.83.92-1.26v-.1c0-.08,0-.28,0-.58a50.31,50.31,0,0,1,.12-7c.26-1.15,1.64-1.5,2.22-1.61A2.43,2.43,0,0,1,66.91,37.45Z"/><g class="cls-4"><path class="cls-3" d="M58.34,45.15c-1.79-1.6-5.35-6.91-3.75-12.3a6.68,6.68,0,0,1,6.31-5.06c-.55,0-2.86-.32-8.23-7.43-4.35-5.75-3.25-12.44-2.17-16A12.27,12.27,0,0,0,47.57,13c0,4.86,1,7.91,4.83,13.23a5.84,5.84,0,0,1,1.08,3.73c-.06,1-.16,2.44-.43,4.27a13.28,13.28,0,0,0,2.6,10.44,9,9,0,0,0,5.85,3.48,5.45,5.45,0,0,0,2,.06c1.15-.58,1-1.11,1-1.59,0-.07,0-.27,0-.54C63,47.1,60.16,46.79,58.34,45.15Z"/></g><path class="cls-5" d="M60.9,27.79l.13,0Z"/><g class="cls-4"><path class="cls-3" d="M86.88,13c0-8.11-5.12-12-11.43-12a10.52,10.52,0,0,0-7.2,3.15l-1,.28-1-.28A10.51,10.51,0,0,0,59,1C52.69,1,47.57,4.86,47.57,13c0,4.86,1,7.91,4.83,13.23a5.84,5.84,0,0,1,1.08,3.73c-.06,1-.16,2.44-.43,4.27a13.28,13.28,0,0,0,2.6,10.44,9,9,0,0,0,5.85,3.48,5.45,5.45,0,0,0,2,.06c1.15-.58,1-1.11,1-1.59a66.52,66.52,0,0,1,.1-7.49c.29-1.25,2.21-1.44,2.21-1.44h.67a3.83,3.83,0,0,1,1.61.58,3,3,0,0,0-2-1h-.66s-1.86.19-2.14,1.4a65,65,0,0,0-.1,7.27c0,.47.1,1-1,1.54a5.14,5.14,0,0,1-2-.06,8.71,8.71,0,0,1-5.67-3.37,12.9,12.9,0,0,1-2.52-10.13c.26-1.78.35-3.15.41-4.15a5.7,5.7,0,0,0-1-3.62C48.8,21,47.82,18,47.82,13.32c0-7.88,5-11.63,11.09-11.63a10.23,10.23,0,0,1,7,3.06l1,.27,1-.27a10.23,10.23,0,0,1,7-3.06C81,1.69,86,5.44,86,13.32,86,18,85,21,81.27,26.15a5.63,5.63,0,0,0-1,3.62c0,1,.15,2.37.41,4.15a12.9,12.9,0,0,1-2.52,10.13,8.71,8.71,0,0,1-5.67,3.37,5.14,5.14,0,0,1-2,.06,2.74,2.74,0,0,1-.59-.38c.06.34.28.7,1,1.08a5.45,5.45,0,0,0,2-.06,9,9,0,0,0,5.84-3.48A13.25,13.25,0,0,0,81.4,34.2C81.13,32.37,81,31,81,29.93a5.9,5.9,0,0,1,1.08-3.73C85.87,20.88,86.88,17.83,86.88,13Z"/></g><path class="cls-6" d="M75.49,10.94s.55,0,2.51,1.19a6.34,6.34,0,0,0-2.29-2C75.7,10.27,75.49,10.94,75.49,10.94Z"/><path class="cls-6" d="M58.93,10.94s-.55,0-2.51,1.19a6.34,6.34,0,0,1,2.29-2C58.72,10.27,58.93,10.94,58.93,10.94Z"/><path class="cls-7" d="M82.75,5.72a7.28,7.28,0,0,0-1-1c-.21-.06-.79.44-4.25,2.06a8,8,0,0,1,1.92,2.54,12.17,12.17,0,0,1,.63,5.34,15.57,15.57,0,0,0,4.53-.89C84.68,9.49,83.68,6.86,82.75,5.72Z"/><path class="cls-7" d="M79.64,17.17a13.29,13.29,0,0,1-1.85,4c-1.12,1.65-1.79,2.61-2.18,3.15-.07.11-.44.5-.44.5l6-1.46a15.41,15.41,0,0,0,3.16-6.84A15.81,15.81,0,0,1,79.64,17.17Z"/><path class="cls-7" d="M75.37,39.33a6.32,6.32,0,0,1-.42,1,20.92,20.92,0,0,1-2.2,3.27s-.54,1.63,1.36.86a10.52,10.52,0,0,0,4.83-4.9l-.6.14A5.42,5.42,0,0,1,75.37,39.33Z"/><path class="cls-7" d="M79.69,36.55a8,8,0,0,0-.55-4.61,6.2,6.2,0,0,0-.61-.91l-3.65.91a13.21,13.21,0,0,1,.85,5.85l.33.05A5.42,5.42,0,0,0,79.69,36.55Z"/><path class="cls-8" d="M52.88,26"/><polygon class="cls-7" points="60.34 0 57.26 3.99 60.43 7.91 56.44 4.83 52.52 8 55.6 4.01 52.43 0.09 56.42 3.17 60.34 0"/><polygon class="cls-7" points="56.46 7.02 56.12 4.32 53.41 4.03 56.11 3.69 56.4 0.98 56.74 3.68 59.45 3.97 56.75 4.31 56.46 7.02"/><path class="cls-2" d="M74.33,14.67a.37.37,0,0,1-.43.3.36.36,0,0,1-.3-.42.36.36,0,0,1,.42-.31A.39.39,0,0,1,74.33,14.67Z"/><path class="cls-2" d="M74.79,15a.21.21,0,0,1-.24.17.21.21,0,1,1,.07-.42A.21.21,0,0,1,74.79,15Z"/><path class="cls-9" d="M68.31,22.89a6.12,6.12,0,0,1-.74,0,5.25,5.25,0,0,1-4-2.4l.44-.24a4.83,4.83,0,0,0,3.61,2.14,4.51,4.51,0,0,0,4-1.35l.4.29A4.67,4.67,0,0,1,68.31,22.89Z"/><path class="cls-9" d="M63.74,21.24l-.49,0c0-.06.13-1.54,1.15-1.79l.12.48C64,20,63.77,20.91,63.74,21.24Z"/><path class="cls-10" d="M63.25,15.3a1.25,1.25,0,1,1-2.49,0,1.25,1.25,0,1,1,2.49,0Z"/><path class="cls-2" d="M61.8,14.72a.33.33,0,0,1-.33.33.32.32,0,0,1-.32-.33.32.32,0,0,1,.32-.32A.32.32,0,0,1,61.8,14.72Z"/><path class="cls-2" d="M62.24,14.91a.18.18,0,0,1-.18.19.18.18,0,0,1-.19-.19.19.19,0,1,1,.37,0Z"/><path class="cls-10" d="M74.69,15.3A1.25,1.25,0,1,1,73.45,14,1.25,1.25,0,0,1,74.69,15.3Z"/><path class="cls-2" d="M73.23,14.72a.32.32,0,0,1-.32.33.33.33,0,0,1-.33-.33.32.32,0,0,1,.33-.32A.32.32,0,0,1,73.23,14.72Z"/><path class="cls-2" d="M73.68,14.91a.18.18,0,0,1-.19.19.19.19,0,0,1-.19-.19.2.2,0,0,1,.19-.19A.19.19,0,0,1,73.68,14.91Z"/><path class="cls-2" d="M79.77,27.44a.49.49,0,0,1-.49-.45.5.5,0,0,1,.45-.55c.06,0,5.8-.61,8.94-5.23a.5.5,0,0,1,.69-.14.51.51,0,0,1,.14.7c-3.41,5-9.42,5.64-9.68,5.67Z"/><path class="cls-2" d="M52.84,27.17c-2.06,0-7.14-1-8.83-3.76a.5.5,0,0,1,.17-.68.51.51,0,0,1,.69.16c1.7,2.82,7.64,3.45,8.36,3.27a.48.48,0,0,1,.65.21.53.53,0,0,1-.22.69A2.07,2.07,0,0,1,52.84,27.17Z"/></g><g id="Слой_7" data-name="Слой 7"><path class="cls-2" d="M107,36.89l.32,0c.48.08,1.73.39,2,1.36a64.4,64.4,0,0,1,.09,7.25c0,.47-.09,1,1,1.54a5.14,5.14,0,0,0,2-.06A8.63,8.63,0,0,0,118,43.64a12.84,12.84,0,0,0,2.52-10.1c-.2-1.32-.3-2.41-.36-3.29a7.67,7.67,0,0,1,1.36-5c3.39-4.82,4.3-7.73,4.3-12.27,0-7.85-5-11.6-11.06-11.6a10.06,10.06,0,0,0-6.62,2.73,2.09,2.09,0,0,1-.81.45h0a2.11,2.11,0,0,1-1.06,0h0a2.16,2.16,0,0,1-.81-.45A10,10,0,0,0,98.84,1.4C92.73,1.4,87.77,5.15,87.77,13c0,4.54.92,7.45,4.3,12.27a7.73,7.73,0,0,1,1.37,5c-.07.88-.17,2-.36,3.29a12.84,12.84,0,0,0,2.51,10.1A8.65,8.65,0,0,0,101.25,47a5.09,5.09,0,0,0,2,.06c1.12-.56,1-1.07,1-1.54a64.65,64.65,0,0,1,.1-7.25c.22-1,1.48-1.28,2-1.36a1.84,1.84,0,0,1,.33,0Z"/><path class="cls-3" d="M102.67,47.4a12.13,12.13,0,0,1-1.45-.14A8.87,8.87,0,0,1,95.4,43.8a13.1,13.1,0,0,1-2.57-10.29c.16-1.1.28-2.17.36-3.27a7.51,7.51,0,0,0-1.32-4.82c-3.33-4.75-4.35-7.65-4.35-12.42,0-8.73,5.85-11.85,11.32-11.85a10.27,10.27,0,0,1,6.78,2.79,1.81,1.81,0,0,0,.71.4,1.83,1.83,0,0,0,.93,0,1.88,1.88,0,0,0,.71-.4,10.23,10.23,0,0,1,6.78-2.79c5.47,0,11.31,3.12,11.31,11.85,0,4.77-1,7.67-4.34,12.42a7.39,7.39,0,0,0-1.32,4.82c.07,1.11.19,2.17.35,3.27a13.09,13.09,0,0,1-2.56,10.29,8.89,8.89,0,0,1-5.82,3.46,4.79,4.79,0,0,1-2.11,0c-1.18-.59-1.17-1.21-1.16-1.66v-.1c0-.07,0-.27,0-.56a55,55,0,0,0-.1-6.63c-.19-.84-1.39-1.11-1.75-1.18a1.37,1.37,0,0,0-.28,0h-.37a1.27,1.27,0,0,0-.28,0c-.37.07-1.57.34-1.76,1.18a55,55,0,0,0-.1,6.63c0,.29,0,.49,0,.56v.1c0,.45,0,1.07-1.16,1.66A1.46,1.46,0,0,1,102.67,47.4Zm3.94-10.76H107a2.19,2.19,0,0,1,.36,0c.57.1,1.9.45,2.16,1.56a49.14,49.14,0,0,1,.11,6.75c0,.28,0,.48,0,.55v.11c0,.4,0,.76.88,1.2a5.74,5.74,0,0,0,1.82-.07,8.41,8.41,0,0,0,5.49-3.28,12.61,12.61,0,0,0,2.47-9.91c-.17-1.1-.28-2.19-.36-3.31a8,8,0,0,1,1.41-5.14c3.26-4.65,4.25-7.48,4.25-12.13,0-8.37-5.59-11.35-10.81-11.35a9.69,9.69,0,0,0-6.45,2.67,2.34,2.34,0,0,1-.91.5,2.19,2.19,0,0,1-1.19,0,2.27,2.27,0,0,1-.91-.5,9.73,9.73,0,0,0-6.45-2.67C93.61,1.65,88,4.63,88,13c0,4.65,1,7.48,4.26,12.13a8,8,0,0,1,1.41,5.14c-.08,1.12-.2,2.2-.37,3.31a12.61,12.61,0,0,0,2.47,9.91,8.41,8.41,0,0,0,5.49,3.28,6.06,6.06,0,0,0,1.82.07c.9-.44.89-.79.88-1.2v-.11c0-.07,0-.26,0-.55a49.14,49.14,0,0,1,.11-6.75c.26-1.11,1.6-1.46,2.16-1.56A2.22,2.22,0,0,1,106.61,36.64Z"/><g class="cls-4"><path class="cls-3" d="M98.47,44.1c-1.73-1.55-5.18-6.69-3.62-11.9a6.49,6.49,0,0,1,6.1-4.91c-.53,0-2.77-.3-8-7.18-4.22-5.57-3.14-12-2.11-15.45A11.9,11.9,0,0,0,88.05,13c0,4.7,1,7.66,4.67,12.8a5.6,5.6,0,0,1,1,3.61c0,1-.15,2.36-.41,4.13a12.85,12.85,0,0,0,2.51,10.1A8.69,8.69,0,0,0,101.53,47a5.52,5.52,0,0,0,2,.06c1.12-.56,1-1.07,1-1.54,0-.07,0-.26,0-.53C102.93,46,100.24,45.68,98.47,44.1Z"/></g><path class="cls-5" d="M101,27.29a.29.29,0,0,0,.12,0Z"/><g class="cls-4"><path class="cls-3" d="M126.09,13c0-7.85-5-11.6-11.06-11.6a10.24,10.24,0,0,0-7,3.05l-1,.27-1-.27a10.2,10.2,0,0,0-7-3C93,1.36,88.05,5.11,88.05,13c0,4.7,1,7.66,4.67,12.8a5.6,5.6,0,0,1,1,3.61c0,1-.15,2.36-.41,4.13a12.85,12.85,0,0,0,2.51,10.1A8.69,8.69,0,0,0,101.53,47a5.52,5.52,0,0,0,2,.06c1.12-.56,1-1.07,1-1.54a64.65,64.65,0,0,1,.1-7.25c.28-1.21,2.14-1.39,2.14-1.39h.65a3.66,3.66,0,0,1,1.56.56,3,3,0,0,0-1.9-.94h-.63s-1.81.18-2.08,1.35a63.06,63.06,0,0,0-.09,7c0,.45.09,1-1,1.49a5.21,5.21,0,0,1-1.91-.05A8.46,8.46,0,0,1,95.88,43a12.45,12.45,0,0,1-2.44-9.81c.25-1.72.34-3,.4-4a5.51,5.51,0,0,0-1-3.51c-3.58-5-4.53-7.85-4.53-12.41C88.29,5.67,93.1,2,99,2a9.87,9.87,0,0,1,6.75,3l1,.26,1-.26a9.91,9.91,0,0,1,6.76-3c5.93,0,10.74,3.63,10.74,11.26,0,4.56-1,7.42-4.54,12.41a5.56,5.56,0,0,0-1,3.51c0,1,.15,2.28.4,4A12.49,12.49,0,0,1,117.61,43a8.48,8.48,0,0,1-5.49,3.27,5.16,5.16,0,0,1-1.9.05,3.58,3.58,0,0,1-.57-.36c.06.32.27.67,1,1a5.57,5.57,0,0,0,2-.06,8.67,8.67,0,0,0,5.65-3.37,12.81,12.81,0,0,0,2.52-10.1c-.27-1.77-.36-3.14-.42-4.13a5.66,5.66,0,0,1,1-3.61C125.11,20.62,126.09,17.66,126.09,13Z"/></g><path class="cls-6" d="M102,15.18c.28.86,0,.86-.6,1.06s-1.34.52-1.62-.35,0-1.73.6-1.93S101.74,14.31,102,15.18Z"/><path class="cls-6" d="M114.74,15.82c-.22.88-.91.61-1.53.45s-.95-.14-.73-1,.91-1.47,1.54-1.32S115,14.93,114.74,15.82Z"/><path class="cls-6" d="M115.07,11s.53,0,2.43,1.16a6.12,6.12,0,0,0-2.22-1.92C115.27,10.35,115.07,11,115.07,11Z"/><path class="cls-6" d="M99.5,10.71s-.52-.09-2.55.85a6,6,0,0,1,2.44-1.63C99.38,10,99.5,10.71,99.5,10.71Z"/><path class="cls-7" d="M122.09,5.94a6.82,6.82,0,0,0-.92-1c-.2,0-.76.43-4.11,2a7.9,7.9,0,0,1,1.86,2.47,11.78,11.78,0,0,1,.61,5.17,15.27,15.27,0,0,0,4.38-.86C124,9.59,123,7.05,122.09,5.94Z"/><path class="cls-7" d="M119.09,17a13.06,13.06,0,0,1-1.79,3.83c-1.09,1.6-1.74,2.53-2.11,3-.08.11-.43.48-.43.48l5.85-1.4a14.89,14.89,0,0,0,3.06-6.63A15.12,15.12,0,0,1,119.09,17Z"/><path class="cls-7" d="M115,38.46a6.58,6.58,0,0,1-.42.94,19,19,0,0,1-2.12,3.16s-.52,1.58,1.32.84a10.2,10.2,0,0,0,4.67-4.75c-.18.05-.37.1-.58.14A5.06,5.06,0,0,1,115,38.46Z"/><path class="cls-7" d="M119.13,35.78a7.67,7.67,0,0,0-.53-4.47,6.36,6.36,0,0,0-.59-.88l-3.53.88A12.82,12.82,0,0,1,115.3,37l.32,0A5.26,5.26,0,0,0,119.13,35.78Z"/><path class="cls-8" d="M93.19,25.52"/><polygon class="cls-7" points="100.41 0.41 97.42 4.27 100.49 8.06 96.63 5.08 92.84 8.15 95.82 4.29 92.75 0.49 96.61 3.48 100.41 0.41"/><polygon class="cls-7" points="96.66 7.2 96.32 4.59 93.7 4.31 96.31 3.98 96.59 1.36 96.93 3.97 99.54 4.25 96.93 4.58 96.66 7.2"/><path class="cls-2" d="M100.84,14.6a.36.36,0,1,1-.36-.36A.36.36,0,0,1,100.84,14.6Z"/><path class="cls-2" d="M101.33,14.81a.21.21,0,1,1-.21-.21A.21.21,0,0,1,101.33,14.81Z"/><path class="cls-2" d="M113.94,14.6a.35.35,0,0,1-.41.3.36.36,0,0,1-.29-.42.36.36,0,0,1,.7.12Z"/><path class="cls-2" d="M114.39,14.89a.2.2,0,0,1-.23.17.2.2,0,0,1-.17-.24.2.2,0,0,1,.23-.17A.2.2,0,0,1,114.39,14.89Z"/><path class="cls-2" d="M110.44,21c.18.81.75,1.37,0,1.54a1.49,1.49,0,0,1-.64-2.92C110.56,19.4,110.27,20.15,110.44,21Z"/><path class="cls-9" d="M110.07,22.79a1.74,1.74,0,0,1-.37-3.45.74.74,0,0,1,.64.08c.24.18.26.5.28.87a3.57,3.57,0,0,0,.07.62,3.4,3.4,0,0,0,.19.59c.14.34.25.63.11.9a.75.75,0,0,1-.55.35A2.33,2.33,0,0,1,110.07,22.79Zm-.11-3-.16,0a1.26,1.26,0,0,0-1,1.49,1.25,1.25,0,0,0,1.48,1c.19,0,.22-.09.22-.09a1.22,1.22,0,0,0-.13-.49,3.29,3.29,0,0,1-.22-.67h0a3.67,3.67,0,0,1-.08-.7,1.24,1.24,0,0,0-.08-.49A.12.12,0,0,0,110,19.8Z"/><path class="cls-2" d="M120,26a.5.5,0,0,1-.13-1c.08,0,7.67-2,9.49-6.63l-.4-1.95a.5.5,0,1,1,1-.21l.43,2.09a.44.44,0,0,1,0,.28c-1.91,5.24-9.89,7.3-10.23,7.39Z"/></g><g id="Слой_4" data-name="Слой 4"><path class="cls-2" d="M27.9,36.89a1.84,1.84,0,0,1,.33,0c.48.08,1.73.39,2,1.36a66.87,66.87,0,0,1,.09,7.25c0,.47-.09,1,1,1.54a5.14,5.14,0,0,0,2-.06,8.63,8.63,0,0,0,5.65-3.37,12.8,12.8,0,0,0,2.51-10.1c-.19-1.32-.29-2.41-.35-3.29a7.67,7.67,0,0,1,1.36-5c3.38-4.82,4.3-7.73,4.3-12.27,0-7.85-5-11.6-11.06-11.6a10.06,10.06,0,0,0-6.62,2.73,2.09,2.09,0,0,1-.81.45h0a2.11,2.11,0,0,1-1.06,0h0a2.16,2.16,0,0,1-.81-.45A10.05,10.05,0,0,0,19.77,1.4C13.66,1.4,8.7,5.15,8.7,13c0,4.54.92,7.45,4.3,12.27a7.73,7.73,0,0,1,1.37,5c-.07.88-.17,2-.36,3.29a12.84,12.84,0,0,0,2.51,10.1A8.65,8.65,0,0,0,22.18,47a5.09,5.09,0,0,0,2,.06c1.12-.56,1-1.07,1-1.54a64.65,64.65,0,0,1,.1-7.25c.22-1,1.47-1.28,1.95-1.36a1.84,1.84,0,0,1,.33,0Z"/><path class="cls-3" d="M23.6,47.4a12.13,12.13,0,0,1-1.45-.14,8.87,8.87,0,0,1-5.82-3.46,13.06,13.06,0,0,1-2.57-10.29c.16-1.11.28-2.18.36-3.27a7.46,7.46,0,0,0-1.33-4.82C9.47,20.67,8.45,17.77,8.45,13c0-8.73,5.85-11.85,11.32-11.85a10.27,10.27,0,0,1,6.78,2.79,1.74,1.74,0,0,0,.71.4,1.79,1.79,0,0,0,.92,0,1.74,1.74,0,0,0,.71-.4,10.27,10.27,0,0,1,6.79-2.79C41.15,1.15,47,4.27,47,13c0,4.77-1,7.67-4.34,12.42a7.47,7.47,0,0,0-1.33,4.82c.08,1.09.2,2.16.36,3.27A13.09,13.09,0,0,1,39.12,43.8a8.89,8.89,0,0,1-5.82,3.46,4.79,4.79,0,0,1-2.11,0C30,46.7,30,46.08,30,45.63v-.1c0-.07,0-.27,0-.56a55,55,0,0,0-.1-6.63c-.19-.84-1.39-1.11-1.75-1.18a1.42,1.42,0,0,0-.29,0h-.36a1.42,1.42,0,0,0-.29,0c-.36.07-1.56.34-1.75,1.18A55,55,0,0,0,25.4,45c0,.29,0,.49,0,.56v.1c0,.45,0,1.07-1.16,1.66A1.46,1.46,0,0,1,23.6,47.4Zm3.94-10.76h.36a2.22,2.22,0,0,1,.37,0c.57.1,1.9.45,2.16,1.56A49.14,49.14,0,0,1,30.54,45c0,.28,0,.48,0,.55v.11c0,.4,0,.76.88,1.2a6.06,6.06,0,0,0,1.82-.07,8.41,8.41,0,0,0,5.49-3.28,12.61,12.61,0,0,0,2.47-9.91c-.17-1.12-.29-2.2-.36-3.31a8,8,0,0,1,1.41-5.14c3.26-4.65,4.25-7.48,4.25-12.13,0-8.37-5.59-11.35-10.81-11.35a9.69,9.69,0,0,0-6.45,2.67,2.34,2.34,0,0,1-.91.5,2.22,2.22,0,0,1-1.2,0,2.3,2.3,0,0,1-.9-.5,9.73,9.73,0,0,0-6.45-2.67C14.54,1.65,9,4.63,9,13c0,4.65,1,7.48,4.25,12.13a8,8,0,0,1,1.42,5.14c-.08,1.11-.2,2.19-.37,3.31a12.61,12.61,0,0,0,2.47,9.91,8.41,8.41,0,0,0,5.49,3.28,6.06,6.06,0,0,0,1.82.07c.89-.44.89-.8.88-1.2v-.11c0-.07,0-.27,0-.55A49.14,49.14,0,0,1,25,38.23c.26-1.11,1.6-1.46,2.16-1.56A2.22,2.22,0,0,1,27.54,36.64Z"/><g class="cls-4"><path class="cls-3" d="M19.24,44.1c-1.73-1.55-5.18-6.69-3.62-11.9a6.49,6.49,0,0,1,6.1-4.91c-.53,0-2.77-.3-8-7.18-4.21-5.57-3.14-12-2.11-15.45A11.9,11.9,0,0,0,8.82,13c0,4.7,1,7.66,4.68,12.8a5.65,5.65,0,0,1,1,3.61c0,1-.15,2.36-.41,4.13a12.81,12.81,0,0,0,2.52,10.1A8.65,8.65,0,0,0,22.3,47a5.52,5.52,0,0,0,2,.06c1.12-.56,1-1.07,1-1.54,0-.07,0-.26,0-.53C23.7,46,21,45.68,19.24,44.1Z"/></g><path class="cls-5" d="M21.72,27.29a.38.38,0,0,0,.13,0Z"/><g class="cls-4"><path class="cls-3" d="M46.86,13c0-7.85-5-11.6-11.06-11.6a10.24,10.24,0,0,0-7,3.05l-1,.27-1-.27a10.2,10.2,0,0,0-7-3C13.78,1.36,8.82,5.11,8.82,13c0,4.7,1,7.66,4.68,12.8a5.65,5.65,0,0,1,1,3.61c0,1-.15,2.36-.41,4.13a12.81,12.81,0,0,0,2.52,10.1A8.65,8.65,0,0,0,22.3,47a5.52,5.52,0,0,0,2,.06c1.12-.56,1-1.07,1-1.54a64.4,64.4,0,0,1,.09-7.25c.28-1.21,2.14-1.39,2.14-1.39h.65a3.66,3.66,0,0,1,1.56.56,3,3,0,0,0-1.9-.94H27.2s-1.81.18-2.08,1.35a63.06,63.06,0,0,0-.09,7c0,.45.09,1-1,1.49a5.21,5.21,0,0,1-1.91-.05A8.48,8.48,0,0,1,16.65,43a12.49,12.49,0,0,1-2.44-9.81c.25-1.72.35-3,.4-4a5.51,5.51,0,0,0-1-3.51c-3.58-5-4.53-7.85-4.53-12.41C9.06,5.67,13.87,2,19.8,2a9.91,9.91,0,0,1,6.76,3l1,.26L28.47,5a9.91,9.91,0,0,1,6.76-3C41.16,2,46,5.67,46,13.3c0,4.56-.95,7.42-4.53,12.41a5.51,5.51,0,0,0-1,3.51c0,1,.15,2.28.4,4A12.45,12.45,0,0,1,38.38,43,8.48,8.48,0,0,1,32.9,46.3a5.21,5.21,0,0,1-1.91.05,3.58,3.58,0,0,1-.57-.36c.06.32.27.67,1,1a5.57,5.57,0,0,0,2-.06A8.67,8.67,0,0,0,39,43.6a12.81,12.81,0,0,0,2.52-10.1,39.66,39.66,0,0,1-.41-4.13,5.59,5.59,0,0,1,1-3.61C45.88,20.62,46.86,17.66,46.86,13Z"/></g><path class="cls-6" d="M22.79,15.18c.28.86,0,.86-.6,1.06s-1.34.52-1.62-.35,0-1.73.6-1.93S22.51,14.31,22.79,15.18Z"/><path class="cls-2" d="M33.19,20.82c0,1.19-2.31,3.45-5.16,3.45S22.87,22,22.87,20.82c0-.59,2.58.43,5.16.43S33.19,20.23,33.19,20.82Z"/><path class="cls-9" d="M28,24.52c-2.88,0-5.41-2.3-5.41-3.7a.37.37,0,0,1,.14-.3c.26-.22.78-.13,1.91.08A18.42,18.42,0,0,0,28,21a18.31,18.31,0,0,0,3.35-.4c1.14-.21,1.66-.3,1.91-.08a.36.36,0,0,1,.15.3C33.44,22.22,30.91,24.52,28,24.52Zm-4.91-3.63c.1,1,2.14,3.13,4.91,3.13s4.81-2.14,4.9-3.13a7.09,7.09,0,0,0-1.46.2A19,19,0,0,1,28,21.5a19.09,19.09,0,0,1-3.45-.41A7.68,7.68,0,0,0,23.12,20.89Z"/><path class="cls-6" d="M35.51,15.82c-.22.88-.91.61-1.53.45s-.95-.14-.72-1,.9-1.47,1.53-1.32S35.73,14.93,35.51,15.82Z"/><path class="cls-6" d="M35.84,11s.53,0,2.43,1.16a6.12,6.12,0,0,0-2.22-1.92C36,10.35,35.84,11,35.84,11Z"/><path class="cls-6" d="M19.81,11s-.52,0-2.43,1.16a6.17,6.17,0,0,1,2.23-1.92A6.66,6.66,0,0,0,19.81,11Z"/><path class="cls-7" d="M42.86,5.94a6.82,6.82,0,0,0-.92-1c-.2,0-.76.43-4.1,2a8,8,0,0,1,1.85,2.47,11.78,11.78,0,0,1,.61,5.17,15.2,15.2,0,0,0,4.38-.86C44.73,9.59,43.76,7.05,42.86,5.94Z"/><path class="cls-7" d="M39.86,17a12.81,12.81,0,0,1-1.79,3.83c-1.09,1.6-1.73,2.53-2.11,3-.08.11-.43.48-.43.48L41.38,23a14.89,14.89,0,0,0,3.06-6.63A15.12,15.12,0,0,1,39.86,17Z"/><path class="cls-7" d="M35.73,38.46a6.58,6.58,0,0,1-.42.94,19,19,0,0,1-2.12,3.16s-.52,1.58,1.32.84a10.2,10.2,0,0,0,4.67-4.75c-.18.05-.37.1-.58.14A5.06,5.06,0,0,1,35.73,38.46Z"/><path class="cls-7" d="M39.9,35.78a7.59,7.59,0,0,0-.53-4.47,6.36,6.36,0,0,0-.59-.88l-3.53.88A12.82,12.82,0,0,1,36.07,37l.32,0A5.26,5.26,0,0,0,39.9,35.78Z"/><path class="cls-8" d="M14,25.52"/><polygon class="cls-7" points="21.18 0.41 18.2 4.27 21.27 8.06 17.4 5.08 13.61 8.15 16.59 4.29 13.53 0.49 17.39 3.48 21.18 0.41"/><polygon class="cls-7" points="17.43 7.2 17.09 4.59 14.47 4.31 17.09 3.98 17.36 1.36 17.7 3.97 20.31 4.25 17.7 4.58 17.43 7.2"/><path class="cls-2" d="M21.61,14.6a.36.36,0,1,1-.36-.36A.36.36,0,0,1,21.61,14.6Z"/><path class="cls-2" d="M22.1,14.81a.21.21,0,1,1-.2-.21A.21.21,0,0,1,22.1,14.81Z"/><path class="cls-2" d="M34.71,14.6a.35.35,0,0,1-.41.3.37.37,0,0,1-.29-.42.36.36,0,0,1,.41-.29A.35.35,0,0,1,34.71,14.6Z"/><path class="cls-2" d="M35.17,14.89a.21.21,0,0,1-.24.17.2.2,0,0,1-.17-.24.21.21,0,0,1,.24-.17A.22.22,0,0,1,35.17,14.89Z"/><path class="cls-2" d="M14.48,24.71h-.11c-.34-.07-8.46-1.83-12.48-7.14l-.08-.18-.63-2.52a.49.49,0,0,1,.36-.6.5.5,0,0,1,.61.36L2.75,17C6.56,22,14.5,23.71,14.58,23.72a.5.5,0,0,1,.38.6A.48.48,0,0,1,14.48,24.71Z"/></g><g id="Слой_3" data-name="Слой 3"><g class="cls-11"><path class="cls-12" d="M32.77,40.56a5.71,5.71,0,0,1-2.3,3,2.93,2.93,0,0,1-3.18-.14c-1.63-1.27-1.28-4-1.29-5.82a3.55,3.55,0,0,0-.54-2.49,2,2,0,0,0-2.12-.8,2.35,2.35,0,0,0-.54.29c1.62.94,2.08,4.08,1.89,6.3-.12,1.48-.41,3-.6,4.43s-.79,3,1.29,2.77A9.62,9.62,0,0,0,29,46.77a9.53,9.53,0,0,0,4.42-5.34A10.7,10.7,0,0,0,33.76,37,16.64,16.64,0,0,1,32.77,40.56Z"/></g><g class="cls-11"><path class="cls-12" d="M63.68,40.56a5.66,5.66,0,0,1-2.3,3,2.93,2.93,0,0,1-3.18-.14c-1.63-1.27-1.28-4-1.29-5.82a3.46,3.46,0,0,0-.54-2.49,2,2,0,0,0-2.11-.8,2.42,2.42,0,0,0-.55.29c1.62.94,2.08,4.08,1.9,6.3-.13,1.48-.41,3-.6,4.43s-.8,3,1.28,2.77a10.28,10.28,0,0,0,8-6.64A10.7,10.7,0,0,0,64.68,37,17.25,17.25,0,0,1,63.68,40.56Z"/></g><g class="cls-11"><path class="cls-12" d="M95.51,40.56a5.72,5.72,0,0,1-2.31,3A2.93,2.93,0,0,1,90,43.39c-1.63-1.27-1.27-4-1.28-5.82a3.51,3.51,0,0,0-.55-2.49,2,2,0,0,0-2.11-.8,2.42,2.42,0,0,0-.55.29c1.62.94,2.08,4.08,1.9,6.3-.13,1.48-.41,3-.6,4.43s-.8,3,1.28,2.77a9.73,9.73,0,0,0,3.6-1.3,9.57,9.57,0,0,0,4.42-5.34A10.7,10.7,0,0,0,96.5,37,17.23,17.23,0,0,1,95.51,40.56Z"/></g><g class="cls-11"><path class="cls-12" d="M127.13,40.56a5.71,5.71,0,0,1-2.3,3,2.93,2.93,0,0,1-3.18-.14c-1.63-1.27-1.28-4-1.29-5.82a3.5,3.5,0,0,0-.54-2.49,2,2,0,0,0-2.11-.8,2.22,2.22,0,0,0-.55.29c1.62.94,2.08,4.08,1.89,6.3-.12,1.48-.41,3-.6,4.43s-.79,3,1.29,2.77a9.62,9.62,0,0,0,3.59-1.3,9.49,9.49,0,0,0,4.42-5.34,10.72,10.72,0,0,0,.38-4.48A17.25,17.25,0,0,1,127.13,40.56Z"/></g><path class="cls-13" d="M4.11,35.8c4.29-4.08,11.35-3.95,17.26-3.72,5.18.19,11.37,4.68,15.23,4.55,5.82-.2,8.28-5.19,13.79-5.84C56.8,30,60,35,65.88,35c5,0,9.8-4.67,15.17-5.11,6.37-.52,10.63,4,15.42,4.23,9,.46,18.58-2.95,29-1.6,0,0,2.84-.95,9.1,3,0,0,10.75,24.71-12.92,27H13.15C9.44,62.42,4.3,58.71,2.37,56-.91,51.29-.54,43.38,2,38.58A10.92,10.92,0,0,1,4.11,35.8Z"/><g class="cls-14"><path class="cls-2" d="M112.29,35.56c2.08-.43,4.15-1,6.22-1.44-5.42.17-10.61,1-15.61,1.41A26.93,26.93,0,0,0,112.29,35.56Z"/></g><g class="cls-14"><path class="cls-2" d="M111.17,42.63c4.48.23,9,1.21,13.47.69,1.75-.21,4-.7,4.85-2.38s.61-4.91-1.25-5.69c-2.41-1-5.76-.12-8.19.4-2.93.63-5.83,1.51-8.8,1.93a34.47,34.47,0,0,1-11.49-.75C97.35,36.34,95,35.71,92.63,35a42.71,42.71,0,0,0-6.83-1.9C77.5,32,71,39.74,62.7,37.51c-3.5-.94-6.68-2.85-10.3-3.41a14.24,14.24,0,0,0-9.3,1.84c-2.07,1.13-4.1,2.44-6.49,2.8a.84.84,0,0,1-.46.51,8.1,8.1,0,0,1-4,.88c-4.29-.33-7.95-2.88-11.8-4.49-2.11-.87-4.73-1.06-5.41,1.71a6.81,6.81,0,0,0,1.35,5.56c5.19,7,16.76,3.41,23.74,1.67a39.37,39.37,0,0,1,13.18-1.47A41.42,41.42,0,0,1,66.61,46.7c8.28,3.76,17.62,8.25,26.55,3.7C98.81,47.53,104.34,42.29,111.17,42.63Z"/></g><g class="cls-14"><path class="cls-2" d="M116.32,44.92a55.46,55.46,0,0,0-5.89-.49c-3.4,0-6.66,1.79-9.47,3.49-1.19.72-2.37,1.48-3.57,2.22l3.17-1a56.79,56.79,0,0,1,6.85-2.16,22.54,22.54,0,0,1,6.14-.25,48.5,48.5,0,0,0,7.12.4,12.49,12.49,0,0,0,5.83-1.88c.31-.19.62-.38.92-.59C124,45.8,119.72,45.26,116.32,44.92Z"/></g><g class="cls-11"><path class="cls-15" d="M134.59,35.47c-.64-.4-1.24-.75-1.8-1.06a10.18,10.18,0,0,1,.42,4.62c-.82,5.4-7,10.21-12.54,10.44-3.63.15-7.24-.92-10.86-.56s-7,2.19-10.24,3.47c-6.1,2.39-12.4,4.47-19.07,4.17-9.54-.42-17.87-4.88-27-7.1A35.2,35.2,0,0,0,38.69,49c-4.49.79-9.07,2-13.68,1.83-6.7-.25-15.88-4.17-15.09-12a10.28,10.28,0,0,1,3.92-6.65c-3.67.32-7.19,1.26-9.73,3.68A10.92,10.92,0,0,0,2,38.58C-.54,43.38-.91,51.29,2.37,56c1.93,2.76,7.07,6.47,10.78,6.47H121.67C145.34,60.18,134.59,35.47,134.59,35.47Z"/></g><g class="cls-11"><path class="cls-15" d="M134.65,52.43c-5.52,5.37-13.3,5.38-20.61,6a60.2,60.2,0,0,0-8,1.08c-2.47.54-4.89,1.24-7.39,1.68a57.09,57.09,0,0,1-13.5.86A86.42,86.42,0,0,1,72,60.1c-4.72-1-9.42-2.55-14.27-2.81-9.05-.49-17.89,1.79-26.88,2.3-7.71.44-17.32-.33-23.19-5.84-5.34-5-5.65-12.21-3-18.43l-.54.48A10.92,10.92,0,0,0,2,38.58C-.54,43.38-.91,51.29,2.37,56c1.93,2.76,7.07,6.47,10.78,6.47H121.67c10.84-1,14.46-6.76,15.2-12.68A16.61,16.61,0,0,1,134.65,52.43Z"/></g></g></g></svg>