<svg id="Слой_2" data-name="Слой 2" xmlns="http://www.w3.org/2000/svg" xmlns:xlink="http://www.w3.org/1999/xlink" viewBox="0 0 105.34 109.75"><defs><style>.cls-1,.cls-8{fill:none;}.cls-2{fill:#fff;}.cls-3{opacity:0.1;}.cls-4{fill:#139ab0;}.cls-5{fill:#e8f5f8;}.cls-6{fill:#d7d9d8;}.cls-7{fill:#13181b;}.cls-8{stroke:#e4eaea;stroke-linecap:round;stroke-miterlimit:10;stroke-width:3px;}.cls-9{fill:#161616;}.cls-10{fill:#eb5032;}.cls-11{fill:#1d1d1b;}.cls-12{fill:#ec6d75;}.cls-13{fill:#c95949;}.cls-14{fill:#ab4f55;}.cls-15{clip-path:url(#clip-path);}.cls-16{fill:#dde3e8;}.cls-17{fill:#dee4e9;}.cls-18{fill:#e0e5ea;}.cls-19{fill:#e1e6eb;}.cls-20{fill:#e2e7ec;}.cls-21{fill:#e3e8ec;}.cls-22{fill:#e4e9ed;}.cls-23{fill:#e5eaee;}.cls-24{fill:#e6ebef;}.cls-25{fill:#e8ecf0;}.cls-26{fill:#e9edf1;}.cls-27{fill:#eaeef2;}.cls-28{fill:#ebeff3;}.cls-29{fill:#ecf0f3;}.cls-30{fill:#edf1f4;}.cls-31{fill:#eef2f5;}.cls-32{fill:#eff3f6;}.cls-33{fill:#f0f4f7;}.cls-34{fill:#f1f5f7;}.cls-35{fill:#f2f6f8;}.cls-36{fill:#f2f7f9;}.cls-37{fill:#f3f8fa;}.cls-38{fill:#f4f8fa;}.cls-39{fill:#f5f9fb;}.cls-40{fill:#f6fafb;}.cls-41{fill:#f7fbfc;}.cls-42{fill:#f7fbfd;}.cls-43{fill:#f8fcfd;}.cls-44{fill:#f9fdfe;}.cls-45{fill:#e6eaed;}.cls-46{fill:#f6fafc;}.cls-47{fill:#fafeff;}.cls-48{fill:#e8edf0;}.cls-49{fill:#e69285;}.cls-50{clip-path:url(#clip-path-2);}.cls-51{fill:#dce2e7;}.cls-52{fill:#ebeff2;}.cls-53{fill:#e4e8eb;}.cls-54{fill:#d1dbe2;}.cls-55{fill:#c9d2da;}.cls-56{fill:#d5dee5;}.cls-57{fill:#d16f60;}.cls-58{fill:#edf3f6;}.cls-59{fill:#e4eaee;}.cls-60{fill:#dfe6ea;}.cls-61{fill:#e9eff3;}.cls-62{fill:#e4ecf0;}.cls-63{fill:#d6dfe4;}.cls-64{fill:#d9e2e8;}.cls-65{fill:#d0dae0;}.cls-66{fill:#dce5ea;}.cls-67{fill:#e0e8ed;}.cls-68{clip-path:url(#clip-path-3);}.cls-69{clip-path:url(#clip-path-4);}.cls-70{fill:#bac7d0;}.cls-71{fill:#f18a91;}.cls-72{fill:#e8eff2;}.cls-73{fill:#e3ebf0;}.cls-74{fill:#e3eaee;}.cls-75{fill:#dde5ea;}.cls-76{fill:#dbe3e9;}</style><clipPath id="clip-path"><path class="cls-1" d="M92,50.52c-.19.29-.53.45-.67.77l-.06.17h-.06a3.86,3.86,0,0,0-.71,0l-.21.06-.15.07-.13.07,0,0h0v0a1.43,1.43,0,0,1-.45.12.72.72,0,0,1-.61-.29,2.35,2.35,0,0,0-.76-.66.9.9,0,0,1-.21-.23h0s0-.07,0-.09a2.15,2.15,0,0,0,.11-.9,1.73,1.73,0,0,1,0-.32,1.13,1.13,0,0,1,.17-.39l0,0,0,0a1.09,1.09,0,0,1,.17-.13l.08,0,.05,0,.19,0H89a1.55,1.55,0,0,1,.31,0l.32.08a.33.33,0,0,0,.17,0l.11-.05.29-.17.16-.1,0,0,0,0,.14-.07,0,0,.15,0a.61.61,0,0,1,.51.24c.08.11.14.42.24.55a1,1,0,0,0,.14.15s.19.16.22.19a1.5,1.5,0,0,1,.27.29.54.54,0,0,1,0,.11.27.27,0,0,1,0,.12.06.06,0,0,1,0,.06.34.34,0,0,1,0,.2A1.62,1.62,0,0,1,92,50.52Z"/></clipPath><clipPath id="clip-path-2"><path class="cls-1" d="M88.93,51.73s0,.08,0,.12l0,0a2.17,2.17,0,0,1-.76.18h-.41a1,1,0,0,0-.47.09l-.07,0a.74.74,0,0,1-1-.17,2.41,2.41,0,0,0-.67-.62.88.88,0,0,1-.25-.31,3.91,3.91,0,0,0-.1-.58.82.82,0,0,1,0-.31,1,1,0,0,1,.09-.41l0,0,0,0,0,0,0,0a.7.7,0,0,1,.21-.14l.19-.06.09,0a1.53,1.53,0,0,1,.43,0l.35,0,.19,0,.1-.06.27-.21.2-.16h0l.17-.11.09,0,.11,0a.72.72,0,0,1,.59.17c.11.1.24.4.37.5a.86.86,0,0,0,.18.14l.27.15a1.66,1.66,0,0,1,.34.25.55.55,0,0,1,.14.22s0,0,0,0a.54.54,0,0,1,0,.22,2.47,2.47,0,0,1-.14.41C89.34,51.19,89,51.4,88.93,51.73Z"/></clipPath><clipPath id="clip-path-3"><path class="cls-1" d="M93.35,47.61c-.2.28-.53.45-.67.76a1.34,1.34,0,0,0-.07.18h0a3.2,3.2,0,0,0-.72,0l-.21.06-.15.07-.13.07,0,0h0s0,0,0,0a1.09,1.09,0,0,1-.46.12.66.66,0,0,1-.6-.29,2.43,2.43,0,0,0-.76-.65,1,1,0,0,1-.22-.23h0a.3.3,0,0,1,0-.1,1.93,1.93,0,0,0,.1-.89,1.12,1.12,0,0,1,0-.32,1.11,1.11,0,0,1,.16-.39l0,0,0,0a.4.4,0,0,1,.16-.13l.09,0h0a.58.58,0,0,1,.19,0h.17a1.53,1.53,0,0,1,.3,0l.32.08a.55.55,0,0,0,.18,0l.1,0,.29-.17.17-.1,0,0,0,0,.14-.07h0a.41.41,0,0,1,.16,0,.55.55,0,0,1,.5.24c.09.11.15.42.25.54a1,1,0,0,0,.13.16l.23.18a1.48,1.48,0,0,1,.26.3.37.37,0,0,1,0,.11.42.42,0,0,1,0,.12V47a.48.48,0,0,1,0,.2A2.05,2.05,0,0,1,93.35,47.61Z"/></clipPath><clipPath id="clip-path-4"><path class="cls-1" d="M90.28,48.82l0,.12,0,0a2.17,2.17,0,0,1-.76.18H89a1.06,1.06,0,0,0-.46.1l-.08,0a.76.76,0,0,1-1-.17,2.17,2.17,0,0,0-.67-.62,1,1,0,0,1-.25-.32,3.78,3.78,0,0,0-.1-.57,1.63,1.63,0,0,1,0-.31,1.12,1.12,0,0,1,.1-.41v0l0-.05,0,0s0,0,0,0a.74.74,0,0,1,.21-.13l.19-.07.08,0a1.57,1.57,0,0,1,.43,0l.36,0a.36.36,0,0,0,.18,0l.1-.05.28-.21.2-.16h0l.17-.11L89,45.9l.11,0a.68.68,0,0,1,.59.17c.11.1.24.4.37.5l.18.14.27.15a1.25,1.25,0,0,1,.34.25.62.62,0,0,1,.15.21s0,0,0,.05a.41.41,0,0,1,0,.22,1.53,1.53,0,0,1-.14.41C90.69,48.28,90.36,48.49,90.28,48.82Z"/></clipPath></defs><title>04 Протезирование</title><path class="cls-2" d="M43.93,84.41s-.36,0-.61.06c-1.1.19-4,.91-4.52,3.16-.64,2.8-.21,15.71-.21,16.78s.21,2.26-2.37,3.55c-.77.39-3.13.07-4.55-.13A20,20,0,0,1,18.6,100c-4.09-5.29-7.38-12.91-5.83-23.38.45-3,.69-5.57.84-7.6a17.9,17.9,0,0,0-3.17-11.53C2.62,46.37.5,40.64.5,30.14.5,9.3,12,3.3,26.1,3.3,31.61,3.3,37,4.66,41.41,8.61a4.67,4.67,0,0,0,1.87,1h0a4.63,4.63,0,0,0,2.45,0h0a4.67,4.67,0,0,0,1.87-1C52.06,4.66,57.4,3.3,62.91,3.3c14.14,0,25.6,7.67,25.6,25.84,0,10.5-2.12,17.23-9.94,28.39A17.84,17.84,0,0,0,75.4,69.06c.15,2,.38,4.56.84,7.6,0,0,3.55,23.67,9,27.17S71,111.22,64.3,108,53,92.86,52,88.05s-5.34-3.68-6.35-3.68C45.2,84.37,44.18,84.41,43.93,84.41Z"/><g class="cls-3"><path class="cls-4" d="M24.7,100.45c-4-3.58-12-15.47-8.38-27.53,3.28-11,12.48-11,14.11-11.35C29.22,61.66,24,60.86,12,45,2.27,32.06,4.75,17.09,7.15,9.19,3.09,13.62.6,20,.6,28.41.6,39.28,2.87,46.12,11.41,58a13.14,13.14,0,0,1,2.42,8.36c-.13,2.3-.35,5.45-1,9.56C11.33,86.4,14.61,94,18.7,99.31a20.1,20.1,0,0,0,13.07,7.79c1.42.19,3.78.51,4.55.13,2.58-1.29,2.37-2.48,2.37-3.55,0-.16,0-.61,0-1.22C35,104.82,28.79,104.11,24.7,100.45Z"/></g><g class="cls-3"><path class="cls-4" d="M75.38,67.74a13.14,13.14,0,0,1,2.42-8.36c8.54-11.89,10.81-18.73,10.81-29.6C88.61,11.6,77.15,2.94,63,2.94c-5.85,0-11.5,2.65-16.12,7.05l-2.29.63L42.32,10c-4.62-4.4-10.27-7-16.12-7C12.06,2.94.6,11.6.6,29.78c0,10.87,2.27,17.71,10.81,29.6a13.14,13.14,0,0,1,2.42,8.36c-.13,2.3-.35,5.45-1,9.56-1.54,10.47,1.74,18.08,5.83,23.37a20.07,20.07,0,0,0,13.07,7.8c1.42.19,3.78.51,4.55.12,2.58-1.29,2.37-2.47,2.37-3.54s-.43-14,.21-16.78,5-3.23,5-3.23h1.51A8.44,8.44,0,0,1,49,86.35c-1.24-1.86-4.38-2.18-4.38-2.18H43.11s-4.17.42-4.8,3.13-.21,15.24-.21,16.28.21,2.19-2.29,3.44c-.75.38-3,.07-4.41-.12a19.45,19.45,0,0,1-12.69-7.56c-4-5.13-7.15-12.52-5.65-22.68.59-4,.8-7,.92-9.27a12.74,12.74,0,0,0-2.34-8.11C3.35,47.73,1.15,41.1,1.15,30.55c0-17.63,11.12-26,24.84-26,5.67,0,11.16,2.58,15.64,6.84l2.22.62,2.22-.62C50.54,7.09,56,4.51,61.7,4.51c13.72,0,24.84,8.41,24.84,26,0,10.55-2.2,17.18-10.49,28.73a12.74,12.74,0,0,0-2.34,8.11"/></g><path class="cls-5" d="M72.41,39.17A30.22,30.22,0,0,1,68.26,48c-2.51,3.68-4,5.83-4.88,7.06-.17.24-1,1.1-1,1.1L75.94,53A34.46,34.46,0,0,0,83,37.63,35.6,35.6,0,0,1,72.41,39.17Z"/><path class="cls-5" d="M74.25,88.13A13.47,13.47,0,0,0,75,90.39a44.75,44.75,0,0,0,4.1,7.81s.8,3.76-3.25,1.59c-3.3-1.77-7.72-6.66-9.55-12.08.39.16.82.31,1.28.47A12,12,0,0,0,74.25,88.13Z"/><path class="cls-5" d="M64.82,84.72c-2.18-4.21-2.59-7-2.4-10.12A15.09,15.09,0,0,1,63,72.22l8.38-.9s-.3,7.07,2.72,13c-.22.12-.43.23-.67.34C70.51,86.06,67,85.4,64.82,84.72Z"/><path class="cls-4" d="M71.61,109.75a18.77,18.77,0,0,1-7.53-1.25C57,105.12,52.4,92.4,51.54,88.14c-.75-3.77-3.7-3.47-5.28-3.31l-.58,0-1.11,0-.63,0c-.06,0-.33,0-.53,0-.85.15-3.66.79-4.12,2.79C38.76,90,39,99.53,39.06,103.1c0,.67,0,1.14,0,1.31v.23c0,1.08,0,2.43-2.65,3.77-.83.41-2.75.2-4.81-.08a20.46,20.46,0,0,1-13.43-8c-5.26-6.8-7.25-14.79-5.92-23.76.38-2.55.65-5,.83-7.57A17.37,17.37,0,0,0,10,57.82C2.16,46.59,0,40.64,0,30.14,0,12,8.78,2.8,26.1,2.8c6.4,0,11.51,1.78,15.64,5.44a4.27,4.27,0,0,0,1.67.93,4.07,4.07,0,0,0,2.19,0,4.27,4.27,0,0,0,1.67-.93C51.4,4.58,56.51,2.8,62.91,2.8,79.25,2.8,89,12.65,89,29.14c0,11-2.35,17.72-10,28.68A17.44,17.44,0,0,0,75.9,69c.18,2.54.45,5,.83,7.57,0,.23,3.59,23.48,8.81,26.81,1.49.95,1.26,1.93,1,2.42C85.33,108,78,109.75,71.61,109.75Zm-24.17-26A4.71,4.71,0,0,1,52.52,88c.83,4.12,5.21,16.43,12,19.64,5.63,2.67,19.76.23,21.14-2.25.07-.14.28-.51-.65-1.09-5.6-3.58-9.11-26.54-9.26-27.51-.38-2.58-.66-5.08-.84-7.65a18.47,18.47,0,0,1,3.26-11.85C85.71,46.48,88,39.92,88,29.14,88,13,78.86,3.8,62.91,3.8c-6.14,0-11,1.7-15,5.19a5.11,5.11,0,0,1-2.07,1.14,5,5,0,0,1-2.72,0A5.24,5.24,0,0,1,41.07,9C37.14,5.5,32.24,3.8,26.1,3.8,9.21,3.8,1,12.42,1,30.14c0,10.37,2,16,9.85,27.1A18.39,18.39,0,0,1,14.1,69.09c-.18,2.57-.45,5.07-.83,7.65-1.29,8.68.64,16.42,5.72,23a19.45,19.45,0,0,0,12.75,7.61c1.19.16,3.62.49,4.26.17,2.11-1.06,2.1-1.89,2.09-2.86v-.24c0-.17,0-.62,0-1.29-.08-3.6-.3-13.18.25-15.6S42,84.2,43.24,84a6.25,6.25,0,0,1,.66-.07h0l.61,0,1.14,0c.12,0,.28,0,.48,0S46.93,83.76,47.44,83.76Z"/><g class="cls-3"><path class="cls-4" d="M64.12,101.09"/></g><path class="cls-6" d="M58.39,62.21a1.5,1.5,0,0,1-.29-.05A2.2,2.2,0,0,1,58.39,62.21Z"/><path class="cls-7" d="M27.72,24.89s-1.23-.06-5.63,2.67a14.22,14.22,0,0,1,5.14-4.43C27.25,23.4,27.72,24.89,27.72,24.89Z"/><path class="cls-7" d="M60.8,24.49s1.22-.06,5.62,2.67a14.22,14.22,0,0,0-5.14-4.43C61.26,23,60.8,24.49,60.8,24.49Z"/><path class="cls-8" d="M76.34,58.11"/><polygon class="cls-5" points="11.64 0 18.54 8.93 11.44 17.71 20.38 10.81 29.15 17.91 22.25 8.97 29.35 0.2 20.42 7.1 11.64 0"/><polygon class="cls-5" points="20.32 15.71 21.1 9.67 27.15 9.03 21.11 8.25 20.47 2.2 19.7 8.24 13.64 8.88 19.68 9.65 20.32 15.71"/><path class="cls-2" d="M58.64,32.84a.83.83,0,1,0,.83-.83A.83.83,0,0,0,58.64,32.84Z"/><path class="cls-2" d="M57.5,33.32a.48.48,0,0,0,.48.48.47.47,0,0,0,.48-.48.48.48,0,0,0-.48-.48A.49.49,0,0,0,57.5,33.32Z"/><path class="cls-5" d="M79.74,13.86a16.92,16.92,0,0,0-2.13-2.26c-.47-.13-1.77,1-9.5,4.61a18.15,18.15,0,0,1,4.29,5.7,27.33,27.33,0,0,1,1.42,12,34.84,34.84,0,0,0,10.13-2C84.07,22.31,81.82,16.43,79.74,13.86Z"/><path class="cls-2" d="M11.32,81.35a1.47,1.47,0,0,1-.73-.19,1.5,1.5,0,0,1-.58-2l.73-1.32c-5.63-1.73-9.37-7-8.58-12.51C3,59.1,9.24,54.84,16,55.8a1.5,1.5,0,0,1-.42,3c-5.11-.73-9.8,2.39-10.45,6.94s3,8.85,8.1,9.58a1.5,1.5,0,0,1,1.1,2.21l-1.7,3.07A1.49,1.49,0,0,1,11.32,81.35Z"/><path class="cls-2" d="M82.2,69.35a11.26,11.26,0,0,1-1.56-.1,9.34,9.34,0,0,1-6.23-3.48,10,10,0,0,0-2.49-2.14A1.5,1.5,0,1,1,73.41,61a12.47,12.47,0,0,1,3.2,2.7,6.41,6.41,0,0,0,4.47,2.55c3,.44,6.72-1,7.47-1.4a1.5,1.5,0,0,1,.93-.25,1.86,1.86,0,0,1,.34.06L95,66.23a1.5,1.5,0,1,1-.86,2.88l-4.64-1.38A19.14,19.14,0,0,1,82.2,69.35Z"/><path class="cls-9" d="M55.77,49c0,2.48-4.75,8.27-10.61,8.27S34.54,51.49,34.54,49c0-1.25,5.31,1.89,10.62,1.89S55.77,47.76,55.77,49Z"/><path class="cls-10" d="M45.16,57.78C39.19,57.78,34,51.89,34,49a.73.73,0,0,1,.31-.62c.49-.37,1.29-.13,3.22.48a25.5,25.5,0,0,0,7.59,1.53,25.5,25.5,0,0,0,7.59-1.53c1.93-.61,2.73-.85,3.22-.48a.72.72,0,0,1,.3.62C56.27,51.89,51.13,57.78,45.16,57.78Zm-10.1-8.56c.26,2.31,4.64,7.56,10.1,7.56s9.84-5.25,10.1-7.56a17.14,17.14,0,0,0-2.21.6,26.31,26.31,0,0,1-7.89,1.58,26.38,26.38,0,0,1-7.9-1.58A16.66,16.66,0,0,0,35.06,49.22Z"/><path class="cls-11" d="M33.94,36.37a2.94,2.94,0,1,1-2.94-3A3,3,0,0,1,33.94,36.37Z"/><path class="cls-2" d="M30.49,35a.77.77,0,1,1-.77-.77A.76.76,0,0,1,30.49,35Z"/><path class="cls-2" d="M31.55,35.46a.45.45,0,1,1-.44-.45A.44.44,0,0,1,31.55,35.46Z"/><path class="cls-11" d="M60.94,36.37a2.94,2.94,0,1,1-2.94-3A3,3,0,0,1,60.94,36.37Z"/><path class="cls-2" d="M57.49,35a.77.77,0,1,1-.77-.77A.76.76,0,0,1,57.49,35Z"/><path class="cls-2" d="M58.55,35.46a.45.45,0,1,1-.44-.45A.44.44,0,0,1,58.55,35.46Z"/><path class="cls-12" d="M101.29,65a1.74,1.74,0,0,0-.13-1.77,1.2,1.2,0,0,0-.28-.27c-.15-.08-.19-.18-.36-.2l-.81-.07a1.75,1.75,0,0,1-.56-.05c-.24-.1-.48-.23-.72-.34l-1.64-.77L93,59.8,89.24,58l-3.18-1.49-1.91-.89a1.51,1.51,0,0,0-.26-.12,50.66,50.66,0,0,1,6.82-2.21.79.79,0,0,0,.45-1.2l-.74-1s-5,.28-8.31,2.3l-1,.86-1.45,2.09a3,3,0,0,0-.27.39l0,.06h0a2.06,2.06,0,0,0-.12.26c-1.09,2.87,2.38,6.5,4.5,7.77a10.39,10.39,0,0,0,3.06,1.06,41.07,41.07,0,0,0,4.26.69c1.5.17,3,.29,4.52.38,1.27.08,2.57,0,3.84.06.31,0,.48.05.73-.15A7.77,7.77,0,0,0,101.29,65Z"/><path class="cls-13" d="M92.06,51.31s1.13,2.17.81,2.81c-.68,1.37-10,4.46-10,4.46l-.95-3.06,3.29-3.06Z"/><path class="cls-14" d="M100.09,62.62a2.55,2.55,0,0,0-.61-.37,3,3,0,0,0-1-.06h-.91c-.69,0-1.38,0-2.08,0-1.51-.05-3-.12-4.53-.27a18.77,18.77,0,0,1-3.73-.63,4.55,4.55,0,0,1-.88-.37C84.93,60,82,57.08,82.57,55.49s6.44-3.27,9.11-4a.74.74,0,0,0,.42-1.15l-.7-1c-.43.12-.87.26-1.3.4-1,.33-2,.69-3,1.09a28.88,28.88,0,0,0-3.43,1.6,8.31,8.31,0,0,0-2.51,1.92,4.28,4.28,0,0,0-.26.38,2.08,2.08,0,0,0-.18,1,1.06,1.06,0,0,0,0,.31c0,.12.09.23.1.36a1.72,1.72,0,0,1-.18.57,1.14,1.14,0,0,0,.07.81,1,1,0,0,0,.19.36c.1.11.24.14.33.28a.85.85,0,0,1,.12.39,2.84,2.84,0,0,0,.19.56,1,1,0,0,0,.6.59.72.72,0,0,1,.21,0c.15.09.14.3.18.46a1.36,1.36,0,0,0,.37.66,1.29,1.29,0,0,0,.5.43c.18.06.34,0,.52.13a3.17,3.17,0,0,1,.34.39,2.5,2.5,0,0,0,.47.39,1.43,1.43,0,0,0,.82.24,1.13,1.13,0,0,1,.55,0c.18.1.22.34.38.45a1.74,1.74,0,0,0,.7.22,2.35,2.35,0,0,0,.65,0c.12,0,.24,0,.36,0s.37-.1.58,0a3,3,0,0,1,.38.24,2.33,2.33,0,0,0,.9.39,2.28,2.28,0,0,0,.52,0,1.29,1.29,0,0,0,.38-.08c.12-.05.2-.15.35-.14a1.09,1.09,0,0,1,.35.19,1.88,1.88,0,0,0,1.31.1,2.32,2.32,0,0,1,.46-.06,1.75,1.75,0,0,1,.6.14.73.73,0,0,0,.52.09c.12,0,.22-.2.35-.17a.29.29,0,0,1,.14.08,1.29,1.29,0,0,0,1,.23,1.24,1.24,0,0,1,.66-.08,4.58,4.58,0,0,1,.49.15.87.87,0,0,0,.55-.09c.06,0,.12-.06.14-.11s.26.2.29.21a1.29,1.29,0,0,0,.55.11,1.19,1.19,0,0,0,.62,0,2.83,2.83,0,0,1,.55-.21c.35,0,.7.07,1-.2a.58.58,0,0,0,.18-.58,1.08,1.08,0,0,0-.28-.39A5.63,5.63,0,0,0,100.09,62.62Z"/><g class="cls-15"><polygon class="cls-16" points="87.95 51.62 88 51.76 87.95 51.76 87.95 51.62"/><polygon class="cls-17" points="87.95 51.18 88.15 51.76 88 51.76 87.95 51.62 87.95 51.18"/><polygon class="cls-18" points="87.95 50.74 88.3 51.76 88.15 51.76 87.95 51.18 87.95 50.74"/><polygon class="cls-19" points="87.95 50.3 88.45 51.76 88.3 51.76 87.95 50.74 87.95 50.3"/><polygon class="cls-20" points="87.95 49.86 88.61 51.76 88.45 51.76 87.95 50.3 87.95 49.86"/><polygon class="cls-21" points="87.95 49.43 88.76 51.76 88.61 51.76 87.95 49.86 87.95 49.43"/><polygon class="cls-22" points="87.95 48.99 88.91 51.76 88.76 51.76 87.95 49.43 87.95 48.99"/><polygon class="cls-23" points="87.95 48.55 89.06 51.76 88.91 51.76 87.95 48.99 87.95 48.55"/><polygon class="cls-24" points="87.99 48.2 89.21 51.76 89.06 51.76 87.95 48.55 87.95 48.2 87.99 48.2"/><polygon class="cls-25" points="88.14 48.2 89.36 51.76 89.21 51.76 87.99 48.2 88.14 48.2"/><polygon class="cls-26" points="88.29 48.2 89.51 51.76 89.36 51.76 88.14 48.2 88.29 48.2"/><polygon class="cls-27" points="88.44 48.2 89.66 51.76 89.51 51.76 88.29 48.2 88.44 48.2"/><polygon class="cls-28" points="88.59 48.2 89.81 51.76 89.66 51.76 88.44 48.2 88.59 48.2"/><polygon class="cls-29" points="88.74 48.2 89.96 51.76 89.81 51.76 88.59 48.2 88.74 48.2"/><polygon class="cls-30" points="88.89 48.2 90.11 51.76 89.96 51.76 88.74 48.2 88.89 48.2"/><polygon class="cls-31" points="89.04 48.2 90.26 51.76 90.11 51.76 88.89 48.2 89.04 48.2"/><polygon class="cls-32" points="89.19 48.2 90.42 51.76 90.26 51.76 89.04 48.2 89.19 48.2"/><polygon class="cls-33" points="89.34 48.2 90.56 51.76 90.42 51.76 89.19 48.2 89.34 48.2"/><polygon class="cls-34" points="89.49 48.2 90.72 51.76 90.56 51.76 89.34 48.2 89.49 48.2"/><polygon class="cls-35" points="89.64 48.2 90.87 51.76 90.72 51.76 89.49 48.2 89.64 48.2"/><polygon class="cls-36" points="89.79 48.2 91.02 51.76 90.87 51.76 89.64 48.2 89.79 48.2"/><polygon class="cls-37" points="89.94 48.2 91.17 51.76 91.02 51.76 89.79 48.2 89.94 48.2"/><polygon class="cls-38" points="90.1 48.2 91.32 51.76 91.17 51.76 89.94 48.2 90.1 48.2"/><polygon class="cls-39" points="90.25 48.2 91.47 51.76 91.32 51.76 90.1 48.2 90.25 48.2"/><polygon class="cls-40" points="90.4 48.2 91.62 51.76 91.47 51.76 90.25 48.2 90.4 48.2"/><polygon class="cls-41" points="90.55 48.2 91.77 51.76 91.62 51.76 90.4 48.2 90.55 48.2"/><polygon class="cls-42" points="90.7 48.2 91.92 51.76 91.77 51.76 90.55 48.2 90.7 48.2"/><polygon class="cls-43" points="90.85 48.2 92.07 51.76 91.92 51.76 90.7 48.2 90.85 48.2"/><polygon class="cls-44" points="91 48.2 92.22 51.76 92.07 51.76 90.85 48.2 91 48.2"/><polygon class="cls-44" points="91.15 48.2 92.25 51.39 92.25 51.76 92.22 51.76 91 48.2 91.15 48.2"/><polygon class="cls-44" points="92.25 51.39 91.15 48.2 92.25 48.2 92.25 51.39"/></g><path class="cls-45" d="M89.67,51.06a1.06,1.06,0,0,0,.12-1,1.69,1.69,0,0,0-.92-.84l-.15-.07h0l-.08,0a1.52,1.52,0,0,0-.2.06.72.72,0,0,0-.2.14l0,0,0,0,0,0v0l0,0v0a3.16,3.16,0,0,1,0,.69,4.63,4.63,0,0,1,.09.49l0,0a2.35,2.35,0,0,1,.76.66.74.74,0,0,0,.37.26,1.11,1.11,0,0,1,.09-.31C89.47,51.28,89.58,51.18,89.67,51.06Z"/><path class="cls-46" d="M89.78,50.26a1.63,1.63,0,0,1-.44-.43,2,2,0,0,0-.44-.32,1.51,1.51,0,0,1-.47-.36.54.54,0,0,1-.13-.3.62.62,0,0,1,.32-.21l.19,0a2.1,2.1,0,0,1,.5,0,2.71,2.71,0,0,0,.49,0,3.37,3.37,0,0,0,.59-.25.92.92,0,0,1,.39-.14.61.61,0,0,1,.51.24c.08.11.15.42.24.54a1.07,1.07,0,0,0,.14.16s.19.16.22.19a1.5,1.5,0,0,1,.27.29.63.63,0,0,1,.08.23c0,.15-.1.26-.22.33a.46.46,0,0,1-.3.07l-.35-.06a2.35,2.35,0,0,0-.37-.05,1.08,1.08,0,0,0-.44,0l-.19.07c-.1,0-.21,0-.32.06A.5.5,0,0,1,89.78,50.26Z"/><path class="cls-47" d="M89.52,49.31a1.15,1.15,0,0,1,.26,0,.66.66,0,0,1,.24,0,2.72,2.72,0,0,1,.5.19l.09,0a.23.23,0,0,0,.16-.08,2.43,2.43,0,0,1,.14-.2.2.2,0,0,1,.09,0,.71.71,0,0,1,.5,0c.22.08.87.51.51.83a.54.54,0,0,1-.41.1,3.08,3.08,0,0,0-1.21-.06,1.31,1.31,0,0,1-.32.1.92.92,0,0,1-.33-.06c-.12-.05-.14-.13-.2-.25a.58.58,0,0,0-.38-.28l-.06,0C89.05,49.48,89.46,49.33,89.52,49.31Z"/><path class="cls-47" d="M89.83,49.21a1,1,0,0,0-.39,0,2.07,2.07,0,0,0-.25.15s-.14.12-.21.1a.44.44,0,0,1-.08-.1.69.69,0,0,0-.48-.29s0,0-.06,0a.06.06,0,0,1,0,0c0-.16.14-.25.26-.31a1.08,1.08,0,0,1,.43-.07,2.27,2.27,0,0,1,.52.09,1,1,0,0,0,.67-.14,3.6,3.6,0,0,1,.54-.31h.11a.59.59,0,0,1,.51.42,1.36,1.36,0,0,1,0,.17.67.67,0,0,0,.06.15s.05.07.05.11a1,1,0,0,0-.25,0,.41.41,0,0,0-.19,0c-.1,0-.19.07-.29.09s-.19-.05-.29-.07a.62.62,0,0,0-.35,0A1,1,0,0,1,89.83,49.21Z"/><path class="cls-2" d="M89.79,48.81l.48-.18a2.21,2.21,0,0,1,.52-.24.41.41,0,0,1,.45.23,2.13,2.13,0,0,0,.11.33,1.74,1.74,0,0,0-.45.06.67.67,0,0,1-.24,0,1.68,1.68,0,0,1-.24-.06.57.57,0,0,0-.25.06,1.21,1.21,0,0,1-.42.05,1.21,1.21,0,0,0-.19,0,2.13,2.13,0,0,0-.27.08,1.45,1.45,0,0,0-.22.09l0,0h0a.47.47,0,0,1-.13-.11.28.28,0,0,0-.1-.09c-.08,0-.15,0-.21-.11s.09-.2.16-.23l.14,0a1.18,1.18,0,0,1,.46,0A.79.79,0,0,0,89.79,48.81Z"/><path class="cls-2" d="M91.29,49.24a.89.89,0,0,1,.49.2c.09.08.32.21.25.37s-.39.15-.57.12a1.84,1.84,0,0,0-1,.06.81.81,0,0,1-.43.06.37.37,0,0,1-.22-.12.91.91,0,0,1-.09-.17.57.57,0,0,0-.16-.15c-.06,0-.14-.06-.13-.13s.06-.08.11-.1a1.06,1.06,0,0,1,.68.07,1.88,1.88,0,0,0,.39.16.49.49,0,0,0,.43-.22A.35.35,0,0,1,91.29,49.24Z"/><path class="cls-48" d="M91.47,51a.6.6,0,0,0-.14.26.72.72,0,0,1-.12.23,3.86,3.86,0,0,0-.71,0v0c0-.14-.14-.11-.24,0a1,1,0,0,0-.26.29,1.43,1.43,0,0,1-.45.12h0a.85.85,0,0,0,0-.17.85.85,0,0,1,.1-.19,1.15,1.15,0,0,0,.19-.46.72.72,0,0,1,.16-.47.22.22,0,0,1,.09-.07,1.21,1.21,0,0,1,.25-.08,1.42,1.42,0,0,1,.57-.09,3,3,0,0,1,.43.07,1.63,1.63,0,0,1,.37.13c.08.05.06.16,0,.24A1.38,1.38,0,0,1,91.47,51Z"/><path class="cls-17" d="M90.29,51.48l-.15.07-.13.07a.5.5,0,0,1,.22-.13Z"/><path class="cls-49" d="M90,51.62l0,0h0v0Z"/><g class="cls-50"><polygon class="cls-51" points="85.09 52.21 85.15 52.39 85.09 52.39 85.09 52.21"/><polygon class="cls-16" points="85.09 51.76 85.31 52.39 85.15 52.39 85.09 52.21 85.09 51.76"/><polygon class="cls-17" points="85.09 51.31 85.46 52.39 85.31 52.39 85.09 51.76 85.09 51.31"/><polygon class="cls-18" points="85.09 50.86 85.62 52.39 85.46 52.39 85.09 51.31 85.09 50.86"/><polygon class="cls-19" points="85.09 50.41 85.77 52.39 85.62 52.39 85.09 50.86 85.09 50.41"/><polygon class="cls-20" points="85.09 49.96 85.93 52.39 85.77 52.39 85.09 50.41 85.09 49.96"/><polygon class="cls-21" points="85.09 49.5 86.08 52.39 85.93 52.39 85.09 49.96 85.09 49.5"/><polygon class="cls-22" points="85.09 49.05 86.24 52.39 86.08 52.39 85.09 49.5 85.09 49.05"/><polygon class="cls-23" points="85.14 48.74 86.4 52.39 86.24 52.39 85.09 49.05 85.09 48.74 85.14 48.74"/><polygon class="cls-24" points="85.3 48.74 86.55 52.39 86.4 52.39 85.14 48.74 85.3 48.74"/><polygon class="cls-25" points="85.45 48.74 86.71 52.39 86.55 52.39 85.3 48.74 85.45 48.74"/><polygon class="cls-26" points="85.61 48.74 86.86 52.39 86.71 52.39 85.45 48.74 85.61 48.74"/><polygon class="cls-27" points="85.76 48.74 87.02 52.39 86.86 52.39 85.61 48.74 85.76 48.74"/><polygon class="cls-28" points="85.92 48.74 87.17 52.39 87.02 52.39 85.76 48.74 85.92 48.74"/><polygon class="cls-29" points="86.08 48.74 87.33 52.39 87.17 52.39 85.92 48.74 86.08 48.74"/><polygon class="cls-30" points="86.23 48.74 87.48 52.39 87.33 52.39 86.08 48.74 86.23 48.74"/><polygon class="cls-31" points="86.39 48.74 87.64 52.39 87.48 52.39 86.23 48.74 86.39 48.74"/><polygon class="cls-32" points="86.54 48.74 87.8 52.39 87.64 52.39 86.39 48.74 86.54 48.74"/><polygon class="cls-33" points="86.7 48.74 87.95 52.39 87.8 52.39 86.54 48.74 86.7 48.74"/><polygon class="cls-34" points="86.85 48.74 88.11 52.39 87.95 52.39 86.7 48.74 86.85 48.74"/><polygon class="cls-35" points="87.01 48.74 88.26 52.39 88.11 52.39 86.85 48.74 87.01 48.74"/><polygon class="cls-36" points="87.16 48.74 88.42 52.39 88.26 52.39 87.01 48.74 87.16 48.74"/><polygon class="cls-37" points="87.32 48.74 88.57 52.39 88.42 52.39 87.16 48.74 87.32 48.74"/><polygon class="cls-38" points="87.47 48.74 88.73 52.39 88.57 52.39 87.32 48.74 87.47 48.74"/><polygon class="cls-39" points="87.63 48.74 88.89 52.39 88.73 52.39 87.47 48.74 87.63 48.74"/><polygon class="cls-40" points="87.79 48.74 89.04 52.39 88.89 52.39 87.63 48.74 87.79 48.74"/><polygon class="cls-41" points="87.94 48.74 89.2 52.39 89.04 52.39 87.79 48.74 87.94 48.74"/><polygon class="cls-42" points="88.1 48.74 89.35 52.39 89.2 52.39 87.94 48.74 88.1 48.74"/><polygon class="cls-43" points="88.25 48.74 89.51 52.39 89.35 52.39 88.1 48.74 88.25 48.74"/><polygon class="cls-44" points="88.41 48.74 89.65 52.34 89.65 52.39 89.51 52.39 88.25 48.74 88.41 48.74"/><polygon class="cls-44" points="88.56 48.74 89.65 51.89 89.65 52.34 88.41 48.74 88.56 48.74"/><polygon class="cls-44" points="89.65 51.89 88.56 48.74 89.65 48.74 89.65 51.89"/></g><path class="cls-45" d="M86.39,52.23v0a1,1,0,0,1,.1-.49c.07-.13.19-.23.27-.35a1.09,1.09,0,0,0,.13-1,1.72,1.72,0,0,0-.92-.84l-.15-.07h0l-.09,0-.19.06a.7.7,0,0,0-.21.14l0,0,0,0,0,0,0,0a1,1,0,0,0-.09.41.82.82,0,0,0,0,.31,3.91,3.91,0,0,1,.1.58.88.88,0,0,0,.25.31,2.41,2.41,0,0,1,.67.62A.71.71,0,0,0,86.39,52.23Z"/><path class="cls-46" d="M87.07,50.93a1.9,1.9,0,0,1-.56-.36,2.49,2.49,0,0,0-.52-.25,2,2,0,0,1-.58-.28.72.72,0,0,1-.2-.29.68.68,0,0,1,.3-.25l.19-.07a3.27,3.27,0,0,1,.54,0,5.06,5.06,0,0,0,.52-.08,3.25,3.25,0,0,0,.57-.33,1,1,0,0,1,.39-.2.72.72,0,0,1,.59.17c.11.1.24.4.37.5a.86.86,0,0,0,.18.14l.27.15a1.66,1.66,0,0,1,.34.25.55.55,0,0,1,.14.22c.06.14-.06.27-.17.35a.47.47,0,0,1-.31.11,2.44,2.44,0,0,1-.38,0h-.41a1.44,1.44,0,0,0-.46.08,1.51,1.51,0,0,0-.18.09c-.11.05-.22.07-.33.11A.51.51,0,0,1,87.07,50.93Z"/><path class="cls-47" d="M86.61,50a1.11,1.11,0,0,1,.26-.07,1.09,1.09,0,0,1,.26,0,3.9,3.9,0,0,1,.57.13h.1A.23.23,0,0,0,88,50c0-.07.06-.15.11-.22a.24.24,0,0,1,.09-.06.77.77,0,0,1,.54,0c.25,0,1,.38.71.75a.55.55,0,0,1-.41.15,3.39,3.39,0,0,0-1.31.12,1.55,1.55,0,0,1-.32.14,1,1,0,0,1-.35,0c-.14,0-.19-.11-.27-.21a.63.63,0,0,0-.46-.22s0,0-.07,0S86.55,50.07,86.61,50Z"/><path class="cls-47" d="M86.91,49.9a1.16,1.16,0,0,0-.41.09,2,2,0,0,0-.23.18s-.12.14-.2.13-.07,0-.1-.08a.88.88,0,0,0-.58-.23.1.1,0,0,1-.07,0,0,0,0,0,1,0,0c0-.16.09-.27.21-.35a1.12,1.12,0,0,1,.44-.13,2.72,2.72,0,0,1,.57,0,1,1,0,0,0,.68-.24,4.39,4.39,0,0,1,.51-.37.59.59,0,0,1,.13,0,.68.68,0,0,1,.62.35s0,.1.08.16,0,.09.09.14.07,0,.08.09h-.28a.69.69,0,0,0-.2,0l-.29.14a.89.89,0,0,1-.32,0,.73.73,0,0,0-.36.08A.92.92,0,0,1,86.91,49.9Z"/><path class="cls-2" d="M86.79,49.51a3,3,0,0,0,.47-.25,1.88,1.88,0,0,1,.51-.31.48.48,0,0,1,.52.16,1.92,1.92,0,0,0,.18.31,1.83,1.83,0,0,0-.46.12.73.73,0,0,1-.25.08,2.06,2.06,0,0,1-.26,0,.82.82,0,0,0-.26.1,1.67,1.67,0,0,1-.44.11h-.2a1.31,1.31,0,0,0-.27.12,1.55,1.55,0,0,0-.22.12s0,0,0,0h0a.51.51,0,0,1-.16-.09.29.29,0,0,0-.12-.07.75.75,0,0,1-.25-.09c-.1-.07.06-.2.12-.24l.15-.05a1.34,1.34,0,0,1,.49,0A1.06,1.06,0,0,0,86.79,49.51Z"/><path class="cls-2" d="M88.47,49.72a1,1,0,0,1,.56.13c.11.06.38.16.34.33s-.38.2-.58.19a2,2,0,0,0-1.09.21.88.88,0,0,1-.44.12.48.48,0,0,1-.27-.09s-.08-.1-.13-.15a.37.37,0,0,0-.2-.12c-.07,0-.16-.05-.16-.12s0-.09.1-.11a1.21,1.21,0,0,1,.73,0,2.42,2.42,0,0,0,.45.1.5.5,0,0,0,.41-.27A.35.35,0,0,1,88.47,49.72Z"/><path class="cls-48" d="M88.91,51.66a.72.72,0,0,1,0,.21,2.17,2.17,0,0,1-.76.18,1.17,1.17,0,0,0,0-.11c-.07-.13-.16-.09-.26,0a.4.4,0,0,0-.1.12,1,1,0,0,0-.47.09l-.07,0a.69.69,0,0,1,0-.13,1,1,0,0,0,.1-.48.72.72,0,0,1,.07-.48l.08-.08c.08,0,.18-.08.26-.12a1.37,1.37,0,0,1,.59-.16h.46a1.42,1.42,0,0,1,.42.08c.1,0,.1.15.06.24a1.27,1.27,0,0,1-.23.34A.63.63,0,0,0,88.91,51.66Z"/><path class="cls-52" d="M86.08,52.58a1.21,1.21,0,0,0,0-.19l0-.27a1.5,1.5,0,0,1,0-.22,1.6,1.6,0,0,1,.18-.67c0-.08.14-.2.13-.29s-.09-.16-.16-.21a1.83,1.83,0,0,1-.24-.31.31.31,0,0,0-.29-.08l-.36,0a2.36,2.36,0,0,0-.52.09,2,2,0,0,1-.33.09.83.83,0,0,1-.47-.1c-.13-.05-.35.09-.45.17a.37.37,0,0,0-.16.17,1.2,1.2,0,0,0,0,.2,3,3,0,0,1-.08.66c0,.08,0,.14-.06.22a1.23,1.23,0,0,1,0,.19c0,.07,0,.14,0,.21,0,.26.24.61.39.8a.53.53,0,0,0,.49.22.53.53,0,0,0,.17,0,1.48,1.48,0,0,1,.72-.09,1.84,1.84,0,0,0,.66,0,2,2,0,0,0,.3-.14.46.46,0,0,0,.24-.4Z"/><path class="cls-53" d="M84.12,52.72a4,4,0,0,1,.29-1.14.42.42,0,0,0,0-.15.61.61,0,0,0,0-.12,1.85,1.85,0,0,0-.57-.64.86.86,0,0,0-.24-.11l-.08.06a.37.37,0,0,0-.16.17,1.2,1.2,0,0,0,0,.2,3,3,0,0,1-.08.66c0,.08,0,.14-.06.22a1.23,1.23,0,0,1,0,.19c0,.07,0,.14,0,.21,0,.26.24.61.39.8a.53.53,0,0,0,.49.22h.08A5.54,5.54,0,0,0,84.12,52.72Z"/><path class="cls-46" d="M86.32,50.91a.34.34,0,0,0,0-.11,2.57,2.57,0,0,0-1-.83c-.08,0-.14-.09-.23,0A.39.39,0,0,0,85,50a2.19,2.19,0,0,1-1.14.41.54.54,0,0,0-.41.29c0,.09,0,.1.09.11a.36.36,0,0,1,.25.1c.12.11.21.31.35.4a1.41,1.41,0,0,0,.42.22c.23,0,.35-.06.54-.14a2.6,2.6,0,0,1,.4-.1,2,2,0,0,1,.43,0C86.08,51.24,86.37,51.13,86.32,50.91Z"/><path class="cls-54" d="M81.89,53a2.61,2.61,0,0,0-.55,1.26,4.5,4.5,0,0,0-.17.6c0,.25-.1.49-.15.73s-.12.51.15.47a.52.52,0,0,0,.19-.11l0,0a1.52,1.52,0,0,0,.06-.32c0-.11.07-.22.11-.33a3,3,0,0,1,.54-.84.75.75,0,0,0,.2-.3c0-.18-.09-.33-.16-.48a1.14,1.14,0,0,1,0-.58c0-.07,0-.1,0-.16A.32.32,0,0,0,81.89,53Z"/><path class="cls-55" d="M82.32,54.08c0-.18-.09-.33-.16-.48a1.14,1.14,0,0,1,0-.58c0-.07,0-.1,0-.16a.32.32,0,0,0-.2.1,2.61,2.61,0,0,0-.55,1.26,4.5,4.5,0,0,0-.17.6c0,.25-.1.49-.15.73a.8.8,0,0,0,0,.38,4,4,0,0,0,.31-1,10,10,0,0,1,.39-1.32.79.79,0,0,1,.16-.3.8.8,0,0,1,0,.21l.07.4a.94.94,0,0,0,0,.16,2.18,2.18,0,0,1,.11.27A.77.77,0,0,0,82.32,54.08Z"/><path class="cls-56" d="M82.32,54.83v.08a1,1,0,0,0,.08.29l.1.3a.55.55,0,0,1,.06.22,1.2,1.2,0,0,1-.18.51c-.06.16-.15.32-.21.48-.13.32-.31.63-.47.95-.08.16-.29.48-.51.36a.51.51,0,0,1-.22-.24,1.61,1.61,0,0,1-.08-.38,2,2,0,0,1,.16-.8c.14-.45.32-.88.5-1.32.09-.21.19-.42.28-.64s.07-.22.15-.26.23,0,.29.13A.6.6,0,0,1,82.32,54.83Z"/><path class="cls-55" d="M80.89,57.4a1.61,1.61,0,0,0,.08.38.57.57,0,0,0,.08.13,2.24,2.24,0,0,0,0-.38,3.23,3.23,0,0,1,.08-.53c0-.12.08-.25.13-.37.23-.62.48-1.23.76-1.82,0-.08.08-.13.17-.11s.11.07.14.13a.6.6,0,0,0,0-.32c-.06-.12-.15-.21-.29-.13s-.11.18-.15.26-.19.43-.28.64c-.18.44-.36.87-.5,1.32A2,2,0,0,0,80.89,57.4Z"/><path class="cls-57" d="M92.87,54.12s-7.4,1.66-9.75,3.51a12.52,12.52,0,0,0,3.41,3.47c1.92,1.19,8.84,1.54,12.44,1.64Z"/><path class="cls-58" d="M100.79,61.66c.11.12.25.21.29.38a1,1,0,0,1,0,.39,6.62,6.62,0,0,1-.31,1.22,2.21,2.21,0,0,1-.16.35.47.47,0,0,1-.14.17c-.2.15-.43,0-.64-.07a1.63,1.63,0,0,0-.44,0,1.49,1.49,0,0,0-.44.17.56.56,0,0,1-.31.09,1,1,0,0,1-.66-.18.61.61,0,0,1-.19-.2,1.84,1.84,0,0,1-.17-.38.74.74,0,0,0-.12-.29s-.07-.05-.1-.09,0-.1-.09-.12,0-.07,0-.09a2.35,2.35,0,0,0,.11-.91,1.12,1.12,0,0,1,0-.32,1.05,1.05,0,0,1,.17-.39l0,0,0,0a.61.61,0,0,1,.16-.12l.08,0,0,0,.18,0h.17a.92.92,0,0,1,.29,0,1.6,1.6,0,0,1,.31.1h.17l.1,0,.28-.17.16-.09,0,0,0,0,.14-.06,0,0,.14,0a.56.56,0,0,1,.49.26c.09.14.08.35.18.48Z"/><path class="cls-59" d="M101.07,62a1.06,1.06,0,0,0-.28-.35l-.06-.07c-.1-.13-.09-.34-.18-.48a.56.56,0,0,0-.49-.26l-.14,0,0,0-.14.06,0,0,0,0-.16.09-.28.17-.1,0h-.17a1.6,1.6,0,0,0-.31-.1.92.92,0,0,0-.29,0h-.17l-.18,0,0,0s.11.2.11.23a.59.59,0,0,1,0,.29,3,3,0,0,1-.15.38,5.84,5.84,0,0,0-.15.6,4.37,4.37,0,0,0-.06.72c0,.13,0,.25,0,.37a.7.7,0,0,0,0,.14s.1.07.1.06a1,1,0,0,1,.06-.56c.12-.45.25-.89.38-1.33a.27.27,0,0,1,.06-.12.1.1,0,0,1,.12-.05s.06,0,.09.07a1,1,0,0,0,.51.26.64.64,0,0,0,.45-.05,2.81,2.81,0,0,1,.76-.18h.4A.64.64,0,0,0,101.07,62Z"/><path class="cls-58" d="M97.87,63.74c-.05.19,0,.4-.22.54a.58.58,0,0,1-.37,0,3.54,3.54,0,0,1-.45-.08,3.26,3.26,0,0,0-.88,0h-.09a.74.74,0,0,1-.89-.48,2.25,2.25,0,0,0-.45-.79,1.11,1.11,0,0,1-.14-.38,3.56,3.56,0,0,0,.08-.57,1.08,1.08,0,0,1,.07-.31,1,1,0,0,1,.22-.36,0,0,0,0,1,0,0l0,0,0,0,0,0a.73.73,0,0,1,.24-.07h.3a1.45,1.45,0,0,1,.41.1,4.47,4.47,0,0,1,.59.27.67.67,0,0,0,.21.09,1.23,1.23,0,0,0,.33,0,6.31,6.31,0,0,1,.76.07.51.51,0,0,1,.3,0,.43.43,0,0,1,.15.28,1.63,1.63,0,0,1-.07.82Z"/><path class="cls-59" d="M96.24,61.65a4,4,0,0,1,.5,0c.17,0,.33.11.5.16a1.89,1.89,0,0,0,.75,0c.1,0,.13,0,.12-.1A.34.34,0,0,0,98,61.7a.51.51,0,0,0-.3,0,6.31,6.31,0,0,0-.76-.07,1.23,1.23,0,0,1-.33,0,.67.67,0,0,1-.21-.09,4.47,4.47,0,0,0-.59-.27,1.45,1.45,0,0,0-.41-.1h-.3a.73.73,0,0,0-.24.07l0,0,0,0,0,0a0,0,0,0,0,0,0,1,1,0,0,0-.22.36,1.08,1.08,0,0,0-.07.31,3.56,3.56,0,0,1-.08.57,1.11,1.11,0,0,0,.14.38c.16.24.44.52.44.83a.22.22,0,0,0,.05-.08,1.78,1.78,0,0,0,.28-.72,3.43,3.43,0,0,1,.2-.84.77.77,0,0,1,.5-.48A1.06,1.06,0,0,1,96.24,61.65Z"/><path class="cls-58" d="M95,62.81l0-.07a1.83,1.83,0,0,0,.06-.25l.09-.4a2.87,2.87,0,0,0,0-.31,1.13,1.13,0,0,0,0-.32.2.2,0,0,0,0-.11.34.34,0,0,0-.09-.08.73.73,0,0,0-.5-.11l-.27.05a1,1,0,0,1-.24,0,1.59,1.59,0,0,1-.38-.07,2.64,2.64,0,0,0-.4-.12L93,61a1.5,1.5,0,0,1-.45-.24c-.11-.08-.21-.29-.37-.21l-.14.11-.08,0a.76.76,0,0,0-.17.23,2.06,2.06,0,0,0-.17.33l-.17.46a4.56,4.56,0,0,0-.18.52c0,.1-.09.19-.12.3s0,.16,0,.27,0,.22.06.33.08.21.13.32a1,1,0,0,0,.14.25.84.84,0,0,0,.46.23,2.12,2.12,0,0,0,.44.06l.26,0H93a1.47,1.47,0,0,1,.21,0l.21,0,.53.09a1,1,0,0,0,.43,0,.61.61,0,0,0,.39-.38,3.57,3.57,0,0,0,.11-.47C94.92,63.09,95,63,95,62.81Z"/><path class="cls-60" d="M95.22,61.44a.25.25,0,0,0-.14-.17.73.73,0,0,0-.5-.11l-.27.05a1,1,0,0,1-.24,0,1.59,1.59,0,0,1-.38-.07,2.64,2.64,0,0,0-.4-.12L93,61a1.5,1.5,0,0,1-.45-.24c-.11-.08-.21-.29-.37-.21l-.14.11-.08,0a.76.76,0,0,0-.17.23,2.06,2.06,0,0,0-.17.33l-.17.46a4.56,4.56,0,0,0-.18.52c0,.1-.09.19-.12.3s0,.16,0,.27,0,.22.06.33a1.78,1.78,0,0,0,.12.29c0-.09.15-.45.19-.55s.16-.37.25-.55a3.25,3.25,0,0,0,.3-.51c.05-.14,0-.27.24-.29s.32.09.48.13a2.36,2.36,0,0,0,.53.1c.22,0,.43-.07.64-.06s.5.11.76.11S95.26,61.62,95.22,61.44Z"/><path class="cls-61" d="M91.72,62.05a3.17,3.17,0,0,0-.17.38c-.11.25-.23.5-.36.74a1.18,1.18,0,0,1-.38.53,1.14,1.14,0,0,1-1.13,0,1.55,1.55,0,0,1-.51-.54c0-.08-.08-.16-.12-.24s-.23-.24-.27-.39a.76.76,0,0,1,0-.26,1.18,1.18,0,0,1,.16-.58,2.09,2.09,0,0,0,.37-.63c0-.13.07-.26.11-.4.12-.34.39-1,.84-.87h0c.09.06.18.15.29.13a2.12,2.12,0,0,0,.31-.14.9.9,0,0,1,.25-.08h.07a.49.49,0,0,1,.21.08,1.57,1.57,0,0,1,.38.35l.08.07a.42.42,0,0,1,.15.23,1.09,1.09,0,0,1,0,.22,3.2,3.2,0,0,1-.19,1.06A2.09,2.09,0,0,1,91.72,62.05Z"/><path class="cls-60" d="M91.89,60.6l.07,0c.09,0,.07-.08,0-.16a.59.59,0,0,0-.13-.18l-.08-.07a1.57,1.57,0,0,0-.38-.35.49.49,0,0,0-.21-.08h-.07a.9.9,0,0,0-.25.08,2.12,2.12,0,0,1-.31.14c-.11,0-.2-.07-.29-.13h0c-.45-.11-.72.53-.84.87,0,.14-.06.27-.11.4a2.09,2.09,0,0,1-.37.63,1.18,1.18,0,0,0-.16.58.76.76,0,0,0,0,.26c0,.15.18.26.27.39l0,0a3.2,3.2,0,0,0,.36-.85l.42-1.33a.92.92,0,0,1,.19-.25.35.35,0,0,1,.11-.1.46.46,0,0,1,.36,0,1,1,0,0,0,.49.13,3.25,3.25,0,0,1,.54,0A2,2,0,0,0,91.89,60.6Z"/><path class="cls-62" d="M89.29,61.5a1.58,1.58,0,0,0-.68-1.82,1.31,1.31,0,0,0-.93-.1,3.09,3.09,0,0,0-1,.71c-.24.22-.22.56-.27.85a6.39,6.39,0,0,0-.09.75,2.17,2.17,0,0,0,0,.36,1.07,1.07,0,0,0,.14.35.79.79,0,0,0,.19.25,1.82,1.82,0,0,0,.41.27,1.6,1.6,0,0,0,.48.11,1.9,1.9,0,0,0,.34,0,.52.52,0,0,0,.32-.09,1.42,1.42,0,0,0,.3-.3,4.37,4.37,0,0,0,.31-.44c.14-.22.27-.46.39-.69A2.14,2.14,0,0,1,89.29,61.5Z"/><path class="cls-63" d="M86.44,62.62a3.63,3.63,0,0,0,.1-.66c0-.29.14-.59.18-.89a2,2,0,0,1,.07-.35.72.72,0,0,1,.14-.24,2.11,2.11,0,0,1,.66-.6,2.28,2.28,0,0,1,.85-.22l.08,0a1.28,1.28,0,0,0-.84-.06,3.09,3.09,0,0,0-1,.71c-.24.22-.22.56-.27.85a6.39,6.39,0,0,0-.09.75,2.17,2.17,0,0,0,0,.36A1.16,1.16,0,0,0,86.44,62.62Z"/><path class="cls-64" d="M83,58.83l-.2.37c-.07.14-.17.25-.25.38l-.09.07a.16.16,0,0,1-.09,0h0a.19.19,0,0,1-.13,0A.52.52,0,0,1,82,59.5a3,3,0,0,1-.36-.56,1.2,1.2,0,0,1,.07-1c.13-.44.3-.85.46-1.27a2.9,2.9,0,0,1,.28-.65h0s0,0,0,0h0c.14-.16.36,0,.49.08a.9.9,0,0,1,.15.19c.13.16.25.33.37.49a1,1,0,0,1,.2.49.78.78,0,0,1,0,.22l-.15.37A10,10,0,0,1,83,58.83Z"/><path class="cls-65" d="M82.92,56.21a.77.77,0,0,1,.22.22l.34.45c0,.07.1.17.17.19a.94.94,0,0,0-.16-.3c-.12-.16-.24-.33-.37-.49a.9.9,0,0,0-.15-.19c-.13-.13-.35-.24-.49-.08h0s0,0,0,0h0a2.9,2.9,0,0,0-.28.65c-.16.42-.33.83-.46,1.27a1.2,1.2,0,0,0-.07,1,2.53,2.53,0,0,0,.13.22,8.11,8.11,0,0,1,.59-2.1,3.12,3.12,0,0,0,.15-.39,1.7,1.7,0,0,1,.1-.32.26.26,0,0,1,.15-.16A.29.29,0,0,1,82.92,56.21Z"/><path class="cls-66" d="M85.2,58.42l-.73-.67-.2-.17c-.18-.11-.46-.21-.61,0a2.33,2.33,0,0,0-.32.72c-.16.42-.32.85-.45,1.29s-.23.67,0,1a4,4,0,0,0,.48.53.5.5,0,0,0,.61.09,1.85,1.85,0,0,0,.61-.69,8.85,8.85,0,0,0,.65-1.21,2.08,2.08,0,0,0,.15-.39c0-.19,0-.23-.14-.35Z"/><path class="cls-65" d="M84.27,57.58c-.18-.11-.46-.21-.61,0a2.33,2.33,0,0,0-.32.72c-.16.42-.32.85-.45,1.29s-.23.67,0,1l.06.07a3.48,3.48,0,0,1,.1-.91,13.36,13.36,0,0,1,.47-1.39c.1-.24.2-.71.54-.62a1,1,0,0,1,.21.1,2.07,2.07,0,0,1,.38.28,3.08,3.08,0,0,0,.43.38.09.09,0,0,0,0-.06l-.65-.6Z"/><path class="cls-67" d="M85.85,62a.43.43,0,0,1-.2.15.65.65,0,0,1-.22.08.86.86,0,0,1-.39-.05,1.47,1.47,0,0,1-.28-.14l-.12-.1a.71.71,0,0,1-.17-.21.5.5,0,0,1,0-.21,1.37,1.37,0,0,1,.08-.66c.11-.41.27-.82.42-1.23A2.55,2.55,0,0,1,85.2,59s0,0,0,0h0a.54.54,0,0,1,.21-.16c.21-.09.37,0,.54.13l.7.39c.12.07.31.22.34.36a.51.51,0,0,1,0,.21c0,.13-.08.25-.13.37-.15.34-.34.66-.52,1l-.21.38A3.6,3.6,0,0,1,85.85,62Z"/><path class="cls-65" d="M84.69,62l0-.3a2.16,2.16,0,0,1,0-.44,1.73,1.73,0,0,1,.07-.31,14.54,14.54,0,0,1,.54-1.57,2.1,2.1,0,0,1,.13-.26.93.93,0,0,1,.14-.14,1.12,1.12,0,0,1,.29-.14.44.44,0,0,0-.39,0,.54.54,0,0,0-.21.16h0s0,0,0,0a2.55,2.55,0,0,0-.28.64c-.15.41-.31.82-.42,1.23a1.37,1.37,0,0,0-.08.66.5.5,0,0,0,0,.21.71.71,0,0,0,.17.21Z"/><path class="cls-2" d="M83.73,51.54c.06-.06,0-.14,0-.21s0-.1-.08-.13a.44.44,0,0,0-.15-.05.22.22,0,0,0-.2.1,1,1,0,0,0-.08.18s0,0-.06.08a.09.09,0,0,0,0,.11.27.27,0,0,0,.08.07l.08.05.09,0c.07,0,.1-.09.16-.14S83.69,51.59,83.73,51.54Z"/><path class="cls-2" d="M86.17,50.94c0-.08,0-.17-.08-.24a.66.66,0,0,0-.2-.24,2,2,0,0,1-.21-.1c-.15-.12-.37-.38-.59-.35s-.34.21-.48.33l0,0s0,.08,0,.1.05.08,0,.11-.08,0-.11,0-.1-.06-.11-.12,0-.05,0-.07a.11.11,0,0,0-.08,0,1.1,1.1,0,0,0-.36,0,.55.55,0,0,0-.28.09.2.2,0,0,0-.08.12c0,.15.12.17.22.22a1.16,1.16,0,0,1,.31.28.75.75,0,0,0,.27.23c.12.06.2,0,.33,0a.59.59,0,0,0,.14-.06.34.34,0,0,0,.1-.43s-.07-.07,0-.1a.07.07,0,0,1,.06,0h.25l0,0a.08.08,0,0,1,0,.09v.1c0,.09.11.12.18.15a.15.15,0,0,0,.1,0h.29C86,51.08,86.14,51.05,86.17,50.94Z"/><g class="cls-68"><polygon class="cls-16" points="89.3 48.7 89.35 48.84 89.3 48.84 89.3 48.7"/><polygon class="cls-17" points="89.3 48.27 89.5 48.84 89.35 48.84 89.3 48.7 89.3 48.27"/><polygon class="cls-18" points="89.3 47.83 89.65 48.84 89.5 48.84 89.3 48.27 89.3 47.83"/><polygon class="cls-19" points="89.3 47.39 89.8 48.84 89.65 48.84 89.3 47.83 89.3 47.39"/><polygon class="cls-20" points="89.3 46.95 89.95 48.84 89.8 48.84 89.3 47.39 89.3 46.95"/><polygon class="cls-21" points="89.3 46.51 90.1 48.84 89.95 48.84 89.3 46.95 89.3 46.51"/><polygon class="cls-22" points="89.3 46.08 90.25 48.84 90.1 48.84 89.3 46.51 89.3 46.08"/><polygon class="cls-23" points="89.3 45.64 90.4 48.84 90.25 48.84 89.3 46.08 89.3 45.64"/><polygon class="cls-24" points="89.33 45.29 90.55 48.84 90.4 48.84 89.3 45.64 89.3 45.29 89.33 45.29"/><polygon class="cls-25" points="89.48 45.29 90.7 48.84 90.55 48.84 89.33 45.29 89.48 45.29"/><polygon class="cls-26" points="89.63 45.29 90.86 48.84 90.7 48.84 89.48 45.29 89.63 45.29"/><polygon class="cls-27" points="89.78 45.29 91 48.84 90.86 48.84 89.63 45.29 89.78 45.29"/><polygon class="cls-28" points="89.93 45.29 91.16 48.84 91 48.84 89.78 45.29 89.93 45.29"/><polygon class="cls-29" points="90.08 45.29 91.31 48.84 91.16 48.84 89.93 45.29 90.08 45.29"/><polygon class="cls-30" points="90.23 45.29 91.46 48.84 91.31 48.84 90.08 45.29 90.23 45.29"/><polygon class="cls-31" points="90.39 45.29 91.61 48.84 91.46 48.84 90.23 45.29 90.39 45.29"/><polygon class="cls-32" points="90.54 45.29 91.76 48.84 91.61 48.84 90.39 45.29 90.54 45.29"/><polygon class="cls-33" points="90.69 45.29 91.91 48.84 91.76 48.84 90.54 45.29 90.69 45.29"/><polygon class="cls-34" points="90.84 45.29 92.06 48.84 91.91 48.84 90.69 45.29 90.84 45.29"/><polygon class="cls-35" points="90.99 45.29 92.21 48.84 92.06 48.84 90.84 45.29 90.99 45.29"/><polygon class="cls-36" points="91.14 45.29 92.36 48.84 92.21 48.84 90.99 45.29 91.14 45.29"/><polygon class="cls-37" points="91.29 45.29 92.51 48.84 92.36 48.84 91.14 45.29 91.29 45.29"/><polygon class="cls-38" points="91.44 45.29 92.66 48.84 92.51 48.84 91.29 45.29 91.44 45.29"/><polygon class="cls-39" points="91.59 45.29 92.81 48.84 92.66 48.84 91.44 45.29 91.59 45.29"/><polygon class="cls-40" points="91.74 45.29 92.97 48.84 92.81 48.84 91.59 45.29 91.74 45.29"/><polygon class="cls-41" points="91.89 45.29 93.12 48.84 92.97 48.84 91.74 45.29 91.89 45.29"/><polygon class="cls-42" points="92.04 45.29 93.27 48.84 93.12 48.84 91.89 45.29 92.04 45.29"/><polygon class="cls-43" points="92.19 45.29 93.42 48.84 93.27 48.84 92.04 45.29 92.19 45.29"/><polygon class="cls-44" points="92.34 45.29 93.57 48.84 93.42 48.84 92.19 45.29 92.34 45.29"/><polygon class="cls-44" points="92.5 45.29 93.59 48.47 93.59 48.84 93.57 48.84 92.34 45.29 92.5 45.29"/><polygon class="cls-44" points="93.59 48.47 92.5 45.29 93.59 45.29 93.59 48.47"/></g><path class="cls-45" d="M91,48.15a1.09,1.09,0,0,0,.13-1,1.72,1.72,0,0,0-.92-.84l-.16-.07H90l-.19.07a.6.6,0,0,0-.21.14l0,0,0,0,0,0,0,0s0,0,0,0v0a2.29,2.29,0,0,1,0,.69,2.81,2.81,0,0,1,.09.49l0,0a2.43,2.43,0,0,1,.76.65.67.67,0,0,0,.37.27.85.85,0,0,1,.09-.31A3,3,0,0,1,91,48.15Z"/><path class="cls-46" d="M91.12,47.34a1.59,1.59,0,0,1-.44-.42,2.18,2.18,0,0,0-.43-.32,1.68,1.68,0,0,1-.48-.36.73.73,0,0,1-.13-.31.66.66,0,0,1,.33-.2.58.58,0,0,1,.19,0,2,2,0,0,1,.49,0h.49a3.37,3.37,0,0,0,.59-.25.88.88,0,0,1,.4-.14.55.55,0,0,1,.5.24c.09.11.15.42.25.54a1,1,0,0,0,.13.16l.23.18a1.25,1.25,0,0,1,.26.3.58.58,0,0,1,.09.23c0,.15-.11.26-.22.33a.43.43,0,0,1-.31.06,2,2,0,0,1-.34-.05l-.38-.06a1.3,1.3,0,0,0-.44,0c-.06,0-.12.05-.18.06s-.22,0-.32.07A.45.45,0,0,1,91.12,47.34Z"/><path class="cls-47" d="M90.87,46.4a1.13,1.13,0,0,1,.25,0h.24a3.17,3.17,0,0,1,.51.2l.09,0a.19.19,0,0,0,.15-.07c.06-.06.09-.15.15-.2a.24.24,0,0,1,.08-.06.75.75,0,0,1,.51,0c.22.09.87.52.5.84a.52.52,0,0,1-.4.1,3,3,0,0,0-1.22-.06,1.19,1.19,0,0,1-.32.1.71.71,0,0,1-.32-.07c-.13,0-.15-.12-.21-.24a.58.58,0,0,0-.37-.28s-.05,0-.06,0S90.81,46.42,90.87,46.4Z"/><path class="cls-47" d="M91.17,46.3a1,1,0,0,0-.39,0,1.2,1.2,0,0,0-.24.15c-.06,0-.15.12-.21.09s-.06,0-.08-.09a.74.74,0,0,0-.49-.29l-.06,0v0c0-.16.14-.26.26-.31a1,1,0,0,1,.43-.07,2.28,2.28,0,0,1,.51.09,1,1,0,0,0,.67-.15,4.85,4.85,0,0,1,.54-.3h.12a.6.6,0,0,1,.51.42,1,1,0,0,0,0,.17.88.88,0,0,0,0,.15s0,.06.06.11a1.09,1.09,0,0,0-.26-.05.37.37,0,0,0-.18,0c-.1,0-.2.07-.3.09s-.19,0-.29-.07a.66.66,0,0,0-.34,0A.85.85,0,0,1,91.17,46.3Z"/><path class="cls-2" d="M91.13,45.9a4.68,4.68,0,0,0,.48-.18,1.81,1.81,0,0,1,.53-.24.39.39,0,0,1,.44.23,3,3,0,0,0,.11.32l-.45.06a.69.69,0,0,1-.24,0c-.08,0-.15,0-.23-.06a.58.58,0,0,0-.26.06,1.51,1.51,0,0,1-.42,0l-.18,0a1.52,1.52,0,0,0-.28.09,1,1,0,0,0-.22.09l0,0h0a.33.33,0,0,1-.13-.11.27.27,0,0,0-.1-.08.75.75,0,0,1-.21-.12c-.07-.08.09-.19.16-.22l.14,0a1.41,1.41,0,0,1,.46,0A.79.79,0,0,0,91.13,45.9Z"/><path class="cls-2" d="M92.64,46.33a.86.86,0,0,1,.48.2c.1.07.32.21.26.37s-.4.15-.57.11a1.8,1.8,0,0,0-1,.07.68.68,0,0,1-.42.05.34.34,0,0,1-.23-.11.91.91,0,0,1-.09-.17.39.39,0,0,0-.16-.15c-.06,0-.14-.06-.13-.13a.14.14,0,0,1,.12-.1,1,1,0,0,1,.67.06,1.76,1.76,0,0,0,.4.16c.18,0,.3-.08.42-.21A.36.36,0,0,1,92.64,46.33Z"/><path class="cls-48" d="M92.81,48.05a.62.62,0,0,0-.14.25.53.53,0,0,1-.11.24,3.2,3.2,0,0,0-.72,0v0c0-.14-.13-.12-.24,0a1.12,1.12,0,0,0-.25.28,1.09,1.09,0,0,1-.46.12h0c0-.06,0-.12.05-.18a.87.87,0,0,1,.1-.19,1,1,0,0,0,.18-.45.78.78,0,0,1,.16-.47l.09-.07a2,2,0,0,1,.26-.09,1.58,1.58,0,0,1,.57-.08,2,2,0,0,1,.42.07,1.16,1.16,0,0,1,.37.13c.09,0,.06.16,0,.24A1.38,1.38,0,0,1,92.81,48.05Z"/><path class="cls-17" d="M91.63,48.57l-.15.07-.13.07a.56.56,0,0,1,.22-.13Z"/><path class="cls-49" d="M91.35,48.71l0,0h0s0,0,0,0Z"/><g class="cls-69"><polygon class="cls-51" points="86.44 49.3 86.5 49.48 86.44 49.48 86.44 49.3"/><polygon class="cls-16" points="86.44 48.85 86.65 49.48 86.5 49.48 86.44 49.3 86.44 48.85"/><polygon class="cls-17" points="86.44 48.4 86.81 49.48 86.65 49.48 86.44 48.85 86.44 48.4"/><polygon class="cls-18" points="86.44 47.95 86.96 49.48 86.81 49.48 86.44 48.4 86.44 47.95"/><polygon class="cls-19" points="86.44 47.49 87.12 49.48 86.96 49.48 86.44 47.95 86.44 47.49"/><polygon class="cls-20" points="86.44 47.04 87.27 49.48 87.12 49.48 86.44 47.49 86.44 47.04"/><polygon class="cls-21" points="86.44 46.59 87.43 49.48 87.27 49.48 86.44 47.04 86.44 46.59"/><polygon class="cls-22" points="86.44 46.14 87.58 49.48 87.43 49.48 86.44 46.59 86.44 46.14"/><polygon class="cls-23" points="86.49 45.83 87.74 49.48 87.58 49.48 86.44 46.14 86.44 45.83 86.49 45.83"/><polygon class="cls-24" points="86.64 45.83 87.9 49.48 87.74 49.48 86.49 45.83 86.64 45.83"/><polygon class="cls-25" points="86.8 45.83 88.05 49.48 87.9 49.48 86.64 45.83 86.8 45.83"/><polygon class="cls-26" points="86.95 45.83 88.21 49.48 88.05 49.48 86.8 45.83 86.95 45.83"/><polygon class="cls-27" points="87.11 45.83 88.36 49.48 88.21 49.48 86.95 45.83 87.11 45.83"/><polygon class="cls-28" points="87.26 45.83 88.52 49.48 88.36 49.48 87.11 45.83 87.26 45.83"/><polygon class="cls-29" points="87.42 45.83 88.67 49.48 88.52 49.48 87.26 45.83 87.42 45.83"/><polygon class="cls-30" points="87.58 45.83 88.83 49.48 88.67 49.48 87.42 45.83 87.58 45.83"/><polygon class="cls-31" points="87.73 45.83 88.98 49.48 88.83 49.48 87.58 45.83 87.73 45.83"/><polygon class="cls-32" points="87.89 45.83 89.14 49.48 88.98 49.48 87.73 45.83 87.89 45.83"/><polygon class="cls-33" points="88.04 45.83 89.3 49.48 89.14 49.48 87.89 45.83 88.04 45.83"/><polygon class="cls-34" points="88.2 45.83 89.45 49.48 89.3 49.48 88.04 45.83 88.2 45.83"/><polygon class="cls-35" points="88.35 45.83 89.61 49.48 89.45 49.48 88.2 45.83 88.35 45.83"/><polygon class="cls-36" points="88.51 45.83 89.76 49.48 89.61 49.48 88.35 45.83 88.51 45.83"/><polygon class="cls-37" points="88.66 45.83 89.92 49.48 89.76 49.48 88.51 45.83 88.66 45.83"/><polygon class="cls-38" points="88.82 45.83 90.07 49.48 89.92 49.48 88.66 45.83 88.82 45.83"/><polygon class="cls-39" points="88.97 45.83 90.23 49.48 90.07 49.48 88.82 45.83 88.97 45.83"/><polygon class="cls-40" points="89.13 45.83 90.39 49.48 90.23 49.48 88.97 45.83 89.13 45.83"/><polygon class="cls-41" points="89.29 45.83 90.54 49.48 90.39 49.48 89.13 45.83 89.29 45.83"/><polygon class="cls-42" points="89.44 45.83 90.7 49.48 90.54 49.48 89.29 45.83 89.44 45.83"/><polygon class="cls-43" points="89.6 45.83 90.85 49.48 90.7 49.48 89.44 45.83 89.6 45.83"/><polygon class="cls-44" points="89.75 45.83 90.99 49.43 90.99 49.48 90.85 49.48 89.6 45.83 89.75 45.83"/><polygon class="cls-44" points="89.91 45.83 90.99 48.98 90.99 49.43 89.75 45.83 89.91 45.83"/><polygon class="cls-44" points="90.99 48.98 89.91 45.83 90.99 45.83 90.99 48.98"/></g><path class="cls-45" d="M87.74,49.31s0,0,0,0a.93.93,0,0,1,.11-.49,3,3,0,0,1,.27-.35,1.06,1.06,0,0,0,.12-1,1.66,1.66,0,0,0-.92-.84l-.15-.07h0l-.08,0-.19.07a.74.74,0,0,0-.21.13s0,0,0,0l0,0,0,.05v0a1.12,1.12,0,0,0-.1.41,1.63,1.63,0,0,0,0,.31,3.78,3.78,0,0,1,.1.57,1,1,0,0,0,.25.32,2.17,2.17,0,0,1,.67.62A.61.61,0,0,0,87.74,49.31Z"/><path class="cls-46" d="M88.42,48a1.85,1.85,0,0,1-.56-.36,2.57,2.57,0,0,0-.53-.25,1.92,1.92,0,0,1-.57-.29.65.65,0,0,1-.21-.28.59.59,0,0,1,.31-.25l.19-.07a2.37,2.37,0,0,1,.53,0l.52-.08a4.79,4.79,0,0,0,.58-.33.91.91,0,0,1,.39-.2.67.67,0,0,1,.58.17c.12.1.25.39.37.5l.18.14.27.15a1.25,1.25,0,0,1,.34.25.62.62,0,0,1,.15.21.34.34,0,0,1-.17.36.51.51,0,0,1-.31.11h-.79a1.26,1.26,0,0,0-.47.08l-.18.09-.32.1A.51.51,0,0,1,88.42,48Z"/><path class="cls-47" d="M88,47.13a.9.9,0,0,1,.27-.07,1,1,0,0,1,.25,0,3.73,3.73,0,0,1,.58.12.16.16,0,0,0,.1,0,.2.2,0,0,0,.15-.09,1.51,1.51,0,0,1,.11-.22.27.27,0,0,1,.08-.07.91.91,0,0,1,.54,0c.26.06,1,.39.71.76a.59.59,0,0,1-.41.15,3.17,3.17,0,0,0-1.3.12,2.15,2.15,0,0,1-.32.13.87.87,0,0,1-.36,0c-.14,0-.18-.11-.26-.22a.77.77,0,0,0-.46-.22s-.06,0-.07,0S87.89,47.16,88,47.13Z"/><path class="cls-47" d="M88.25,47a.93.93,0,0,0-.4.09,1,1,0,0,0-.23.18c-.05,0-.13.14-.2.12a.18.18,0,0,1-.11-.08.88.88,0,0,0-.57-.22l-.07,0a.08.08,0,0,1,0,0c-.05-.15.1-.27.21-.34a1.17,1.17,0,0,1,.45-.13,2.65,2.65,0,0,1,.56,0,1.06,1.06,0,0,0,.69-.24,3.17,3.17,0,0,1,.51-.37.5.5,0,0,1,.12,0,.69.69,0,0,1,.63.34l.08.16a1.09,1.09,0,0,0,.08.15s.07,0,.09.09a1.34,1.34,0,0,0-.28,0,.64.64,0,0,0-.2,0,2.71,2.71,0,0,1-.3.13c-.1,0-.21,0-.32,0a.66.66,0,0,0-.36.08A1.36,1.36,0,0,1,88.25,47Z"/><path class="cls-2" d="M88.13,46.59a4.16,4.16,0,0,0,.47-.24,1.94,1.94,0,0,1,.51-.31.47.47,0,0,1,.52.16,3.21,3.21,0,0,0,.19.31,1.91,1.91,0,0,0-.47.12,1,1,0,0,1-.25.08,2.3,2.3,0,0,1-.26,0,.8.8,0,0,0-.26.09,1.32,1.32,0,0,1-.43.12.66.66,0,0,0-.2,0,1.39,1.39,0,0,0-.28.12.88.88,0,0,0-.21.12l0,0h0a.75.75,0,0,1-.15-.09.33.33,0,0,0-.13-.07.7.7,0,0,1-.24-.09c-.11-.07.05-.2.12-.24l.14,0a1.38,1.38,0,0,1,.49,0A1,1,0,0,0,88.13,46.59Z"/><path class="cls-2" d="M89.82,46.81a1,1,0,0,1,.55.13c.12.06.38.16.35.32s-.39.21-.58.2a2.07,2.07,0,0,0-1.1.21.76.76,0,0,1-.44.11.4.4,0,0,1-.26-.08.93.93,0,0,1-.13-.15.63.63,0,0,0-.2-.13c-.07,0-.17,0-.17-.11s0-.09.1-.11a1.21,1.21,0,0,1,.73,0,2.52,2.52,0,0,0,.46.1.49.49,0,0,0,.4-.28A.4.4,0,0,1,89.82,46.81Z"/><path class="cls-48" d="M90.26,48.75a.51.51,0,0,1-.06.21,2.17,2.17,0,0,1-.76.18s0-.08,0-.11-.17-.1-.27,0l-.1.12a1.06,1.06,0,0,0-.46.1l-.08,0a.75.75,0,0,1,.06-.13,1.15,1.15,0,0,0,.1-.48.66.66,0,0,1,.07-.48.2.2,0,0,1,.08-.08,1,1,0,0,1,.26-.12,1.49,1.49,0,0,1,.58-.17,3.69,3.69,0,0,1,.47,0,1.56,1.56,0,0,1,.42.08c.09,0,.09.15.06.23a1.36,1.36,0,0,1-.24.35A.51.51,0,0,0,90.26,48.75Z"/><path class="cls-52" d="M87.43,49.67a1.23,1.23,0,0,0,0-.19l0-.27c0-.07,0-.15,0-.22a1.6,1.6,0,0,1,.18-.67.84.84,0,0,0,.13-.29.4.4,0,0,0-.16-.22,1.17,1.17,0,0,1-.24-.3.33.33,0,0,0-.3-.08l-.35,0a3,3,0,0,0-.52.1l-.34.09a.85.85,0,0,1-.47-.1c-.13,0-.34.09-.45.16a.4.4,0,0,0-.18.38,4.62,4.62,0,0,1-.08.65,1,1,0,0,0-.06.23,1.25,1.25,0,0,1,0,.19c0,.07,0,.14,0,.21a1.47,1.47,0,0,0,.39.8.54.54,0,0,0,.49.22.58.58,0,0,0,.18,0,1.43,1.43,0,0,1,.71-.09,1.83,1.83,0,0,0,.66,0,2.75,2.75,0,0,0,.3-.14.56.56,0,0,0,.22-.24A.41.41,0,0,0,87.43,49.67Z"/><path class="cls-53" d="M85.47,49.8a3.81,3.81,0,0,1,.28-1.14.24.24,0,0,0,0-.15.25.25,0,0,0,0-.11,1.87,1.87,0,0,0-.58-.64.86.86,0,0,0-.24-.11l-.08.05a.4.4,0,0,0-.18.38,4.62,4.62,0,0,1-.08.65,1,1,0,0,0-.06.23,1.25,1.25,0,0,1,0,.19c0,.07,0,.14,0,.21a1.47,1.47,0,0,0,.39.8.54.54,0,0,0,.49.22h.08A5.51,5.51,0,0,0,85.47,49.8Z"/><path class="cls-46" d="M87.67,48a.3.3,0,0,0-.06-.11,2.5,2.5,0,0,0-1-.83c-.07,0-.14-.09-.23-.05a.28.28,0,0,0-.09.07,2.2,2.2,0,0,1-1.15.42.53.53,0,0,0-.41.28c0,.09,0,.1.09.11a.38.38,0,0,1,.25.11c.13.11.21.3.36.39a1.66,1.66,0,0,0,.41.23c.23.05.35-.06.54-.15s.27,0,.4-.09a2.08,2.08,0,0,1,.43,0C87.42,48.33,87.72,48.21,87.67,48Z"/><path class="cls-52" d="M85.27,49.89a6.12,6.12,0,0,1,0-.85c0-.16.06-.63-.22-.39a1,1,0,0,0-.25.25c0,.09,0,.18-.17.18a1,1,0,0,1-.17,0,.93.93,0,0,0-.42.15c-.07,0-.15.12-.23.1s-.14-.12-.22-.08-.15.33-.17.4a5.86,5.86,0,0,0-.21.9c0,.13,0,.24.07.31l.41.18a3.36,3.36,0,0,0,.42.22,1,1,0,0,0,.48,0,1.17,1.17,0,0,0,.49,0,.64.64,0,0,0,.33-.65c0-.1-.07-.2-.1-.3A1.77,1.77,0,0,1,85.27,49.89Z"/><path class="cls-14" d="M94.64,45.28h0a.81.81,0,0,0-.14-.37l-.73-1.05a43.11,43.11,0,0,0-8.59,3.51l-1,.83a4.93,4.93,0,0,0-1.12,1,3.07,3.07,0,0,0-.6,1.43,1.13,1.13,0,0,0,.06.36,2.14,2.14,0,0,1,.13,1.09,1.46,1.46,0,0,0,.24.89A8.6,8.6,0,0,0,84,54.87a11.78,11.78,0,0,0,3,2.75,7.3,7.3,0,0,0,1.06.5,22,22,0,0,0,4.16,1.11c1.65.32,3.31.55,5,.73.91.1,1.81.18,2.72.25l.68,0a2.21,2.21,0,0,0,.63,0,2,2,0,0,0,.8-.48c.61-.49,1.35-.47,2-.84a3.1,3.1,0,0,0,1-1.3,1.28,1.28,0,0,0,.16-.6c0-.2-.09-.43-.31-.47s-.42.26-.72-.08c-.16-.17-.31-.36-.47-.54l-1.08-1.27-2.55-3-4.59-5.38Z"/><path class="cls-46" d="M85.31,48.69h0a2.53,2.53,0,0,0-.13-.22c-.1-.13-.23-.32-.41-.27s-.26.18-.4.28-.29.09-.43.18a.94.94,0,0,0-.36.51.14.14,0,0,0,0,.11c0,.05.06.08.1.11a.52.52,0,0,0,.57-.12.23.23,0,0,1,.08-.09c.08,0,.19,0,.29,0a.28.28,0,0,0,.17-.07C84.9,49,85.12,48.44,85.31,48.69Z"/><path class="cls-54" d="M83.28,51.29c0-.28-.07-.59-.3-.67h0c-.28-.09-.41.47-.46.64-.13.37-.23.76-.34,1.13a2.34,2.34,0,0,0-.08,1.41,1.27,1.27,0,0,0,.18.29l0,.05c.13,0,.23-.25.26-.33A11.08,11.08,0,0,0,83,52.66a5.59,5.59,0,0,0,.27-1A3.11,3.11,0,0,0,83.28,51.29Z"/><path class="cls-70" d="M82.06,53.69c0-.27.06-.54.12-.8s.18-.53.27-.8a3.72,3.72,0,0,1,.49-1.22s.08-.1.14-.12h.07a.29.29,0,0,0-.17-.14h0c-.28-.09-.41.47-.46.64-.13.37-.23.76-.34,1.13A2.54,2.54,0,0,0,82.06,53.69Z"/><path class="cls-56" d="M83.61,52a1.48,1.48,0,0,1,.07,1.24c-.09.34-.19.68-.3,1s-.28.66-.43,1c-.06.13-.17.42-.36.29a.83.83,0,0,1-.27-.55,2.28,2.28,0,0,1-.09-.51,1.51,1.51,0,0,1,.09-.47A15.1,15.1,0,0,1,83,52.37C83.06,52.18,83.37,51.57,83.61,52Z"/><path class="cls-55" d="M83.63,52.14h.08c0-.06-.06-.13-.1-.2-.24-.38-.55.23-.64.42a15.1,15.1,0,0,0-.65,1.56,1.51,1.51,0,0,0-.09.47,2.28,2.28,0,0,0,.09.51.36.36,0,0,0,0,.1,7.74,7.74,0,0,1,1-2.69C83.4,52.19,83.48,52.1,83.63,52.14Z"/><path class="cls-58" d="M100.31,61.9a2.46,2.46,0,0,0-.56.15,1.27,1.27,0,0,1-.83.1,1.22,1.22,0,0,1-.49-.44,1.29,1.29,0,0,1-.27-.61,1.54,1.54,0,0,1,.17-.59,2.45,2.45,0,0,1,.34-.5,4.78,4.78,0,0,1,.8-.82,2.54,2.54,0,0,1,.91-.43,1.06,1.06,0,0,1,.53,0c.3.08.71.25.8.58a.86.86,0,0,1,0,.42c-.09.27-.26.53-.33.75a2.68,2.68,0,0,0-.11.68c0,.26-.14.72-.46.75a.89.89,0,0,1-.23,0Z"/><path class="cls-59" d="M99.18,59.92a3.73,3.73,0,0,1,.28-.38,1.93,1.93,0,0,1,1.64-.75l-.19-.06a1.06,1.06,0,0,0-.53,0,2.54,2.54,0,0,0-.91.43,4.78,4.78,0,0,0-.8.82,2.45,2.45,0,0,0-.34.5,1.54,1.54,0,0,0-.17.59,1.29,1.29,0,0,0,.27.61,1.68,1.68,0,0,0,.18.21.29.29,0,0,1,0-.09,2.21,2.21,0,0,1,0-.63A4.1,4.1,0,0,1,99.18,59.92Z"/><path class="cls-58" d="M98.34,58.68c.31,0,.66.22.54.58s-.25.7-.34,1.06-.17.73-.26,1.09c0,.18-.22.41-.43.39s-.2-.07-.31-.08l-.25,0a1.73,1.73,0,0,0-.68,0,1.33,1.33,0,0,1-.9-.08.71.71,0,0,1-.42-.72,1.76,1.76,0,0,1,.34-.81,3.79,3.79,0,0,1,.68-.86,3.06,3.06,0,0,1,.49-.4,1.36,1.36,0,0,1,.88-.2Z"/><path class="cls-59" d="M98.86,59a.59.59,0,0,0-.52-.27l-.66,0a1.36,1.36,0,0,0-.88.2,3.06,3.06,0,0,0-.49.4,3.79,3.79,0,0,0-.68.86,1.76,1.76,0,0,0-.34.81.71.71,0,0,0,.42.72h0c.07-.32,0-.67.06-1A2.41,2.41,0,0,1,96,60a3.31,3.31,0,0,1,1-1.12c.22-.16.48-.09.74-.1a3.06,3.06,0,0,1,1,.16Z"/><path class="cls-58" d="M94.2,58.09a1.76,1.76,0,0,0-.72.3,3.58,3.58,0,0,0-.51.52,4.15,4.15,0,0,0-.69,1.25,1.11,1.11,0,0,0-.08.3,1.07,1.07,0,0,0,.26.66.85.85,0,0,0,.6.44,3.6,3.6,0,0,0,.8,0c.41,0,1,.31,1.28-.11a.92.92,0,0,0,.15-.43,3.48,3.48,0,0,1,.1-.44,8.19,8.19,0,0,1,.23-.85,1.72,1.72,0,0,0,.07-.21,1.23,1.23,0,0,0,.15-.83.72.72,0,0,0-.24-.39,1,1,0,0,0-.23-.13A1.55,1.55,0,0,0,94.9,58,2.77,2.77,0,0,0,94.2,58.09Z"/><path class="cls-60" d="M95.6,58.27a1,1,0,0,0-.23-.13A1.55,1.55,0,0,0,94.9,58a2.77,2.77,0,0,0-.7.07,1.76,1.76,0,0,0-.72.3,3.58,3.58,0,0,0-.51.52,4.15,4.15,0,0,0-.69,1.25,1.11,1.11,0,0,0-.08.3,1.07,1.07,0,0,0,.26.66.91.91,0,0,0,.11.16,10.41,10.41,0,0,1,.49-1.76,2.54,2.54,0,0,1,1.07-1.24,2.15,2.15,0,0,1,1.48,0Z"/><path class="cls-61" d="M90.63,57.94l.16-.12a1.59,1.59,0,0,1,1-.33,1.21,1.21,0,0,1,1,.41,1.11,1.11,0,0,1,0,.82,6.54,6.54,0,0,1-.32,1.15,3.92,3.92,0,0,1-.29.58c-.07.1-.18.09-.29.07s-.27-.05-.4-.07a5.11,5.11,0,0,1-1,0,1.38,1.38,0,0,1-.74-.56.53.53,0,0,1,0-.46c.06-.18.17-.34.22-.51a2.19,2.19,0,0,1,.15-.43A1.66,1.66,0,0,1,90.63,57.94Z"/><path class="cls-62" d="M90.13,57.81a1.47,1.47,0,0,0,0-.29c-.1-.42-.37-.76-.83-.62a1.27,1.27,0,0,0-.79.56c-.21.33-.39.68-.57,1a1.23,1.23,0,0,0-.06,1.09l.13.18.2.25c.27.34.85.09,1.17,0a1.3,1.3,0,0,0,.26-.14,1,1,0,0,0,.3-.47c0-.16.13-.3.16-.46A3.58,3.58,0,0,0,90.13,57.81Z"/><path class="cls-63" d="M89.25,56.9a1.27,1.27,0,0,0-.79.56c-.21.33-.39.68-.57,1a1.23,1.23,0,0,0-.06,1.09l.13.18,0,0a1.82,1.82,0,0,1,0-.33,4.57,4.57,0,0,1,.91-2.09,1.18,1.18,0,0,1,.55-.46h.14A.62.62,0,0,0,89.25,56.9Z"/><path class="cls-64" d="M83.46,54a4.36,4.36,0,0,1,.48-.65c.13-.14.32-.36.54-.3a.72.72,0,0,1,.44.43,1.93,1.93,0,0,1,0,1,10,10,0,0,1-.36,1.18A8,8,0,0,1,84,56.72l0,0h0c-.14.16-.36,0-.5-.08l-.15-.19c-.12-.16-.24-.33-.37-.49a1,1,0,0,1-.2-.49.79.79,0,0,1,0-.22c0-.13.09-.25.15-.37A5.55,5.55,0,0,1,83.46,54Z"/><path class="cls-65" d="M84.48,53c-.22-.06-.41.16-.54.3a4.36,4.36,0,0,0-.48.65,5.55,5.55,0,0,0-.5,1c-.06.12-.1.24-.15.37a.79.79,0,0,0,0,.22.67.67,0,0,0,.07.24c.16-.36.31-.75.49-1.1a12.27,12.27,0,0,1,.79-1.19.9.9,0,0,1,.28-.3.5.5,0,0,1,.34,0A.54.54,0,0,0,84.48,53Z"/><path class="cls-66" d="M84.11,57.42a4.68,4.68,0,0,0,.72.69l.2.17c.18.11.45.21.61,0A2.26,2.26,0,0,0,86,57.6c.14-.36.28-.72.39-1.08s.15-.42.2-.64a1.22,1.22,0,0,0,0-.73c-.14-.35-.58-.85-1-.72a1,1,0,0,0-.45.42c-.13.2-.28.38-.4.58A10.18,10.18,0,0,0,84,56.64a.69.69,0,0,0-.11.36A.88.88,0,0,0,84.11,57.42Z"/><path class="cls-65" d="M85.55,54.43a1,1,0,0,0-.45.42c-.13.2-.28.38-.4.58A10.18,10.18,0,0,0,84,56.64a.69.69,0,0,0-.11.36,1,1,0,0,0,.16.39,2.57,2.57,0,0,1,.16-.54A9.46,9.46,0,0,1,85,55.42c.21-.29.59-1,1-.87h0A.65.65,0,0,0,85.55,54.43Z"/><path class="cls-67" d="M88.08,56.14c-.23-.18-.65-.38-.94-.22a1.17,1.17,0,0,0-.3.24,8.41,8.41,0,0,0-.74,1.16,4.93,4.93,0,0,0-.4.91.38.38,0,0,0,0,.18.66.66,0,0,0,.14.32.87.87,0,0,0,.27.23l.56.32a1.67,1.67,0,0,0,.23.12.63.63,0,0,0,.66-.08h0l0-.05a1.89,1.89,0,0,0,.23-.5c.08-.24.2-.47.27-.71.15-.55.48-1.29.1-1.82A.38.38,0,0,0,88.08,56.14Z"/><path class="cls-65" d="M87.45,56.05a.54.54,0,0,1,.41,0,.78.78,0,0,0-.72-.08,1.17,1.17,0,0,0-.3.24,8.41,8.41,0,0,0-.74,1.16,4.93,4.93,0,0,0-.4.91.38.38,0,0,0,0,.18.66.66,0,0,0,.14.32l0,0A7.34,7.34,0,0,1,87,56.55,1.59,1.59,0,0,1,87.45,56.05Z"/><path class="cls-2" d="M85.08,48.63a.18.18,0,0,0,0-.21c0-.05,0-.1-.08-.13a.39.39,0,0,0-.15-.06.3.3,0,0,0-.2.1,1.54,1.54,0,0,1-.08.19.24.24,0,0,0-.06.08.12.12,0,0,0,0,.1.2.2,0,0,0,.08.08l.09,0s0,0,.08,0,.11-.09.16-.13S85,48.68,85.08,48.63Z"/><path class="cls-2" d="M84.42,48.91v-.06c0-.13.1-.17.19-.25a.31.31,0,0,0,.09-.22v0a0,0,0,0,0,0,0,.08.08,0,0,0,0,0,1.24,1.24,0,0,1-.28.22.6.6,0,0,1-.22.09.3.3,0,0,0-.2.08.42.42,0,0,0-.11.15.85.85,0,0,0-.06.17.21.21,0,0,0,0,.17.14.14,0,0,0,.16.05s.07-.05.1-.08a.4.4,0,0,1,.12-.1.2.2,0,0,1,.08,0h.06C84.39,49.07,84.41,49,84.42,48.91Z"/><path class="cls-2" d="M87.51,48a.31.31,0,0,0-.07-.25,1.1,1.1,0,0,0-.2-.23c-.07,0-.15,0-.22-.11s-.37-.38-.58-.35a1.15,1.15,0,0,0-.49.33l0,0s0,.07,0,.1.06.08,0,.11-.07,0-.11,0a.25.25,0,0,1-.11-.12.17.17,0,0,0,0-.07.11.11,0,0,0-.08,0,1.5,1.5,0,0,0-.37,0,.65.65,0,0,0-.27.08.22.22,0,0,0-.09.12c0,.15.13.17.22.22a1.07,1.07,0,0,1,.31.29,1.22,1.22,0,0,0,.27.23.38.38,0,0,0,.33,0l.15,0a.35.35,0,0,0,.09-.43s-.07-.07,0-.11a.07.07,0,0,1,.06,0h.25l.06,0a.14.14,0,0,1,0,.09.34.34,0,0,0,0,.1c0,.09.1.11.17.15s.05,0,.1,0l.29,0C87.34,48.17,87.48,48.14,87.51,48Z"/><path class="cls-12" d="M104.56,56.56a1.75,1.75,0,0,1-.33-.39c-2.49-4.44-.68-6-3.21-8.94-1.35-1.58-3.35-1.84-5.92-3-1.41-.66-5.14.13-8,1.85l-1.84,1.49a2.19,2.19,0,0,0-.23.33l0,0h0a2.26,2.26,0,0,0-.11.22c-.93,2.45,2,5.55,3.84,6.63,2.55,1.52,10.45,1.89,13.82,2C103,56.76,104.49,56.91,104.56,56.56Z"/><path class="cls-14" d="M103,53.2c-.28,0-.58.09-1,.12-.54,0-1.07.14-1.6.21a24.06,24.06,0,0,1-3.5.15H96a17.19,17.19,0,0,1-5.55-1,8.22,8.22,0,0,1-2.38-1.39,7.42,7.42,0,0,1-2.59-3.65,2.8,2.8,0,0,1-.06-.28l-.18.15a2.19,2.19,0,0,0-.23.33l0,0h0a2.26,2.26,0,0,0-.11.22,3,3,0,0,0-.12,1.6l.44.6a12.53,12.53,0,0,0,2.26,2.34,11,11,0,0,0,3.93,1.84,39,39,0,0,0,5.29.79c1.43.22,2.89-.06,4.32,0a12.22,12.22,0,0,0,2.77,0A13.13,13.13,0,0,1,103,53.2Z"/><path class="cls-12" d="M89.82,42.84a10.64,10.64,0,0,0-1.66,1,15.32,15.32,0,0,0-3.23,2.46,13.26,13.26,0,0,0-2.49,4,.6.6,0,0,1,.86.07,1.55,1.55,0,0,1,.18,1s0,.07,0,.1a.15.15,0,0,0,.09.06c.22.09.4.15.48.39s0,.39.09.59.43.14.56.2a1,1,0,0,1,.5.39,1,1,0,0,1,.14.32c.06.16,0,.36.13.5a.33.33,0,0,0,.27.15.45.45,0,0,0,.16,0,1,1,0,0,1,.36.11,1.43,1.43,0,0,1,.86,1.06.37.37,0,0,0,.06.21c.09.1.24,0,.36.07s.25,0,.35.06a.88.88,0,0,1,.41.3c.11.16.16.34.27.5a.39.39,0,0,0,.48.19,1.05,1.05,0,0,1,.58-.1,1.37,1.37,0,0,1,1,.66.38.38,0,0,0,.11.14.35.35,0,0,0,.3,0,1.74,1.74,0,0,1,2.07.51.52.52,0,0,0,.18.18.43.43,0,0,0,.25,0,5.53,5.53,0,0,1,1.27-.27,2.23,2.23,0,0,1,1.55.82c0,.05.1.1.16.1s.09,0,.13-.07a1.74,1.74,0,0,1,1.14-.59,2.12,2.12,0,0,1,1.41.57c.06,0,.12.11.2.1a.25.25,0,0,0,.11,0,4,4,0,0,1,1-.52,1.68,1.68,0,0,1,1.34.41,2.14,2.14,0,0,0,1.26.44,1.92,1.92,0,0,0,1.36-.62,2.16,2.16,0,0,0,.27-.25,2.43,2.43,0,0,0,.29-.49,2.57,2.57,0,0,0,.23-.6c.19-1-1.15-.81-1.78-.83l-1.4-.05c-1.43-.06-2.87-.15-4.3-.29a42.86,42.86,0,0,1-4.37-.59,10.08,10.08,0,0,1-3.17-1c-1.81-1.08-4.77-4.18-3.84-6.63l.1-.22h0l0,0a6,6,0,0,1,2.08-1.83c.57-.29,1.11-.62,1.69-.89a33,33,0,0,1,3.2-1.3l1-.34a1.59,1.59,0,0,1,.56-.14c.17,0,.28.17.35.31.08-.13,0-.4-.09-.52s-.19-.24-.28-.36a1,1,0,0,0-.28-.23,2.13,2.13,0,0,0-.5-.18,2.82,2.82,0,0,0-.64-.09,1.51,1.51,0,0,0-.56.07C92.92,41.72,90.55,42.55,89.82,42.84Z"/><path class="cls-14" d="M85.43,48c-.57,2,1.37,4.57,3.33,4.92-.2,0-.5-.48-.63-.63s-.36-.46-.54-.69c-.32-.43-.56-.92-.85-1.38-.8-1.28.53-2.82,1.53-3.54a15.11,15.11,0,0,1,4.9-2.14c.29-.08.59-.11.88-.16a3.55,3.55,0,0,1,.56-.06,1.21,1.21,0,0,0,.38,0c.23-.09.29-.54.35-.74a2.6,2.6,0,0,0,.11-.83c0-.45-.6-.51-.94-.39a11.57,11.57,0,0,1-1.29.32c-.64.14-1.22.45-1.86.53a4.84,4.84,0,0,0-1.82.61,9.57,9.57,0,0,0-1.1.79,11.05,11.05,0,0,0-2.63,2.61A2.82,2.82,0,0,0,85.43,48Z"/><path class="cls-71" d="M85.75,51.73A12.9,12.9,0,0,0,88,54.07a8.89,8.89,0,0,0,3.92,1.83,39.68,39.68,0,0,0,9.62.83,11.65,11.65,0,0,0,2.83,0c.38-.07,1-.1.92-.59a1.63,1.63,0,0,0-.69-1.15c-.76-.59-1.18-.31-2.05-.24-.53,0-1.06.14-1.6.21a25.55,25.55,0,0,1-3.5.15l-.9,0a16.68,16.68,0,0,1-5.56-1,8.23,8.23,0,0,1-2.38-1.38A7.51,7.51,0,0,1,86,49.05c-.41-1.59.91-3.28,2.21-4,.53-.3,1-.65,1.58-.91a12.65,12.65,0,0,1,1.88-.74,8.93,8.93,0,0,1,1.9-.46c.29,0,.59,0,.88,0s.41,0,.61,0a.64.64,0,0,0,.28,0c.2-.12,0-.4,0-.52A1.61,1.61,0,0,0,95,42a1.71,1.71,0,0,0-.33-.17,2.39,2.39,0,0,0-1.22-.23c-.5.11-3.5,1.23-4.54,1.68-2.18.94-5.28,3.19-4.74,5.64a5.8,5.8,0,0,0,.93,1.86Q85.39,51.25,85.75,51.73Z"/><path class="cls-60" d="M92.35,57.58a1.64,1.64,0,0,0-.53-.09,1.59,1.59,0,0,0-1,.33l-.16.12a1.66,1.66,0,0,0-.42.52,2.19,2.19,0,0,0-.15.43c0,.17-.16.33-.22.51a.53.53,0,0,0,0,.46,1.33,1.33,0,0,0,.35.36c0-.18.06-.41.1-.57a3.27,3.27,0,0,1,.18-.7A2.21,2.21,0,0,1,92.35,57.58Z"/><path class="cls-33" d="M92.61,58.63a.77.77,0,0,0,0-.68.61.61,0,0,0-.28-.19.2.2,0,0,0-.13,0,.27.27,0,0,0-.21.2,5.47,5.47,0,0,0-.07,1.15,3.22,3.22,0,0,1-.23,1.27.38.38,0,0,0,.5-.21A10.18,10.18,0,0,0,92.61,58.63Z"/><path class="cls-33" d="M91.52,62.06l.06-.12a2.7,2.7,0,0,0,.38-1,.27.27,0,0,0,0-.2.26.26,0,0,0-.27,0,1.34,1.34,0,0,1-.26.09,1.57,1.57,0,0,1-.3-.05.24.24,0,0,0-.27.1.44.44,0,0,0,0,.16c0,.43-.12.86-.17,1.28a2.27,2.27,0,0,1-.6,1.48l.18.06c.09,0,.14-.05.22-.07a.65.65,0,0,0,.36-.16,2,2,0,0,0,.29-.4C91.26,62.82,91.36,62.43,91.52,62.06Z"/><path class="cls-33" d="M95.15,60.42a5.81,5.81,0,0,1,.37-1.16.78.78,0,0,0,.09-.69l-.06-.07a.79.79,0,0,0-.86-.06.22.22,0,0,0-.13.14c0,.1,0,.19.08.27a1.65,1.65,0,0,1,.07,1,2.26,2.26,0,0,1-.57,1.41l.48.1h.11a.16.16,0,0,0,.08-.06A1.94,1.94,0,0,0,95.15,60.42Z"/><path class="cls-33" d="M94.57,63.14a5.39,5.39,0,0,1,.24-1c.07-.29-.11-.16-.3-.18s-.42-.17-.57,0-.09.24-.11.37A2,2,0,0,1,93,63.57c-.14.13-.34.26-.51.19a3,3,0,0,0,1,.09c.17,0,.33.07.5.09a.57.57,0,0,0,.47-.13A.9.9,0,0,0,94.57,63.14Z"/><path class="cls-33" d="M98.27,59a.32.32,0,0,1,.28.22.5.5,0,0,1-.07.29,5.24,5.24,0,0,0-.41,1.6c0,.18,0,.41-.23.46a.56.56,0,0,1-.37-.08,1,1,0,0,0-.81,0c0-.31.29-.52.5-.74a3.06,3.06,0,0,0,.55-1C97.82,59.45,97.83,58.89,98.27,59Z"/><path class="cls-33" d="M97.9,62.65c.07-.18.22-.43,0-.56s-.36,0-.52-.06S97.13,61.9,97,62s-.14.26-.14.42a2.36,2.36,0,0,1-.08.65.9.9,0,0,1-.42.63c-.1.05-.22.07-.33.12a.29.29,0,0,0-.18.27,1.52,1.52,0,0,1,1,0l.31.09a.33.33,0,0,0,.3-.11.52.52,0,0,0,.07-.25A4.05,4.05,0,0,1,97.9,62.65Z"/><path class="cls-33" d="M100.39,63.55c.11-.3.44-.83.37-1.16s-.47-.16-.68-.08a1.79,1.79,0,0,1-.68.13s-.07,0-.1,0,0,.21,0,.33a.63.63,0,0,1-.25.6c-.18.16-.39.26-.56.41a.33.33,0,0,0-.11.15.15.15,0,0,0,0,.16.22.22,0,0,0,.19,0,1.76,1.76,0,0,1,.75-.28,3,3,0,0,1,.43.1.56.56,0,0,0,.44-.06A.73.73,0,0,0,100.39,63.55Z"/><path class="cls-33" d="M100.93,61.52l0-.09a2.65,2.65,0,0,0,.05-.38,2.66,2.66,0,0,1,.37-1.11c.14-.22.3-.51.09-.73a.72.72,0,0,0-1.08.09s0,.05,0,.08a.38.38,0,0,0,0,.15,1.9,1.9,0,0,1-.18,1.24,3.51,3.51,0,0,1-.27.4.84.84,0,0,0-.19.36.27.27,0,0,0,.17.32.28.28,0,0,0,.2,0l.19-.06C100.53,61.7,100.81,61.82,100.93,61.52Z"/><path class="cls-72" d="M88.72,60.31c-.12,0-.25-.11-.36,0s-.06.23,0,.36a1.57,1.57,0,0,1-.28,1.08c-.2.32-.46.6-.67.93a.26.26,0,0,0,0,.17.22.22,0,0,0,.11.1.72.72,0,0,0,.68-.06,1.87,1.87,0,0,0,.49-.52,3.65,3.65,0,0,0,.34-.61,2.07,2.07,0,0,0,.21-.55c0-.36,0-.74-.41-.87Z"/><path class="cls-72" d="M89.68,57.13a.28.28,0,0,0-.32-.06.29.29,0,0,0-.15.24.92.92,0,0,0,0,.29,3.29,3.29,0,0,1,0,1,1.57,1.57,0,0,1-.13.47c-.14.28-.41.49-.55.78s.35.18.47.1a1.76,1.76,0,0,0,.67-.76,2.33,2.33,0,0,0,.26-.85C90,57.9,90,57.44,89.68,57.13Z"/><path class="cls-73" d="M87.69,56.11a.18.18,0,0,0-.14.06.32.32,0,0,0,0,.17,1.85,1.85,0,0,1-.11.77,6.28,6.28,0,0,1-.56,1.27,3.11,3.11,0,0,0-.34.65c.17.09.64.32.82.18a1.49,1.49,0,0,0,.2-.29,2.28,2.28,0,0,0,.2-.45,7.6,7.6,0,0,0,.34-1,3,3,0,0,0,.12-.78C88.18,56.44,88,56.09,87.69,56.11Z"/><path class="cls-73" d="M86.62,59.46a.44.44,0,0,0-.33-.09c-.15.06-.18.33-.23.46s-.18.36-.25.54-.25.58-.39.87-.2.54-.42.67.16.21.29.23c.49.07.78-.84,1-1.15a11,11,0,0,0,.54-1.09.42.42,0,0,0,0-.15C86.84,59.65,86.74,59.54,86.62,59.46Z"/><path class="cls-74" d="M86,55.61a3.53,3.53,0,0,0,.24-.73.31.31,0,0,1,.15.2,1,1,0,0,1,.06.29A5,5,0,0,1,86,57.1c-.11.29-.29,1-.65,1.13s-.56-.31-.35-.59a6.53,6.53,0,0,0,.78-1.45S85.91,55.89,86,55.61Z"/><path class="cls-74" d="M84.61,58.22l-.07,0c-.07,0-.1.09-.11.16a4.4,4.4,0,0,1-1.26,2.36,1.6,1.6,0,0,0,.38.26A.51.51,0,0,0,84,61a.76.76,0,0,0,.2-.2A8.56,8.56,0,0,0,85,59.4c.08-.17.37-.72.21-.86s-.17,0-.25-.07S84.74,58.29,84.61,58.22Z"/><path class="cls-75" d="M83.41,57.76l.12-.28a.73.73,0,0,0,0-.2c0-.2-.2-.29-.31-.43a8.93,8.93,0,0,1-.71,1.54l-.24.42a1.59,1.59,0,0,1-.13.22.7.7,0,0,1-.26.19s0,0,0,0a0,0,0,0,0,0,0,.64.64,0,0,0,.2.2.18.18,0,0,0,.12,0,.35.35,0,0,0,.13-.08,3.07,3.07,0,0,0,.5-.58A6.46,6.46,0,0,0,83.41,57.76Z"/><path class="cls-75" d="M84.69,54.73a4.56,4.56,0,0,0,.14-.64,1.38,1.38,0,0,0,0-.7.38.38,0,0,0-.26-.2,2.34,2.34,0,0,1,0,.46,4.61,4.61,0,0,1-.4,1.13,10.9,10.9,0,0,1-.6,1.18.71.71,0,0,0-.15.3c0,.18.19.42.39.36,0,0,.08,0,.11-.1a5.45,5.45,0,0,0,.76-1.66A.65.65,0,0,0,84.69,54.73Z"/><path class="cls-76" d="M82.41,55.61a.81.81,0,0,1,0,.16.67.67,0,0,1-.07.18l-.64,1.38a1.05,1.05,0,0,1-.46.57h0s0,0,0,0a.75.75,0,0,1,.09-.39l.47-1.17.24-.57a2.58,2.58,0,0,1,.08-.26c0-.08.06-.17.1-.25s.13,0,.15.07A2.63,2.63,0,0,1,82.41,55.61Z"/><path class="cls-76" d="M83.65,53l-.1.34a14,14,0,0,1-.54,1.4,3.37,3.37,0,0,1-.32.59s-.24-.18-.26-.21a0,0,0,0,1,0,0l0,0a1.25,1.25,0,0,0,.27-.44c.18-.37.36-.74.51-1.13,0-.1.43-1.21.4-1.22C83.83,52.38,83.69,52.87,83.65,53Z"/><polygon class="cls-2" points="97.97 63.44 96.96 60.58 99.51 58.94 96.65 59.95 95.01 57.4 96.02 60.26 93.47 61.9 96.33 60.89 97.97 63.44"/></svg>