<svg xmlns="http://www.w3.org/2000/svg" viewBox="0 0 89.21 103.74"><defs><style>.cls-1{fill:#fff;}.cls-2{fill:#139ab0;}.cls-3{fill:#13181b;}.cls-4{fill:#e8f5f8;}.cls-5{fill:none;stroke:#e4eaea;stroke-linecap:round;stroke-miterlimit:10;stroke-width:3px;}.cls-6{fill:#eb5032;}.cls-7{fill:#848887;}.cls-8{fill:#5a595d;}.cls-9{fill:#383838;}.cls-10{opacity:0.6;}.cls-11{fill:#1d1d1b;}</style></defs><title>03 Имплантация</title><g id="Слой_3" data-name="Слой 3"><path class="cls-1" d="M88.51,29.39c0-18.17-11.46-26.84-25.6-26.84-5.51,0-10.85,2.36-15.31,6.31a4.79,4.79,0,0,1-1.87,1,4.63,4.63,0,0,1-2.45,0,4.79,4.79,0,0,1-1.87-1C37,4.91,31.61,2.55,26.1,2.55,12,2.55.5,11.22.5,29.39c0,10.49,2.12,17.23,9.94,28.39a17.8,17.8,0,0,1,3.17,11.36,1.41,1.41,0,0,1,.68-.08l9.41,1.23a158.15,158.15,0,0,0,41.24,0l9.33-1.23a1.44,1.44,0,0,1,1.14.35.45.45,0,0,0,0-.11,17.83,17.83,0,0,1,3.17-11.52C86.39,46.62,88.51,39.89,88.51,29.39Z"/><path class="cls-2" d="M44.29,72.14a158.81,158.81,0,0,1-20.66-1.35l-9.4-1.23a1,1,0,0,0-.45,0,.5.5,0,0,1-.47-.07.51.51,0,0,1-.2-.43,17.45,17.45,0,0,0-3.08-11C2.34,47.1,0,40.4,0,29.39,0,9.23,13.48,2.05,26.1,2.05c5.48,0,10.89,2.23,15.64,6.43a4.18,4.18,0,0,0,1.67.94,4.28,4.28,0,0,0,2.19,0,4.18,4.18,0,0,0,1.67-.94C52,4.28,57.43,2.05,62.91,2.05,75.53,2.05,89,9.23,89,29.39c0,11-2.35,17.71-10,28.68a17.42,17.42,0,0,0-3.07,11.2.58.58,0,0,1-.27.54.5.5,0,0,1-.55,0,.91.91,0,0,0-.75-.23L65,70.78A157.73,157.73,0,0,1,44.29,72.14ZM14.14,68.55a.82.82,0,0,1,.22,0l9.4,1.23a158,158,0,0,0,41.11,0l9.33-1.23a2.14,2.14,0,0,1,.67,0,18.37,18.37,0,0,1,3.29-11.1C85.71,46.73,88,40.16,88,29.39,88,10,75,3.05,62.91,3.05c-5.23,0-10.41,2.14-15,6.18a5.07,5.07,0,0,1-4.79,1.15,5.27,5.27,0,0,1-2.07-1.15c-4.56-4-9.74-6.18-15-6.18C14,3.05,1,10,1,29.39c0,10.77,2.3,17.34,9.85,28.1A18.42,18.42,0,0,1,14.14,68.55Z"/><path class="cls-3" d="M63,24.49s1.22-.06,5.62,2.67a14.13,14.13,0,0,0-5.14-4.43A17.87,17.87,0,0,1,63,24.49Z"/><path class="cls-3" d="M26.93,23.89s-1.23-.06-5.63,2.67a14.27,14.27,0,0,1,5.15-4.43A17.87,17.87,0,0,0,26.93,23.89Z"/><path class="cls-4" d="M79.25,12.8a16.28,16.28,0,0,0-2.12-2.26c-.47-.13-1.77,1-9.5,4.61a18.15,18.15,0,0,1,4.29,5.7,27.5,27.5,0,0,1,1.41,12,34.71,34.71,0,0,0,10.13-2C83.59,21.24,81.33,15.37,79.25,12.8Z"/><path class="cls-4" d="M72.31,38.44a30.47,30.47,0,0,1-4.15,8.87c-2.51,3.68-4,5.83-4.88,7.06-.17.24-1,1.1-1,1.1l13.54-3.25a34.41,34.41,0,0,0,7.08-15.33A35.29,35.29,0,0,1,72.31,38.44Z"/><path class="cls-5" d="M12.39,58.11"/><polygon class="cls-4" points="29.09 0 22.18 8.93 29.28 17.71 20.35 10.81 11.57 17.91 18.47 8.97 11.38 0.2 20.31 7.1 29.09 0"/><polygon class="cls-4" points="20.4 15.71 19.63 9.67 13.57 9.03 19.61 8.25 20.25 2.2 21.03 8.24 27.08 8.88 21.04 9.65 20.4 15.71"/><path class="cls-4" d="M1.7,20.42v0Z"/><path class="cls-4" d="M14.69,68.56l3.63.58c4-7,10.81-6.67,12.21-6.93-1.21.09-6.39-.71-18.42-16.62C3.34,34,4.68,19.49,6.74,11.19,3.43,15.41.78,20.29,1,27.72,1.37,46,5,48.24,11.74,58.55c1.62,2.48,1.71,4.35,2.34,8.11a5.87,5.87,0,0,1,0,1.85A1.41,1.41,0,0,1,14.69,68.56Z"/><path class="cls-4" d="M30.53,62.21a1.77,1.77,0,0,0,.3-.05Z"/><path class="cls-4" d="M89.21,29.35c0-18.18-11.46-26.84-25.6-26.84-5.85,0-11.5,2.65-16.12,7.05l-2.29.63-2.28-.63c-4.62-4.4-10.27-7-16.12-7-12,0-19.53,9.26-19.76,10.18C11.59,6.9,18.65,4.08,26.59,4.08c5.67,0,11.16,2.58,15.64,6.84l2.22.62,2.21-.62c4.48-4.26,10-6.84,15.64-6.84,13.72,0,24.84,8.41,24.84,26,0,10.55-2.2,17.18-10.49,28.73A12.74,12.74,0,0,0,74.31,67c0,.73.09.55.16,1.47l.5,0c.44-.06.66-.21,1,.08-.07-.89.08-.51,0-1.23A13.14,13.14,0,0,1,78.4,59C86.94,47.06,89.21,40.22,89.21,29.35Z"/><path class="cls-6" d="M46.06,52.81a14.79,14.79,0,0,1-1.75-.1c-4.1-.5-7.77-2.7-9.35-5.62l.88-.48c1.41,2.6,4.86,4.65,8.59,5.1,3.92.47,7.88-.86,9.64-3.23l.8.59C53.15,51.4,49.75,52.81,46.06,52.81Z"/><path class="cls-6" d="M35.19,49l-1-.08c0-.15.31-3.58,2.65-4.16l.24,1C35.44,46.14,35.19,49,35.19,49Z"/><path class="cls-7" d="M39.64,103.67c3.42.12,6.57.08,10.36-.1A1.51,1.51,0,0,0,51.4,102V99a1.5,1.5,0,0,0-1.54-1.52c-3.39.13-6.67.11-10.11,0A1.5,1.5,0,0,0,38.2,99v3.2A1.5,1.5,0,0,0,39.64,103.67Z"/><path class="cls-8" d="M34.27,99.61a133.69,133.69,0,0,0,20.85-.12A1.51,1.51,0,0,0,56.51,98V94.7a1.5,1.5,0,0,0-1.6-1.52,131.38,131.38,0,0,1-20.42-.06,1.49,1.49,0,0,0-1.59,1.51v3.46A1.5,1.5,0,0,0,34.27,99.61Z"/><path class="cls-7" d="M29.47,93.56c11.81,1,16.75.92,30,0A1.51,1.51,0,0,0,60.88,92V88.63a1.5,1.5,0,0,0-1.64-1.52c-10.61,1.13-18.47.94-29.51,0a1.49,1.49,0,0,0-1.61,1.52V92A1.5,1.5,0,0,0,29.47,93.56Z"/><path class="cls-8" d="M65.61,86.76l-3.88.52h-.08c-15.8,1.18-20.28,1.34-34.38,0l-3.92-.52a1.51,1.51,0,0,1-1.29-1.51V81.8a1.49,1.49,0,0,1,1.67-1.51l3.57.48c13.24,1.26,21.7,1.52,34.42,0l3.51-.47A1.5,1.5,0,0,1,66.9,81.8v3.45A1.51,1.51,0,0,1,65.61,86.76Z"/><path class="cls-7" d="M70.38,78.58a1.51,1.51,0,0,1-1.28,1.51l-4.67.64a151.64,151.64,0,0,1-39.36,0l-4.67-.64a1.51,1.51,0,0,1-1.28-1.51v-3.2a1.5,1.5,0,0,1,1.67-1.52l4.32.6a151.12,151.12,0,0,0,39.35,0l4.25-.58a1.49,1.49,0,0,1,1.67,1.51Z"/><path class="cls-8" d="M75.11,73.72,65.37,75a158.15,158.15,0,0,1-41.24,0l-9.74-1.28a1.5,1.5,0,0,1-1.29-1.51V68.77a1.5,1.5,0,0,1,1.66-1.52l9.41,1.24a158.59,158.59,0,0,0,41.24,0l9.33-1.23a1.5,1.5,0,0,1,1.66,1.52v3.44A1.5,1.5,0,0,1,75.11,73.72Z"/><path class="cls-9" d="M75.11,72.72,65.37,74a158.15,158.15,0,0,1-41.24,0l-9.74-1.28a1.5,1.5,0,0,1-1.29-1.51v1a1.5,1.5,0,0,0,1.29,1.51L24.13,75a158.15,158.15,0,0,0,41.24,0l9.74-1.28a1.5,1.5,0,0,0,1.29-1.51v-1A1.5,1.5,0,0,1,75.11,72.72Z"/><g class="cls-10"><path class="cls-9" d="M69.1,79.09l-4.67.64a151.64,151.64,0,0,1-39.36,0l-4.67-.64a1.51,1.51,0,0,1-1.28-1.51v1a1.51,1.51,0,0,0,1.28,1.51l4.67.64a151.64,151.64,0,0,0,39.36,0l4.67-.64a1.51,1.51,0,0,0,1.28-1.51v-1A1.51,1.51,0,0,1,69.1,79.09Z"/></g><path class="cls-1" d="M19.3,80a1.37,1.37,0,0,1-.28,0,1.5,1.5,0,0,1-1.19-1.76l.29-1.53c-4,0-10.72-1.61-12.06-9.16A10.82,10.82,0,0,1,8.27,58.9a12.86,12.86,0,0,1,8-4.74,1.5,1.5,0,1,1,.52,3,9.91,9.91,0,0,0-6.14,3.62A7.85,7.85,0,0,0,9,67c1.42,8,10.59,6.59,10.68,6.58A1.5,1.5,0,0,1,21,74a1.47,1.47,0,0,1,.4,1.34l-.65,3.45A1.51,1.51,0,0,1,19.3,80Z"/><path class="cls-1" d="M72.06,80a1.5,1.5,0,0,1-1.47-1.21l-.66-3.45a1.53,1.53,0,0,1,.4-1.34,1.49,1.49,0,0,1,1.33-.42c.09,0,9.27,1.41,10.69-6.58a7.9,7.9,0,0,0-1.63-6.23,9.91,9.91,0,0,0-6.14-3.62,1.5,1.5,0,0,1,.52-3,12.84,12.84,0,0,1,8,4.74,10.82,10.82,0,0,1,2.21,8.59c-1.34,7.55-8,9.15-12.06,9.16l.3,1.53a1.51,1.51,0,0,1-1.2,1.76A1.32,1.32,0,0,1,72.06,80Z"/><polygon class="cls-1" points="57.17 85.18 58.9 80.3 54.54 77.49 59.43 79.22 62.24 74.87 60.51 79.75 64.86 82.56 59.98 80.83 57.17 85.18"/><path class="cls-9" d="M65.61,85.76l-3.88.52h-.08c-15.8,1.18-20.28,1.34-34.38,0l-3.92-.52a1.51,1.51,0,0,1-1.29-1.51v1a1.51,1.51,0,0,0,1.29,1.51l3.92.52c14.1,1.34,18.58,1.18,34.38,0h.08l3.88-.52a1.51,1.51,0,0,0,1.29-1.51v-1A1.51,1.51,0,0,1,65.61,85.76Z"/><g class="cls-10"><path class="cls-9" d="M59.51,92.52c-13.29,1-18.23,1.09-30,0A1.5,1.5,0,0,1,28.12,91v1a1.5,1.5,0,0,0,1.35,1.52c11.81,1,16.75.92,30,0A1.51,1.51,0,0,0,60.88,92V91A1.51,1.51,0,0,1,59.51,92.52Z"/></g><path class="cls-9" d="M55.12,98.49a133.69,133.69,0,0,1-20.85.12,1.5,1.5,0,0,1-1.37-1.52v1a1.5,1.5,0,0,0,1.37,1.52,133.69,133.69,0,0,0,20.85-.12A1.51,1.51,0,0,0,56.51,98V97A1.51,1.51,0,0,1,55.12,98.49Z"/><g class="cls-10"><path class="cls-9" d="M50,102.57c-3.79.18-6.94.22-10.36.1a1.5,1.5,0,0,1-1.44-1.52v1a1.5,1.5,0,0,0,1.44,1.52c3.42.12,6.57.08,10.36-.1A1.51,1.51,0,0,0,51.4,102v-1A1.51,1.51,0,0,1,50,102.57Z"/></g><path class="cls-11" d="M34.12,35a2.94,2.94,0,1,1-2.94-3A3,3,0,0,1,34.12,35Z"/><path class="cls-1" d="M30.68,33.61a.77.77,0,1,1-.77-.77A.78.78,0,0,1,30.68,33.61Z"/><path class="cls-1" d="M31.73,34.06a.44.44,0,0,1-.44.44.45.45,0,1,1,0-.89A.44.44,0,0,1,31.73,34.06Z"/><path class="cls-11" d="M61.12,35a2.94,2.94,0,1,1-2.94-3A3,3,0,0,1,61.12,35Z"/><path class="cls-1" d="M57.68,33.61a.77.77,0,1,1-.77-.77A.78.78,0,0,1,57.68,33.61Z"/><path class="cls-1" d="M58.73,34.06a.44.44,0,0,1-.44.44.45.45,0,1,1,0-.89A.44.44,0,0,1,58.73,34.06Z"/></g></svg>