<svg xmlns="http://www.w3.org/2000/svg" viewBox="0 0 105.54 120.75"><defs><style>.cls-1{fill:#fff;}.cls-2{fill:#139ab0;}.cls-3{opacity:0.1;}.cls-4{fill:#d7d9d8;}.cls-5{fill:#13181b;}.cls-6{fill:#eb5032;}.cls-7{fill:#e8f5f8;}.cls-8{fill:#a4a4a6;}.cls-9{fill:#848887;}.cls-10{fill:none;stroke:#e4eaea;stroke-linecap:round;stroke-miterlimit:10;stroke-width:3px;}</style></defs><title>01 Лечение кариеса</title><g id="Слой_2" data-name="Слой 2"><path class="cls-1" d="M44.93,96.52a4.74,4.74,0,0,1,.75.06c1.1.19,4,.91,4.53,3.17.64,2.79.21,15.7.21,16.77s-.21,2.26,2.37,3.55c.77.39,3.13.07,4.54-.13a20,20,0,0,0,13.08-7.79c4.09-5.29,7.37-12.91,5.82-23.37-.45-3-.68-5.58-.83-7.61a17.89,17.89,0,0,1,3.16-11.53c7.83-11.16,10-17.89,10-28.38,0-18.18-11.46-26.85-25.6-26.85-5.51,0-10.85,2.36-15.31,6.31a4.67,4.67,0,0,1-1.87,1h0a4.63,4.63,0,0,1-2.45,0h0a4.67,4.67,0,0,1-1.87-1c-4.46-3.95-9.8-6.31-15.31-6.31C12,14.41.5,23.08.5,41.26c0,10.49,2.12,17.22,9.94,28.38A17.83,17.83,0,0,1,13.6,81.17c-.14,2-.38,4.56-.83,7.61-1.55,10.46,1.74,18.08,5.83,23.37a20,20,0,0,0,13.07,7.79c1.42.2,3.78.52,4.55.13,2.58-1.29,2.37-2.47,2.37-3.55s-.43-14,.21-16.77c.52-2.26,3.42-3,4.52-3.17a4.87,4.87,0,0,1,.76-.06Z" transform="translate(0 0)"/><path class="cls-2" d="M35,120.75a26.11,26.11,0,0,1-3.32-.31,20.48,20.48,0,0,1-13.44-8c-5.26-6.8-7.25-14.79-5.92-23.76.38-2.55.65-5,.83-7.57A17.41,17.41,0,0,0,10,69.93C2.34,59,0,52.27,0,41.26,0,21.1,13.48,13.91,26.1,13.91c5.48,0,10.89,2.23,15.64,6.44a4.27,4.27,0,0,0,1.67.93,4.07,4.07,0,0,0,2.19,0,4.27,4.27,0,0,0,1.67-.93c4.75-4.21,10.16-6.44,15.64-6.44C75.53,13.91,89,21.1,89,41.26c0,11-2.35,17.71-10,28.67a17.44,17.44,0,0,0-3.07,11.2c.18,2.55.45,5,.83,7.57,1.33,9-.67,17-5.92,23.76a20.51,20.51,0,0,1-13.41,8c-2.08.28-4,.5-4.84.08-2.67-1.34-2.66-2.69-2.64-3.77v-.23c0-.17,0-.63,0-1.31.08-3.57.3-13.06-.23-15.35-.46-2-3.27-2.64-4.12-2.79a3.78,3.78,0,0,0-.67,0h-.85a3.71,3.71,0,0,0-.67,0c-.85.15-3.66.79-4.12,2.79-.53,2.29-.31,11.78-.23,15.35,0,.68,0,1.14,0,1.31v.23c0,1.08,0,2.43-2.65,3.77A3.5,3.5,0,0,1,35,120.75ZM44.08,96h.85a4.53,4.53,0,0,1,.84.07c1.29.22,4.34,1,4.92,3.54s.34,12,.26,15.6c0,.67,0,1.13,0,1.29v.24c0,1,0,1.8,2.09,2.86.63.32,3.06,0,4.23-.17A19.49,19.49,0,0,0,70,111.85c5.08-6.58,7-14.32,5.72-23-.38-2.58-.65-5.08-.84-7.65a18.47,18.47,0,0,1,3.26-11.85C85.71,58.59,88,52,88,41.26c0-19.43-13-26.35-25.1-26.35-5.23,0-10.41,2.14-15,6.19a5.11,5.11,0,0,1-2.07,1.14,5,5,0,0,1-2.72,0,5.17,5.17,0,0,1-2.07-1.14c-4.56-4.05-9.74-6.19-15-6.19C14,14.91,1,21.83,1,41.26,1,52,3.3,58.59,10.85,69.35A18.4,18.4,0,0,1,14.1,81.2c-.18,2.57-.45,5.07-.83,7.65-1.29,8.69.64,16.42,5.72,23a19.47,19.47,0,0,0,12.75,7.6c1.2.16,3.62.49,4.26.17,2.11-1.06,2.1-1.89,2.09-2.86v-.24c0-.16,0-.62,0-1.29-.08-3.6-.3-13.18.25-15.6s3.64-3.32,4.93-3.54A4.53,4.53,0,0,1,44.08,96Z" transform="translate(0 0)"/><g class="cls-3"><path class="cls-2" d="M24.89,113.2c-4-3.58-12-15.47-8.39-27.53,3.28-11,12.48-11,14.12-11.35-1.22.09-6.4-.71-18.42-16.62C2.45,44.81,4.93,29.84,7.33,21.94,3.27,26.37.78,32.72.78,41.16.78,52,3.06,58.87,11.59,70.76A13.14,13.14,0,0,1,14,79.12c-.13,2.3-.35,5.45-.95,9.56-1.55,10.47,1.73,18.08,5.82,23.37A20.1,20.1,0,0,0,32,119.85c1.41.19,3.77.51,4.54.12,2.58-1.29,2.37-2.47,2.37-3.54,0-.16,0-.61,0-1.23C35.21,117.57,29,116.86,24.89,113.2Z" transform="translate(0 0)"/></g><path class="cls-4" d="M30.62,74.32a1.76,1.76,0,0,0,.29,0Z" transform="translate(0 0)"/><g class="cls-3"><path class="cls-2" d="M88.79,41.16c0-18.18-11.46-26.84-25.6-26.84-5.85,0-11.5,2.65-16.12,7.05L44.79,22l-2.29-.63c-4.62-4.4-10.27-7-16.12-7C12.24,14.32.78,23,.78,41.16.78,52,3.06,58.87,11.59,70.76A13.14,13.14,0,0,1,14,79.12c-.13,2.3-.35,5.45-.95,9.56-1.55,10.47,1.73,18.08,5.82,23.37A20.1,20.1,0,0,0,32,119.85c1.41.19,3.77.51,4.54.12,2.58-1.29,2.37-2.47,2.37-3.54s-.43-14,.21-16.78,5-3.23,5-3.23h1.51a8.44,8.44,0,0,1,3.6,1.31c-1.23-1.86-4.38-2.18-4.38-2.18H43.3s-4.18.42-4.81,3.14-.2,15.23-.2,16.27.2,2.19-2.3,3.45c-.75.37-3,.06-4.41-.13a19.5,19.5,0,0,1-12.69-7.56c-4-5.13-7.15-12.52-5.65-22.68.59-4,.8-7,.93-9.27a12.69,12.69,0,0,0-2.35-8.11C3.54,59.12,1.33,52.48,1.33,41.93c0-17.63,11.12-26,24.84-26,5.68,0,11.16,2.58,15.64,6.85l2.22.61,2.22-.61c4.48-4.27,10-6.85,15.64-6.85,13.71,0,24.83,8.41,24.83,26,0,10.55-2.2,17.19-10.48,28.73a12.69,12.69,0,0,0-2.35,8.11c.12,2.23.34,5.29.93,9.27,1.5,10.16-1.68,17.55-5.65,22.68a19.5,19.5,0,0,1-12.69,7.56c-1.38.19-3.66.5-4.41.13a6.78,6.78,0,0,1-1.31-.84c.13.75.61,1.55,2.31,2.4.78.39,3.13.07,4.55-.12a20.12,20.12,0,0,0,13.08-7.8c4.09-5.29,7.37-12.9,5.82-23.37-.61-4.11-.83-7.26-1-9.56A13.14,13.14,0,0,1,78,70.76C86.52,58.87,88.79,52,88.79,41.16Z" transform="translate(0 0)"/></g><path class="cls-5" d="M33.09,46.28c.65,2,0,2-1.39,2.46s-3.08,1.2-3.73-.8,0-4,1.39-4.46S32.44,44.28,33.09,46.28Z" transform="translate(0 0)"/><path class="cls-1" d="M57.15,59.35c0,2.73-5.34,8-11.94,8s-11.93-5.25-11.93-8c0-1.37,6,1,11.93,1S57.15,58,57.15,59.35Z" transform="translate(0 0)"/><path class="cls-6" d="M45.21,67.83c-6.62,0-12.43-5.28-12.43-8.48a.81.81,0,0,1,.3-.65c.57-.48,1.75-.28,4.36.2a42.16,42.16,0,0,0,7.77.94A42.17,42.17,0,0,0,53,58.9c2.61-.48,3.78-.68,4.36-.2a.81.81,0,0,1,.3.65C57.65,62.55,51.84,67.83,45.21,67.83ZM33.78,59.45C33.91,62,39,66.83,45.21,66.83S56.52,62,56.65,59.45a14.21,14.21,0,0,0-3.48.44,43.53,43.53,0,0,1-8,1,43.53,43.53,0,0,1-8-1A14.21,14.21,0,0,0,33.78,59.45Z" transform="translate(0 0)"/><path class="cls-5" d="M62.53,47.77c-.52,2-2.1,1.41-3.54,1s-2.2-.31-1.68-2.36,2.1-3.41,3.54-3S63,45.72,62.53,47.77Z" transform="translate(0 0)"/><path class="cls-5" d="M63.29,36.6s1.22-.06,5.63,2.67a14.27,14.27,0,0,0-5.15-4.43A17.87,17.87,0,0,1,63.29,36.6Z" transform="translate(0 0)"/><path class="cls-5" d="M26.21,36.6s-1.22-.06-5.62,2.67a14.13,14.13,0,0,1,5.14-4.43A17.87,17.87,0,0,0,26.21,36.6Z" transform="translate(0 0)"/><path class="cls-7" d="M79.54,24.91a16.92,16.92,0,0,0-2.13-2.26c-.47-.13-1.77,1-9.5,4.61A18.15,18.15,0,0,1,72.2,33a27.33,27.33,0,0,1,1.42,12,34.84,34.84,0,0,0,10.13-2C83.87,33.36,81.62,27.48,79.54,24.91Z" transform="translate(0 0)"/><path class="cls-7" d="M72.59,50.55a30.43,30.43,0,0,1-4.14,8.87c-2.52,3.68-4,5.83-4.88,7.06-.18.24-1,1.1-1,1.1l13.55-3.25A34.46,34.46,0,0,0,83.19,49,35.55,35.55,0,0,1,72.59,50.55Z" transform="translate(0 0)"/><path class="cls-7" d="M63,100.16a13,13,0,0,1-1,2.17,44.6,44.6,0,0,1-4.92,7.32s-1.2,3.65,3.06,1.93c3.47-1.4,8.4-5.78,10.8-11l-1.33.33A12,12,0,0,1,63,100.16Z" transform="translate(0 0)"/><path class="cls-7" d="M72.69,93.94c.59-4.7,0-7.45-1.23-10.32a14.82,14.82,0,0,0-1.37-2l-8.17,2a29.54,29.54,0,0,1,1.9,13.11l.75.09C67.81,97.16,70.88,95.33,72.69,93.94Z" transform="translate(0 0)"/><path class="cls-1" d="M75.4,74.5a10.51,10.51,0,0,1-1.24,0,1.5,1.5,0,1,1,.31-3h0c.61.06,15,1.31,21.15-13.77a1.5,1.5,0,1,1,2.77,1.14A24.31,24.31,0,0,1,75.4,74.5Z" transform="translate(0 0)"/><path class="cls-8" d="M95.8,55.16l-7.91,60.69a3.09,3.09,0,0,1-3.58,2.5h0A3.09,3.09,0,0,1,81.49,115l7.91-60.7a10.29,10.29,0,0,1,3.5-7.06c3.44-3,9.63-22.44,8.87-27.85s1.21-.78,1.21-.78-.55,11.91-2.92,17.28S96.14,52.54,95.8,55.16Z" transform="translate(0 0)"/><path class="cls-9" d="M102.22,17.17c-.1,1.21.38,2.81.17,4.56-.08.94-.23,2-.45,3.18a36.7,36.7,0,0,1-1.56,6.5c-.65,2.27-1.4,4.58-2.19,6.72-1.31,5.35-2.77,11.49-3,13.34l-7.91,60.69a3.08,3.08,0,0,1-3.57,2.49,3.38,3.38,0,0,1-2-1L81.49,115a3.24,3.24,0,0,0,6.4.83L95.8,55.16c.34-2.62,1.89-13.88,4.26-19.25S103,18.63,103,18.63A11.8,11.8,0,0,0,102.22,17.17Z" transform="translate(0 0)"/><ellipse class="cls-7" cx="99.74" cy="9.38" rx="5.14" ry="8.97" transform="translate(-0.1 17.57) rotate(-10.06)"/><path class="cls-8" d="M100.79,18.76h-.27c-3.18-.25-6-4.52-6.51-9.73-.31-3.32.45-6.25,2-7.84A3.64,3.64,0,0,1,99,0c3.17.24,6,4.52,6.5,9.73.31,3.31-.45,6.25-2,7.84A3.71,3.71,0,0,1,100.79,18.76ZM98.69,1a2.71,2.71,0,0,0-2,.88C95.4,3.24,94.73,6,95,8.93c.42,4.58,3,8.62,5.59,8.82a2.66,2.66,0,0,0,2.15-.87c1.34-1.37,2-4.07,1.74-7-.42-4.58-3-8.62-5.59-8.82Z" transform="translate(0 0)"/><path class="cls-10" d="M12.67,70.22" transform="translate(0 0)"/><path class="cls-1" d="M11,93.46a1.47,1.47,0,0,1-.73-.19,1.51,1.51,0,0,1-.59-2l.74-1.32a12.65,12.65,0,0,1-6.08-4,10.84,10.84,0,0,1-2.5-8.51C2.71,71.21,8.91,67,15.67,67.91a1.5,1.5,0,0,1-.43,3c-5.11-.73-9.8,2.39-10.44,6.94A7.84,7.84,0,0,0,6.64,84,9.91,9.91,0,0,0,12.9,87.4,1.5,1.5,0,0,1,14,89.61l-1.7,3.07A1.49,1.49,0,0,1,11,93.46Z" transform="translate(0 0)"/><polygon class="cls-7" points="29.37 12.11 22.47 21.05 29.57 29.82 20.63 22.92 11.86 30.02 18.76 21.09 11.66 12.31 20.59 19.21 29.37 12.11"/><polygon class="cls-7" points="20.69 27.82 19.91 21.78 13.86 21.14 19.9 20.37 20.54 14.31 21.31 20.35 27.37 20.99 21.33 21.77 20.69 27.82"/><polygon class="cls-1" points="92.93 13.69 94.83 8.32 90.04 5.23 95.41 7.13 98.5 2.34 96.6 7.71 101.39 10.8 96.02 8.9 92.93 13.69"/><path class="cls-1" d="M30.36,45a.83.83,0,1,1-.82-.83A.83.83,0,0,1,30.36,45Z" transform="translate(0 0)"/><path class="cls-1" d="M31.5,45.43a.48.48,0,1,1-.95,0,.48.48,0,1,1,.95,0Z" transform="translate(0 0)"/><path class="cls-1" d="M60.68,45A.83.83,0,1,1,60,44,.82.82,0,0,1,60.68,45Z" transform="translate(0 0)"/><path class="cls-1" d="M61.73,45.62a.48.48,0,0,1-.55.39.48.48,0,0,1-.4-.55.48.48,0,1,1,.95.16Z" transform="translate(0 0)"/></g></svg>