<svg id="Слой_4" data-name="Слой 4" xmlns="http://www.w3.org/2000/svg" viewBox="0 0 90.14 119.34"><defs><style>.cls-1{fill:#139ab0;}.cls-2{fill:#fff;}.cls-3{opacity:0.1;}.cls-4{fill:#d7d9d8;}.cls-5{fill:#13181b;}.cls-6{fill:#e8f5f8;}.cls-7{fill:none;stroke:#e4eaea;stroke-linecap:round;stroke-miterlimit:10;stroke-width:3px;}.cls-8{fill:#f2a951;}.cls-9{fill:#eb5032;}.cls-10{opacity:0.2;}</style></defs><title>06 Эстетическая  стоматология</title><path class="cls-1" d="M35,119.34a27.87,27.87,0,0,1-3.32-.3,20.54,20.54,0,0,1-13.44-8c-5.26-6.8-7.25-14.79-5.92-23.76.38-2.54.65-5,.83-7.57A17.41,17.41,0,0,0,10,68.52C2.34,57.56,0,50.86,0,39.85,0,19.69,13.48,12.51,26.1,12.51c5.48,0,10.89,2.22,15.64,6.43a4.27,4.27,0,0,0,1.67.93,4.07,4.07,0,0,0,2.19,0,4.27,4.27,0,0,0,1.67-.93c4.75-4.21,10.16-6.43,15.64-6.43,12.62,0,26.1,7.18,26.1,27.34,0,11-2.35,17.71-10,28.67a17.46,17.46,0,0,0-3.07,11.2c.18,2.56.45,5,.83,7.57h0c0,.15,2.24,15.73,6.59,22.43,2,3.08,2.67,5.36,2,6.77a2.25,2.25,0,0,1-1.72,1.23c-.33.06-8.83,1.35-12,.56a19.26,19.26,0,0,1-5.94-2.82C63,112.74,49.86,99.3,49.3,97.51c-.37-1.18-2.84-1.74-3.68-1.84a4.2,4.2,0,0,0-.69-.06h-.85a5,5,0,0,0-.67,0c-.85.15-3.66.79-4.12,2.79-.53,2.29-.31,11.78-.23,15.35,0,.68,0,1.14,0,1.32v.22c0,1.08,0,2.43-2.65,3.77A3.5,3.5,0,0,1,35,119.34ZM26.1,13.51C14,13.51,1,20.43,1,39.85,1,50.62,3.3,57.18,10.85,68A18.36,18.36,0,0,1,14.1,79.79c-.18,2.58-.45,5.08-.83,7.65-1.29,8.69.64,16.42,5.72,23A19.47,19.47,0,0,0,31.74,118c1.2.16,3.63.49,4.26.17,2.11-1,2.1-1.89,2.09-2.86v-.23c0-.17,0-.63,0-1.3-.08-3.6-.3-13.18.25-15.6s3.64-3.31,4.93-3.54a4.53,4.53,0,0,1,.84-.07h.85a4.53,4.53,0,0,1,.84.07c.37,0,3.86.53,4.49,2.53.37,1.2,10,11.38,16,17.51h0a18.68,18.68,0,0,0,5.54,2.6c3,.74,11.55-.57,11.63-.58a1.24,1.24,0,0,0,1-.69c.28-.6.41-2.16-1.93-5.77C78,103.4,75.84,88.13,75.74,87.44c-.38-2.57-.65-5.07-.84-7.65A18.43,18.43,0,0,1,78.16,68C85.71,57.18,88,50.62,88,39.85c0-19.42-13-26.34-25.1-26.34-5.23,0-10.41,2.13-15,6.18a5.14,5.14,0,0,1-2.06,1.14,5.06,5.06,0,0,1-2.73,0,5.17,5.17,0,0,1-2.07-1.14C36.51,15.64,31.33,13.51,26.1,13.51Z"/><path class="cls-2" d="M76.23,87.37c-.45-3.05-.68-5.57-.83-7.61a17.91,17.91,0,0,1,3.16-11.53c7.83-11.15,10-17.89,10-28.38C88.51,21.67,77.05,13,62.91,13a23.29,23.29,0,0,0-15.31,6.3,4.67,4.67,0,0,1-1.87,1h0a4.63,4.63,0,0,1-2.45,0h0a4.67,4.67,0,0,1-1.87-1A23.29,23.29,0,0,0,26.1,13C12,13,.5,21.67.5,39.85c0,10.49,2.12,17.23,9.94,28.38A17.85,17.85,0,0,1,13.6,79.76c-.14,2-.38,4.56-.83,7.61-1.55,10.47,1.74,18.08,5.83,23.37a20.07,20.07,0,0,0,13.07,7.8c1.42.19,3.77.51,4.55.12,2.58-1.29,2.37-2.47,2.37-3.54s-.43-14,.21-16.78c.52-2.26,3.42-3,4.52-3.17a4.87,4.87,0,0,1,.76-.06h.85a4.74,4.74,0,0,1,.75.06s3.55.43,4.1,2.19,16.16,17.71,16.16,17.71a18.79,18.79,0,0,0,5.76,2.73c3.12.78,11.84-.57,11.84-.57s3.83-.35-.63-7.22-6.68-22.64-6.68-22.64"/><g class="cls-3"><path class="cls-1" d="M24.6,111.54c-4-3.58-12-15.47-8.39-27.53C19.5,73,28.7,73,30.33,72.66c-1.21.09-6.39-.7-18.42-16.61C2.17,43.16,4.65,28.18,7.05,20.29,3,24.71.5,31.07.5,39.5c0,10.87,2.27,17.71,10.81,29.61a13.11,13.11,0,0,1,2.42,8.35c-.13,2.3-.35,5.46-1,9.56-1.54,10.47,1.74,18.09,5.83,23.38a20.06,20.06,0,0,0,13.07,7.79c1.42.19,3.78.52,4.55.13,2.58-1.29,2.37-2.47,2.37-3.55,0-.16,0-.61,0-1.22C34.93,115.91,28.69,115.2,24.6,111.54Z"/></g><path class="cls-4" d="M30.33,72.66a1,1,0,0,0,.3,0Z"/><g class="cls-3"><path class="cls-1" d="M75.28,77.46a13.11,13.11,0,0,1,2.42-8.35c8.54-11.9,10.81-18.74,10.81-29.61,0-18.17-11.46-26.84-25.6-26.84-5.85,0-11.5,2.66-16.12,7.06l-2.29.63-2.28-.63C37.6,15.32,32,12.66,26.1,12.66,12,12.66.5,21.33.5,39.5c0,10.87,2.27,17.71,10.81,29.61a13.11,13.11,0,0,1,2.42,8.35c-.13,2.3-.35,5.46-1,9.56-1.54,10.47,1.74,18.09,5.83,23.38a20.06,20.06,0,0,0,13.07,7.79c1.42.19,3.78.52,4.55.13,2.58-1.29,2.37-2.47,2.37-3.55s-.43-14,.21-16.78,5-3.22,5-3.22h1.51a8.4,8.4,0,0,1,3.6,1.3c-1.24-1.85-4.38-2.17-4.38-2.17H43s-4.17.42-4.8,3.13S38,112.26,38,113.31s.21,2.19-2.29,3.44c-.75.38-3,.06-4.41-.12a19.49,19.49,0,0,1-12.69-7.56c-4-5.14-7.15-12.53-5.65-22.68.59-4,.8-7,.92-9.28A12.74,12.74,0,0,0,11.54,69C3.25,57.46,1.05,50.82,1.05,40.28c0-17.64,11.12-26,24.84-26,5.67,0,11.16,2.57,15.64,6.84l2.22.61L46,21.08c4.48-4.27,10-6.84,15.64-6.84,13.72,0,24.84,8.4,24.84,26C86.44,50.82,84.24,57.46,76,69a12.74,12.74,0,0,0-2.34,8.11"/></g><path class="cls-5" d="M58.51,34s1.22-.06,5.62,2.68A14,14,0,0,0,59,32.28,17.87,17.87,0,0,1,58.51,34Z"/><path class="cls-5" d="M29.37,33.22s-1.55.09-7.12,3.89c.69-1.37,3.47-4.08,6.49-5.89A19.57,19.57,0,0,0,29.37,33.22Z"/><path class="cls-6" d="M72.31,48.89a30.24,30.24,0,0,1-4.15,8.87c-2.51,3.69-4,5.84-4.88,7.06-.17.25-1,1.11-1,1.11l13.54-3.26a34.34,34.34,0,0,0,7.08-15.32A35,35,0,0,1,72.31,48.89Z"/><path class="cls-6" d="M74.15,99.22a13.29,13.29,0,0,0,.72,2.27,44.34,44.34,0,0,0,4.1,7.8s.8,3.76-3.25,1.59c-3.3-1.77-7.73-6.65-9.56-12.07.4.15.83.31,1.29.46A12,12,0,0,0,74.15,99.22Z"/><path class="cls-6" d="M64.72,95.81c-2.18-4.21-2.59-7-2.4-10.12a15.09,15.09,0,0,1,.58-2.38l8.38-.9s-.3,7.07,2.72,13l-.67.34C70.41,97.15,66.9,96.49,64.72,95.81Z"/><path class="cls-7" d="M12.39,68.57"/><path class="cls-2" d="M10.7,91.8a1.46,1.46,0,0,1-.72-.19,1.5,1.5,0,0,1-.59-2l.73-1.32a12.67,12.67,0,0,1-6.07-4,10.79,10.79,0,0,1-2.51-8.5c.88-6.19,7.08-10.45,13.84-9.49A1.5,1.5,0,0,1,16.66,68,1.52,1.52,0,0,1,15,69.23c-5.12-.74-9.8,2.38-10.45,6.94a7.88,7.88,0,0,0,1.84,6.17,9.9,9.9,0,0,0,6.27,3.4A1.51,1.51,0,0,1,13.72,88L12,91A1.52,1.52,0,0,1,10.7,91.8Z"/><path class="cls-8" d="M34.45,21a1.5,1.5,0,0,0,1.09,1.44,31.78,31.78,0,0,0,8.94,1.19,31.54,31.54,0,0,0,9-1.22A1.5,1.5,0,0,0,54.58,21V3L49.83,7,44.51,0,39.13,7,34.45,3Z"/><path class="cls-2" d="M55.61,57.59c0,2.4-4.69,7-10.47,7s-10.46-4.6-10.46-7c0-1.2,5.23.87,10.46.87S55.61,56.39,55.61,57.59Z"/><path class="cls-9" d="M45.14,65.09c-5.84,0-11-4.67-11-7.5a.8.8,0,0,1,.29-.62c.52-.44,1.56-.26,3.87.17a37.69,37.69,0,0,0,6.8.82A37.69,37.69,0,0,0,52,57.14c2.3-.43,3.35-.61,3.87-.17a.8.8,0,0,1,.29.62C56.11,60.42,51,65.09,45.14,65.09Zm-10-7.36c.18,2,4.33,6.36,10,6.36s9.78-4.36,10-6.36a14.44,14.44,0,0,0-3,.39,38,38,0,0,1-7,.84,38,38,0,0,1-7-.84A14.44,14.44,0,0,0,35.19,57.73Z"/><path class="cls-5" d="M31.9,45.34c.65,2,0,2-1.39,2.46S27.43,49,26.78,47s0-4,1.39-4.46S31.26,43.33,31.9,45.34Z"/><path class="cls-5" d="M61.34,46.82c-.52,2-2.1,1.41-3.54,1s-2.19-.32-1.68-2.36,2.1-3.41,3.55-3S61.86,44.78,61.34,46.82Z"/><path class="cls-2" d="M29.18,44a.83.83,0,1,1-.83-.83A.83.83,0,0,1,29.18,44Z"/><path class="cls-2" d="M30.32,44.49a.48.48,0,0,1-.48.48.47.47,0,0,1-.48-.48.48.48,0,0,1,.48-.48A.49.49,0,0,1,30.32,44.49Z"/><path class="cls-2" d="M59.5,44a.83.83,0,1,1-1.64-.28A.83.83,0,0,1,59.5,44Z"/><path class="cls-2" d="M60.54,44.67a.48.48,0,1,1-.94-.16.48.48,0,0,1,.94.16Z"/><g class="cls-10"><path class="cls-9" d="M70.05,62.55c7.66,0,7.67-11.91,0-11.91s-7.67,11.91,0,11.91Z"/></g><g class="cls-10"><path class="cls-9" d="M21.05,62.55c7.66,0,7.67-11.91,0-11.91s-7.67,11.91,0,11.91Z"/></g><path class="cls-2" d="M77.14,91.61a1.49,1.49,0,0,1-1.46-1.18L74.91,87a1.49,1.49,0,0,1,.37-1.35,1.46,1.46,0,0,1,1.31-.46c5.12.74,9.81-2.36,10.47-6.91s-3-8.86-8.07-9.61a1.5,1.5,0,1,1,.43-3c6.75,1,11.51,6.81,10.61,13-.8,5.53-5.87,9.51-11.75,9.58l.33,1.48a1.5,1.5,0,0,1-1.14,1.79A1.86,1.86,0,0,1,77.14,91.61Z"/><polygon class="cls-6" points="23.74 10.13 16.84 19.07 23.93 27.84 15 20.94 6.22 28.04 13.13 19.11 6.03 10.33 14.96 17.23 23.74 10.13"/><polygon class="cls-6" points="15.06 25.84 14.28 19.8 8.23 19.16 14.27 18.39 14.91 12.33 15.68 18.37 21.74 19.01 15.7 19.79 15.06 25.84"/><polygon class="cls-2" points="46.64 16.36 49.07 11.21 44.62 7.65 49.77 10.08 53.33 5.63 50.9 10.78 55.35 14.34 50.19 11.91 46.64 16.36"/></svg>