<svg xmlns="http://www.w3.org/2000/svg" xmlns:xlink="http://www.w3.org/1999/xlink" viewBox="0 0 129.7 367.84"><defs><style>.cls-1{isolation:isolate;}.cls-2,.cls-34,.cls-38{fill:#fff;}.cls-3{fill:#b8b7b5;}.cls-20,.cls-4{fill:#b04687;}.cls-5{fill:#963b6e;}.cls-13,.cls-15,.cls-19,.cls-20,.cls-25,.cls-31,.cls-39,.cls-51,.cls-6,.cls-8{mix-blend-mode:multiply;}.cls-7,.cls-8{fill:#dad7cf;}.cls-9{fill:#ffe2bb;}.cls-10,.cls-33{fill:#5e402f;}.cls-10,.cls-32{opacity:0.1;}.cls-11,.cls-13{fill:#3b5a6d;}.cls-12{fill:#2d4b5a;}.cls-13,.cls-25,.cls-31,.cls-34,.cls-37,.cls-39{opacity:0.5;}.cls-14{fill:#0f2433;}.cls-15{opacity:0.4;}.cls-16{fill:#1c3850;}.cls-17{fill:#fbc397;}.cls-18{fill:#a53e2c;}.cls-19{fill:#e7b89a;opacity:0.7;}.cls-21{fill:#ad6899;}.cls-22{fill:#cafaff;}.cls-23{fill:#90d1e0;}.cls-24{fill:#821618;}.cls-26{fill:#935279;}.cls-27,.cls-47{fill:none;stroke-miterlimit:10;}.cls-27{stroke:#000;}.cls-28{fill:#ffd9ac;}.cls-29{fill:#fff5eb;}.cls-30{fill:#ce755d;}.cls-31{fill:#782600;}.cls-34{mix-blend-mode:screen;}.cls-35{fill:#fffaf5;}.cls-36{fill:url(#linear-gradient);}.cls-37,.cls-51{fill:#573220;}.cls-38,.cls-48{fill-rule:evenodd;}.cls-39{fill:#c97106;}.cls-40{fill:#c2e3ff;}.cls-41{fill:url(#linear-gradient-2);}.cls-42{fill:#139ab0;}.cls-43{fill:url(#linear-gradient-3);}.cls-44{fill:url(#linear-gradient-4);}.cls-45{fill:url(#linear-gradient-5);}.cls-46{fill:url(#linear-gradient-6);}.cls-47{stroke:#ffb563;}.cls-48,.cls-50{fill:#ffe799;}.cls-49{fill:url(#linear-gradient-7);}.cls-52{fill:#7b1128;}.cls-53{fill:#bd606f;}.cls-54{fill:#d7293e;}.cls-55{fill:#a63622;}</style><linearGradient id="linear-gradient" x1="39.68" y1="65.21" x2="62.78" y2="65.21" gradientTransform="translate(-6.05 2.42) rotate(-2.91)" gradientUnits="userSpaceOnUse"><stop offset="0" stop-color="#de7f7c"/><stop offset="1" stop-color="#b5586c"/></linearGradient><linearGradient id="linear-gradient-2" x1="-1555.88" y1="-138.75" x2="-1555.88" y2="-147.88" gradientTransform="matrix(-1.41, -0.03, -0.03, 1.21, -2127.07, 174.21)" gradientUnits="userSpaceOnUse"><stop offset="0" stop-color="#733300"/><stop offset="1"/></linearGradient><linearGradient id="linear-gradient-3" x1="-1491.59" y1="-180.52" x2="-1491.59" y2="-191.6" gradientTransform="matrix(-1.06, 0.13, 0.11, 0.95, -1524.94, 415.86)" xlink:href="#linear-gradient-2"/><linearGradient id="linear-gradient-4" x1="54.3" y1="8.47" x2="95.57" y2="8.47" gradientTransform="matrix(1.15, 0.26, 0.23, -1.05, -26.78, 4.69)" gradientUnits="userSpaceOnUse"><stop offset="0" stop-color="#ffe699"/><stop offset="0.3" stop-color="#ffe194"/><stop offset="0.66" stop-color="#ffd286"/><stop offset="1" stop-color="#ffbd73"/></linearGradient><linearGradient id="linear-gradient-5" x1="57.92" y1="7.12" x2="97.62" y2="7.12" gradientTransform="matrix(1.17, 0.13, 0.11, -1.07, -26.72, 14.65)" gradientUnits="userSpaceOnUse"><stop offset="0" stop-color="#fff7a8"/><stop offset="0.27" stop-color="#fff2a4"/><stop offset="0.6" stop-color="#ffe398"/><stop offset="0.97" stop-color="#ffca84"/><stop offset="1" stop-color="#ffc782"/></linearGradient><linearGradient id="linear-gradient-6" x1="52.96" y1="6.32" x2="52.96" y2="6.32" gradientTransform="matrix(1, 0, 0, 1, 0, 0)" xlink:href="#linear-gradient-4"/><linearGradient id="linear-gradient-7" x1="40.95" y1="88.52" x2="63.09" y2="88.52" gradientTransform="matrix(1, 0, 0, 1, 0, 0)" xlink:href="#linear-gradient-4"/></defs><title>Детская стоматология</title><g class="cls-1"><g id="Слой_2" data-name="Слой 2"><path class="cls-2" d="M24.15,345.47c-15.17,1.31-20.26-2.11-22-4.39-.32,3.23.66,5.79,2.54,6.69,2.87,1.36,36.41,8.29,66.16-10.32a30,30,0,0,0,.23-5.36C60.75,339.84,44.32,343.73,24.15,345.47Z"/><path class="cls-3" d="M24.4,350.65c-10.53,0-18.38-1.72-19.87-2.45-2.07-1-3.16-3.74-2.82-7.18a.47.47,0,0,1,.35-.41.49.49,0,0,1,.52.17c1.24,1.68,4.9,4.5,15.31,4.5,1.93,0,4-.09,6.23-.3,22-1.89,37.3-6.22,46.72-13.27a.46.46,0,0,1,.49,0,.45.45,0,0,1,.28.41,33.13,33.13,0,0,1-.24,5.46.46.46,0,0,1-.23.33C54.27,348.42,36.4,350.65,24.4,350.65Zm-21.79-8.4c0,2.49.84,4.38,2.33,5.09,1,.5,8.54,2.33,19.46,2.33,11.83,0,29.41-2.16,46.05-12.5a29.06,29.06,0,0,0,.21-4.15c-9.61,6.84-24.83,11.07-46.45,12.91-2.24.21-4.38.31-6.32.31C9,346.24,4.68,344.23,2.61,342.25Z"/><path class="cls-4" d="M66.68,312.46c-5.16,7.07-11.15,16.17-33.56,11.55,0,0-5.62,5.61-13.15,6.66a36,36,0,0,1,6.35,14.59c19.18-1.81,34.8-5.7,44.8-13.17C70.92,324.05,68.84,312.89,66.68,312.46Z"/><path class="cls-4" d="M26.32,345.75a.47.47,0,0,1-.46-.39A35.63,35.63,0,0,0,19.59,331a.47.47,0,0,1-.05-.47.43.43,0,0,1,.37-.3c7.29-1,12.82-6.47,12.88-6.52a.45.45,0,0,1,.43-.11,55.47,55.47,0,0,0,11,1.23h0c12.94,0,17.61-6.41,21.74-12.07l.39-.53a.47.47,0,0,1,.47-.19c2.84.57,4.65,13.39,4.84,20.08a.53.53,0,0,1-.19.41c-9.27,6.91-24,11.25-45.06,13.27ZM20.82,331a36.82,36.82,0,0,1,5.88,13.74c20.5-2,34.87-6.21,43.93-12.88-.25-8.6-2.31-17.6-3.79-18.8l-.15.21c-4,5.55-9.1,12.46-22.52,12.46h0a56.07,56.07,0,0,1-10.9-1.21A26.22,26.22,0,0,1,20.82,331Z"/><path class="cls-2" d="M18.74,330.8c-8.15.54-12.08-1-15,4.89a16.09,16.09,0,0,0-1.59,5.39c1.7,2.28,6.79,5.7,22,4.39.73-.06,1.44-.13,2.17-.21A36,36,0,0,0,20,330.67Z"/><path class="cls-3" d="M17.89,346.24h0c-10.28,0-14.43-2.66-16.09-4.88a.64.64,0,0,1-.09-.34,16.92,16.92,0,0,1,1.64-5.55c2.39-4.88,5.51-4.94,10.67-5,1.39,0,2.94,0,4.68-.17.41,0,.8-.07,1.21-.13a.5.5,0,0,1,.45.19,36.75,36.75,0,0,1,6.43,14.8.5.5,0,0,1-.09.39.55.55,0,0,1-.34.19l-.69.05c-.49.06-1,.1-1.46.13C22,346.14,19.83,346.24,17.89,346.24ZM2.68,340.93c1.36,1.7,5.1,4.35,15.21,4.35h0c1.93,0,4-.09,6.23-.3.48,0,1-.07,1.45-.13l.17,0a35.58,35.58,0,0,0-6-13.66l-1,.11c-1.76.12-3.32.13-4.71.15-5.12.06-7.7.1-9.83,4.47A15.86,15.86,0,0,0,2.68,340.93Z"/><path class="cls-5" d="M66.68,312.46c-5.16,7.07-11.15,16.17-33.56,11.55a24.16,24.16,0,0,1-2.52,2.08c3.74,1.68,12.63,4.86,22.21,2.43,6.2-1.91,9.08-2.23,10.35.48s-.95,7-18.82,11-15.63,2.24-16.73-1.9a27.49,27.49,0,0,0-3.95-8.34,19.16,19.16,0,0,1-3.69.92,36,36,0,0,1,6.35,14.59c19.18-1.81,34.8-5.7,44.8-13.17C70.92,324.05,68.84,312.89,66.68,312.46Z"/><g class="cls-6"><path class="cls-7" d="M71.12,332.09c-10.37,7.75-26.8,11.64-47,13.38-15.17,1.31-20.26-2.11-22-4.39a10.94,10.94,0,0,0,.13,3.12c4.39,1.62,16.67,5.06,36,1.57,4.32-.84,6.26.41,7.07,2.07a82.39,82.39,0,0,0,25.46-10.39A30,30,0,0,0,71.12,332.09Z"/></g><path class="cls-2" d="M73.72,362.36C54.79,363.37,55,356,55.42,354a16.06,16.06,0,0,0-.84,5.12c0,4.11,3.13,8.24,21.93,8.24,15.91-.9,24.8-4.74,25.25-9.85,0-.65.11-1.29.16-1.92C98.13,359.58,91.23,361.43,73.72,362.36Z"/><path class="cls-3" d="M76.51,367.84c-19.87,0-22.41-4.65-22.41-8.71a16.8,16.8,0,0,1,.87-5.29.5.5,0,0,1,.59-.3.47.47,0,0,1,.33.56,4.83,4.83,0,0,0,1,4.11c2.32,2.85,8.15,4.12,16.78,3.67,16.77-.9,24.07-2.62,27.87-6.6a.49.49,0,0,1,.56-.11.48.48,0,0,1,.26.48c-.06.62-.11,1.26-.17,1.91-.48,5.64-9.85,9.4-25.68,10.28ZM55.18,357.11a15.22,15.22,0,0,0-.13,2c0,3.61,2.43,7.76,21.43,7.76,22.34-1.26,24.62-7.52,24.79-9.4,0-.23,0-.45,0-.68-4.2,3.57-11.77,5.18-27.56,6-9.08.49-15-.88-17.59-4A5.77,5.77,0,0,1,55.18,357.11Z"/><path class="cls-8" d="M60,364.19a5.56,5.56,0,0,1,2-2.63c-7.06-1.87-6.86-6.09-6.56-7.55a16.06,16.06,0,0,0-.84,5.12c0,2.3,1,4.62,5.13,6.19A5.57,5.57,0,0,1,60,364.19Z"/><path class="cls-8" d="M89.14,360.89a3.24,3.24,0,0,1,.84,1.57,9.74,9.74,0,0,1,.19,3c7.27-1.77,11.29-4.59,11.59-8,0-.65.11-1.29.16-1.92C99.53,358.12,95.89,359.77,89.14,360.89Z"/><path class="cls-2" d="M72.83,344.63a30.11,30.11,0,0,0-14.92,4.78,15.87,15.87,0,0,0-2.49,4.6c-.41,2-.63,9.36,18.3,8.35,14.43-.76,21.64-2.16,25.87-4.86C95.93,348.48,83.14,344.36,72.83,344.63Z"/><path class="cls-3" d="M70.34,362.92h0c-7.18,0-11.94-1.38-14.17-4.11A5.79,5.79,0,0,1,55,353.92a16.26,16.26,0,0,1,2.56-4.79.6.6,0,0,1,.14-.11,30.3,30.3,0,0,1,15.18-4.86c10.23-.28,23.41,3.83,27.21,13.16a.54.54,0,0,1-.19.6c-4.36,2.76-11.66,4.14-26.09,4.91C72.56,362.91,71.42,362.92,70.34,362.92ZM58.23,349.79a15.58,15.58,0,0,0-2.36,4.37,4.85,4.85,0,0,0,1.05,4c2,2.45,6.63,3.76,13.42,3.76h0c1.06,0,2.2,0,3.36-.09,13.87-.73,21-2,25.29-4.56-3.82-8.66-16.37-12.47-26.15-12.21A29.34,29.34,0,0,0,58.23,349.79Z"/><path class="cls-4" d="M103.27,337.66c-5.46,2.76-22.91,6.61-33.83-.9a28.74,28.74,0,0,1-8,9.21,17.41,17.41,0,0,0-3.55,3.44,30.11,30.11,0,0,1,14.92-4.78c10.31-.27,23.1,3.85,26.76,12.87a12.6,12.6,0,0,0,2.33-1.9c.41-4.28.94-8,1.8-10.08C104.71,343.11,104.61,340.78,103.27,337.66Z"/><path class="cls-4" d="M99.59,358a.48.48,0,0,1-.15,0,.46.46,0,0,1-.3-.26c-3.61-8.91-16.35-12.82-26.3-12.58a29.47,29.47,0,0,0-14.67,4.71.47.47,0,0,1-.61-.07.53.53,0,0,1-.05-.62,18.47,18.47,0,0,1,3.67-3.55A28.55,28.55,0,0,0,69,336.53a.52.52,0,0,1,.3-.24.4.4,0,0,1,.39.08c4.09,2.8,9.66,4.29,16.11,4.29,7.68,0,14.52-2.05,17.26-3.43a.4.4,0,0,1,.37,0,.42.42,0,0,1,.28.26c1.36,3.19,1.49,5.66.44,8.24-.93,2.26-1.43,6.51-1.77,9.94a.31.31,0,0,1-.13.28,12.91,12.91,0,0,1-2.41,2A.77.77,0,0,1,99.59,358ZM73.76,344.14c9.87,0,22.11,4,26.05,12.65a11.37,11.37,0,0,0,1.66-1.4c.49-5.1,1-8.2,1.8-10.05.92-2.23.84-4.3-.24-7-3.61,1.68-10.49,3.31-17.22,3.31-6.43,0-12-1.44-16.2-4.17a29.43,29.43,0,0,1-7.87,8.92,15.58,15.58,0,0,0-1.36,1.1,28.91,28.91,0,0,1,12.45-3.31C73.12,344.14,73.44,344.14,73.76,344.14Z"/><path class="cls-5" d="M103.27,337.66c-5.46,2.76-22.91,6.61-33.83-.9A26.86,26.86,0,0,1,66.56,341a6.83,6.83,0,0,1,2.07.39c5.26,1.85,10.75,2,16.26,2.62,3.63.43,6.53-.25,10.08-.62,1.5-.17,4.17-.56,5.19.93s.46,4.27-.72,5.65c-1.61,1.85-3.78-.09-5.26-1.05a13.12,13.12,0,0,0-6.42-1.74c5.36,2.1,9.88,5.5,11.83,10.28a12.6,12.6,0,0,0,2.33-1.9c.41-4.28.94-8,1.8-10.08C104.71,343.11,104.61,340.78,103.27,337.66Z"/><path class="cls-9" d="M6.47,201.86a76.4,76.4,0,0,0-5.15,9.19C-.35,215,.47,222.9,3.56,226c2.63,5.71,4.16,6.69,5.57,6.82S14,206,14,206Z"/><path class="cls-9" d="M9.15,233.29H9.07c-1.66-.16-3.33-1.44-5.92-7C0,223-.83,214.85.88,210.87a73.3,73.3,0,0,1,5.2-9.29.48.48,0,0,1,.63-.15l7.54,4.18a.49.49,0,0,1,.24.49C11,233.18,9.65,233.29,9.15,233.29Zm-2.51-30.8a70.56,70.56,0,0,0-4.87,8.75C.19,214.92.94,222.7,3.89,225.65a.73.73,0,0,1,.1.13c2.45,5.29,3.87,6.34,5,6.54,1-1.68,3.27-16.58,4.5-26Z"/><path class="cls-10" d="M6.47,201.86s-1.31,2-2.7,4.44A3.9,3.9,0,0,1,7.2,206c3.57,1.41,2.94,6.49,1.22,9.16-2,3.17-6.42,2.16-7.95,1.31C.55,220.1,1.59,224,3.56,226c2.63,5.71,4.16,6.69,5.57,6.82S14,206,14,206Z"/><path class="cls-11" d="M85,337.45c-9-.15-13.24-3.25-14.46-6,0,0-2-1.06-2.16,2.38s.56,5.17,1.87,6,15.06,5.89,25.41,2.3c8.77-4,10.06-4.3,9.91-7.17s-1.14-5.89-3.44-4.17C100.45,336.38,94,337.6,85,337.45Z"/><path class="cls-12" d="M87.21,343.88c-8.15,0-16.16-2.9-17.29-3.66-1.54-1-2.2-3.09-2.07-6.45.11-2.6,1.29-3,2-3a2.33,2.33,0,0,1,.9.2.54.54,0,0,1,.22.25c.57,1.3,3.26,5.57,14,5.73l1.38,0c9.42,0,14-1.9,15.28-6.33a.78.78,0,0,1,.17-.26,2.61,2.61,0,0,1,1.53-.6c2.25,0,2.64,3.92,2.7,5.14.15,2.91-1.09,3.47-7.93,6.59l-2.28,1A25.54,25.54,0,0,1,87.21,343.88ZM69.83,331.73c-.76,0-1,1.14-1,2.08-.12,3,.42,4.78,1.67,5.62.76.52,8.4,3.5,16.74,3.5a25.18,25.18,0,0,0,8.25-1.26l2.24-1c6.84-3.12,7.48-3.47,7.36-5.7-.13-2.48-.84-4.2-1.74-4.2a1.36,1.36,0,0,0-.82.32c-1.9,6-9.23,6.86-16.16,6.86-.47,0-.92,0-1.4,0-10.88-.17-14-4.53-14.79-6.13A.7.7,0,0,0,69.83,331.73Z"/><path class="cls-13" d="M105.53,335c-.15-2.88-1.14-5.89-3.44-4.17-1.64,5.6-8.13,6.82-17.13,6.67s-13.24-3.25-14.46-6c0,0-2-1.06-2.16,2.38,0,.3,0,.58,0,.84,2.37-.06,5.4,1.68,7.6,2.8A16.28,16.28,0,0,0,83.31,339c2.13,0,4.74-.78,6.84-.3,2.41.57,2.5,2.38,2.18,4.3a20.08,20.08,0,0,0,3.29-.84C104.39,338.11,105.68,337.82,105.53,335Z"/><path class="cls-14" d="M86.34,337.94h0c-.47,0-.92,0-1.4,0-11.33-.19-14.25-4.88-14.86-6.32a115.77,115.77,0,0,1-2.81-12.8,85.87,85.87,0,0,0-.43-9.31c-6,8.32-11.6,11.4-22,12.15-1,.07-1.9.11-2.78.11-9.2,0-10.86-3.81-10.93-4-2.18-4.88-4.92-11.27-7.82-18C18,287.34,12.47,274.5,9.54,268.82c-.73-1.4-1.4-2.61-2-3.7C4.4,259.5,3,256.93,4.31,244.47A190.46,190.46,0,0,1,13,205.75a.44.44,0,0,1,.17-.23c8.41-6.13,31.64-7.06,44.74-7.06,9.4,0,19.36.44,28.84,1.25a.53.53,0,0,1,.39.26c2.58,5.29,10,18.18,22.54,24a.48.48,0,0,1,.28.48,197.61,197.61,0,0,1-4.48,25c-.6,2.15-1.28,4.36-1.91,6.49-2,6.63-4.11,13.47-2.16,14.44,2.59,1.31,3.86,2.45,4.07,3.7a2.75,2.75,0,0,1-1,2.38c-.37.37-.72.69-1.06,1-1.61,1.44-2.33,2.11-.79,4.6,3.58,5.79,2.23,21.45.92,36.61-.35,4.09-.71,8.3-1,12.17C100.73,337.09,93.34,337.94,86.34,337.94ZM44.88,261c4.21,3.09,15.76,27.08,19.48,36.43.43,1.06.82,2.15,1.18,3.23-.12-.67-.25-1.38-.4-2.11-1.25-6.8-4.19-22.75-6.17-36.39-.59-4.2-1.16-9.57-1.68-14.75-.94-9-2.2-21.34-3.57-21.86-1.72.15-4.13,7.51-7.81,18.65-.92,2.82-1.94,5.94-3.1,9.33C45.05,254.6,45.57,256.58,44.88,261Z"/><g class="cls-15"><path class="cls-16" d="M86.67,200.19c-25.6-2.2-62.49-2.15-73.26,5.72a186.49,186.49,0,0,0-8.62,38.62s7.51-22.34,11-18.19,8.93.95,10.52-4.15S30.8,218,36.56,220.6s24.56,2.54,35.09-3.19c2.24,11.47,2.56,14.67,6.71,10.84s11.79-15,16.26-11.48,6.48,8.19,6.07,20.95c3.4-12.76,7.23-12.33,7.23-3.83,0,.32,0,.6,0,.88.56-3.33,1.07-6.86,1.49-10.39C96.77,218.55,89.36,205.67,86.67,200.19Z"/><path class="cls-16" d="M78.67,332.26c-5.74-1.59-7.34-19.14-8-28.4s-5.42-26.16,2.24-24.25,13.63.35,1.59-2.23c-9.72-2.07-12.12-19.45-12.76-30.63s-1.59-21.36,1.59-24.56c-4.79,2.24-12.43,1.91-21.68,2.88,7.64,2.54,1.58,10.2-2.25,22-4.8,14.8-20.09,16-27.12,15.32,16.6,7.65,27.44-7.34,25.54-3.83s-8,7,.95,4.79,20.09,29.34,19.46,35.1S65,302.91,61.76,309c-10.4,10.15-24.61,7.9-31.31,6,.4.9.77,1.78,1.14,2.58,0,0,1.8,4.41,13.24,3.59,10.11-.75,15.75-3.53,22.08-12.59a48.22,48.22,0,0,0-3-11C59.66,287,48,263.14,44.36,261.22c.84-5.11,0-6.58-2.13-7.44,6.16-18.28,8.93-28.51,11.47-28.71s3.84,23.83,5.76,37,4.67,28.3,6.17,36.38c.71,3.83,1.21,6.8,1.55,9.73a87.31,87.31,0,0,1,.58,10.52,121.12,121.12,0,0,0,2.74,12.71c1.22,2.79,5.44,5.89,14.46,6s15.49-1.07,17.13-6.67c0-.71.1-1.42.13-2.13C95.19,335.13,83.9,333.71,78.67,332.26Z"/></g><path class="cls-17" d="M66.21,98.62c0-1.57,1.16-3.41,3.83-6.27,4-4.56,2.45-9.73,1.23-12.35a37.64,37.64,0,0,1-17.91.15c.17,1.83.38,4.49.57,8.37-1.12,1.18-2.69,3-4.23,4.9C51.35,98.32,56.23,108.46,66.21,98.62Z"/><path class="cls-18" d="M58.45,103.23h0c-5.18,0-8-6-9.19-9.66a.52.52,0,0,1,.07-.47c1.53-1.87,3-3.59,4.11-4.76-.17-3.29-.33-6-.56-8.15a.5.5,0,0,1,.6-.51,36.88,36.88,0,0,0,17.68-.15.5.5,0,0,1,.54.26c1.29,2.79,2.82,8.15-1.31,12.88-2.67,2.86-3.74,4.58-3.7,5.93a.47.47,0,0,1-.15.35C63.66,101.79,60.93,103.23,58.45,103.23Zm-8.2-9.72c1.17,3.39,3.73,8.77,8.2,8.77h0c2.19,0,4.64-1.29,7.29-3.87C65.79,96.8,66.91,95,69.68,92c3.61-4.11,2.47-8.8,1.31-11.46a37.94,37.94,0,0,1-17.08.21c.19,2.07.36,4.67.49,7.73a.46.46,0,0,1-.13.36C53.22,90,51.75,91.64,50.25,93.51Z"/><path class="cls-9" d="M66.21,98.62c0-1.57,1.16-3.41,3.83-6.27,4-4.56,2.45-9.73,1.23-12.35a37.64,37.64,0,0,1-17.91.15c.17,1.83.38,4.49.57,8.37-1.12,1.18-2.69,3-4.23,4.9C51.35,98.32,56.23,108.46,66.21,98.62Z"/><path class="cls-19" d="M53.5,89c5.23,2,12.67.52,17.21-.9.58-.17,1.14-.37,1.72-.58A12.8,12.8,0,0,0,71.27,80a37.64,37.64,0,0,1-17.91.15c.17,1.83.38,4.49.57,8.37C53.8,88.65,53.65,88.84,53.5,89Z"/><path class="cls-3" d="M47.05,97.59c.17,3.21,1.44,8.76,7.9,11.17a11.49,11.49,0,0,0,3.07.43h0c4.75,0,8.39-3.1,10.28-6.09a9.64,9.64,0,0,0-1-1.33,5.74,5.74,0,0,1-1.4-2.18c-2.64,2.43-5.14,3.64-7.44,3.64-4.8,0-7.57-5.21-8.92-8.86C48.62,95.53,47.76,96.63,47.05,97.59Z"/><path class="cls-20" d="M67.64,101.44a4.36,4.36,0,0,1-1.43-2.82c-10,9.84-14.86-.3-16.51-5.2-1.12,1.38-2.22,2.78-3.14,4a15.92,15.92,0,0,0,.53,3.4,3.79,3.79,0,0,1,.73-.93c.13-.15.46-.42.63-.15,1.59,2.44,3.75,4.82,6.91,4.82a21.4,21.4,0,0,0,7.84-2.06.29.29,0,0,1,.44.15c.84,2,.1,4.17-1.3,6.13a14.06,14.06,0,0,0,6.52-5.68A9.36,9.36,0,0,0,67.64,101.44Z"/><path class="cls-21" d="M79,173.6a194.45,194.45,0,0,1-6.92-51.1c.13-10.28-1.38-16.2-3.25-19.38a13,13,0,0,1-2.13,2.71,14.41,14.41,0,0,0,2.13-2.71,9.36,9.36,0,0,0-1.22-1.68,4.36,4.36,0,0,1-1.43-2.82c-10,9.84-14.86-.3-16.51-5.2-1.12,1.38-2.22,2.78-3.14,4a23.12,23.12,0,0,0-1.88,2.88,3,3,0,0,1-3,1.92C32.55,115.16,31,126.8,29.2,138.76s-5,33.9-6,44.16.69,23.12.69,23.12c9.63,10.34,28.73,21.05,50.37,6.13,0,0,.34-12.2,2-18.8S81.8,183,79,173.6Z"/><path class="cls-4" d="M52.45,220h0c-14.67,0-25.14-9.53-28.95-13.64a.39.39,0,0,1-.11-.26c0-.13-1.72-13-.71-23.23.95-9.51,3.77-28.69,5.64-41.4l.48-3.33c1.76-12,3.42-23.36,12.45-36.18a.47.47,0,0,1,.47-.19,2.62,2.62,0,0,0,2.52-1.66,23.9,23.9,0,0,1,1.95-3,.45.45,0,0,1,.52-.17.48.48,0,0,1,.34.43c.13,3.18,1.32,8.88,7.9,11.34a11.49,11.49,0,0,0,3.07.43c4.88,0,8.58-3.27,10.43-6.33a.51.51,0,0,1,.41-.23h0a.51.51,0,0,1,.41.23c2.28,3.89,3.42,10.67,3.31,19.64a193.44,193.44,0,0,0,6.9,51c2.07,7,.52,11-1.12,15.21a38.33,38.33,0,0,0-1.63,4.82c-1.68,6.47-2,18.56-2,18.69a.57.57,0,0,1-.2.38C67.33,217.5,59.91,220,52.45,220ZM24.3,205.82c3.81,4.07,14,13.23,28.15,13.23h0c7.2,0,14.37-2.39,21.31-7.14.06-1.75.46-12.59,2-18.65a44.25,44.25,0,0,1,1.66-4.92c1.59-4.07,3.08-7.92,1.1-14.61a194.76,194.76,0,0,1-6.94-51.25c.14-10.18-1.36-15.6-2.79-18.43A13.4,13.4,0,0,1,58,110.15a12.15,12.15,0,0,1-3.35-.47,12.69,12.69,0,0,1-8.48-10.9,13.59,13.59,0,0,0-1.08,1.76,3.56,3.56,0,0,1-3.22,2.19h0c-8.75,12.54-10.39,23.73-12.11,35.56l-.5,3.33c-1.85,12.69-4.68,31.87-5.63,41.34S24.12,204.36,24.3,205.82Z"/><path class="cls-9" d="M109.45,224.38c.92-7.74,1.41-15.4.83-20.58-3.92-1.33-12.75-2.67-23.61-3.61C89.36,205.67,96.77,218.55,109.45,224.38Z"/><path class="cls-10" d="M98,206.1c.06-.32.4-.8.77-.64,3.92,1.61,8.61,2.08,11.77,4.4a49.07,49.07,0,0,0-.24-6.06c-3.92-1.33-12.75-2.67-23.61-3.61,2.69,5.48,10.1,18.36,22.78,24.19.15-1.25.29-2.51.4-3.74C102.69,217.84,96.38,213.11,98,206.1Z"/><path class="cls-22" d="M53.36,80.15a35.31,35.31,0,0,1-5.54-1.85,70.43,70.43,0,0,1-10.73,6.93c-6.11,3.37-5.48,5-5.48,8.19v3.16l.3,4.82,8-3.61,1.76,4.45a3,3,0,0,0,3-1.92c1.09-2.23,6.53-8.92,9.25-11.8C53.74,84.64,53.53,82,53.36,80.15Z"/><path class="cls-23" d="M41.89,102.73h0a2.66,2.66,0,0,1-.34,0,.43.43,0,0,1-.35-.3l-1.57-4-7.53,3.42a.47.47,0,0,1-.43,0,.46.46,0,0,1-.25-.37l-.27-4.82v-3.2c0-.26,0-.54,0-.78-.05-3,.17-4.77,5.73-7.84A70.21,70.21,0,0,0,47.5,77.93a.48.48,0,0,1,.5-.08,34.55,34.55,0,0,0,5.48,1.83.5.5,0,0,1,.35.41c.23,2.19.42,5,.57,8.41a.46.46,0,0,1-.13.36c-2.66,2.8-8.08,9.51-9.16,11.68A3.56,3.56,0,0,1,41.89,102.73Zm-2-5.42a1,1,0,0,1,.19,0,.46.46,0,0,1,.26.27L42,101.77a2.63,2.63,0,0,0,2.27-1.66c1.13-2.26,6.45-8.84,9.2-11.77-.15-3.12-.32-5.74-.52-7.82a35.59,35.59,0,0,1-5.05-1.68,69,69,0,0,1-10.56,6.82C32,88.58,32,90,32.08,92.62c0,.26,0,.52,0,.8v3.16l.24,4.11,7.36-3.35Z"/><path class="cls-22" d="M31.91,101.4l-.3-4.82a111.93,111.93,0,0,0-11.72,9.81c-6,5.74-6.59,13.18-7.44,23.83s-2.56,26.89-2.56,26.89S5.76,160.68,8.77,165C7.37,167.49,7,175.5,6,180.4c-1.41,6.8-3.66,14.88-.52,18.86,0,0,3.32,2.75,6,2.45a10.47,10.47,0,0,0-.35,2.95l0,0c.22,1.52,2.72,5,3.84,6.71s2.08,8.13,2.57,10.37a3.89,3.89,0,0,0,3.51,3.18c1.1,0,2.43-11.89,2.78-18.86,0,0-1.72-12.87-.69-23.12s4.28-32.18,6-44.16,3.35-23.6,12.45-36.52l-1.76-4.45Z"/><path class="cls-23" d="M21.07,225.39a4.38,4.38,0,0,1-4-3.57c-.11-.51-.25-1.2-.4-2-.5-2.75-1.28-6.92-2.09-8.19-.24-.37-.54-.84-.87-1.32-1.2-1.8-2.68-4-3-5.33a.59.59,0,0,1-.09-.3,12.88,12.88,0,0,1,.23-2.47c-2.68-.11-5.59-2.46-5.72-2.56-3-3.77-1.53-10.48-.13-16.95.18-.8.35-1.59.5-2.37.37-1.81.67-4.1,1-6.3.48-3.72.93-7.23,1.77-9-2.6-4,.48-7.44,1.22-8.15.18-1.79,1.73-16.8,2.52-26.73.84-10.58,1.46-18.2,7.59-24.12a111.23,111.23,0,0,1,11.77-9.85.48.48,0,0,1,.49,0,.46.46,0,0,1,.28.41l.24,4.13,7.36-3.35a.5.5,0,0,1,.38,0,.46.46,0,0,1,.26.27l1.74,4.44a.51.51,0,0,1,0,.47c-8.89,12.62-10.54,23.87-12.28,35.77l-.5,3.33c-1.85,12.69-4.68,31.87-5.63,41.34-1,10.07.69,22.88.69,23C24.32,206.25,23.27,225.39,21.07,225.39Zm-9.49-20.93a.23.23,0,0,1,0,.13c.17,1.06,1.82,3.53,2.92,5.17l.88,1.33c.91,1.44,1.68,5.55,2.22,8.54.15.8.28,1.5.39,2a3.51,3.51,0,0,0,2.92,2.82c.79-1.12,2-10.37,2.43-18.42,0,0-1.7-13-.69-23.14.95-9.51,3.77-28.69,5.64-41.4l.48-3.33c1.76-11.94,3.41-23.23,12.31-36l-1.48-3.74-7.53,3.42a.47.47,0,0,1-.43,0,.46.46,0,0,1-.25-.37l-.24-4a119.2,119.2,0,0,0-10.95,9.26c-5.87,5.66-6.48,13.15-7.31,23.53S10.38,157,10.38,157.17a.54.54,0,0,1-.17.3c-.15.13-3.77,3.36-1.05,7.25a.45.45,0,0,1,0,.52c-.84,1.48-1.33,5.24-1.79,8.88-.28,2.24-.58,4.54-1,6.37q-.23,1.19-.51,2.4c-1.29,6-2.75,12.73-.11,16.07h0s3.16,2.52,5.59,2.28a.47.47,0,0,1,.43.17.5.5,0,0,1,.09.43A10,10,0,0,0,11.58,204.46Z"/><path class="cls-22" d="M69,97.05c2.37.24,6.49,7.1,10.73,7.36,4.88-7.87,9.92-14.32,10.76-16.52C90.3,82.78,81.57,76,81.57,76a38.72,38.72,0,0,1-10.3,4C72.49,82.62,74,87.79,70,92.35,66,96.73,65.31,98.67,67.27,101,67.22,99.38,67.4,96.88,69,97.05Z"/><path class="cls-23" d="M79.74,104.88h0c-2.64-.15-5.08-2.54-7.23-4.64-1.41-1.36-2.7-2.63-3.54-2.73a.67.67,0,0,0-.57.21c-.45.45-.68,1.66-.62,3.29a.51.51,0,0,1-.32.47.49.49,0,0,1-.54-.15c-2.36-2.84-1-5.26,2.78-9.31,3.78-4.3,2.34-9.25,1.16-11.81a.51.51,0,0,1,0-.42.49.49,0,0,1,.32-.26,39.28,39.28,0,0,0,10.17-4,.48.48,0,0,1,.54,0c.35.28,8.9,7,9.12,12.28a.72.72,0,0,1,0,.19,47.63,47.63,0,0,1-4.22,6.69c-1.91,2.74-4.27,6.18-6.58,9.9A.47.47,0,0,1,79.74,104.88Zm-10.9-8.32h.21c1.18.13,2.47,1.38,4.09,3,2,1.91,4.17,4.06,6.36,4.35,2.25-3.64,4.57-7,6.43-9.71A50.93,50.93,0,0,0,90,87.79c-.28-4.33-7.08-10.09-8.49-11.23a40.65,40.65,0,0,1-9.59,3.78c1.22,2.88,2.34,7.88-1.55,12.33-3.31,3.53-4.07,5.27-3.55,6.75a3.78,3.78,0,0,1,.85-2.37A1.56,1.56,0,0,1,68.84,96.56Z"/><path class="cls-22" d="M122,129.57C116.67,114.69,112.2,107,90.5,87.89c-.84,2.2-5.88,8.65-10.76,16.52-4.24-.26-8.36-7.12-10.73-7.36-1.61-.17-1.79,2.33-1.74,4l.37.41c2.4,2.56,4.62,8.61,4.47,21.06A194.45,194.45,0,0,0,79,173.6C81.8,183,78,186.77,76.26,193.37s-2,18.8-2,18.8c.25,5.05,2.77,13.46,2.77,13.46A73.6,73.6,0,0,0,84,216c2.9-4.93,5.78-6.72,5.91-9.38s2.22-4.22,4.69-5.1a8.94,8.94,0,0,1,1.2-5.1c6,2.63,12.75,5.59,17.72,5.19,1-1,7.94-8.63,14-26.54C131.55,161.47,127.94,147,122,129.57Z"/><path class="cls-23" d="M77,226.12a.15.15,0,0,1-.09,0,.46.46,0,0,1-.36-.32c-.11-.36-2.54-8.54-2.78-13.59,0-.15.33-12.37,2-18.93a44.25,44.25,0,0,1,1.66-4.92c1.59-4.07,3.08-7.92,1.1-14.61a194.76,194.76,0,0,1-6.94-51.25c.2-13.81-2.63-18.89-4.33-20.71l-.39-.44a.64.64,0,0,1-.12-.29c0-2,.25-3.32.91-4a1.54,1.54,0,0,1,1.36-.49c1.18.13,2.47,1.38,4.09,3,2,1.91,4.17,4.06,6.36,4.35,2.25-3.64,4.57-7,6.43-9.71a49.09,49.09,0,0,0,4.12-6.47.53.53,0,0,1,.34-.3.5.5,0,0,1,.43.09C113,107,117.25,114.89,122.45,129.42c6.32,18.5,9.43,32.61,5.53,45.8-6.06,17.8-12.86,25.4-14.15,26.75a.64.64,0,0,1-.32.15c-5,.37-11.62-2.49-17.53-5.07a8.25,8.25,0,0,0-.93,4.43.5.5,0,0,1-.32.51c-1.59.56-4.26,1.9-4.39,4.67-.08,1.68-1.13,3-2.56,4.8a39.57,39.57,0,0,0-3.41,4.81,76.14,76.14,0,0,1-7,9.68A.5.5,0,0,1,77,226.12ZM67.76,100.84c.08.09.15.19.22.28,2.21,2.34,4.79,7.94,4.6,21.38a193.44,193.44,0,0,0,6.9,51c2.07,7,.52,11-1.12,15.21a38.33,38.33,0,0,0-1.63,4.82c-1.68,6.47-2,18.56-2,18.69.19,4,1.85,10.19,2.51,12.45a72.87,72.87,0,0,0,6.33-8.86A40.76,40.76,0,0,1,87,210.87c1.32-1.67,2.3-2.86,2.35-4.25.11-2.37,1.78-4.28,4.68-5.42a9.85,9.85,0,0,1,1.28-5A.49.49,0,0,1,96,196c5.83,2.56,12.43,5.48,17.31,5.18,1.22-1.31,7.92-9,13.79-26.24,3.84-12.92.73-26.88-5.53-45.2-5.09-14.24-9.33-22-30.86-41.06C90,90,88.58,92,86.73,94.75s-4.27,6.18-6.58,9.9a.41.41,0,0,1-.43.23c-2.64-.15-5.08-2.54-7.23-4.64-1.41-1.36-2.7-2.63-3.54-2.73a.67.67,0,0,0-.57.21C67.94,98.15,67.72,99.29,67.76,100.84Z"/><path class="cls-23" d="M11.15,204.64c0-.76.11-1.53.16-2.32s.23-1.53.32-2.29l.19-1.16.28-1.12.58-2.28,0,.18c-1.15-1.33-2.44-2.45-3.51-3.94a2.46,2.46,0,0,1-.44-1.38A2.35,2.35,0,0,1,9.37,189a14.33,14.33,0,0,1,2-1.8,20.08,20.08,0,0,0,2-1.62,1.85,1.85,0,0,0,.49-1v-1.24c-.08-1.75-.15-3.49-.17-5.23l-.07-5.25c-.06-1.76,0-3.5,0-5.25l0-5.24.3-5.25c.11-1.76.19-3.51.45-5.23s.48-3.48.76-5.22q.86-5.16,2-10.3c.72-3.41,1.51-6.82,2.48-10.2.49-1.66,1-3.35,1.59-5a30.25,30.25,0,0,1,2.11-4.8,30.69,30.69,0,0,0-1.92,4.86c-.5,1.68-.95,3.36-1.39,5s-.8,3.4-1.17,5.1-.71,3.41-1,5.13c-.65,3.42-1.25,6.86-1.79,10.29-.26,1.74-.52,3.46-.73,5.18s-.32,3.46-.42,5.2l-.25,5.21-.08,5.23c0,1.74-.07,3.48,0,5.24l0,5.21.09,5.23V184l0,.73a2.61,2.61,0,0,1-.7,1.32,16.18,16.18,0,0,1-2.11,1.65,15,15,0,0,0-1.94,1.66,1.89,1.89,0,0,0-.49,1,1.85,1.85,0,0,0,.34,1.07,17.2,17.2,0,0,0,1.61,2l1.71,2a.18.18,0,0,1,0,.17v0l-.65,2.22-.34,1.1-.22,1.14c-.13.75-.34,1.52-.41,2.28S11.18,203.88,11.15,204.64Z"/><path class="cls-24" d="M12.84,195.54a4.41,4.41,0,0,1,.79.67,5.66,5.66,0,0,1,.67.81,9.79,9.79,0,0,1,.66,1,10.13,10.13,0,0,1,.5,1.06,10.35,10.35,0,0,1,.32,1c.15.6.21,1,.21,1a7.4,7.4,0,0,1-.7-.79,15.42,15.42,0,0,1-1.17-1.83,18,18,0,0,1-.94-2c-.11-.28-.19-.54-.24-.71A1.42,1.42,0,0,1,12.84,195.54Z"/><path class="cls-24" d="M95.76,196.44a2.66,2.66,0,0,1-1-1.8c0-.35,0-.71,0-1.06s.06-.69.11-1.05a18,18,0,0,1,.5-2.05c.21-.66.43-1.31.62-2l2.23-8c.76-2.67,1.51-5.34,2.33-8,.43-1.32.86-2.65,1.33-4,.26-.65.49-1.31.76-2,.14-.34.29-.65.45-1a4.16,4.16,0,0,1,.66-1v.6a7.26,7.26,0,0,1-1.2-1.5,5,5,0,0,1-.41-.88,3,3,0,0,1-.21-1,3.27,3.27,0,0,1,0-1,3.65,3.65,0,0,1,.35-.94,2.92,2.92,0,0,1,.62-.78,3.09,3.09,0,0,1,.84-.54,2,2,0,0,1,.49-.13,1.11,1.11,0,0,1,.28,0l.22,0a4.16,4.16,0,0,1,.92.09,15.8,15.8,0,0,1,1.77.47,30,30,0,0,1,3.43,1.27c-1.16-.36-2.32-.71-3.5-1-.58-.11-1.17-.26-1.74-.32a6.34,6.34,0,0,0-.89,0h-.23l-.16,0c-.14,0-.25.1-.38.13a2.59,2.59,0,0,0-1.38,2.7,5.07,5.07,0,0,0,1.7,2.82.43.43,0,0,1,.06.5l-.06.1a3.51,3.51,0,0,0-.47.76c-.15.3-.28.6-.41.92-.26.63-.49,1.29-.71,1.94-.45,1.29-.86,2.62-1.27,4L99,180.74c-.77,2.65-1.61,5.31-2.51,7.94-.22.65-.46,1.31-.71,2s-.49,1.27-.62,2c0,.33-.14.67-.18,1a8.44,8.44,0,0,0,0,1A2.69,2.69,0,0,0,95.76,196.44Z"/><path class="cls-24" d="M103.7,159.19s-.67-2.69-1.57-6.77c-.43-2-1-4.41-1.5-7l-1.58-8c-.27-1.36-.51-2.73-.75-4s-.34-2.71-.51-4c-.05-.65-.17-1.27-.18-1.91s0-1.25,0-1.85c0-1.21,0-2.35,0-3.4s.15-2,.22-2.84c0-.43.06-.82.1-1.18s.1-.71.16-1l.36-1.87s-.05.7-.17,1.91c0,.3-.08.62-.1,1s0,.77,0,1.18c0,.84,0,1.79,0,2.84s.11,2.15.17,3.33c0,.57,0,1.19.09,1.81s.15,1.25.23,1.91c.18,1.27.28,2.65.55,3.94s.55,2.69.81,4.05c.5,2.73,1,5.46,1.48,8s.84,5,1.19,7C103.32,156.44,103.7,159.19,103.7,159.19Z"/><path class="cls-24" d="M93.16,111.49s.24,1,.62,2.47l.61,2.5c.21.92.51,1.87.75,2.84.11.49.3,1,.43,1.44s.28.94.41,1.39c.35.86.65,1.68.9,2.39.65,1.33,1.06,2.28,1.06,2.28s-.17-.19-.43-.54-.7-.84-1.12-1.48-.78-1.49-1.2-2.35c-.14-.47-.33-.92-.5-1.41s-.34-1-.46-1.45c-.23-1-.53-2-.66-2.94s-.28-1.83-.34-2.59A19.68,19.68,0,0,1,93.16,111.49Z"/><path class="cls-22" d="M5.45,199.26c-.12,3-.12,5.91,5.66,5.4a10.47,10.47,0,0,1,.35-2.95C8.77,202,5.45,199.26,5.45,199.26Z"/><path class="cls-22" d="M95.76,196.44a8.94,8.94,0,0,0-1.2,5.1,1.29,1.29,0,0,1,.21-.07s10.91,5.41,18.33,3.58c.25-2.56.25-3.27.25-3.27l.13-.15C108.51,202,101.77,199.07,95.76,196.44Z"/><path class="cls-11" d="M44.83,321.17c-11.44.82-13.24-3.59-13.24-3.59-2.33,1.29-1.06,4.69.43,7s16.37,4,21.91,1.91,11-6.38,13.4-10.21a34.14,34.14,0,0,0-.42-7.73C60.58,317.64,54.94,320.42,44.83,321.17Z"/><path class="cls-12" d="M46.47,328c-5.4,0-13.57-1.09-14.86-3.11-.69-1.08-2.22-3.81-1.68-5.88a2.75,2.75,0,0,1,1.44-1.82.47.47,0,0,1,.37,0,.53.53,0,0,1,.3.29s1.57,3.38,10,3.38c.86,0,1.77,0,2.73-.11,10.41-.75,15.69-3.76,21.72-12.4a.44.44,0,0,1,.5-.18.46.46,0,0,1,.36.39,33.13,33.13,0,0,1,.4,7.87.27.27,0,0,1-.07.19c-2.41,4-8,8.26-13.62,10.41A24,24,0,0,1,46.47,328Zm-15-9.7a1.71,1.71,0,0,0-.57.93c-.31,1.2.28,3.12,1.54,5.14.77,1.21,7.22,2.65,14.06,2.65a22.1,22.1,0,0,0,7.28-.93c5.3-2,10.77-6.19,13.11-9.91a33.73,33.73,0,0,0-.26-6.33c-5.89,8.05-11.51,11.08-21.74,11.81-1,.07-1.9.11-2.78.11C34.77,321.75,32.21,319.34,31.44,318.28Z"/><g class="cls-25"><path class="cls-11" d="M66.91,308.58c-6.33,9.06-12,11.84-22.08,12.59-11.44.82-13.24-3.59-13.24-3.59-1.4.77-1.49,2.28-1,3.87,2.31-.54,6.41,1.35,8.9,1.55a26.07,26.07,0,0,0,9.43-.61c2.21-.62,4.17-1.67,6.48-1a3.64,3.64,0,0,1,2.4,3.29c4.11-2.28,7.78-5.45,9.57-8.39A34.14,34.14,0,0,0,66.91,308.58Z"/></g><path class="cls-14" d="M103.38,220.92c-.46,4.73-1,9.44-1.53,14.15-.26,2.35-.62,4.71-.92,7.06l-1,7.07c-.28,2.35-.73,4.69-1.12,7l-1.24,7-.61,3.5c-.23,1.16-.41,2.32-.56,3.47a9.34,9.34,0,0,0,0,3.37c.21.91,1.38,1.42,2.3,2.26h0l0,.07A1.64,1.64,0,0,1,99,277.2a4.22,4.22,0,0,1-.36,1,12.18,12.18,0,0,1-1,1.69,17.37,17.37,0,0,0-1.87,3.15c-.18.56-.17.92.24,1.12a4.57,4.57,0,0,1,1.52,1.42,12.56,12.56,0,0,1,1.59,3.61,41.26,41.26,0,0,1,1.23,7.59c.11,1.27.19,2.56.23,3.83s.05,2.56,0,3.83l-.21,7.61-.45,7.63c-.15,2.52-.37,5.06-.56,7.58l-.63,7.61.39-7.63c.11-2.52.24-5.06.32-7.6l.31-7.59.08-7.63c0-1.27,0-2.52-.06-3.79s-.13-2.52-.24-3.77a42,42,0,0,0-1.25-7.42,11.56,11.56,0,0,0-1.49-3.33A3.18,3.18,0,0,0,95.57,285a1.49,1.49,0,0,1-.77-1.05,2.12,2.12,0,0,1,.12-1.16,17.19,17.19,0,0,1,2-3.4c.33-.52.67-1.05.93-1.57s.4-1.1.2-1.32l.08.07c-.43-.37-.88-.71-1.38-1.08a3.2,3.2,0,0,1-1.2-1.65,9.87,9.87,0,0,1,0-3.72c.15-1.18.38-2.35.58-3.53l.65-3.51,1.28-7,.63-3.49c.24-1.18.41-2.34.58-3.51l1.09-7c.35-2.36.72-4.69,1-7.05C102.07,230.32,102.77,225.63,103.38,220.92Z"/><path class="cls-14" d="M42.23,253.78a8.63,8.63,0,0,1-.06,1.06,11.72,11.72,0,0,1-.5,2.23,13.69,13.69,0,0,1-.88,2.07,6,6,0,0,1-.58.9,7.63,7.63,0,0,1,0-1.07,12,12,0,0,1,.51-2.2,11.65,11.65,0,0,1,.88-2.1C42,254.13,42.23,253.78,42.23,253.78Z"/><g class="cls-6"><path class="cls-7" d="M79.59,345.08c3.79,1.1,7,3,7.47,6.16,1,7.25-23.51,11.39-31.34,2-.09.28-.21.54-.3.8-.41,2-.63,9.36,18.3,8.35,14.43-.76,21.64-2.16,25.87-4.86C96.71,350.38,88.13,346.35,79.59,345.08Z"/></g><g class="cls-6"><path class="cls-7" d="M20,330.67l-1.23.13c-1.69.11-3.16.13-4.51.15,2.34.46,4.37,1.4,5.31,3.14,2.73,5.06-5.39,10.72-17.1,5.45a11.19,11.19,0,0,0-.25,1.54c1.7,2.28,6.79,5.7,22,4.39.73-.06,1.44-.13,2.17-.21A36,36,0,0,0,20,330.67Z"/></g><path class="cls-23" d="M53.36,80.15a35.31,35.31,0,0,1-5.54-1.85A71.85,71.85,0,0,1,37.5,85h.35s5.31-.41,8.15-2,3,1.22,3.14,3.8-4.09,5.85-5.71,8.43S39.89,93,37.85,90.71s-2.85-.54-1.49,2.73c1.19,2.9,1.84,2.6-4.56,6.09l.11,1.87,8-3.61,1.76,4.45a3,3,0,0,0,3-1.92c1.09-2.23,6.53-8.92,9.25-11.8C53.74,84.64,53.53,82,53.36,80.15Z"/><path class="cls-23" d="M74.21,96.34c-2.56-2.08,1.27-4.79,2.07-8.15s1-5.26,5.42-6.69,6.38,1.27,6.38,1.27l.14-.06A40,40,0,0,0,81.57,76a38.72,38.72,0,0,1-10.3,4C72.49,82.62,74,87.79,70,92.35,66,96.73,65.31,98.67,67.27,101c0-1.65.13-4.15,1.74-4,2.37.24,6.49,7.1,10.73,7.36.33-.52.65-1,1-1.57A90,90,0,0,0,74.21,96.34Z"/><path class="cls-23" d="M29.2,138.76c1.76-12,3.35-23.6,12.45-36.52l-1.76-4.45-8,3.61-.3-4.82s-2.75,1.94-6.39,5c2,4,5.06,4.09,8.79,2.24,4.46-2.24.63,3.2-3.52,15s-6.37,31.58-8.93,50.41-.32,31.58-1,40.2-1.9,3.51-4.46-2.23-2.23-7-2.23-7l2.54,2.87s.64-8-2.54-11.17.32-6.38,2.86-1.59,0-4.47.64-25.21,4.78-34.77,8.3-52c-4.15,2.56-4.79,7.35-5.11,5.1s-1-6.37-1-6.37-1.92,7.64-.64,13.08-3.83,19.78-5.75,34.77.65,22-2.86,25.53-3.2,2.54-1.93,5.73,1.93,2.88,1.29,7.35a7.19,7.19,0,0,1-5.59-1.8,6.88,6.88,0,0,0,1.28,2.79s3.32,2.75,6,2.45a10.47,10.47,0,0,0-.35,2.95l0,0c.22,1.52,2.72,5,3.84,6.71s2.08,8.13,2.57,10.37a3.89,3.89,0,0,0,3.51,3.18c1.1,0,2.43-11.89,2.78-18.86,0,0-1.72-12.87-.69-23.12S27.44,150.74,29.2,138.76Z"/><path class="cls-23" d="M123.34,182c-5.44,11.18-8.93,16-16,12.45s-6.06-4.47-3.51-13.09,2.24-16,4.47-14.35,7.34,1.59,2.56-1.27-4.47-5.1,1.27-4.15,9.56.95,1.28-1.61-6.7-10.84-8.61-25.51-2.88-23,3.81-22.33S124,136.05,124,136.05l.17.06c-.68-2.13-1.41-4.32-2.17-6.54-3.39-9.52-6.45-16.08-13.87-24.58,2.23,5.1-5.23,1.77-8.39,5.85s-2.86,12.13-3.49,8.3-3.84-12.43-3.84-12.43a25.49,25.49,0,0,0,0,11.79A160.67,160.67,0,0,1,96.86,137c2.22,11.5,2.86,21.07-1,15.65s-.66,4.15,2.54,9.57.32,9.88-3.2,19.45-3.49,13.72-8.58,18.52-9,14.34-9,14.34.64-13.08,2.23-20.41,2.56-16,6.39-10.54,6.37,8.61,0-6.06c-7-17.23-9.91-51-11.18-60.29s0-11.49,4.79-8.62,8.93-8.93,11.81-13.08c1.92-2.8,3.86-2.54,4.91-2.09-1.89-1.74-3.92-3.59-6.17-5.55-.84,2.2-5.88,8.65-10.76,16.52-4.24-.26-8.36-7.12-10.73-7.36-1.61-.17-1.79,2.33-1.74,4l.37.41c2.4,2.56,4.62,8.61,4.47,21.06A194.45,194.45,0,0,0,79,173.6C81.8,183,78,186.77,76.26,193.37s-2,18.8-2,18.8c.25,5.05,2.77,13.46,2.77,13.46A73.6,73.6,0,0,0,84,216c2.9-4.93,5.78-6.72,5.91-9.38s2.22-4.22,4.69-5.1a8.94,8.94,0,0,1,1.2-5.1c6,2.63,12.75,5.59,17.72,5.19,1-1,7.94-8.63,14-26.54.19-.63.34-1.25.49-1.87C126.18,176.46,124.54,179.5,123.34,182Z"/><path class="cls-2" d="M18.75,109c-2,3.27-4.63,5.52-5.15,9.57-.89,6.9-1,13.89-1.28,20.84,0,.94,1.09-.09,1.13-.63.33-5.31.57-10.62.82-15.95.26-5.57,2.26-9,4.74-13.66C19.18,108.91,18.94,108.75,18.75,109Z"/><path class="cls-26" d="M79,173.6c-5.33-19.36-7.87-38.69-6.92-51.1a38.32,38.32,0,0,0-5.9-23.88c-3.17,3.15-8,4.27-8.93,4-6.9-2.58-10.68-1-10.81-4.18a17.71,17.71,0,0,0-1.6,2.51,2.72,2.72,0,0,1-3,1.76A52.07,52.07,0,0,0,35.4,114.5a139.42,139.42,0,0,0-6.2,24.26c-1.76,12-5,33.9-6,44.16s1.16,24.61,1.16,24.61c9.63,10.33,27.8,20.79,49.44,5.87,0,0,.8-13.43,2.5-20S81.8,183,79,173.6Zm-9,20.72c-1.28,10.21-1.7,15.33-14.47,19.14s-27.23-6.8-27.23-9.34-.41-9.36,8.1-5.53,2.55.41-4.7-6,.43-23.82,2.13-50.21c1.7-26.78,8.52-33.6,8.52-33.6,4.68,10.21,14,14.9,20.41,6.82s1.7,14.45,6.38,31.9S71.33,184.12,70.06,194.32Z"/><path class="cls-27" d="M23.38,134.78"/><path class="cls-27" d="M22.94,135.22"/></g><g id="Слой_3" data-name="Слой 3"><path class="cls-28" d="M42.88,21.13A48.6,48.6,0,0,1,37,13c-2.92-5-8.78-5.67-13.84,1.65s-3,19.61.59,23.44,11-2.54,12.73-1.46c.8-3.06,2.46-6.08,4.62-6.9-4,.45-4.07-.21-4.07-.21a20.69,20.69,0,0,1,6.17-3.92c-4.15-2.41-4.31-2.82-4.31-2.82l4.76.63Z"/><path class="cls-9" d="M42.89,21.18A48.45,48.45,0,0,1,37,13c-2.36-4-6.62-5.25-10.83-1.72,10.89-5.85,12,11.19,9,7.75s-10.79-5.4-12.91,2.91,6.27,14,2.55,14c-4.42-.35-4.25-8.71-4.37-9.47-.31,4.18,1.59,10,3.4,12,3.57,3.83,10.91-2.94,12.67-1.87.8-3.05,2.47-6.08,4.63-6.9-4,.45-4.07-.2-4.07-.2a20.48,20.48,0,0,1,6.17-3.92c-4.15-2.41-4.31-2.83-4.31-2.83l4.76.64Z"/><path class="cls-29" d="M30.32,14s-4.56-2-7.38,4.74c-.74,1.63-.71-2.63,2.09-6S33,14.37,30.32,14Z"/><path class="cls-30" d="M37.66,29.64s0-14.83-8.77-15.15c-6.85-.45-8.67,18.82-1,21,7.14,1.32,9.22-3.71,9.22-3.71s-1.92-.38-1.84-1S37.66,29.64,37.66,29.64Z"/><g class="cls-6"><path class="cls-30" d="M37.66,29.64s0-14.83-8.77-15.15c-4.83-.31-7.15,9.15-5.41,15.53,0-.19-.5-10,5.34-10.37,5.51-.36,9.5,12.66,3.08,15.92a7,7,0,0,0,5.24-3.79s-1.92-.38-1.84-1S37.66,29.64,37.66,29.64Z"/></g><path class="cls-9" d="M88.76,81.53"/><path class="cls-9" d="M87.37,76c3.11-2.3,5.32-5.7,5.71-4.49l-.34,1.61s2.76-2.19,2.77-3.57c0,0,1.21-.89,1.33.54L97,71.52s.44-2.1.77-3.63,2.11-4.46,3.28-7.08c.46-1.05.92-2.13,1.31-3.29a20,20,0,0,0,1.08-8.25,32.15,32.15,0,0,0-3-10.71c-1.24-2.73,1.06-10.87-1.3-14C87,8.29,82.33,10.77,82.33,10.77,75.07,6.13,68.16,7.27,58.5,8.54S44.23,12.69,36.05,18.2s-8.79,12.55-8.79,12.55-6.12,5.42-4.5,17.91C23.91,57.59,20,59.4,20,59.69s2.79,2.15,3.38,2.51A4.41,4.41,0,0,1,22.16,65c-.24.3-1.24,1.12-1.21,1.25.11.54,3.17-.94,3.17-.94A22.93,22.93,0,0,0,30.88,78c6.6,6.31,6.89,6.21,6.89,6.21a29,29,0,0,0,8.46,6.87c5.77,3,17.6,2.27,23.94-1.17a33,33,0,0,0,5.11-3.47c.93-.76,1.78-1.53,2.57-2.3.41-.4.49,1.32.86.93s.81-2.66,1.05-2.93l.72-.82c.29-.35.22.9.48.57s1-2.4,1.22-2.76S84.35,78.23,87.37,76Z"/><path class="cls-31" d="M41.56,41.68A18,18,0,0,1,42,57.23l-1.21,2.64v-.72A14.74,14.74,0,0,0,42.34,55c.18-1.6,1.26-3.3.29-7.32A36.92,36.92,0,0,1,41.56,41.68Z"/><path class="cls-31" d="M64.84,41a42.06,42.06,0,0,0-5.09,11.14,16.37,16.37,0,0,0,0,9.1l.49,0s-1.08-5.57.28-10.1c.43-1.44,4-9.17,4-9.17Z"/><g class="cls-32"><path class="cls-33" d="M97.06,70.16l.12,1.43s.42-2.09.75-3.62,2.52-4.45,3.66-7.08c2.18-5,4.32-11-.69-22.23-1.22-2.74.55-10.87-1.77-14.06-1.75-2.39-3.33-4.37-4.77-6,3.13,6.81,5.7,13.86,4.94,17.31C97.58,43.72,84.17,54.12,74,54c0,0,11.71,2.57,18,.06s9.35,2.93,5.1,7.52-16.57,22-26.79,24.56c-8,2-25,.49-33.29-3.89,2.09,1.92,2.22,1.88,2.22,1.88a29,29,0,0,0,8.3,6.9C53.2,94.05,64.79,93.38,71,90a31.74,31.74,0,0,0,5-3.46c.9-.75,1.74-1.52,2.51-2.29.39-.39.48,1.32.84.93s.79-2.65,1-2.92.48-.55.7-.82.23.9.48.58.93-2.41,1.18-2.77,2.13-.93,5.08-3.15,5.19-5.68,5.58-4.48l-.33,1.62s2.7-2.19,2.71-3.57C95.76,69.62,96.94,68.73,97.06,70.16Z"/></g><path class="cls-29" d="M40.62,60.14s2.3-4.56,4.1-9c1.52-3.77,2.77-7.16,8.18-7,6.78.17,5.7,18.12,5.7,18.12a54.49,54.49,0,0,0-10.29-1.56C46.82,60.63,42.7,59.79,40.62,60.14Z"/><g class="cls-32"><path class="cls-33" d="M41,55.64s-1.09,0-2.67.09A10,10,0,0,0,41,55.64Z"/><path class="cls-33" d="M31.71,74.35l-2.48-3.13c-2.48-3.12-2.93-7.06-3.16-11.29-.17-3.09,7.89-4,12.21-4.2A28.28,28.28,0,0,1,30.75,54c-6.85-2.4-5.5-5.92-5.5-5.92-2.48-9.21-.69-12.44,2.27-17.48-1.34,2.15,0-.1,0-.1s-6,5.39-4.36,17.89c1.15,8.93-2.63,10.73-2.69,11S23.21,61.6,23.79,62a4.52,4.52,0,0,1-1.17,2.81c-.24.3-1.21,1.12-1.19,1.25.11.54,3.1-.93,3.1-.93a23.29,23.29,0,0,0,6.66,12.73C37.67,84.14,38,84,38,84a26.38,26.38,0,0,0,2,2.18c2.38-.87,4.13-1.9,4.36-3.07C45.09,79.15,31.71,74.35,31.71,74.35Z"/></g><path class="cls-34" d="M45,59.87s3.25-13.34,6.09-13.44,1.35,13.75,1.35,13.75-1.52.14-3.46.47A8.29,8.29,0,0,1,45,59.87Z"/><path class="cls-35" d="M43.83,58.64S34.67,64,31.36,64.51s-3.44,7.79,1.09,13.2c1.4,1.68,1.85,2.73,3.11,3.47,2.8,1.67,3.3,1.74,3.48,4,.13,1.64,3.07,2.8,3.39,3.47a3,3,0,0,0,.61.91L44,88.7s-1.35-1,.44,1.34l1.8,2.31s-.17-3.06.45-2.68,1.06,2.58,2.32,4.52l1-1.39s.66,2.56.95,3.27c0,0,3.72-2.23,3.91-3.27,0,0,1.4-.85,2,1.14,0,0,1.15-2.07,2-3.9,0,0,1.76,2.09,1.06,2.27l2.67-2.21.64-1.4s1.51.13,1.34,1.34c-.11.84,2.39-.92,3.36-4.84.32-1.29.1-3,1.47-3C74.83,82.18,81,73,79.27,69s-16.42-5.28-20.4-7.77S45.17,65.24,43.83,58.64Z"/><path class="cls-36" d="M47.52,70.3c4.39.06,12.46-4.67,12.4-6.53,0-1.34-1.28-2.8-5.73-3.54-1.72-.28-3.19.11-6.75,0-1.37,0-2.57-.43-3.61-.35-6.57.5-6.93,2.52-6.93,2.52A2.25,2.25,0,0,0,38,65.13S43.14,70.24,47.52,70.3Z"/><path class="cls-37" d="M47.44,60.22c-1.84,0-3.37-.4-4.63-.26-5.58.63-5.91,2.43-5.91,2.43A2.25,2.25,0,0,0,38,65.13s5.19,5.11,9.57,5.17S60,65.63,59.92,63.77c0-1.19-1-2.48-4.37-3.27C53.67,60.06,51.05,60.24,47.44,60.22Zm9.4,5.7c-1.57,1.09-2.4,1-3.52.56s-2.56.68-3.2,1.94-3.2,1.91-4.36.59-1.27-2.67-3.07-2.37a5.27,5.27,0,0,1-5.22-3.39c-.27-.87.37-1.86,2.53-2.51,1.62-.49,4.11.63,7.73.75s6.29-.74,8.12.07C58.45,62.71,59.07,64.35,56.84,65.92Z"/><path class="cls-38" d="M46.19,62.87A8.07,8.07,0,0,0,41,62.08c-3.42.46-2.66.15-2.63.06a6.43,6.43,0,0,1,4.16-.91,10.19,10.19,0,0,1,3.5,1.18C46.28,62.66,46.26,62.79,46.19,62.87Z"/><path class="cls-39" d="M63.36,37.93s3.61-1.36,18.46-.26c-4.71-2.9-12.49-3.84-19.06-4A31,31,0,0,1,63.36,37.93Z"/><path d="M79,51.64a10.87,10.87,0,0,1-7,3.46,18.4,18.4,0,0,1-8-1.07l-2.89,0,.28-1.26s2-8.74,7.9-10.33c0,0,5.74-2.9,11.82,5.31C81.21,47.72,82.92,50.62,79,51.64Z"/><path class="cls-2" d="M61.86,53.45c1.38-4,2.65-8.21,6.89-9.41C74,42.53,78.31,46,80,49.76a11,11,0,0,1-7.19,4.81,16.73,16.73,0,0,1-8.73-1.07Z"/><path class="cls-40" d="M61.86,53.44c1.75-4.09,1.3-7.12,6.24-9.16S78.64,46,80,49.75A11.12,11.12,0,0,1,73.9,54.3L70,45.2s-5.49,1.21-6.8,6.54a6.46,6.46,0,0,0,2.66,2.37,13.12,13.12,0,0,1-1.82-.62Z"/><path class="cls-41" d="M65.56,49.14a5.67,5.67,0,1,0,11.33.26,5.65,5.65,0,0,0-5.7-5.73A5.23,5.23,0,0,0,65.56,49.14Z"/><path class="cls-42" d="M66.19,49.15a5,5,0,1,0,5.15-5A5.11,5.11,0,0,0,66.19,49.15Z"/><path d="M67.64,49.19a3.59,3.59,0,1,0,3.67-3.59A3.64,3.64,0,0,0,67.64,49.19Z"/><path class="cls-29" d="M71.71,47.12a1.44,1.44,0,1,0,1.46-1.57A1.52,1.52,0,0,0,71.71,47.12Z"/><path class="cls-9" d="M67.74,52.16a1.06,1.06,0,0,0,1,1.08,1.06,1.06,0,0,0,0-2.11A1,1,0,0,0,67.74,52.16Z"/><path d="M41.77,53.77c0-.88.2-1.11.18-1.84-.05-1.35-1.65-8.4-5.32-10.24s-6.87-1-9.7,4.16c0,0-1.94,1.22.94,3.62,0,0,2.22,4,5.19,4.58a13.28,13.28,0,0,0,5.7-.28l2.41.1S41.75,54.52,41.77,53.77Z"/><path class="cls-2" d="M28.31,47.39c.45-2.9,2.49-6.64,7.19-4.85,4.12,1.58,5.89,5.86,6,10.32l-.14.79-2.26-.39s-5.49,1.41-8-.75A8.65,8.65,0,0,1,28.31,47.39Z"/><path class="cls-40" d="M31.11,52.51a8.65,8.65,0,0,1-2.8-5.12c.45-2.9,2.49-6.64,7.19-4.85,4.12,1.58,5.89,5.86,6,10.32l-.14.79-2.26-.39s-.29.08-.77.17L37,47.57l-2.27-4.09A4.15,4.15,0,0,0,30,47.13c-.81,4.39,1.31,6,3.35,6.38l.19.05A5.08,5.08,0,0,1,31.11,52.51Z"/><path d="M41.44,52.87c-.12-3.3-.86-7.36-4.56-9.43-1.68-.95-4.3-1.48-6-.13-1.46,1.12-1.77,2.71-2.38,4.09-.05.11-.29.14-.3,0a5.29,5.29,0,0,1,7-5.36,9,9,0,0,1,4.44,3.85,13.2,13.2,0,0,1,1.89,7s-.09,0-.09,0Z"/><path class="cls-43" d="M29.62,48.7a5.13,5.13,0,1,0,10.16-1.22A5.31,5.31,0,0,0,34,42.66,5.3,5.3,0,0,0,29.62,48.7Z"/><path class="cls-42" d="M30.18,48.63a4.56,4.56,0,1,0,9-1.08,4.56,4.56,0,1,0-9,1.08Z"/><path d="M31.49,48.47a3.24,3.24,0,1,0,2.8-3.81A3.35,3.35,0,0,0,31.49,48.47Z"/><path class="cls-29" d="M34.29,46.15a1.56,1.56,0,1,0,1.35-1.83A1.61,1.61,0,0,0,34.29,46.15Z"/><path class="cls-9" d="M31.78,50.84a1,1,0,0,0,1.14.92,1.05,1.05,0,1,0-1.14-.92Z"/><path class="cls-33" d="M63.22,37.64s3.1-1.42,18-.31c-2.82-1.75-10.76-3.47-18.54-3.63A26,26,0,0,1,63.22,37.64Z"/><path class="cls-39" d="M40.61,36.72s-2.58-1.15-14.36.16C28.31,35.3,34.81,33,41,32.65,40.88,33.17,40.88,33.16,40.61,36.72Z"/><path class="cls-33" d="M40.58,36.16s-2.65-1-14.37.74c2-1.67,8.78-3.69,15-4.25C41.07,33.17,40.58,36.16,40.58,36.16Z"/><path d="M60.85,66.62l3.09-.32c.46-.06,1-.12,1.5-.17L67.11,66c.57-.07,1.17-.1,1.78-.16s1.23-.1,1.85-.15l1.85-.11c.61,0,1.21-.1,1.79-.1l1.67,0c.53,0,1,0,1.51,0,.92,0,1.69,0,2.25,0h.86l-.86-.09c-.54,0-1.31-.14-2.25-.21-.46,0-1,0-1.51,0s-1.1,0-1.69,0-1.19,0-1.8.05-1.23.07-1.86.09c-1.24.13-2.48.22-3.64.37s-2.24.3-3.16.46-1.68.31-2.22.4Z"/><path d="M60.79,67.71l.8,0,2.11.1,3,.13c1.09,0,2.24.09,3.4.16s2.31.13,3.39.21,2.09.15,3,.26c.43,0,.82.11,1.17.15a7.83,7.83,0,0,1,.9.14l.79.14-.76-.23c-.25-.08-.56-.14-.9-.21a9.81,9.81,0,0,0-1.16-.24c-.87-.15-1.88-.31-3-.41s-2.24-.2-3.4-.27l-1.74-.06c-.58,0-1.13,0-1.68,0-1.1,0-2.1,0-3,0s-1.6.06-2.1.08S60.79,67.71,60.79,67.71Z"/><path d="M60.33,69.21l.77.29c.49.17,1.19.44,2,.72s1.84.64,2.9,1c1.26.41,2,.65,3.34,1.06,1.13.36,2.27.71,3.34,1s2.09.59,3,.84,1.58.43,2.08.57l.81.2-.78-.29c-.49-.17-1.19-.44-2-.73s-1.83-.63-2.9-1L69.5,71.85c-1.31-.41-2.07-.65-3.35-1L63.22,70c-.86-.25-1.59-.43-2.1-.57Z"/><path d="M36.79,66.56l-3-.6-1.47-.3c-.52-.09-1.08-.19-1.65-.31s-1.17-.2-1.77-.31L27,64.72l-1.83-.28c-.61-.08-1.2-.2-1.78-.26L21.76,64c-.53-.06-1-.13-1.49-.17-.93-.06-1.7-.13-2.25-.17l-.86-.08h3.12c.47,0,1,.07,1.51.1l1.69.15c.58,0,1.18.13,1.79.22l1.84.26c1.22.23,2.45.44,3.59.69s2.2.51,3.1.75,1.65.46,2.18.6Z"/><path d="M36.75,67.66l-.8,0-2.11-.1-3-.14c-1.09,0-2.23-.11-3.4-.15s-2.31-.08-3.4-.1-2.09,0-3,0c-.42,0-.82,0-1.18,0s-.65,0-.9.06l-.8.07.78-.16c.25,0,.56-.09.91-.13a9.67,9.67,0,0,1,1.18-.13c.88-.07,1.9-.14,3-.14s2.25,0,3.42,0l1.73.09c.58,0,1.13.08,1.68.12,1.09.08,2.09.2,3,.29s1.59.2,2.09.26S36.75,67.66,36.75,67.66Z"/><path class="cls-10" d="M88.93,17.61c-6.69-4.87-13.52-4.5-23-4.27s-14.25,2.4-22.69,6.6q-.84.42-1.62.87a12.55,12.55,0,0,0-2.28,8.51s10.36-7.52,20.08-7.44a2,2,0,0,1,.47.1c-.72.72-2.21,2.27-4.3,4.63,0,0,4.27-2.26,8.3-1.88l.23,0c4.1.48,6.27,1.42,8.63.54,0,0,3.45,1.08,5.35.38,3.33.29,6.09-.08,8.24-1.7a10.84,10.84,0,0,0,4.07-6.29A2.72,2.72,0,0,0,88.93,17.61Z"/><path d="M37.08,69.19l-.8.22c-.5.13-1.23.33-2.09.54s-1.89.46-3,.72l-3.42.75c-1.16.25-2.32.5-3.42.72s-2.13.4-3,.57l-2.13.38-.82.12.8-.21,2.1-.55c.87-.2,1.88-.46,3-.71L27.7,71l3.42-.71c1.1-.22,2.13-.4,3-.57s1.61-.28,2.13-.37Z"/><path class="cls-44" d="M82.35,21.55c-2.15,1.38-4.89,1.6-8.21,1.21-1.88.55-5.32-.57-5.32-.57-2.35.71-4.51-.24-8.58-.84l-.23,0a18.16,18.16,0,0,0-8.26,1.37c2.08-2.05,3.57-3.39,4.28-4a3.57,3.57,0,0,0-.47-.11c-9.67-.46-20,5.92-20,5.92a10.21,10.21,0,0,1,7.18-10.87c-1.21-1-5.25-2.39-5.25-2.39,3-2.46,7.39-1.31,7.39-1.31.14-2-4.36-4.23-4.36-4.23,2.17-3.29,9.4-.79,9.4-.79A4.4,4.4,0,0,0,47.61.09a25.05,25.05,0,0,1,15.26,4c.81-1.7-1.61-3.76-1.61-3.76,13.57,1.07,16,6,16,6,1-.06.11-2.74.11-2.74,3.41,2.45,3.48,5,3.48,5a5.91,5.91,0,0,0,1.43-3.13c3.22,3.7,4.56,7.76,4.42,9A9.48,9.48,0,0,1,82.35,21.55Z"/><path class="cls-27" d="M29,118.71"/><path class="cls-27" d="M28.7,123.75"/><path class="cls-45" d="M78.55,23.2c-2,.85-5.93,0-5.93,0-2.51,1.07-5,.3-9.58.14h-.25a13.73,13.73,0,0,0-3.16.35c.26-.3.48-.55.65-.73a2.49,2.49,0,0,0-.46-.05,23.6,23.6,0,0,0-4.08.66c1.06-1.26,1.86-2.15,2.33-2.66a3.19,3.19,0,0,0-.53-.06c-6.08.39-12.1,3.23-16.19,5.62A9.91,9.91,0,0,1,47,19.6c-1.27-.85-5.27-1.72-5.27-1.72,2.62-2.68,6.92-2,6.92-2-.07-1.49-2.8-2.82-4-3.34a1.85,1.85,0,0,0-.28-.71C46.51,9,53,10.48,53,10.48a4.25,4.25,0,0,0-2.75-4.34,24.1,24.1,0,0,1,15,2.16c.59-1.71-1.94-3.42-1.94-3.42,13.08-.44,15.94,4,15.94,4,1-.17-.19-2.63-.19-2.63,3.53,2,3.87,4.41,3.87,4.41a5.71,5.71,0,0,0,1-3.14c3.47,3.19,5.19,6.92,5.19,8.1a9.53,9.53,0,0,1-1.29,4.81c-.14.13-.25.26-.4.38C85.26,22.63,82.27,23.22,78.55,23.2Z"/><path class="cls-46" d="M53,6.32"/><path class="cls-47" d="M64.79,7.74"/><path class="cls-48" d="M86.85,15.39c.09,0,.16.51.11,1.34a4.68,4.68,0,0,1-1.33,3.16,6.48,6.48,0,0,1-1.85,1.16,9.08,9.08,0,0,1-2.18.68,7.58,7.58,0,0,1-2.33,0c-.73-.12-1.38-.29-2-.44a11.12,11.12,0,0,0-3.14-.48,13.1,13.1,0,0,0-2.6.28c-1.49.3-2.45.6-2.59.35s.6-.94,2.15-1.6a9.77,9.77,0,0,1,2.9-.71,10.21,10.21,0,0,1,3.71.43,10.15,10.15,0,0,0,3.63.61,7.9,7.9,0,0,0,1.88-.4A6.06,6.06,0,0,0,84.89,19a4.45,4.45,0,0,0,1.5-2.41C86.63,15.87,86.77,15.38,86.85,15.39Z"/><path class="cls-49" d="M44.21,84.08s.57.79,3.79-.08,6.21-.56,7.86,1,7.23.93,7.23.93-8.16,4.58-6.6,6.14c0,0-3.81.52-3.48-2.57l-2.22,4s-2.87-1.12-2.47-3.86c0,0-2.51.89-3.12,2.56a7.18,7.18,0,0,1-.76-4.35s-1.49-1.55-3-1c0,0,0-1.53.79-1.8A1.24,1.24,0,0,0,41,84.33,8.41,8.41,0,0,1,44.21,84.08Z"/><path class="cls-50" d="M55.86,85c-1.65-1.56-4.64-1.86-7.86-1s-3.79.08-3.79.08l-.13,0,.07.12c-.67.21-.64,1.44-.64,1.44,1.25-.42,2.45.83,2.45.83a5.76,5.76,0,0,0,.6,3.48c.5-1.34,2.51-2.06,2.51-2.06-.33,2.2,2,3.11,2,3.11l1.79-3.22c-.26,2.47,2.79,2.06,2.79,2.06-.81-.81,1.65-2.64,3.49-3.82A5.75,5.75,0,0,1,55.86,85Z"/><path class="cls-51" d="M49,69.32s1.73-1.85,3.73-1.71S56,66.8,54,65.89s-3.28-.46-3.91.9S49,69.32,49,69.32Z"/><path class="cls-51" d="M44.72,68.67a4.64,4.64,0,0,0-2.94-1.61c-1.63,0-2.63-.86-.92-1.45s2.67-.14,3.12,1S44.72,68.67,44.72,68.67Z"/><path class="cls-52" d="M51.08,80.32c-3.91.19-7.06-.29-9.37-1.44-5.18-2.59-7.24-3.77-8.06-4.29l1.14.23a24.45,24.45,0,0,0,4.48.39,8.79,8.79,0,0,0,4.5-1.53,15.39,15.39,0,0,1,1.82-1,6.41,6.41,0,0,1,2.32-.54,4.68,4.68,0,0,1,.53,0C50,72.21,51,73,53,74.65a12.31,12.31,0,0,0,6.54,3.25,14.11,14.11,0,0,0,3.11.13l1.23-.1A58.31,58.31,0,0,1,51.08,80.32Z"/><path class="cls-2" d="M41.51,74.94A1.28,1.28,0,0,0,42,76.19c.68.61-.14-1.33,1.91-1.69a27.43,27.43,0,0,1,3.14-.56,11.91,11.91,0,0,1,3.66.24,6.43,6.43,0,0,1,2,1.08c.71.46,1.26.6,1.5,1.08a2.25,2.25,0,0,1,.3,1,1.18,1.18,0,0,0,.8-.55c.4-.52-.58-.55-1.74-1.57s-1.61-1.48-2-1.85a8.56,8.56,0,0,0-3.3-1.21,7,7,0,0,0-3.08.76,12,12,0,0,1-1.88,1.25A7,7,0,0,1,41.51,74.94Z"/><path class="cls-53" d="M47.92,72.36a4.5,4.5,0,0,1,.51,0c1.53.07,2.42.76,4.48,2.47a12.43,12.43,0,0,0,6.63,3.28,12.66,12.66,0,0,0,2.45.16,54.85,54.85,0,0,1-10.92,1.85c-3.89.2-7-.28-9.28-1.42-3.74-1.86-5.85-3-7-3.67h.08a23.48,23.48,0,0,0,4.44.38,8.85,8.85,0,0,0,4.58-1.55,14.84,14.84,0,0,1,1.8-1,6.16,6.16,0,0,1,2.26-.52m0-.42a6.57,6.57,0,0,0-2.38.56,15.21,15.21,0,0,0-1.85,1A8.44,8.44,0,0,1,39.26,75a23.14,23.14,0,0,1-4.44-.39L33,74.25h0s-.84.07,8.66,4.82c2.61,1.31,6,1.63,9.45,1.45a61.31,61.31,0,0,0,15.11-3.1,32.36,32.36,0,0,1-3.54.4,14,14,0,0,1-3.07-.13,12.1,12.1,0,0,1-6.46-3.2C51,72.75,50.06,72,48.44,71.94Z"/><path class="cls-54" d="M43.64,79.41c-.08-.25,2.67-3.74,6.2-3.6s6.67,3.66,6.67,3.66a36.17,36.17,0,0,1-7.84.72C45.8,79.93,43.72,79.66,43.64,79.41Z"/><path class="cls-53" d="M65.69,76.61s.6-.15.52,1l-.08,1.12h0s.81-1,.54-1.76A.66.66,0,0,0,65.69,76.61Z"/><path class="cls-53" d="M33.81,72.88s-.53-.36-1,.58-.34,1.2-.34,1.2c0-.16-.34-1.66.32-1.83A1.44,1.44,0,0,1,33.81,72.88Z"/><path class="cls-9" d="M83.18,26.87a51.16,51.16,0,0,0,6.6-9.39c3.61-6.31,8.11-7.41,13.44-2.14s7.66,14.17,5.07,19.19S100.11,39.47,96.41,38a11.81,11.81,0,0,0-6.31-.89S87.38,33.63,87,33.47a17.91,17.91,0,0,1,2.93,0,8.49,8.49,0,0,0-5.54-3.82A10.45,10.45,0,0,1,86,26.19,5.16,5.16,0,0,0,83.18,26.87Z"/><path class="cls-28" d="M105.2,41.56c2.54-2.06,6.26-11.81,2.67-18.84.46,7.2-3.85,15.89-5.92,14s5.21-4.54,1.25-13.59S91.31,19,93,15.8s4.64-3.64,10.49.42l.18.12c-.39-.41-.79-.81-1.21-1.18-5.61-4.94-10-3.57-13.3,2.94a51.67,51.67,0,0,1-6.08,9.77A5.11,5.11,0,0,1,85.86,27a10.41,10.41,0,0,0-1.39,3.56,8.45,8.45,0,0,1,5.74,3.49,17.9,17.9,0,0,0-2.92.16c.34.14,3.25,3.46,3.25,3.46s-.51,5,3.26,6.24S101,45,105.2,41.56Z"/><path class="cls-29" d="M104.2,20s3.12,6.06,1.36,10.4c-2.64,6.52,2.45,3.66,3.14-2.24C109.28,23.3,103,15.36,104.2,20Z"/><path class="cls-30" d="M87.62,32s2.45-17.64,11.27-13.95c7.2,3,7.8,19.78-2,23.55-2.21.85-3.18-4.46-6.73-4.52L88,35.36,91.36,35A11.2,11.2,0,0,0,87.62,32Z"/><path class="cls-55" d="M95,40.86h0s2.78-1.37,2.77-1.39c-8.82-1.06-5.39-21.24,2.13-16.28,5.52,3.65,2.94,8.92,1.18,11.46a9.27,9.27,0,0,0,3-3c.83-5.36-.86-11.15-4.48-13.24-.23-.11-.45-.24-.69-.34-8.82-3.69-11.27,14-11.27,14a11.2,11.2,0,0,1,3.74,3L88,35.36l2.11,1.72C91.73,36.79,94.21,39.34,95,40.86Z"/></g></g></svg>