<svg xmlns="http://www.w3.org/2000/svg" viewBox="0 0 145.58 133"><defs><style>.cls-1{fill:#b04687;}.cls-2{fill:#229bbc;}.cls-3{fill:#f2a951;}.cls-4{fill:#fff;}.cls-5{opacity:0.1;}.cls-6{fill:#139ab0;}.cls-7{fill:#e8f5f8;}.cls-8{fill:#d7d9d8;}.cls-9{fill:#13181b;}.cls-10{fill:none;stroke:#e4eaea;stroke-linecap:round;stroke-miterlimit:10;stroke-width:3px;}.cls-11{fill:#eb5032;}.cls-12{fill:#1d1d1b;}</style></defs><title>Преимущество 2</title><g id="Слой_3" data-name="Слой 3"><path class="cls-1" d="M134.86,75.31a6,6,0,0,0,4.47-1,9.49,9.49,0,0,0,2-1.73,19.47,19.47,0,0,0,1.64-2.16A26.18,26.18,0,0,0,145,66.09c.41-1.2.59-2,.59-2s-.75.34-1.83.92c-.55.29-1.16.65-1.85,1.06s-1.41.86-2.12,1.36A18.53,18.53,0,0,0,136,70.89l-.13.19c.5-2.32.91-4.67,1.22-7a5.81,5.81,0,0,0,3.51-1.46,10,10,0,0,0,.86-.86,9,9,0,0,0,.74-1,15.43,15.43,0,0,0,1.22-2.18c.17-.38.33-.76.48-1.13s.26-.72.37-1.07c.23-.7.4-1.35.54-1.92a15.06,15.06,0,0,0,.36-1.89s-.67.36-1.66,1A29.4,29.4,0,0,0,140,56.1a17.46,17.46,0,0,0-1.74,1.7,9.46,9.46,0,0,0-.64.78q.18-3,.08-6a5.49,5.49,0,0,0,2.47-1.49,9.08,9.08,0,0,0,1.37-1.84,13.5,13.5,0,0,0,.93-2.17,13.65,13.65,0,0,0,.6-2.2c.13-.72.22-1.39.28-2s.09-1.07.11-1.4a4.64,4.64,0,0,0,0-.54l-.4.3-1.07.81a32.27,32.27,0,0,0-3.07,2.78c-.26.28-.51.57-.76.87s-.51.6-.73.91l-.19.26a52.87,52.87,0,0,0-1.07-5.67,4.79,4.79,0,0,0,2.17-1.69,9,9,0,0,0,1.52-4.2c0-.39.1-.77.12-1.15s0-.75,0-1.12c0-.72-.08-1.4-.14-2a9.26,9.26,0,0,0-.23-1.39c-.08-.34-.13-.53-.13-.53s-.47.49-1.12,1.28a30.22,30.22,0,0,0-2.35,3.1,17.59,17.59,0,0,0-1,1.9,8.11,8.11,0,0,0-.34.74,53.13,53.13,0,0,0-2.57-6,4,4,0,0,0,2.06-2.13,9.16,9.16,0,0,0,.38-4.26,20.75,20.75,0,0,0-1.09-4c-.45-1.05-.82-1.74-.82-1.74s-.33.52-.77,1.37c-.21.42-.45.92-.69,1.47s-.5,1.17-.72,1.8a13.73,13.73,0,0,0-.55,2,8.72,8.72,0,0,0-.13,1l0,.36A51.39,51.39,0,0,0,125.14,20a3.28,3.28,0,0,0,1.12-.91,3.53,3.53,0,0,0,.64-1.61,6.43,6.43,0,0,0,0-1.95,8.92,8.92,0,0,0-.55-2.07,22.76,22.76,0,0,0-1.8-3.57c-.61-.91-1.07-1.5-1.07-1.5A13.37,13.37,0,0,0,123,9.73a21.28,21.28,0,0,0-.72,3.24,9.69,9.69,0,0,0,.17,3.83c0,.08,0,.17.08.26-1.94-2-4-4-6.37-6.12,2.29-1.29,1.67-4,.38-6.46a21.32,21.32,0,0,0-2.13-3.14C113.71.52,113.22,0,113.22,0a16.67,16.67,0,0,0-.62,4.47,9.84,9.84,0,0,0,.7,3.59,5.64,5.64,0,0,0,.36.69h0a35.91,35.91,0,0,0-5.79-3.8C122.5,17.2,133.67,32,135.33,49c.61,6.17-.14,12.33-1.1,18.45-1.08,6.91-2.82,13.8-6.4,20.2a64.11,64.11,0,0,1-23,24s-15.07,7.56-31.22,7.73H71.92c-16-.24-31.22-7.73-31.22-7.73a64.33,64.33,0,0,1-23-24c-3.58-6.4-5.32-13.29-6.4-20.2-1-6.12-1.7-12.28-1.1-18.45C11.91,32,23.08,17.19,37.71,4.94a36.38,36.38,0,0,0-5.79,3.8h0a6.38,6.38,0,0,0,.35-.69A9.44,9.44,0,0,0,33,4.47,16.67,16.67,0,0,0,32.35,0s-.49.52-1.14,1.34a21.32,21.32,0,0,0-2.14,3.14c-1.29,2.46-1.9,5.17.39,6.46C27.14,13,25,15,23.09,17.05l.07-.25A9.51,9.51,0,0,0,23.33,13a22.7,22.7,0,0,0-.71-3.24c-.26-.84-.49-1.37-.49-1.37s-.46.59-1.06,1.5a21.16,21.16,0,0,0-1.8,3.57,8.47,8.47,0,0,0-.56,2.07,7.14,7.14,0,0,0,0,1.95,3.54,3.54,0,0,0,.65,1.61,3.24,3.24,0,0,0,1.11.91A52.44,52.44,0,0,0,15.92,26c0-.13,0-.25,0-.36a8.75,8.75,0,0,0-.14-1,13.69,13.69,0,0,0-.54-2c-.22-.63-.5-1.25-.73-1.8s-.47-1-.69-1.47A15.71,15.71,0,0,0,13,18.06s-.36.69-.81,1.74a20.52,20.52,0,0,0-1.1,4,9.15,9.15,0,0,0,.39,4.26,4,4,0,0,0,2.05,2.13,53.13,53.13,0,0,0-2.56,6c-.11-.25-.22-.49-.34-.74a16.11,16.11,0,0,0-1.06-1.9,31.81,31.81,0,0,0-2.34-3.1c-.65-.79-1.13-1.28-1.13-1.28s0,.19-.13.53a10.76,10.76,0,0,0-.23,1.39c-.06.58-.11,1.26-.13,2,0,.37,0,.74,0,1.12a11.57,11.57,0,0,0,.13,1.15,9,9,0,0,0,1.52,4.2,4.74,4.74,0,0,0,2.17,1.69,50.55,50.55,0,0,0-1.08,5.67l-.18-.26c-.23-.31-.48-.61-.73-.91s-.51-.59-.77-.87a30,30,0,0,0-3.07-2.78l-1.07-.81-.4-.3s0,.2,0,.54.05.82.12,1.39.14,1.25.27,2a14.76,14.76,0,0,0,.6,2.2,14.5,14.5,0,0,0,.94,2.17,8.73,8.73,0,0,0,1.37,1.84,5.46,5.46,0,0,0,2.46,1.49q-.09,3,.08,6c-.2-.26-.41-.52-.64-.77a16.44,16.44,0,0,0-1.74-1.7,28.62,28.62,0,0,0-3.52-2.55c-1-.62-1.65-1-1.65-1a15.06,15.06,0,0,0,.36,1.89c.13.57.31,1.22.53,1.92.12.35.24.71.37,1.07s.32.75.49,1.13a16,16,0,0,0,1.21,2.18,10.47,10.47,0,0,0,.74,1,9.92,9.92,0,0,0,.87.85A5.76,5.76,0,0,0,8.5,64.06c.31,2.35.72,4.7,1.21,7a2.14,2.14,0,0,0-.13-.19,18.27,18.27,0,0,0-3.79-3.47c-.71-.5-1.43-1-2.12-1.36S2.37,65.29,1.82,65C.74,64.41,0,64.08,0,64.08s.18.81.58,2a26.31,26.31,0,0,0,2.06,4.28,19.17,19.17,0,0,0,1.64,2.16,9.44,9.44,0,0,0,2,1.73,6.05,6.05,0,0,0,4.47,1c.07.3.15.59.23.88a54.72,54.72,0,0,0,2,6.16c-.15-.16-.3-.31-.46-.46-.33-.3-.68-.58-1.05-.86s-.73-.55-1.12-.81A23.38,23.38,0,0,0,7.9,78.8c-.82-.44-1.68-.82-2.43-1.17S4,77,3.39,76.74c-1.22-.49-2-.76-2-.76s.35.83,1,2A20.41,20.41,0,0,0,3.6,80a25.61,25.61,0,0,0,1.7,2.21,19.67,19.67,0,0,0,2.16,2,11.46,11.46,0,0,0,1.16.85l.6.37c.21.11.42.22.63.31a6.49,6.49,0,0,0,4.84.44,49.86,49.86,0,0,0,3.94,6.61q-.36-.27-.75-.51c-.41-.25-.85-.49-1.29-.72s-.87-.45-1.32-.66c-.91-.41-1.87-.77-2.82-1.09L11,89.41,9.7,89c-.85-.25-1.65-.46-2.33-.63C6,88,5.1,87.87,5.1,87.87s.56.82,1.5,2a19.83,19.83,0,0,0,1.78,1.91c.7.67,1.47,1.37,2.28,2a23.27,23.27,0,0,0,2.73,1.74,14,14,0,0,0,1.4.69,8.86,8.86,0,0,0,1.42.5,6.64,6.64,0,0,0,5.09-.37c1.47,1.83,3,3.68,4.66,5.48l-.2-.08c-.24-.1-.48-.18-.73-.27l-.73-.26c-.49-.17-1-.31-1.51-.45-1-.27-2.1-.48-3.15-.65s-2.05-.33-3-.45-1.8-.21-2.54-.28c-1.48-.13-2.44-.16-2.44-.16s.78.75,2.05,1.78l1,.82c.38.28.81.55,1.25.84.89.57,1.85,1.15,2.85,1.68.26.13.5.27.77.39l.8.34c.54.22,1.08.43,1.62.6a16.28,16.28,0,0,0,3.15.75,7.11,7.11,0,0,0,4.46-.77q2,1.95,4.21,3.74c-.44-.07-.89-.13-1.35-.17-1.1-.11-2.27-.13-3.33-.18-2.15-.06-4.22,0-5.74.14-.77,0-1.4.11-1.84.15l-.67.06.17.12c.11.08.29.17.5.3.44.26,1.07.62,1.85,1s1.68.88,2.68,1.34,2.15.85,3.29,1.22c.57.19,1.16.36,1.73.51l.87.22.88.16a18.21,18.21,0,0,0,3.37.26,7.45,7.45,0,0,0,3.68-.93c.55.33,1.1.64,1.66.93a.43.43,0,0,0,.3.07,71.63,71.63,0,0,0,24.72,7.68c-6.19,1.15-13.47,2.42-21.2,3.59L37.11,133s18.77-6.25,36.28-10.24c17.51,4,36.27,10.24,36.27,10.24l-8.34-7.1c-7.92-1.2-15.37-2.51-21.67-3.68a62.34,62.34,0,0,0,24.06-7.59.46.46,0,0,0,.23-.07c.56-.29,1.12-.6,1.67-.93a7.41,7.41,0,0,0,3.67.93,18.21,18.21,0,0,0,3.37-.26l.88-.16.87-.22c.58-.15,1.16-.32,1.73-.51,1.14-.37,2.27-.79,3.3-1.21s1.91-.93,2.68-1.35,1.4-.77,1.84-1l.51-.3.16-.12-.67-.06c-.44,0-1.07-.1-1.83-.15-1.53-.11-3.59-.2-5.75-.14-1.06,0-2.22.07-3.33.18-.45,0-.9.1-1.35.17q2.19-1.79,4.22-3.74a7.07,7.07,0,0,0,4.45.77,16.11,16.11,0,0,0,3.15-.75c.54-.17,1.08-.38,1.62-.6l.81-.34c.26-.12.51-.26.76-.39,1-.53,2-1.11,2.86-1.68.44-.29.87-.56,1.25-.84s.72-.56,1-.82c1.27-1,2-1.78,2-1.78s-1,0-2.43.17c-.75.06-1.61.15-2.54.27s-1.91.29-3,.45-2.11.38-3.15.65q-.77.21-1.5.45l-.73.26c-.25.09-.5.17-.74.27l-.2.08c1.64-1.8,3.2-3.65,4.66-5.48a6.66,6.66,0,0,0,5.1.37,9.22,9.22,0,0,0,1.42-.5,15.1,15.1,0,0,0,1.4-.69,22.36,22.36,0,0,0,2.72-1.74c.82-.66,1.59-1.36,2.28-2A18.63,18.63,0,0,0,139,89.85c.95-1.16,1.5-2,1.5-2s-.9.17-2.26.51c-.69.17-1.49.38-2.34.63-.42.13-.86.27-1.33.4l-1.41.46A30.09,30.09,0,0,0,130.3,91c-.45.21-.9.43-1.32.66s-.87.47-1.28.72a8.21,8.21,0,0,0-.75.51,49.78,49.78,0,0,0,3.93-6.61,6.48,6.48,0,0,0,4.84-.44c.21-.09.43-.2.64-.31l.59-.37a10.44,10.44,0,0,0,1.16-.85,20.71,20.71,0,0,0,2.17-2A25.61,25.61,0,0,0,142,80a20.17,20.17,0,0,0,1.27-2c.64-1.2,1-2,1-2s-.83.27-2.05.76c-.62.24-1.33.54-2.09.89s-1.61.74-2.43,1.17a24.47,24.47,0,0,0-2.43,1.42c-.39.26-.74.53-1.11.81s-.73.56-1.06.86c-.15.15-.31.3-.46.46a54.78,54.78,0,0,0,2-6.16C134.71,75.9,134.79,75.61,134.86,75.31Z"/><path class="cls-2" d="M72.79,1.28a57.16,57.16,0,1,0,57.15,57.15A57.16,57.16,0,0,0,72.79,1.28Zm0,104a46.84,46.84,0,1,1,46.83-46.84A46.84,46.84,0,0,1,72.79,105.27Z"/><polygon class="cls-3" points="72.79 3.45 71.66 5.74 69.13 6.1 70.96 7.89 70.53 10.4 72.79 9.21 75.05 10.4 74.61 7.89 76.45 6.1 73.92 5.74 72.79 3.45"/><polygon class="cls-3" points="111.67 19.55 109.25 20.37 107.2 18.84 107.24 21.4 105.15 22.87 107.59 23.63 108.35 26.07 109.82 23.98 112.37 24.02 110.85 21.97 111.67 19.55"/><polygon class="cls-3" points="127.77 58.43 125.48 57.3 125.12 54.78 123.33 56.61 120.82 56.17 122 58.43 120.82 60.69 123.33 60.26 125.11 62.09 125.48 59.56 127.77 58.43"/><polygon class="cls-3" points="111.67 97.31 110.85 94.9 112.37 92.85 109.82 92.88 108.35 90.8 107.59 93.24 105.15 93.99 107.24 95.47 107.2 98.02 109.25 96.49 111.67 97.31"/><polygon class="cls-3" points="72.79 113.42 73.92 111.13 76.44 110.76 74.61 108.98 75.05 106.46 72.78 107.65 70.53 106.46 70.96 108.98 69.13 110.76 71.66 111.13 72.79 113.42"/><polygon class="cls-3" points="33.91 97.31 36.32 96.49 38.37 98.02 38.34 95.47 40.42 93.99 37.98 93.23 37.23 90.8 35.75 92.88 33.2 92.85 34.73 94.9 33.91 97.31"/><polygon class="cls-3" points="17.8 58.43 20.09 59.56 20.45 62.09 22.24 60.26 24.76 60.69 23.57 58.43 24.76 56.17 22.24 56.6 20.46 54.77 20.09 57.3 17.8 58.43"/><polygon class="cls-3" points="33.91 19.55 34.73 21.97 33.2 24.01 35.75 23.98 37.23 26.07 37.99 23.63 40.42 22.87 38.34 21.4 38.37 18.84 36.32 20.37 33.91 19.55"/></g><g id="Слой_5" data-name="Слой 5"><circle class="cls-4" cx="86.05" cy="60.89" r="23.71"/><path class="cls-1" d="M86.05,86.6a25.71,25.71,0,1,1,25.71-25.71A25.73,25.73,0,0,1,86.05,86.6Zm0-47.42a21.71,21.71,0,1,0,21.71,21.71A21.74,21.74,0,0,0,86.05,39.18Z"/><polyline class="cls-4" points="86.05 47.9 86.05 60.89 93 66.11"/><path class="cls-1" d="M93,66.61a.47.47,0,0,1-.3-.1l-7.15-5.37V47.9a.5.5,0,0,1,.5-.5.5.5,0,0,1,.5.5V60.64l6.75,5.07a.5.5,0,0,1-.3.9Z"/><circle class="cls-2" cx="85.98" cy="43.04" r="1.3"/><circle class="cls-2" cx="85.98" cy="79.32" r="1.3"/><circle class="cls-2" cx="105.07" cy="60.92" r="1.3"/><circle class="cls-2" cx="101.7" cy="52.89" r="0.86"/><circle class="cls-2" cx="94.7" cy="46.24" r="0.86"/><circle class="cls-2" cx="94.87" cy="76.39" r="0.86"/><circle class="cls-2" cx="101.53" cy="69.39" r="0.86"/><polygon class="cls-4" points="98.26 42.96 98.91 40.84 101.12 40.98 99 40.34 99.14 38.13 98.5 40.24 96.29 40.1 98.41 40.75 98.26 42.96"/></g><g id="Слой_4" data-name="Слой 4"><path class="cls-4" d="M57,76l-.31,0c-.57.1-2.07.47-2.34,1.64-.33,1.44-.11,8.1-.11,8.66s.11,1.16-1.22,1.83a6.28,6.28,0,0,1-2.34-.07,10.33,10.33,0,0,1-6.75-4,15.32,15.32,0,0,1-3-12.06c.24-1.58.36-2.88.43-3.93a9.21,9.21,0,0,0-1.63-5.95c-4-5.75-5.13-9.23-5.13-14.64,0-9.38,5.91-13.86,13.21-13.86a12,12,0,0,1,7.9,3.26,2.41,2.41,0,0,0,1,.54h0a2.48,2.48,0,0,0,1.27,0h0a2.45,2.45,0,0,0,1-.54,12,12,0,0,1,7.89-3.26C74.08,33.62,80,38.1,80,47.48c0,5.41-1.09,8.89-5.13,14.64a9.27,9.27,0,0,0-1.63,5.95c.08,1.05.2,2.35.43,3.93,0,0,1.84,12.21,4.66,14S71,89.83,67.5,88.19s-5.83-7.83-6.33-10.32S58.41,76,57.9,76Z"/><g class="cls-5"><path class="cls-6" d="M47.07,84.27c-2.07-1.85-6.18-8-4.33-14.21A7.73,7.73,0,0,1,50,64.21c-.63,0-3.3-.37-9.51-8.58C35.49,49,36.77,41.26,38,37.18c-2.09,2.28-3.38,5.56-3.38,9.92,0,5.61,1.17,9.13,5.58,15.27a6.79,6.79,0,0,1,1.25,4.32c-.07,1.18-.18,2.81-.5,4.93a15.36,15.36,0,0,0,3,12.06,10.33,10.33,0,0,0,6.75,4,6.28,6.28,0,0,0,2.34.07c1.34-.67,1.22-1.28,1.22-1.83,0-.09,0-.32,0-.63C52.4,86.53,49.18,86.16,47.07,84.27Z"/></g><g class="cls-5"><path class="cls-6" d="M73.22,67.39a6.76,6.76,0,0,1,1.25-4.31c4.4-6.14,5.58-9.67,5.58-15.28C80.05,38.42,74.13,34,66.84,34a12.2,12.2,0,0,0-8.32,3.64l-1.18.33-1.18-.33A12.2,12.2,0,0,0,47.84,34c-7.29,0-13.21,4.47-13.21,13.85,0,5.61,1.17,9.14,5.58,15.28a6.76,6.76,0,0,1,1.25,4.31c-.07,1.19-.18,2.81-.5,4.93a15.37,15.37,0,0,0,3,12.07,10.37,10.37,0,0,0,6.75,4,6.25,6.25,0,0,0,2.34.06c1.34-.66,1.22-1.27,1.22-1.83s-.22-7.21.12-8.66S57,76.32,57,76.32h.78a4.37,4.37,0,0,1,1.86.67,3.54,3.54,0,0,0-2.26-1.12h-.76s-2.16.22-2.48,1.62S54,85.35,54,85.89s.11,1.13-1.18,1.77a5.94,5.94,0,0,1-2.28-.06A10,10,0,0,1,44,83.7,14.85,14.85,0,0,1,41.06,72c.3-2,.41-3.63.48-4.78A6.6,6.6,0,0,0,40.33,63c-4.28-6-5.41-9.38-5.41-14.82,0-9.1,5.73-13.44,12.81-13.44A11.81,11.81,0,0,1,55.8,38.3l1.15.31,1.14-.31a11.81,11.81,0,0,1,8.07-3.54C73.24,34.76,79,39.1,79,48.2c0,5.44-1.14,8.87-5.41,14.82a6.54,6.54,0,0,0-1.21,4.19"/></g><path class="cls-7" d="M71.68,52.65a15.37,15.37,0,0,1-2.13,4.57c-1.3,1.91-2.07,3-2.52,3.65-.09.12-.51.57-.51.57l7-1.68a17.76,17.76,0,0,0,3.64-7.91A18.07,18.07,0,0,1,71.68,52.65Z"/><path class="cls-7" d="M72.64,77.91A6.11,6.11,0,0,0,73,79.08a23.23,23.23,0,0,0,2.11,4s.42,1.94-1.67.82a12.07,12.07,0,0,1-4.93-6.23l.66.24A6.17,6.17,0,0,0,72.64,77.91Z"/><path class="cls-7" d="M67.77,76.15a9.14,9.14,0,0,1-1.24-5.22,7.77,7.77,0,0,1,.3-1.23l4.33-.46a15.19,15.19,0,0,0,1.4,6.69l-.35.17A6.18,6.18,0,0,1,67.77,76.15Z"/><path class="cls-2" d="M71.25,89.27a9.91,9.91,0,0,1-4-.63c-3.7-1.75-6.08-8.06-6.61-10.67-.32-1.6-1.43-1.62-2.46-1.52l-.32,0-.57,0H57l-.25,0c-.4.07-1.73.36-1.93,1.25a64.86,64.86,0,0,0-.11,7.86c0,.35,0,.6,0,.69v.11c0,.71-.09,1.46-1.49,2.16a5.68,5.68,0,0,1-2.63,0,10.82,10.82,0,0,1-7.09-4.22,15.79,15.79,0,0,1-3.1-12.44c.19-1.3.33-2.57.42-3.89a8.67,8.67,0,0,0-1.54-5.62c-3.95-5.63-5.22-9.26-5.22-14.93,0-10.58,7.08-14.35,13.71-14.35A12.38,12.38,0,0,1,56,36.51a1.9,1.9,0,0,0,1.77.42,1.91,1.91,0,0,0,.76-.42,12.4,12.4,0,0,1,8.23-3.38c6.63,0,13.71,3.77,13.71,14.35,0,5.67-1.26,9.3-5.22,14.93A8.8,8.8,0,0,0,73.73,68c.09,1.31.23,2.58.42,3.88.51,3.34,2.28,12.29,4.44,13.67,1,.64.71,1.36.59,1.57C78.49,88.41,74.58,89.27,71.25,89.27ZM58.78,75.42a2.67,2.67,0,0,1,2.88,2.35c.53,2.65,2.93,8.49,6,10,2.28,1.08,7.86.42,9.93-.59.59-.28.67-.47.68-.49a1.06,1.06,0,0,0-.26-.23c-2.94-1.87-4.7-13.09-4.89-14.36s-.34-2.62-.44-4a9.76,9.76,0,0,1,1.72-6.27c3.87-5.51,5-8.87,5-14.36,0-9.85-6.56-13.35-12.71-13.35a11.44,11.44,0,0,0-7.56,3.12,3,3,0,0,1-1.17.65,2.84,2.84,0,0,1-1.53,0,3,3,0,0,1-1.16-.65,11.47,11.47,0,0,0-7.57-3.12c-6.14,0-12.71,3.5-12.71,13.35,0,5.5,1.18,8.85,5,14.36a9.7,9.7,0,0,1,1.72,6.27c-.09,1.34-.24,2.63-.43,4a14.8,14.8,0,0,0,2.9,11.68,9.81,9.81,0,0,0,6.42,3.84,7.83,7.83,0,0,0,2.06.11c1-.48,1-.81.94-1.26v-.12c0-.09,0-.33,0-.67a57.8,57.8,0,0,1,.14-8.1c.33-1.45,2-1.89,2.73-2l.37,0h.34l.6,0,.22,0C58.28,75.44,58.51,75.42,58.78,75.42Z"/><g class="cls-5"><path class="cls-6" d="M67.41,84.6"/></g><path class="cls-8" d="M64.45,64.54l-.15,0Z"/><path class="cls-9" d="M53.11,44.9s-.63,0-2.9,1.38A7.3,7.3,0,0,1,52.86,44C52.87,44.13,53.11,44.9,53.11,44.9Z"/><path class="cls-9" d="M66.67,44.16s.34.53,2.81,1.56a7.33,7.33,0,0,1-3.41-.83C66.18,44.8,66.67,44.16,66.67,44.16Z"/><path class="cls-10" d="M73.71,62.42"/><polygon class="cls-7" points="40.33 32.44 43.89 37.05 40.23 41.58 44.84 38.01 49.37 41.68 45.8 37.07 49.47 32.54 44.86 36.1 40.33 32.44"/><polygon class="cls-7" points="44.81 40.54 45.21 37.43 48.33 37.1 45.22 36.7 44.88 33.57 44.48 36.69 41.36 37.02 44.48 37.42 44.81 40.54"/><path class="cls-4" d="M64.58,49.38A.43.43,0,1,0,65,49,.43.43,0,0,0,64.58,49.38Z"/><path class="cls-4" d="M64,49.63a.25.25,0,0,0,.25.25.25.25,0,0,0,.25-.25.25.25,0,0,0-.25-.25A.26.26,0,0,0,64,49.63Z"/><path class="cls-7" d="M75.47,39.59a8.42,8.42,0,0,0-1.1-1.17c-.24-.06-.91.51-4.9,2.38a9.27,9.27,0,0,1,2.21,2.94,14.11,14.11,0,0,1,.73,6.17,17.92,17.92,0,0,0,5.23-1C77.7,44,76.54,40.91,75.47,39.59Z"/><path class="cls-4" d="M40.16,74.64a.94.94,0,0,1-.48-.13,1,1,0,0,1-.39-1.36l.24-.44a6.75,6.75,0,0,1-3-2,5.75,5.75,0,0,1,1.22-8.58A6.86,6.86,0,0,1,42.61,61a1,1,0,0,1-.28,2,4.88,4.88,0,0,0-3.44.75,3.75,3.75,0,0,0-.8,5.64,4.85,4.85,0,0,0,3.09,1.68,1,1,0,0,1,.73,1.48L41,74.12A1,1,0,0,1,40.16,74.64Z"/><path class="cls-4" d="M76.88,66.36l-.7,0c-3.81-.28-4-.29-5.89-1.39a1,1,0,1,1,1-1.73c1.54.87,1.54.87,5,1.12a8.08,8.08,0,0,0,5.31-1.54l.71-1.93a1,1,0,1,1,1.87.69l-.8,2.19a1,1,0,0,1-.28.4A10,10,0,0,1,76.88,66.36Z"/><path class="cls-11" d="M64.34,58.14s-.16-1.67-1.05-1.88l.24-1c1.6.39,1.8,2.67,1.81,2.76Z"/><path class="cls-11" d="M59.05,59.8a9,9,0,0,1-4.2-.94l.49-.88a7.89,7.89,0,0,0,3.71.82c2.83,0,4.8-1.12,4.8-2.13h1C64.85,58.42,62.3,59.8,59.05,59.8Z"/><path class="cls-12" d="M64.15,50.27a1.47,1.47,0,1,0,1.47-1.49A1.47,1.47,0,0,0,64.15,50.27Z"/><path class="cls-4" d="M65.87,49.59a.38.38,0,1,0,.76,0,.38.38,0,1,0-.76,0Z"/><path class="cls-4" d="M65.34,49.82a.22.22,0,0,0,.44,0,.22.22,0,1,0-.44,0Z"/><path class="cls-12" d="M52.15,50.27a1.47,1.47,0,1,0,1.47-1.49A1.48,1.48,0,0,0,52.15,50.27Z"/><path class="cls-4" d="M53.87,49.59a.4.4,0,0,0,.39.39.39.39,0,0,0,.38-.39.38.38,0,0,0-.38-.38A.39.39,0,0,0,53.87,49.59Z"/><path class="cls-4" d="M53.35,49.82a.22.22,0,0,0,.22.22.22.22,0,0,0,.22-.22.22.22,0,0,0-.22-.23A.22.22,0,0,0,53.35,49.82Z"/></g></svg>