<svg xmlns="http://www.w3.org/2000/svg" viewBox="0 0 145.58 133"><defs><style>.cls-1{fill:#b04687;}.cls-2{fill:#229bbc;}.cls-3{fill:#f2a951;}.cls-4{fill:#fff;}.cls-5{fill:#139ab0;}.cls-6{opacity:0.1;}.cls-7{fill:#d7d9d8;}.cls-8{fill:#e8f5f8;}.cls-10,.cls-9{fill:none;stroke-linecap:round;stroke-width:3px;}.cls-9{stroke:#fff;stroke-linejoin:round;}.cls-10{stroke:#e4eaea;stroke-miterlimit:10;}.cls-11{fill:#13181b;}.cls-12{fill:#1d1d1b;}.cls-13{fill:#eb5032;}</style></defs><title>Преимущество 5</title><g id="Слой_3" data-name="Слой 3"><path class="cls-1" d="M134.86,75.31a6,6,0,0,0,4.47-1,9.49,9.49,0,0,0,2-1.73,19.47,19.47,0,0,0,1.64-2.16A26.18,26.18,0,0,0,145,66.09c.41-1.2.59-2,.59-2s-.75.34-1.83.92c-.55.29-1.16.65-1.85,1.06s-1.41.86-2.12,1.36A18.53,18.53,0,0,0,136,70.89l-.13.19c.5-2.32.91-4.67,1.22-7a5.81,5.81,0,0,0,3.51-1.46,10,10,0,0,0,.86-.86,9,9,0,0,0,.74-1,15.43,15.43,0,0,0,1.22-2.18c.17-.38.33-.76.48-1.13s.26-.72.37-1.07c.23-.7.4-1.35.54-1.92a15.06,15.06,0,0,0,.36-1.89s-.67.36-1.66,1A29.4,29.4,0,0,0,140,56.1a17.46,17.46,0,0,0-1.74,1.7,9.46,9.46,0,0,0-.64.78q.18-3,.08-6a5.49,5.49,0,0,0,2.47-1.49,9.08,9.08,0,0,0,1.37-1.84,13.5,13.5,0,0,0,.93-2.17,13.65,13.65,0,0,0,.6-2.2c.13-.72.22-1.39.28-2s.09-1.07.11-1.4a4.64,4.64,0,0,0,0-.54l-.4.3-1.07.81a32.27,32.27,0,0,0-3.07,2.78c-.26.28-.51.57-.76.87s-.51.6-.73.91l-.19.26a52.87,52.87,0,0,0-1.07-5.67,4.79,4.79,0,0,0,2.17-1.69,9,9,0,0,0,1.52-4.2c0-.39.1-.77.12-1.15s0-.75,0-1.12c0-.72-.08-1.4-.14-2a9.26,9.26,0,0,0-.23-1.39c-.08-.34-.13-.53-.13-.53s-.47.49-1.12,1.28a30.22,30.22,0,0,0-2.35,3.1,17.59,17.59,0,0,0-1,1.9,8.11,8.11,0,0,0-.34.74,53.13,53.13,0,0,0-2.57-6,4,4,0,0,0,2.06-2.13,9.16,9.16,0,0,0,.38-4.26,20.75,20.75,0,0,0-1.09-4c-.45-1.05-.82-1.74-.82-1.74s-.33.52-.77,1.37c-.21.42-.45.92-.69,1.47s-.5,1.17-.72,1.8a13.73,13.73,0,0,0-.55,2,8.72,8.72,0,0,0-.13,1l0,.36A51.39,51.39,0,0,0,125.14,20a3.28,3.28,0,0,0,1.12-.91,3.53,3.53,0,0,0,.64-1.61,6.43,6.43,0,0,0,0-1.95,8.92,8.92,0,0,0-.55-2.07,22.76,22.76,0,0,0-1.8-3.57c-.61-.91-1.07-1.5-1.07-1.5A13.37,13.37,0,0,0,123,9.73a21.28,21.28,0,0,0-.72,3.24,9.69,9.69,0,0,0,.17,3.83c0,.08,0,.17.08.26-1.94-2-4-4-6.37-6.12,2.29-1.29,1.67-4,.38-6.46a21.32,21.32,0,0,0-2.13-3.14C113.71.52,113.22,0,113.22,0a16.67,16.67,0,0,0-.62,4.47,9.84,9.84,0,0,0,.7,3.59,5.64,5.64,0,0,0,.36.69h0a35.91,35.91,0,0,0-5.79-3.8C122.5,17.2,133.67,32,135.33,49c.61,6.17-.14,12.33-1.1,18.45-1.08,6.91-2.82,13.8-6.4,20.2a64.11,64.11,0,0,1-23,24s-15.07,7.56-31.22,7.73H71.92c-16-.24-31.22-7.73-31.22-7.73a64.33,64.33,0,0,1-23-24c-3.58-6.4-5.32-13.29-6.4-20.2-1-6.12-1.7-12.28-1.1-18.45C11.91,32,23.08,17.19,37.71,4.94a36.38,36.38,0,0,0-5.79,3.8h0a6.38,6.38,0,0,0,.35-.69A9.44,9.44,0,0,0,33,4.47,16.67,16.67,0,0,0,32.35,0s-.49.52-1.14,1.34a21.32,21.32,0,0,0-2.14,3.14c-1.29,2.46-1.9,5.17.39,6.46C27.14,13,25,15,23.09,17.05l.07-.25A9.51,9.51,0,0,0,23.33,13a22.7,22.7,0,0,0-.71-3.24c-.26-.84-.49-1.37-.49-1.37s-.46.59-1.06,1.5a21.16,21.16,0,0,0-1.8,3.57,8.47,8.47,0,0,0-.56,2.07,7.14,7.14,0,0,0,0,1.95,3.54,3.54,0,0,0,.65,1.61,3.24,3.24,0,0,0,1.11.91A52.44,52.44,0,0,0,15.92,26c0-.13,0-.25,0-.36a8.75,8.75,0,0,0-.14-1,13.69,13.69,0,0,0-.54-2c-.22-.63-.5-1.25-.73-1.8s-.47-1-.69-1.47A15.71,15.71,0,0,0,13,18.06s-.36.69-.81,1.74a20.52,20.52,0,0,0-1.1,4,9.15,9.15,0,0,0,.39,4.26,4,4,0,0,0,2.05,2.13,53.13,53.13,0,0,0-2.56,6c-.11-.25-.22-.49-.34-.74a16.11,16.11,0,0,0-1.06-1.9,31.81,31.81,0,0,0-2.34-3.1c-.65-.79-1.13-1.28-1.13-1.28s0,.19-.13.53a10.76,10.76,0,0,0-.23,1.39c-.06.58-.11,1.26-.13,2,0,.37,0,.74,0,1.12a11.57,11.57,0,0,0,.13,1.15,9,9,0,0,0,1.52,4.2,4.74,4.74,0,0,0,2.17,1.69,50.55,50.55,0,0,0-1.08,5.67l-.18-.26c-.23-.31-.48-.61-.73-.91s-.51-.59-.77-.87a30,30,0,0,0-3.07-2.78l-1.07-.81-.4-.3s0,.2,0,.54.05.82.12,1.39.14,1.25.27,2a14.76,14.76,0,0,0,.6,2.2,14.5,14.5,0,0,0,.94,2.17,8.73,8.73,0,0,0,1.37,1.84,5.46,5.46,0,0,0,2.46,1.49q-.09,3,.08,6c-.2-.26-.41-.52-.64-.77a16.44,16.44,0,0,0-1.74-1.7,28.62,28.62,0,0,0-3.52-2.55c-1-.62-1.65-1-1.65-1a15.06,15.06,0,0,0,.36,1.89c.13.57.31,1.22.53,1.92.12.35.24.71.37,1.07s.32.75.49,1.13a16,16,0,0,0,1.21,2.18,10.47,10.47,0,0,0,.74,1,9.92,9.92,0,0,0,.87.85A5.76,5.76,0,0,0,8.5,64.06c.31,2.35.72,4.7,1.21,7a2.14,2.14,0,0,0-.13-.19,18.27,18.27,0,0,0-3.79-3.47c-.71-.5-1.43-1-2.12-1.36S2.37,65.29,1.82,65C.74,64.41,0,64.08,0,64.08s.18.81.58,2a26.31,26.31,0,0,0,2.06,4.28,19.17,19.17,0,0,0,1.64,2.16,9.44,9.44,0,0,0,2,1.73,6.05,6.05,0,0,0,4.47,1c.07.3.15.59.23.88a54.72,54.72,0,0,0,2,6.16c-.15-.16-.3-.31-.46-.46-.33-.3-.68-.58-1.05-.86s-.73-.55-1.12-.81A23.38,23.38,0,0,0,7.9,78.8c-.82-.44-1.68-.82-2.43-1.17S4,77,3.39,76.74c-1.22-.49-2-.76-2-.76s.35.83,1,2A20.41,20.41,0,0,0,3.6,80a25.61,25.61,0,0,0,1.7,2.21,19.67,19.67,0,0,0,2.16,2,11.46,11.46,0,0,0,1.16.85l.6.37c.21.11.42.22.63.31a6.49,6.49,0,0,0,4.84.44,49.86,49.86,0,0,0,3.94,6.61q-.36-.27-.75-.51c-.41-.25-.85-.49-1.29-.72s-.87-.45-1.32-.66c-.91-.41-1.87-.77-2.82-1.09L11,89.41,9.7,89c-.85-.25-1.65-.46-2.33-.63C6,88,5.1,87.87,5.1,87.87s.56.82,1.5,2a19.83,19.83,0,0,0,1.78,1.91c.7.67,1.47,1.37,2.28,2a23.27,23.27,0,0,0,2.73,1.74,14,14,0,0,0,1.4.69,8.86,8.86,0,0,0,1.42.5,6.64,6.64,0,0,0,5.09-.37c1.47,1.83,3,3.68,4.66,5.48l-.2-.08c-.24-.1-.48-.18-.73-.27l-.73-.26c-.49-.17-1-.31-1.51-.45-1-.27-2.1-.48-3.15-.65s-2.05-.33-3-.45-1.8-.21-2.54-.28c-1.48-.13-2.44-.16-2.44-.16s.78.75,2.05,1.78l1,.82c.38.28.81.55,1.25.84.89.57,1.85,1.15,2.85,1.68.26.13.5.27.77.39l.8.34c.54.22,1.08.43,1.62.6a16.28,16.28,0,0,0,3.15.75,7.11,7.11,0,0,0,4.46-.77q2,1.95,4.21,3.74c-.44-.07-.89-.13-1.35-.17-1.1-.11-2.27-.13-3.33-.18-2.15-.06-4.22,0-5.74.14-.77,0-1.4.11-1.84.15l-.67.06.17.12c.11.08.29.17.5.3.44.26,1.07.62,1.85,1s1.68.88,2.68,1.34,2.15.85,3.29,1.22c.57.19,1.16.36,1.73.51l.87.22.88.16a18.21,18.21,0,0,0,3.37.26,7.45,7.45,0,0,0,3.68-.93c.55.33,1.1.64,1.66.93a.43.43,0,0,0,.3.07,71.63,71.63,0,0,0,24.72,7.68c-6.19,1.15-13.47,2.42-21.2,3.59L37.11,133s18.77-6.25,36.28-10.24c17.51,4,36.27,10.24,36.27,10.24l-8.34-7.1c-7.92-1.2-15.37-2.51-21.67-3.68a62.34,62.34,0,0,0,24.06-7.59.46.46,0,0,0,.23-.07c.56-.29,1.12-.6,1.67-.93a7.41,7.41,0,0,0,3.67.93,18.21,18.21,0,0,0,3.37-.26l.88-.16.87-.22c.58-.15,1.16-.32,1.73-.51,1.14-.37,2.27-.79,3.3-1.21s1.91-.93,2.68-1.35,1.4-.77,1.84-1l.51-.3.16-.12-.67-.06c-.44,0-1.07-.1-1.83-.15-1.53-.11-3.59-.2-5.75-.14-1.06,0-2.22.07-3.33.18-.45,0-.9.1-1.35.17q2.19-1.79,4.22-3.74a7.07,7.07,0,0,0,4.45.77,16.11,16.11,0,0,0,3.15-.75c.54-.17,1.08-.38,1.62-.6l.81-.34c.26-.12.51-.26.76-.39,1-.53,2-1.11,2.86-1.68.44-.29.87-.56,1.25-.84s.72-.56,1-.82c1.27-1,2-1.78,2-1.78s-1,0-2.43.17c-.75.06-1.61.15-2.54.27s-1.91.29-3,.45-2.11.38-3.15.65q-.77.21-1.5.45l-.73.26c-.25.09-.5.17-.74.27l-.2.08c1.64-1.8,3.2-3.65,4.66-5.48a6.66,6.66,0,0,0,5.1.37,9.22,9.22,0,0,0,1.42-.5,15.1,15.1,0,0,0,1.4-.69,22.36,22.36,0,0,0,2.72-1.74c.82-.66,1.59-1.36,2.28-2A18.63,18.63,0,0,0,139,89.85c.95-1.16,1.5-2,1.5-2s-.9.17-2.26.51c-.69.17-1.49.38-2.34.63-.42.13-.86.27-1.33.4l-1.41.46A30.09,30.09,0,0,0,130.3,91c-.45.21-.9.43-1.32.66s-.87.47-1.28.72a8.21,8.21,0,0,0-.75.51,49.78,49.78,0,0,0,3.93-6.61,6.48,6.48,0,0,0,4.84-.44c.21-.09.43-.2.64-.31l.59-.37a10.44,10.44,0,0,0,1.16-.85,20.71,20.71,0,0,0,2.17-2A25.61,25.61,0,0,0,142,80a20.17,20.17,0,0,0,1.27-2c.64-1.2,1-2,1-2s-.83.27-2.05.76c-.62.24-1.33.54-2.09.89s-1.61.74-2.43,1.17a24.47,24.47,0,0,0-2.43,1.42c-.39.26-.74.53-1.11.81s-.73.56-1.06.86c-.15.15-.31.3-.46.46a54.78,54.78,0,0,0,2-6.16C134.71,75.9,134.79,75.61,134.86,75.31Z"/><path class="cls-2" d="M72.79,1.28a57.16,57.16,0,1,0,57.15,57.15A57.16,57.16,0,0,0,72.79,1.28Zm0,104a46.84,46.84,0,1,1,46.83-46.84A46.84,46.84,0,0,1,72.79,105.27Z"/><polygon class="cls-3" points="72.79 3.45 71.66 5.74 69.13 6.1 70.96 7.89 70.53 10.4 72.79 9.21 75.05 10.4 74.61 7.89 76.45 6.1 73.92 5.74 72.79 3.45"/><polygon class="cls-3" points="111.67 19.55 109.25 20.37 107.2 18.84 107.24 21.4 105.15 22.87 107.59 23.63 108.35 26.07 109.82 23.98 112.37 24.02 110.85 21.97 111.67 19.55"/><polygon class="cls-3" points="127.77 58.43 125.48 57.3 125.12 54.78 123.33 56.61 120.82 56.17 122 58.43 120.82 60.69 123.33 60.26 125.11 62.09 125.48 59.56 127.77 58.43"/><polygon class="cls-3" points="111.67 97.31 110.85 94.9 112.37 92.85 109.82 92.88 108.35 90.8 107.59 93.24 105.15 93.99 107.24 95.47 107.2 98.02 109.25 96.49 111.67 97.31"/><polygon class="cls-3" points="72.79 113.42 73.92 111.13 76.44 110.76 74.61 108.98 75.05 106.46 72.78 107.65 70.53 106.46 70.96 108.98 69.13 110.76 71.66 111.13 72.79 113.42"/><polygon class="cls-3" points="33.91 97.31 36.32 96.49 38.37 98.02 38.34 95.47 40.42 93.99 37.98 93.23 37.23 90.8 35.75 92.88 33.2 92.85 34.73 94.9 33.91 97.31"/><polygon class="cls-3" points="17.8 58.43 20.09 59.56 20.45 62.09 22.24 60.26 24.76 60.69 23.57 58.43 24.76 56.17 22.24 56.6 20.46 54.77 20.09 57.3 17.8 58.43"/><polygon class="cls-3" points="33.91 19.55 34.73 21.97 33.2 24.01 35.75 23.98 37.23 26.07 37.99 23.63 40.42 22.87 38.34 21.4 38.37 18.84 36.32 20.37 33.91 19.55"/></g><g id="Слой_4" data-name="Слой 4"><path class="cls-4" d="M95.46,87.36h.19c.29,0,1,.24,1.17.82a38.49,38.49,0,0,1,.06,4.36c0,.27-.06.58.61.92a3.21,3.21,0,0,0,1.18,0,5.17,5.17,0,0,0,3.39-2,7.63,7.63,0,0,0,1.51-6.06c-.11-.79-.17-1.45-.21-2a4.6,4.6,0,0,1,.82-3c2-2.9,2.58-4.64,2.58-7.36,0-4.72-3-7-6.64-7a6.07,6.07,0,0,0-4,1.64,1.18,1.18,0,0,1-.49.27h0A1.12,1.12,0,0,1,95,68h0a1.18,1.18,0,0,1-.49-.27,6.05,6.05,0,0,0-4-1.64c-3.66,0-6.64,2.25-6.64,7,0,2.72.55,4.46,2.58,7.36a4.6,4.6,0,0,1,.82,3c0,.52-.1,1.18-.21,2a7.71,7.71,0,0,0,1.51,6.06,5.17,5.17,0,0,0,3.39,2,3.21,3.21,0,0,0,1.18,0c.67-.34.61-.65.61-.92a38.49,38.49,0,0,1,.06-4.36c.13-.58.88-.77,1.17-.82h.42Z"/><path class="cls-5" d="M97.82,94a1.23,1.23,0,0,1-.55-.1,1.3,1.3,0,0,1-.89-1.31v-.4a28.61,28.61,0,0,0,0-3.89c0-.22-.43-.38-.77-.44h-.44c-.35.06-.73.22-.78.44a28.61,28.61,0,0,0,0,3.89v.35a1.32,1.32,0,0,1-.89,1.36,2.81,2.81,0,0,1-1.47,0,5.68,5.68,0,0,1-3.72-2.21,8.18,8.18,0,0,1-1.61-6.44c.1-.65.17-1.29.21-1.94a4.14,4.14,0,0,0-.73-2.67c-2-2.88-2.67-4.73-2.67-7.64,0-4.54,2.81-7.46,7.14-7.46a6.43,6.43,0,0,1,4.3,1.76.92.92,0,0,0,.29.16.77.77,0,0,0,.37,0,.92.92,0,0,0,.29-.16,6.43,6.43,0,0,1,4.3-1.76c4.34,0,7.14,2.92,7.14,7.46,0,2.91-.65,4.76-2.67,7.64a4.14,4.14,0,0,0-.73,2.67c0,.65.11,1.28.21,1.94a8.18,8.18,0,0,1-1.61,6.44,5.68,5.68,0,0,1-3.72,2.21A7.45,7.45,0,0,1,97.82,94Zm-2.58-7.15h.22a1.32,1.32,0,0,1,.28,0c.4.07,1.37.33,1.57,1.2a27.23,27.23,0,0,1,.08,4.14v.33c0,.24,0,.3.34.47a8.11,8.11,0,0,0,.89-.08,4.69,4.69,0,0,0,3.06-1.83,7.25,7.25,0,0,0,1.41-5.69c-.1-.68-.17-1.33-.22-2a5.17,5.17,0,0,1,.91-3.31c1.91-2.72,2.49-4.37,2.49-7.07,0-4.77-3.17-6.46-6.14-6.46a5.51,5.51,0,0,0-3.64,1.5,1.59,1.59,0,0,1-.68.38,1.76,1.76,0,0,1-.91,0,1.68,1.68,0,0,1-.68-.37,5.48,5.48,0,0,0-3.64-1.51c-3,0-6.14,1.69-6.14,6.46,0,2.7.59,4.35,2.49,7.07a5.17,5.17,0,0,1,.91,3.31c0,.68-.12,1.34-.22,2A7.25,7.25,0,0,0,89,91.11a4.69,4.69,0,0,0,3.07,1.83A4.9,4.9,0,0,0,93,93c.31-.15.3-.21.3-.39v-.39a27.23,27.23,0,0,1,.08-4.14c.2-.87,1.17-1.13,1.57-1.2A1.37,1.37,0,0,1,95.24,86.86Z"/><g class="cls-6"><path class="cls-5" d="M90.26,91.68c-1-.93-3.11-4-2.18-7.14a3.89,3.89,0,0,1,3.66-2.94c-.31,0-1.65-.18-4.77-4.31C84.44,74,85.08,70.07,85.7,68A7.12,7.12,0,0,0,84,73c0,2.82.59,4.59,2.8,7.68a3.42,3.42,0,0,1,.63,2.17c0,.59-.09,1.41-.25,2.47a7.73,7.73,0,0,0,1.51,6.07,5.25,5.25,0,0,0,3.39,2,3.18,3.18,0,0,0,1.18,0c.67-.33.61-.64.61-.92V92.2A3.18,3.18,0,0,1,90.26,91.68Z"/></g><path class="cls-7" d="M91.74,81.6h0Z"/><g class="cls-6"><path class="cls-5" d="M106.83,73c0-4.71-3-7-6.64-7A6.15,6.15,0,0,0,96,67.87l-.59.16-.59-.16A6.15,6.15,0,0,0,90.65,66C87,66,84,68.29,84,73c0,2.82.59,4.59,2.8,7.68a3.42,3.42,0,0,1,.63,2.17c0,.59-.09,1.41-.25,2.47a7.73,7.73,0,0,0,1.51,6.07,5.25,5.25,0,0,0,3.39,2,3.18,3.18,0,0,0,1.18,0c.67-.33.61-.64.61-.92a38.29,38.29,0,0,1,.06-4.35c.17-.73,1.28-.84,1.28-.84h.4a2.25,2.25,0,0,1,.93.34,1.76,1.76,0,0,0-1.14-.56H95s-1.08.11-1.24.81a36,36,0,0,0-.06,4.22c0,.27.06.57-.59.89A3,3,0,0,1,92,93a5.06,5.06,0,0,1-3.29-2,7.47,7.47,0,0,1-1.46-5.88c.15-1,.21-1.83.24-2.41a3.28,3.28,0,0,0-.61-2.1c-2.15-3-2.72-4.71-2.72-7.45,0-4.57,2.88-6.75,6.44-6.75a6,6,0,0,1,4.06,1.77l.57.16.58-.16a6,6,0,0,1,4-1.77c3.56,0,6.44,2.18,6.44,6.75,0,2.74-.57,4.46-2.71,7.45a3.28,3.28,0,0,0-.61,2.1,22.61,22.61,0,0,0,.24,2.41A7.47,7.47,0,0,1,101.74,91a5.06,5.06,0,0,1-3.29,2,3,3,0,0,1-1.14,0,1.44,1.44,0,0,1-.34-.21c0,.19.16.4.6.62a3.18,3.18,0,0,0,1.18,0,5.25,5.25,0,0,0,3.39-2,7.73,7.73,0,0,0,1.51-6.07,24.54,24.54,0,0,1-.25-2.47,3.42,3.42,0,0,1,.63-2.17C106.24,77.59,106.83,75.82,106.83,73Z"/></g><path class="cls-8" d="M104.43,68.79a4.62,4.62,0,0,0-.55-.59c-.12,0-.46.25-2.46,1.2a4.7,4.7,0,0,1,1.11,1.47A7.3,7.3,0,0,1,102.9,74a9.38,9.38,0,0,0,2.62-.52C105.55,71,105,69.45,104.43,68.79Z"/><path class="cls-8" d="M102.63,75.44a7.92,7.92,0,0,1-1.08,2.3c-.65,1-1,1.51-1.26,1.83l-.26.28,3.51-.84a8.88,8.88,0,0,0,1.84-4A9.48,9.48,0,0,1,102.63,75.44Z"/><path class="cls-8" d="M100.15,88.3a4,4,0,0,1-.25.56,11.32,11.32,0,0,1-1.27,1.9s-.32.95.79.5a6.09,6.09,0,0,0,2.8-2.84l-.35.08A3.09,3.09,0,0,1,100.15,88.3Z"/><path class="cls-8" d="M102.65,86.69a4.61,4.61,0,0,0-.31-2.68,4.45,4.45,0,0,0-.36-.53L99.86,84a7.64,7.64,0,0,1,.5,3.4l.19,0A3.11,3.11,0,0,0,102.65,86.69Z"/><path class="cls-9" d="M109,77.44"/><path class="cls-9" d="M103.08,81.25"/><path class="cls-10" d="M87.09,80.54"/><polygon class="cls-8" points="91.42 65.47 89.63 67.78 91.47 70.06 89.16 68.27 86.88 70.11 88.67 67.8 86.83 65.52 89.14 67.31 91.42 65.47"/><polygon class="cls-8" points="89.17 69.54 88.97 67.97 87.4 67.81 88.96 67.61 89.13 66.04 89.33 67.6 90.9 67.77 89.33 67.97 89.17 69.54"/><path class="cls-11" d="M99.67,71.82s.32,0,1.46.7a3.59,3.59,0,0,0-1.33-1.15C99.79,71.44,99.67,71.82,99.67,71.82Z"/><path class="cls-11" d="M90.65,71.9s-.31,0-1.45.69a3.68,3.68,0,0,1,1.33-1.15A4.22,4.22,0,0,0,90.65,71.9Z"/><path class="cls-12" d="M92.52,74.78a.77.77,0,0,1-.76.77.78.78,0,1,1,.76-.77Z"/><path class="cls-4" d="M91.63,74.42a.2.2,0,1,1-.2-.2A.2.2,0,0,1,91.63,74.42Z"/><path class="cls-4" d="M91.9,74.54a.11.11,0,0,1-.12.11.11.11,0,0,1-.11-.11.11.11,0,0,1,.11-.12A.12.12,0,0,1,91.9,74.54Z"/><path class="cls-12" d="M99.52,74.78a.76.76,0,1,1-.76-.78A.77.77,0,0,1,99.52,74.78Z"/><path class="cls-4" d="M98.63,74.42a.2.2,0,1,1-.2-.2A.2.2,0,0,1,98.63,74.42Z"/><path class="cls-4" d="M98.9,74.54a.11.11,0,0,1-.11.11.11.11,0,0,1-.12-.11.12.12,0,0,1,.12-.12A.11.11,0,0,1,98.9,74.54Z"/><path class="cls-4" d="M87.84,83.27a.5.5,0,0,1-.35-.15L87.13,83c-1.13-.44-3.77-1.46-4.24-5.61a.5.5,0,0,1,1-.11c.4,3.55,2.56,4.39,3.6,4.79a1.69,1.69,0,0,1,.74.41.5.5,0,0,1-.06.7A.52.52,0,0,1,87.84,83.27Z"/><path class="cls-4" d="M107.35,84.1c-2.79,0-5.36-2.38-5.47-2.49a.5.5,0,0,1,.68-.73s2.51,2.35,5,2.22a.5.5,0,1,1,0,1Z"/><path class="cls-4" d="M98.27,78c0,.65-1.28,1.9-2.85,1.9s-2.85-1.25-2.85-1.9c0-.33,1.43.23,2.85.23S98.27,77.66,98.27,78Z"/><path class="cls-13" d="M95.42,80.27c-1.75,0-3.22-1.4-3.22-2.28v-.18l.16-.18c.24-.19.58-.13,1.25,0a7.56,7.56,0,0,0,3.62,0c.67-.13,1-.19,1.25,0l.13.12,0,.24C98.64,78.87,97.17,80.27,95.42,80.27Zm-2.35-2a2.86,2.86,0,0,0,4.7,0l-.41.08a8.3,8.3,0,0,1-3.88,0Z"/></g><g id="Слой_2" data-name="Слой 2"><path class="cls-4" d="M61.91,79.17a3.71,3.71,0,0,1,.47,0c.67.12,2.45.56,2.76,1.94.4,1.71.14,9.61.14,10.27s-.14,1.38,1.44,2.17a7.64,7.64,0,0,0,2.79-.08,12.28,12.28,0,0,0,8-4.77,18.16,18.16,0,0,0,3.56-14.3c-.28-1.87-.42-3.41-.51-4.66a10.87,10.87,0,0,1,1.94-7c4.79-6.83,6.08-10.95,6.08-17.37,0-11.12-7-16.42-15.66-16.42a14.23,14.23,0,0,0-9.37,3.86,3,3,0,0,1-1.14.63h0a2.77,2.77,0,0,1-1.51,0h0a3,3,0,0,1-1.14-.63,14.25,14.25,0,0,0-9.37-3.86c-8.65,0-15.66,5.3-15.66,16.42,0,6.42,1.29,10.54,6.08,17.37a11,11,0,0,1,1.94,7c-.09,1.25-.24,2.79-.51,4.66a18.16,18.16,0,0,0,3.56,14.3,12.28,12.28,0,0,0,8,4.77,7.64,7.64,0,0,0,2.79.08c1.57-.79,1.44-1.51,1.44-2.17s-.26-8.56.13-10.27c.32-1.38,2.1-1.82,2.77-1.94l.46,0Z"/><path class="cls-5" d="M55.81,94.19A17.67,17.67,0,0,1,53.75,94a12.75,12.75,0,0,1-8.35-5,18.69,18.69,0,0,1-3.66-14.68c.23-1.56.4-3.07.51-4.62A10.47,10.47,0,0,0,40.4,63c-4.67-6.67-6.17-11-6.17-17.66,0-12.48,8.35-16.92,16.16-16.92a14.62,14.62,0,0,1,9.7,4,2.3,2.3,0,0,0,3.13,0,14.6,14.6,0,0,1,9.7-4c7.81,0,16.16,4.44,16.16,16.92,0,6.7-1.5,11-6.17,17.66a10.47,10.47,0,0,0-1.85,6.73c.11,1.55.28,3.06.51,4.62A18.7,18.7,0,0,1,77.9,89a12.71,12.71,0,0,1-8.33,5,6.78,6.78,0,0,1-3.07,0c-1.61-.81-1.74-1.64-1.72-2.49v-.13c0-.11,0-.39,0-.81,0-2,.19-8-.13-9.35-.26-1.1-1.88-1.47-2.37-1.55a2.34,2.34,0,0,0-.38,0h-.52a2.31,2.31,0,0,0-.37,0c-.49.08-2.11.45-2.37,1.55-.32,1.38-.18,7.38-.13,9.35,0,.42,0,.7,0,.81v.13c0,.85-.11,1.68-1.72,2.49A2.49,2.49,0,0,1,55.81,94.19ZM50.39,29.43c-7.33,0-15.16,4.18-15.16,15.92,0,6.54,1.4,10.54,6,17.08a11.53,11.53,0,0,1,2,7.38c-.12,1.58-.28,3.12-.52,4.69A17.7,17.7,0,0,0,46.2,88.43,11.77,11.77,0,0,0,53.87,93a9,9,0,0,0,2.49.12c1.19-.59,1.18-1,1.17-1.57v-.15c0-.1,0-.38,0-.79-.09-3.76-.15-8.26.16-9.59.38-1.66,2.34-2.17,3.17-2.32a3.27,3.27,0,0,1,.54,0h.52a3.31,3.31,0,0,1,.55,0c.83.15,2.79.66,3.17,2.32.31,1.33.25,5.83.16,9.59,0,.41,0,.69,0,.79v.15c0,.55,0,1,1.17,1.57A8.87,8.87,0,0,0,69.42,93a11.77,11.77,0,0,0,7.69-4.58A17.74,17.74,0,0,0,80.58,74.5c-.24-1.58-.41-3.11-.52-4.69a11.53,11.53,0,0,1,2-7.38c4.59-6.55,6-10.54,6-17.08,0-11.74-7.83-15.92-15.16-15.92a13.67,13.67,0,0,0-9,3.73,3.24,3.24,0,0,1-1.34.74,3.32,3.32,0,0,1-1.77,0,3.24,3.24,0,0,1-1.34-.74A13.67,13.67,0,0,0,50.39,29.43Z"/><g class="cls-6"><path class="cls-5" d="M49.65,89.37c-2.45-2.19-7.33-9.46-5.13-16.84,2-6.74,7.64-6.76,8.64-7-.75.06-3.92-.43-11.27-10.16-6-7.89-4.45-17.05-3-21.89-2.49,2.71-4,6.6-4,11.76,0,6.65,1.39,10.84,6.61,18.12A8,8,0,0,1,43,68.52c-.08,1.41-.22,3.34-.59,5.85A18.16,18.16,0,0,0,46,88.67a12.3,12.3,0,0,0,8,4.77,7.37,7.37,0,0,0,2.78.08c1.58-.79,1.45-1.51,1.45-2.17,0-.1,0-.37,0-.75C56,92.05,52.15,91.61,49.65,89.37Z"/></g><path class="cls-7" d="M53.16,65.58l.18,0Z"/><g class="cls-6"><path class="cls-5" d="M88.75,45.29c0-11.12-7-16.42-15.66-16.42a14.45,14.45,0,0,0-9.86,4.31l-1.4.39-1.4-.39a14.49,14.49,0,0,0-9.87-4.31c-8.65,0-15.66,5.3-15.66,16.42,0,6.65,1.39,10.84,6.61,18.12A8,8,0,0,1,43,68.52c-.08,1.41-.22,3.34-.59,5.85A18.16,18.16,0,0,0,46,88.67a12.3,12.3,0,0,0,8,4.77,7.37,7.37,0,0,0,2.78.08c1.58-.79,1.45-1.51,1.45-2.17s-.27-8.56.13-10.27,3-2,3-2h.92a5.12,5.12,0,0,1,2.2.8,4.11,4.11,0,0,0-2.68-1.33h-.9s-2.55.25-2.93,1.91-.13,9.32-.13,10,.13,1.34-1.41,2.11a7.11,7.11,0,0,1-2.69-.08A11.94,11.94,0,0,1,46,87.86,17.67,17.67,0,0,1,42.52,74a55.54,55.54,0,0,0,.57-5.68,7.73,7.73,0,0,0-1.44-5c-5.06-7.06-6.41-11.12-6.41-17.57,0-10.8,6.8-15.94,15.2-15.94A14.07,14.07,0,0,1,60,34l1.35.37L62.72,34a14.05,14.05,0,0,1,9.57-4.19c8.39,0,15.2,5.14,15.2,15.94,0,6.45-1.35,10.51-6.42,17.57a7.78,7.78,0,0,0-1.43,5c.07,1.37.2,3.24.56,5.68a17.67,17.67,0,0,1-3.45,13.88A12,12,0,0,1,69,92.48a7.16,7.16,0,0,1-2.7.08,4.66,4.66,0,0,1-.8-.51c.08.46.38,1,1.42,1.47a7.38,7.38,0,0,0,2.78-.08,12.28,12.28,0,0,0,8-4.77,18.16,18.16,0,0,0,3.56-14.3c-.37-2.51-.5-4.44-.58-5.85a8,8,0,0,1,1.48-5.11C87.36,56.13,88.75,51.94,88.75,45.29Z"/></g><path class="cls-8" d="M83.09,35.35A10.5,10.5,0,0,0,81.79,34c-.29-.07-1.08.61-5.81,2.83a11,11,0,0,1,2.62,3.49,16.73,16.73,0,0,1,.87,7.31,21.59,21.59,0,0,0,6.2-1.22C85.74,40.52,84.36,36.92,83.09,35.35Z"/><path class="cls-8" d="M78.84,51a18.35,18.35,0,0,1-2.54,5.42c-1.53,2.26-2.45,3.58-3,4.32-.11.15-.61.68-.61.68l8.29-2a21.14,21.14,0,0,0,4.33-9.38A21.61,21.61,0,0,1,78.84,51Z"/><path class="cls-8" d="M73,81.39a7.49,7.49,0,0,1-.59,1.33,26.85,26.85,0,0,1-3,4.48s-.73,2.24,1.87,1.18a14.37,14.37,0,0,0,6.61-6.71l-.81.19A7.3,7.3,0,0,1,73,81.39Z"/><path class="cls-8" d="M78.9,77.59a10.86,10.86,0,0,0-.75-6.32A9.18,9.18,0,0,0,77.31,70l-5,1.24a18.13,18.13,0,0,1,1.17,8l.45.06A7.4,7.4,0,0,0,78.9,77.59Z"/><path class="cls-9" d="M93.78,55.76"/><path class="cls-9" d="M79.9,64.75"/><path class="cls-10" d="M42.18,63.08"/><polygon class="cls-8" points="52.39 27.52 48.17 32.98 52.51 38.35 47.05 34.13 41.68 38.48 45.9 33.01 41.56 27.64 47.02 31.86 52.39 27.52"/><polygon class="cls-8" points="47.08 37.13 46.61 33.43 42.9 33.04 46.6 32.57 46.99 28.86 47.46 32.56 51.17 32.95 47.47 33.42 47.08 37.13"/><path class="cls-11" d="M71.87,42.51s.74,0,3.44,1.64a8.59,8.59,0,0,0-3.15-2.71C72.15,41.6,71.87,42.51,71.87,42.51Z"/><path class="cls-11" d="M50.58,42.7s-.75,0-3.44,1.63a8.78,8.78,0,0,1,3.15-2.71C50.3,41.78,50.58,42.7,50.58,42.7Z"/><path class="cls-12" d="M55,49.48a1.8,1.8,0,1,1-1.8-1.83A1.81,1.81,0,0,1,55,49.48Z"/><path class="cls-4" d="M52.88,48.65a.47.47,0,1,1-.47-.47A.47.47,0,0,1,52.88,48.65Z"/><path class="cls-4" d="M53.52,48.92a.27.27,0,1,1-.27-.27A.27.27,0,0,1,53.52,48.92Z"/><path class="cls-12" d="M71.5,49.48a1.8,1.8,0,1,1-1.79-1.83A1.81,1.81,0,0,1,71.5,49.48Z"/><path class="cls-4" d="M69.4,48.65a.47.47,0,1,1-.47-.47A.47.47,0,0,1,69.4,48.65Z"/><path class="cls-4" d="M70.05,48.92a.28.28,0,0,1-.28.27.27.27,0,1,1,0-.54A.28.28,0,0,1,70.05,48.92Z"/><path class="cls-13" d="M61.76,60.65a6.21,6.21,0,0,1-5-2.13l.8-.6a5.57,5.57,0,0,0,5,1.68,6,6,0,0,0,4.51-2.67l.88.48a7,7,0,0,1-5.27,3.18A8.06,8.06,0,0,1,61.76,60.65Z"/><path class="cls-13" d="M67.46,58.36c0-.36-.25-1.43-.86-1.58l.24-1c1.43.35,1.61,2.38,1.62,2.47Z"/><path class="cls-4" d="M39,77.59a1,1,0,0,1-1-.81c-1.27-6.53,2.5-14,3.71-14.6a1,1,0,0,1,1,1.72c-.66.72-3.86,6.85-2.76,12.5a1,1,0,0,1-.79,1.17ZM42.63,64h0Z"/><path class="cls-4" d="M83.39,77.15h0a1,1,0,0,1-1-1c0-.16,0-.38,0-.65a19.37,19.37,0,0,0-.43-7,21.39,21.39,0,0,0-3.73-6.58,1,1,0,1,1,1.5-1.32,22.85,22.85,0,0,1,4.14,7.3,21.28,21.28,0,0,1,.52,7.73c0,.24,0,.44,0,.58A1,1,0,0,1,83.39,77.15Z"/></g></svg>