<svg xmlns="http://www.w3.org/2000/svg" viewBox="0 0 145.58 133"><defs><style>.cls-1{isolation:isolate;}.cls-2{fill:#b04687;}.cls-3{fill:#229bbc;}.cls-4{fill:#f2a951;}.cls-5{fill:#139ab0;}.cls-6{fill:#b3b3b3;}.cls-7{fill:#848887;}.cls-8{fill:#5a595d;}.cls-9{fill:#383838;}.cls-10{mix-blend-mode:multiply;}.cls-11{fill:#ccc;}.cls-12{fill:#e6e6e6;}.cls-13{opacity:0.6;}.cls-14{fill:#e2e2e2;}.cls-15{mix-blend-mode:screen;}.cls-16{fill:#fff;}.cls-17{opacity:0.1;}.cls-18{fill:#d7d9d8;}.cls-19{fill:#e8f5f8;}.cls-20,.cls-21{fill:none;stroke-linecap:round;stroke-width:3px;}.cls-20{stroke:#fff;stroke-linejoin:round;}.cls-21{stroke:#e4eaea;stroke-miterlimit:10;}.cls-22{fill:#13181b;}.cls-23{fill:#1d1d1b;}.cls-24{fill:#eb5032;}</style></defs><title>Преимущество 4</title><g class="cls-1"><g id="Слой_3" data-name="Слой 3"><path class="cls-2" d="M134.86,75.31a6,6,0,0,0,4.47-1,9.49,9.49,0,0,0,2-1.73,19.47,19.47,0,0,0,1.64-2.16A26.18,26.18,0,0,0,145,66.09c.41-1.2.59-2,.59-2s-.75.34-1.83.92c-.55.29-1.16.65-1.85,1.06s-1.41.86-2.12,1.36A18.53,18.53,0,0,0,136,70.89l-.13.19c.5-2.32.91-4.67,1.22-7a5.81,5.81,0,0,0,3.51-1.46,10,10,0,0,0,.86-.86,9,9,0,0,0,.74-1,15.43,15.43,0,0,0,1.22-2.18c.17-.38.33-.76.48-1.13s.26-.72.37-1.07c.23-.7.4-1.35.54-1.92a15.06,15.06,0,0,0,.36-1.89s-.67.36-1.66,1A29.4,29.4,0,0,0,140,56.1a17.46,17.46,0,0,0-1.74,1.7,9.46,9.46,0,0,0-.64.78q.18-3,.08-6a5.49,5.49,0,0,0,2.47-1.49,9.08,9.08,0,0,0,1.37-1.84,13.5,13.5,0,0,0,.93-2.17,13.65,13.65,0,0,0,.6-2.2c.13-.72.22-1.39.28-2s.09-1.07.11-1.4a4.64,4.64,0,0,0,0-.54l-.4.3-1.07.81a32.27,32.27,0,0,0-3.07,2.78c-.26.28-.51.57-.76.87s-.51.6-.73.91l-.19.26a52.87,52.87,0,0,0-1.07-5.67,4.79,4.79,0,0,0,2.17-1.69,9,9,0,0,0,1.52-4.2c0-.39.1-.77.12-1.15s0-.75,0-1.12c0-.72-.08-1.4-.14-2a9.26,9.26,0,0,0-.23-1.39c-.08-.34-.13-.53-.13-.53s-.47.49-1.12,1.28a30.22,30.22,0,0,0-2.35,3.1,17.59,17.59,0,0,0-1,1.9,8.11,8.11,0,0,0-.34.74,53.13,53.13,0,0,0-2.57-6,4,4,0,0,0,2.06-2.13,9.16,9.16,0,0,0,.38-4.26,20.75,20.75,0,0,0-1.09-4c-.45-1.05-.82-1.74-.82-1.74s-.33.52-.77,1.37c-.21.42-.45.92-.69,1.47s-.5,1.17-.72,1.8a13.73,13.73,0,0,0-.55,2,8.72,8.72,0,0,0-.13,1l0,.36A51.39,51.39,0,0,0,125.14,20a3.28,3.28,0,0,0,1.12-.91,3.53,3.53,0,0,0,.64-1.61,6.43,6.43,0,0,0,0-1.95,8.92,8.92,0,0,0-.55-2.07,22.76,22.76,0,0,0-1.8-3.57c-.61-.91-1.07-1.5-1.07-1.5A13.37,13.37,0,0,0,123,9.73a21.28,21.28,0,0,0-.72,3.24,9.69,9.69,0,0,0,.17,3.83c0,.08,0,.17.08.26-1.94-2-4-4-6.37-6.12,2.29-1.29,1.67-4,.38-6.46a21.32,21.32,0,0,0-2.13-3.14C113.71.52,113.22,0,113.22,0a16.67,16.67,0,0,0-.62,4.47,9.84,9.84,0,0,0,.7,3.59,5.64,5.64,0,0,0,.36.69h0a35.91,35.91,0,0,0-5.79-3.8C122.5,17.2,133.67,32,135.33,49c.61,6.17-.14,12.33-1.1,18.45-1.08,6.91-2.82,13.8-6.4,20.2a64.11,64.11,0,0,1-23,24s-15.07,7.56-31.22,7.73H71.92c-16-.24-31.22-7.73-31.22-7.73a64.33,64.33,0,0,1-23-24c-3.58-6.4-5.32-13.29-6.4-20.2-1-6.12-1.7-12.28-1.1-18.45C11.91,32,23.08,17.19,37.71,4.94a36.38,36.38,0,0,0-5.79,3.8h0a6.38,6.38,0,0,0,.35-.69A9.44,9.44,0,0,0,33,4.47,16.67,16.67,0,0,0,32.35,0s-.49.52-1.14,1.34a21.32,21.32,0,0,0-2.14,3.14c-1.29,2.46-1.9,5.17.39,6.46C27.14,13,25,15,23.09,17.05l.07-.25A9.51,9.51,0,0,0,23.33,13a22.7,22.7,0,0,0-.71-3.24c-.26-.84-.49-1.37-.49-1.37s-.46.59-1.06,1.5a21.16,21.16,0,0,0-1.8,3.57,8.47,8.47,0,0,0-.56,2.07,7.14,7.14,0,0,0,0,1.95,3.54,3.54,0,0,0,.65,1.61,3.24,3.24,0,0,0,1.11.91A52.44,52.44,0,0,0,15.92,26c0-.13,0-.25,0-.36a8.75,8.75,0,0,0-.14-1,13.69,13.69,0,0,0-.54-2c-.22-.63-.5-1.25-.73-1.8s-.47-1-.69-1.47A15.71,15.71,0,0,0,13,18.06s-.36.69-.81,1.74a20.52,20.52,0,0,0-1.1,4,9.15,9.15,0,0,0,.39,4.26,4,4,0,0,0,2.05,2.13,53.13,53.13,0,0,0-2.56,6c-.11-.25-.22-.49-.34-.74a16.11,16.11,0,0,0-1.06-1.9,31.81,31.81,0,0,0-2.34-3.1c-.65-.79-1.13-1.28-1.13-1.28s0,.19-.13.53a10.76,10.76,0,0,0-.23,1.39c-.06.58-.11,1.26-.13,2,0,.37,0,.74,0,1.12a11.57,11.57,0,0,0,.13,1.15,9,9,0,0,0,1.52,4.2,4.74,4.74,0,0,0,2.17,1.69,50.55,50.55,0,0,0-1.08,5.67l-.18-.26c-.23-.31-.48-.61-.73-.91s-.51-.59-.77-.87a30,30,0,0,0-3.07-2.78l-1.07-.81-.4-.3s0,.2,0,.54.05.82.12,1.39.14,1.25.27,2a14.76,14.76,0,0,0,.6,2.2,14.5,14.5,0,0,0,.94,2.17,8.73,8.73,0,0,0,1.37,1.84,5.46,5.46,0,0,0,2.46,1.49q-.09,3,.08,6c-.2-.26-.41-.52-.64-.77a16.44,16.44,0,0,0-1.74-1.7,28.62,28.62,0,0,0-3.52-2.55c-1-.62-1.65-1-1.65-1a15.06,15.06,0,0,0,.36,1.89c.13.57.31,1.22.53,1.92.12.35.24.71.37,1.07s.32.75.49,1.13a16,16,0,0,0,1.21,2.18,10.47,10.47,0,0,0,.74,1,9.92,9.92,0,0,0,.87.85A5.76,5.76,0,0,0,8.5,64.06c.31,2.35.72,4.7,1.21,7a2.14,2.14,0,0,0-.13-.19,18.27,18.27,0,0,0-3.79-3.47c-.71-.5-1.43-1-2.12-1.36S2.37,65.29,1.82,65C.74,64.41,0,64.08,0,64.08s.18.81.58,2a26.31,26.31,0,0,0,2.06,4.28,19.17,19.17,0,0,0,1.64,2.16,9.44,9.44,0,0,0,2,1.73,6.05,6.05,0,0,0,4.47,1c.07.3.15.59.23.88a54.72,54.72,0,0,0,2,6.16c-.15-.16-.3-.31-.46-.46-.33-.3-.68-.58-1.05-.86s-.73-.55-1.12-.81A23.38,23.38,0,0,0,7.9,78.8c-.82-.44-1.68-.82-2.43-1.17S4,77,3.39,76.74c-1.22-.49-2-.76-2-.76s.35.83,1,2A20.41,20.41,0,0,0,3.6,80a25.61,25.61,0,0,0,1.7,2.21,19.67,19.67,0,0,0,2.16,2,11.46,11.46,0,0,0,1.16.85l.6.37c.21.11.42.22.63.31a6.49,6.49,0,0,0,4.84.44,49.86,49.86,0,0,0,3.94,6.61q-.36-.27-.75-.51c-.41-.25-.85-.49-1.29-.72s-.87-.45-1.32-.66c-.91-.41-1.87-.77-2.82-1.09L11,89.41,9.7,89c-.85-.25-1.65-.46-2.33-.63C6,88,5.1,87.87,5.1,87.87s.56.82,1.5,2a19.83,19.83,0,0,0,1.78,1.91c.7.67,1.47,1.37,2.28,2a23.27,23.27,0,0,0,2.73,1.74,14,14,0,0,0,1.4.69,8.86,8.86,0,0,0,1.42.5,6.64,6.64,0,0,0,5.09-.37c1.47,1.83,3,3.68,4.66,5.48l-.2-.08c-.24-.1-.48-.18-.73-.27l-.73-.26c-.49-.17-1-.31-1.51-.45-1-.27-2.1-.48-3.15-.65s-2.05-.33-3-.45-1.8-.21-2.54-.28c-1.48-.13-2.44-.16-2.44-.16s.78.75,2.05,1.78l1,.82c.38.28.81.55,1.25.84.89.57,1.85,1.15,2.85,1.68.26.13.5.27.77.39l.8.34c.54.22,1.08.43,1.62.6a16.28,16.28,0,0,0,3.15.75,7.11,7.11,0,0,0,4.46-.77q2,1.95,4.21,3.74c-.44-.07-.89-.13-1.35-.17-1.1-.11-2.27-.13-3.33-.18-2.15-.06-4.22,0-5.74.14-.77,0-1.4.11-1.84.15l-.67.06.17.12c.11.08.29.17.5.3.44.26,1.07.62,1.85,1s1.68.88,2.68,1.34,2.15.85,3.29,1.22c.57.19,1.16.36,1.73.51l.87.22.88.16a18.21,18.21,0,0,0,3.37.26,7.45,7.45,0,0,0,3.68-.93c.55.33,1.1.64,1.66.93a.43.43,0,0,0,.3.07,71.63,71.63,0,0,0,24.72,7.68c-6.19,1.15-13.47,2.42-21.2,3.59L37.11,133s18.77-6.25,36.28-10.24c17.51,4,36.27,10.24,36.27,10.24l-8.34-7.1c-7.92-1.2-15.37-2.51-21.67-3.68a62.34,62.34,0,0,0,24.06-7.59.46.46,0,0,0,.23-.07c.56-.29,1.12-.6,1.67-.93a7.41,7.41,0,0,0,3.67.93,18.21,18.21,0,0,0,3.37-.26l.88-.16.87-.22c.58-.15,1.16-.32,1.73-.51,1.14-.37,2.27-.79,3.3-1.21s1.91-.93,2.68-1.35,1.4-.77,1.84-1l.51-.3.16-.12-.67-.06c-.44,0-1.07-.1-1.83-.15-1.53-.11-3.59-.2-5.75-.14-1.06,0-2.22.07-3.33.18-.45,0-.9.1-1.35.17q2.19-1.79,4.22-3.74a7.07,7.07,0,0,0,4.45.77,16.11,16.11,0,0,0,3.15-.75c.54-.17,1.08-.38,1.62-.6l.81-.34c.26-.12.51-.26.76-.39,1-.53,2-1.11,2.86-1.68.44-.29.87-.56,1.25-.84s.72-.56,1-.82c1.27-1,2-1.78,2-1.78s-1,0-2.43.17c-.75.06-1.61.15-2.54.27s-1.91.29-3,.45-2.11.38-3.15.65q-.77.21-1.5.45l-.73.26c-.25.09-.5.17-.74.27l-.2.08c1.64-1.8,3.2-3.65,4.66-5.48a6.66,6.66,0,0,0,5.1.37,9.22,9.22,0,0,0,1.42-.5,15.1,15.1,0,0,0,1.4-.69,22.36,22.36,0,0,0,2.72-1.74c.82-.66,1.59-1.36,2.28-2A18.63,18.63,0,0,0,139,89.85c.95-1.16,1.5-2,1.5-2s-.9.17-2.26.51c-.69.17-1.49.38-2.34.63-.42.13-.86.27-1.33.4l-1.41.46A30.09,30.09,0,0,0,130.3,91c-.45.21-.9.43-1.32.66s-.87.47-1.28.72a8.21,8.21,0,0,0-.75.51,49.78,49.78,0,0,0,3.93-6.61,6.48,6.48,0,0,0,4.84-.44c.21-.09.43-.2.64-.31l.59-.37a10.44,10.44,0,0,0,1.16-.85,20.71,20.71,0,0,0,2.17-2A25.61,25.61,0,0,0,142,80a20.17,20.17,0,0,0,1.27-2c.64-1.2,1-2,1-2s-.83.27-2.05.76c-.62.24-1.33.54-2.09.89s-1.61.74-2.43,1.17a24.47,24.47,0,0,0-2.43,1.42c-.39.26-.74.53-1.11.81s-.73.56-1.06.86c-.15.15-.31.3-.46.46a54.78,54.78,0,0,0,2-6.16C134.71,75.9,134.79,75.61,134.86,75.31Z"/><path class="cls-3" d="M72.79,1.28a57.16,57.16,0,1,0,57.15,57.15A57.16,57.16,0,0,0,72.79,1.28Zm0,104a46.84,46.84,0,1,1,46.83-46.84A46.84,46.84,0,0,1,72.79,105.27Z"/><polygon class="cls-4" points="72.79 3.45 71.66 5.74 69.13 6.1 70.96 7.89 70.53 10.4 72.79 9.21 75.05 10.4 74.61 7.89 76.45 6.1 73.92 5.74 72.79 3.45"/><polygon class="cls-4" points="111.67 19.55 109.25 20.37 107.2 18.84 107.24 21.4 105.15 22.87 107.59 23.63 108.35 26.07 109.82 23.98 112.37 24.02 110.85 21.97 111.67 19.55"/><polygon class="cls-4" points="127.77 58.43 125.48 57.3 125.12 54.78 123.33 56.61 120.82 56.17 122 58.43 120.82 60.69 123.33 60.26 125.11 62.09 125.48 59.56 127.77 58.43"/><polygon class="cls-4" points="111.67 97.31 110.85 94.9 112.37 92.85 109.82 92.88 108.35 90.8 107.59 93.24 105.15 93.99 107.24 95.47 107.2 98.02 109.25 96.49 111.67 97.31"/><polygon class="cls-4" points="72.79 113.42 73.92 111.13 76.44 110.76 74.61 108.98 75.05 106.46 72.78 107.65 70.53 106.46 70.96 108.98 69.13 110.76 71.66 111.13 72.79 113.42"/><polygon class="cls-4" points="33.91 97.31 36.32 96.49 38.37 98.02 38.34 95.47 40.42 93.99 37.98 93.23 37.23 90.8 35.75 92.88 33.2 92.85 34.73 94.9 33.91 97.31"/><polygon class="cls-4" points="17.8 58.43 20.09 59.56 20.45 62.09 22.24 60.26 24.76 60.69 23.57 58.43 24.76 56.17 22.24 56.6 20.46 54.77 20.09 57.3 17.8 58.43"/><polygon class="cls-4" points="33.91 19.55 34.73 21.97 33.2 24.01 35.75 23.98 37.23 26.07 37.99 23.63 40.42 22.87 38.34 21.4 38.37 18.84 36.32 20.37 33.91 19.55"/><path class="cls-5" d="M96,95H49V91.79l.53-.29a78.55,78.55,0,0,1,11.9-4.86l-9.27.65V84.23h.16L55,66.77l6.52,0V62.2H59V59.13H57.36V31.24l.15-.46A5,5,0,0,1,60.56,28V18.67C60.74,17.13,62.5,16,64.76,16s4,1.1,4.18,2.61V28a4.93,4.93,0,0,1,3,2.81l.15.43v6.88A30.45,30.45,0,0,1,85.54,42.7,23.47,23.47,0,0,1,98.17,62.52c-.46,13.6-6.52,19.91-11.32,22.79A19.1,19.1,0,0,1,91.75,88a16.56,16.56,0,0,1,4.08,3.87l.16.25ZM51,93H94v-.32a15.47,15.47,0,0,0-3.39-3.12h0a16.11,16.11,0,0,0-6.58-3h-.15l-2.14-1.06,2-.86c4.44-1.92,12-7.35,12.48-22.2A21.53,21.53,0,0,0,84.51,44.42,29,29,0,0,0,71.06,40l-.91-.09,0-8.48a3.63,3.63,0,0,0-2.45-1.78L67,29.44V18.81c0-.19-.83-.78-2.19-.78s-2.17.59-2.2.83V29.44l-.7.22a3.63,3.63,0,0,0-2.45,1.76l0,.15V57.13H61V60.2h2.55v5.13h1.78V60.2h3.52V57.13h1.29v-5.7l1.52.91a2.41,2.41,0,0,0,1.29.38c1.33,0,2.6-1.21,3.26-3.09l.37-1.08,1,.52c4.45,2.29,7.4,5.23,8.76,8.76l0,.1a13.86,13.86,0,0,1,.38,5c-.72,7.32-7.4,13.18-14.63,12.74l-1.74-.23L69,68.85l-12.28-.07-2.6,16.36,11.2-.78.22.09A13.35,13.35,0,0,0,67,85l.47.16L71,86.24l-3.62.83A77.51,77.51,0,0,0,51,93ZM72.08,73.61l.27,0a12.29,12.29,0,0,0,12.45-11,11.69,11.69,0,0,0-.31-4.19c-1.09-2.78-3.39-5.18-6.84-7.14A5.41,5.41,0,0,1,73,54.72a4.43,4.43,0,0,1-.81-.07v4.48H70.86V62.2H67.34v4.64l3.31,0ZM63.4,79.75c-3.11,0-5.55-1.87-5.55-4.26s2.44-4.26,5.55-4.26S69,73.1,69,75.49a3.63,3.63,0,0,1-1.17,2.63l-.64.53A6.65,6.65,0,0,1,63.4,79.75Zm0-6.52c-1.92,0-3.55,1-3.55,2.26s1.63,2.26,3.55,2.26A4.65,4.65,0,0,0,66,77l.49-.41a1.69,1.69,0,0,0,.5-1.14C67,74.27,65.33,73.23,63.4,73.23Z"/><path class="cls-6" d="M63.91,73c2.76,0,5.08,1.16,5.75,2.73a2.07,2.07,0,0,0,.06-.5c0-2-2.66-3.68-5.95-3.68s-5.94,1.64-5.94,3.68a2.54,2.54,0,0,0,.19.94C58.43,74.41,60.91,73,63.91,73Z"/><path class="cls-7" d="M50,92.39H95s-5.23-7.91-18.37-7.56S50,92.39,50,92.39Z"/><rect class="cls-8" x="49.95" y="92.39" width="45.04" height="1.64"/><path class="cls-9" d="M72.19,40c-3.56-.33-8.41,3.77-1,7.3,0,0,17.67,3.53,16.33,16.48C86.66,72.32,77.1,78,69.18,74.67v9.24H63.61a24.6,24.6,0,0,0,14.55,3.2c7.75-.65,18.4-6.7,19-24.59C97.17,62.52,97.2,42.31,72.19,40Z"/><path class="cls-7" d="M71.13,39c-3.39-.33-8,3.78-.93,7.31,0,0,16.88,3.53,15.6,16.47-.8,8.12-9.07,13.66-16.38,11.33v9.2h-5.8a22.57,22.57,0,0,0,13.22,2.8c7.4-.65,17.57-6.7,18.15-24.59C95,61.53,95,41.33,71.13,39Z"/><path class="cls-8" d="M70.79,40c-3.55-.33-8.41,3.77-1,7.3,0,0,17.67,3.53,16.33,16.48-.82,8-9.18,13.45-16.72,11.44v8.1H61.24a24.62,24.62,0,0,0,15.52,3.79c7.75-.65,18.4-6.7,19-24.59C95.77,62.52,95.8,42.31,70.79,40Z"/><g class="cls-10"><path class="cls-11" d="M70.27,47.4a29.13,29.13,0,0,1,11.19,5.38c-.48-2.75-1.3-7.46-2-11A37.59,37.59,0,0,0,70.92,40Z"/></g><rect class="cls-7" x="62.56" y="60.84" width="3.78" height="5.49"/><g class="cls-10"><polygon class="cls-12" points="66.34 66.33 65.11 66.33 65.28 60.84 66.34 60.84 66.34 66.33"/></g><g class="cls-13"><path class="cls-9" d="M70.73,74.45l2.23.28v.91l8.51,9.5,8.18,7.25H64.93L61,89l6.23-2.91s-5.9-1.53-5.56-4.28Z"/></g><g class="cls-10"><polygon class="cls-12" points="66.34 63.51 62.56 62.37 62.56 61.2 66.34 61.2 66.34 63.51"/></g><rect class="cls-7" x="60.01" y="55.7" width="9.85" height="5.49"/><g class="cls-10"><polygon class="cls-12" points="69.86 61.2 63.1 61.2 64.07 55.7 69.86 55.7 69.86 61.2"/></g><g class="cls-10"><polygon class="cls-12" points="69.86 61.2 66.65 61.2 67.11 55.7 69.86 55.7 69.86 61.2"/></g><polygon class="cls-8" points="69.86 60.45 60.01 59.31 60.01 58.13 69.86 58.13 69.86 60.45"/><rect class="cls-7" x="58.36" y="31.11" width="12.8" height="27.02"/><g class="cls-10"><polygon class="cls-12" points="71.15 58.13 64.75 58.13 67.22 31.11 71.15 31.11 71.15 58.13"/></g><path class="cls-8" d="M71.15,31.71c0,1.91-2.86,3.47-6.39,3.47s-6.4-1.56-6.4-3.47,2.86-3.47,6.4-3.47S71.15,29.79,71.15,31.71Z"/><g class="cls-10"><path class="cls-12" d="M61.56,32.26,66.65,35s3.62-.38,4.42-2.76L68,30.49Z"/></g><rect class="cls-7" x="61.56" y="18.75" width="6.4" height="13.51"/><polygon class="cls-8" points="67.95 32.26 64.75 32.26 65.99 18.75 67.95 18.75 67.95 32.26"/><path class="cls-7" d="M68,18.86c0,1-1.43,1.84-3.19,1.84s-3.2-.82-3.2-1.84S63,17,64.76,17,68,17.85,68,18.86Z"/><path class="cls-6" d="M67.4,18.86c0,.84-1.18,1.52-2.64,1.52s-2.65-.68-2.65-1.52,1.18-1.51,2.65-1.51S67.4,18,67.4,18.86Z"/><path class="cls-7" d="M67.4,19c0,.7-1.18,1.27-2.64,1.27s-2.65-.57-2.65-1.27,1.18-1.27,2.65-1.27,2.56.53,2.64,1.2Z"/><path class="cls-8" d="M64.76,17.88c-1.32,0-2.38.51-2.38,1.14a.52.52,0,0,0,.07.27,1.24,1.24,0,0,0,.23.21c1.45-1.82,4.21-.63,4.21-.63l.24.08C67.06,18.35,66,17.88,64.76,17.88Z"/><path class="cls-7" d="M64.31,19.71a3.52,3.52,0,0,0,2.33-.59S66.24,20.41,64.31,19.71Z"/><rect class="cls-7" x="66.48" y="39.98" width="6.48" height="13.74"/><g class="cls-10"><rect class="cls-12" x="66.48" y="46.72" width="6.48" height="7"/></g><rect class="cls-8" x="66.48" y="40.02" width="6.48" height="0.52"/><rect class="cls-8" x="66.48" y="42.26" width="6.48" height="0.52"/><rect class="cls-8" x="66.48" y="44.5" width="6.48" height="0.52"/><rect class="cls-8" x="66.48" y="46.74" width="6.48" height="0.52"/><rect class="cls-8" x="66.48" y="48.98" width="6.48" height="0.53"/><rect class="cls-8" x="66.48" y="51.22" width="6.48" height="0.53"/><rect class="cls-8" x="66.48" y="53.22" width="6.48" height="0.53"/><path class="cls-12" d="M68.25,46.89c0,3.78,2.11,6.83,4.71,6.83s4.71-3,4.71-6.83S75.56,40.06,73,40.06,68.25,43.12,68.25,46.89Z"/><g class="cls-10"><path class="cls-11" d="M68.25,46.89c0,3.78,2.11,6.83,4.71,6.83s4.71-3,4.71-6.83S75.56,40.06,73,40.06,68.25,43.12,68.25,46.89Z"/></g><path class="cls-7" d="M68.25,46.89c0,3.78,2.11,6.83,4.71,6.83s4.71-3,4.71-6.83S75.56,40.06,73,40.06,68.25,43.12,68.25,46.89Z"/><path class="cls-7" d="M69.72,67.85l-13.65-.07L53.29,85.14,73.14,83.5ZM63.4,78.58c-2.51,0-4.55-1.46-4.55-3.26s2-3.26,4.55-3.26S68,73.52,68,75.32,65.92,78.58,63.4,78.58Z"/><polygon class="cls-8" points="63.61 70.14 68.25 71.53 68.25 70.14 63.61 70.14"/><polygon class="cls-8" points="68.25 78.34 63.61 79.05 68.25 80 68.25 78.34"/><g class="cls-10"><path class="cls-14" d="M73.88,43.25a1.75,1.75,0,0,1,1.05.37,2,2,0,0,0-1.59-.91c-1.42,0-2.57,1.9-2.57,4.25a4.93,4.93,0,0,0,1.53,3.9,5.6,5.6,0,0,1-1-3.35C71.32,45.16,72.46,43.25,73.88,43.25Z"/></g><path class="cls-7" d="M75.91,47a5.61,5.61,0,0,0-1-3.34,1.75,1.75,0,0,0-1.05-.37c-1.42,0-2.56,1.91-2.56,4.26a5.6,5.6,0,0,0,1,3.35,1.77,1.77,0,0,0,1,.36C74.76,51.22,75.91,49.32,75.91,47Z"/><g class="cls-15"><path class="cls-8" d="M74.62,43.19a5.6,5.6,0,0,1,1,3.35c0,2.35-1.15,4.26-2.57,4.26a1.72,1.72,0,0,1-1-.37,2,2,0,0,0,1.58.91c1.42,0,2.57-1.9,2.57-4.25A4.92,4.92,0,0,0,74.62,43.19Z"/></g><path class="cls-8" d="M81.46,86.52a8,8,0,0,1,6.28,5.87H95s-4.26-5.61-10.9-6.79Z"/><polygon class="cls-8" points="53.29 85.14 53.29 86.21 73.14 84.82 73.14 83.5 53.29 85.14"/><path class="cls-16" d="M66.28,75.07a.19.19,0,0,1,0-.07c0-.1.18-.35.4-.34a14.2,14.2,0,0,1,1.57.37c.1,0,.2.07.38-.13a1.18,1.18,0,0,0,.1-.43,1.93,1.93,0,0,0-.42-1.4,2.83,2.83,0,0,0-2-1.09c-.3,0-.54-.07-.73-.1a1.72,1.72,0,0,1-1-.57,4.1,4.1,0,0,0-2.4-1.59,2.33,2.33,0,0,0-3.1,1.74A2.21,2.21,0,0,0,59.3,73a.41.41,0,0,1,.05.19h0a.46.46,0,0,1-.06.23h0a.4.4,0,0,1-.14.15,2.23,2.23,0,0,0-.95,1.28,2.34,2.34,0,0,0,1.9,3A4.15,4.15,0,0,0,63,77.64a1.72,1.72,0,0,1,1.14,0,6.43,6.43,0,0,1,.69.26,2.87,2.87,0,0,0,2.31,0,1.94,1.94,0,0,0,1-1,1.09,1.09,0,0,0,.12-.41c-.06-.28-.17-.28-.27-.31a14.72,14.72,0,0,1-1.56-.41c-.19-.11-.19-.39-.18-.5a.17.17,0,0,1,0-.07Z"/><path class="cls-5" d="M66,78.38a3.27,3.27,0,0,1-1.28-.27L64,77.86a1.43,1.43,0,0,0-1,0,4.45,4.45,0,0,1-3,.26,2.89,2.89,0,0,1-1.86-1.29,2.74,2.74,0,0,1-.21-2,2.53,2.53,0,0,1,1-1.42.17.17,0,0,0,.06-.06.19.19,0,0,0,0-.1.16.16,0,0,0,0-.09,2.54,2.54,0,0,1-.24-1.75A2.7,2.7,0,0,1,60,69.73a2.81,2.81,0,0,1,2.25-.25,4.33,4.33,0,0,1,2.53,1.67,1.49,1.49,0,0,0,.85.48l.71.1a3.06,3.06,0,0,1,2.21,1.19A2.18,2.18,0,0,1,69,74.5a1.09,1.09,0,0,1-.16.56.55.55,0,0,1-.62.22l-.14,0a9.18,9.18,0,0,0-1.38-.33h0s-.12.08-.17.19l0,.11c0,.16,0,.27,0,.28a8.06,8.06,0,0,0,1.37.37l.13,0a.57.57,0,0,1,.46.49,1.07,1.07,0,0,1-.13.57,2.23,2.23,0,0,1-1.17,1.17A3.11,3.11,0,0,1,66,78.38Zm-2.42-1.1a2.17,2.17,0,0,1,.62.1c.19.07.43.15.71.27a2.63,2.63,0,0,0,2.11,0,1.69,1.69,0,0,0,.9-.9,1.82,1.82,0,0,0,.11-.3l0-.08-.17,0a10.62,10.62,0,0,1-1.49-.41A.71.71,0,0,1,66,75.2a.52.52,0,0,1,0-.11L66,75a.36.36,0,0,1,0-.11.7.7,0,0,1,.62-.49h0a9,9,0,0,1,1.51.35l.17,0a.36.36,0,0,0,.07-.07s0-.21,0-.28a1.7,1.7,0,0,0-.36-1.23,2.63,2.63,0,0,0-1.87-1,7.08,7.08,0,0,1-.74-.11,2,2,0,0,1-1.15-.65A3.94,3.94,0,0,0,62.11,70a2.39,2.39,0,0,0-1.87.19,2.22,2.22,0,0,0-.93,1.38,1.94,1.94,0,0,0,.21,1.39.68.68,0,0,1,.08.31.77.77,0,0,1-.09.36.69.69,0,0,1-.22.23A2,2,0,0,0,58.45,75a2.19,2.19,0,0,0,.16,1.65,2.38,2.38,0,0,0,1.55,1.06,3.93,3.93,0,0,0,2.72-.25A2,2,0,0,1,63.57,77.28Z"/><g class="cls-17"><path class="cls-5" d="M67.36,77.33a2.86,2.86,0,0,1-2.76.13,1.43,1.43,0,0,1-.72-1.58c0,.11-.22.58-2,1.32a3.81,3.81,0,0,1-3.44-.39,2.67,2.67,0,0,0,1.63,1.06,4.31,4.31,0,0,0,3-.31,1.31,1.31,0,0,1,.83,0c.21.07.5.16.87.32a2.87,2.87,0,0,0,2.31,0,2,2,0,0,0,1-1,1.18,1.18,0,0,0,.12-.42c-.06-.27-.17-.28-.27-.31l-.12,0A1.18,1.18,0,0,1,67.36,77.33Z"/></g><path class="cls-18" d="M63.88,75.88v0Z"/><g class="cls-17"><path class="cls-5" d="M62.17,69.69a2.33,2.33,0,0,0-3.1,1.75,2.24,2.24,0,0,0,.27,1.66v.23l-.11.19a2.28,2.28,0,0,0-1,1.34,2.34,2.34,0,0,0,1.89,3,4.31,4.31,0,0,0,3-.31,1.31,1.31,0,0,1,.83,0c.21.07.5.16.87.32a2.87,2.87,0,0,0,2.31,0,2,2,0,0,0,1-1,1.18,1.18,0,0,0,.12-.42c-.06-.27-.17-.28-.27-.31a14.72,14.72,0,0,1-1.56-.41c-.24-.13-.18-.54-.18-.54l0-.14a.77.77,0,0,1,.21-.3c-.2.07-.3.35-.3.35l0,.14s-.06.4.18.52a13.31,13.31,0,0,0,1.51.4c.09,0,.21,0,.26.3a1,1,0,0,1-.11.4,1.94,1.94,0,0,1-1,1,2.86,2.86,0,0,1-2.25,0c-.35-.15-.63-.24-.84-.31a1.25,1.25,0,0,0-.81,0,4.13,4.13,0,0,1-2.91.3,2.29,2.29,0,0,1-.83-4.22l.11-.19v-.22a2.24,2.24,0,0,1-.27-1.62,2.27,2.27,0,0,1,3-1.69,4.1,4.1,0,0,1,2.42,1.65,1.23,1.23,0,0,0,.7.41c.21,0,.5.09.89.13a2.76,2.76,0,0,1,2,1.06,1.86,1.86,0,0,1,.4,1.36,1.08,1.08,0,0,1-.09.41.33.33,0,0,1-.11.1c.08,0,.16,0,.28-.15a1.18,1.18,0,0,0,.1-.43,2,2,0,0,0-.42-1.4,2.87,2.87,0,0,0-2-1.09,7.77,7.77,0,0,1-.91-.14,1.24,1.24,0,0,1-.72-.42A4.25,4.25,0,0,0,62.17,69.69Z"/></g><path class="cls-19" d="M60.44,70.17a1.52,1.52,0,0,0-.26.14s0,.19.2,1A1.72,1.72,0,0,1,61,71a2.64,2.64,0,0,1,1.15.15,3.3,3.3,0,0,0,.05-1A2.72,2.72,0,0,0,60.44,70.17Z"/><path class="cls-19" d="M62.66,71.42a2.6,2.6,0,0,1,.72.59l.55.62.08.12V71.41a3.38,3.38,0,0,0-1.26-1A3.25,3.25,0,0,1,62.66,71.42Z"/><path class="cls-19" d="M67,73.47a1.41,1.41,0,0,1,.18.14,4.42,4.42,0,0,1,.57.63s.31.2.25-.23a2.27,2.27,0,0,0-.77-1.27v.13A1,1,0,0,1,67,73.47Z"/><path class="cls-19" d="M66.69,72.43a1.64,1.64,0,0,0-1-.13,1.39,1.39,0,0,0-.23.08v.81a2.8,2.8,0,0,1,1.26.13l0-.07A1.12,1.12,0,0,0,66.69,72.43Z"/><path class="cls-20" d="M64,69.33"/><path class="cls-20" d="M64.78,71.78"/><path class="cls-21" d="M63.07,77.45"/><polygon class="cls-19" points="58.07 74.53 58.73 75.38 59.72 74.93 58.87 75.59 59.32 76.58 58.65 75.72 57.67 76.18 58.52 75.51 58.07 74.53"/><polygon class="cls-19" points="59.32 75.7 58.74 75.63 58.54 76.18 58.61 75.6 58.06 75.4 58.64 75.47 58.84 74.92 58.77 75.5 59.32 75.7"/><path class="cls-22" d="M61.09,72.15s0-.12.39-.46a1.33,1.33,0,0,0-.54.37Z"/><path class="cls-22" d="M60.3,75.39a1.41,1.41,0,0,0,.12.58,1.29,1.29,0,0,1-.29-.58A1,1,0,0,0,60.3,75.39Z"/><path class="cls-23" d="M61.5,75a.28.28,0,0,1,.21.34.3.3,0,0,1-.35.21.29.29,0,0,1-.2-.35A.27.27,0,0,1,61.5,75Z"/><path class="cls-16" d="M61.29,75.27a.08.08,0,0,1,.06.09.07.07,0,1,1-.14,0A.07.07,0,0,1,61.29,75.27Z"/><path class="cls-16" d="M61.36,75.18s0,0,0,0a0,0,0,1,1-.08,0S61.34,75.17,61.36,75.18Z"/><path class="cls-23" d="M62.14,72.47a.28.28,0,0,1,.21.34.29.29,0,1,1-.56-.14A.29.29,0,0,1,62.14,72.47Z"/><path class="cls-16" d="M61.93,72.76a.07.07,0,0,1,0,.09.07.07,0,0,1-.08.05.08.08,0,0,1-.06-.09A.07.07,0,0,1,61.93,72.76Z"/><path class="cls-16" d="M62,72.67a.05.05,0,0,1,0,0s0,0-.05,0a0,0,0,0,1,0,0A0,0,0,0,1,62,72.67Z"/><path class="cls-16" d="M63.18,73.21a1.1,1.1,0,0,1,.42,1.2c-.14.56-.71.9-.94.84s.21-.49.34-1S63.06,73.18,63.18,73.21Z"/><path class="cls-24" d="M62.71,75.51l-.11,0-.12,0-.07-.13c-.07-.15,0-.29.11-.54a2.6,2.6,0,0,0,.32-1.25c0-.27,0-.44.16-.54l.1-.06.14,0a1.31,1.31,0,0,1,.6,1.5A1.39,1.39,0,0,1,62.71,75.51Zm.62-1.72a3.92,3.92,0,0,1-.09.53,2.46,2.46,0,0,1-.18.5.9.9,0,0,0,.3-.48A1,1,0,0,0,63.33,73.79Z"/></g></g></svg>