<svg xmlns="http://www.w3.org/2000/svg" viewBox="0 0 145.58 133"><defs><style>.cls-1{fill:#b04687;}.cls-2{fill:#229bbc;}.cls-3{fill:#f2a951;}.cls-4{fill:#fff;}.cls-5{fill:#139ab0;}.cls-6{fill:#13181b;}.cls-7{fill:#e8f5f8;}.cls-8{fill:none;stroke:#e4eaea;stroke-linecap:round;stroke-miterlimit:10;stroke-width:3px;}.cls-9{fill:#848887;}.cls-10{fill:#5a595d;}.cls-11{fill:#383838;}.cls-12{opacity:0.6;}.cls-13{fill:#eb5032;}.cls-14{fill:#1d1d1b;}</style></defs><title>Преимущество 3</title><g id="Слой_4" data-name="Слой 4"><path class="cls-1" d="M134.86,75.31a6,6,0,0,0,4.47-1,9.49,9.49,0,0,0,2-1.73,19.47,19.47,0,0,0,1.64-2.16A26.18,26.18,0,0,0,145,66.09c.41-1.2.59-2,.59-2s-.75.34-1.83.92c-.55.29-1.16.65-1.85,1.06s-1.41.86-2.12,1.36A18.53,18.53,0,0,0,136,70.89l-.13.19c.5-2.32.91-4.67,1.22-7a5.81,5.81,0,0,0,3.51-1.46,10,10,0,0,0,.86-.86,9,9,0,0,0,.74-1,15.43,15.43,0,0,0,1.22-2.18c.17-.38.33-.76.48-1.13s.26-.72.37-1.07c.23-.7.4-1.35.54-1.92a15.06,15.06,0,0,0,.36-1.89s-.67.36-1.66,1A29.4,29.4,0,0,0,140,56.1a17.46,17.46,0,0,0-1.74,1.7,9.46,9.46,0,0,0-.64.78q.18-3,.08-6a5.49,5.49,0,0,0,2.47-1.49,9.08,9.08,0,0,0,1.37-1.84,13.5,13.5,0,0,0,.93-2.17,13.65,13.65,0,0,0,.6-2.2c.13-.72.22-1.39.28-2s.09-1.07.11-1.4a4.64,4.64,0,0,0,0-.54l-.4.3-1.07.81a32.27,32.27,0,0,0-3.07,2.78c-.26.28-.51.57-.76.87s-.51.6-.73.91l-.19.26a52.87,52.87,0,0,0-1.07-5.67,4.79,4.79,0,0,0,2.17-1.69,9,9,0,0,0,1.52-4.2c0-.39.1-.77.12-1.15s0-.75,0-1.12c0-.72-.08-1.4-.14-2a9.26,9.26,0,0,0-.23-1.39c-.08-.34-.13-.53-.13-.53s-.47.49-1.12,1.28a30.22,30.22,0,0,0-2.35,3.1,17.59,17.59,0,0,0-1,1.9,8.11,8.11,0,0,0-.34.74,53.13,53.13,0,0,0-2.57-6,4,4,0,0,0,2.06-2.13,9.16,9.16,0,0,0,.38-4.26,20.75,20.75,0,0,0-1.09-4c-.45-1.05-.82-1.74-.82-1.74s-.33.52-.77,1.37c-.21.42-.45.92-.69,1.47s-.5,1.17-.72,1.8a13.73,13.73,0,0,0-.55,2,8.72,8.72,0,0,0-.13,1l0,.36A51.39,51.39,0,0,0,125.14,20a3.28,3.28,0,0,0,1.12-.91,3.53,3.53,0,0,0,.64-1.61,6.43,6.43,0,0,0,0-1.95,8.92,8.92,0,0,0-.55-2.07,22.76,22.76,0,0,0-1.8-3.57c-.61-.91-1.07-1.5-1.07-1.5A13.37,13.37,0,0,0,123,9.73a21.28,21.28,0,0,0-.72,3.24,9.69,9.69,0,0,0,.17,3.83c0,.08,0,.17.08.26-1.94-2-4-4-6.37-6.12,2.29-1.29,1.67-4,.38-6.46a21.32,21.32,0,0,0-2.13-3.14C113.71.52,113.22,0,113.22,0a16.67,16.67,0,0,0-.62,4.47,9.84,9.84,0,0,0,.7,3.59,5.64,5.64,0,0,0,.36.69h0a35.91,35.91,0,0,0-5.79-3.8C122.5,17.2,133.67,32,135.33,49c.61,6.17-.14,12.33-1.1,18.45-1.08,6.91-2.82,13.8-6.4,20.2a64.11,64.11,0,0,1-23,24s-15.07,7.56-31.22,7.73H71.92c-16-.24-31.22-7.73-31.22-7.73a64.33,64.33,0,0,1-23-24c-3.58-6.4-5.32-13.29-6.4-20.2-1-6.12-1.7-12.28-1.1-18.45C11.91,32,23.08,17.19,37.71,4.94a36.38,36.38,0,0,0-5.79,3.8h0a6.38,6.38,0,0,0,.35-.69A9.44,9.44,0,0,0,33,4.47,16.67,16.67,0,0,0,32.35,0s-.49.52-1.14,1.34a21.32,21.32,0,0,0-2.14,3.14c-1.29,2.46-1.9,5.17.39,6.46C27.14,13,25,15,23.09,17.05l.07-.25A9.51,9.51,0,0,0,23.33,13a22.7,22.7,0,0,0-.71-3.24c-.26-.84-.49-1.37-.49-1.37s-.46.59-1.06,1.5a21.16,21.16,0,0,0-1.8,3.57,8.47,8.47,0,0,0-.56,2.07,7.14,7.14,0,0,0,0,1.95,3.54,3.54,0,0,0,.65,1.61,3.24,3.24,0,0,0,1.11.91A52.44,52.44,0,0,0,15.92,26c0-.13,0-.25,0-.36a8.75,8.75,0,0,0-.14-1,13.69,13.69,0,0,0-.54-2c-.22-.63-.5-1.25-.73-1.8s-.47-1-.69-1.47A15.71,15.71,0,0,0,13,18.06s-.36.69-.81,1.74a20.52,20.52,0,0,0-1.1,4,9.15,9.15,0,0,0,.39,4.26,4,4,0,0,0,2.05,2.13,53.13,53.13,0,0,0-2.56,6c-.11-.25-.22-.49-.34-.74a16.11,16.11,0,0,0-1.06-1.9,31.81,31.81,0,0,0-2.34-3.1c-.65-.79-1.13-1.28-1.13-1.28s0,.19-.13.53a10.76,10.76,0,0,0-.23,1.39c-.06.58-.11,1.26-.13,2,0,.37,0,.74,0,1.12a11.57,11.57,0,0,0,.13,1.15,9,9,0,0,0,1.52,4.2,4.74,4.74,0,0,0,2.17,1.69,50.55,50.55,0,0,0-1.08,5.67l-.18-.26c-.23-.31-.48-.61-.73-.91s-.51-.59-.77-.87a30,30,0,0,0-3.07-2.78l-1.07-.81-.4-.3s0,.2,0,.54.05.82.12,1.39.14,1.25.27,2a14.76,14.76,0,0,0,.6,2.2,14.5,14.5,0,0,0,.94,2.17,8.73,8.73,0,0,0,1.37,1.84,5.46,5.46,0,0,0,2.46,1.49q-.09,3,.08,6c-.2-.26-.41-.52-.64-.77a16.44,16.44,0,0,0-1.74-1.7,28.62,28.62,0,0,0-3.52-2.55c-1-.62-1.65-1-1.65-1a15.06,15.06,0,0,0,.36,1.89c.13.57.31,1.22.53,1.92.12.35.24.71.37,1.07s.32.75.49,1.13a16,16,0,0,0,1.21,2.18,10.47,10.47,0,0,0,.74,1,9.92,9.92,0,0,0,.87.85A5.76,5.76,0,0,0,8.5,64.06c.31,2.35.72,4.7,1.21,7a2.14,2.14,0,0,0-.13-.19,18.27,18.27,0,0,0-3.79-3.47c-.71-.5-1.43-1-2.12-1.36S2.37,65.29,1.82,65C.74,64.41,0,64.08,0,64.08s.18.81.58,2a26.31,26.31,0,0,0,2.06,4.28,19.17,19.17,0,0,0,1.64,2.16,9.44,9.44,0,0,0,2,1.73,6.05,6.05,0,0,0,4.47,1c.07.3.15.59.23.88a54.72,54.72,0,0,0,2,6.16c-.15-.16-.3-.31-.46-.46-.33-.3-.68-.58-1.05-.86s-.73-.55-1.12-.81A23.38,23.38,0,0,0,7.9,78.8c-.82-.44-1.68-.82-2.43-1.17S4,77,3.39,76.74c-1.22-.49-2-.76-2-.76s.35.83,1,2A20.41,20.41,0,0,0,3.6,80a25.61,25.61,0,0,0,1.7,2.21,19.67,19.67,0,0,0,2.16,2,11.46,11.46,0,0,0,1.16.85l.6.37c.21.11.42.22.63.31a6.49,6.49,0,0,0,4.84.44,49.86,49.86,0,0,0,3.94,6.61q-.36-.27-.75-.51c-.41-.25-.85-.49-1.29-.72s-.87-.45-1.32-.66c-.91-.41-1.87-.77-2.82-1.09L11,89.41,9.7,89c-.85-.25-1.65-.46-2.33-.63C6,88,5.1,87.87,5.1,87.87s.56.82,1.5,2a19.83,19.83,0,0,0,1.78,1.91c.7.67,1.47,1.37,2.28,2a23.27,23.27,0,0,0,2.73,1.74,14,14,0,0,0,1.4.69,8.86,8.86,0,0,0,1.42.5,6.64,6.64,0,0,0,5.09-.37c1.47,1.83,3,3.68,4.66,5.48l-.2-.08c-.24-.1-.48-.18-.73-.27l-.73-.26c-.49-.17-1-.31-1.51-.45-1-.27-2.1-.48-3.15-.65s-2.05-.33-3-.45-1.8-.21-2.54-.28c-1.48-.13-2.44-.16-2.44-.16s.78.75,2.05,1.78l1,.82c.38.28.81.55,1.25.84.89.57,1.85,1.15,2.85,1.68.26.13.5.27.77.39l.8.34c.54.22,1.08.43,1.62.6a16.28,16.28,0,0,0,3.15.75,7.11,7.11,0,0,0,4.46-.77q2,1.95,4.21,3.74c-.44-.07-.89-.13-1.35-.17-1.1-.11-2.27-.13-3.33-.18-2.15-.06-4.22,0-5.74.14-.77,0-1.4.11-1.84.15l-.67.06.17.12c.11.08.29.17.5.3.44.26,1.07.62,1.85,1s1.68.88,2.68,1.34,2.15.85,3.29,1.22c.57.19,1.16.36,1.73.51l.87.22.88.16a18.21,18.21,0,0,0,3.37.26,7.45,7.45,0,0,0,3.68-.93c.55.33,1.1.64,1.66.93a.43.43,0,0,0,.3.07,71.63,71.63,0,0,0,24.72,7.68c-6.19,1.15-13.47,2.42-21.2,3.59L37.11,133s18.77-6.25,36.28-10.24c17.51,4,36.27,10.24,36.27,10.24l-8.34-7.1c-7.92-1.2-15.37-2.51-21.67-3.68a62.34,62.34,0,0,0,24.06-7.59.46.46,0,0,0,.23-.07c.56-.29,1.12-.6,1.67-.93a7.41,7.41,0,0,0,3.67.93,18.21,18.21,0,0,0,3.37-.26l.88-.16.87-.22c.58-.15,1.16-.32,1.73-.51,1.14-.37,2.27-.79,3.3-1.21s1.91-.93,2.68-1.35,1.4-.77,1.84-1l.51-.3.16-.12-.67-.06c-.44,0-1.07-.1-1.83-.15-1.53-.11-3.59-.2-5.75-.14-1.06,0-2.22.07-3.33.18-.45,0-.9.1-1.35.17q2.19-1.79,4.22-3.74a7.07,7.07,0,0,0,4.45.77,16.11,16.11,0,0,0,3.15-.75c.54-.17,1.08-.38,1.62-.6l.81-.34c.26-.12.51-.26.76-.39,1-.53,2-1.11,2.86-1.68.44-.29.87-.56,1.25-.84s.72-.56,1-.82c1.27-1,2-1.78,2-1.78s-1,0-2.43.17c-.75.06-1.61.15-2.54.27s-1.91.29-3,.45-2.11.38-3.15.65q-.77.21-1.5.45l-.73.26c-.25.09-.5.17-.74.27l-.2.08c1.64-1.8,3.2-3.65,4.66-5.48a6.66,6.66,0,0,0,5.1.37,9.22,9.22,0,0,0,1.42-.5,15.1,15.1,0,0,0,1.4-.69,22.36,22.36,0,0,0,2.72-1.74c.82-.66,1.59-1.36,2.28-2A18.63,18.63,0,0,0,139,89.85c.95-1.16,1.5-2,1.5-2s-.9.17-2.26.51c-.69.17-1.49.38-2.34.63-.42.13-.86.27-1.33.4l-1.41.46A30.09,30.09,0,0,0,130.3,91c-.45.21-.9.43-1.32.66s-.87.47-1.28.72a8.21,8.21,0,0,0-.75.51,49.78,49.78,0,0,0,3.93-6.61,6.48,6.48,0,0,0,4.84-.44c.21-.09.43-.2.64-.31l.59-.37a10.44,10.44,0,0,0,1.16-.85,20.71,20.71,0,0,0,2.17-2A25.61,25.61,0,0,0,142,80a20.17,20.17,0,0,0,1.27-2c.64-1.2,1-2,1-2s-.83.27-2.05.76c-.62.24-1.33.54-2.09.89s-1.61.74-2.43,1.17a24.47,24.47,0,0,0-2.43,1.42c-.39.26-.74.53-1.11.81s-.73.56-1.06.86c-.15.15-.31.3-.46.46a54.78,54.78,0,0,0,2-6.16C134.71,75.9,134.79,75.61,134.86,75.31Z"/><path class="cls-2" d="M72.79,1.28a57.16,57.16,0,1,0,57.15,57.15A57.16,57.16,0,0,0,72.79,1.28Zm0,104a46.84,46.84,0,1,1,46.83-46.84A46.84,46.84,0,0,1,72.79,105.27Z"/><polygon class="cls-3" points="72.79 3.45 71.66 5.74 69.13 6.1 70.96 7.89 70.53 10.4 72.79 9.21 75.05 10.4 74.61 7.89 76.45 6.1 73.92 5.74 72.79 3.45"/><polygon class="cls-3" points="111.67 19.55 109.25 20.37 107.2 18.84 107.24 21.4 105.15 22.87 107.59 23.63 108.35 26.07 109.82 23.98 112.37 24.02 110.85 21.97 111.67 19.55"/><polygon class="cls-3" points="127.77 58.43 125.48 57.3 125.12 54.78 123.33 56.61 120.82 56.17 122 58.43 120.82 60.69 123.33 60.26 125.11 62.09 125.48 59.56 127.77 58.43"/><polygon class="cls-3" points="111.67 97.31 110.85 94.9 112.37 92.85 109.82 92.88 108.35 90.8 107.59 93.24 105.15 93.99 107.24 95.47 107.2 98.02 109.25 96.49 111.67 97.31"/><polygon class="cls-3" points="72.79 113.42 73.92 111.13 76.44 110.76 74.61 108.98 75.05 106.46 72.78 107.65 70.53 106.46 70.96 108.98 69.13 110.76 71.66 111.13 72.79 113.42"/><polygon class="cls-3" points="33.91 97.31 36.32 96.49 38.37 98.02 38.34 95.47 40.42 93.99 37.98 93.23 37.23 90.8 35.75 92.88 33.2 92.85 34.73 94.9 33.91 97.31"/><polygon class="cls-3" points="17.8 58.43 20.09 59.56 20.45 62.09 22.24 60.26 24.76 60.69 23.57 58.43 24.76 56.17 22.24 56.6 20.46 54.77 20.09 57.3 17.8 58.43"/><polygon class="cls-3" points="33.91 19.55 34.73 21.97 33.2 24.01 35.75 23.98 37.23 26.07 37.99 23.63 40.42 22.87 38.34 21.4 38.37 18.84 36.32 20.37 33.91 19.55"/></g><g id="Слой_2" data-name="Слой 2"><path class="cls-4" d="M110.73,64.05c3.74-7.62.71-13.61-5.22-16.51A10.88,10.88,0,0,0,97.8,47a2.16,2.16,0,0,1-2-.45,2.33,2.33,0,0,1-.57-.82A10.88,10.88,0,0,0,90.08,40c-5.93-2.9-12.52-1.63-16.25,6-2.15,4.4-2.65,7.65-1.66,13.94a8.34,8.34,0,0,1-1,5.42.71.71,0,0,1,.31.1l3.69,2.45a73.79,73.79,0,0,0,17.29,8.47l4.16,1.4a.66.66,0,0,1,.41.39l0-.05a8.39,8.39,0,0,1,3.69-4.19C106.31,70.84,108.58,68.45,110.73,64.05Z"/><path class="cls-5" d="M97,78.5a.38.38,0,0,1-.36-.21.28.28,0,0,0-.17-.17l-4.17-1.41A74,74,0,0,1,75,68.2l-3.69-2.45a.28.28,0,0,0-.13,0,.38.38,0,0,1-.3-.2.36.36,0,0,1,0-.36,8,8,0,0,0,1-5.17c-1-6.13-.55-9.58,1.69-14.17,4.19-8.55,11.4-8.79,16.75-6.17a11.15,11.15,0,0,1,5.31,6,1.84,1.84,0,0,0,.47.68,1.78,1.78,0,0,0,.85.41,1.81,1.81,0,0,0,.83,0,11.16,11.16,0,0,1,8,.52c5.35,2.63,9.58,8.47,5.39,17h0c-2.25,4.59-4.72,7-10.16,10a8,8,0,0,0-3.52,4,.43.43,0,0,1-.36.26ZM71.69,65.14l3.67,2.44A73.66,73.66,0,0,0,92.57,76l4.16,1.41.17.07a8.76,8.76,0,0,1,3.65-3.89c5.35-3,7.65-5.22,9.85-9.7h0c3.94-8,0-13.55-5.05-16a10.42,10.42,0,0,0-7.45-.48,2.59,2.59,0,0,1-1.17.06,2.55,2.55,0,0,1-1.21-.59,2.76,2.76,0,0,1-.67-1,10.39,10.39,0,0,0-4.94-5.59c-5-2.47-11.8-2.23-15.74,5.82-2.2,4.49-2.58,7.69-1.63,13.72A8.71,8.71,0,0,1,71.69,65.14Z"/><path class="cls-6" d="M100.6,56.68s.52.22,1.8,2.27A6.53,6.53,0,0,0,101.16,56C101.1,56.15,100.6,56.68,100.6,56.68Z"/><path class="cls-6" d="M85.59,49s-.5-.27-2.91,0a6.61,6.61,0,0,1,3.07-.8A8.34,8.34,0,0,0,85.59,49Z"/><path class="cls-7" d="M109.81,55.11a8.39,8.39,0,0,0-.43-1.38c-.17-.15-.94.05-4.93,0a8.53,8.53,0,0,1,.63,3.27,12.89,12.89,0,0,1-1.86,5.31,16.24,16.24,0,0,0,4.65,1.24C109.89,59.54,110.15,56.62,109.81,55.11Z"/><path class="cls-7" d="M101.63,64.44a14.09,14.09,0,0,1-3.56,2.86c-1.81,1-2.88,1.63-3.5,2-.12.07-.64.26-.64.26l6.35,1.42a16.08,16.08,0,0,0,6.11-5A16.88,16.88,0,0,1,101.63,64.44Z"/><path class="cls-8" d="M72.46,60.38"/><polygon class="cls-7" points="111.41 47.37 107.89 49.1 108.77 52.93 107.04 49.41 103.22 50.28 106.73 48.55 105.86 44.73 107.59 48.25 111.41 47.37"/><polygon class="cls-7" points="106.56 51.07 107.16 49.3 105.58 48.31 107.34 48.91 108.33 47.34 107.73 49.1 109.31 50.09 107.55 49.49 106.56 51.07"/><path class="cls-9" d="M74.53,85.08c1.41.75,2.74,1.38,4.37,2.08a.7.7,0,0,0,.9-.35l.62-1.28a.69.69,0,0,0-.33-1c-1.45-.64-2.82-1.33-4.23-2.1a.71.71,0,0,0-1,.32l-.66,1.35A.7.7,0,0,0,74.53,85.08Z"/><path class="cls-10" d="M73.11,82.27a63.39,63.39,0,0,0,8.77,4.24.7.7,0,0,0,.89-.36l.68-1.37a.7.7,0,0,0-.36-1,61.15,61.15,0,0,1-8.55-4.23.7.7,0,0,0-1,.31l-.71,1.45A.71.71,0,0,0,73.11,82.27Z"/><path class="cls-9" d="M72.34,78.75A69.45,69.45,0,0,0,85,84.9a.71.71,0,0,0,.89-.35l.69-1.42a.7.7,0,0,0-.38-1,63.8,63.8,0,0,1-12.36-6.08.7.7,0,0,0-1,.3l-.71,1.45A.72.72,0,0,0,72.34,78.75Z"/><path class="cls-10" d="M88.89,83.32l-1.73-.58h0c-6.87-2.76-8.78-3.61-14.42-7.06l-1.54-1a.72.72,0,0,1-.23-.9l.71-1.44a.7.7,0,0,1,1-.29l1.4.93A66.34,66.34,0,0,0,88.5,80l1.56.52a.7.7,0,0,1,.39,1L89.75,83A.72.72,0,0,1,88.89,83.32Z"/><path class="cls-9" d="M92.58,80.87a.71.71,0,0,1-.85.37l-2.09-.69a70.38,70.38,0,0,1-16.5-8.08l-1.83-1.23a.7.7,0,0,1-.23-.9L71.74,69a.7.7,0,0,1,1-.29l1.69,1.13a70.18,70.18,0,0,0,16.5,8.08l1.9.63a.7.7,0,0,1,.39,1Z"/><path class="cls-10" d="M95.56,79.81l-4.35-1.47a73.79,73.79,0,0,1-17.29-8.47L70.1,67.33a.7.7,0,0,1-.24-.89L70.57,65a.7.7,0,0,1,1-.29l3.69,2.45a74.19,74.19,0,0,0,17.29,8.47L96.73,77a.7.7,0,0,1,.39,1l-.71,1.45A.71.71,0,0,1,95.56,79.81Z"/><path class="cls-11" d="M95.76,79.39l-4.35-1.47a74,74,0,0,1-17.29-8.47L70.3,66.92a.7.7,0,0,1-.23-.9l-.21.42a.7.7,0,0,0,.24.89l3.82,2.54a73.79,73.79,0,0,0,17.29,8.47l4.35,1.47a.71.71,0,0,0,.85-.37l.2-.42A.7.7,0,0,1,95.76,79.39Z"/><g class="cls-12"><path class="cls-11" d="M91.93,80.82l-2.09-.69a70.57,70.57,0,0,1-16.5-8.08l-1.82-1.23a.7.7,0,0,1-.23-.9l-.21.42a.7.7,0,0,0,.23.9l1.83,1.23a70.38,70.38,0,0,0,16.5,8.08l2.09.69a.71.71,0,0,0,.85-.37l.2-.42A.71.71,0,0,1,91.93,80.82Z"/></g><path class="cls-4" d="M71.18,71.83a1.52,1.52,0,0,1-.9-.3,1.5,1.5,0,0,1-.39-2,5.81,5.81,0,0,1-2.77-6.79,6.36,6.36,0,0,1,8-4,1.5,1.5,0,1,1-.83,2.88,3.36,3.36,0,0,0-4.29,2c-.84,2.91,2.55,3.95,2.58,4a1.5,1.5,0,0,1,.79,2.34l-1,1.31A1.46,1.46,0,0,1,71.18,71.83Z"/><polygon class="cls-4" points="88.81 78.88 90.23 77.5 89.2 75.8 90.59 77.22 92.29 76.19 90.87 77.58 91.89 79.28 90.51 77.86 88.81 78.88"/><path class="cls-11" d="M89.1,82.9l-1.73-.58h0c-6.86-2.75-8.77-3.61-14.41-7.06l-1.54-1a.7.7,0,0,1-.23-.9l-.21.42a.72.72,0,0,0,.23.9l1.54,1c5.64,3.45,7.55,4.3,14.42,7.06h0l1.73.58a.72.72,0,0,0,.86-.37l.2-.42A.7.7,0,0,1,89.1,82.9Z"/><g class="cls-12"><path class="cls-11" d="M85.15,84.48a69,69,0,0,1-12.6-6.15.71.71,0,0,1-.26-.92l-.2.42a.72.72,0,0,0,.25.92A69.45,69.45,0,0,0,85,84.9a.71.71,0,0,0,.89-.35l.2-.42A.7.7,0,0,1,85.15,84.48Z"/></g><path class="cls-11" d="M82.09,86.09a64,64,0,0,1-8.77-4.23.72.72,0,0,1-.27-.92l-.2.41a.71.71,0,0,0,.26.92,63.39,63.39,0,0,0,8.77,4.24.7.7,0,0,0,.89-.36l.21-.42A.7.7,0,0,1,82.09,86.09Z"/><g class="cls-12"><path class="cls-11" d="M79.1,86.74c-1.62-.7-2.95-1.33-4.37-2.08a.71.71,0,0,1-.28-.93l-.21.42a.7.7,0,0,0,.29.93c1.41.75,2.74,1.38,4.37,2.08a.7.7,0,0,0,.9-.35l.2-.42A.69.69,0,0,1,79.1,86.74Z"/></g><path class="cls-6" d="M82,59.14,84,60.3a3.11,3.11,0,0,0,4.27-1l.44-.84a2.57,2.57,0,0,0-.13-1.83,4.31,4.31,0,0,0-1.39-1.26L81,51.7a.47.47,0,0,0-.66.15l-.1.16A5.19,5.19,0,0,0,82,59.14Z"/><path class="cls-6" d="M95.06,66.16l-2-1a3.1,3.1,0,0,1-1.47-4.14l.45-.83a2.56,2.56,0,0,1,1.6-.91,4.27,4.27,0,0,1,1.82.47l6.4,3.12a.47.47,0,0,1,.24.63l-.09.18A5.19,5.19,0,0,1,95.06,66.16Z"/><path class="cls-6" d="M91.53,62a3,3,0,0,0-3.7-2l-1.19-.72.68-1.21.28.92-.19-.94a4.93,4.93,0,0,1,6,3.28ZM87.61,59l.3.95Z"/><polygon class="cls-4" points="81.87 55.34 82.08 53.97 83.47 53.85 82.1 53.64 81.98 52.25 81.77 53.63 80.38 53.74 81.76 53.95 81.87 55.34"/><g class="cls-12"><rect class="cls-4" x="97.69" y="60.41" width="0.96" height="8.08" transform="translate(96.61 -52.98) rotate(55.95)"/></g><g class="cls-12"><rect class="cls-4" x="97.04" y="59.67" width="0.24" height="8.08" transform="translate(95.56 -52.46) rotate(55.95)"/></g><g class="cls-12"><rect class="cls-4" x="84.74" y="53.44" width="0.96" height="8.08" transform="translate(85.14 -45.32) rotate(55.95)"/></g><g class="cls-12"><rect class="cls-4" x="84.09" y="52.71" width="0.24" height="8.08" transform="translate(84.09 -44.8) rotate(55.95)"/></g><path class="cls-4" d="M89.65,67.33c-.44.79-2.8,1.49-4.65.46s-2.5-3.41-2.06-4.2c.23-.4,1.52,1.22,3.2,2.15S89.87,66.93,89.65,67.33Z"/><path class="cls-13" d="M87.08,68.81a4.81,4.81,0,0,1-2.33-.59c-2-1.14-2.84-3.81-2.24-4.88l.11-.2.31-.11c.42-.06.77.23,1.47.82a9.79,9.79,0,0,0,4.26,2.38c.87.28,1.31.43,1.47.81l.08.22-.12.31h0a3,3,0,0,1-2.16,1.17A6,6,0,0,1,87.08,68.81ZM83.3,64.24a3.76,3.76,0,0,0,4.47,3.51,3.12,3.12,0,0,0,1.13-.39l-.56-.18a14.4,14.4,0,0,1-2.45-1,14.19,14.19,0,0,1-2.13-1.56C83.61,64.49,83.45,64.35,83.3,64.24Zm5.91,2.84Z"/><path class="cls-4" d="M101.8,76.79a7.71,7.71,0,0,1-4.68-1.23A1,1,0,0,1,98.36,74c.08.06,3.06,2.15,9.76-.67a1,1,0,1,1,.78,1.84A18.32,18.32,0,0,1,101.8,76.79Z"/></g><g id="Слой_3" data-name="Слой 3"><path class="cls-4" d="M81,47.69c0-9.21-5.81-13.6-13-13.6a11.8,11.8,0,0,0-7.76,3.19,2.42,2.42,0,0,1-1,.53,2.37,2.37,0,0,1-1.24,0,2.29,2.29,0,0,1-.95-.53,11.82,11.82,0,0,0-7.76-3.19c-7.17,0-13,4.39-13,13.6,0,5.32,1.07,8.73,5,14.38A9.08,9.08,0,0,1,43,67.83a.81.81,0,0,1,.35,0l4.76.63a79.91,79.91,0,0,0,20.9,0l4.73-.62a.74.74,0,0,1,.58.18v0a9,9,0,0,1,1.6-5.85C79.9,56.42,81,53,81,47.69Z"/><path class="cls-5" d="M58.56,69.47a80.1,80.1,0,0,1-10.49-.68l-4.76-.63a.52.52,0,0,0-.17,0,.34.34,0,0,1-.35-.05.36.36,0,0,1-.15-.32,8.75,8.75,0,0,0-1.54-5.52C37.23,56.78,36,53.23,36,47.69c0-10.31,6.9-14,13.35-14a12.1,12.1,0,0,1,8,3.29,1.94,1.94,0,0,0,.8.45,2,2,0,0,0,1,0A2,2,0,0,0,60,37a12.1,12.1,0,0,1,8-3.29c6.45,0,13.34,3.67,13.34,14,0,5.54-1.24,9.09-5.1,14.6a8.66,8.66,0,0,0-1.54,5.6.43.43,0,0,1-.2.39.38.38,0,0,1-.42,0,.32.32,0,0,0-.28-.08l-4.73.62A82.18,82.18,0,0,1,58.56,69.47Zm-15.16-2h0l4.77.63A80,80,0,0,0,69,68l4.73-.62a.88.88,0,0,1,.23,0,9.51,9.51,0,0,1,1.69-5.56c3.81-5.43,5-8.74,5-14.17,0-9.75-6.5-13.23-12.59-13.23a11.33,11.33,0,0,0-7.51,3.1,2.67,2.67,0,0,1-1.1.61,2.71,2.71,0,0,1-1.44,0,2.67,2.67,0,0,1-1.1-.61,11.35,11.35,0,0,0-7.51-3.1c-6.09,0-12.6,3.48-12.6,13.23,0,5.43,1.16,8.74,5,14.17A9.45,9.45,0,0,1,43.4,67.42Z"/><path class="cls-6" d="M68.05,45.2s.61,0,2.85,1.36a7.25,7.25,0,0,0-2.61-2.25C68.28,44.45,68.05,45.2,68.05,45.2Z"/><path class="cls-6" d="M49.76,44.9s-.62,0-2.85,1.35A7.24,7.24,0,0,1,49.52,44,8.29,8.29,0,0,0,49.76,44.9Z"/><path class="cls-7" d="M76.28,39.28a8.75,8.75,0,0,0-1.08-1.15c-.24-.06-.9.5-4.82,2.34a9.14,9.14,0,0,1,2.18,2.89,14,14,0,0,1,.72,6.06,17.63,17.63,0,0,0,5.13-1C78.47,43.56,77.33,40.58,76.28,39.28Z"/><path class="cls-7" d="M72.76,52.27a15.27,15.27,0,0,1-2.1,4.5c-1.28,1.87-2,3-2.48,3.58-.08.12-.5.56-.5.56l6.87-1.65a17.45,17.45,0,0,0,3.58-7.77A17.46,17.46,0,0,1,72.76,52.27Z"/><path class="cls-8" d="M42.39,62.24"/><polygon class="cls-7" points="50.85 32.79 47.36 37.32 50.95 41.77 46.43 38.27 41.98 41.87 45.48 37.34 41.88 32.89 46.41 36.39 50.85 32.79"/><polygon class="cls-7" points="46.45 40.76 46.06 37.69 42.99 37.37 46.05 36.98 46.38 33.91 46.77 36.97 49.84 37.29 46.78 37.69 46.45 40.76"/><path class="cls-7" d="M37.93,43.44h0Z"/><path class="cls-7" d="M44.23,66.78l1.76.27a6.82,6.82,0,0,1,5.92-3.35c-.59,0-3.1-.35-8.93-8.06C38.73,50,39.37,43,40.37,39a11.75,11.75,0,0,0-2.8,8c.2,8.88,2,9.94,5.23,14.94.79,1.21.83,2.11,1.13,3.93a2.65,2.65,0,0,1,0,.9A.55.55,0,0,1,44.23,66.78Z"/><path class="cls-7" d="M51.91,63.7l.14,0Z"/><path class="cls-7" d="M80.35,47.77c0-8.81-5.56-13-12.41-13a11.43,11.43,0,0,0-7.81,3.42l-1.11.3-1.11-.3a11.43,11.43,0,0,0-7.81-3.42,12.16,12.16,0,0,0-9.58,4.93A11.67,11.67,0,0,1,50,35.52a11.14,11.14,0,0,1,7.59,3.32l1.07.3,1.08-.3a11.11,11.11,0,0,1,7.58-3.32c6.65,0,12,4.08,12,12.62,0,5.12-1.07,8.33-5.09,13.93A6.19,6.19,0,0,0,73.13,66c0,.35,0,.27.07.71l.25,0c.21,0,.32-.1.47,0,0-.43,0-.24,0-.59a6.36,6.36,0,0,1,1.17-4.05C79.25,56.35,80.35,53,80.35,47.77Z"/><path class="cls-13" d="M59.45,59.8a6.94,6.94,0,0,1-.91,0,6.5,6.5,0,0,1-4.92-3l.87-.48a5.56,5.56,0,0,0,4.17,2.46,5.1,5.1,0,0,0,4.65-1.55l.81.6A5.83,5.83,0,0,1,59.45,59.8Z"/><path class="cls-13" d="M54.19,57.64l-1-.08c0-.08.18-2,1.54-2.32l.23,1C54.41,56.35,54.21,57.38,54.19,57.64Z"/><path class="cls-9" d="M56.2,85.33c1.74.07,3.33,0,5.25,0a.76.76,0,0,0,.71-.77V83a.76.76,0,0,0-.78-.77c-1.72.07-3.38.06-5.12,0a.76.76,0,0,0-.79.77v1.62A.76.76,0,0,0,56.2,85.33Z"/><path class="cls-10" d="M53.48,83.28a69.35,69.35,0,0,0,10.57-.06.77.77,0,0,0,.7-.78V80.79a.76.76,0,0,0-.81-.77,66.27,66.27,0,0,1-10.35,0,.77.77,0,0,0-.81.77v1.76A.77.77,0,0,0,53.48,83.28Z"/><path class="cls-9" d="M51.05,80.21a75.86,75.86,0,0,0,15.22,0,.77.77,0,0,0,.7-.77V77.71a.77.77,0,0,0-.83-.77,69.93,69.93,0,0,1-15,0,.76.76,0,0,0-.82.76v1.76A.77.77,0,0,0,51.05,80.21Z"/><path class="cls-10" d="M69.36,76.76l-2,.26h0c-8,.59-10.28.67-17.43,0l-2-.27a.77.77,0,0,1-.66-.76V74.25a.76.76,0,0,1,.85-.77l1.81.24a71.65,71.65,0,0,0,17.44,0l1.78-.24a.76.76,0,0,1,.85.77V76A.77.77,0,0,1,69.36,76.76Z"/><path class="cls-9" d="M71.78,72.62a.77.77,0,0,1-.65.76l-2.37.33a76.5,76.5,0,0,1-19.94,0l-2.37-.33a.77.77,0,0,1-.65-.76V71a.76.76,0,0,1,.85-.76l2.19.3a76.5,76.5,0,0,0,19.94,0l2.15-.29a.76.76,0,0,1,.85.76Z"/><path class="cls-10" d="M74.18,70.16l-4.94.64a80.34,80.34,0,0,1-20.9,0l-4.93-.64a.77.77,0,0,1-.66-.77V67.64a.76.76,0,0,1,.84-.76l4.77.62a80.34,80.34,0,0,0,20.9,0L74,66.88a.75.75,0,0,1,.84.76v1.75A.77.77,0,0,1,74.18,70.16Z"/><path class="cls-11" d="M74.18,69.65l-4.94.65a80.34,80.34,0,0,1-20.9,0l-4.93-.65a.77.77,0,0,1-.66-.77v.51a.77.77,0,0,0,.66.77l4.93.64a80.34,80.34,0,0,0,20.9,0l4.94-.64a.77.77,0,0,0,.65-.77v-.51A.77.77,0,0,1,74.18,69.65Z"/><g class="cls-12"><path class="cls-11" d="M71.13,72.88l-2.37.32a76.5,76.5,0,0,1-19.94,0l-2.37-.32a.78.78,0,0,1-.65-.77v.51a.77.77,0,0,0,.65.76l2.37.33a76.5,76.5,0,0,0,19.94,0l2.37-.33a.77.77,0,0,0,.65-.76v-.51A.78.78,0,0,1,71.13,72.88Z"/></g><path class="cls-4" d="M72.63,73.56a1,1,0,0,1-1-.81L71.32,71a1,1,0,0,1,.27-.89.94.94,0,0,1,.88-.28s4.46.67,5.14-3.14a3.74,3.74,0,0,0-.78-3,4.83,4.83,0,0,0-3-1.75,1,1,0,0,1,.35-2,6.75,6.75,0,0,1,4.19,2.5A5.7,5.7,0,0,1,79.58,67c-.68,3.81-3.92,4.75-6.06,4.83l.1.5a1,1,0,0,1-.8,1.17Z"/><polygon class="cls-4" points="65.08 75.96 65.96 73.49 63.76 72.06 66.23 72.94 67.65 70.73 66.78 73.21 68.98 74.63 66.51 73.76 65.08 75.96"/><path class="cls-11" d="M69.36,76.26l-2,.26h0c-8,.6-10.28.68-17.43,0l-2-.26a.77.77,0,0,1-.66-.77V76a.77.77,0,0,0,.66.76l2,.27c7.15.67,9.42.59,17.43,0h0l2-.26A.77.77,0,0,0,70,76v-.51A.77.77,0,0,1,69.36,76.26Z"/><g class="cls-12"><path class="cls-11" d="M66.27,79.68a75.13,75.13,0,0,1-15.22,0,.76.76,0,0,1-.69-.77v.51a.77.77,0,0,0,.69.77,75.86,75.86,0,0,0,15.22,0,.77.77,0,0,0,.7-.77v-.51A.77.77,0,0,1,66.27,79.68Z"/></g><path class="cls-11" d="M64.05,82.71a68.09,68.09,0,0,1-10.57.06.77.77,0,0,1-.7-.77v.51a.77.77,0,0,0,.7.77,69.35,69.35,0,0,0,10.57-.06.77.77,0,0,0,.7-.78v-.5A.77.77,0,0,1,64.05,82.71Z"/><g class="cls-12"><path class="cls-11" d="M61.45,84.77c-1.92.1-3.51.12-5.25.06a.78.78,0,0,1-.73-.77v.5a.76.76,0,0,0,.73.77c1.74.07,3.33,0,5.25,0a.76.76,0,0,0,.71-.77V84A.76.76,0,0,1,61.45,84.77Z"/></g><path class="cls-14" d="M53.4,50.52A1.49,1.49,0,1,1,51.91,49,1.5,1.5,0,0,1,53.4,50.52Z"/><path class="cls-4" d="M51.66,49.83a.39.39,0,0,1-.78,0,.39.39,0,1,1,.78,0Z"/><path class="cls-4" d="M52.2,50.05a.23.23,0,1,1-.23-.22A.23.23,0,0,1,52.2,50.05Z"/><path class="cls-14" d="M67.09,50.52A1.49,1.49,0,1,1,65.6,49,1.5,1.5,0,0,1,67.09,50.52Z"/><path class="cls-4" d="M65.34,49.83a.39.39,0,0,1-.39.39.4.4,0,0,1-.39-.39.39.39,0,0,1,.39-.39A.38.38,0,0,1,65.34,49.83Z"/><path class="cls-4" d="M65.88,50.05a.23.23,0,1,1-.45,0,.22.22,0,0,1,.22-.22A.22.22,0,0,1,65.88,50.05Z"/><path class="cls-4" d="M44.6,63.64a.76.76,0,0,1-.21,0c-1.36-.3-13.31-3-15.08-7.52a1,1,0,0,1,.56-1.29,1,1,0,0,1,1.3.56c1,2.62,8.92,5.26,13.65,6.3a1,1,0,0,1,.76,1.19A1,1,0,0,1,44.6,63.64Z"/></g></svg>