<svg xmlns="http://www.w3.org/2000/svg" xmlns:xlink="http://www.w3.org/1999/xlink" viewBox="0 0 762.5 406.37"><defs><style>.cls-1{isolation:isolate;}.cls-2,.cls-4,.cls-69{fill:#003044;}.cls-3{fill:#00536d;}.cls-3,.cls-49{opacity:0.7;}.cls-4,.cls-69{stroke:#006483;stroke-width:5px;}.cls-4{stroke-linejoin:round;}.cls-5{fill:#fff;}.cls-6{fill:#eb5032;}.cls-7{opacity:0.1;}.cls-8{fill:#139ab0;}.cls-9{fill:#d7d9d8;}.cls-10{fill:#13181b;}.cls-11{fill:#e8f5f8;}.cls-12,.cls-15,.cls-16,.cls-44,.cls-60{fill:none;}.cls-12{stroke:#e4eaea;}.cls-12,.cls-16{stroke-linecap:round;stroke-width:3px;}.cls-12,.cls-15,.cls-16,.cls-42,.cls-43,.cls-44,.cls-52,.cls-57,.cls-58,.cls-59,.cls-60,.cls-69{stroke-miterlimit:10;}.cls-13{fill:#214211;}.cls-14{fill:#1d1d1b;}.cls-15{stroke:#eb5032;}.cls-16,.cls-59{stroke:#fff;}.cls-17{fill:#82291d;}.cls-18{fill:#aeb0af;}.cls-19{fill:#332a2d;}.cls-20{fill:#f2be3d;}.cls-21{fill:#231f20;}.cls-22{fill:#fccf36;}.cls-23{fill:#ffdc4a;}.cls-23,.cls-27{mix-blend-mode:lighten;}.cls-24{fill:#d6a434;}.cls-24,.cls-25{mix-blend-mode:darken;}.cls-26{fill:#af8023;}.cls-28{opacity:0.1;}.cls-29{fill:#ffca00;}.cls-30{opacity:0.5;}.cls-30,.cls-34,.cls-37,.cls-41,.cls-46,.cls-49{mix-blend-mode:multiply;}.cls-31{fill:#ffc832;}.cls-32{fill:#ff8d23;}.cls-33{fill:#8faebc;}.cls-34,.cls-41,.cls-46,.cls-56{fill:#5b363d;}.cls-34{opacity:0.2;}.cls-35,.cls-66{fill:#bad4dd;}.cls-36{fill:url(#linear-gradient);}.cls-37{fill:#ab794c;}.cls-37,.cls-67{opacity:0.6;}.cls-38{fill:#808c8c;}.cls-39{fill:#ea2f1b;}.cls-40{fill:url(#radial-gradient);}.cls-41,.cls-66{opacity:0.3;}.cls-42,.cls-51{fill:#ffab2e;}.cls-42{stroke:#ffab2e;stroke-width:0.85px;}.cls-43{fill:#cee6ed;stroke-width:1.21px;}.cls-43,.cls-44{stroke:#ea8b24;}.cls-44{stroke-width:3.9px;}.cls-45{fill:#ea8b24;}.cls-46{opacity:0.4;}.cls-47{fill:#e57857;}.cls-48{fill:#ffab64;}.cls-49{fill:#665089;}.cls-50{fill:#d3e9ef;}.cls-52,.cls-62{fill:#ffc431;}.cls-52{stroke:#ffc431;stroke-width:0.56px;}.cls-53{fill:#f74123;}.cls-54{fill:#177fbf;}.cls-55{fill:#c7e55a;}.cls-57{fill:#faefd1;stroke-width:1.98px;}.cls-57,.cls-58,.cls-60{stroke:#5b363d;}.cls-58,.cls-59{fill:#d5ef65;}.cls-58,.cls-59,.cls-60{stroke-width:2.28px;}.cls-61{fill:#4f3030;}.cls-63{fill:#ca684d;}.cls-64,.cls-67{fill:#bd6144;}.cls-65{fill:#8e3e28;}.cls-68{fill:#004861;}</style><linearGradient id="linear-gradient" x1="-889.54" y1="-153.81" x2="-873.46" y2="-121.91" gradientTransform="matrix(0.98, -0.19, 0.19, 0.98, 996.33, 330.38)" gradientUnits="userSpaceOnUse"><stop offset="0.1" stop-color="#ff4e30"/><stop offset="0.17" stop-color="#fa462d"/><stop offset="0.49" stop-color="#eb2d21"/><stop offset="0.77" stop-color="#e11d1a"/><stop offset="1" stop-color="#de1818"/></linearGradient><radialGradient id="radial-gradient" cx="-1927.88" cy="8788.18" r="209.43" gradientTransform="matrix(0.3, -0.02, 0.02, 0.3, 529.15, -2367.65)" gradientUnits="userSpaceOnUse"><stop offset="0" stop-color="#bedfed"/><stop offset="0.18" stop-color="#adcedc"/><stop offset="0.42" stop-color="#9cbcca"/><stop offset="0.69" stop-color="#92b1bf"/><stop offset="1" stop-color="#8faebc"/></radialGradient></defs><title>404</title><g class="cls-1"><g id="Слой_1" data-name="Слой 1"><path class="cls-2" d="M643.44,100.3l11.21,5.85h0a8,8,0,0,1,1,3.78v9.29l-11.3,2.16Z"/><path class="cls-2" d="M643.93,401.1l8-4.33a7.2,7.2,0,0,0,3.76-6.33V377l-11.5,8.65Z"/><path class="cls-2" d="M655.67,108.62V265.56a3.49,3.49,0,0,0,3.49,3.49h24.7a3.49,3.49,0,0,1,3.49,3.49v52.33a3.5,3.5,0,0,1-3.49,3.5h-24.7a3.49,3.49,0,0,0-3.49,3.49v59.37a3.49,3.49,0,0,1-3.49,3.49H596.66a3.49,3.49,0,0,1-3.49-3.49V331.86a3.5,3.5,0,0,0-3.5-3.49h-121a3.5,3.5,0,0,1-3.49-3.5V282.53a3.45,3.45,0,0,1,.37-1.57q9.32-18.56,23.18-41.86,14.12-23.76,31.46-48.8t36.61-49c12.5-15.55,25-22.54,37.5-35.12a3.46,3.46,0,0,1,2.48-1h55.42A3.49,3.49,0,0,1,655.67,108.62Zm-62.08,77a3.49,3.49,0,0,0-6.27-2q-14.12,18.62-29.69,39.85c-11.32,15.43-17.72,23.81-25.14,38.48A3.49,3.49,0,0,0,535.6,267h58a3.49,3.49,0,0,0,3.49-3.65Z"/><path class="cls-3" d="M532.2,265l-20.42,15.18H579l6.4-13.32-48.4.27-2-.07a2.49,2.49,0,0,1-1.89-.94Z"/><path class="cls-4" d="M641.5,102.09V280.18h31.68v52.23H641.5v66.36H579V332.41H451V285.75q9.4-18.84,23.55-42.6T506,194.35q17.34-25,36.61-49a533.23,533.23,0,0,1,38.53-43.24ZM579,180q-16.71,21.83-35.54,47.52a325.78,325.78,0,0,0-31.68,52.65H579Z"/><polygon class="cls-2" points="675.61 334.86 687.35 328.48 687.35 310.76 675.86 319.4 675.61 334.86"/><path class="cls-3" d="M644.21,277.71h29.25l.37.11a2.71,2.71,0,0,1,1.67,1.47l.25.57,6.6-6.2,3.93-3.62a3.47,3.47,0,0,0-2.42-1h-24.7l-.93-.21a1.3,1.3,0,0,0-1,.19Z"/><path class="cls-5" d="M149.54,108.15a27.27,27.27,0,0,1-3.36-.32,20.72,20.72,0,0,1-13.59-8.11c-5.32-6.88-7.32-15-6-24,.37-2.58.65-5.06.85-7.66a17.63,17.63,0,0,0-3.11-11.35c-7.77-11.14-10.1-17.89-10.08-29C114.28,7.23,127.94,0,140.71,0c5.55,0,11,2.26,15.78,6.53a4.21,4.21,0,0,0,1.69.94,4.08,4.08,0,0,0,2.22,0,4,4,0,0,0,1.69-.94C166.94,2.28,172.42,0,178,.05c12.77,0,26.41,7.3,26.38,27.7,0,11.14-2.4,17.92-10.16,29A17.69,17.69,0,0,0,191,68.1c.18,2.58.45,5.06.83,7.66h0c0,.17,2.25,15.94,6.64,22.73,2,3.12,2.7,5.41,2,6.85a2.36,2.36,0,0,1-1.74,1.24c-.34,0-8.94,1.36-12.15.54a18.8,18.8,0,0,1-6-2.82c-2.71-2.8-15.95-16.42-16.52-18.24-.37-1.2-2.87-1.76-3.72-1.87a5.35,5.35,0,0,0-.7-.07h-.86a3.79,3.79,0,0,0-.67.06c-.87.15-3.71.8-4.18,2.81-.54,2.33-.33,11.93-.25,15.54v1.56c0,1.1,0,2.46-2.69,3.81A3.53,3.53,0,0,1,149.54,108.15ZM140.71,1c-12.29,0-25.42,7-25.44,26.63,0,10.9,2.31,17.55,9.93,28.46a18.54,18.54,0,0,1,3.28,12c-.19,2.6-.46,5.13-.85,7.74-1.32,8.79.63,16.63,5.76,23.28a19.69,19.69,0,0,0,12.85,7.71c1.22.17,3.67.5,4.32.19,2.13-1.07,2.12-1.92,2.12-2.89v-1.55c-.08-3.66-.29-13.34.27-15.79s3.69-3.36,5-3.59a6.22,6.22,0,0,1,.85-.07h.87a8.34,8.34,0,0,1,.85.07c.37,0,3.9.55,4.54,2.58.37,1.21,10.1,11.52,16.17,17.73h0a18.55,18.55,0,0,0,5.6,2.64c3,.77,11.69-.55,11.78-.57a1.25,1.25,0,0,0,1-.69c.29-.61.43-2.19-1.94-5.85-4.47-7-6.66-22.42-6.8-23.13-.38-2.59-.65-5.12-.84-7.73a18.55,18.55,0,0,1,3.31-12c7.66-10.88,10-17.53,10-28.43C203.36,8.09,190.24,1.07,178,1.06c-5.28,0-10.54,2.15-15.17,6.23A5.13,5.13,0,0,1,158,8.45a5.29,5.29,0,0,1-2.1-1.16C151.24,3.19,146,1,140.71,1Z"/><path class="cls-6" d="M116.18,24.26s-4.06,9.75-1.7,16.57-2.58,8.8-2.58,8.8.09.69,2.21.29a12,12,0,0,0,1.76-.76s1,3.36-1.31,4.92c0,0,1,.6,3.16-1.36s3-6.67,2.16-10.18-.72-9.42.9-11.23-2.38-8.59-2.38-8.59Z"/><path class="cls-6" d="M115.88,19.28s-7.56,7.35-8.12,14.53-5.94,7.07-5.94,7.07-.18.67,1.91,1.15a12.31,12.31,0,0,0,1.92,0s-.41,3.47-3.19,4c0,0,.67.93,3.44,0s5.37-4.94,6-8.48,3-8.92,5.29-9.94,1.24-8.83,1.24-8.83Z"/><path class="cls-5" d="M191.36,75.83c-.46-3-.69-5.63-.84-7.7a18.14,18.14,0,0,1,3.22-11.66c7.94-11.28,10.14-18.1,10.16-28.72C203.87,9.35,192.28.57,178,.55c-5.58,0-11,2.38-15.51,6.37a4.88,4.88,0,0,1-1.89,1h0a4.74,4.74,0,0,1-2.48,0h0a4.94,4.94,0,0,1-1.9-1A23.52,23.52,0,0,0,140.71.51c-14.31,0-25.92,8.73-25.95,27.13,0,10.62,2.13,17.44,10,28.75A18,18,0,0,1,128,68.05c-.14,2-.39,4.62-.85,7.7-1.58,10.6,1.73,18.37,5.86,23.68a20.44,20.44,0,0,0,13.26,7.87c1.44.19,3.82.52,4.61.13,2.61-1.3,2.39-2.5,2.39-3.59s-.42-14.17.25-17c.53-2.29,3.46-3,4.58-3.19a3.91,3.91,0,0,1,.76-.07h.86a3.84,3.84,0,0,1,.76.07s3.6.44,4.15,2.22,16.33,17.94,16.33,17.94a19,19,0,0,0,5.8,2.81c3.16.79,12-.56,12-.56s3.87-.36-.64-7.32-6.72-22.93-6.72-22.93"/><g class="cls-7"><path class="cls-8" d="M139.07,100.2c-4-3.63-12.13-15.67-8.46-27.87C134,61.2,143.26,61.21,144.92,60.86c-1.23.09-6.47-.73-18.63-16.85-9.84-13-7.26-28.17-4.88-36.16-4.11,4.47-6.64,10.9-6.65,19.45,0,11,2.28,17.91,10.91,30a13.31,13.31,0,0,1,2.41,8.51,93,93,0,0,1-1,9.67C125.54,86,128.85,93.71,133,99.07A20.34,20.34,0,0,0,146.24,107c1.44.2,3.82.52,4.61.13,2.61-1.3,2.4-2.5,2.4-3.58v-1.24C149.52,104.67,143.21,104,139.07,100.2Z"/></g><path class="cls-9" d="M144.92,60.9a1.59,1.59,0,0,0,.3-.06Z"/><g class="cls-7"><path class="cls-8" d="M190.41,65.85a13.25,13.25,0,0,1,2.46-8.5c8.65-12,11-18.94,11-29.94C203.87,9,192.28.23,178,.21c-5.92,0-11.65,2.67-16.33,7.11L159.32,8,157,7.32C152.35,2.86,146.63.22,140.71.21,126.4.14,114.79,8.9,114.76,27.3c0,11,2.28,17.91,10.91,30a13.31,13.31,0,0,1,2.41,8.51,93,93,0,0,1-1,9.67C125.54,86,128.85,93.71,133,99.07A20.34,20.34,0,0,0,146.24,107c1.44.2,3.82.52,4.61.13,2.61-1.3,2.4-2.5,2.4-3.58s-.42-14.17.24-17,5-3.27,5-3.27H160a8.4,8.4,0,0,1,3.64,1.33c-1.25-1.89-4.43-2.22-4.43-2.22h-1.52s-4.22.42-4.86,3.16-.23,15.43-.23,16.48.21,2.22-2.32,3.48c-.76.38-3,.07-4.47-.13A19.68,19.68,0,0,1,133,97.73c-4-5.2-7.22-12.69-5.69-23,.6-4.05.82-7.08.94-9.38a12.86,12.86,0,0,0-2.36-8.21c-8.38-11.65-10.59-18.42-10.58-29.09,0-17.85,11.29-26.31,25.17-26.29,5.74,0,11.3,2.62,15.83,6.94l2.19.59,2.25-.62c4.54-4.32,10.13-6.91,15.84-6.9,13.89,0,25.13,8.54,25.11,26.34,0,10.68-2.25,17.39-10.66,29.07a12.85,12.85,0,0,0-2.37,8.21"/></g><path class="cls-6" d="M117.87,20.53c8.58,3.52,44.4,16.88,81.38-2.36,1.64-.85,3-1.52,2.38-3.5a30.13,30.13,0,0,0-3.42-5.62s-4.37,6-30.46,7.31S120.3,12.68,119,11.24l-1.76,2.9a2.4,2.4,0,0,0-.11.23l-1.23,3.29C115.52,18.79,116.78,20.08,117.87,20.53Z"/><path class="cls-10" d="M173.49,21.83s1.23-.06,5.68,2.72a14.44,14.44,0,0,0-5.2-4.49C174,20.34,173.49,21.83,173.49,21.83Z"/><path class="cls-10" d="M148.25,24.16s-1.56.24-7.87-2.34c1,1.22,4.31,3.31,7.68,4.45C148,26,148.25,24.16,148.25,24.16Z"/><path class="cls-11" d="M187.43,36.89a30.69,30.69,0,0,1-4.21,9c-2.54,3.73-4.05,5.9-4.94,7.14-.18.25-1,1.12-1,1.12L191,50.84a34.89,34.89,0,0,0,7.19-15.5A35.82,35.82,0,0,1,187.43,36.89Z"/><path class="cls-11" d="M189.23,87.83a15.45,15.45,0,0,0,.72,2.31A45.06,45.06,0,0,0,194.1,98s.81,3.82-3.29,1.62c-3.34-1.8-7.82-6.75-9.66-12.24.4.15.84.32,1.3.47A12,12,0,0,0,189.23,87.83Z"/><path class="cls-11" d="M179.67,84.36c-2.2-4.26-2.62-7.09-2.41-10.23a15.53,15.53,0,0,1,.59-2.42l8.48-.89A29.86,29.86,0,0,0,189.07,84l-.68.34C185.45,85.74,181.9,85.07,179.67,84.36Z"/><path class="cls-12" d="M126.76,56.72"/><path class="cls-5" d="M125,80.25a1.74,1.74,0,0,1-.73-.2,1.51,1.51,0,0,1-.59-2l.74-1.34c-5.7-1.76-9.47-7.09-8.67-12.67.9-6.27,7.18-10.57,14-9.59a1.54,1.54,0,0,1-.43,3c-5.16-.75-9.92,2.4-10.58,7s3,9,8.18,9.7a1.53,1.53,0,0,1,1.25,1.74,1.57,1.57,0,0,1-.15.43l-1.72,3.11A1.54,1.54,0,0,1,125,80.25Z"/><path class="cls-5" d="M151.46,46.82s3.41,2.44,6.13.89c1.93-1.09,2.82-4,7.09-3.74a5.38,5.38,0,0,1,3.12,1.94"/><path class="cls-13" d="M123.14,36.42c3.84,2.39,8.15,3.76,12.44,5.07,1.75.53,2.5-2.21.75-2.74A48.92,48.92,0,0,1,124.58,34C123,33,121.55,35.45,123.14,36.42Z"/><path class="cls-13" d="M123.18,42.49a24.29,24.29,0,0,0,12.46,3.43,1.42,1.42,0,0,0,0-2.84,21.41,21.41,0,0,1-11-3,1.43,1.43,0,1,0-1.44,2.46Z"/><path class="cls-13" d="M194.53,37.52c-3.84,2.38-8.15,3.74-12.45,5-1.75.53-2.49-2.22-.74-2.74a48.9,48.9,0,0,0,11.76-4.75C194.66,34.06,196.13,36.56,194.53,37.52Z"/><path class="cls-13" d="M194.48,43.59A24.3,24.3,0,0,1,182,47a1.42,1.42,0,1,1,0-2.84,21.44,21.44,0,0,0,11-3,1.42,1.42,0,1,1,1.43,2.46Z"/><path class="cls-14" d="M148.42,33.75a3,3,0,1,1-3-3A3,3,0,0,1,148.42,33.75Z"/><path class="cls-5" d="M144.94,32.39a.78.78,0,1,1-.78-.78.77.77,0,0,1,.78.78Z"/><path class="cls-5" d="M146,32.81a.46.46,0,0,1-.44.47.47.47,0,0,1-.47-.45.46.46,0,0,1,.45-.46h0A.44.44,0,0,1,146,32.81Z"/><path class="cls-14" d="M175.75,33.78a3,3,0,1,1-3-3A3,3,0,0,1,175.75,33.78Z"/><path class="cls-5" d="M172.27,32.43a.78.78,0,1,1-.78-.78h0A.78.78,0,0,1,172.27,32.43Z"/><path class="cls-5" d="M173.34,32.85a.46.46,0,1,1-.91,0,.46.46,0,0,1,.45-.46h0A.45.45,0,0,1,173.34,32.85Z"/><path class="cls-15" d="M154.39,48.66s10.77,5.67,15.6-1.84"/><path class="cls-15" d="M168.24,45.35c1.8-.22,2.81.12,3.07,1.63"/><path class="cls-16" d="M191.05,57.21s1.48,8.79,12.51,11.58c4.67,1.18,4.7-3.06,4.7-3.06"/><path class="cls-6" d="M723.93,327c-7.13-4.52-32.06,5.74-47.47,26s-2.72,41.58-2.31,42.34,2.73,4.4,9.4,5.23,9.44-1.24,10.62-2.93,9.86-5.06,16.35-.43,11.56,4,11.56,4c6.21-.32,13.64-4.18,15.49-8.49s1.38,1.7,14.31-3.42S762,376.31,762,376.31s-17.87,4-23.3-12.33-8.31-22.83-8.31-22.83C727.59,335.31,731.07,331.47,723.93,327Z"/><path class="cls-6" d="M710.37,397.36a13.9,13.9,0,0,0-10.5-2c-2.74.5-5,1.63-5.5,2.39-1.25,1.83-4,3.88-10.88,3s-9.2-4.62-9.6-5.37l-.06-.11c-2.1-3.8-11.91-23.63,2.43-42.51,15.67-20.62,40.52-30.67,47.82-26,4.62,2.92,4.89,5.59,5.18,8.63a15.18,15.18,0,0,0,1.37,5.66h0c0,.06,2.94,6.66,8.31,22.85,5.29,15.92,22.84,12.15,23,12.15h.21l.09.21c0,.08,2.74,8.1-10.28,13.25-7.38,2.92-10.43,2.26-12.07,1.9-1.18-.25-1.39-.3-2.11,1.39-1.84,4.26-9.18,8.3-15.69,8.63a5.47,5.47,0,0,1-.81,0C719.6,401.39,715.44,401,710.37,397.36ZM740,390.84c1.59.34,4.54,1,11.77-1.88,11.53-4.56,10.39-11.09,10-12.35-2.12.38-18.31,2.81-23.37-12.54-5.26-16-8.21-22.63-8.3-22.82a16,16,0,0,1-1.38-5.78c-.29-2.93-.53-5.46-5-8.26-7-4.42-31.95,5.88-47.13,25.94-14.15,18.67-4.48,38.2-2.39,42l.07.11c.36.68,2.57,4.25,9.2,5.06,6.82.83,9.39-1.42,10.4-2.83.58-.85,2.79-2.06,5.82-2.6A14.49,14.49,0,0,1,710.67,397c6.33,4.5,11.32,3.91,11.39,3.91,6.36-.34,13.49-4.23,15.27-8.34.6-1.43,1-1.82,1.72-1.82A4.1,4.1,0,0,1,740,390.84Z"/><path class="cls-17" d="M674.15,395.28c.4.76,2.7,4.41,9.4,5.23a17.39,17.39,0,0,0,5.57-.42c-.08-3.73-.28-12.91.25-15.18s3.46-3,4.57-3.2a5.09,5.09,0,0,1,.77-.06h.86a4.77,4.77,0,0,1,.76.06c1.12.16,4,.92,4.59,3.2a67.15,67.15,0,0,1,.34,9.93,13.56,13.56,0,0,1,9.22,2.26,20.93,20.93,0,0,0,7.88,3.41,19.73,19.73,0,0,0,3-3c4.14-5.32,7.46-13,5.9-23.65-.46-3.07-.69-5.67-.84-7.69a18.09,18.09,0,0,1,3.19-11.67c1.44-2,2.57-3.83,3.65-5.63-2-5.3-2.9-7.71-2.9-7.71-2.8-5.82.68-9.66-6.46-14.17s-32.07,5.74-47.47,26S673.74,394.52,674.15,395.28Z"/><path class="cls-5" d="M691.56,381.66a4.74,4.74,0,0,1,.75.06c1.12.16,4.05.92,4.59,3.2.65,2.81.21,15.89.21,17s-.21,2.29,2.4,3.59c.78.4,3.17.07,4.6-.13a20.26,20.26,0,0,0,13.24-7.88c4.14-5.32,7.46-13,5.84-23.63-.46-3.07-.69-5.67-.84-7.69a18.09,18.09,0,0,1,3.19-11.67c8-11.3,10.13-18.11,10.13-28.74,0-18.36-11.63-27.16-25.92-27.16A23.53,23.53,0,0,0,694.26,305a4.77,4.77,0,0,1-1.89,1h0a4.74,4.74,0,0,1-2.48,0h0a4.78,4.78,0,0,1-1.91-1c-4.51-4-9.91-6.38-15.48-6.38-14.32,0-25.91,8.8-25.91,27.12,0,10.63,2.14,17.44,10.06,28.74a18.09,18.09,0,0,1,3.19,11.67c-.14,2.05-.38,4.66-.84,7.69-1.56,10.6,1.76,18.31,5.9,23.67a20.28,20.28,0,0,0,13.23,7.92c1.44.2,3.82.53,4.61.13,2.61-1.3,2.39-2.51,2.39-3.59s-.44-14.15.22-17c.53-2.28,3.46-3,4.58-3.2a4.9,4.9,0,0,1,.77-.06Z"/><path class="cls-5" d="M699.31,406c-2.67-1.36-2.67-2.72-2.67-3.82v-1.56c.07-3.61.3-13.25-.21-15.53-.46-2-3.31-2.67-4.17-2.83a3.75,3.75,0,0,0-.67,0h-.86a3.86,3.86,0,0,0-.68,0c-.86.16-3.71.8-4.17,2.83-.54,2.32-.32,11.92-.24,15.53v1.56c0,1.1,0,2.46-2.68,3.82-.85.42-2.78.2-4.9-.08a20.68,20.68,0,0,1-13.56-8.1c-5.32-6.84-7.34-14.94-6-24.05.37-2.6.65-5.08.83-7.66a17.56,17.56,0,0,0-3.12-11.32c-7.75-11.09-10.12-17.89-10.12-29,0-20.38,13.62-27.67,26.4-27.67a23.72,23.72,0,0,1,15.83,6.52,4.21,4.21,0,0,0,1.69.94,4.15,4.15,0,0,0,2.21,0,4.21,4.21,0,0,0,1.69-.94c4.81-4.29,10.29-6.52,15.83-6.52,12.77,0,26.43,7.29,26.38,27.67,0,11.16-2.34,17.9-10.12,29a17.68,17.68,0,0,0-3.11,11.34c.18,2.6.46,5.08.84,7.66,1.31,9.08-.72,17.17-6,24a20.79,20.79,0,0,1-13.6,8.1,27.23,27.23,0,0,1-3.37.31A3.4,3.4,0,0,1,699.31,406Zm-7.75-24.8a4.91,4.91,0,0,1,.85.09c1.26.2,4.39,1.13,5,3.58s.34,12.14.26,15.79v1.54c0,1,0,1.83,2.11,2.9.64.32,3.1,0,4.32-.17a19.75,19.75,0,0,0,12.9-7.71c5.14-6.66,7.09-14.49,5.79-23.28-.38-2.61-.67-5.14-.85-7.74a18.71,18.71,0,0,1,3.29-12c7.64-10.89,10-17.54,10-28.45,0-19.65-13.16-26.66-25.4-26.65-5.32,0-10.55,2.22-15.18,6.27a5.19,5.19,0,0,1-2.14,1.15,5,5,0,0,1-2.76,0,5.3,5.3,0,0,1-2.09-1.15c-4.57-4.11-9.81-6.28-15.07-6.29-12.25,0-25.41,7-25.41,26.66,0,10.91,2.33,17.56,10,28.45a18.6,18.6,0,0,1,3.29,12c-.18,2.6-.45,5.13-.84,7.74-1.29,8.8.65,16.63,5.79,23.28a19.69,19.69,0,0,0,12.85,7.71c1.18.17,3.64.49,4.28.17,2.12-1.07,2.12-1.88,2.12-2.9v-1.55c-.08-3.64-.33-13.21.25-15.78s3.69-3.37,5-3.59a5,5,0,0,1,.86-.07h.88Z"/><g class="cls-7"><path class="cls-8" d="M696.8,400.6v1.25c0,1.08-.22,2.28,2.39,3.58.79.4,3.17.07,4.6-.12a20.32,20.32,0,0,0,13.27-7.89c4.14-5.36,7.46-13.1,6-23.67a89.22,89.22,0,0,1-1-9.67,13.38,13.38,0,0,1,2.42-8.46c8.64-12,10.94-18.95,10.94-30,0-8.54-2.52-15-6.62-19.45,2.43,8,4.93,23.15-4.93,36.19-12.16,16.11-17.41,16.92-18.64,16.83,1.65.35,11,.35,14.29,11.49,3.66,12.2-4.44,24.24-8.49,27.86S700.52,403,696.8,400.6Z"/></g><path class="cls-9" d="M704.89,359.18l.29.05A1.6,1.6,0,0,0,704.89,359.18Z"/><g class="cls-7"><path class="cls-8" d="M657.23,355.62a13.24,13.24,0,0,1,2.5,8.47c-.18,2.32-.39,5.51-1,9.67-1.57,10.6,1.75,18.3,5.89,23.66a20.35,20.35,0,0,0,13.24,7.89c1.43.19,3.82.52,4.6.12,1.72-.86,2.2-1.67,2.34-2.43a5.9,5.9,0,0,1-1.32.84c-.76.39-3.08.07-4.47-.12a19.74,19.74,0,0,1-12.84-7.65c-4-5.19-7.24-12.67-5.72-23,.6-4,.81-7.12.94-9.38a12.82,12.82,0,0,0-2.38-8.21c-8.38-11.69-10.61-18.4-10.61-29.08,0-17.8,11.25-26.31,25.14-26.31,5.71,0,11.29,2.61,15.83,6.92l2.25.63,2.24-.63c4.54-4.31,10.08-6.92,15.83-6.92,13.88,0,25.14,8.47,25.14,26.31,0,10.68-2.23,17.39-10.61,29.08a12.82,12.82,0,0,0-2.38,8.21c.12,2.3.34,5.34.93,9.38,1.53,10.29-1.66,17.77-5.71,23a19.75,19.75,0,0,1-12.84,7.65c-1.43.19-3.71.51-4.47.12-2.54-1.26-2.32-2.43-2.32-3.48s.41-13.73-.22-16.48-4.85-3.16-4.85-3.16h-1.57s-3.18.32-4.44,2.2A8.56,8.56,0,0,1,690,381.6h1.53s4.4.45,5.06,3.27.22,15.9.22,17-.22,2.28,2.39,3.58c.79.4,3.17.07,4.6-.12a20.32,20.32,0,0,0,13.27-7.89c4.14-5.36,7.46-13.1,6-23.67a89.22,89.22,0,0,1-1-9.67,13.34,13.34,0,0,1,2.42-8.41c8.64-12,10.94-18.95,10.94-30,0-18.4-11.6-27.16-25.9-27.16-5.93,0-11.65,2.63-16.32,7.08l-2.31.64-2.32-.64c-4.67-4.45-10.4-7.13-16.32-7.13-14.3,0-25.91,8.76-25.91,27.16C646.29,336.67,648.6,343.59,657.23,355.62Z"/></g><path class="cls-10" d="M697.52,321.76a14.33,14.33,0,0,0,6.61,1.87c-4.77-2.19-5.4-3.26-5.4-3.26A17.71,17.71,0,0,1,697.52,321.76Z"/><path class="cls-10" d="M673.09,319.11a14.55,14.55,0,0,0-5.57,4.05c4.68-2.35,5.91-2.18,5.91-2.18S673.12,319.44,673.09,319.11Z"/><path class="cls-11" d="M651.4,327.49a35.26,35.26,0,0,0,10.26,2,27.56,27.56,0,0,1,1.43-12.15,18.35,18.35,0,0,1,4.35-5.77c-7.83-3.65-9.14-4.79-9.62-4.66a16.73,16.73,0,0,0-2.16,2.29C653.56,311.82,651.28,317.76,651.4,327.49Z"/><path class="cls-11" d="M652,333.6a34.86,34.86,0,0,0,7.16,15.52l13.7,3.29s-.84-.88-1-1.12c-.89-1.24-2.4-3.42-4.94-7.14a30.56,30.56,0,0,1-4.19-9A35.72,35.72,0,0,1,652,333.6Z"/><path class="cls-11" d="M665.78,386.14l-1.35-.33c2.43,5.27,7.42,9.71,10.93,11.13,4.26,1.74,3-2,3-2a45.37,45.37,0,0,1-5-7.4,12.14,12.14,0,0,1-1-2.2A12.17,12.17,0,0,1,665.78,386.14Z"/><path class="cls-11" d="M670.82,382l.75-.09a29.71,29.71,0,0,1,1.93-13.27l-8.28-2a15.71,15.71,0,0,0-1.39,2,18.3,18.3,0,0,0-1.23,10.45C664.43,380.49,667.54,382.35,670.82,382Z"/><path class="cls-5" d="M635.36,343.58a1.52,1.52,0,1,1,2.81-1.14c6.25,15.28,22,14,22.64,13.93h0a1.53,1.53,0,0,1,.28,3c-.44,0-.88,0-1.33,0C655.38,359.41,641.35,358.21,635.36,343.58Z"/><path class="cls-12" d="M723.34,355.08"/><path class="cls-5" d="M723.73,377.81,722,374.7a1.52,1.52,0,0,1,1.11-2.16,10.08,10.08,0,0,0,6.33-3.45,8,8,0,0,0,1.86-6.25c-.65-4.6-5.39-7.76-10.57-7a1.54,1.54,0,0,1-.43-3c6.84-1,13.12,3.34,14,9.61a11,11,0,0,1-2.54,8.61,12.87,12.87,0,0,1-6.14,4.05l.73,1.33a1.51,1.51,0,0,1-.58,2,1.6,1.6,0,0,1-.74.19A1.49,1.49,0,0,1,723.73,377.81Z"/><polygon class="cls-11" points="715.33 303.45 724.37 296.46 717.18 305.34 724.17 314.39 715.28 307.2 706.24 314.19 713.43 305.3 706.45 296.26 715.33 303.45"/><polygon class="cls-11" points="714.58 306.03 708.47 305.25 714.59 304.6 715.38 298.49 716.03 304.61 722.14 305.4 716.01 306.05 715.23 312.16 714.58 306.03"/><path class="cls-6" d="M690.46,344.73l.24-1c1.92.47,2.17,3.24,2.17,3.35l-1,.08S691.65,345,690.46,344.73Z"/><path class="cls-6" d="M679.93,348l.48-.88a10.1,10.1,0,0,0,4.71,1c3.61,0,6.07-1.44,6.07-2.79h1c0,2.13-3,3.81-7.08,3.81A11,11,0,0,1,679.93,348Z"/><path class="cls-14" d="M674,329.73a3,3,0,1,0,3,3A3,3,0,0,0,674,329.73Z"/><path class="cls-5" d="M673.43,331.37a.78.78,0,0,0-.78-.76h0a.78.78,0,1,0,.79.77Z"/><path class="cls-5" d="M674.55,331.7a.46.46,0,0,0-.9.14.29.29,0,0,0,0,.13.47.47,0,0,0,.52.39.45.45,0,0,0,.38-.52A.33.33,0,0,0,674.55,331.7Z"/><path class="cls-14" d="M698.28,329.73a3,3,0,1,0,3,3A3,3,0,0,0,698.28,329.73Z"/><path class="cls-5" d="M697.72,331.37a.78.78,0,0,0-.78-.76h0a.78.78,0,1,0,0,1.56.77.77,0,0,0,.77-.79Z"/><path class="cls-5" d="M698.84,331.7a.44.44,0,0,0-.51-.38.47.47,0,0,0-.39.52V332a.47.47,0,0,0,.52.39.45.45,0,0,0,.38-.52A.33.33,0,0,0,698.84,331.7Z"/><path class="cls-6" d="M735.17,329.71v0Z"/><path class="cls-6" d="M646.77,318.53v13.59c0,1.08,37.68,13.76,63.89,4.74,21.8-7.5,24.29-7.39,24.51-7.14l.05-7.08s.13-.65-.54-.49-28.56,5.11-48.72,4.64S646.77,318.53,646.77,318.53Zm47.53,14.23v-.07a4.09,4.09,0,1,1,0,.07Zm-24.29,0v-.07a4.09,4.09,0,1,1,0,.07Z"/><path class="cls-18" d="M201.33,73.9a1.33,1.33,0,0,1-.82-1.69l8.09-23.58L194.88,38.52a2.27,2.27,0,0,1-.79-2.52l1.61-4.71a2,2,0,0,1,2.54-1.24l32,11a1.33,1.33,0,1,1-.86,2.51L198,32.78l-1.3,3.79,13.73,10.1a2.28,2.28,0,0,1,.78,2.52L203,73.07A1.33,1.33,0,0,1,201.33,73.9Z"/><rect class="cls-19" x="190.75" y="67.76" width="23.25" height="6.2" rx="1.66" transform="translate(69.66 239.27) rotate(-71.06)"/><rect class="cls-20" x="209.66" y="21.54" width="8.8" height="31.22" rx="1.66" transform="translate(109.44 227.56) rotate(-71.06)"/><path class="cls-6" d="M202.44,28.5l-2,5.74a.47.47,0,0,0,.28.61l.76.26a.47.47,0,0,0,.59-.31l.42-1.22a.5.5,0,0,0,.32.41l.52.17L202.73,36a.58.58,0,0,0,.33.73l.92.32a.59.59,0,0,0,.72-.38l.63-1.84.81.28-1.22,3.54,7.57,2.6.6-1.74,2.48.85-.6,1.74,6.13,2.11.18-.54a.27.27,0,0,0,.11,0l.92.32a.58.58,0,0,0,.72-.38l1.35-4,1.06.37-1.08,3.16a.58.58,0,0,0,.33.74l.92.31a.58.58,0,0,0,.72-.37l2.22-6.46Z"/><line class="cls-5" x1="201.97" y1="29.4" x2="228.36" y2="38.46"/><path class="cls-5" d="M428.25,368.18c-.35.84-3.19,9.9-3.44,10.77a62.5,62.5,0,0,1-3.46,10.34c-3.09,7.32,6.32,10.78,14.92,7.91s16.53-19.89,16.53-19.89c1.07-2.08,4.1-2.09,5.22-2a6.71,6.71,0,0,1,.76.13l1.12.35.42.15c1,.46,3.7,1.89,3.66,4.23,0,0-1.19,11.36,2.79,16.1s9.23,5.16,14.49,5a19.81,19.81,0,0,0,4.05-.62,2.71,2.71,0,0,0,1.66-4.43c-5.87-6.72-.61-14.09,4.23-26.8,2.46-5.53,5-9.06,8.1-11.78,10.46-9,14.26-15.07,16.87-25.37,4.46-17.77-4.62-29.16-18.49-32.68-5.41-1.37-11.23-.38-16.59,2.38a4.74,4.74,0,0,1-2.08.52h0a4.7,4.7,0,0,1-2.41-.61h0a4.77,4.77,0,0,1-1.58-1.45,23.53,23.53,0,0,0-13.45-10c-13.84-3.51-27.29,2.16-31.8,20-2.61,10.3-2.21,17.43,2.68,30.33a18.08,18.08,0,0,1,.24,12.1c-.64,1.92-1.51,4.38-2.71,7.25Z"/><path class="cls-9" d="M451.19,350.37l.3,0Z"/><path class="cls-10" d="M460.59,323.48c.14,2.12-.5,2-2,2.07s-3.32.41-3.46-1.72,1-3.92,2.47-4S460.45,321.35,460.59,323.48Z"/><path class="cls-10" d="M489.1,332.27c-1,1.83-2.4.85-3.72.1s-2.08-.85-1.06-2.74,2.91-2.82,4.22-2.06S490.08,330.37,489.1,332.27Z"/><path class="cls-10" d="M492.63,321.5s1.21.24,4.86,4a14.48,14.48,0,0,0-3.95-5.63C493.26,320.44,493,321,492.63,321.5Z"/><path class="cls-10" d="M456.25,312.27s-1.18-.36-6.18,1.22a14.3,14.3,0,0,1,6.15-3.07C456.2,311,456.21,311.65,456.25,312.27Z"/><path class="cls-11" d="M511.48,314.07a16.64,16.64,0,0,0-1.52-2.74c-.43-.25-2,.54-10.47,2.16a18.31,18.31,0,0,1,2.79,6.66,27.63,27.63,0,0,1-1.6,12.12,35.19,35.19,0,0,0,10.44.56C513.63,323.43,512.88,317.11,511.48,314.07Z"/><path class="cls-11" d="M498.28,337.5a30.47,30.47,0,0,1-6.27,7.67c-3.39,3-5.37,4.73-6.54,5.71-.24.19-1.26.83-1.26.83l14.1.19a34.94,34.94,0,0,0,10.76-13.28A35.69,35.69,0,0,1,498.28,337.5Z"/><path class="cls-12" d="M434.6,341.88"/><path class="cls-5" d="M427.18,364.27a1.47,1.47,0,0,1-.67-.37,1.53,1.53,0,0,1-.08-2.11l1.05-1.11a12.87,12.87,0,0,1-5-5.44,11,11,0,0,1-.33-9c2.4-5.85,9.54-8.49,15.94-5.87a1.54,1.54,0,0,1-1.17,2.84h0c-4.82-2.1-10.2-.17-12,4.14a7.91,7.91,0,0,0,.27,6.51,10,10,0,0,0,5.29,4.9,1.53,1.53,0,0,1,.82,2,1.7,1.7,0,0,1-.29.46l-2.43,2.58A1.51,1.51,0,0,1,427.18,364.27Z"/><path class="cls-5" d="M458.24,321.49a.84.84,0,1,1-.6-1h0A.82.82,0,0,1,458.24,321.49Z"/><path class="cls-5" d="M459.24,322.25a.47.47,0,0,1-.53.43.48.48,0,0,1-.43-.53.35.35,0,0,1,0-.14.49.49,0,0,1,1,.1A.74.74,0,0,1,459.24,322.25Z"/><path class="cls-5" d="M488,329a.83.83,0,0,1-1.13.37.84.84,0,0,1,.71-1.52A.83.83,0,0,1,488,329Z"/><path class="cls-5" d="M488.86,330a.49.49,0,0,1-.64.26h0a.49.49,0,1,1,.39-.9A.5.5,0,0,1,488.86,330Z"/><path class="cls-16" d="M494,360.11s0,2.92,7.2,2.89c5.91,0,16-3.26,16-3.26"/><path class="cls-19" d="M504.61,366.6l.83,5.5a2,2,0,0,0,2.3,1.69l13.9-2.1a2,2,0,0,0,1.7-2.3l-.84-5.5Z"/><rect class="cls-18" x="523.17" y="339.55" width="9.72" height="5.79" rx="1.01" transform="translate(-45.33 82.94) rotate(-8.61)"/><path class="cls-18" d="M549.34,339l-1.22-.66-14.06,2.13.25,1.67L548.38,340l1-1h0Z"/><path class="cls-21" d="M517,351.77l-1.68.25-.13,5.34,1.74-.27a.77.77,0,0,0,.72-.61c.07-1.36.1-2.72.1-4.08C517.72,351.89,517.5,351.72,517,351.77Z"/><g id="kCjpPz.tif"><path class="cls-22" d="M525.15,339.71a1,1,0,0,0-.52-.66,15.18,15.18,0,0,0-6.19-1.2,16.34,16.34,0,0,0-1.84.28L502,340.35l1.82,12,2-.27a1.16,1.16,0,0,1,1.35.62,2.8,2.8,0,0,1,.11,1c0,.49-.1,6.67-.15,9.27a2.18,2.18,0,0,1-.32,1.14,2.58,2.58,0,0,1-.95.78,2.65,2.65,0,0,0-1.11,1,1.89,1.89,0,0,0,0,1.2l17.89-2.71a1.73,1.73,0,0,0-1.07-1.56c-.43-.15-4.57-.42-4.85-.48a1.13,1.13,0,0,1-.84-.62,1.51,1.51,0,0,1-.11-.59c0-.25.08-6.6.11-9.2,0-.62,0-1,0-1.09,0-.28.16-.39.42-.42l2.69-.41a14.21,14.21,0,0,0,6.83-3.15,1,1,0,0,0,.32-.58,2.4,2.4,0,0,0-.07-.84Z"/><path class="cls-22" d="M507,366.1a2,2,0,0,0,.32-1.13c.05-2.61.15-8.79.15-9.27a2.8,2.8,0,0,0-.1-1,.81.81,0,0,0-.21-.32c0,1.74-.1,6.45-.14,8.63a2.18,2.18,0,0,1-.32,1.14,2.58,2.58,0,0,1-.95.78,2.65,2.65,0,0,0-1.11,1,1.89,1.89,0,0,0,0,1.2l1.4-.21A2.6,2.6,0,0,0,507,366.1Z"/><path class="cls-23" d="M498.93,342.82l2.8-.42.63-.1,1.83-.25h0l12.71-1.93c.61-.09,1.22-.24,1.84-.27a15,15,0,0,1,6.19,1.2,1,1,0,0,1,.53.66c-.13-.82-.24-1.57-.31-2a1,1,0,0,0-.52-.66,15.18,15.18,0,0,0-6.19-1.2,16.34,16.34,0,0,0-1.84.28l-12.71,1.93h0l-1.83.26-.63.09-2.8.42a1.33,1.33,0,0,0-1.1,1.5l.3,2A1.32,1.32,0,0,1,498.93,342.82Z"/></g><rect class="cls-19" x="526.29" y="338.53" width="4.91" height="7.61" rx="1.01" transform="translate(-45.3 83.04) rotate(-8.61)"/><rect class="cls-19" x="507.78" y="341.82" width="11.77" height="5.59" rx="1.01" transform="translate(-45.82 80.82) rotate(-8.61)"/><rect class="cls-22" x="508.68" y="364.81" width="4.37" height="4.46" rx="0.81" transform="translate(-49.2 80.64) rotate(-8.61)"/><rect class="cls-19" x="518.42" y="337.34" width="1.74" height="12.88" rx="0.61" transform="translate(-45.64 81.67) rotate(-8.62)"/><path class="cls-19" d="M535.27,339.79c-.79-1.65-1.55-2-3.29-1.72h-.05c-.5.1-.65.31-.58.81l.85,5.61c.08.5.29.66.8.61h0c1.76-.21,2.36-.81,2.63-2.62,0-.16,0-.33.06-.53l-.25-1.67C535.41,340.09,535.35,339.94,535.27,339.79Z"/><path class="cls-22" d="M498.63,340.82a1.33,1.33,0,0,0-1.1,1.5l1.42,9.37a1.32,1.32,0,0,0,1.49,1.1l3.43-.52-1.81-12Z"/><path class="cls-21" d="M507.11,353.71c0,.49-.1,6.67-.15,9.28a2.85,2.85,0,0,1,0,.41l1.72-.26a1.3,1.3,0,0,0,1.07-1.24v-8.31a.9.9,0,0,0-1.07-.92l-1.58.24A4.29,4.29,0,0,1,507.11,353.71Z"/><rect class="cls-19" x="499.42" y="341.94" width="2.65" height="9.22" rx="0.81" transform="translate(-46.25 78.9) rotate(-8.61)"/><path class="cls-24" d="M526.07,345.79c0,.27.08.23,0,.5a1,1,0,0,1-.32.58,15.27,15.27,0,0,1-4.73,2.65.62.62,0,0,1-.52.59l-.52.08a.63.63,0,0,1-.59-.25l-.47.08-2.69.41c-.26,0-.44.14-.42.42,0,.06,0,.41,0,1l-4.85.73-3.76.56a2.6,2.6,0,0,0-.11-.51,1.16,1.16,0,0,0-1.35-.62l-2,.27.1,0-.63.1-2.8.42a1.32,1.32,0,0,1-1.49-1.1l-.26-1.69s.23,2,1.09,1.9l20.1-3A13.65,13.65,0,0,0,526.07,345.79Z"/><g class="cls-25"><rect class="cls-26" x="514.6" y="348.44" width="2.44" height="1.16" rx="0.5" transform="translate(-46.47 81.23) rotate(-8.62)"/></g><rect class="cls-5" x="514.7" y="348.09" width="2.44" height="1.16" rx="0.5" transform="translate(-46.43 81.26) rotate(-8.62)"/><path class="cls-22" d="M526.1,346a5,5,0,0,0-.08-.54Z"/><path class="cls-22" d="M521.51,362.83c-.43-.15-4.57-.42-4.85-.48A1.23,1.23,0,0,1,516,362c0,.64,0,1.06,0,1.12a1.51,1.51,0,0,0,.11.59,1.14,1.14,0,0,0,.84.62c.2,0,2.38.19,3.76.33l1.86-.29A1.73,1.73,0,0,0,521.51,362.83Z"/><g class="cls-27"><path class="cls-5" d="M524.5,340.34a.39.39,0,0,1-.35,0,15.86,15.86,0,0,0-4.07-1,.41.41,0,0,1,.07-.82,17.09,17.09,0,0,1,4.28,1,.43.43,0,0,1,.25.53A.46.46,0,0,1,524.5,340.34Z"/></g><g class="cls-27"><path class="cls-5" d="M517,339.6a.24.24,0,0,1-.14,0l-11.43,1.74a.42.42,0,0,1-.47-.35.41.41,0,0,1,.35-.46l11.42-1.74a.41.41,0,0,1,.47.35A.4.4,0,0,1,517,339.6Z"/></g><g class="cls-27"><path class="cls-5" d="M504.24,341.53a.28.28,0,0,1-.16.05l-1,.13a.42.42,0,0,1-.46-.36.41.41,0,0,1,.36-.46l1-.12a.41.41,0,0,1,.26.76Z"/></g><g class="cls-28"><path class="cls-8" d="M463.62,293.76l-.17.57c-.84,2.73-.21,6.12,1.41,7.49a34.34,34.34,0,0,0,25.62,8c2.11-.21,4.55-2.65,5.41-5.37l.18-.57c-3.1-.58-6.29-.73-9.39-1.32a66.78,66.78,0,0,1-7.36-2,64.54,64.54,0,0,1-7.63-2.69C469,296.56,466.37,295,463.62,293.76Z"/></g><g class="cls-28"><path class="cls-8" d="M497.68,299.63c-5.41-1.37-11.23-.38-16.59,2.38a4.74,4.74,0,0,1-6.07-1.54,23.53,23.53,0,0,0-13.45-10c-13.84-3.51-27.29,2.16-31.8,20-2.61,10.3-2.21,17.43,2.68,30.33a18.08,18.08,0,0,1,.24,12.1c-.64,1.92-1.51,4.38-2.71,7.25l-2.16,9.52c-.35.84-2.47,7.66-2.73,8.53a73.12,73.12,0,0,1-3.74,11.13c-3.09,7.32,6.32,10.78,14.92,7.91,2.47-.82,4.28-3,7.05-5.61-.84.51-.65.92-1.43,1.18-7.93,2.65-20.73,1.48-17.89-5.26,2.27-5.38,4.93-10,5.93-13.42.24-.8,2.15-6.69,2.47-7.47l3.29-7.88c1.1-2.64,1.91-4.9,2.5-6.68a16.67,16.67,0,0,0-.22-11.15c-4.51-11.88-4.88-18.46-2.47-28,4.16-16.4,16.55-21.63,29.3-18.4a21.73,21.73,0,0,1,12.4,9.22,4.27,4.27,0,0,0,1.46,1.34,4.38,4.38,0,0,0,2.21.56,4.26,4.26,0,0,0,1.92-.48A21.75,21.75,0,0,1,498.08,303c12.79,3.24,21.15,13.74,17.05,30.12-2.41,9.49-5.92,15.08-15.56,23.37-2.89,2.51-5.19,5.76-7.46,10.86-.1.27-.21.53-.31.8a30.26,30.26,0,0,1,7.5-10.48c10.46-9,14.26-15.07,16.87-25.37C520.63,314.54,511.55,303.15,497.68,299.63Z"/><path class="cls-8" d="M482.88,396.56c-4.86.13-8.69,1.76-12.35-2.61s-3.51-16.7-3.51-16.7c0-2.16-2.42-3.47-3.37-3.9l-.39-.14-1-.31a4.1,4.1,0,0,0-.7-.12c-1-.11-3.83-.1-4.81,1.82l-.53.76a8.82,8.82,0,0,1,1.83,0,6.71,6.71,0,0,1,.76.13l1.12.35.42.15c1,.46,3.7,1.89,3.66,4.23,0,0-1.19,11.36,2.79,16.1s9.23,5.16,14.49,5a19.81,19.81,0,0,0,4.05-.62,2.71,2.71,0,0,0,1.66-4.43c-.08-.1-.16-.21-.25-.31l-.12,0A19,19,0,0,1,482.88,396.56Z"/></g><path class="cls-29" d="M497.05,300.76a18.81,18.81,0,0,1-.93,2.37l-.39.76v0l-.4-.1-9.6-2.33-1.43-.53L480,299.37l-4.92-1.23-.93-.24-9.55-3.63-.54-.21v0c0-.28.07-.56.11-.84a17.32,17.32,0,0,1,11.58-13.72,16.69,16.69,0,0,1,18.59,5.79A17.2,17.2,0,0,1,497.05,300.76Z"/><g class="cls-30"><path class="cls-29" d="M494.37,285.27A110.67,110.67,0,0,0,484.29,301l-.21.41a43.69,43.69,0,0,0-9-2.81c0-.14,0-.28.05-.41a132.2,132.2,0,0,0,.67-18.66,16.69,16.69,0,0,1,18.59,5.79Z"/></g><path class="cls-31" d="M496.12,303.13l-.39.76-.41-.08c-2.88-.58-6.14-1.37-9.6-2.33-2-.54-4-1.13-6-1.77-1.89-.59-3.74-1.19-5.53-1.81-3.5-1.2-6.75-2.43-9.55-3.63l-.54-.23c0-.28.07-.56.11-.84A159.15,159.15,0,0,0,480,298.93,161.33,161.33,0,0,0,496.12,303.13Z"/><path class="cls-32" d="M496.4,304.77a.85.85,0,0,1-.88.56,102.92,102.92,0,0,1-32.07-10,.84.84,0,0,1-.42-1l.52-1.68a.57.57,0,0,1,.82-.34,103.26,103.26,0,0,0,32.07,10,.55.55,0,0,1,.48.74Z"/><path class="cls-29" d="M464.24,294.68l-.12.39a5.22,5.22,0,0,0,1.87,5.47,44.56,44.56,0,0,0,24.49,7.61,5.2,5.2,0,0,0,4.64-3.43l.12-.39c-2.93-.65-5.91-1-8.84-1.65-2.37-.53-4.71-1.28-7-2s-4.94-1.51-7.32-2.5C469.42,297.08,466.89,295.76,464.24,294.68Z"/><path class="cls-32" d="M493.76,283.47a1.06,1.06,0,0,1,.1,1.37A102,102,0,0,0,484,300.15a39.47,39.47,0,0,0-8.15-2.53,121.33,121.33,0,0,0,.62-18.38,1.09,1.09,0,0,1,.9-1.07A19,19,0,0,1,493.76,283.47Z"/><polygon class="cls-5" points="546.96 338.66 543.72 338.97 546.81 337.92 546.5 334.67 547.55 337.76 550.8 337.45 547.71 338.5 548.01 341.75 546.96 338.66"/><path class="cls-2" d="M195,100.3l11.21,5.85h0a8,8,0,0,1,1,3.78v9.29l-11.3,2.16Z"/><path class="cls-2" d="M195.44,401.1l8-4.33a7.2,7.2,0,0,0,3.76-6.33V377l-11.5,8.65Z"/><path class="cls-2" d="M207.18,108.62V265.56a3.49,3.49,0,0,0,3.49,3.49h24.7a3.49,3.49,0,0,1,3.49,3.49v52.33a3.5,3.5,0,0,1-3.49,3.5h-24.7a3.49,3.49,0,0,0-3.49,3.49v59.37a3.49,3.49,0,0,1-3.49,3.49H148.17a3.49,3.49,0,0,1-3.49-3.49V331.86a3.5,3.5,0,0,0-3.5-3.49h-121a3.5,3.5,0,0,1-3.49-3.5V282.53A3.45,3.45,0,0,1,17,281q9.32-18.56,23.18-41.86,14.12-23.76,31.46-48.8t36.61-49c12.5-15.55,25-22.54,37.5-35.12a3.46,3.46,0,0,1,2.48-1h55.42A3.49,3.49,0,0,1,207.18,108.62Zm-62.08,77a3.49,3.49,0,0,0-6.27-2q-14.12,18.62-29.69,39.85C97.82,238.91,91.42,247.29,84,262A3.49,3.49,0,0,0,87.11,267h58a3.49,3.49,0,0,0,3.49-3.65Z"/><path class="cls-3" d="M83.71,265,63.29,280.18h67.22l6.4-13.32-48.4.27-2-.07a2.49,2.49,0,0,1-1.89-.94Z"/><path class="cls-4" d="M193,102.09V280.18h31.68v52.23H193v66.36h-62.5V332.41H2.5V285.75q9.4-18.84,23.55-42.6t31.46-48.8q17.34-25,36.61-49a533.23,533.23,0,0,1,38.53-43.24ZM130.51,180Q113.8,201.84,95,227.53a325.78,325.78,0,0,0-31.68,52.65h67.22Z"/><polygon class="cls-2" points="227.12 334.86 238.86 328.48 238.86 310.76 227.37 319.4 227.12 334.86"/><path class="cls-3" d="M195.72,277.71H225l.37.11a2.71,2.71,0,0,1,1.67,1.47l.25.57,6.6-6.2,3.93-3.62a3.47,3.47,0,0,0-2.42-1h-24.7l-.93-.21a1.3,1.3,0,0,0-1,.19Z"/><path class="cls-33" d="M96.61,315.71a10.41,10.41,0,0,0,4.63,18.65L102.3,327l-3.5-2.46Z"/><path class="cls-34" d="M100.61,325.8l-1.76-1.22.35,1.58-6.13,1.58a10.41,10.41,0,0,0,1.63,2.85C97.28,330,101,329,101.2,329a4.44,4.44,0,0,0,1-.94l.15-1.05Z"/><path class="cls-35" d="M105.08,313.09l2.34,9.43-1.84,2.91L91.4,329a5.24,5.24,0,0,0,.34.61l0,0,0,0a10.21,10.21,0,0,0,1.67,2c1.4,1.43,3.07,2.75,4.15,3.68,3,2.59,4.13,7.68,4.54,10.68l4.25,45.25L116.3,389l-6.24-49.81c0-.12,0-.24,0-.37-1-7.82,3.32-9.86,3.75-14.07a7.45,7.45,0,0,0,.06-2,9.7,9.7,0,0,0-.29-1.82A10.4,10.4,0,0,0,105.08,313.09Z"/><path class="cls-33" d="M113.54,320.87a10.41,10.41,0,0,0-7.66-7.62,10.4,10.4,0,0,1,7,7.42,9.68,9.68,0,0,1,.29,1.83,8.45,8.45,0,0,1-.06,2c-.43,4.21-4.71,6.24-3.75,14.06,0,.13,0,.25,0,.37l6.24,49.81-9.22,2.17,0,.36L116.3,389l-6.24-49.81c0-.12,0-.24,0-.37-1-7.82,3.32-9.86,3.75-14.07a7.45,7.45,0,0,0,.06-2A9.7,9.7,0,0,0,113.54,320.87Z"/><path class="cls-5" d="M101.62,333.22a1.34,1.34,0,0,1-1.26-.89l-.69-2.1a1.05,1.05,0,0,1,.08-.87,1,1,0,0,1,.7-.53l5.71-1.42a1.27,1.27,0,0,1,.28,0,1.07,1.07,0,0,1,1.06.9l.37,2.19a1.32,1.32,0,0,1-1,1.48l-5,1.24A1.36,1.36,0,0,1,101.62,333.22Z"/><path class="cls-33" d="M106.44,327.62a.82.82,0,0,1,.81.71l.38,2.18a1.08,1.08,0,0,1-.79,1.2l-5,1.24a1,1,0,0,1-.24,0,1.07,1.07,0,0,1-1-.72l-.7-2.11a.89.89,0,0,1,.06-.68.85.85,0,0,1,.54-.4l5.72-1.42a.78.78,0,0,1,.22,0Zm0-.49a2,2,0,0,0-.34,0l-5.71,1.42a1.31,1.31,0,0,0-1,1.71l.69,2.11a1.59,1.59,0,0,0,1.49,1.06,1.34,1.34,0,0,0,.35,0l5-1.24a1.58,1.58,0,0,0,1.15-1.76l-.37-2.19a1.33,1.33,0,0,0-1.3-1.11Z"/><polygon class="cls-36" points="101.74 347.02 111.32 345.05 116.87 389.34 105.96 391.91 101.74 347.02"/><polygon class="cls-37" points="111.38 345.55 101.9 348.19 102.3 353.05 112.33 353.07 111.38 345.55"/><rect class="cls-38" x="99.8" y="329.07" width="8.01" height="2.82" rx="0.18" transform="translate(-76.58 34.75) rotate(-13.94)"/><path class="cls-39" d="M112.19,345.07a1,1,0,0,1-.71,1.21l-9.09,2.45a1,1,0,0,1-1.21-.71h0a1,1,0,0,1,.7-1.21l9.1-2.44a1,1,0,0,1,1.21.7Z"/><polygon class="cls-40" points="178.51 343.84 181.39 342.69 180.68 337.57 166.35 332.79 165.51 334.8 150.16 337.02 133.71 387.64 150.04 398.76 153.53 396.7 153.2 392.66 156.7 390.6 156.36 386.56 159.86 384.5 159.53 380.46 163.02 378.4 162.69 374.36 166.19 372.3 165.85 368.25 169.35 366.19 169.02 362.15 172.51 360.09 172.18 356.05 175.68 353.99 175.34 349.94 178.84 347.88 178.51 343.84"/><path class="cls-41" d="M180.46,336.79l-13.74-4.89-.84,2-15.36,2.21-2,6.18a2.58,2.58,0,0,0,1,.41c.72.16,10.69,3.68,11.35,3.81,3.49,1.18,5.26,1.42,8.79-.06,4.28-1.81,8.48-5.16,11.6-7.25Z"/><path class="cls-42" d="M188,317.24a2.91,2.91,0,0,0-3.81-.76,22,22,0,0,0-3.49,2.1,2.85,2.85,0,0,1-3.34,0,45.35,45.35,0,0,0-10.2-3.91,1.59,1.59,0,0,1-1.14-.87,14.71,14.71,0,0,1-1.48-3.32c-.39-1.72-1.7-2-3.12-2a2.46,2.46,0,0,0-2.76,2.3c-.08,2.4-1.37,4.05-2.61,5.89a16.42,16.42,0,0,0-2.83,13.11c.46,1.7-.2,2.92-2.07,4.14a9.47,9.47,0,0,0-3,2.51c-.78,1.2-1.12,4.08,1.25,4.6.7.15,10.32,3.55,11,3.69,3.38,1.13,5.09,1.37,8.49-.07,4.29-1.8,9.17-5.21,12.16-7.2,3.25-2.48,5.2-9,4.77-12.14a4.63,4.63,0,0,1,1.17-2.91c.28-.36.93-1,1.23-1.32A2.71,2.71,0,0,0,188,317.24Zm-11.55,11.5a3.86,3.86,0,0,1-4.93,2.31l-9.32-3.13a3.77,3.77,0,1,1,2.4-7.14l9.32,3.13A3.87,3.87,0,0,1,176.41,328.74Z"/><path class="cls-43" d="M152.45,336.59a1.47,1.47,0,1,1-1.86.93A1.48,1.48,0,0,1,152.45,336.59Z"/><path class="cls-43" d="M164.39,340.15a1.47,1.47,0,1,1-1.86.92A1.47,1.47,0,0,1,164.39,340.15Z"/><path class="cls-43" d="M175.61,335.73a1.47,1.47,0,1,1-1.86.93A1.46,1.46,0,0,1,175.61,335.73Z"/><path class="cls-44" d="M177,328.94a4.15,4.15,0,0,1-5.29,2.49l-10-3.36a4,4,0,1,1,2.58-7.66l10,3.36A4.14,4.14,0,0,1,177,328.94Z"/><path class="cls-45" d="M188.29,321.24a2.51,2.51,0,0,0,.65-2.71,2.52,2.52,0,0,1-.91,2.09c-1.3,1.19-3.46,1.61-3.35,5.15.18,5.76-1.8,8.61-3.56,10.29a69.46,69.46,0,0,1-10.24,6.8c-2.23,1.11-5.37,2.61-7.8,2-1.66-.42-7.91-2.33-11.75-3.61-2.81-.93-3.46-1.22-3.94-1.85a2.47,2.47,0,0,0,1.76,1.85c.7.15,10.32,3.55,11,3.68,3.37,1.14,5.37,1.46,8.78,0,4.28-1.8,9-5.06,12-7.05a10.74,10.74,0,0,0,2.66-2.36,15.42,15.42,0,0,0,2.42-10,5,5,0,0,1,1.15-3.06C187.37,322.13,188,321.57,188.29,321.24Z"/><polygon class="cls-46" points="153.46 372.28 153.46 372.85 166.95 349.19 146.04 349.68 144.75 353.65 156.55 353.65 143.51 372.28 153.46 372.28"/><polygon class="cls-47" points="177.42 351.64 81.07 351.7 81.07 346.87 177.42 346.87 177.42 351.64"/><rect class="cls-48" x="81.07" y="346.62" width="96.35" height="1.84"/><rect class="cls-37" x="171.17" y="346.62" width="2.88" height="5.03"/><path class="cls-49" d="M144.79,346.69l-6.51,2.64.83-2.71H134a5.93,5.93,0,0,0,2.83,5.05h8.23c1-.72,1.57-3.17,1.57-3.17l1.47-1.87H144.8Z"/><path class="cls-49" d="M117,351.11q0,.3,0,.57H127.6c0-.23,0-.47,0-.72,0-.49-.26-2.48-.26-2.48l.73-1.85H117.41A40.48,40.48,0,0,0,117,351.11Zm5.16-3.72h0v0a2.07,2.07,0,1,1-.11,4.14,2.1,2.1,0,0,1-2.15-2.08A2.07,2.07,0,0,1,122.17,347.39Z"/><polygon class="cls-49" points="96.2 351 97.6 351.7 98.94 351.7 98.12 348.44 99.34 346.58 95.64 346.58 95.44 347.75 96.2 351"/><path class="cls-35" d="M132.9,382.81l3.66-1.65.6-4.23-3.07-2.59h0l3.59-25.48h0l4.26-2.18.7-5a6.41,6.41,0,0,1,2.26,6.29c-.59,4.11-5,4.84-5,4.84L137,372.77l3.26,2.75-1.11,7.85-6.79,3.05h0l.51-3.62Z"/><path class="cls-50" d="M133,382.82l-3.06-2.6.61-4.23,3.67-1.63h0l3.69-25.47h0l-3.47-3.29.72-5a6.41,6.41,0,0,0-3.93,5.41c-.59,4.11,3.5,6,3.5,6l-2.89,20-3.9,1.73-1.14,7.84,5.68,4.83h0l.53-3.61Z"/><rect class="cls-51" x="97.84" y="364.16" width="4.67" height="5.19" transform="translate(-89.86 37.47) rotate(-14.71)"/><rect class="cls-33" x="95.64" y="344.86" width="2.59" height="19.2" transform="translate(-86.86 36.25) rotate(-14.72)"/><polygon class="cls-33" points="95.65 341.39 91.64 342.44 93.25 345.51 95.76 344.85 95.65 341.39"/><polygon class="cls-35" points="95.65 341.39 91.64 342.44 90.48 334.97 92.99 334.31 95.65 341.39"/><path class="cls-52" d="M103.7,363.34a1,1,0,0,1-.71,1.21l-6.34,1.67a1,1,0,0,1-1.21-.71h0a1,1,0,0,1,.71-1.21l6.34-1.67a1,1,0,0,1,1.21.71Z"/><rect class="cls-51" x="98.33" y="367.46" width="8.82" height="18.16" rx="3.68" transform="translate(-92.32 38.47) rotate(-14.72)"/><path class="cls-45" d="M103.45,382.13a1,1,0,0,1-.74,1.26h0a1,1,0,0,1-1.27-.74l-2.83-10.79a1,1,0,0,1,.74-1.26h0a1,1,0,0,1,1.26.74Z"/><path class="cls-45" d="M106.87,381.23a1,1,0,0,1-.74,1.26h0a1,1,0,0,1-1.26-.74L102,371a1,1,0,0,1,.74-1.26h0a1,1,0,0,1,1.27.74Z"/><path class="cls-33" d="M136.69,354a.59.59,0,0,0-.67.49l-2.82,19.17a.57.57,0,0,0,.49.66l.87.13a.6.6,0,0,0,.67-.5L138,354.79a.57.57,0,0,0-.49-.66Z"/><rect class="cls-53" x="116.06" y="350.58" width="99.7" height="16.01" rx="2.24" transform="translate(-223.02 288.99) rotate(-55.03)"/><path class="cls-54" d="M185.49,330.6a5.24,5.24,0,1,1,7.3-1.29A5.23,5.23,0,0,1,185.49,330.6Z"/><path class="cls-55" d="M164.42,346.75l3.39,2.38a1.12,1.12,0,0,1,.28,1.57l-9,12.92a1.13,1.13,0,0,1-1.57.28l-3.39-2.37Z"/><path class="cls-56" d="M158.12,364.66a1.7,1.7,0,0,1-1-.3L153.77,362l.64-.92,3.39,2.37a.56.56,0,0,0,.79-.14l9-12.92a.58.58,0,0,0-.14-.8l-3.39-2.37.64-.91,3.39,2.37a1.69,1.69,0,0,1,.42,2.35l-9,12.92A1.69,1.69,0,0,1,158.12,364.66Z"/><path class="cls-57" d="M161.78,350.53l4.21,3Z"/><path class="cls-57" d="M156.8,357.65l4.21,3Z"/><path class="cls-5" d="M162.51,356.17c-.68,1-1.77,1.39-2.44.92s-.66-1.64,0-2.61,1.77-1.39,2.44-.92S163.2,355.2,162.51,356.17Z"/><path class="cls-55" d="M183.3,325.64l7.61,5.32a5.2,5.2,0,0,0,1.88-1.65,5.11,5.11,0,0,0,.9-2.33l-7.61-5.32a5.24,5.24,0,0,0-2.78,4Z"/><path class="cls-58" d="M184.83,326.72l2.81-4Z"/><path class="cls-59" d="M177.41,339.3l4.4-6.3Z"/><path class="cls-59" d="M179.13,340.5l2.74-3.94Z"/><path class="cls-58" d="M189.19,329.76l2.8-4Z"/><path class="cls-5" d="M189.15,325.45a1.14,1.14,0,1,1-1.26,1.8,1.14,1.14,0,1,1,1.26-1.8Z"/><path class="cls-60" d="M185.49,330.6a5.24,5.24,0,1,1,7.3-1.29A5.23,5.23,0,0,1,185.49,330.6Z"/><path class="cls-5" d="M138.24,391.69a5.24,5.24,0,1,1,6.07,4.25A5.23,5.23,0,0,1,138.24,391.69Z"/><path class="cls-55" d="M140.2,386.63l1.62,9.14a5.21,5.21,0,0,0,2.49.17,5.14,5.14,0,0,0,2.28-1L145,385.79a5.22,5.22,0,0,0-4.78.84Z"/><path class="cls-58" d="M140.52,388.48l4.82-.86Z"/><path class="cls-58" d="M141.45,393.71l4.81-.85Z"/><path class="cls-5" d="M144.47,390.63a1.31,1.31,0,0,1-.83,1.61c-.6.1-1.2-.45-1.34-1.23a1.31,1.31,0,0,1,.84-1.6C143.73,389.3,144.33,389.85,144.47,390.63Z"/><path class="cls-60" d="M138.24,391.69a5.24,5.24,0,1,1,6.07,4.25A5.23,5.23,0,0,1,138.24,391.69Z"/><path class="cls-61" d="M186.81,314.75l.74-1.05a.66.66,0,0,1,.93-.17l12,8.41a.66.66,0,0,1,.16.93l-.73,1.05Z"/><path class="cls-61" d="M145.55,401.66l-1.23,1.75a.67.67,0,0,1-.93.17l-12-8.41a.67.67,0,0,1-.16-.93l1.22-1.76Z"/><path class="cls-33" d="M118.49,335.66l1.33,11.74h-.17a2.05,2.05,0,0,0-2.25,2.08,2.12,2.12,0,0,0,2.32,2.09l-4.11,4.23a9,9,0,0,1-1.11-4.68c0-3.35,2.22-15.93,2.22-15.93Z"/><path class="cls-51" d="M130.94,388.26c-.79-3.9-2.78-8.1-4.7-12.17-1.73-3.66-3.37-7.12-4-10.11,0-.17-.06-.36-.09-.55l0-.22.22,0,3.84-.79,0,.26a5,5,0,0,0,.08.51c.51,2.5,2,5.75,3.66,9.18,2,4.31,4.13,8.74,5,13.11l.05.24-4,.82Z"/><path class="cls-51" d="M126,364.65a5.29,5.29,0,0,0,.08.54c.52,2.53,2.06,5.79,3.69,9.24,2,4.28,4.11,8.7,5,13.05l-3.58.73c-.79-3.92-2.79-8.14-4.72-12.22-1.72-3.65-3.35-7.1-4-10.06,0-.17-.06-.35-.09-.53h0l3.56-.74Zm.42-.57-.52.11-3.53.73h0l-.45.08.07.45a4.85,4.85,0,0,0,.09.57c.62,3,2.26,6.49,4,10.16,1.92,4.06,3.9,8.25,4.69,12.11l.09.47.47-.09,3.58-.73.46-.1-.09-.46c-.9-4.41-3-8.86-5-13.16-1.62-3.43-3.15-6.66-3.66-9.13a4,4,0,0,1-.07-.5l-.06-.52Z"/><path class="cls-33" d="M121.9,360.31a.87.87,0,0,0-.85-.69l0-3.65a4.56,4.56,0,0,1,4.43,3.4,18.79,18.79,0,0,1,.39,3.22,1.18,1.18,0,0,0-.26,0l-3.35.7c0-.08,0-.15,0-.23A18.37,18.37,0,0,0,121.9,360.31Z"/><path class="cls-62" d="M122.18,365.73a1.21,1.21,0,0,1-1.18-1,1.26,1.26,0,0,1,.17-.91,1.22,1.22,0,0,1,.77-.52l3.57-.74.23,0h.06a1.2,1.2,0,0,1,1.13,1A1.22,1.22,0,0,1,126,365l-3.58.74Z"/><path class="cls-62" d="M125.74,362.75h.06a1,1,0,0,1,.16,2.06h0l-3.57.74h0a.62.62,0,0,1-.19,0,1,1,0,0,1-.21-2.06l.22-.05,3.35-.69a.68.68,0,0,1,.2,0Zm0-.32a1,1,0,0,0-.26,0l-3.36.69-.22.05a1.36,1.36,0,0,0-.86.58,1.34,1.34,0,0,0-.19,1,1.36,1.36,0,0,0,1.33,1.08l.23,0h0l3.56-.74a1.36,1.36,0,0,0-.21-2.69Z"/><path class="cls-51" d="M104.34,388.14l0-.24c.75-4.4,2.71-8.9,4.6-13.25,1.52-3.49,3-6.78,3.39-9.29a3.56,3.56,0,0,0,.06-.52l0-.26,3.84.67.23,0,0,.23c0,.19,0,.38-.07.55-.53,3-2,6.51-3.67,10.23-1.79,4.12-3.65,8.38-4.32,12.3l0,.24Z"/><path class="cls-51" d="M112.67,364.86l3.59.63h0c0,.19,0,.37-.07.54-.52,3-2,6.47-3.65,10.17-1.8,4.14-3.66,8.42-4.34,12.36l-3.6-.62c.76-4.37,2.71-8.86,4.59-13.2,1.53-3.49,3-6.8,3.41-9.34,0-.15,0-.34.06-.54Zm-.43-.56,0,.52c0,.21,0,.38-.06.5-.44,2.48-1.86,5.76-3.37,9.22-1.9,4.38-3.87,8.89-4.63,13.32l-.08.47.47.09,3.6.61.47.08.08-.47c.67-3.89,2.52-8.14,4.31-12.25,1.62-3.73,3.15-7.25,3.68-10.28,0-.18.06-.37.08-.57l0-.46-.46-.06h0l-3.56-.62-.51-.09Z"/><path class="cls-33" d="M116.61,360.39a.87.87,0,0,1,.83-.72l-.06-3.65a4.56,4.56,0,0,0-4.32,3.54,18.78,18.78,0,0,0-.29,3.23H113l3.38.6v-.23A20.68,20.68,0,0,1,116.61,360.39Z"/><path class="cls-62" d="M116.42,365.82l-.19,0-3.61-.63a1.2,1.2,0,0,1-1-1.39,1.19,1.19,0,0,1,1.09-1h.3l3.59.64a1.19,1.19,0,0,1,.78.49,1.24,1.24,0,0,1,.2.9,1.2,1.2,0,0,1-1.18,1Z"/><path class="cls-62" d="M112.84,363H113l3.37.59.23,0a1,1,0,0,1-.18,2.07h-.19l-3.58-.63h0a1,1,0,0,1-.85-1.2,1.06,1.06,0,0,1,.95-.86Zm0-.32h-.12a1.36,1.36,0,0,0-1,2.14,1.33,1.33,0,0,0,.88.56l3.59.63h0l.2,0a1.36,1.36,0,0,0,.23-2.7l-.22,0-3.37-.59a.78.78,0,0,0-.22,0Z"/><path class="cls-35" d="M118.36,351.42a3.27,3.27,0,0,0,1,.14,2.24,2.24,0,0,0,2.43-2.1,2.18,2.18,0,0,0-2.14-2l1-11.8,1.79-.38S125,347.62,125.09,351a9.88,9.88,0,0,1-.79,4.37,6,6,0,0,1,.09.86,5,5,0,1,1-6-4.76Z"/><path class="cls-33" d="M117.09,356.29a2.35,2.35,0,1,0,2.31-2.38A2.35,2.35,0,0,0,117.09,356.29Z"/><rect class="cls-63" x="82.13" y="371.62" width="92.43" height="32.98"/><path class="cls-47" d="M82.48,389.15l46.34-.43,45.36.21-.1,1.23H168s-4.65,2.65-12.69,2.65-8.41-2.4-15.43-2.4-17.92-.26-17.92-.26l-16.07.79-23.5-.8Z"/><path class="cls-47" d="M132.77,387.58s.65-1.68,5.6-1.79,18.42-1.1,18.42-3.65-5.09-2.46-8.36-2.64-3.46-3.07.11-3.36,23.1,0,23.1,0l2.54,2.18-.57,2.63a21,21,0,0,1-6.4,1.48c-2.77,0-7.19,0-7.19,1.42s1.18,2.16,3.4,2.16c2,0,10.76-.16,10.76-.16l-.09,2.26-25.37.14Z"/><path class="cls-47" d="M147.65,403.81l23.3-.19A58.53,58.53,0,0,0,147.06,398c-4.87,0-6.12-3.53-24.87-3.53-9.28,0-13.54.06-13.54,2.69s7.88,2.63,7.88,2.63l9.69,4.31Z"/><path class="cls-64" d="M82.47,374h8.86a42.58,42.58,0,0,0,19,4.2c9.08,0,9.17,7.46-.43,7.46-7.72,0-11,2.23-11,2.23L84,387.68l-1.41-6.37Z"/><path class="cls-64" d="M82.54,403.71l-.17-8.17L90.05,397a79.72,79.72,0,0,1,12.26-1.25c5.56,0,3,3.88,12.68,3.88s15,4.12,15,4.12Z"/><rect class="cls-65" x="82.95" y="387.36" width="90.66" height="1.78"/><rect class="cls-48" x="83.14" y="371.56" width="89.32" height="2.07"/><rect class="cls-65" x="82.29" y="371.56" width="3.03" height="33.09"/><rect class="cls-65" x="170.55" y="371.56" width="3.51" height="32.98"/><rect class="cls-65" x="78.36" y="403.42" width="97.29" height="2.95"/><path class="cls-64" d="M176.69,364.45h-1.07a3.26,3.26,0,0,0-3.26,3.26v38.66H180V367.71A3.26,3.26,0,0,0,176.69,364.45Z"/><path class="cls-64" d="M80.07,342.27H79a3.26,3.26,0,0,0-3.26,3.26v60.84h7.59V345.53A3.26,3.26,0,0,0,80.07,342.27Z"/><rect class="cls-47" x="75.74" y="341.16" width="7.59" height="29.12" rx="3.26"/><polygon class="cls-49" points="85.05 346.62 83.27 346.62 83.27 342.3 81.65 342.81 80.01 345.21 80.79 347.23 75.69 347.36 75.69 354.56 83.34 365.62 83.34 351.64 85.05 351.64 85.05 346.62"/><polygon class="cls-56" points="94.51 371.56 87.48 371.56 70.73 338.8 76.31 335.95 94.51 371.56"/><polygon class="cls-61" points="81.81 346.65 76.97 350.94 75.38 347.89 81 345.02 81.81 346.65"/><polygon class="cls-61" points="91 371.56 87.48 371.56 70.73 338.8 73.53 337.38 91 371.56"/><polygon class="cls-38" points="65.95 353.21 88.93 341.55 84.97 333.81 69.29 341.74 64.07 349.53 65.95 353.21"/><polygon class="cls-35" points="64.5 349.82 63.64 349.25 68.93 341.34 84.74 333.35 85.2 334.26 69.64 342.13 64.5 349.82"/><polygon class="cls-66" points="74.12 349.06 79.15 346.51 78.72 336.96 73.69 339.51 74.12 349.06"/><path class="cls-63" d="M115.2,381.82c0,1.1-1.56,1.92-3.53,1.84s-3.57-1-3.59-2.13,1.57-1.92,3.53-1.84S115.19,380.72,115.2,381.82Z"/><path class="cls-63" d="M162.87,398.65c0,1.4-1.94,2.5-4.45,2.45s-4.58-1.22-4.63-2.62,1.94-2.49,4.45-2.45S162.82,397.26,162.87,398.65Z"/><path class="cls-67" d="M115.52,397c0,.54-.72,1-1.67,1s-1.75-.43-1.78-1,.72-.95,1.68-.95S115.49,396.49,115.52,397Z"/><path class="cls-47" d="M160.78,398.32c0,.53-.72,1-1.67,1s-1.75-.44-1.77-1,.72-1,1.67-.95S160.76,397.79,160.78,398.32Z"/><path class="cls-47" d="M172.36,363.25v5.05c0,1.8,1.46,2,3.26,2h1.07c1.8,0,3.26-.18,3.26-2V352.4Z"/><polygon class="cls-49" points="172.36 365.52 179.95 359.9 179.95 352.4 172.36 363.25 172.36 365.52"/><path class="cls-2" d="M441.21,211.32Q464.6,282.5,450,329.41T387.91,392q-47.6,15.65-87.13-13.5T237.85,278.14q-11.62-35.38-13.46-65t5.43-52.71q7.29-23.11,22.78-39t38.68-23.52q47.6-15.64,87.13,13.5T441.21,211.32Zm-61.82,20.32a346.26,346.26,0,0,0-14.67-37.77,145.31,145.31,0,0,0-16.33-27.76Q339.78,155,329.78,150.6T308.39,150Q297,153.71,291.75,163.1T286,186.63a136.88,136.88,0,0,0,3.12,32.1,346.48,346.48,0,0,0,10.59,39.1,352.32,352.32,0,0,0,14.73,38q7.78,16.83,16.6,27.89t18.62,15.51q9.79,4.46,21.18.7t16.85-13.19q5.44-9.45,5.78-23.53a146.27,146.27,0,0,0-3.38-32.24A355.79,355.79,0,0,0,379.39,231.64Z"/><path class="cls-68" d="M370.8,339.9q-11.39,3.75-21.18-.7T331,323.69q-8.82-11.07-16.6-27.89a352.32,352.32,0,0,1-14.73-38,346.48,346.48,0,0,1-10.59-39.1,136.88,136.88,0,0,1-3.12-32.1q.54-14.15,5.79-23.53a27.15,27.15,0,0,1,2.7-3.94l-23.52-52.1a88.84,88.84,0,0,0-18.33,14.37q-15.51,15.91-22.78,39t-5.43,52.71q1.83,29.6,13.46,65,23.39,71.19,62.93,100.32T387.91,392q5.14-1.68,9.9-3.76l-22.6-50.09A36.26,36.26,0,0,1,370.8,339.9Z"/><path class="cls-69" d="M430.07,216.38q23.4,71.17,8.84,118.09T376.77,397q-47.58,15.64-87.12-13.5T226.72,283.2q-11.62-35.38-13.47-65t5.44-52.71q7.27-23.11,22.78-39T280.15,103q47.58-15.64,87.13,13.5T430.07,216.38ZM368.25,236.7a348.38,348.38,0,0,0-14.66-37.77,145.83,145.83,0,0,0-16.33-27.76q-8.62-11.13-18.62-15.51T297.26,155q-11.4,3.74-16.64,13.13t-5.79,23.53a136.82,136.82,0,0,0,3.11,32.1,348.79,348.79,0,0,0,10.6,39.1,352.32,352.32,0,0,0,14.73,38q7.77,16.83,16.6,27.89t18.61,15.52q9.79,4.44,21.19.69t16.84-13.19q5.46-9.45,5.79-23.53A146.27,146.27,0,0,0,378.92,276,353.78,353.78,0,0,0,368.25,236.7Z"/><path class="cls-11" d="M474.35,360.89s-6.12,20.79-3.4,27.1,7.15,6.6,7.15,6.6-2.39-8,1.47-18.36,5.85-13.35,5.85-13.35S478.62,365.49,474.35,360.89Z"/><path class="cls-56" d="M630.25,362.74l-1.69-2.41a1.33,1.33,0,0,1-.09-1.37l22.37-42.23,4.64,2.46-23,43.41A1.3,1.3,0,0,1,630.25,362.74Z"/><polygon class="cls-61" points="650.77 328.09 645.5 326.82 646.83 324.28 651.5 326.75 650.77 328.09"/><path class="cls-61" d="M628.56,360.33h0a1.33,1.33,0,0,1-.09-1.37l22.37-42.23,2.32,1.23-22.37,42.23A1.31,1.31,0,0,1,628.56,360.33Z"/><polygon class="cls-38" points="638.66 320.36 657.68 330.53 661.1 324.1 648.13 317.14 640.28 317.3 638.66 320.36"/><polygon class="cls-35" points="640.29 317.73 640.27 316.87 648.24 316.71 661.3 323.72 660.89 324.48 648.03 317.58 640.29 317.73"/><polygon class="cls-66" points="645.43 323.98 649.59 326.2 655.93 321.33 651.78 319.1 645.43 323.98"/><polygon class="cls-5" points="643.51 318.66 640.27 318.97 643.36 317.92 643.05 314.67 644.11 317.76 647.35 317.45 644.26 318.5 644.57 321.75 643.51 318.66"/><path class="cls-3" d="M421.1,247.33a9.85,9.85,0,0,1,0,1.33,1.15,1.15,0,0,1-.69,1,2.17,2.17,0,0,1-1.81.17l-.27-.09a4,4,0,0,0-4.33.85,3.75,3.75,0,0,1-1.73,1.15,5.48,5.48,0,0,1-.56.1,1.28,1.28,0,0,1-1.47-1.06s0,0,0-.08a6.42,6.42,0,0,1-.09-.87,1.74,1.74,0,0,1,1.15-1.86,1.69,1.69,0,0,0,1-1.18,14.91,14.91,0,0,1,.83-2.13,3.61,3.61,0,0,1,.74-1,1.42,1.42,0,0,1,1.52-.28,3.79,3.79,0,0,1,1.62,1,3.33,3.33,0,0,0,2.08,1.06,2.27,2.27,0,0,1,1.88,1.9Z"/><path class="cls-3" d="M410,241.46a4.65,4.65,0,0,1,0-1.82c.15-.75.27-1.51.36-2.26a.46.46,0,0,1,.45-.48h.12a1.55,1.55,0,0,1,.64.2,4.55,4.55,0,0,1,2.2,3.06,2.56,2.56,0,0,1-.31,1.71,1.84,1.84,0,0,1-3.48-.42Z"/><path class="cls-3" d="M408.19,245.91a5.1,5.1,0,0,1-.12-2.13,1.8,1.8,0,0,1,.56-1.11c.29-.26.57-.25.78.08a3.06,3.06,0,0,0,1.15,1l.51.3a1,1,0,0,1,.38,1.24,6.12,6.12,0,0,1-.79,1.29,1.31,1.31,0,0,1-1.84.3,1.41,1.41,0,0,1-.44-.53A1.45,1.45,0,0,1,408.19,245.91Z"/><path class="cls-3" d="M417.53,239.67a1.46,1.46,0,0,1-.28,1.71,1.68,1.68,0,0,1-1.83.37,1.2,1.2,0,0,1-.73-1.25,9.13,9.13,0,0,1,.15-1c.07-.5.14-1,.21-1.52a1.53,1.53,0,0,1,.07-.36.39.39,0,0,1,.49-.24l.11.05a.39.39,0,0,1,.1.08A5.8,5.8,0,0,1,417.53,239.67Z"/><path class="cls-3" d="M421,241.67a9.71,9.71,0,0,1,0,1.32,1.55,1.55,0,0,1-1.52,1.39,1.52,1.52,0,0,1-1.4-1.18,1.25,1.25,0,0,1,.07-.93c.17-.37.37-.73.54-1.11a7.1,7.1,0,0,0,.35-.86c.1-.29.24-.39.56-.24a2.28,2.28,0,0,1,1.11,1.16,2.79,2.79,0,0,1,.14.47Z"/><path class="cls-3" d="M395.35,173c.19.4.36.81.51,1.22a1.18,1.18,0,0,1-.31,1.14,2.19,2.19,0,0,1-1.63.81h-.28a4,4,0,0,0-3.74,2.35,3.8,3.8,0,0,1-1.21,1.69,3.5,3.5,0,0,1-.49.29,1.28,1.28,0,0,1-1.75-.46.25.25,0,0,0,0-.07,5.68,5.68,0,0,1-.39-.78,1.73,1.73,0,0,1,.41-2.15,1.7,1.7,0,0,0,.53-1.46,16.05,16.05,0,0,1,0-2.3,3.48,3.48,0,0,1,.34-1.18,1.43,1.43,0,0,1,1.32-.81,3.84,3.84,0,0,1,1.89.4,3.31,3.31,0,0,0,2.31.25,2.32,2.32,0,0,1,2.45,1.1Z"/><path class="cls-3" d="M382.84,171.44a4.48,4.48,0,0,1-.63-1.7c-.13-.76-.29-1.51-.48-2.24a.47.47,0,0,1,.26-.61l.12,0a1.34,1.34,0,0,1,.66,0,4.52,4.52,0,0,1,3.15,2.07,2.59,2.59,0,0,1,.32,1.7,1.89,1.89,0,0,1-1.26,1.64A1.86,1.86,0,0,1,382.84,171.44Z"/><path class="cls-3" d="M382.78,176.24a5,5,0,0,1-.88-2,1.86,1.86,0,0,1,.13-1.23.45.45,0,0,1,.75-.2,3.2,3.2,0,0,0,1.44.51l.58.1a1,1,0,0,1,.8,1,6.32,6.32,0,0,1-.28,1.49,1.33,1.33,0,0,1-1.61.94,1.31,1.31,0,0,1-.6-.35A1.26,1.26,0,0,1,382.78,176.24Z"/><path class="cls-3" d="M389.27,167.07a1.48,1.48,0,0,1,.35,1.7,1.69,1.69,0,0,1-1.58,1,1.2,1.2,0,0,1-1.12-.91,7,7,0,0,1-.23-1c-.11-.5-.23-1-.35-1.5,0-.12,0-.24-.07-.36a.39.39,0,0,1,.38-.4.25.25,0,0,1,.12,0,.24.24,0,0,1,.12,0A5.82,5.82,0,0,1,389.27,167.07Z"/><path class="cls-3" d="M393.27,167.68c.19.4.36.8.51,1.21a1.57,1.57,0,0,1-.92,1.85,1.52,1.52,0,0,1-1.73-.6,1.24,1.24,0,0,1-.27-.89c0-.41.09-.82.12-1.24a7.21,7.21,0,0,0,0-.92c0-.31.09-.45.44-.43a2.31,2.31,0,0,1,1.45.69,2.88,2.88,0,0,1,.3.39Z"/><path class="cls-3" d="M345.45,119.54c.27.36.51.73.74,1.11a1.17,1.17,0,0,1-.09,1.17,2.19,2.19,0,0,1-1.45,1.1l-.28.06a4,4,0,0,0-3.22,3,3.82,3.82,0,0,1-.87,1.89c-.13.13-.28.26-.42.38a1.29,1.29,0,0,1-1.81-.13l-.05-.06a4.37,4.37,0,0,1-.53-.69,1.72,1.72,0,0,1,0-2.18,1.69,1.69,0,0,0,.24-1.55,17.14,17.14,0,0,1-.42-2.25,3.41,3.41,0,0,1,.11-1.23,1.43,1.43,0,0,1,1.14-1,3.94,3.94,0,0,1,1.93,0,3.26,3.26,0,0,0,2.32-.19,2.3,2.3,0,0,1,2.61.62Z"/><path class="cls-3" d="M332.89,120.43a4.25,4.25,0,0,1-.94-1.55c-.28-.72-.58-1.43-.9-2.1a.48.48,0,0,1,.14-.66l.1-.05a1.52,1.52,0,0,1,.65-.16,4.54,4.54,0,0,1,3.49,1.43,2.6,2.6,0,0,1,.63,1.62,1.88,1.88,0,0,1-.92,1.85A1.86,1.86,0,0,1,332.89,120.43Z"/><path class="cls-3" d="M333.73,125.15a5,5,0,0,1-1.23-1.75,1.8,1.8,0,0,1-.1-1.23c.1-.38.35-.51.7-.35a3,3,0,0,0,1.5.24l.59,0a1,1,0,0,1,1,.86,6.35,6.35,0,0,1,0,1.51,1.34,1.34,0,0,1-1.41,1.23,1.38,1.38,0,0,1-.65-.23A1.26,1.26,0,0,1,333.73,125.15Z"/><path class="cls-3" d="M338.37,114.92c.59.52.84,1,.67,1.6a1.72,1.72,0,0,1-1.36,1.29,1.22,1.22,0,0,1-1.28-.68,8.86,8.86,0,0,1-.42-.95c-.2-.47-.41-.93-.62-1.41a2,2,0,0,1-.14-.34.4.4,0,0,1,.3-.47h.24A5.94,5.94,0,0,1,338.37,114.92Z"/><path class="cls-3" d="M342.41,114.77a9.86,9.86,0,0,1,.73,1.09,1.48,1.48,0,0,1-2.37,1.73,1.34,1.34,0,0,1-.43-.83c0-.4-.07-.82-.12-1.23a7,7,0,0,0-.16-.91c-.07-.3,0-.46.35-.51a2.4,2.4,0,0,1,1.56.4,3.8,3.8,0,0,1,.37.33Z"/><path class="cls-3" d="M383,226.92a2.05,2.05,0,0,1,.8-2.26A2.9,2.9,0,0,0,385,223a3.57,3.57,0,0,1,.91-1.47,1.27,1.27,0,0,1,1.34-.34,3,3,0,0,1,1,.51,14.19,14.19,0,0,1,1.48,1.42,1.57,1.57,0,0,0,1.28.57,1.54,1.54,0,0,1,1.63,1.06,5,5,0,0,1,.26.74.64.64,0,0,0,0,.07,1.16,1.16,0,0,1-.79,1.42l-.48.13a3.45,3.45,0,0,1-1.85-.27,3.57,3.57,0,0,0-3.83.95l-.18.18a2,2,0,0,1-1.53.55,1,1,0,0,1-.92-.51,9.43,9.43,0,0,1-.47-1.09Z"/><path class="cls-3" d="M387.85,219a1.69,1.69,0,0,1-1.84-.21,2.35,2.35,0,0,1-.9-1.26,4.09,4.09,0,0,1,.62-3.31,1.43,1.43,0,0,1,.44-.41l.1-.06a.42.42,0,0,1,.55.22c.35.57.74,1.14,1.14,1.7a3.82,3.82,0,0,1,.71,1.46A1.67,1.67,0,0,1,387.85,219Z"/><path class="cls-3" d="M392.8,221.3a1.24,1.24,0,0,1-.15.6,1.19,1.19,0,0,1-1.61.46,5.62,5.62,0,0,1-1.12-.75.9.9,0,0,1-.17-1.15l.3-.43a2.74,2.74,0,0,0,.56-1.24c0-.34.27-.47.6-.36a1.63,1.63,0,0,1,.87.68,4.39,4.39,0,0,1,.71,1.78A1.1,1.1,0,0,1,392.8,221.3Z"/><path class="cls-3" d="M382.41,217a.27.27,0,0,1,.06-.1l.06-.08a.35.35,0,0,1,.5,0,1.85,1.85,0,0,1,.19.27l.75,1.15a8.56,8.56,0,0,1,.51.77,1.08,1.08,0,0,1-.12,1.29,1.51,1.51,0,0,1-1.62.4c-.55-.17-.78-.59-.88-1.28A5.4,5.4,0,0,1,382.41,217Z"/><path class="cls-3" d="M379.46,222.51a4,4,0,0,1-.07-.48,2.34,2.34,0,0,1,.51-1.53c.23-.26.4-.24.62,0a7.19,7.19,0,0,0,.67.63c.32.26.66.51,1,.77a1.28,1.28,0,0,1,.46.81,1.54,1.54,0,0,1-.78,1.67,1.56,1.56,0,0,1-2-.62,11.6,11.6,0,0,1-.52-1.21Z"/><path class="cls-3" d="M351.4,161.42a2,2,0,0,1,.81-2.25,3,3,0,0,0,1.27-1.65,3.46,3.46,0,0,1,.92-1.46,1.27,1.27,0,0,1,1.34-.35,3,3,0,0,1,1,.52,14.19,14.19,0,0,1,1.49,1.41,1.49,1.49,0,0,0,1.27.57,1.53,1.53,0,0,1,1.63,1.07,4.07,4.07,0,0,1,.26.74.14.14,0,0,1,0,.07,1.13,1.13,0,0,1-.78,1.41,4.43,4.43,0,0,1-.49.13,3.36,3.36,0,0,1-1.85-.27,3.59,3.59,0,0,0-3.83.95l-.18.18a1.92,1.92,0,0,1-1.53.55,1,1,0,0,1-.92-.51,8.73,8.73,0,0,1-.47-1.09Z"/><path class="cls-3" d="M356.3,153.53a1.69,1.69,0,0,1-1.83-.21,2.34,2.34,0,0,1-.91-1.27,4.06,4.06,0,0,1,.63-3.31,1.33,1.33,0,0,1,.44-.41l.09-.05a.41.41,0,0,1,.55.22c.36.57.74,1.14,1.15,1.69a4.07,4.07,0,0,1,.7,1.47A1.67,1.67,0,0,1,356.3,153.53Z"/><path class="cls-3" d="M361.25,155.81a1.18,1.18,0,0,1-1.75,1.05,5.37,5.37,0,0,1-1.13-.74.89.89,0,0,1-.16-1.15c.09-.15.19-.29.3-.44a2.84,2.84,0,0,0,.55-1.24c0-.34.27-.46.6-.36a1.63,1.63,0,0,1,.87.68,4.52,4.52,0,0,1,.72,1.78A1.18,1.18,0,0,1,361.25,155.81Z"/><path class="cls-3" d="M350.86,151.46l.06-.1.07-.09a.35.35,0,0,1,.49,0,1.31,1.31,0,0,1,.19.27l.75,1.15a6.52,6.52,0,0,1,.51.78,1.07,1.07,0,0,1-.12,1.29,1.51,1.51,0,0,1-1.62.39c-.55-.17-.78-.59-.88-1.28A5.33,5.33,0,0,1,350.86,151.46Z"/><path class="cls-3" d="M347.91,157a3.86,3.86,0,0,1-.06-.49,2.28,2.28,0,0,1,.51-1.52c.22-.27.4-.24.61,0a7.19,7.19,0,0,0,.67.63c.33.27.66.51,1,.77a1.29,1.29,0,0,1,.46.82,1.52,1.52,0,0,1-.77,1.66,1.57,1.57,0,0,1-2-.62,10,10,0,0,1-.51-1.21Z"/><path class="cls-5" d="M480.07,343c-.65,2.64-7.11,6.47-13.51,4.88s-10.32-8-9.65-10.63c.33-1.33,5.58,2.41,11.33,3.84"/><path class="cls-6" d="M466.44,348.34c-6.42-1.6-10.79-8.12-10-11.23a.78.78,0,0,1,.45-.55c.67-.33,1.76.15,4.18,1.24a32.87,32.87,0,0,0,15.1,3.75c2.65.16,3.84.25,4.28.86a.83.83,0,0,1,.14.7C479.79,346.21,472.88,349.94,466.44,348.34Zm-9.07-10.89c-.49,2.51,3.29,8.42,9.31,9.92s12.14-2,12.88-4.41a14.09,14.09,0,0,0-3.48-.41,43.27,43.27,0,0,1-8-1,43.89,43.89,0,0,1-7.52-2.89A14.7,14.7,0,0,0,457.37,337.45Z"/></g></g></svg>