<svg xmlns="http://www.w3.org/2000/svg" xmlns:xlink="http://www.w3.org/1999/xlink" viewBox="0 0 733.87 758.96"><defs><style>.cls-1{isolation:isolate;}.cls-2{fill:#1d1d1b;}.cls-14,.cls-2,.cls-8{fill-rule:evenodd;}.cls-3{fill:#ffe2bb;}.cls-4,.cls-46,.cls-7,.cls-8{fill:#5e402f;}.cls-36,.cls-4,.cls-6{opacity:0.2;}.cls-5{fill:#b3b3b3;}.cls-9{fill:url(#Безымянный_градиент_24);}.cls-10,.cls-12,.cls-14{fill:#139ab0;}.cls-11{fill:#095f70;}.cls-12,.cls-61{opacity:0.7;}.cls-13,.cls-38{opacity:0.3;}.cls-15{fill:none;stroke:#e203e3;stroke-miterlimit:10;}.cls-16{fill:#5d5d5d;}.cls-17{fill:#424e5e;}.cls-17,.cls-22{opacity:0.32;}.cls-17,.cls-20,.cls-22,.cls-42,.cls-47,.cls-49,.cls-50,.cls-53,.cls-61{mix-blend-mode:multiply;}.cls-18{fill:url(#Безымянный_градиент_2);}.cls-19{fill:#273547;}.cls-20{fill:#dcdcd6;opacity:0.55;}.cls-21{fill:#b04687;}.cls-22{fill:#544963;}.cls-23{fill:#fafaf9;}.cls-24{fill:url(#Безымянный_градиент_16);}.cls-25,.cls-27,.cls-28,.cls-34,.cls-65,.cls-66{opacity:0.4;}.cls-25{fill:url(#Безымянный_градиент_18);}.cls-26{fill:url(#Безымянный_градиент_16-2);}.cls-27{fill:url(#Безымянный_градиент_18-2);}.cls-28{fill:url(#Безымянный_градиент_18-3);}.cls-29{fill:url(#Безымянный_градиент_16-3);}.cls-30{fill:url(#Безымянный_градиент_16-4);}.cls-31{fill:#304254;opacity:0.1;}.cls-32{fill:#e2ddd9;}.cls-33{fill:#d8733a;}.cls-34{fill:url(#Безымянный_градиент_16-5);}.cls-35{fill:url(#Безымянный_градиент_15);}.cls-36{fill:url(#Безымянный_градиент_19);}.cls-37,.cls-46,.cls-47,.cls-50,.cls-51,.cls-53{opacity:0.5;}.cls-37{fill:url(#Безымянный_градиент_18-4);}.cls-38{fill:url(#Безымянный_градиент_18-5);}.cls-39{fill:#ffd9ac;}.cls-40{fill:#fff5eb;}.cls-41,.cls-61{fill:#ce755d;}.cls-43{fill:#d8bfa0;}.cls-44{fill:url(#linear-gradient);}.cls-45{fill:url(#linear-gradient-2);}.cls-47{fill:#c97106;}.cls-48{fill:url(#linear-gradient-3);}.cls-49,.cls-54{fill:#573220;}.cls-50,.cls-59{fill:#782600;}.cls-51,.cls-55,.cls-60{fill:#fff;}.cls-51,.cls-55,.cls-59{mix-blend-mode:screen;}.cls-52{fill:url(#linear-gradient-4);}.cls-56{fill:url(#linear-gradient-5);}.cls-57{fill:url(#linear-gradient-6);}.cls-58{fill:url(#linear-gradient-7);}.cls-62{fill:#c2e3ff;}.cls-63{fill:url(#linear-gradient-8);}.cls-64{fill:url(#linear-gradient-9);}.cls-65{fill:url(#linear-gradient-10);}.cls-66{fill:url(#linear-gradient-11);}.cls-67{fill:#003044;}</style><linearGradient id="Безымянный_градиент_24" x1="25" y1="525.59" x2="874.26" y2="480.24" gradientUnits="userSpaceOnUse"><stop offset="0" stop-color="#139ab0"/><stop offset="0.47" stop-color="#095f70"/><stop offset="0.67" stop-color="#139ab0"/><stop offset="1" stop-color="#139ab0"/></linearGradient><linearGradient id="Безымянный_градиент_2" x1="6.11" y1="374.6" x2="250.29" y2="405.02" gradientUnits="userSpaceOnUse"><stop offset="0" stop-color="#fffffc"/><stop offset="0.7" stop-color="#fffffc"/><stop offset="1" stop-color="#83b8cf"/></linearGradient><linearGradient id="Безымянный_градиент_16" x1="-54.96" y1="413.03" x2="432.09" y2="544.63" gradientUnits="userSpaceOnUse"><stop offset="0" stop-color="#fffffc"/><stop offset="0.47" stop-color="#eefdfd"/><stop offset="0.67" stop-color="#fffffc"/><stop offset="1" stop-color="#83b8cf"/></linearGradient><linearGradient id="Безымянный_градиент_18" x1="286.83" y1="548.11" x2="308.4" y2="548.11" gradientUnits="userSpaceOnUse"><stop offset="0" stop-color="#eefdfd"/><stop offset="0.55" stop-color="#83b8cf"/><stop offset="0.98" stop-color="#89bcd2"/></linearGradient><linearGradient id="Безымянный_градиент_16-2" x1="290.35" y1="489.6" x2="468.52" y2="489.6" xlink:href="#Безымянный_градиент_16"/><linearGradient id="Безымянный_градиент_18-2" x1="334.84" y1="564.89" x2="491.02" y2="513.1" xlink:href="#Безымянный_градиент_18"/><linearGradient id="Безымянный_градиент_18-3" x1="210.5" y1="346.19" x2="422.76" y2="346.19" xlink:href="#Безымянный_градиент_18"/><linearGradient id="Безымянный_градиент_16-3" x1="440.83" y1="469.91" x2="321.66" y2="309.29" xlink:href="#Безымянный_градиент_16"/><linearGradient id="Безымянный_градиент_16-4" x1="161.46" y1="443.62" x2="294.11" y2="320.3" xlink:href="#Безымянный_градиент_16"/><linearGradient id="Безымянный_градиент_16-5" x1="-57.29" y1="576.14" x2="310.16" y2="465.99" xlink:href="#Безымянный_градиент_16"/><linearGradient id="Безымянный_градиент_15" x1="299.24" y1="436.5" x2="559.41" y2="427.78" gradientTransform="matrix(0.96, -0.26, 0.25, 0.9, -92.79, 153.13)" gradientUnits="userSpaceOnUse"><stop offset="0" stop-color="#fffffc"/><stop offset="0.28" stop-color="#eefdfd"/><stop offset="0.7" stop-color="#fffffc"/><stop offset="1" stop-color="#83b8cf"/></linearGradient><linearGradient id="Безымянный_градиент_19" x1="459.54" y1="248.83" x2="439.13" y2="412.11" gradientUnits="userSpaceOnUse"><stop offset="0.26" stop-color="#eefdfd"/><stop offset="0.55" stop-color="#83b8cf"/><stop offset="0.98" stop-color="#89bcd2"/></linearGradient><linearGradient id="Безымянный_градиент_18-4" x1="321.71" y1="294.36" x2="487.82" y2="374.87" xlink:href="#Безымянный_градиент_18"/><linearGradient id="Безымянный_градиент_18-5" x1="226.35" y1="309.45" x2="260.89" y2="309.45" xlink:href="#Безымянный_градиент_18"/><linearGradient id="linear-gradient" x1="126.32" y1="181.56" x2="543.12" y2="181.56" gradientUnits="userSpaceOnUse"><stop offset="0" stop-color="#ffe699"/><stop offset="0.3" stop-color="#ffe194"/><stop offset="0.66" stop-color="#ffd286"/><stop offset="1" stop-color="#ffbd73"/></linearGradient><linearGradient id="linear-gradient-2" x1="126.32" y1="177.62" x2="543.12" y2="177.62" gradientUnits="userSpaceOnUse"><stop offset="0" stop-color="#fff7a8"/><stop offset="0.27" stop-color="#fff2a4"/><stop offset="0.6" stop-color="#ffe398"/><stop offset="0.97" stop-color="#ffca84"/><stop offset="1" stop-color="#ffc782"/></linearGradient><linearGradient id="linear-gradient-3" x1="233.8" y1="197.23" x2="308.76" y2="197.23" gradientUnits="userSpaceOnUse"><stop offset="0" stop-color="#de7f7c"/><stop offset="1" stop-color="#b5586c"/></linearGradient><linearGradient id="linear-gradient-4" x1="240.09" y1="256.67" x2="310.39" y2="256.67" xlink:href="#linear-gradient-2"/><linearGradient id="linear-gradient-5" x1="126.33" y1="238" x2="523.63" y2="238" xlink:href="#linear-gradient"/><linearGradient id="linear-gradient-6" x1="341.63" y1="27.25" x2="393.74" y2="27.25" xlink:href="#linear-gradient-2"/><linearGradient id="linear-gradient-7" x1="344.73" y1="45.27" x2="359.74" y2="45.27" xlink:href="#linear-gradient-2"/><linearGradient id="linear-gradient-8" x1="347.54" y1="180.52" x2="347.54" y2="155.81" gradientTransform="matrix(-1.21, -0.41, -0.32, 0.95, 822.18, 133.05)" gradientUnits="userSpaceOnUse"><stop offset="0" stop-color="#733300"/><stop offset="1"/></linearGradient><linearGradient id="linear-gradient-9" x1="573.61" y1="58.31" x2="573.61" y2="38.3" gradientTransform="matrix(-1.03, 0.01, 0.01, 1.12, 868.82, 71.24)" xlink:href="#linear-gradient-8"/><linearGradient id="linear-gradient-10" x1="300.55" y1="177.32" x2="347.03" y2="177.32" gradientTransform="translate(371.7 -188.72) rotate(68.75)" gradientUnits="userSpaceOnUse"><stop offset="0" stop-color="#c0ffff"/><stop offset="1" stop-color="#83b8cf"/></linearGradient><linearGradient id="linear-gradient-11" x1="238.03" y1="149.56" x2="284.52" y2="149.56" gradientTransform="matrix(0.36, 0.85, -0.93, 0.33, 306.47, -122.46)" xlink:href="#linear-gradient-10"/></defs><title>Лев Баннер</title><g class="cls-1"><g id="Слой_3" data-name="Слой 3"><path class="cls-2" d="M.42,478.48c.08-.39.56-.72,1.08-1a7.7,7.7,0,0,1,1.5-.69c.82-.22,1.68.54,2,1.59s-.52,1.81-1.76,2a3,3,0,0,1-1.95-.6C.69,479.31.35,478.79.42,478.48Z"/><path class="cls-3" d="M93.36,487.89c-3,3.1-4.27,4.85-7.88,8.28s-7.57,5.92-9.16,6.36a11.53,11.53,0,0,0-3.54,2.2c-1.18,2.42-6.59,8.14-13.9,9.81-5.72,1.32-14.09,6.1-14.69,5.79-5.9-3-5.63-9.79-3-12.11,4.05-3.58,6.37-5.46,6.37-5.46l-6.91,2.13a29.14,29.14,0,0,0-4.36,1.79c-5.45,2.71-16.15,5.44-21.39,3.18-5.88-2.54-2.09-10-2.09-10-.9,0-3.35,2.28-6.72,1.48C-.29,499.8.46,492.69,2.47,490c2.41-3.27,3.66-3.54,3.66-3.54-6.28,2.94-5.34-6.54-1.52-10.36,7.13-7.13,14.59-3.4,14.59-3.4,2.94-2.51,7.06-4.67,10.15-4.58s8.71,3.25,8.71,3.25a24.07,24.07,0,0,1,5.22-1.08c1.91,0,7.82-.06,10.6-.13s9-4.17,11.82-6.24,8.59-3.63,10.62-4.09c0,0,19.2-8.92,22.86.27S98.59,482.46,93.36,487.89Z"/><path class="cls-4" d="M69.53,461.9a18.24,18.24,0,0,0-3.83,2c-2.41,1.77-7.31,5-10.42,6,1.49,4.2,4,11.52,6.17,17.84a61.43,61.43,0,0,0,10.41,18.45,9.48,9.48,0,0,0,.92-1.43,11.53,11.53,0,0,1,3.54-2.2c1.59-.44,5.55-2.93,9.16-6.36l.82-.79Z"/><path class="cls-5" d="M73.71,458.76l-15.15,5.16s4.2,11.78,7.39,21.29,9.93,18.22,10.67,18.69c1.48.94,15.57-8.25,15.57-8.25Z"/><path class="cls-2" d="M43.1,522.14c-.37-.11-.61-.9-.51-1.93a6.53,6.53,0,0,1,1.1-3,3.25,3.25,0,0,1,2.07-1.39,1.55,1.55,0,0,1,1.58.57c.62,1-.08,2-.93,3.1a13.28,13.28,0,0,1-1.77,1.73C44,521.74,43.41,522.23,43.1,522.14Z"/><g class="cls-6"><path class="cls-7" d="M5.85,486.56A11.29,11.29,0,0,0,2.47,490c-2,2.71-2.76,9.82,3.62,11.33,3.37.8,5.82-1.52,6.72-1.48,0,0-3.79,7.49,2.09,10,5.24,2.26,15.94-.47,21.39-3.18a29.14,29.14,0,0,1,4.36-1.79l4.92-1.51h0s5.39-6.85-1.17-6.62-20.64,2.36-22.88-.34,2.4-4.62,2-5.06-9.5-.14-13-3.11,8.4-5.58,8.4-5.58l-4.67-1.2c-3.7-.94-5.63-5.33-4.75-8.78a15.42,15.42,0,0,0-4.91,3.39C.84,479.84-.12,489.09,5.85,486.56Z"/><path class="cls-7" d="M24.2,470.28c.15-1.11,2.25-1.77,4.61-2.17a15.61,15.61,0,0,0-7.06,2.68C23.13,471.06,24.09,471.05,24.2,470.28Z"/><path class="cls-7" d="M44.19,520.33c.6.31,9-4.47,14.69-5.79a23.24,23.24,0,0,0,9.24-4.62c-6.12,3.85-17,3.22-21.76.44-2.55-1.5-2.57-3.42-2-4.86-.88.76-1.92,1.65-3.12,2.72C38.56,510.54,38.29,517.34,44.19,520.33Z"/></g><g class="cls-6"><path class="cls-8" d="M5.23,486.7c-.14-.11.8-1.59,2.71-2.88a12.65,12.65,0,0,1,3.35-1.59,13.71,13.71,0,0,1,3.58-.59,34.15,34.15,0,0,1,5.41.39c1.34.18,2.18.31,2.22.58s-.79.61-2.18.74-3.32,0-5.38.07a16.94,16.94,0,0,0-3.23.33,14.56,14.56,0,0,0-3.19,1.05C6.6,485.68,5.35,486.82,5.23,486.7Z"/></g><g class="cls-6"><path class="cls-8" d="M12.18,500.52c-.14-.1.53-1.63,1.75-3.51a15.84,15.84,0,0,1,2.35-2.82,12.47,12.47,0,0,1,3-2.05,10.75,10.75,0,0,1,5.56-1.08c1.45.13,2.27.56,2.23.81-.06.59-3.35.16-7,1.87a15.26,15.26,0,0,0-2.76,1.64,19.58,19.58,0,0,0-2.48,2.31C13.39,499.29,12.33,500.63,12.18,500.52Z"/></g><g class="cls-6"><path class="cls-8" d="M19.42,472.61c0-.39,2.47-.68,4-.67s2.71.6,2.67,1.13-1.25.72-2.79.65S19.39,472.93,19.42,472.61Z"/></g><path class="cls-2" d="M10.63,507.66c-.43-.64,1.14-3,2.17-4.24s2.65-1.58,3.47-.87.26,2.15-1,3.47a7,7,0,0,1-2.64,1.53C11.64,507.87,10.81,507.92,10.63,507.66Z"/><path class="cls-2" d="M.05,496.82c-.42-.67,2.05-3.13,3.81-4.31s3.73-1.18,4.22-.22-.69,2.23-2.49,3.32S.38,497.37.05,496.82Z"/><g class="cls-6"><path class="cls-8" d="M383.42,552.9c.12-.16.42-.19.72-.26l.79-.15c.37,0,.77.31,1,.82s-.33,1-1.13,1a1.64,1.64,0,0,1-1.11-.59C383.38,553.36,383.32,553,383.42,552.9Z"/></g></g><g id="Слой_5" data-name="Слой 5"><path class="cls-9" d="M450.4,728.65h24.33l.65-1.23c5.23-9.83,12.82-21.81,22.27-26.2,8.81-4.1,24.05-2.24,29.69,9.08a8.19,8.19,0,0,1,.47,2.3c1.89,9.29-7.07,17-11.15,22.71s-6.26,19.46,4.41,23.05c5.12,1.72,8.64-.54,12-3.28,11.79-9.57,17.11-25.18,30.12-34.18a60.29,60.29,0,0,1,17.73-8,152.49,152.49,0,0,1,20.6-4.06,37.15,37.15,0,0,1,7.62-.57c10.12,1.09,27.3,2.37,34.21-1.17,8.4-4.3,27.78-32.11,16-39-11.27-6.64-29.24,8-35.4-3.27-.94-1.72-2-2.65-2.43-4.56-5.12-25.86,33.84-43,52.49-55.62,8.32-5.64,27.75-18.08,37.22-27.74,10.75-11,21.92-24.28,22.6-41.85-9.64,11.62-35.87,8.4-50.89-2.18s-21.92-25.59-34.48-37.92c-41-40.27-100.93-33.81-140.07-82.92-22-27.6-20.6-52.19-33.66-79.75-18.87-39.82-60.58-63-96.17-85.56-6.93,11.22-4.41,27.76,2.4,41.67,7.1,14.49,17.13,22.86,24.69,37.62,14.56,28.42,6.15,51.1-6.43,73.91s-33.91,47.08-42.4,74.54c-14.78,47.78,8.94,93.16,23.56,146.39,10.11,36.84,11.49,73.35,7.32,107.87H450.4Z"/><path class="cls-10" d="M445.09,714.47C439,697,432.93,678.08,417.84,664.34c-3.74,3.38-5.15,8.67-4.68,14.25s2.19,10.42,3.71,16a89.65,89.65,0,0,1,2.33,34h31.2C448.42,723.92,446.72,719.15,445.09,714.47Z"/><path class="cls-11" d="M629.71,623.76c13.13,11.27,22.94,28,29.64,43.15a12.66,12.66,0,0,1,1.46,6.44c-.6,5.58-6.46,7.5-11.42,8.74-7.61,1.91-16.5,4.13-25.21,1.54a28.7,28.7,0,0,1-19.64-19.54,29.44,29.44,0,0,1,4.81-25.75c5.09-7,13.61-12.18,22.44-14.73"/><path class="cls-11" d="M517.72,756.92c-9.29-18.7-19.64-28.12-33.17-43.63-4.14-4.75-7.42-8.15-9.6-13.56-4.95-12.24,2.79-24.37,12.05-28.87,9.76-4.74,24.81-4.39,36.43,4.66,14.28,11.11,18.22,27.15,15.81,41.54s-10.31,27-17.69,38.4c-.81-.37-1.56-.9-2.35-1.33"/><path class="cls-11" d="M581.6,713.52c-7.58.48-13.28,3.94-18.37,7.4-13.08,8.91-18.3,24.65-30.15,34.15-3.4,2.72-6.89,5-12,3.29-10.67-3.6-8.51-17.31-4.41-23.05s13-13.44,11.18-22.69a7.07,7.07,0,0,0-.66-2.3c1.34.71-1.9-1.52,2.34,1.08-11.23-18.22-5.15-16.83-31-33s-45.9-30.76-71.38-72.55C414.23,584.63,376.74,524,370,498.22c23.64,19.9,58,83.67,78.7,107.13,35.06,39.67,70.05,56.3,97.67,84.19C561.43,704.79,566.31,704.81,581.6,713.52Z"/><path class="cls-11" d="M643.36,707c-6.83,3.52-24.27,2.39-34.06,1.11-.22.41-.53-.38-.56-.56-8.92-50.36-29.19-94-64.63-137.85-16-19.82-31.69-36.43-44.9-57.18-13.37-21-20.76-41.78-28.58-64a173.57,173.57,0,0,0,18.54,26.26c16.57,19.16,34.95,34.69,54.13,51.53s37.5,33.37,50,55.26c15,26.42,11.75,53.36,28.67,78.52a21.05,21.05,0,0,0,1.94,4.66c6.47,11.28,24.12-3.4,35.51,3.27C671.28,675,651.67,702.74,643.36,707Z"/><path class="cls-12" d="M468.77,381.7a15.81,15.81,0,0,0,2,7.06,148.51,148.51,0,0,0,19.77,28.64c24.16,28.26,42.42,53.91,72.15,76.92-17.53-6.95-33.38-19.92-46.22-34.68s-25.92-30.38-40.1-43.4c-11.5-10.55-25.45-22.19-33.5-35-8.82-14-13.54-28.93-23.2-42.31-7.39-10.24-16.35-18.49-23.16-29.38s-10.1-23.78-7.22-34.29c.81-3,2.52-6.45,5.87-7s6.9,2,9.76,4.17c15.5,11.93,31.77,23.37,44.89,38.11s22.38,33,22.05,49.67C471.67,368.2,468,373.6,468.77,381.7Z"/><g class="cls-13"><path class="cls-14" d="M495.41,686.47c-.14.25-3.85-1.64-9.87-5.07l-4.74-3.12-2.66-1.77-1.39-.93c-.46-.33-.91-.68-1.37-1-3.69-2.84-7.88-5.88-12-9.56l-3.16-2.73-1.6-1.4-1.56-1.49-6.36-6.09c-2.11-2.12-4.15-4.33-6.25-6.52-1-1.11-2.11-2.19-3.11-3.33l-3-3.43-3-3.43-1.49-1.71-1.41-1.75L427,626.18c-1.8-2.28-3.46-4.61-5.12-6.84-.83-1.11-1.64-2.22-2.45-3.3s-1.52-2.2-2.26-3.27a273.86,273.86,0,0,1-26.47-47.08A146.3,146.3,0,0,1,385,550.47c-1.08-3.68-1.49-5.76-1.11-5.9s1.49,1.62,3.16,5,4.06,8.18,7,14.19a412.4,412.4,0,0,0,27.18,45.69c.72,1.07,1.46,2.15,2.21,3.25l2.38,3.28c1.61,2.22,3.23,4.53,4.94,6.84,3.52,4.54,7.08,9.33,11,13.9,1.91,2.32,3.79,4.67,5.82,6.87s4,4.49,5.94,6.67c4.1,4.22,8,8.46,12,12.11,3.86,3.84,7.83,7.07,11.31,10.1l1.29,1.12,1.32,1,2.5,1.92,4.47,3.47C492.1,683.84,495.54,686.25,495.41,686.47Z"/></g><g class="cls-13"><path class="cls-14" d="M613.22,640.31c-.35,0,.22-5,.25-13.1,0-.51,0-1,0-1.56s0-1.08-.05-1.63c0-1.12-.07-2.27-.1-3.47-.18-2.4-.3-5-.65-7.67a110.2,110.2,0,0,0-3.41-17.46,94.46,94.46,0,0,0-7.45-18.48c-.78-1.53-1.71-3-2.57-4.5a25.38,25.38,0,0,0-1.39-2.2l-1.45-2.18-.72-1.09-.79-1-1.59-2.09c-1-1.41-2.19-2.74-3.31-4.1-9.12-10.75-19.72-19.93-29.15-27.68-9.64-7.91-19-15.3-27-22.67a145.48,145.48,0,0,1-19.5-21.34,91,91,0,0,1-9.77-16.75,37.52,37.52,0,0,1-1.84-4.92c-.34-1.15-.42-1.8-.24-1.88s.63.38,1.3,1.34,1.52,2.44,2.71,4.29a146.76,146.76,0,0,0,10.75,15.21,170.29,170.29,0,0,0,19.54,19.94c8,7.05,17.33,14.31,27.1,22.37,9.5,7.84,20.29,17.43,29.51,28.77,2.3,2.81,4.5,5.8,6.53,8.86,1,1.57,2,3.09,2.88,4.68s1.76,3.19,2.56,4.8a93.22,93.22,0,0,1,7.13,19.57,104.59,104.59,0,0,1,2.75,18.18c.21,2.79.21,5.43.23,7.89,0,1.23-.07,2.41-.1,3.55s-.09,2.22-.18,3.25c-.16,2.06-.31,3.92-.55,5.54s-.38,3-.6,4.13A13.87,13.87,0,0,1,613.22,640.31Z"/></g><g class="cls-13"><path class="cls-14" d="M722,547.84c0,.07-.26.27-.86.59l-1.12.57c-.45.22-1,.38-1.62.6a29.53,29.53,0,0,1-11,1.28,44.85,44.85,0,0,1-7.72-1.13,57.83,57.83,0,0,1-8.63-2.66,71.37,71.37,0,0,1-18.26-10.32c-6-4.64-11.43-10.45-17.11-16a118.32,118.32,0,0,0-8.88-8c-3.16-2.51-6.38-5-9.72-7.22-13.3-9.19-27.87-16-40.65-21.67-13.06-5.8-25.62-11.27-36.53-17.35a147.8,147.8,0,0,1-27.12-18.92,107.27,107.27,0,0,1-15-16.23,48.06,48.06,0,0,1-3.36-5c-.7-1.18-1-1.85-.83-2s.76.3,1.73,1.22,2.27,2.38,4.08,4.15A162,162,0,0,0,535,444.25a165.58,165.58,0,0,0,26.73,17.5c10.71,5.75,23.15,11.08,36.36,17,12.83,5.77,27.73,12.88,41.31,22.63,3.42,2.4,6.7,5,9.9,7.67a113,113,0,0,1,9,8.54c5.65,5.86,10.8,11.72,16.37,16.4a70.89,70.89,0,0,0,17.16,10.68,60.58,60.58,0,0,0,8.2,3,47.21,47.21,0,0,0,7.38,1.53,32.36,32.36,0,0,0,10.73-.37c.61-.15,1.18-.23,1.64-.38l1.18-.37C721.66,547.86,722,547.79,722,547.84Z"/></g><path class="cls-11" d="M394.84,724.14c10.68-20,11.63-19.42,7.7-44.26s-10.63-48.64-8.49-71.66"/><path class="cls-15" d="M692.85,487.57"/></g><g id="Слой_4" data-name="Слой 4"><path class="cls-16" d="M403.7,690.94c-16.23.39-32.47.19-48.74-.15-6.49-.13-23.54-.12-30.11-.11.21,8.18,1.52,21.93,3.3,38H397C398.62,714.57,400.78,701.44,403.7,690.94Z"/><path class="cls-16" d="M299,690.94c-16.23.39-32.47.19-48.75-.15-6.49-.13-23.53-.12-30.1-.11.21,8.33,1.25,22.08,2.61,38h69.66C294,714.38,296.09,701.23,299,690.94Z"/><path class="cls-17" d="M299,690.94c-16.23.39-32.47.19-48.75-.15-6.49-.13-23.53-1.38-30.1-1.37.19,7.42,1,22.42,2.3,35.59a38.24,38.24,0,0,1,18.44,3.64h51.53C294,714.38,296.09,701.23,299,690.94Z"/><path class="cls-17" d="M403.7,690.94c-16.23.39-32.47.19-48.74-.15-6.49-.13-23.54-1.38-30.11-1.37.19,7.42,1.4,21,2.74,34.13,9.29-.41,16.13,1.62,21.21,5.1H397C398.62,714.57,400.78,701.44,403.7,690.94Z"/><path class="cls-18" d="M205.72,283.36a428.42,428.42,0,0,0-31.13,49.39c-15.52,29.36-28.34,62.61-37.31,68.73-17,11.61-65.62,55.6-65.62,55.6s10,49.33,19,43.47c4.4-2.86,68-30.37,79.55-41.93S219,391.75,219,391.75s25.3-71.88,20.8-80.65S205.72,283.36,205.72,283.36Z"/><path class="cls-19" d="M292.22,668.89a34.3,34.3,0,0,0-11.5,0C284.55,669,288.38,668.94,292.22,668.89Z"/><path class="cls-5" d="M303,295.41s-42.32-12.28-42.59-14.66-14.87,4.77-14.87,4.77S252,395,290.93,395.32,414.58,290,404.84,282.45a225.31,225.31,0,0,0-18.76-12.94Z"/><polygon class="cls-20" points="301.42 293.85 285.27 297.2 299.15 318.42 274.55 370.43 297.2 400.09 329.46 374.18 308.37 319.28 320.34 296.43 301.42 293.85"/><polygon class="cls-21" points="297.76 293.85 281.61 297.2 295.49 318.42 270.9 370.43 293.55 400.09 325.8 374.18 304.72 319.28 316.68 296.43 297.76 293.85"/><path class="cls-22" d="M305.06,363.05c-5.21,5.18-14.54,5.77-20.18.5a95,95,0,0,1-7.24-7.38l-6.74,14.25,22.64,29.67,32.26-25.91-10.21-26.6C312.79,353.09,309.56,358.57,305.06,363.05Z"/><polygon class="cls-20" points="404.83 283.43 386.8 272.26 297.76 293.85 261.41 283.43 242.64 290.76 277.7 322.13 297.76 301.03 329.46 323.88 404.83 283.43"/><polygon class="cls-23" points="297.76 293.85 276.74 316.55 241.67 283.86 269.03 275.11 297.76 293.85"/><polygon class="cls-23" points="329.46 318.42 297.76 293.85 381.85 266.68 403.86 277.85 329.46 318.42"/><path class="cls-24" d="M249.07,282.29s-23.32,4.77-36,7.58c-1.23.27-11.48,2.23-12.41,4-13.11,24.83-9.66,41.1-2.07,74.87,6.16,27.4,24.11,99.4,17,129.06s-11,198.28-11,198.28,71.63,7.85,103.74-4.43c0,0-9.58-108.77-10.63-138.1s-4.49-168-4.16-168.18S245.58,358.49,249.07,282.29Z"/><path class="cls-25" d="M297.77,553.53c-.78-21.69-2.86-121.7-3.76-151.1a16.21,16.21,0,0,1-5.75-.71c-2.78,9.57-.69,136.49-.54,159.27.17,25.25.5,50.86,3.33,76,2.07,18.37,7,49.65,7.43,57.47a72,72,0,0,0,9.92-2.88S298.82,582.86,297.77,553.53Z"/><path class="cls-26" d="M398.62,277.85s58.7,23.92,69.9,27.93c0,0-38.8,30.9-53.49,85.91-5.56,20.83-22,39.84-16.41,65.69,20.34,94.11,8.65,188.93,14,243.12,0,0-44.81-2-109.35.85,0,0-4.24-45.62-8.06-77.23-4.87-40.3-1.71-151.46-4.35-180.38-1.75-19.12,1.46-57.63,1.46-57.63S353.85,374,398.62,277.85Z"/><path class="cls-27" d="M420.9,374.94c-6.39,3.84-12.56,5.86-17,8.26-11.61,6.24-14.56,5-18.61,14.36-4.31,9.93-7.91,20-11.25,30.09-7.8,23.6-8.06,48-6.6,72.09,1.35,22.16,5.76,72.21,2.86,91.29-1.59,10.45-20.92,96.82-26.47,109.07,38.83-.72,64.68.23,68.37.38l.47,0C410,667.09,417,552.17,403.47,483c-1.67-8.54-3-17.11-4.85-25.63C393,431.53,409.47,412.52,415,391.69,416.29,387,419.52,379.23,420.9,374.94Z"/><path class="cls-28" d="M422.76,315,412.28,283.4l-13.1-5.55S334,368.73,291.31,387.91c0,0-44.63-38.36-47.51-104.5l-12,2.55-15.45,32.46,16.14,10.27-22,14.46,80.15,71.38c89.45-55.79,89.44-55.79,123.51-72L389,328.46Z"/><path class="cls-29" d="M397.29,277.17s-52,78.93-103.68,108.18l-2.68,25.48s88.58-58.31,116.71-68l-24.48-14.06,33.61-14.83L406.29,280.4Z"/><path class="cls-30" d="M249.07,282.29l-10.73,2.28-16.15,34,16.56,10.06L221,343l70,67.85,2.68-25.48S252,348.43,249.07,282.29Z"/><path class="cls-31" d="M305.82,420.77a6,6,0,0,1-5.84,6.06,5.79,5.79,0,0,1-5.43-6.24,6,6,0,0,1,5.83-6.06A5.8,5.8,0,0,1,305.82,420.77Z"/><path class="cls-32" d="M303.6,420.74a3.66,3.66,0,0,1-3.54,3.67,3.51,3.51,0,0,1-3.29-3.78A3.64,3.64,0,0,1,300.3,417,3.52,3.52,0,0,1,303.6,420.74Z"/><path class="cls-31" d="M313.21,618.17a6,6,0,0,1-5.71,6.12,5.88,5.88,0,0,1-5.57-6.18,6,6,0,0,1,5.71-6.12A5.87,5.87,0,0,1,313.21,618.17Z"/><path class="cls-32" d="M311,618.15a3.61,3.61,0,0,1-3.46,3.71,3.56,3.56,0,0,1-3.38-3.74,3.61,3.61,0,0,1,3.46-3.71A3.56,3.56,0,0,1,311,618.15Z"/><path class="cls-31" d="M311.06,549.53a6,6,0,0,1-5.7,6.12,5.86,5.86,0,0,1-5.57-6.18,5.94,5.94,0,0,1,5.7-6.12A5.87,5.87,0,0,1,311.06,549.53Z"/><path class="cls-32" d="M308.84,549.52a3.6,3.6,0,0,1-3.46,3.71,3.56,3.56,0,0,1-3.37-3.75,3.6,3.6,0,0,1,3.45-3.71A3.56,3.56,0,0,1,308.84,549.52Z"/><path class="cls-33" d="M375.08,447.25c-.64-.24-1.28-.46-1.91-.64"/><path class="cls-33" d="M352.37,455.23"/><path class="cls-2" d="M435.94,572c.09.38-.46,1-1.37,1.39a6.44,6.44,0,0,1-3.06.57,3.06,3.06,0,0,1-2.17-1.07,1.55,1.55,0,0,1-.27-1.65c.52-1,1.69-.93,3-.79a12.61,12.61,0,0,1,2.3.67C435.18,571.4,435.87,571.66,435.94,572Z"/><path class="cls-3" d="M427.7,518.31l11.64,17.42s-4.27,10.18-6.83,14.93-9.22,3.91-2.93,9.73,3.09,16.3-1.18,13.44-18.63,3.82-27.42,1.9-12-7.92-12.57-14.16-5.25-6.2-7.73-13.46,8.32-13.42,9.64-14.19c6.71-3.93,10.58-10.09,25-14.13Z"/><path class="cls-4" d="M413.46,520.34a47.16,47.16,0,0,0-11.57,5.25,45,45,0,0,0,6.54,16.58c7.12,10.6,19.78,18.31,19.78,18.31l.66-.78c-5-5.06,1.18-4.49,3.64-9,.61-1.14,1.33-2.59,2.05-4.14Z"/><path class="cls-5" d="M413.37,515.24l-9.67,6.65a45,45,0,0,0,6.73,17.78c7.12,10.6,19.78,18.31,19.78,18.31,4.85-5.68,8.81-10.92,8.81-10.92Z"/><path class="cls-34" d="M223.77,697.6c-16.44-85.61,4.93-168,4.52-198-.28-20.34,15.62-40.6,12.33-60.84-2.21-13.58-22.46-64.21-33.87-84.07,0,0-10.84-47.58-2.29-58.84a13,13,0,0,0,2.5-4.57c-2.89.75-5.79,1.7-6.27,2.59-13.11,24.83-9.66,41.1-2.07,74.87,6.16,27.4,24.11,99.4,17,129.06a106,106,0,0,0-1.75,10.53c-.11.8-.21,1.63-.31,2.49s-.2,1.73-.3,2.64-.19,1.84-.29,2.79l-.15,1.45c-.14,1.47-.28,3-.43,4.56-.09,1-.18,2.12-.28,3.21-4.85,57.15-7.47,170.6-7.47,170.61S212.34,696.9,223.77,697.6Z"/><path class="cls-35" d="M459.35,441c.41,3.17-23.38-26.47-30.31-45.66-5-13.95-8.14-20.4-18.69-38.08,0,0,9.2-50.83,43.24-65.87,0,0,14.28-1.36,19.81,11.93s41.33,116.77,43.29,121.17c0,0,3.84,9.45,4.73,11.37,2.73,5.93-4.71,15.64-10.37,24.4-14.54,22.49-33.1,52.2-52,70.87-11.17,11-14.72,15.37-21,20.77-2.65,2.27-3.11,1.67-5.08,1-5.15-1.86-13.44-7.3-17.22-19.39C411,518.58,410,516.29,410,516.29l7-7.68s19.33-33.3,24.69-42.68S459.35,441,459.35,441Z"/><path class="cls-4" d="M429.58,560.39c-2.46-2.28-2.94-3.54-2.45-4.51-2.71.48-1.31,4.09-3.28,9.22-1.87,4.91-6.38,6.55-6.72,9.18,4.92-1,9.24-1.81,11.27-.45C432.67,576.69,435.87,566.2,429.58,560.39Z"/><path class="cls-36" d="M473.4,303.32c-5.53-13.29-19.81-11.93-19.81-11.93-34,15-43.24,65.87-43.24,65.87l2.47,4.17a19,19,0,0,0,2.93-3.29c1.76,5.81,5.19,8.07,5.19,8.07s-3.35-14.73,10.57-10.54c12.77,3.86,39.85,11.59,53.05-21.9C479.3,319,475,307.24,473.4,303.32Z"/><path class="cls-37" d="M406.29,280.4l-9-3.23s-28.5,43.28-64.29,77.62a44,44,0,0,0,17-8.52c-5.1,9.21-3.6,11.57-3.6,11.57s3.56-9.46,21.11.06q2.43,1.31,4.94,2.48c14.31-8.14,27.17-14.82,35.15-17.58l-24.48-14.06,33.61-14.83Z"/><path class="cls-38" d="M249.07,282.29l-10.73,2.28-12,25.26a11.11,11.11,0,0,1,1.58,8.59,7.41,7.41,0,0,1-1.17,2.95l12,7.28-8.46,6.82a65.21,65.21,0,0,0,21.9.44c3.27,0,6.14,0,8.7.1A158.24,158.24,0,0,1,249.07,282.29Z"/></g><g id="Layer_1" data-name="Layer 1"><path class="cls-39" d="M282.54,60.83a163,163,0,0,1,13.65-25c9.07-13.82,4.71-27.36-18-27.07s-48.9,15.85-54.48,29.31,16,27.07,15.23,32.49c8.14-2.92,17.07-3.95,21.23-.59-5.12-7.86-3.63-9-3.63-9s10.2,2.29,15.65,7.26c1.6-12.53,2.43-13.5,2.43-13.5l3.29,11.13Z"/><path class="cls-3" d="M282.43,60.94a164.94,164.94,0,0,1,13.66-25c7.32-11.16,5.9-22.1-6.82-25.76,25.07,14.41-14.72,42.59-9.52,30.92,5.31-11.89,2-31.24-20.06-23.16s-27.12,34.54-31.12,26.76c-3.62-10,14.72-25,16.42-26.39C234.66,24,226.48,31.35,223.63,38.19c-5.59,13.44,16,27.08,15.23,32.49,8.15-2.93,17.09-4,21.26-.58-5.14-7.88-3.65-9-3.65-9s10.21,2.27,15.65,7.24c1.59-12.53,2.44-13.49,2.44-13.49L277.83,66Z"/><path class="cls-40" d="M285.09,28.33s.61-18.85-27.39-13c-6.82,1.24,7.14-7.42,23-5.85S287.68,37.75,285.09,28.33Z"/><path class="cls-41" d="M262.27,62.68S287.63,37,274.33,22.56c-10-11.58-45.88,19-37.46,34.89,9,13.57,20.91,8.12,20.91,8.12s-2.39-3.69-1.22-4.61S262.27,62.68,262.27,62.68Z"/><g class="cls-42"><path class="cls-41" d="M262.27,62.68S287.63,37,274.33,22.56c-7.08-8.15-26.93,4.6-35.11,18.4.3-.35,16.31-18.13,26.18-9.56,9.32,8.08-6.67,37-22.38,32.48a15.94,15.94,0,0,0,14.76,1.69s-2.39-3.69-1.22-4.61S262.27,62.68,262.27,62.68Z"/></g><path class="cls-43" d="M438.92,132.42s10.86-47.19,35.82-36.29,26.66,53.18-29.57,50.23l-5.78-4.85,9.79-.7S447,137.21,438.92,132.42Z"/><path class="cls-44" d="M396.7,3.94s-.29,19.45-34.56,17.12c-13,.29-24.05,1.9-24.59,11.86-2.81-2.07-.51-7.41,2.3-8.85-10.08.93-12.41,5.84-12.66,11-2.35-6.64-7.46-6.08-7.46-6.08s3.94,3,1.76,10.42c-7.35-1.76-28.06,3.44-41.49,12.23S212.12,68,203.84,53.1c-3.27,6.43,2.45,11.39,2.45,11.39s-34.53-7.28-50.45,7.08c-10.61,9.59-11,21.54-9.11,35.79.68,8-2.49,11.16-10,10.53,1,5.88,8.24,6.07,8.24,6.07s-32.75,11-11.4,44.19c11,14.57,11.53,16.46,1.72,21.58,0,0,7,4.68,13.18-.77-8.37,11.74-11.31,19.25,3,31.3s31.88,13.68,17.65,24.26c3.06,5.18,8,1.95,8,1.95s-14.48,9.64,19.45,33.35c26.69,19.24,29.1,23.48,27.9,31s-14.07,10-14.07,10,12.31,11,38.33,7.47c20.35.1,25.38.51,35.7,8s37.8,21.7,62.15,2.33c-5.1,9.2-3.6,11.56-3.6,11.56s3.56-9.46,21.11.06,38.61,13.78,48.2.24c1.76,5.82,5.19,8.07,5.19,8.07s-3.35-14.73,10.57-10.54,44.88,13,56.27-32c0,0,.83,7.87,9.71,7-8-4.55-7.14-17.66,8-16.94s33.07-10,22.43-37.41c6.51,5.16,9.47,3.43,9.47,3.43s-12.92-8.82.75-21.81c7.86-8.48.55-21.53.55-21.53s7.7,4.3,7,9.47c3.15-13.54-.3-37.08-46.49-81.95C473.53,134.62,431,97.19,447.61,83c-9-4.47-15.69-1.18-15.69-1.18s4.62-14.14-1.89-23.16c.28,7.41-6.48,9.67-6.48,9.67s2.32-14.24-8.83-23.44S405.11,22.34,396.7,3.94Z"/><path class="cls-45" d="M502,302.17c15.16.72,33.07-10,22.43-37.41,6.51,5.16,9.47,3.43,9.47,3.43s-12.92-8.82.75-21.81c7.86-8.49.55-21.53.55-21.53s7.7,4.3,7,9.47c3.15-13.54-.3-37.08-46.49-81.95C473.53,130.68,431,93.25,447.61,79c-9-4.47-15.69-1.19-15.69-1.19s4.62-14.13-1.89-23.15c.28,7.41-6.48,9.67-6.48,9.67s2.32-14.25-8.83-23.44-9.61-22.5-18-40.9a10.56,10.56,0,0,1-.13,1.09A104.92,104.92,0,0,1,399,24.36C398.8,51,423.79,49.73,419.06,69.52c5.92,4.18,11.59-2.35,11.59-2.35s.32,11.74-1.91,16.53a36.82,36.82,0,0,1,10.8.74s-8.06,26.36-22.78,43.84c8.73-4.86,10.09-4.5,10.09-4.5L422.45,137s9.24-1.53,14.2-.11c-6.7,2.47-8.29,5.25-8.29,5.25s11.17,4.29,19.42,11.06c11.77,9.61,13.53,7.54,39.36,10.84s45.78,54.08,45.78,54.08-5-6.27-13.87-.54c21,14.39-.46,36.88-9.62,37.52,15.13,11.22,0,22,0,22s6.38-18.35-16.29-13.16c-30.27,6.23-53.73-36.13-52.69-28.52S436.4,250,436.4,250s-.52-7.13-7.62-20.95C399.1,178.4,279.63,146.41,240.87,133.8s-68.55,15.08-68.55,15.08-7.3-9.22-.59-30.16c-9.75,6.83-20.17-3.19-20.17-3.19s15.29,6.59,11.24-21.78,37-27.18,56.92-20.39c-5.32-2.7-9.57-12.12-3.1-7.47s16.59,2.93,16.59,2.93S220.9,83,229.64,76.24C248.06,61.63,261.29,75,261.29,75l1.1-13.4,7.31,9.21,4.59-7.48s-1.58,13.94,7.12-.5c13.3-21.93,34.22-22.9,41.08-19.79,3.69-13.06,11.85-13.64,11.85-13.64l4.9,4.27c.52-6.53,4.17-11.47,8.5-15.08-5.88,1.5-9.86,4.48-10.19,10.36-2.81-2.08-.51-7.42,2.3-8.86-10.08.93-12.41,5.85-12.66,11-2.35-6.64-7.46-6.07-7.46-6.07s3.94,3,1.76,10.42c-7.35-1.76-28.06,3.44-41.49,12.23s-67.88,16.36-76.16,1.44c-3.27,6.43,2.45,11.39,2.45,11.39s-34.53-7.28-50.45,7.08c-10.61,9.58-11,21.53-9.11,35.78.68,8-2.49,11.17-10,10.53,1,5.88,8.24,6.07,8.24,6.07s-32.75,11-11.4,44.2c11,14.57,11.53,16.46,1.72,21.58,0,0,7,4.68,13.18-.77-8.37,11.74-11.31,19.24,3,31.29S183.3,230,169.07,240.58c3.06,5.18,8,1.94,8,1.94s-14.48,9.65,19.45,33.36c26.69,19.24,29.1,23.48,27.9,31s-14.07,10-14.07,10,12.31,11,38.33,7.47c20.35.1,25.38.51,35.7,8s37.8,21.7,62.15,2.32c-5.1,9.21-3.6,11.57-3.6,11.57s3.56-9.46,21.11.06,38.61,13.77,48.2.24c1.76,5.81,5.19,8.07,5.19,8.07S414.09,340,428,344.17s44.88,13,56.27-32c0,0,.83,7.87,9.71,7C486,314.56,486.85,301.44,502,302.17Z"/><path class="cls-46" d="M295.21,119A59.2,59.2,0,0,1,306,104.12a91.17,91.17,0,0,1,1.11,11.73s27.67-28.13,59.22-29.2c0,0,33.85,29.86,39.58,65.56a25.69,25.69,0,0,0-9.4-1.69s5.87,4.17,8.31,9.07c-6.2-2.16-9.59-1.18-9.59-1.18a43.06,43.06,0,0,1,7.51,4.68c-8-1.17-21.33,8.06-30.08,17.33,16.48,9.23,58.78,36.56,58.78,53.63-8.38-6.52-10.34-5.55-10.34-5.55a29,29,0,0,1,2.9,15.42c-6.41-7.45-7.39-6.79-7.39-6.79a17.13,17.13,0,0,1,.18,11.16c-4.57-4.35-11.29-4.48-20.25,1s-12.18,11.56-20.66,10.26-32.94-8.7-45.61-5.17c-8.59,2.38-21.4,15.32-28.75,18.82,6.22,7.15,6.57,8.47,6.57,8.47a48.16,48.16,0,0,1-17.68-1.93l4,5.4a43.84,43.84,0,0,1-26.81-11.51c-1.74,6.82-2.29,7.88-2.29,7.88s-4.17-4.37-5.41-7.75c-6.53,2.71-16.88-.22-16.88-.22l6.31-5.52s-9.34-2.81-15.83-2.74a18.51,18.51,0,0,1,9-4.7s-12.05-6.68-12.05-12.37,10.77-11.53,10.77-11.53-17.16-17.32-13.42-25.54c-3.06-8.07-13.81-28.33-27.84-31.4a11.65,11.65,0,0,1,5.45-5.14s-4.31-1.72-7.22-1c.74-6.43,5.8-11.41,5.8-11.41s-6.89.1-9.2,1.61c-3.14-7.76,1.3-17.82,5-19.17-6.9.08-8.74,2.78-8.74,2.78s2.07-9.08,11.14-11.08a34.09,34.09,0,0,0-7.94-1.07s17.78-9.11,54.57-2c.79-6.41-4.31-13.37-4.31-13.37s6.23-1.94,10.84.06c-2.31-7.85-9.25-13.87-9.25-13.87s7.13,1.4,10,4.18c-3.92-9.74-13.51-20.85-13.51-20.85a26.34,26.34,0,0,1,14-8.3c9.07-2,11.5-6.23,18-6.43s18.27-2.1,18.27-2.1,6.66,19.45,4.05,26.82S295.21,119,295.21,119Z"/><path class="cls-3" d="M296.38,122.44a55.72,55.72,0,0,1,10.14-14,89.73,89.73,0,0,1,1.07,11.1s26.11-26.59,55.93-27.61c0,0,32,28.2,37.4,62a23.85,23.85,0,0,0-8.87-1.6s5.53,3.92,7.84,8.55c-5.88-2-9.07-1.1-9.07-1.1a41.06,41.06,0,0,1,7.09,4.41c-7.55-1.13-20.17,7.61-28.42,16.36C385.08,189.19,425,215,425,231.15c-7.93-6.16-9.79-5.26-9.79-5.26A27.32,27.32,0,0,1,418,240.48c-6.07-7.07-7-6.43-7-6.43a16.27,16.27,0,0,1,.15,10.55c-4.3-4.12-10.65-4.24-19.11,1s-11.52,10.91-19.53,9.69-31.12-8.21-43.09-4.88c-8.11,2.25-20.21,14.47-27.15,17.78,5.85,6.75,6.21,8,6.21,8a45.55,45.55,0,0,1-16.71-1.82l3.81,5.09a41.37,41.37,0,0,1-25.34-10.88c-1.64,6.46-2.14,7.46-2.14,7.46s-3.95-4.14-5.13-7.31c-6.17,2.54-15.94-.22-15.94-.22l6-5.24s-8.82-2.62-15-2.57a17.74,17.74,0,0,1,8.52-4.45s-11.39-6.29-11.39-11.67,10.19-10.9,10.19-10.9-16.23-16.35-12.69-24.12c-2.89-7.64-13.05-26.77-26.3-29.67a11,11,0,0,1,5.15-4.84s-4.07-1.64-6.84-.93c.71-6.06,5.51-10.75,5.51-10.75s-6.52.08-8.73,1.5c-2.95-7.33,1.25-16.83,4.74-18.11-6.52.07-8.25,2.64-8.25,2.64s1.94-8.59,10.51-10.47a31.25,31.25,0,0,0-7.49-1s16.8-8.61,51.57-1.85c.71-6-4.09-12.64-4.09-12.64s5.88-1.82,10.24,0c-2.18-7.4-8.74-13.08-8.74-13.08s6.73,1.32,9.49,3.95c-3.72-9.22-12.78-19.7-12.78-19.7a24.89,24.89,0,0,1,13.27-7.85c8.57-1.9,10.84-5.89,17-6.06s17.25-2,17.25-2S300.47,97.08,298,104,296.38,122.44,296.38,122.44Z"/><path class="cls-4" d="M411,234.05s.91-.64,7,6.43a27.32,27.32,0,0,0-2.77-14.59s1.86-.9,9.79,5.26c0-16.12-39.95-42-55.54-50.69,8.25-8.75,20.87-17.49,28.42-16.36a41.06,41.06,0,0,0-7.09-4.41s3.19-.93,9.07,1.1c-2.31-4.63-7.84-8.55-7.84-8.55a23.85,23.85,0,0,1,8.87,1.6c-5.42-33.75-37.4-61.95-37.4-61.95-18.43.62-35.45,11-45.74,18.85-.16.26-.28.52-.43.75,18.54-14.72,46.14-15.16,56.45.26s15.18,41.14,5.44,49.88-16.28,8.84-41.67,2.57c70.56,36.86,76.06,66,70.91,63.7s-12.53,2-7.49,2.82,6.36,8.41,3.9,6.26-6-3.79-18.93,3.65-43.22,7.66-51.1-.61-1.65-17.93,7.32-15.88,18.7-1.71,12.47-2.81-15.06-1.61-16.93-6.09,1.62-15.08-4.36-7.37-18.78.17-15.43-12,5.1-36.44,2.93-29c-3.51,9.85-5.71,33-20.53,18.73s-41.77-20.47-51.7-19.77S257,153,268.44,147.2c-33.14,9.26-43.23,34.92-48.45,26.06s5.47-20.34,5.47-20.34a22.81,22.81,0,0,0-10-.82c2.4-9.4,12.44-8.58,12.44-8.58a40.51,40.51,0,0,1-6.33-2.61c12.31-5.1,49.8-.83,49.8-.83-19.7-6.66-1.27-18.72-7.25-32.49S277.4,84,286.62,84.11s9.56,28.79,9.56,28.79l.25-.26A36.33,36.33,0,0,1,298,104c2.46-7-3.84-25.32-3.84-25.32s-11.13,1.79-17.25,2-8.41,4.16-17,6.06a24.89,24.89,0,0,0-13.27,7.85s9.06,10.48,12.78,19.7c-2.76-2.63-9.49-3.95-9.49-3.95s6.56,5.68,8.74,13.08c-4.36-1.87-10.24,0-10.24,0s4.8,6.59,4.09,12.64c-34.77-6.76-51.57,1.85-51.57,1.85a31.25,31.25,0,0,1,7.49,1C199.9,140.78,198,149.37,198,149.37s1.73-2.57,8.25-2.64c-3.49,1.28-7.69,10.78-4.74,18.11,2.21-1.42,8.73-1.5,8.73-1.5s-4.8,4.69-5.51,10.75c2.77-.71,6.84.93,6.84.93a11,11,0,0,0-5.15,4.84c13.25,2.9,23.41,22,26.3,29.67-3.54,7.77,12.69,24.12,12.69,24.12s-10.18,5.51-10.19,10.9,11.39,11.67,11.39,11.67a17.74,17.74,0,0,0-8.52,4.45c6.15-.05,15,2.57,15,2.57l-6,5.24s9.77,2.76,15.94.22c1.18,3.17,5.13,7.31,5.13,7.31s.5-1,2.14-7.46a41.37,41.37,0,0,0,25.34,10.88l-3.81-5.09a45.55,45.55,0,0,0,16.71,1.82s-.36-1.25-6.21-8c6.94-3.31,19-15.53,27.15-17.78,12-3.33,35.07,3.67,43.09,4.88s11.06-4.49,19.53-9.69,14.81-5.09,19.11-1A16.27,16.27,0,0,0,411,234.05Z"/><path class="cls-3" d="M424,121.63s8.87-10.15,18.63-30.22,24.39-24.6,44.17-9.88,30.88,41.22,24.09,57.15-25.57,17.1-38.48,13.56S451,151.12,451,151.12s-10.4-9.94-11.58-10.34,9.79-.7,9.79-.7-6.51-8.74-19.95-10.25c0,0,1.28-7.83,4-11C433.24,118.86,427.85,118.88,424,121.63Z"/><path class="cls-47" d="M289.42,103.81s-5.59-1.77-30.26,4.39c4.23-4.15,17.57-10.49,30.63-12.9C289.49,96.53,289.42,103.81,289.42,103.81Z"/><path class="cls-7" d="M290.44,103.13s-5.67-2.12-30.35,4.05c4.24-4.17,17.63-10.33,30.69-12.74C290.45,95.67,290.44,103.13,290.44,103.13Z"/><path class="cls-48" d="M247.93,170.07c5.49-.1,11.41,1.11,15.66,2a80.26,80.26,0,0,1,29.69,13.44c14.93,10.78,25.38,24.2.65,33-20.94,6.67-29.2,8.88-39.63,0-8-6.76-28.69-36.06-17-45.42C240,171,243.85,170.13,247.93,170.07Z"/><path class="cls-49" d="M270.18,224.44s3.86-8.55,11.07-10,10.61-6.26,2.23-7.56-12.1,1.57-12.66,7.23S270.18,224.44,270.18,224.44Z"/><path class="cls-49" d="M247.72,211.49s1.15-7.73-3.45-12.49-1.84-6.77,2.28-4.19,3.7,11.95,2.33,18.1Z"/><path class="cls-3" d="M242.93,204.65s-17.78-1.79-8.14,15.17,20.8,22.5,23.78,21.54c8.78,10.46,22.39,11.22,37.62,4.8S327,226,319.14,218.47s-41.14,10.9-58.82,4.16C251.49,219.26,242.93,204.65,242.93,204.65Z"/><path class="cls-46" d="M334.68,208.42s-.1.41-.24,1.13a18.33,18.33,0,0,0-.36,2.94,10,10,0,0,0,.46,3.9,6.54,6.54,0,0,0,2.55,3.19,10,10,0,0,0,2,1,16,16,0,0,0,2.13.69c.74.16,1.44.33,2.14.44s1.33.19,2,.29c1.22.12,2.26.28,3,.34l1.14.14s-.42.13-1.13.3a13.1,13.1,0,0,1-1.32.25c-.51.06-1.1.17-1.72.22a17.76,17.76,0,0,1-2.1.06l-1.14,0c-.39,0-.8-.09-1.2-.15a13.9,13.9,0,0,1-2.51-.57,10.37,10.37,0,0,1-2.44-1.18,7.77,7.77,0,0,1-2.06-2,7.44,7.44,0,0,1-1.15-2.52,8.11,8.11,0,0,1-.21-2.47,9.25,9.25,0,0,1,.32-2.14,12,12,0,0,1,1.2-2.88A8.72,8.72,0,0,1,334.68,208.42Z"/><path class="cls-46" d="M335,219.38s-.09.19-.26.52-.42.89-.81,1.55-.86,1.37-1.45,2.19-1.35,1.76-2.21,2.67-1.83,1.93-2.86,2.95-2.21,2-3.48,3-2.52,2-3.93,2.88c-.7.45-1.39.92-2.08,1.38l-2.16,1.31c-.74.43-1.46.87-2.18,1.26s-1.52.76-2.24,1.16-1.47.75-2.19,1.12-1.47.66-2.18,1c-1.45.64-2.83,1.28-4.18,1.79s-2.63,1-3.83,1.4-2.26.77-3.24,1.06l-2.55.74c-1.41.37-2.22.6-2.22.6l2.08-1c1.32-.66,3.23-1.46,5.48-2.55,1.13-.56,2.32-1.13,3.64-1.73s2.59-1.35,4-2c.71-.35,1.4-.71,2.11-1.08s1.41-.78,2.13-1.16l2.15-1.16c.71-.4,1.42-.85,2.12-1.27s1.43-.83,2.14-1.26,1.37-.87,2.06-1.32c1.39-.86,2.69-1.77,3.94-2.67s2.45-1.81,3.56-2.66,2.15-1.75,3.05-2.6,1.71-1.62,2.43-2.33,1.32-1.37,1.76-1.92A18.71,18.71,0,0,0,335,219.38Z"/><path class="cls-40" d="M243.82,211.07s9.55,8.14,13.36,12.86c2.4,3,5.08,12.78-.93,13.28-6.59.53-15.8-11.54-18.24-16.67C233.45,210.94,238.11,206.52,243.82,211.07Z"/><path class="cls-39" d="M510.9,139.13c2.44-5.76,2.57-12.86.79-20.31,2.88,21.94-15.21,34.66-22.54,29-7.7-6,16.68-14.22,1.69-41.58s-40.77-11.7-35.71-21.64,14.93-11.44,35.36.55c.22.13.43.24.62.37-1.37-1.24-2.82-2.42-4.3-3.52C467,67.26,452.4,71.75,442.64,91.86S424,122.08,424,122.08c3.84-2.75,9.23-2.78,9.23-2.78-2.73,3.15-4,11-4,11,13.44,1.51,19.95,10.25,19.95,10.25s-11,.29-9.79.7S451,151.57,451,151.57s8.54-2.39,21.45,1.12S504.14,155.06,510.9,139.13Z"/><path class="cls-40" d="M300,221.83s-30.18,2.52-34.85,9.45,3.18,15.05,18.5,14.41C302.68,244.87,330.28,218.45,300,221.83Z"/><path class="cls-40" d="M255.15,165.8s22.07-24.58,41.28-18.66,3.9,38.5,3.9,38.5S284.65,170.62,255.15,165.8Z"/><path class="cls-50" d="M258.56,137.3s.45.09,1.28.22,2.05.36,3.61.69c3.08.63,7.52,1.55,12.81,2.83,2.62.65,5.48,1.34,8.47,2.18l4.63,1.27,4.78,1.41c3.26.94,6.61,2,10,3.13s6.8,2.36,10.22,3.54,6.78,2.58,10.1,3.92c1.62.71,3.26,1.39,4.87,2s3.19,1.36,4.73,2.11c3.06,1.44,6.06,2.74,8.83,4.22s5.38,2.77,7.75,4.12,4.47,2.64,6.39,3.79c.95.55,1.79,1.13,2.58,1.66s1.52,1,2.18,1.47c2.61,1.78,4.1,2.83,4.1,2.83l-4.34-2.47c-.67-.39-1.44-.83-2.23-1.32s-1.72-1-2.71-1.47c-2-1-4.17-2.13-6.54-3.39s-5.11-2.4-7.88-3.77c-1.39-.66-2.85-1.31-4.35-1.95s-3-1.3-4.55-2c-3.07-1.38-6.38-2.57-9.62-3.94s-6.69-2.55-10.05-3.83-6.77-2.46-10.14-3.59-6.65-2.3-9.88-3.31l-4.73-1.52-4.56-1.42c-2.95-.93-5.76-1.76-8.36-2.54-5.18-1.52-9.52-2.79-12.57-3.62S258.56,137.3,258.56,137.3Z"/><path class="cls-51" d="M267.55,168.63s20.14-23,28.18-20.66c7.79,2.13-9,27.87-9,27.87S276.73,170.29,267.55,168.63Z"/><path class="cls-41" d="M438.92,131.69s10.86-47.19,35.82-36.28,26.66,53.17-29.57,50.22l-5.78-4.85,9.79-.7S447,136.48,438.92,131.69Z"/><path class="cls-52" d="M248.8,239.68a14.25,14.25,0,0,0,9.75,5.21c11.21,9,20.1,11.44,41.09,3.92s6.5,10.38-4.16,14.63c-2.5.83,5.18,5.25,5.61,7.63s-7.6.41-13.74-3.18c-4.34-2.78-1.2,2,2.13,5.34s-12.05-1.72-18.06-9.16c-2.61,2.73-2.8,5.83-3.9,5.61s-2-5.73-2-5.73-8.84,3.56-10.79,2.63,5.62-5.88,5.62-5.88-9.69-.66-11.1-1.64,7.4-3.33,7.4-3.33-10.53-1.41-15.31-8.29S247.07,237.66,248.8,239.68Z"/><path d="M276.4,231.08l2.43.55c1.54.37,3.74.84,6.38,1.52s5.7,1.37,9,2.24l10.27,2.67,10.23,2.83c3.27.9,6.28,1.81,8.89,2.56s4.76,1.44,6.29,1.88,2.35.74,2.35.74-.87-.17-2.41-.52-3.75-.86-6.37-1.52-5.71-1.37-9-2.24-6.75-1.76-10.25-2.67-7-1.93-10.24-2.83-6.28-1.83-8.89-2.56-4.78-1.46-6.27-1.9Z"/><path d="M276.78,235.07l2.12.57c1.33.39,3.25.89,5.54,1.58s5,1.46,7.78,2.36,5.89,1.84,8.92,2.79l8.86,2.94c2.84.94,5.45,1.88,7.71,2.67s4.1,1.49,5.42,2l2,.77-2.1-.57c-1.33-.37-3.26-.89-5.54-1.58s-5-1.45-7.81-2.34l-8.9-2.81c-3-1-6.05-2-8.85-2.94s-5.46-1.89-7.7-2.66-4.12-1.5-5.42-1.94S276.78,235.07,276.78,235.07Z"/><path d="M276.68,239.92s.61.34,1.69.89,2.56,1.36,4.35,2.37,3.9,2.16,6.14,3.46,4.58,2.67,6.94,4.06,4.69,2.83,6.88,4.19,4.2,2.65,5.95,3.74,3.15,2.07,4.17,2.72,1.56,1.06,1.56,1.06l-1.69-.88c-1-.57-2.57-1.36-4.36-2.37s-3.89-2.17-6.12-3.47-4.58-2.66-6.95-4.06-4.7-2.82-6.89-4.18-4.2-2.66-5.93-3.75-3.17-2.07-4.18-2.72Z"/><path d="M245.76,218.93s-2.83-.56-7.12-1.45c-1.06-.24-2.21-.5-3.44-.72l-3.85-.75c-1.33-.29-2.72-.5-4.13-.77s-2.81-.51-4.26-.77l-4.26-.67c-1.42-.2-2.8-.5-4.14-.65l-3.88-.49c-1.23-.16-2.38-.33-3.49-.44-2.17-.13-4-.3-5.25-.41l-2-.18s.74,0,2,0,3.08,0,5.27,0c1.08,0,2.27.17,3.51.26s2.58.21,3.95.35,2.75.33,4.17.54,2.85.43,4.3.63c2.85.57,5.71,1.06,8.39,1.68s5.13,1.23,7.23,1.82,3.86,1.09,5.08,1.44S245.76,218.93,245.76,218.93Z"/><path d="M245.67,221.56l-1.88-.11-4.92-.23-6.92-.37c-2.54-.12-5.22-.28-7.93-.37s-5.41-.2-7.94-.25-4.89-.1-6.93,0c-1,0-1.93.08-2.76.1a19.94,19.94,0,0,0-2.12.14l-1.87.15,1.83-.37c.59-.13,1.32-.22,2.12-.31a23.27,23.27,0,0,1,2.77-.3c2-.17,4.44-.32,7-.33s5.25,0,8,.13l4.06.23c1.34.06,2.64.19,3.91.27,2.55.22,4.89.49,6.92.71s3.7.49,4.87.65S245.67,221.56,245.67,221.56Z"/><path d="M246.41,225.23l-1.86.53c-1.17.3-2.87.77-4.89,1.26s-4.4,1.09-6.95,1.71c-3,.69-4.84,1.1-8,1.79-2.72.59-5.44,1.17-8,1.69s-5,.95-7,1.36-3.78.66-5,.88l-1.91.29,1.86-.5c1.18-.32,2.86-.79,4.9-1.29s4.4-1.09,7-1.68,5.26-1.2,8-1.81c3.15-.67,5-1.06,8-1.69,2.55-.51,5-.93,7-1.34s3.78-.67,5-.88Z"/><g class="cls-53"><path class="cls-54" d="M296.36,187.86c6.77,6,14.23,13.86,11.14,16.6-5.25,4.69-25-3.5-32.29,0s-16.54,1.64-20.53-7.51-7.9-7.62-16.49-15.95c-2.75-2.69-2.9-5.05-1.86-7-9.49,10.21,10.27,38,18,44.56,10.43,8.85,18.69,6.64,39.63,0C316.91,210.36,309.52,198.19,296.36,187.86Z"/></g><path class="cls-55" d="M300.69,196.86c-.54.57-2.15-.12-3.55-1.51s-2.16-3-1.6-3.54,2.13.13,3.56,1.51S301.22,196.31,300.69,196.86Z"/><path class="cls-55" d="M245.89,172.53s24.53,1.93,44.46,17.18C297,195.08,285.41,174.17,245.89,172.53Z"/><path class="cls-56" d="M502,302.17c8,.37,16.69-2.42,21.62-9.11-13.78,9.58-41.26-5.18-42.79,6.81-1.08,27-30.74,31.53-44.84,27.14s-20.89,9.87-20.89,9.87-1.68-7.08,2.48-15.78c-26.13,28.81-57.54,8.27-57.54,8.27l-8.9-15.56C340.27,338,299,331.27,283.73,318s-30.72-2-50.53-2.42c15.89-4.13,11.34-26-6.19-36.73-31.31-19.18-40.44-29.51-34.56-47.91-3.88,4.46-13.25,7.53-13.25,7.53s10.92-15.14-4.53-21.86S154.68,197,162,173.13c-4.42,5.1-14,5.78-14,5.78s10.49-4.35,4.49-12.91c-18-17.91-16.28-35.41,1.1-43.83a51.58,51.58,0,0,0-10.48-1.41c-6.58,2.95-27.8,15.08-9.57,43.45,11,14.57,11.53,16.46,1.72,21.58,0,0,7,4.68,13.18-.77-8.37,11.74-11.31,19.24,3,31.29S183.3,230,169.07,240.58c3.06,5.18,8,1.94,8,1.94s-14.48,9.65,19.45,33.36c26.69,19.24,29.1,23.48,27.9,31s-14.07,10-14.07,10,12.31,11,38.33,7.47c20.35.1,25.38.51,35.7,8s37.8,21.7,62.15,2.32c-5.1,9.21-3.6,11.57-3.6,11.57s3.56-9.46,21.11.06,38.61,13.77,48.2.24c1.76,5.81,5.19,8.07,5.19,8.07S414.09,340,428,344.17s44.88,13,56.27-32c0,0,.83,7.87,9.71,7C486,314.56,486.85,301.44,502,302.17Z"/><path class="cls-57" d="M393.74,12.93s-8.35,12.62-31.28,9.15c-16.35-2.1-22.64,7.15-20.38,19.48,4.28-17.89,11-14.66,21.81-12.18S388.41,29,393.74,12.93Z"/><path class="cls-58" d="M359.74,36.16S345.13,39,349.07,55.43C339.34,48.7,347.31,30.55,359.74,36.16Z"/><path class="cls-59" d="M331.07,48.6s-24.4-4.91-38.85,15C296,52.61,310.23,36.26,331.07,48.6Z"/><path class="cls-40" d="M491.82,95.53s12.69,17.69,8.4,31.33,9.58,7.42,9.71-7.6S486.07,81.66,491.82,95.53Z"/><path class="cls-60" d="M278.46,142.06A312.39,312.39,0,0,1,332.76,160C313.16,147.3,290,142,278.46,142.06Z"/><path class="cls-61" d="M458.49,145.23c-25.52-3.83-2.84-50.07,18-35.89,15.34,10.43,6.7,24.31,1,31C499,129,493.31,103.51,474.74,95.41c-25-10.91-35.82,36.28-35.82,36.28,8.08,4.79,10.26,8.39,10.26,8.39l-9.79.7,5.78,4.85a89,89,0,0,0,13.41-.22A1.5,1.5,0,0,0,458.49,145.23Z"/><path class="cls-47" d="M344.58,121.5s7,.8,29.62,20.49c-2.13-6.79-12.61-21.76-25-31.24C348.79,112.26,344.58,121.5,344.58,121.5Z"/><path class="cls-7" d="M344,120s7,.79,29.61,20.5c-2.12-6.81-12.79-20.61-25.22-30.09C348.07,112,344,120,344,120Z"/><path d="M364.24,159a27.05,27.05,0,0,1-18.42,2.21,48.66,48.66,0,0,1-17.76-8.05l-7.34-.27,2.12-4.34s10.34-17,25.06-16.05c0,0,17.11-.33,23.15,20.5C371.05,153,373.92,159.67,364.24,159Z"/><path class="cls-60" d="M323.26,150.26c5.86-7.62,10.09-15.26,22.93-16.12,13.22-1,21.06,12,21.57,21.26a26.59,26.59,0,0,1-19.92,5.21A43.11,43.11,0,0,1,328.3,152Z"/><path class="cls-62" d="M323.26,150.26c5.86-7.62,10.09-15.26,22.93-16.12,13.22-1,21.06,12,21.57,21.26a26.81,26.81,0,0,1-17.15,5.49l-2.89-22.62s-13.54-1.35-20.19,9.27a15.3,15.3,0,0,0,4.56,7.09A32.91,32.91,0,0,1,328.3,152Z"/><path class="cls-63" d="M336.74,143.8c-2.25,6.67,1.74,14,8.91,16.46s14.82-1,17.07-7.71S361,138.5,353.8,136.08,339,137.12,336.74,143.8Z"/><path class="cls-10" d="M338.18,144.28c-2,5.94,1.55,12.5,7.93,14.64s13.17-.92,15.17-6.86-1.55-12.49-7.93-14.64S340.18,138.34,338.18,144.28Z"/><path d="M341.51,145.41c-1.42,4.22,1.11,8.88,5.64,10.41s9.37-.66,10.79-4.88-1.1-8.89-5.64-10.41S342.94,141.18,341.51,145.41Z"/><path class="cls-40" d="M349.65,144.16a5.07,5.07,0,1,0,6.3-2.85A4.89,4.89,0,0,0,349.65,144.16Z"/><path class="cls-3" d="M340,151.19a3.09,3.09,0,1,0,3.84-1.73A3,3,0,0,0,340,151.19Z"/><path d="M367.66,155.39c-1.14-9.44-9.18-21.24-22.21-20.54-11.78.62-16.53,8.43-22,15.53-.16.21-.59,0-.43-.25,5.67-7.41,12.17-17.1,25-16.75,13.22.36,19.59,13,19.84,22,0,.11-.2.09-.21,0Z"/><path d="M288.26,142.61c.24-1.85.52-4.22.63-5.75.2-2.84-.6-16.43-8-21.1s-15.35-5.24-22.53,4.95c0,0-4.38,2.13,1.2,7.79,0,0,3.79,8.92,10,10.76a28.86,28.86,0,0,0,12.16.71l5.19,3S288.06,144.17,288.26,142.61Z"/><path class="cls-60" d="M261,124.25c1.59-5.94,6.78-13.31,16.35-8.49,8.37,4.25,11.16,13.59,10.36,22.94v2l-5.18-1.7s-12,1.7-16.75-3.4A18.11,18.11,0,0,1,261,124.25Z"/><path class="cls-62" d="M265.76,135.58A18.11,18.11,0,0,1,261,124.25c1.59-5.94,6.78-13.31,16.35-8.49,8.37,4.25,11.16,13.59,10.36,22.94v2l-5.18-1.7s-.64.09-1.67.17l-1.39-12.53-3.89-9.05s-8.29-2.35-11,6.54,1.42,12.82,5.67,14.08a2.77,2.77,0,0,1,.38.14A10.72,10.72,0,0,1,265.76,135.58Z"/><path class="cls-64" d="M266.07,128.36c-.08-6.4,4.15-11.62,9.45-11.66s9.66,5.13,9.75,11.53c.07,5.09-2.59,9.42-6.33,11a29,29,0,0,1-7.77-.76A12.23,12.23,0,0,1,266.07,128.36Z"/><path class="cls-10" d="M267.14,128.35c.07,5.7,3.95,10.29,8.67,10.26s8.47-4.68,8.39-10.37S280.25,118,275.54,118,267.06,122.66,267.14,128.35Z"/><path d="M269.6,128.34c.06,4,2.82,7.31,6.17,7.29s6-3.32,6-7.37-2.82-7.32-6.16-7.29S269.55,124.29,269.6,128.34Z"/><path class="cls-40" d="M274.68,124.87c0,2.36,1.64,4.26,3.6,4.25s3.51-1.94,3.48-4.3-1.64-4.26-3.6-4.25S274.65,122.51,274.68,124.87Z"/><path class="cls-3" d="M270,133.77a2.43,2.43,0,0,0,2.2,2.59,2.39,2.39,0,0,0,2.12-2.62,2.44,2.44,0,0,0-2.19-2.6A2.4,2.4,0,0,0,270,133.77Z"/><path d="M287.6,138.7c.49-6.93-.17-15.57-7.55-20.75-3.36-2.35-8.8-4.06-12.8-1.64-3.34,2-4.37,5.26-6,8-.13.23-.64.22-.64-.06.1-6,6.86-13.69,16.14-9.6,4.29,1.89,6.86,5.84,8.56,9.06,2.49,4.72,2.8,10,2.44,15,0,.08-.2.08-.19,0Z"/><ellipse class="cls-65" cx="323.79" cy="177.32" rx="17.46" ry="23.99" transform="translate(41.18 414.83) rotate(-68.75)"/><ellipse class="cls-66" cx="261.77" cy="149.75" rx="17.46" ry="21.93" transform="translate(27.32 339.45) rotate(-68.75)"/><path class="cls-67" d="M330.69,159.34c-12.05-4.57-24.5-1.73-29.48,6.21-1.18-3.12-5.19-10.07-16.85-8.74,3.05-9.3-4.25-20.44-16.64-25.14-12.66-4.8-25.82-1.07-29.39,8.34s3.8,20.93,16.46,25.73c11.76,4.46,23.94,1.55,28.47-6.43,3.88-.4,12.88-.24,16.62,8.87C296.24,178,303.94,190,317.16,195s27,1.11,30.78-8.74S344,164.37,330.69,159.34Zm-74.95,3.91c-10.81-4.1-17.11-13.93-14.06-22s14.28-11.22,25.09-7.12,17.1,13.94,14.06,22S266.55,167.36,255.74,163.25Zm62.41,29.18c-11.33-4.3-17.92-14.6-14.73-23s15-11.75,26.29-7.46,17.91,14.6,14.72,23S329.47,196.72,318.15,192.43Z"/></g></g></svg>