<svg xmlns="http://www.w3.org/2000/svg" viewBox="0 0 145.58 133"><defs><style>.cls-1{fill:#b04687;}.cls-2{fill:#229bbc;}.cls-3{fill:#f2a951;}.cls-4{fill:#fff;}.cls-5{fill:#139ab0;}.cls-6{opacity:0.1;}.cls-7{fill:#d7d9d8;}.cls-8{fill:#13181b;}.cls-9{fill:#eb5032;}.cls-10{fill:#e8f5f8;}.cls-11{fill:none;stroke:#e4eaea;stroke-linecap:round;stroke-miterlimit:10;stroke-width:3px;}</style></defs><title>Преимущество 1</title><g id="Слой_3" data-name="Слой 3"><path class="cls-1" d="M134.86,75.31a6,6,0,0,0,4.47-1,9.49,9.49,0,0,0,2-1.73,19.47,19.47,0,0,0,1.64-2.16A26.18,26.18,0,0,0,145,66.09c.41-1.2.59-2,.59-2s-.75.34-1.83.92c-.55.29-1.16.65-1.85,1.06s-1.41.86-2.12,1.36A18.53,18.53,0,0,0,136,70.89l-.13.19c.5-2.32.91-4.67,1.22-7a5.81,5.81,0,0,0,3.51-1.46,10,10,0,0,0,.86-.86,9,9,0,0,0,.74-1,15.43,15.43,0,0,0,1.22-2.18c.17-.38.33-.76.48-1.13s.26-.72.37-1.07c.23-.7.4-1.35.54-1.92a15.06,15.06,0,0,0,.36-1.89s-.67.36-1.66,1A29.4,29.4,0,0,0,140,56.1a17.46,17.46,0,0,0-1.74,1.7,9.46,9.46,0,0,0-.64.78q.18-3,.08-6a5.49,5.49,0,0,0,2.47-1.49,9.08,9.08,0,0,0,1.37-1.84,13.5,13.5,0,0,0,.93-2.17,13.65,13.65,0,0,0,.6-2.2c.13-.72.22-1.39.28-2s.09-1.07.11-1.4a4.64,4.64,0,0,0,0-.54l-.4.3-1.07.81a32.27,32.27,0,0,0-3.07,2.78c-.26.28-.51.57-.76.87s-.51.6-.73.91l-.19.26a52.87,52.87,0,0,0-1.07-5.67,4.79,4.79,0,0,0,2.17-1.69,9,9,0,0,0,1.52-4.2c0-.39.1-.77.12-1.15s0-.75,0-1.12c0-.72-.08-1.4-.14-2a9.26,9.26,0,0,0-.23-1.39c-.08-.34-.13-.53-.13-.53s-.47.49-1.12,1.28a30.22,30.22,0,0,0-2.35,3.1,17.59,17.59,0,0,0-1,1.9,8.11,8.11,0,0,0-.34.74,53.13,53.13,0,0,0-2.57-6,4,4,0,0,0,2.06-2.13,9.16,9.16,0,0,0,.38-4.26,20.75,20.75,0,0,0-1.09-4c-.45-1.05-.82-1.74-.82-1.74s-.33.52-.77,1.37c-.21.42-.45.92-.69,1.47s-.5,1.17-.72,1.8a13.73,13.73,0,0,0-.55,2,8.72,8.72,0,0,0-.13,1l0,.36A51.39,51.39,0,0,0,125.14,20a3.28,3.28,0,0,0,1.12-.91,3.53,3.53,0,0,0,.64-1.61,6.43,6.43,0,0,0,0-1.95,8.92,8.92,0,0,0-.55-2.07,22.76,22.76,0,0,0-1.8-3.57c-.61-.91-1.07-1.5-1.07-1.5A13.37,13.37,0,0,0,123,9.73a21.28,21.28,0,0,0-.72,3.24,9.69,9.69,0,0,0,.17,3.83c0,.08,0,.17.08.26-1.94-2-4-4-6.37-6.12,2.29-1.29,1.67-4,.38-6.46a21.32,21.32,0,0,0-2.13-3.14C113.71.52,113.22,0,113.22,0a16.67,16.67,0,0,0-.62,4.47,9.84,9.84,0,0,0,.7,3.59,5.64,5.64,0,0,0,.36.69h0a35.91,35.91,0,0,0-5.79-3.8C122.5,17.2,133.67,32,135.33,49c.61,6.17-.14,12.33-1.1,18.45-1.08,6.91-2.82,13.8-6.4,20.2a64.11,64.11,0,0,1-23,24s-15.07,7.56-31.22,7.73H71.92c-16-.24-31.22-7.73-31.22-7.73a64.33,64.33,0,0,1-23-24c-3.58-6.4-5.32-13.29-6.4-20.2-1-6.12-1.7-12.28-1.1-18.45C11.91,32,23.08,17.19,37.71,4.94a36.38,36.38,0,0,0-5.79,3.8h0a6.38,6.38,0,0,0,.35-.69A9.44,9.44,0,0,0,33,4.47,16.67,16.67,0,0,0,32.35,0s-.49.52-1.14,1.34a21.32,21.32,0,0,0-2.14,3.14c-1.29,2.46-1.9,5.17.39,6.46C27.14,13,25,15,23.09,17.05l.07-.25A9.51,9.51,0,0,0,23.33,13a22.7,22.7,0,0,0-.71-3.24c-.26-.84-.49-1.37-.49-1.37s-.46.59-1.06,1.5a21.16,21.16,0,0,0-1.8,3.57,8.47,8.47,0,0,0-.56,2.07,7.14,7.14,0,0,0,0,1.95,3.54,3.54,0,0,0,.65,1.61,3.24,3.24,0,0,0,1.11.91A52.44,52.44,0,0,0,15.92,26c0-.13,0-.25,0-.36a8.75,8.75,0,0,0-.14-1,13.69,13.69,0,0,0-.54-2c-.22-.63-.5-1.25-.73-1.8s-.47-1-.69-1.47A15.71,15.71,0,0,0,13,18.06s-.36.69-.81,1.74a20.52,20.52,0,0,0-1.1,4,9.15,9.15,0,0,0,.39,4.26,4,4,0,0,0,2.05,2.13,53.13,53.13,0,0,0-2.56,6c-.11-.25-.22-.49-.34-.74a16.11,16.11,0,0,0-1.06-1.9,31.81,31.81,0,0,0-2.34-3.1c-.65-.79-1.13-1.28-1.13-1.28s0,.19-.13.53a10.76,10.76,0,0,0-.23,1.39c-.06.58-.11,1.26-.13,2,0,.37,0,.74,0,1.12a11.57,11.57,0,0,0,.13,1.15,9,9,0,0,0,1.52,4.2,4.74,4.74,0,0,0,2.17,1.69,50.55,50.55,0,0,0-1.08,5.67l-.18-.26c-.23-.31-.48-.61-.73-.91s-.51-.59-.77-.87a30,30,0,0,0-3.07-2.78l-1.07-.81-.4-.3s0,.2,0,.54.05.82.12,1.39.14,1.25.27,2a14.76,14.76,0,0,0,.6,2.2,14.5,14.5,0,0,0,.94,2.17,8.73,8.73,0,0,0,1.37,1.84,5.46,5.46,0,0,0,2.46,1.49q-.09,3,.08,6c-.2-.26-.41-.52-.64-.77a16.44,16.44,0,0,0-1.74-1.7,28.62,28.62,0,0,0-3.52-2.55c-1-.62-1.65-1-1.65-1a15.06,15.06,0,0,0,.36,1.89c.13.57.31,1.22.53,1.92.12.35.24.71.37,1.07s.32.75.49,1.13a16,16,0,0,0,1.21,2.18,10.47,10.47,0,0,0,.74,1,9.92,9.92,0,0,0,.87.85A5.76,5.76,0,0,0,8.5,64.06c.31,2.35.72,4.7,1.21,7a2.14,2.14,0,0,0-.13-.19,18.27,18.27,0,0,0-3.79-3.47c-.71-.5-1.43-1-2.12-1.36S2.37,65.29,1.82,65C.74,64.41,0,64.08,0,64.08s.18.81.58,2a26.31,26.31,0,0,0,2.06,4.28,19.17,19.17,0,0,0,1.64,2.16,9.44,9.44,0,0,0,2,1.73,6.05,6.05,0,0,0,4.47,1c.07.3.15.59.23.88a54.72,54.72,0,0,0,2,6.16c-.15-.16-.3-.31-.46-.46-.33-.3-.68-.58-1.05-.86s-.73-.55-1.12-.81A23.38,23.38,0,0,0,7.9,78.8c-.82-.44-1.68-.82-2.43-1.17S4,77,3.39,76.74c-1.22-.49-2-.76-2-.76s.35.83,1,2A20.41,20.41,0,0,0,3.6,80a25.61,25.61,0,0,0,1.7,2.21,19.67,19.67,0,0,0,2.16,2,11.46,11.46,0,0,0,1.16.85l.6.37c.21.11.42.22.63.31a6.49,6.49,0,0,0,4.84.44,49.86,49.86,0,0,0,3.94,6.61q-.36-.27-.75-.51c-.41-.25-.85-.49-1.29-.72s-.87-.45-1.32-.66c-.91-.41-1.87-.77-2.82-1.09L11,89.41,9.7,89c-.85-.25-1.65-.46-2.33-.63C6,88,5.1,87.87,5.1,87.87s.56.82,1.5,2a19.83,19.83,0,0,0,1.78,1.91c.7.67,1.47,1.37,2.28,2a23.27,23.27,0,0,0,2.73,1.74,14,14,0,0,0,1.4.69,8.86,8.86,0,0,0,1.42.5,6.64,6.64,0,0,0,5.09-.37c1.47,1.83,3,3.68,4.66,5.48l-.2-.08c-.24-.1-.48-.18-.73-.27l-.73-.26c-.49-.17-1-.31-1.51-.45-1-.27-2.1-.48-3.15-.65s-2.05-.33-3-.45-1.8-.21-2.54-.28c-1.48-.13-2.44-.16-2.44-.16s.78.75,2.05,1.78l1,.82c.38.28.81.55,1.25.84.89.57,1.85,1.15,2.85,1.68.26.13.5.27.77.39l.8.34c.54.22,1.08.43,1.62.6a16.28,16.28,0,0,0,3.15.75,7.11,7.11,0,0,0,4.46-.77q2,1.95,4.21,3.74c-.44-.07-.89-.13-1.35-.17-1.1-.11-2.27-.13-3.33-.18-2.15-.06-4.22,0-5.74.14-.77,0-1.4.11-1.84.15l-.67.06.17.12c.11.08.29.17.5.3.44.26,1.07.62,1.85,1s1.68.88,2.68,1.34,2.15.85,3.29,1.22c.57.19,1.16.36,1.73.51l.87.22.88.16a18.21,18.21,0,0,0,3.37.26,7.45,7.45,0,0,0,3.68-.93c.55.33,1.1.64,1.66.93a.43.43,0,0,0,.3.07,71.63,71.63,0,0,0,24.72,7.68c-6.19,1.15-13.47,2.42-21.2,3.59L37.11,133s18.77-6.25,36.28-10.24c17.51,4,36.27,10.24,36.27,10.24l-8.34-7.1c-7.92-1.2-15.37-2.51-21.67-3.68a62.34,62.34,0,0,0,24.06-7.59.46.46,0,0,0,.23-.07c.56-.29,1.12-.6,1.67-.93a7.41,7.41,0,0,0,3.67.93,18.21,18.21,0,0,0,3.37-.26l.88-.16.87-.22c.58-.15,1.16-.32,1.73-.51,1.14-.37,2.27-.79,3.3-1.21s1.91-.93,2.68-1.35,1.4-.77,1.84-1l.51-.3.16-.12-.67-.06c-.44,0-1.07-.1-1.83-.15-1.53-.11-3.59-.2-5.75-.14-1.06,0-2.22.07-3.33.18-.45,0-.9.1-1.35.17q2.19-1.79,4.22-3.74a7.07,7.07,0,0,0,4.45.77,16.11,16.11,0,0,0,3.15-.75c.54-.17,1.08-.38,1.62-.6l.81-.34c.26-.12.51-.26.76-.39,1-.53,2-1.11,2.86-1.68.44-.29.87-.56,1.25-.84s.72-.56,1-.82c1.27-1,2-1.78,2-1.78s-1,0-2.43.17c-.75.06-1.61.15-2.54.27s-1.91.29-3,.45-2.11.38-3.15.65q-.77.21-1.5.45l-.73.26c-.25.09-.5.17-.74.27l-.2.08c1.64-1.8,3.2-3.65,4.66-5.48a6.66,6.66,0,0,0,5.1.37,9.22,9.22,0,0,0,1.42-.5,15.1,15.1,0,0,0,1.4-.69,22.36,22.36,0,0,0,2.72-1.74c.82-.66,1.59-1.36,2.28-2A18.63,18.63,0,0,0,139,89.85c.95-1.16,1.5-2,1.5-2s-.9.17-2.26.51c-.69.17-1.49.38-2.34.63-.42.13-.86.27-1.33.4l-1.41.46A30.09,30.09,0,0,0,130.3,91c-.45.21-.9.43-1.32.66s-.87.47-1.28.72a8.21,8.21,0,0,0-.75.51,49.78,49.78,0,0,0,3.93-6.61,6.48,6.48,0,0,0,4.84-.44c.21-.09.43-.2.64-.31l.59-.37a10.44,10.44,0,0,0,1.16-.85,20.71,20.71,0,0,0,2.17-2A25.61,25.61,0,0,0,142,80a20.17,20.17,0,0,0,1.27-2c.64-1.2,1-2,1-2s-.83.27-2.05.76c-.62.24-1.33.54-2.09.89s-1.61.74-2.43,1.17a24.47,24.47,0,0,0-2.43,1.42c-.39.26-.74.53-1.11.81s-.73.56-1.06.86c-.15.15-.31.3-.46.46a54.78,54.78,0,0,0,2-6.16C134.71,75.9,134.79,75.61,134.86,75.31Z"/><path class="cls-2" d="M72.79,1.28a57.16,57.16,0,1,0,57.15,57.15A57.16,57.16,0,0,0,72.79,1.28Zm0,104a46.84,46.84,0,1,1,46.83-46.84A46.84,46.84,0,0,1,72.79,105.27Z"/><polygon class="cls-3" points="72.79 3.45 71.66 5.74 69.13 6.1 70.96 7.89 70.53 10.4 72.79 9.21 75.05 10.4 74.61 7.89 76.45 6.1 73.92 5.74 72.79 3.45"/><polygon class="cls-3" points="111.67 19.55 109.25 20.37 107.2 18.84 107.24 21.4 105.15 22.87 107.59 23.63 108.35 26.07 109.82 23.98 112.37 24.02 110.85 21.97 111.67 19.55"/><polygon class="cls-3" points="127.77 58.43 125.48 57.3 125.12 54.78 123.33 56.61 120.82 56.17 122 58.43 120.82 60.69 123.33 60.26 125.11 62.09 125.48 59.56 127.77 58.43"/><polygon class="cls-3" points="111.67 97.31 110.85 94.9 112.37 92.85 109.82 92.88 108.35 90.8 107.59 93.24 105.15 93.99 107.24 95.47 107.2 98.02 109.25 96.49 111.67 97.31"/><polygon class="cls-3" points="72.79 113.42 73.92 111.13 76.44 110.76 74.61 108.98 75.05 106.46 72.78 107.65 70.53 106.46 70.96 108.98 69.13 110.76 71.66 111.13 72.79 113.42"/><polygon class="cls-3" points="33.91 97.31 36.32 96.49 38.37 98.02 38.34 95.47 40.42 93.99 37.98 93.23 37.23 90.8 35.75 92.88 33.2 92.85 34.73 94.9 33.91 97.31"/><polygon class="cls-3" points="17.8 58.43 20.09 59.56 20.45 62.09 22.24 60.26 24.76 60.69 23.57 58.43 24.76 56.17 22.24 56.6 20.46 54.77 20.09 57.3 17.8 58.43"/><polygon class="cls-3" points="33.91 19.55 34.73 21.97 33.2 24.01 35.75 23.98 37.23 26.07 37.99 23.63 40.42 22.87 38.34 21.4 38.37 18.84 36.32 20.37 33.91 19.55"/></g><g id="Слой_5" data-name="Слой 5"><path class="cls-4" d="M71.74,80.76a3,3,0,0,1,.52,0c.75.13,2.74.62,3.1,2.17.44,1.92.14,10.76.14,11.5S75.36,96,77.13,96.9a8.53,8.53,0,0,0,3.11-.09,13.8,13.8,0,0,0,9-5.34,20.35,20.35,0,0,0,4-16c-.31-2.09-.47-3.81-.57-5.21a12.19,12.19,0,0,1,2.17-7.9c5.36-7.64,6.81-12.26,6.81-19.45,0-12.45-7.85-18.39-17.54-18.39a15.94,15.94,0,0,0-10.49,4.32,3.17,3.17,0,0,1-1.28.71h0a3,3,0,0,1-1.68,0h0a3.17,3.17,0,0,1-1.28-.71A16,16,0,0,0,58.84,24.5c-9.69,0-17.54,5.94-17.54,18.39,0,7.19,1.45,11.81,6.81,19.45a12.33,12.33,0,0,1,2.17,7.9c-.1,1.4-.27,3.12-.57,5.21a20.31,20.31,0,0,0,4,16,13.78,13.78,0,0,0,9,5.34,8.53,8.53,0,0,0,3.11.09c1.77-.89,1.62-1.7,1.62-2.43s-.29-9.58.15-11.5c.36-1.55,2.35-2,3.1-2.17a3,3,0,0,1,.52,0Z"/><path class="cls-5" d="M64.9,97.52a19.21,19.21,0,0,1-2.3-.21,14.22,14.22,0,0,1-9.3-5.53,20.87,20.87,0,0,1-4.09-16.4c.26-1.74.44-3.43.57-5.18a11.77,11.77,0,0,0-2.08-7.57c-5.23-7.45-6.9-12.25-6.9-19.74C40.8,29,50.12,24,58.84,24a16.35,16.35,0,0,1,10.82,4.45,2.76,2.76,0,0,0,1.08.6,2.63,2.63,0,0,0,1.42,0,2.83,2.83,0,0,0,1.08-.6A16.33,16.33,0,0,1,84.06,24c8.72,0,18,5,18,18.89,0,7.49-1.68,12.29-6.9,19.74a11.77,11.77,0,0,0-2.08,7.57c.12,1.74.31,3.43.57,5.18a20.87,20.87,0,0,1-4.09,16.4,14.17,14.17,0,0,1-9.29,5.52,7.59,7.59,0,0,1-3.41,0c-1.78-.88-1.91-1.79-1.9-2.72v-.15c0-.12,0-.44,0-.91,0-2.21.21-8.93-.15-10.48-.29-1.27-2.14-1.69-2.7-1.79a3.11,3.11,0,0,0-.43,0h-.58a3,3,0,0,0-.43,0c-.56.1-2.41.52-2.7,1.79-.36,1.55-.21,8.27-.15,10.48,0,.47,0,.79,0,.91v.15c0,.93-.12,1.84-1.89,2.72A2.57,2.57,0,0,1,64.9,97.52Zm6.26-17.26h.58a3,3,0,0,1,.6,0c.92.16,3.08.73,3.5,2.55.35,1.48.28,6.51.18,10.72,0,.46,0,.77,0,.89v.16c0,.64,0,1.14,1.35,1.82a9.87,9.87,0,0,0,2.81-.13,13.24,13.24,0,0,0,8.65-5.16A19.88,19.88,0,0,0,92.7,75.53c-.27-1.78-.45-3.5-.58-5.26a12.78,12.78,0,0,1,2.26-8.22c5.15-7.34,6.72-11.82,6.72-19.16,0-13.19-8.8-17.89-17-17.89A15.33,15.33,0,0,0,73.9,29.2a3.74,3.74,0,0,1-1.48.82,3.79,3.79,0,0,1-2,0A3.88,3.88,0,0,1,69,29.2,15.31,15.31,0,0,0,58.84,25c-8.24,0-17,4.7-17,17.89,0,7.34,1.57,11.82,6.72,19.16a12.85,12.85,0,0,1,2.26,8.23c-.13,1.76-.32,3.48-.58,5.25a19.89,19.89,0,0,0,3.89,15.63,13.16,13.16,0,0,0,8.63,5.15,9.71,9.71,0,0,0,2.83.14c1.36-.68,1.35-1.18,1.35-1.82v-.16c0-.12,0-.43,0-.89-.1-4.21-.17-9.24.17-10.72.42-1.82,2.59-2.39,3.5-2.55A3.08,3.08,0,0,1,71.16,80.26Z"/><g class="cls-6"><path class="cls-5" d="M58,92.19c-2.75-2.46-8.21-10.6-5.75-18.87,2.25-7.55,8.55-7.56,9.67-7.77-.83.06-4.38-.49-12.62-11.39-6.68-8.83-5-19.09-3.33-24.5-2.78,3-4.49,7.39-4.49,13.16,0,7.45,1.56,12.14,7.41,20.29a8.94,8.94,0,0,1,1.65,5.73,65.82,65.82,0,0,1-.65,6.55,20.34,20.34,0,0,0,4,16,13.72,13.72,0,0,0,9,5.34,8.36,8.36,0,0,0,3.12.09c1.76-.88,1.62-1.69,1.62-2.43,0-.11,0-.42,0-.84C65.08,95.18,60.81,94.69,58,92.19Z"/></g><path class="cls-7" d="M61.93,65.55a.59.59,0,0,0,.2,0Z"/><g class="cls-6"><path class="cls-5" d="M101.79,42.82c0-12.45-7.85-18.39-17.53-18.39a16.18,16.18,0,0,0-11.05,4.84l-1.57.43-1.56-.43a16.2,16.2,0,0,0-11-4.84c-9.69,0-17.54,5.94-17.54,18.39,0,7.45,1.56,12.14,7.41,20.29a8.94,8.94,0,0,1,1.65,5.73,65.82,65.82,0,0,1-.65,6.55,20.34,20.34,0,0,0,4,16,13.72,13.72,0,0,0,9,5.34,8.36,8.36,0,0,0,3.12.09c1.76-.88,1.62-1.69,1.62-2.43s-.3-9.58.14-11.5,3.39-2.21,3.39-2.21h1a5.79,5.79,0,0,1,2.47.9c-.85-1.28-3-1.49-3-1.49h-1s-2.86.28-3.29,2.14-.14,10.44-.14,11.16.14,1.5-1.57,2.36a8.31,8.31,0,0,1-3-.09,13.34,13.34,0,0,1-8.69-5.18A19.74,19.74,0,0,1,50,75c.4-2.73.55-4.83.63-6.36A8.66,8.66,0,0,0,49.05,63c-5.67-7.91-7.18-12.46-7.18-19.68,0-12.09,7.62-17.85,17-17.85A15.72,15.72,0,0,1,69.6,30.2l1.52.42,1.52-.42a15.75,15.75,0,0,1,10.72-4.69c9.4,0,17,5.76,17,17.85,0,7.22-1.51,11.77-7.19,19.68a8.78,8.78,0,0,0-1.61,5.55c.09,1.53.24,3.63.64,6.36a19.74,19.74,0,0,1-3.87,15.54,13.36,13.36,0,0,1-8.7,5.18,8.26,8.26,0,0,1-3,.09,4.85,4.85,0,0,1-.9-.58c.1.52.42,1.07,1.59,1.65a8.31,8.31,0,0,0,3.11-.09,13.74,13.74,0,0,0,9-5.34,20.34,20.34,0,0,0,4-16c-.42-2.82-.57-5-.66-6.55a9,9,0,0,1,1.66-5.73C100.24,55,101.79,50.27,101.79,42.82Z"/></g><path class="cls-8" d="M63.63,46.34c.44,1.37,0,1.37-1,1.68s-2.12.82-2.56-.55,0-2.74,1-3.06S63.18,45,63.63,46.34Z"/><path class="cls-4" d="M80.12,55.29c0,1.87-3.67,5.47-8.18,5.47s-8.18-3.6-8.18-5.47c0-.94,4.09.68,8.18.68S80.12,54.35,80.12,55.29Z"/><path class="cls-9" d="M71.94,61.26c-4.63,0-8.68-3.72-8.68-6a.73.73,0,0,1,.26-.57c.45-.37,1.23-.24,3.12.11a29.24,29.24,0,0,0,5.3.64,29.24,29.24,0,0,0,5.29-.64c1.89-.35,2.67-.48,3.12-.11a.74.74,0,0,1,.27.57C80.62,57.54,76.56,61.26,71.94,61.26ZM64.28,55.5c.27,1.54,3.49,4.76,7.66,4.76S79.32,57,79.6,55.5a11.48,11.48,0,0,0-2.18.31,30,30,0,0,1-5.48.66,30,30,0,0,1-5.49-.66A11.61,11.61,0,0,0,64.28,55.5Z"/><path class="cls-8" d="M83.8,47.35c-.35,1.4-1.44,1-2.43.72s-1.5-.22-1.15-1.62,1.44-2.33,2.43-2.08S84.15,46,83.8,47.35Z"/><path class="cls-8" d="M84.32,39.7s.84,0,3.86,1.83a9.86,9.86,0,0,0-3.53-3C84.64,38.68,84.32,39.7,84.32,39.7Z"/><path class="cls-8" d="M58.91,39.7s-.83,0-3.85,1.83a9.9,9.9,0,0,1,3.52-3C58.59,38.68,58.91,39.7,58.91,39.7Z"/><path class="cls-10" d="M95.45,31.69A11.71,11.71,0,0,0,94,30.14c-.33-.09-1.22.67-6.51,3.16a12.55,12.55,0,0,1,2.94,3.91,18.91,18.91,0,0,1,1,8.19A24,24,0,0,0,98.34,44C98.42,37.48,96.88,33.45,95.45,31.69Z"/><path class="cls-10" d="M90.69,49.26a20.61,20.61,0,0,1-2.84,6.08c-1.72,2.52-2.74,4-3.34,4.83-.12.17-.68.76-.68.76l9.28-2.23A23.63,23.63,0,0,0,98,48.2,23.92,23.92,0,0,1,90.69,49.26Z"/><path class="cls-10" d="M84.14,83.25a9.34,9.34,0,0,1-.65,1.49,30.46,30.46,0,0,1-3.37,5s-.83,2.51,2.09,1.33a16.18,16.18,0,0,0,7.4-7.52l-.91.22A8.22,8.22,0,0,1,84.14,83.25Z"/><path class="cls-10" d="M90.76,79a12.11,12.11,0,0,0-.84-7.07,10.37,10.37,0,0,0-.94-1.4l-5.6,1.4a20.24,20.24,0,0,1,1.31,9l.51.06A8.24,8.24,0,0,0,90.76,79Z"/><path class="cls-4" d="M94.13,65.84a11.56,11.56,0,0,1-2.49-.25,1,1,0,0,1,.47-2h0a9.88,9.88,0,0,0,7.3-1.37c2.41-1.73,3.85-4.82,4.28-9.19a1,1,0,0,1,2,.19c-.49,5-2.21,8.57-5.13,10.64A11.08,11.08,0,0,1,94.13,65.84Z"/><path class="cls-11" d="M49.64,62.74"/><path class="cls-4" d="M48.48,78.63a1,1,0,0,1-.48-.12,1,1,0,0,1-.39-1.36l.52-.94a8,8,0,0,1-5.9-8.55,7.4,7.4,0,0,1,3.26-5.1,8.85,8.85,0,0,1,6.19-1.38,1,1,0,0,1,.85,1.13,1,1,0,0,1-1.13.85,6.81,6.81,0,0,0-4.79,1.06,5.43,5.43,0,0,0-2.4,3.72c-.44,3.14,2.06,6.1,5.58,6.6A1,1,0,0,1,50.52,76l-1.16,2.11A1,1,0,0,1,48.48,78.63Z"/><polygon class="cls-10" points="61.08 22.92 56.35 29.04 61.21 35.06 55.09 30.33 49.08 35.19 53.81 29.07 48.94 23.06 55.06 27.79 61.08 22.92"/><polygon class="cls-10" points="55.13 33.69 54.6 29.55 50.45 29.11 54.59 28.58 55.03 24.43 55.56 28.57 59.71 29 55.57 29.54 55.13 33.69"/><path class="cls-4" d="M61.76,45.42a.57.57,0,1,1-.57-.56A.56.56,0,0,1,61.76,45.42Z"/><path class="cls-4" d="M62.54,45.75a.33.33,0,0,1-.66,0,.33.33,0,0,1,.66,0Z"/><path class="cls-4" d="M82.54,45.42a.58.58,0,0,1-.66.47.55.55,0,0,1-.46-.65.57.57,0,1,1,1.12.18Z"/><path class="cls-4" d="M83.25,45.88A.33.33,0,1,1,83,45.5.33.33,0,0,1,83.25,45.88Z"/></g><g id="Слой_6" data-name="Слой 6"><polygon class="cls-1" points="92.29 83 94.31 80.49 97.41 81.38 93.94 70.41 88.83 72.03 92.29 83"/><polygon class="cls-1" points="85.21 82.51 83.55 79.75 80.36 80.2 85.3 69.82 90.15 72.12 85.21 82.51"/><path class="cls-1" d="M89.27,75.21a7,7,0,0,0,1-14h0l-1,14Z"/><path class="cls-1" d="M82.77,67.74a7,7,0,0,0,6.5,7.47l1-14A7,7,0,0,0,82.77,67.74Z"/><path class="cls-4" d="M96.11,68.67a6.37,6.37,0,1,0-6.79,5.91A6.37,6.37,0,0,0,96.11,68.67Z"/><rect class="cls-1" x="87.59" y="70.43" width="1.55" height="2.31" transform="translate(10.86 154.81) rotate(-86.05)"/><rect class="cls-1" x="89.89" y="70.59" width="1.55" height="2.31" transform="translate(12.85 157.26) rotate(-86.05)"/><path class="cls-1" d="M90.88,63.78l-1.14-.08a2.38,2.38,0,0,1-.83,1,2.33,2.33,0,0,1-1.15.43l-.09,1.29,1.39.09-.41,5.9,1.63.11Z"/><path class="cls-2" d="M100,66.62c-.11-.72-1.64-1.05-1.91-1.72s.61-2,.2-2.56-1.94-.24-2.47-.73-.3-2-.93-2.39-1.84.63-2.54.41-1.14-1.7-1.88-1.75-1.4,1.37-2.1,1.48-1.8-1-2.46-.76-.66,1.83-1.25,2.24-2-.15-2.54.38.2,1.94-.16,2.57-1.92.74-2.13,1.44,1,1.64,1,2.38-1.4,1.52-1.29,2.22,1.65,1.06,1.91,1.72-.6,2-.19,2.57,1.93.23,2.46.72.3,2,.93,2.4,1.84-.63,2.54-.42,1.14,1.7,1.88,1.75,1.4-1.37,2.11-1.48,1.79,1,2.45.77.66-1.84,1.25-2.25,2.06.16,2.55-.38-.21-1.93.16-2.56,1.91-.74,2.12-1.45-1-1.64-1-2.38S100.11,67.32,100,66.62Zm-3.26,2.09a7,7,0,1,1-6.5-7.47A7,7,0,0,1,96.74,68.71Z"/></g></svg>