<svg id="Слой_1" data-name="Слой 1" xmlns="http://www.w3.org/2000/svg" viewBox="0 0 34 34"><defs><style>.cls-1{fill:#fff;}.cls-2{fill:#b04687;}</style></defs><title>Адрес</title><path class="cls-1" d="M31.15,17A14.16,14.16,0,1,1,17,2.85,14.14,14.14,0,0,1,31.15,17Z"/><path class="cls-2" d="M17,34A17,17,0,0,1,10.17,1.43,16.83,16.83,0,0,1,17,0a17,17,0,0,1,0,34ZM17,1A16,16,0,1,0,33,17,15.9,15.9,0,0,0,17,1Z"/><path class="cls-2" d="M17,8a6.35,6.35,0,0,0-6.26,6.44c0,3,4.39,9.2,5.82,11.32a.52.52,0,0,0,.88,0c1.43-2.12,5.82-8.34,5.82-11.32A6.35,6.35,0,0,0,17,8Zm0,9.76a3.44,3.44,0,1,1,3.44-3.44A3.44,3.44,0,0,1,17,17.76Z"/></svg>