<svg id="Слой_1" data-name="Слой 1" xmlns="http://www.w3.org/2000/svg" viewBox="0 0 20 13.44"><defs><style>.cls-1{fill:#139ab0;}</style></defs><title>Глаз</title><path class="cls-1" d="M10,13.44C4.57,13.44.36,7.55.18,7.29a1,1,0,0,1,0-1.15C.36,5.89,4.57,0,10,0s9.64,5.89,9.82,6.14a1,1,0,0,1,0,1.15C19.64,7.55,15.43,13.44,10,13.44ZM2.27,6.72C3.39,8.09,6.5,11.44,10,11.44s6.61-3.35,7.73-4.72C16.61,5.35,13.5,2,10,2S3.39,5.34,2.27,6.72Z"/><path class="cls-1" d="M10,10.53a3.81,3.81,0,1,1,3.81-3.81A3.82,3.82,0,0,1,10,10.53Zm0-5.62a1.81,1.81,0,1,0,1.81,1.81A1.81,1.81,0,0,0,10,4.91Z"/></svg>