<svg id="Layer_1" data-name="Layer 1" xmlns="http://www.w3.org/2000/svg" viewBox="0 0 13.53 15"><defs><style>.cls-1{fill:#0f99b0;}</style></defs><title>Маркер (лапка)</title><path class="cls-1" d="M11.93,13a11,11,0,0,1-.35,1.28,1.17,1.17,0,0,1-.94.71,2.18,2.18,0,0,1-1.78-.37l-.23-.17A4,4,0,0,0,4.24,14a3.8,3.8,0,0,1-2,.59,5,5,0,0,1-.56-.07A1.28,1.28,0,0,1,.6,13a5,5,0,0,1,.17-.86,1.73,1.73,0,0,1,1.64-1.44,1.69,1.69,0,0,0,1.32-.83A16.49,16.49,0,0,1,5.15,8.07a3.5,3.5,0,0,1,1-.72,1.43,1.43,0,0,1,1.54.17A3.91,3.91,0,0,1,8.93,9a3.3,3.3,0,0,0,1.67,1.62,2.3,2.3,0,0,1,1.25,2.37Z"/><path class="cls-1" d="M3,4.12a4.45,4.45,0,0,1,.55-1.73c.36-.68.7-1.37,1-2.06A.47.47,0,0,1,5.24.05a1.55,1.55,0,0,1,.55.38A4.54,4.54,0,0,1,7,4a2.6,2.6,0,0,1-.8,1.54,1.89,1.89,0,0,1-2,.52A1.86,1.86,0,0,1,3,4.12Z"/><path class="cls-1" d="M0,7.86A5.06,5.06,0,0,1,.51,5.78a1.81,1.81,0,0,1,.86-.89c.35-.17.62-.07.72.3A3.11,3.11,0,0,0,2.9,6.48c.14.14.27.28.4.43a1,1,0,0,1,0,1.3,6.18,6.18,0,0,1-1.13,1A1.32,1.32,0,0,1,.06,8.32C0,8.15,0,8,0,7.86Z"/><path class="cls-1" d="M10.76,4.63c0,.78-.19,1.28-.77,1.55A1.69,1.69,0,0,1,8.13,6,1.2,1.2,0,0,1,7.8,4.59a8.88,8.88,0,0,1,.44-.94c.22-.46.43-.92.65-1.39a2.06,2.06,0,0,1,.17-.33.39.39,0,0,1,.63,0,.39.39,0,0,1,.08.1A5.93,5.93,0,0,1,10.76,4.63Z"/><path class="cls-1" d="M13.53,7.57a10.79,10.79,0,0,1-.34,1.27,1.56,1.56,0,0,1-1.86.89,1.53,1.53,0,0,1-1-1.54,1.29,1.29,0,0,1,.34-.87c.27-.3.57-.59.85-.9s.4-.47.58-.72.35-.3.61-.07a2.32,2.32,0,0,1,.72,1.44,3.91,3.91,0,0,1,0,.49Z"/></svg>