<svg id="Слой_1" data-name="Слой 1" xmlns="http://www.w3.org/2000/svg" viewBox="0 0 60 60"><defs><style>.cls-1{fill:#139ab0;}.cls-2{fill:#fff;}</style></defs><title>Плей активный</title><path class="cls-1" d="M55,30A25,25,0,1,1,30,5h0A25,25,0,0,1,55,30Z"/><path class="cls-2" d="M30,60A30,30,0,1,1,60,30,30,30,0,0,1,30,60ZM30,1.76a28.06,28.06,0,1,0,.35,0Z"/><path class="cls-2" d="M21.66,41.41V18.63a1,1,0,0,1,1.06-.94,1,1,0,0,1,.39.11l19,11.39a1,1,0,0,1,.26,1.39,1.07,1.07,0,0,1-.26.26l-19,11.39a1,1,0,0,1-1.34-.44A1,1,0,0,1,21.66,41.41Z"/></svg>