<svg id="Слой_1" data-name="Слой 1" xmlns="http://www.w3.org/2000/svg" viewBox="0 0 13.17 16"><defs><style>.cls-1,.cls-2{fill:#fff;}.cls-2{stroke:#fff;stroke-linecap:round;stroke-miterlimit:10;stroke-width:2px;}</style></defs><title>Стелка мини</title><path class="cls-1" d="M12.93,7.57.76.07a.51.51,0,0,0-.6.06A.5.5,0,0,0,.05.72L3.65,8,.05,15.28a.5.5,0,0,0,.11.59A.5.5,0,0,0,.5,16a.48.48,0,0,0,.26-.07l12.17-7.5A.52.52,0,0,0,13.17,8,.51.51,0,0,0,12.93,7.57Z"/><path class="cls-2" d="M4.94,8"/></svg>