<svg xmlns="http://www.w3.org/2000/svg" viewBox="0 0 99.62 108.64"><defs><style>.cls-1{fill:#fff;}.cls-2{fill:#b04687;}.cls-3{opacity:0.1;}.cls-4{fill:#139ab0;}.cls-5{fill:#d7d9d8;}.cls-6{fill:#e8f5f8;}.cls-7{fill:none;stroke:#e4eaea;stroke-linecap:round;stroke-miterlimit:10;stroke-width:3px;}.cls-8{fill:#13181b;}.cls-9{fill:#1d1d1b;}.cls-10{fill:#eb5032;}.cls-11{fill:#848887;}.cls-12{fill:#a4a4a6;}.cls-13{opacity:0.5;}</style></defs><title>05 Пластика</title><g id="Слой_2" data-name="Слой 2"><path class="cls-1" d="M46,84.41a4.77,4.77,0,0,1,.76.06c1.1.19,4,.91,4.52,3.16.65,2.8.22,15.71.22,16.78s-.22,2.26,2.36,3.55c.78.39,3.14.07,4.55-.13A20,20,0,0,0,71.53,100c4.09-5.29,7.37-12.91,5.82-23.38-.45-3-.69-5.57-.83-7.6a17.83,17.83,0,0,1,3.16-11.53c7.83-11.16,9.94-17.89,9.94-28.39C89.62,11,78.16,2.3,64,2.3c-5.52,0-10.85,2.36-15.31,6.31a4.74,4.74,0,0,1-1.87,1h0a4.67,4.67,0,0,1-2.46,0h0a4.74,4.74,0,0,1-1.87-1C38.06,4.66,32.73,2.3,27.21,2.3,13.08,2.3,1.62,11,1.62,29.14c0,10.5,2.11,17.23,9.94,28.39a17.89,17.89,0,0,1,3.16,11.53c-.14,2-.38,4.56-.83,7.6C12.34,87.13,15.62,94.75,19.71,100a20,20,0,0,0,13.08,7.79c1.41.2,3.77.52,4.55.13,2.58-1.29,2.36-2.47,2.36-3.55s-.43-14,.22-16.78c.52-2.25,3.42-3,4.52-3.16a4.74,4.74,0,0,1,.75-.06Z"/><path class="cls-2" d="M36.08,108.64a26.25,26.25,0,0,1-3.33-.31,20.46,20.46,0,0,1-13.43-8c-5.26-6.8-7.25-14.79-5.93-23.76.38-2.55.65-5,.83-7.57a17.42,17.42,0,0,0-3.07-11.2c-7.69-11-10-17.66-10-28.68C1.12,9,14.6,1.8,27.21,1.8,32.7,1.8,38.1,4,42.85,8.24a4.31,4.31,0,0,0,1.68.93,4,4,0,0,0,2.18,0,4.31,4.31,0,0,0,1.68-.93C53.14,4,58.54,1.8,64,1.8,76.64,1.8,90.12,9,90.12,29.14c0,11-2.34,17.72-10,28.68A17.42,17.42,0,0,0,77,69c.18,2.55.45,5,.83,7.57,1.32,9-.67,17-5.93,23.76a20.47,20.47,0,0,1-13.4,8c-2.09.28-4,.5-4.84.08C51,107.07,51,105.72,51,104.64v-.23c0-.17,0-.63,0-1.31.09-3.57.31-13.06-.22-15.35-.47-2-3.28-2.64-4.13-2.79a3.71,3.71,0,0,0-.67,0h-.85a3.67,3.67,0,0,0-.66,0c-.85.15-3.67.79-4.13,2.79-.53,2.29-.31,11.78-.23,15.35,0,.68,0,1.14,0,1.31v.23c0,1.08,0,2.43-2.64,3.77A3.5,3.5,0,0,1,36.08,108.64Zm9.11-24.73H46a4.64,4.64,0,0,1,.85.07c1.28.22,4.34,1,4.92,3.54s.34,12,.25,15.6c0,.67,0,1.12,0,1.29v.24c0,1,0,1.8,2.09,2.86.63.32,3.06,0,4.22-.17a19.44,19.44,0,0,0,12.78-7.61c5.09-6.57,7-14.31,5.73-23-.38-2.58-.66-5.08-.84-7.65a18.45,18.45,0,0,1,3.25-11.85c7.55-10.76,9.85-17.33,9.85-28.1C89.12,9.72,76.16,2.8,64,2.8c-5.24,0-10.42,2.14-15,6.19A5.3,5.3,0,0,1,47,10.13a5,5,0,0,1-2.72,0A5.23,5.23,0,0,1,42.19,9c-4.56-4-9.74-6.19-15-6.19C15.08,2.8,2.12,9.72,2.12,29.14c0,10.77,2.3,17.34,9.85,28.1a18.46,18.46,0,0,1,3.25,11.85c-.18,2.57-.46,5.07-.84,7.65-1.28,8.68.64,16.42,5.73,23a19.45,19.45,0,0,0,12.75,7.61c1.19.16,3.62.49,4.25.17,2.12-1.06,2.11-1.89,2.09-2.86v-.24c0-.17,0-.62,0-1.29-.09-3.6-.31-13.18.25-15.6S43.07,84.2,44.35,84A4.61,4.61,0,0,1,45.19,83.91Z"/><g class="cls-3"><path class="cls-4" d="M26,101.09c-4-3.58-12-15.47-8.39-27.53,3.28-11,12.49-11,14.12-11.35-1.21.09-6.39-.71-18.42-16.62C3.57,32.7,6.05,17.73,8.44,9.83c-4,4.42-6.54,10.78-6.54,19.22,0,10.87,2.27,17.71,10.81,29.6A13.14,13.14,0,0,1,15.13,67c-.13,2.3-.35,5.45-1,9.56C12.62,87,15.9,94.65,20,99.94a20.12,20.12,0,0,0,13.08,7.8c1.42.19,3.77.51,4.55.12,2.58-1.29,2.36-2.47,2.36-3.54,0-.16,0-.61,0-1.23C36.33,105.46,30.09,104.75,26,101.09Z"/></g><path class="cls-5" d="M31.73,62.21a1.77,1.77,0,0,0,.3-.05Z"/><g class="cls-3"><path class="cls-4" d="M89.91,29.05c0-18.18-11.46-26.84-25.6-26.84-5.85,0-11.5,2.65-16.12,7.05l-2.29.63-2.28-.63c-4.62-4.4-10.27-7-16.12-7-14.14,0-25.6,8.66-25.6,26.84,0,10.87,2.27,17.71,10.81,29.6A13.14,13.14,0,0,1,15.13,67c-.13,2.3-.35,5.45-1,9.56C12.62,87,15.9,94.65,20,99.94a20.12,20.12,0,0,0,13.08,7.8c1.42.19,3.77.51,4.55.12,2.58-1.29,2.36-2.47,2.36-3.54s-.43-14,.22-16.78,4.95-3.23,4.95-3.23h1.51a8.48,8.48,0,0,1,3.6,1.31c-1.24-1.86-4.38-2.18-4.38-2.18H44.41s-4.17.42-4.8,3.13-.21,15.24-.21,16.28.21,2.19-2.29,3.44c-.76.38-3,.07-4.41-.12A19.49,19.49,0,0,1,20,98.61c-4-5.13-7.16-12.52-5.65-22.68.59-4,.8-7,.92-9.27a12.74,12.74,0,0,0-2.34-8.11C4.65,47,2.45,40.37,2.45,29.82c0-17.63,11.12-26,24.84-26,5.67,0,11.16,2.58,15.63,6.84l2.22.62,2.22-.62c4.48-4.26,10-6.84,15.64-6.84,13.72,0,24.84,8.41,24.84,26,0,10.55-2.2,17.18-10.49,28.73A12.74,12.74,0,0,0,75,66.66c.12,2.23.33,5.29.92,9.27,1.5,10.16-1.68,17.55-5.65,22.68a19.49,19.49,0,0,1-12.69,7.56c-1.37.19-3.66.5-4.41.12a6.64,6.64,0,0,1-1.31-.83c.14.75.62,1.55,2.32,2.4.77.39,3.13.07,4.54-.12a20.1,20.1,0,0,0,13.08-7.8c4.09-5.29,7.37-12.9,5.82-23.37-.6-4.11-.82-7.26-.95-9.56a13.14,13.14,0,0,1,2.42-8.36C87.64,46.76,89.91,39.92,89.91,29.05Z"/></g><path class="cls-6" d="M80.65,12.8a16.3,16.3,0,0,0-2.13-2.26c-.46-.13-1.77,1-9.5,4.61a18.1,18.1,0,0,1,4.3,5.7,27.5,27.5,0,0,1,1.41,12,34.71,34.71,0,0,0,10.13-2C85,21.24,82.73,15.37,80.65,12.8Z"/><path class="cls-6" d="M73.7,38.44a30.18,30.18,0,0,1-4.14,8.87c-2.51,3.68-4,5.83-4.88,7.06-.17.24-1,1.1-1,1.1l13.54-3.25A34.46,34.46,0,0,0,84.3,36.89,35.2,35.2,0,0,1,73.7,38.44Z"/><path class="cls-6" d="M64.14,88.05a13.87,13.87,0,0,1-1,2.17,44.94,44.94,0,0,1-4.92,7.31s-1.21,3.66,3,1.94c3.47-1.4,8.4-5.79,10.81-11l-1.33.33A12.1,12.1,0,0,1,64.14,88.05Z"/><path class="cls-6" d="M73.8,81.83c.6-4.7,0-7.45-1.22-10.32a14.82,14.82,0,0,0-1.37-2l-8.18,2S65.75,78,64.94,84.62l.74.09C68.92,85.05,72,83.22,73.8,81.83Z"/><path class="cls-1" d="M76.52,62.39c-.77,0-1.22,0-1.24,0a1.49,1.49,0,0,1-1.34-1.65,1.51,1.51,0,0,1,1.64-1.33h0c.61.06,15,1.31,21.15-13.77a1.5,1.5,0,0,1,2.78,1.13A24.32,24.32,0,0,1,76.52,62.39Z"/><path class="cls-7" d="M13.79,58.11"/><polygon class="cls-6" points="30.48 0 23.58 8.93 30.68 17.71 21.75 10.81 12.97 17.91 19.87 8.97 12.77 0.2 21.71 7.1 30.48 0"/><polygon class="cls-6" points="21.8 15.71 21.03 9.67 14.97 9.03 21.01 8.25 21.65 2.2 22.43 8.24 28.48 8.88 22.44 9.65 21.8 15.71"/><path class="cls-1" d="M11.33,65.66A11.25,11.25,0,0,1,1.15,59.74c-2.55-5-.72-11.14,4-14.62l-1.12-1a1.5,1.5,0,0,1,2-2.23l2.61,2.35a1.51,1.51,0,0,1,.49,1.31,1.54,1.54,0,0,1-.8,1.14c-4.6,2.36-6.63,7.6-4.54,11.7s7.55,5.5,12.15,3.15a1.5,1.5,0,0,1,1.36,2.67A13.2,13.2,0,0,1,11.33,65.66Z"/><path class="cls-8" d="M62.31,24.51s1.22-.07,5.62,2.67a14.22,14.22,0,0,0-5.14-4.43C62.77,23,62.31,24.51,62.31,24.51Z"/><path class="cls-8" d="M27.53,24.81s-1.23-.07-5.63,2.67A14.22,14.22,0,0,1,27,23.05C27.06,23.32,27.53,24.81,27.53,24.81Z"/><path class="cls-9" d="M34.72,35.89a2.94,2.94,0,1,1-2.94-3A3,3,0,0,1,34.72,35.89Z"/><path class="cls-1" d="M31.27,34.53a.77.77,0,1,1-.76-.77A.77.77,0,0,1,31.27,34.53Z"/><path class="cls-1" d="M32.33,35a.45.45,0,1,1-.44-.45A.44.44,0,0,1,32.33,35Z"/><path class="cls-9" d="M61.72,35.89a2.94,2.94,0,1,1-2.94-3A3,3,0,0,1,61.72,35.89Z"/><path class="cls-1" d="M58.27,34.53a.77.77,0,1,1-.76-.77A.77.77,0,0,1,58.27,34.53Z"/><path class="cls-1" d="M59.33,35a.45.45,0,1,1-.44-.45A.44.44,0,0,1,59.33,35Z"/><path class="cls-10" d="M45.79,53.83c-3.3,0-6.36-1.27-7.9-3.36l.8-.59c1.56,2.1,5.07,3.28,8.54,2.86,3.31-.4,6.37-2.21,7.62-4.52l.88.48c-1.42,2.62-4.71,4.59-8.38,5A11.67,11.67,0,0,1,45.79,53.83Z"/><path class="cls-10" d="M55.43,50.38c-.06-.7-.47-2.57-1.65-2.86l.24-1c2.12.52,2.39,3.62,2.4,3.75Z"/></g><g id="Слой_4" data-name="Слой 4"><path class="cls-11" d="M97.08,37.7A5.05,5.05,0,0,0,97,37h0a.19.19,0,0,1,0-.07,5.24,5.24,0,0,0-.38-1.33c-.63-2.35-1.59-6.46-2-9.08a74.47,74.47,0,0,0-.18-23h0c-3.22,0-5.84,3.64-5.84,10.29,0,4.5,1.2,9.21,3,11.79,0,3.24-.41,6.61-1.46,8.87A5.05,5.05,0,0,0,89,37.7V59.37c0,1.16.75,10.9.75,11.76S89,83.43,89,83.43c0,2.59,1.81,4.69,4,4.69s4-2.1,4-4.68c0,0-.75-11.34-.75-12.09s.75-10.66.75-11.87Z"/><path class="cls-12" d="M97.08,83.44c0,2.58-1.81,4.68-4,4.68h0c-2.23,0-4-2.1-4-4.69,0,0,.75-11.56.75-12.3S89,60.53,89,59.37V37.7c0-2.58,1.81-4.68,4-4.68h0c2.22,0,4,2.1,4,4.68V59.48c0,1.21-.75,11-.75,11.87S97.08,83.44,97.08,83.44Z"/><path class="cls-12" d="M93.12,19.88c.75,0,1.39,2.33,1.68,5.68a74.9,74.9,0,0,0-.32-22h0c-3.22,0-5.84,3.64-5.84,10.29,0,4.37,1.14,8.94,2.83,11.57C91.75,22.12,92.38,19.88,93.12,19.88Z"/><g class="cls-13"><path class="cls-1" d="M96,84.2a1.16,1.16,0,0,1-1.15,1.15H95A1.15,1.15,0,0,1,93.8,84.2V37.91A1.15,1.15,0,0,1,95,36.77h-.12A1.15,1.15,0,0,1,96,37.91V59.66l-.87,11.47Z"/></g><polygon class="cls-1" points="91.07 10.78 92.35 7.17 89.13 5.09 92.74 6.37 94.82 3.14 93.54 6.76 96.76 8.84 93.15 7.56 91.07 10.78"/></g></svg>