<svg xmlns="http://www.w3.org/2000/svg" viewBox="0 0 96.36 109.75"><defs><style>.cls-1{fill:#fff;}.cls-2{opacity:0.1;}.cls-3{fill:#139ab0;}.cls-4{fill:#e8f5f8;}.cls-5{fill:#b04687;}.cls-6{fill:#d7d9d8;}.cls-7{fill:#13181b;}.cls-8{fill:none;stroke:#e4eaea;stroke-linecap:round;stroke-miterlimit:10;stroke-width:3px;}.cls-9{fill:#848887;}.cls-10{fill:#5a595d;}.cls-11{fill:#a4a4a6;}.cls-12{fill:#eb5032;}.cls-13{opacity:0.6;}</style></defs><title>06 Исправление прикуса</title><g id="Слой_2" data-name="Слой 2"><path class="cls-1" d="M43.93,84.41s-.36,0-.61.06c-1.1.19-4,.91-4.52,3.16-.64,2.8-.21,15.71-.21,16.78s.21,2.26-2.37,3.55c-.77.39-3.13.07-4.55-.13A20,20,0,0,1,18.6,100c-4.09-5.29-7.37-12.91-5.83-23.38.45-3,.69-5.57.84-7.6a17.9,17.9,0,0,0-3.17-11.53C2.62,46.37.5,39.64.5,29.14.5,11,12,2.3,26.1,2.3,31.61,2.3,37,4.66,41.41,8.61a4.67,4.67,0,0,0,1.87,1h0a4.63,4.63,0,0,0,2.45,0h0a4.67,4.67,0,0,0,1.87-1C52.06,4.66,57.4,2.3,62.91,2.3c14.14,0,25.6,8.67,25.6,26.84,0,10.5-2.12,17.23-9.94,28.39A17.84,17.84,0,0,0,75.4,69.06c.15,2,.38,4.56.84,7.6,0,0,3.55,23.67,9,27.17S71,111.22,64.3,108,53,92.86,52,88.05s-5.34-3.68-6.35-3.68C45.2,84.37,44.18,84.41,43.93,84.41Z"/><g class="cls-2"><path class="cls-3" d="M24.7,100.45c-4-3.58-12-15.47-8.38-27.53,3.28-11,12.48-11,14.11-11.35C29.22,61.66,24,60.86,12,45,2.27,32.06,4.75,17.09,7.15,9.19,3.09,13.62.6,20,.6,28.41.6,39.28,2.87,46.12,11.41,58a13.14,13.14,0,0,1,2.42,8.36c-.13,2.3-.35,5.45-1,9.56C11.33,86.4,14.61,94,18.7,99.31a20.12,20.12,0,0,0,13.07,7.79c1.42.19,3.78.51,4.55.13,2.58-1.29,2.37-2.48,2.37-3.55,0-.16,0-.61,0-1.22C35,104.82,28.79,104.11,24.7,100.45Z"/></g><g class="cls-2"><path class="cls-3" d="M75.38,67.74a13.14,13.14,0,0,1,2.42-8.36c8.54-11.89,10.81-18.73,10.81-29.6C88.61,11.6,77.15,2.94,63,2.94c-5.85,0-11.5,2.65-16.12,7.05l-2.29.63L42.32,10c-4.62-4.4-10.27-7-16.12-7C12.06,2.94.6,11.6.6,29.78c0,10.87,2.27,17.71,10.81,29.6a13.14,13.14,0,0,1,2.42,8.36c-.13,2.3-.35,5.45-1,9.56-1.54,10.47,1.74,18.08,5.83,23.37a20.1,20.1,0,0,0,13.07,7.8c1.42.19,3.78.51,4.55.12,2.58-1.29,2.37-2.47,2.37-3.54s-.43-14,.21-16.78,5-3.23,5-3.23h1.51A8.44,8.44,0,0,1,49,86.35c-1.24-1.86-4.38-2.18-4.38-2.18H43.11s-4.17.42-4.8,3.13-.21,15.24-.21,16.28.21,2.19-2.29,3.44c-.75.38-3,.07-4.41-.12a19.45,19.45,0,0,1-12.69-7.56c-4-5.13-7.15-12.52-5.65-22.68.59-4,.8-7,.92-9.27a12.74,12.74,0,0,0-2.34-8.11C3.35,47.73,1.15,41.1,1.15,30.55c0-17.63,11.12-26,24.84-26,5.67,0,11.16,2.58,15.64,6.84l2.22.62,2.22-.62c4.47-4.26,10-6.84,15.64-6.84,13.71,0,24.83,8.41,24.83,26,0,10.55-2.2,17.18-10.48,28.73a12.69,12.69,0,0,0-2.35,8.11"/></g><path class="cls-4" d="M72.41,39.17A30.22,30.22,0,0,1,68.26,48c-2.51,3.68-4,5.83-4.88,7.06-.17.24-1,1.1-1,1.1L75.94,53A34.46,34.46,0,0,0,83,37.63,35.6,35.6,0,0,1,72.41,39.17Z"/><path class="cls-4" d="M74.25,88.13A13.47,13.47,0,0,0,75,90.39a44.75,44.75,0,0,0,4.1,7.81s.8,3.76-3.25,1.59c-3.3-1.77-7.72-6.66-9.55-12.08.39.16.82.31,1.28.47A12,12,0,0,0,74.25,88.13Z"/><path class="cls-4" d="M64.82,84.72c-2.17-4.21-2.59-7-2.4-10.12A15.09,15.09,0,0,1,63,72.22l8.38-.9s-.3,7.07,2.72,13c-.22.12-.43.23-.67.34C70.51,86.06,67,85.4,64.82,84.72Z"/><path class="cls-5" d="M71.61,109.75a18.81,18.81,0,0,1-7.53-1.25C57,105.12,52.4,92.39,51.54,88.14c-.75-3.77-3.7-3.47-5.28-3.31l-.58,0-1.11,0-.63,0c-.06,0-.33,0-.53,0-.85.15-3.66.79-4.12,2.79C38.76,90,39,99.53,39.06,103.1c0,.67,0,1.14,0,1.31v.23c0,1.08,0,2.43-2.65,3.77-.84.41-2.75.2-4.8-.08a20.46,20.46,0,0,1-13.44-8C13,93.55,11,85.56,12.28,76.59c.38-2.55.65-5,.83-7.57A17.37,17.37,0,0,0,10,57.82C2.34,46.85,0,40.16,0,29.14,0,9,13.48,1.8,26.1,1.8,31.58,1.8,37,4,41.74,8.24a4.27,4.27,0,0,0,1.67.93,4.07,4.07,0,0,0,2.19,0,4.27,4.27,0,0,0,1.67-.93C52,4,57.43,1.8,62.91,1.8,75.53,1.8,89,9,89,29.14c0,11-2.35,17.72-10,28.68A17.44,17.44,0,0,0,75.9,69c.18,2.55.45,5,.83,7.57,0,.23,3.59,23.48,8.81,26.81,1.49.95,1.26,1.93,1,2.42C85.33,108,78,109.75,71.61,109.75Zm-24.17-26A4.73,4.73,0,0,1,52.53,88c.82,4.12,5.2,16.43,12,19.64,5.63,2.67,19.76.23,21.14-2.25.07-.14.28-.51-.64-1.09-5.61-3.58-9.12-26.54-9.27-27.51-.38-2.58-.65-5.08-.84-7.65a18.47,18.47,0,0,1,3.26-11.85C85.71,46.48,88,39.92,88,29.14,88,9.72,75,2.8,62.91,2.8c-5.23,0-10.41,2.14-15,6.19a5.11,5.11,0,0,1-2.07,1.14,5,5,0,0,1-2.72,0A5.24,5.24,0,0,1,41.07,9c-4.56-4-9.74-6.19-15-6.19C14,2.8,1,9.72,1,29.14c0,10.77,2.3,17.34,9.85,28.1A18.39,18.39,0,0,1,14.1,69.09c-.18,2.57-.45,5.07-.83,7.65-1.29,8.68.64,16.42,5.72,23a19.45,19.45,0,0,0,12.75,7.61c1.2.16,3.62.49,4.26.17,2.11-1.06,2.1-1.89,2.09-2.86v-.24c0-.17,0-.62,0-1.29-.08-3.6-.3-13.18.25-15.6S42,84.2,43.24,84a6.25,6.25,0,0,1,.66-.07h0l.61,0,1.14,0c.12,0,.28,0,.48,0S46.93,83.76,47.44,83.76Z"/><g class="cls-2"><path class="cls-3" d="M64.12,101.09"/></g><path class="cls-6" d="M58.39,62.21a1.5,1.5,0,0,1-.29-.05A2.2,2.2,0,0,1,58.39,62.21Z"/><path class="cls-7" d="M29.72,24.49s-1.23-.06-5.63,2.67a14.22,14.22,0,0,1,5.14-4.43C29.25,23,29.72,24.49,29.72,24.49Z"/><path class="cls-7" d="M66.8,24.49s1.22-.06,5.62,2.67a14.22,14.22,0,0,0-5.14-4.43C67.26,23,66.8,24.49,66.8,24.49Z"/><path class="cls-8" d="M76.34,58.11"/><polygon class="cls-4" points="11.64 0 18.54 8.93 11.44 17.71 20.38 10.81 29.15 17.91 22.25 8.97 29.35 0.2 20.42 7.1 11.64 0"/><polygon class="cls-4" points="20.32 15.71 21.1 9.67 27.15 9.03 21.11 8.25 20.47 2.2 19.7 8.24 13.64 8.88 19.68 9.65 20.32 15.71"/><path class="cls-1" d="M58.64,32.84a.83.83,0,1,0,.83-.83A.83.83,0,0,0,58.64,32.84Z"/><path class="cls-1" d="M57.5,33.32a.48.48,0,0,0,.48.48.47.47,0,0,0,.48-.48.48.48,0,0,0-.48-.48A.49.49,0,0,0,57.5,33.32Z"/><rect class="cls-9" x="39.91" y="58.18" width="17.75" height="17.75" rx="4.36" transform="translate(97.57 134.11) rotate(-180)"/><path class="cls-10" d="M54.31,73.93h-9a4.36,4.36,0,0,1-4.36-4.36v-9a4,4,0,0,1,.09-.85,4.29,4.29,0,0,0-1.09,2.85v9a4.36,4.36,0,0,0,4.36,4.36h9a4.36,4.36,0,0,0,4.27-3.51A4.32,4.32,0,0,1,54.31,73.93Z"/><path class="cls-11" d="M74,72.24l-.33-.14c-19.4-8.21-39.07-8.22-58.48,0l-.33.14-1-.08.22-2.77,0,0h0l0-.16.3,0a76.5,76.5,0,0,1,60.14.06l.39,0,.2,3Z"/><path class="cls-4" d="M79.74,13.86a16.92,16.92,0,0,0-2.13-2.26c-.47-.13-1.77,1-9.5,4.61a18,18,0,0,1,4.29,5.7,27.33,27.33,0,0,1,1.42,12,34.84,34.84,0,0,0,10.13-2C84.07,22.31,81.82,16.43,79.74,13.86Z"/><path class="cls-1" d="M11.32,81.35a1.47,1.47,0,0,1-.73-.19,1.5,1.5,0,0,1-.58-2l.73-1.32a12.65,12.65,0,0,1-6.08-4,10.7,10.7,0,0,1,2.27-16,12.92,12.92,0,0,1,9.07-2,1.5,1.5,0,0,1-.42,3,9.91,9.91,0,0,0-7,1.53A7.71,7.71,0,0,0,7,71.88a9.93,9.93,0,0,0,6.26,3.41,1.5,1.5,0,0,1,1.1,2.21l-1.7,3.07A1.49,1.49,0,0,1,11.32,81.35Z"/><path class="cls-1" d="M82.48,65.31c-.43,0-.88,0-1.33,0-7.28-.52-7.57-.54-11.22-2.63A1.5,1.5,0,1,1,71.41,60c3.07,1.74,3.07,1.74,10,2.24A16.23,16.23,0,0,0,92,59.1l1.42-3.85a1.5,1.5,0,1,1,2.81,1l-1.56,4.25a1.38,1.38,0,0,1-.41.6A18.94,18.94,0,0,1,82.48,65.31Z"/><path class="cls-12" d="M55,50.61s-.21-2.14-1.38-2.43l.24-1c1.89.47,2.13,3.2,2.14,3.32Z"/><path class="cls-10" d="M74,71.24l-.33-.14c-19.4-8.21-39.07-8.22-58.48,0l-.33.14-1-.07-.08,1,1,.08.33-.14c19.41-8.17,39.08-8.16,58.48,0l.33.14,1.1-.08-.06-1Z"/><rect class="cls-11" x="43.94" y="61.33" width="10.39" height="6.02" rx="1.26" transform="translate(98.27 128.68) rotate(-180)"/><path class="cls-10" d="M46.21,66.35a1.27,1.27,0,0,1-1.27-1.27V61.59a.8.8,0,0,1,.05-.21,1.24,1.24,0,0,0-1.05,1.21v3.49a1.27,1.27,0,0,0,1.27,1.27h7.86a1.25,1.25,0,0,0,1.22-1,.79.79,0,0,1-.22,0Z"/><path class="cls-12" d="M48.33,52.56a10.92,10.92,0,0,1-5.13-1.15l.48-.87a10,10,0,0,0,4.65,1c3.62,0,6.05-1.42,6.05-2.76h1C55.38,50.91,52.28,52.56,48.33,52.56Z"/><path class="cls-7" d="M31.67,44.66l4.91.24a6.77,6.77,0,0,0,7.09-6.43v-2A5.59,5.59,0,0,0,41.51,33a9.5,9.5,0,0,0-4-1l-15.48-.6a1,1,0,0,0-1.11,1l0,.42A11.31,11.31,0,0,0,31.67,44.66Z"/><path class="cls-7" d="M63.92,44.66,59,44.9a6.77,6.77,0,0,1-7.09-6.43v-2A5.68,5.68,0,0,1,54.08,33a9.53,9.53,0,0,1,4-1l15.48-.6a1,1,0,0,1,1.11,1l0,.42A11.3,11.3,0,0,1,63.92,44.66Z"/><path class="cls-7" d="M43,39.42l-1.41-.06,0-1.39.66.65-.59-.71c3.23-2.75,8.66-4.38,13.36,0L53.63,39.4C48.81,34.87,43.89,38.62,43,39.42Zm-.67-.75.72.7Z"/><polygon class="cls-1" points="27.48 37.53 26.46 34.67 29.01 33.03 26.15 34.04 24.51 31.49 25.52 34.35 22.97 35.99 25.83 34.98 27.48 37.53"/><polygon class="cls-1" points="53.18 67.37 54.44 63.27 58.71 63.55 54.62 62.29 54.89 58.01 53.63 62.11 49.35 61.84 53.45 63.09 53.18 67.37"/><g class="cls-13"><rect class="cls-1" x="67.06" y="29.38" width="2.09" height="17.58" transform="translate(25.51 -27.26) rotate(27.67)"/></g><g class="cls-13"><rect class="cls-1" x="65.15" y="29.01" width="0.52" height="17.58" transform="translate(25.03 -26.05) rotate(27.67)"/></g><g class="cls-13"><rect class="cls-1" x="35.06" y="29.38" width="2.09" height="17.58" transform="translate(21.85 -12.4) rotate(27.67)"/></g><g class="cls-13"><rect class="cls-1" x="33.15" y="29.01" width="0.52" height="17.58" transform="translate(21.38 -11.19) rotate(27.67)"/></g></g></svg>