<svg xmlns="http://www.w3.org/2000/svg" viewBox="0 0 129.23 108.64"><defs><style>.cls-1{fill:#eb5032;}.cls-2{fill:#fff;}.cls-3{fill:#82291d;}.cls-4{fill:#b04687;}.cls-5{opacity:0.1;}.cls-6{fill:#139ab0;}.cls-7{fill:#d7d9d8;}.cls-8{fill:#13181b;}.cls-9{fill:#e8f5f8;}.cls-10{fill:none;stroke:#e4eaea;stroke-linecap:round;stroke-miterlimit:10;stroke-width:3px;}.cls-11{fill:#1d1d1b;}.cls-12{fill:#a4a4a6;}.cls-13{opacity:0.6;}.cls-14{fill:#848887;}</style></defs><title>07 Лечение детям</title><g id="Слой_2" data-name="Слой 2"><path class="cls-1" d="M31.72,44.35s-2.85,6.41-8.21,22.56S.49,79.09.49,79.09s-2.78,7.67,10,12.73,12.31-.88,14.14,3.38,9.17,8.07,15.3,8.39c0,0,5,.67,11.42-3.91s15-1.25,16.16.42S71.41,103.82,78,103s8.89-4.42,9.29-5.17S100.22,76,85,56,45.15,25.87,38.1,30.33,34.49,38.58,31.72,44.35Z"/><path class="cls-2" d="M40.71,103.87a5.57,5.57,0,0,1-.8,0c-6.43-.33-13.68-4.32-15.5-8.53-.71-1.67-.92-1.62-2.08-1.37-1.62.35-4.64,1-11.93-1.88C-2.46,87,.22,79.08.25,79l.08-.21.21,0c.17,0,17.51,3.73,22.74-12,5.3-16,8.18-22.52,8.21-22.58h0a15.23,15.23,0,0,0,1.35-5.59c.29-3,.55-5.64,5.12-8.53,7.21-4.56,31.76,5.37,47.24,25.74,14.17,18.65,4.48,38.25,2.4,42l-.06.11c-.39.74-2.68,4.47-9.48,5.3s-9.52-1.19-10.75-3c-.51-.75-2.73-1.87-5.43-2.36a13.74,13.74,0,0,0-10.38,2C46.49,103.45,42.38,103.87,40.71,103.87ZM23.17,93.3c.68,0,1.1.39,1.7,1.8,1.75,4.06,8.8,7.91,15.08,8.24.07,0,5,.59,11.26-3.86A14.28,14.28,0,0,1,62,97.39c3,.54,5.18,1.73,5.75,2.57,1,1.4,3.54,3.62,10.28,2.8,6.55-.8,8.73-4.33,9.09-5l.07-.11c2.06-3.7,11.62-23-2.36-41.44-15-19.82-39.67-30-46.57-25.63-4.37,2.76-4.61,5.26-4.9,8.16A15.81,15.81,0,0,1,32,44.45c-.09.19-3,6.74-8.2,22.54-5,15.17-21,12.77-23.09,12.39-.34,1.25-1.46,7.7,9.93,12.21,7.14,2.82,10.06,2.19,11.63,1.85A4.74,4.74,0,0,1,23.17,93.3Z"/><path class="cls-3" d="M85,56C69.79,36,45.15,25.87,38.1,30.33s-3.61,8.25-6.38,14c0,0-.91,2.38-2.86,7.62,1.06,1.78,2.18,3.55,3.6,5.56a17.89,17.89,0,0,1,3.16,11.53c-.15,2-.38,4.56-.83,7.6C33.24,87.13,36.52,94.75,40.61,100a19.66,19.66,0,0,0,3,3,20.69,20.69,0,0,0,7.78-3.37,13.42,13.42,0,0,1,9.11-2.24,67,67,0,0,1,.34-9.81c.53-2.25,3.43-3,4.53-3.16a4.74,4.74,0,0,1,.75-.06h.85a4.77,4.77,0,0,1,.76.06c1.1.19,4,.91,4.52,3.16s.33,11.32.25,15A17.07,17.07,0,0,0,78,103c6.62-.81,8.89-4.42,9.29-5.17S100.22,76,85,56Z"/><path class="cls-2" d="M70.94,84.41a4.77,4.77,0,0,1,.76.06c1.1.19,4,.91,4.52,3.16.65,2.8.22,15.71.22,16.78s-.22,2.26,2.36,3.55c.78.39,3.13.07,4.55-.13A20.07,20.07,0,0,0,96.43,100c4.09-5.29,7.37-12.91,5.82-23.38-.45-3-.69-5.57-.83-7.6a17.83,17.83,0,0,1,3.16-11.53c7.82-11.16,9.94-17.89,9.94-28.39C114.52,11,103.06,2.3,88.92,2.3c-5.51,0-10.84,2.36-15.3,6.31a4.78,4.78,0,0,1-1.88,1h0a4.63,4.63,0,0,1-2.45,0h0a4.67,4.67,0,0,1-1.87-1C63,4.66,57.62,2.3,52.11,2.3,38,2.3,26.51,11,26.51,29.14c0,10.5,2.12,17.23,10,28.39a17.89,17.89,0,0,1,3.16,11.53c-.15,2-.38,4.56-.83,7.6C37.24,87.13,40.52,94.75,44.61,100a20,20,0,0,0,13.08,7.79c1.41.2,3.77.52,4.54.13,2.58-1.29,2.37-2.47,2.37-3.55s-.43-14,.21-16.78c.53-2.25,3.43-3,4.53-3.16a4.74,4.74,0,0,1,.75-.06Z"/><path class="cls-4" d="M61,108.64a26.09,26.09,0,0,1-3.33-.31,20.5,20.5,0,0,1-13.44-8C39,93.55,37,85.56,38.29,76.59c.38-2.55.65-5,.83-7.57a17.42,17.42,0,0,0-3.07-11.2c-7.69-11-10-17.66-10-28.68C26,9,39.5,1.8,52.11,1.8,57.59,1.8,63,4,67.75,8.24a4.27,4.27,0,0,0,1.67.93,4.07,4.07,0,0,0,2.19,0,4.27,4.27,0,0,0,1.67-.93C78,4,83.44,1.8,88.92,1.8,101.54,1.8,115,9,115,29.14c0,11-2.34,17.72-10,28.68A17.31,17.31,0,0,0,101.92,69c.18,2.55.45,5,.82,7.57,1.33,9-.66,17-5.92,23.76a20.47,20.47,0,0,1-13.4,8c-2.09.28-4,.5-4.84.08-2.68-1.34-2.66-2.69-2.65-3.77v-.23c0-.17,0-.63,0-1.31.08-3.57.3-13.06-.23-15.35-.46-2-3.27-2.64-4.12-2.79a3.71,3.71,0,0,0-.67,0h-.85a3.85,3.85,0,0,0-.67,0c-.85.15-3.66.79-4.12,2.79C64.77,90,65,99.53,65.07,103.1c0,.68,0,1.14,0,1.31v.23c0,1.08,0,2.43-2.64,3.77A3.53,3.53,0,0,1,61,108.64Zm9.11-24.73h.85a4.46,4.46,0,0,1,.84.07c1.29.22,4.35,1,4.93,3.54s.33,12,.25,15.6c0,.67,0,1.12,0,1.29v.24c0,1,0,1.8,2.1,2.86.63.32,3.06,0,4.22-.17A19.44,19.44,0,0,0,96,99.73c5.08-6.57,7-14.31,5.72-23-.38-2.58-.65-5.08-.83-7.65a18.39,18.39,0,0,1,3.25-11.85c7.55-10.76,9.85-17.33,9.85-28.1,0-19.42-13-26.34-25.1-26.34C83.69,2.8,78.51,4.94,74,9a5.3,5.3,0,0,1-2.07,1.14,5,5,0,0,1-2.72,0A5.23,5.23,0,0,1,67.09,9c-4.57-4-9.74-6.19-15-6.19C40,2.8,27,9.72,27,29.14c0,10.77,2.31,17.34,9.86,28.1a18.46,18.46,0,0,1,3.25,11.85c-.18,2.57-.46,5.07-.84,7.65-1.28,8.68.64,16.42,5.72,23a19.49,19.49,0,0,0,12.75,7.61c1.2.16,3.63.49,4.26.17,2.12-1.06,2.11-1.89,2.09-2.86v-.24c0-.17,0-.62,0-1.29-.08-3.6-.3-13.18.26-15.6S68,84.2,69.25,84A4.53,4.53,0,0,1,70.09,83.91Z"/><g class="cls-5"><path class="cls-6" d="M50.9,101.09c-4-3.58-12-15.47-8.39-27.53,3.28-11,12.49-11,14.12-11.35-1.22.09-6.4-.71-18.42-16.62C28.47,32.7,30.94,17.73,33.34,9.83c-4.05,4.42-6.54,10.78-6.54,19.22,0,10.87,2.27,17.71,10.81,29.6A13.13,13.13,0,0,1,40,67c-.12,2.3-.34,5.45-1,9.56C37.52,87,40.8,94.65,44.89,99.94A20.1,20.1,0,0,0,58,107.74c1.42.19,3.77.51,4.55.12,2.58-1.29,2.36-2.47,2.36-3.54,0-.16,0-.61,0-1.23C61.23,105.46,55,104.75,50.9,101.09Z"/></g><path class="cls-7" d="M56.63,62.21a1.5,1.5,0,0,0,.29-.05A2.2,2.2,0,0,0,56.63,62.21Z"/><g class="cls-5"><path class="cls-6" d="M114.81,29.05c0-18.18-11.47-26.84-25.6-26.84-5.85,0-11.51,2.65-16.12,7.05l-2.29.63-2.29-.63c-4.61-4.4-10.26-7-16.12-7-14.13,0-25.59,8.66-25.59,26.84,0,10.87,2.27,17.71,10.81,29.6A13.13,13.13,0,0,1,40,67c-.12,2.3-.34,5.45-1,9.56C37.52,87,40.8,94.65,44.89,99.94A20.1,20.1,0,0,0,58,107.74c1.42.19,3.77.51,4.55.12,2.58-1.29,2.36-2.47,2.36-3.54s-.43-14,.22-16.78,5-3.23,5-3.23h1.51a8.48,8.48,0,0,1,3.6,1.31c-1.24-1.86-4.38-2.18-4.38-2.18H69.31s-4.18.42-4.8,3.13-.21,15.24-.21,16.28.21,2.19-2.3,3.44c-.75.38-3,.07-4.41-.12A19.54,19.54,0,0,1,44.9,98.61c-4-5.13-7.15-12.52-5.64-22.68.58-4,.8-7,.92-9.27a12.69,12.69,0,0,0-2.35-8.11C29.55,47,27.35,40.37,27.35,29.82c0-17.63,11.12-26,24.83-26,5.68,0,11.16,2.58,15.64,6.84l2.22.62,2.22-.62c4.48-4.26,10-6.84,15.64-6.84,13.72,0,24.84,8.41,24.84,26,0,10.55-2.21,17.18-10.49,28.73a12.69,12.69,0,0,0-2.35,8.11c.13,2.23.34,5.29.93,9.27,1.5,10.16-1.68,17.55-5.65,22.68a19.51,19.51,0,0,1-12.69,7.56c-1.37.19-3.66.5-4.41.12a6.35,6.35,0,0,1-1.31-.83c.14.75.62,1.55,2.32,2.4.77.39,3.13.07,4.54-.12a20.1,20.1,0,0,0,13.08-7.8c4.09-5.29,7.37-12.9,5.82-23.37-.61-4.11-.82-7.26-1-9.56A13.08,13.08,0,0,1,104,58.65C112.53,46.76,114.81,39.92,114.81,29.05Z"/></g><path class="cls-8" d="M63,23.82s-.62,1.06-5.33,3.22a14.14,14.14,0,0,0,6.53-1.85A18.2,18.2,0,0,1,63,23.82Z"/><path class="cls-8" d="M88,24.42s1.21-.17,5.84,2.16a14.3,14.3,0,0,0-5.51-4C88.3,22.9,88,24.42,88,24.42Z"/><path class="cls-9" d="M105.55,12.8a16.3,16.3,0,0,0-2.13-2.26c-.47-.13-1.77,1-9.5,4.61a18,18,0,0,1,4.29,5.7,27.3,27.3,0,0,1,1.42,12,34.84,34.84,0,0,0,10.13-2C109.88,21.24,107.63,15.37,105.55,12.8Z"/><path class="cls-9" d="M98.6,38.44a30.18,30.18,0,0,1-4.14,8.87c-2.51,3.68-4,5.83-4.88,7.06-.17.24-1,1.1-1,1.1l13.54-3.25a34.46,34.46,0,0,0,7.07-15.33A35.2,35.2,0,0,1,98.6,38.44Z"/><path class="cls-9" d="M89,88.05a13,13,0,0,1-1,2.17,44.6,44.6,0,0,1-4.91,7.31s-1.21,3.66,3,1.94c3.47-1.4,8.4-5.79,10.8-11l-1.33.33A12.07,12.07,0,0,1,89,88.05Z"/><path class="cls-9" d="M98.7,81.83c.59-4.7,0-7.45-1.22-10.32a15.81,15.81,0,0,0-1.37-2l-8.18,2S90.65,78,89.84,84.62l.74.09C93.82,85.05,96.89,83.22,98.7,81.83Z"/><path class="cls-2" d="M101.5,62.39a11.38,11.38,0,0,1-1.31,0,1.5,1.5,0,1,1,.28-3h0c.67.06,16.19,1.33,22.36-13.77a1.5,1.5,0,0,1,2.78,1.13C119.69,61.21,105.83,62.39,101.5,62.39Z"/><path class="cls-10" d="M38.69,58.11"/><path class="cls-2" d="M37,81.35a1.47,1.47,0,0,1-.73-.19,1.5,1.5,0,0,1-.58-2l.73-1.32a12.67,12.67,0,0,1-6.07-4,10.81,10.81,0,0,1-2.51-8.51c.88-6.19,7.08-10.45,13.84-9.49a1.5,1.5,0,0,1-.42,3c-5.12-.73-9.8,2.39-10.45,6.94a7.88,7.88,0,0,0,1.84,6.17,9.93,9.93,0,0,0,6.26,3.41A1.5,1.5,0,0,1,40,77.5l-1.7,3.07A1.48,1.48,0,0,1,37,81.35Z"/><polygon class="cls-9" points="55.38 0 48.48 8.93 55.58 17.71 46.65 10.81 37.87 17.91 44.77 8.97 37.67 0.2 46.6 7.1 55.38 0"/><polygon class="cls-9" points="46.7 15.71 45.93 9.67 39.87 9.03 45.91 8.25 46.55 2.2 47.33 8.24 53.38 8.88 47.34 9.65 46.7 15.71"/><path class="cls-1" d="M69.79,50.28l-1-.08c0-.11.25-2.85,2.15-3.31l.23,1C70,48.15,69.79,50.26,69.79,50.28Z"/><path class="cls-1" d="M76.45,52.24c-4,0-7-1.66-7-3.76h1c0,1.33,2.43,2.76,6,2.76a10,10,0,0,0,4.65-1l.48.87A10.8,10.8,0,0,1,76.45,52.24Z"/><path class="cls-11" d="M84.51,36.07a2.94,2.94,0,1,0,2.94-3A3,3,0,0,0,84.51,36.07Z"/><path class="cls-2" d="M88,34.7a.77.77,0,1,0,.77-.76A.76.76,0,0,0,88,34.7Z"/><path class="cls-2" d="M86.89,35.15a.45.45,0,1,0,.89,0,.45.45,0,1,0-.89,0Z"/><path class="cls-11" d="M60.51,36.07a2.94,2.94,0,1,0,2.94-3A3,3,0,0,0,60.51,36.07Z"/><path class="cls-2" d="M64,34.7a.77.77,0,1,0,.77-.76A.76.76,0,0,0,64,34.7Z"/><path class="cls-2" d="M62.89,35.15a.45.45,0,1,0,.89,0,.45.45,0,1,0-.89,0Z"/><path class="cls-1" d="M27,33.15v-.1S27,33.15,27,33.15Z"/><path class="cls-1" d="M75.62,30.16c-19.92.47-47.48-4.42-48.14-4.58s-.53.48-.53.48l.05,7c.22-.25,2.68-.36,24.22,7.05,25.89,8.91,63.12-3.61,63.12-4.68V22S95.54,29.69,75.62,30.16Zm-12.17,9.9a4,4,0,1,1,3.93-4A4,4,0,0,1,63.45,40.06Zm24,0a4,4,0,1,1,3.93-4A4,4,0,0,1,87.45,40.06Z"/></g><g id="Слой_5" data-name="Слой 5"><path class="cls-12" d="M105.59,18.29s4,6,4.64,7.28a35.85,35.85,0,0,1,2.7,9.21c.72,4.09,6.31,31.09,7.67,37.68a1.44,1.44,0,0,0,1.74,1.11l5.76-1.32a1.44,1.44,0,0,0,1.08-1.77c-2.05-7.77-11.66-44.24-11.44-44.65s-7-11.23-7-11.23Z"/><g class="cls-13"><path class="cls-14" d="M117.74,25.83c.24-.47-7-11.23-7-11.23l-.75.55c2.1,3.15,5.8,8.78,5.63,9.12S125,61.16,127,68.92a1.45,1.45,0,0,1-1.08,1.78l-5.45,1.24.11.52a1.44,1.44,0,0,0,1.74,1.11l5.76-1.32a1.44,1.44,0,0,0,1.08-1.77C127.13,62.71,117.52,26.24,117.74,25.83Z"/></g><path class="cls-14" d="M110.7,14.6l-5.11,3.69s.41.61,1,1.49l5.15-3.65Z"/><rect class="cls-14" x="106.41" y="19.09" width="8.02" height="2.29" rx="1.15" transform="translate(8.95 68.26) rotate(-35.72)"/><path class="cls-14" d="M111,9.4c0-.42,8.13-4.19,8.13-4.19L111.5,10.4,111,9"/><path class="cls-12" d="M111.49,14.57,104,19.89a1.3,1.3,0,0,1-1.89-.41l-3.41-6a1.31,1.31,0,0,1,.6-1.84l8.38-3.77A2.57,2.57,0,0,1,111,9l1.27,2.21A2.58,2.58,0,0,1,111.49,14.57Z"/><polygon class="cls-2" points="101.11 17.25 101.48 13.29 97.72 12.01 101.67 12.38 102.96 8.62 102.58 12.58 106.34 13.86 102.39 13.48 101.11 17.25"/></g></svg>