<svg xmlns="http://www.w3.org/2000/svg" viewBox="0 0 131.46 106.84"><defs><style>.cls-1{fill:#b04687;}.cls-2{fill:#eb5032;}.cls-3{fill:#fff;}.cls-4{opacity:0.1;}.cls-5{fill:#139ab0;}.cls-6{fill:#d7d9d8;}.cls-7{fill:#13181b;}.cls-8{fill:#e8f5f8;}.cls-9{fill:none;stroke:#e4eaea;stroke-linecap:round;stroke-miterlimit:10;stroke-width:3px;}.cls-10{fill:#a4a4a6;}.cls-11{fill:#848887;}.cls-12{fill:#214211;}.cls-13{fill:#1d1d1b;}</style></defs><title>04 Удаление детям</title><g id="Слой_2" data-name="Слой 2"><path class="cls-1" d="M47.51,106.84a28.09,28.09,0,0,1-3.32-.31,20.47,20.47,0,0,1-13.44-8c-5.26-6.79-7.25-14.79-5.92-23.75.37-2.55.64-5,.83-7.57A17.42,17.42,0,0,0,22.58,56c-7.69-11-10-17.66-10-28.67C12.55,7.18,26,0,38.65,0c5.48,0,10.89,2.22,15.64,6.43A4.15,4.15,0,0,0,56,7.36a4.07,4.07,0,0,0,2.19,0,4.15,4.15,0,0,0,1.67-.93C64.57,2.22,70,0,75.46,0c12.62,0,26.1,7.18,26.1,27.34,0,11-2.35,17.71-10,28.67a17.47,17.47,0,0,0-3.07,11.21c.18,2.55.45,5,.83,7.57h0c0,.16,2.24,15.74,6.59,22.44,2,3.08,2.67,5.35,2,6.77a2.31,2.31,0,0,1-1.72,1.23c-.34,0-8.83,1.35-12,.55A18.77,18.77,0,0,1,78.19,103C75.51,100.23,62.41,86.79,61.85,85c-.37-1.19-2.84-1.74-3.68-1.85a4.2,4.2,0,0,0-.69-.06h-.85a3.71,3.71,0,0,0-.67.06c-.85.15-3.66.79-4.12,2.78-.53,2.3-.31,11.78-.23,15.35,0,.68,0,1.15,0,1.32v.22c0,1.09,0,2.43-2.65,3.77A3.48,3.48,0,0,1,47.51,106.84ZM38.65,1c-12.14,0-25.1,6.92-25.1,26.34,0,10.77,2.3,17.34,9.85,28.1a18.37,18.37,0,0,1,3.25,11.85c-.18,2.57-.45,5.07-.83,7.64-1.29,8.69.64,16.43,5.72,23a19.47,19.47,0,0,0,12.75,7.6c1.2.17,3.62.49,4.26.18,2.11-1.06,2.1-1.9,2.09-2.86v-.24c0-.17,0-.63,0-1.29-.08-3.61-.31-13.18.25-15.6s3.64-3.32,4.93-3.55a5.49,5.49,0,0,1,.84-.07h.85a5.6,5.6,0,0,1,.84.07c.37,0,3.86.53,4.49,2.54.37,1.19,10,11.37,16,17.5h0a18.68,18.68,0,0,0,5.54,2.6c3,.75,11.55-.56,11.63-.58a1.22,1.22,0,0,0,.95-.68c.29-.61.42-2.17-1.92-5.78-4.47-6.87-6.65-22.14-6.75-22.84-.38-2.56-.65-5.06-.84-7.64a18.38,18.38,0,0,1,3.26-11.85c7.55-10.76,9.85-17.33,9.85-28.1C100.56,7.92,87.59,1,75.46,1c-5.24,0-10.41,2.14-15,6.18a5.07,5.07,0,0,1-4.79,1.15,5.32,5.32,0,0,1-2.07-1.15C49.06,3.14,43.88,1,38.65,1Z"/><path class="cls-2" d="M14.45,24s-4,9.64-1.66,16.37-2.59,8.75-2.59,8.75.09.68,2.18.28a11.37,11.37,0,0,0,1.74-.75s1,3.32-1.29,4.86c0,0,1,.59,3.12-1.35s2.91-6.59,2.12-10.06S17.35,32.75,19,31s-2.36-8.49-2.36-8.49Z"/><path class="cls-3" d="M13.25,53.8a1.14,1.14,0,0,1-.55-.12l-.34-.21.33-.21C14.42,52.1,14.13,49.8,14,49a13.85,13.85,0,0,1-1.48.61,3.18,3.18,0,0,1-2.26-.11A.59.59,0,0,1,10,49.1l0-.19.17-.07c.19-.08,4.65-2,2.46-8.44-2.31-6.74,1.49-16.15,1.66-16.55l0-.06,2.42-1.68.14.23c.42.7,4,6.9,2.34,8.78-1.48,1.65-1.65,7.2-.82,10.87.75,3.33.12,8.21-2.21,10.31A4.61,4.61,0,0,1,13.25,53.8Zm1-5.59.1.32s.9,3-.91,4.75a4.74,4.74,0,0,0,2.33-1.36c2-1.76,2.87-6.16,2-9.82-.77-3.42-.79-9.37.93-11.31,1.17-1.31-1.12-6-2.25-8l-1.86,1.28C14.31,25,10.89,34,13,40.24c2,5.84-1.35,8.28-2.42,8.9a3.46,3.46,0,0,0,1.73,0h0A12.61,12.61,0,0,0,14,48.39Z"/><path class="cls-2" d="M14.14,19.08s-7.46,7.27-8,14.36-5.86,7-5.86,7-.18.66,1.89,1.13a11.34,11.34,0,0,0,1.89,0S3.66,45,.92,45.51c0,0,.66.92,3.4,0s5.29-4.89,5.95-8.39,3-8.81,5.22-9.82,1.21-8.73,1.21-8.73Z"/><path class="cls-3" d="M2.21,46.17c-1.08,0-1.44-.44-1.5-.52l-.23-.32.39-.07c2.06-.37,2.7-2.59,2.86-3.42a12.85,12.85,0,0,1-1.6,0,3.15,3.15,0,0,1-2-1A.64.64,0,0,1,0,40.36l.06-.18H.26c.21,0,5.06,0,5.6-6.76.57-7.1,7.8-14.22,8.11-14.52l0-.06,2.89-.57,0,.27c.11.8.94,7.93-1.35,9-2,.93-4.38,5.95-5.07,9.65-.64,3.35-3.16,7.58-6.12,8.58A7.11,7.11,0,0,1,2.21,46.17Zm-.64-.58a4.71,4.71,0,0,0,2.67-.32c2.49-.84,5.09-4.51,5.78-8.19.66-3.45,3-8.92,5.36-10,1.59-.74,1.36-5.94,1.1-8.21l-2.21.45c-.66.66-7.38,7.54-7.91,14.15-.49,6.15-4.53,7.06-5.76,7.2a3.38,3.38,0,0,0,1.6.66s.55,0,1.09,0a4.55,4.55,0,0,0,.7,0l.33-.06,0,.33S3.91,44.72,1.57,45.59Z"/><path class="cls-3" d="M88.78,74.86c-.45-3-.68-5.57-.83-7.61a17.88,17.88,0,0,1,3.16-11.52c7.83-11.16,10-17.9,10-28.39C101.06,9.16,89.6.5,75.46.5,70,.5,64.61,2.86,60.15,6.81a4.79,4.79,0,0,1-1.87,1h0a4.63,4.63,0,0,1-2.45,0h0a4.9,4.9,0,0,1-1.88-1A23.26,23.26,0,0,0,38.65.5c-14.14,0-25.6,8.66-25.6,26.84,0,10.49,2.12,17.23,9.94,28.39a17.82,17.82,0,0,1,3.16,11.52c-.14,2-.38,4.56-.83,7.61C23.77,85.33,27.05,93,31.14,98.24A20.15,20.15,0,0,0,44.22,106c1.42.19,3.77.51,4.55.13,2.58-1.29,2.36-2.48,2.36-3.55s-.43-14,.22-16.78c.52-2.26,3.42-3,4.52-3.16a3.84,3.84,0,0,1,.76-.07h.85a3.81,3.81,0,0,1,.75.07s3.55.43,4.1,2.19,16.15,17.7,16.15,17.7a18.82,18.82,0,0,0,5.77,2.74c3.12.78,11.84-.57,11.84-.57s3.83-.36-.64-7.23-6.67-22.64-6.67-22.64"/><g class="cls-4"><path class="cls-5" d="M37.15,99c-4-3.58-12-15.47-8.39-27.53,3.29-11,12.49-11,14.12-11.35-1.21.09-6.39-.71-18.42-16.62C14.72,30.65,17.2,15.68,19.59,7.78,15.54,12.2,13.05,18.56,13.05,27c0,10.87,2.27,17.7,10.81,29.6A13.14,13.14,0,0,1,26.28,65c-.13,2.3-.35,5.45-1,9.56C23.77,85,27.05,92.6,31.14,97.89a20.12,20.12,0,0,0,13.08,7.8c1.42.19,3.77.51,4.55.12,2.58-1.29,2.36-2.47,2.36-3.54,0-.17,0-.61,0-1.23C47.48,103.4,41.24,102.7,37.15,99Z"/></g><path class="cls-6" d="M42.88,60.16a1.21,1.21,0,0,0,.3-.06Z"/><g class="cls-4"><path class="cls-5" d="M87.83,65a13.14,13.14,0,0,1,2.42-8.36c8.54-11.9,10.81-18.73,10.81-29.6C101.06,8.82,89.6.16,75.46.16,69.61.16,64,2.81,59.34,7.21l-2.29.63-2.28-.63c-4.62-4.4-10.27-7-16.12-7C24.51.16,13.05,8.82,13.05,27c0,10.87,2.27,17.7,10.81,29.6A13.14,13.14,0,0,1,26.28,65c-.13,2.3-.35,5.45-1,9.56C23.77,85,27.05,92.6,31.14,97.89a20.12,20.12,0,0,0,13.08,7.8c1.42.19,3.77.51,4.55.12,2.58-1.29,2.36-2.47,2.36-3.54s-.43-14,.22-16.78,4.95-3.23,4.95-3.23h1.51a8.48,8.48,0,0,1,3.6,1.31C60.17,81.71,57,81.39,57,81.39H55.56s-4.17.42-4.8,3.13-.21,15.24-.21,16.28.21,2.19-2.29,3.44c-.75.38-3,.07-4.41-.12a19.49,19.49,0,0,1-12.69-7.56C27.19,91.43,24,84,25.51,73.88c.59-4,.8-7,.92-9.27a12.73,12.73,0,0,0-2.34-8.11C15.8,45,13.6,38.32,13.6,27.77c0-17.63,11.12-26,24.84-26,5.67,0,11.16,2.57,15.64,6.84l2.21.62,2.22-.62C63,4.3,68.48,1.73,74.15,1.73c13.72,0,24.84,8.41,24.84,26C99,38.32,96.79,45,88.5,56.5a12.73,12.73,0,0,0-2.34,8.11"/></g><path class="cls-2" d="M16.11,20.31c8.48,3.47,43.89,16.62,80.4-2.43,1.61-.84,3-1.51,2.35-3.46a29.76,29.76,0,0,0-3.39-5.55s-4.31,5.91-30.08,7.26-46.89-3.58-48.18-5L15.47,14a1.63,1.63,0,0,0-.11.23l-1.21,3.26C13.79,18.6,15,19.87,16.11,20.31Z"/><path class="cls-7" d="M71.06,21.53s1.22-.06,5.62,2.68a14.22,14.22,0,0,0-5.14-4.43C71.52,20.05,71.06,21.53,71.06,21.53Z"/><path class="cls-7" d="M46.13,23.86s-1.54.24-7.78-2.3c1,1.2,4.26,3.26,7.59,4.39C45.9,25.63,46.13,23.86,46.13,23.86Z"/><path class="cls-8" d="M84.85,36.39a30.18,30.18,0,0,1-4.14,8.87c-2.51,3.68-4,5.83-4.88,7.06-.17.24-1,1.1-1,1.1l13.54-3.25a34.46,34.46,0,0,0,7.07-15.33A35.2,35.2,0,0,1,84.85,36.39Z"/><path class="cls-8" d="M86.7,86.71A14.2,14.2,0,0,0,87.41,89a44.69,44.69,0,0,0,4.11,7.8s.8,3.77-3.25,1.6c-3.3-1.77-7.73-6.66-9.56-12.08.4.15.83.31,1.29.46A11.85,11.85,0,0,0,86.7,86.71Z"/><path class="cls-8" d="M77.27,83.3c-2.18-4.21-2.6-7-2.4-10.11a15,15,0,0,1,.58-2.39l8.38-.89a29.55,29.55,0,0,0,2.72,13l-.67.34C83,84.65,79.45,84,77.27,83.3Z"/><path class="cls-3" d="M86.81,60.3h-.28a1.5,1.5,0,1,1,.11-3c.63,0,15.51.39,19.46-11.52a1.5,1.5,0,0,1,2.85.95C104.61,59.81,89.09,60.3,86.81,60.3Z"/><path class="cls-9" d="M24.94,56.06"/><path class="cls-3" d="M23.25,79.3a1.58,1.58,0,0,1-.72-.19,1.5,1.5,0,0,1-.59-2l.73-1.32a12.82,12.82,0,0,1-6.07-4,10.81,10.81,0,0,1-2.51-8.51c.88-6.19,7.08-10.45,13.84-9.49a1.5,1.5,0,1,1-.42,3c-5.12-.73-9.8,2.39-10.45,6.94a7.88,7.88,0,0,0,1.84,6.17,10,10,0,0,0,6.26,3.41,1.49,1.49,0,0,1,1.11,2.21l-1.7,3.07A1.51,1.51,0,0,1,23.25,79.3Z"/><path class="cls-3" d="M49.33,46.24s3.37,2.41,6.06.88c1.9-1.08,2.78-4,7-3.71a5.37,5.37,0,0,1,3.08,1.91"/><path class="cls-2" d="M53.38,48.13A8.4,8.4,0,0,1,49,46.64a.5.5,0,0,1,.59-.81s3.13,2.2,5.52.85a7.18,7.18,0,0,0,1.45-1.26,6.56,6.56,0,0,1,5.81-2.5A5.76,5.76,0,0,1,65.83,45a.51.51,0,0,1,0,.71.5.5,0,0,1-.71,0,5,5,0,0,0-2.76-1.75c-2.69-.2-3.87,1-5,2.2a7.56,7.56,0,0,1-1.68,1.44A4.51,4.51,0,0,1,53.38,48.13Z"/><path class="cls-10" d="M120.61,10.86c.06.14.14.27.22.49A3.64,3.64,0,0,1,121,12a5.56,5.56,0,0,1,.08,1.76,9.56,9.56,0,0,1-.45,2,14,14,0,0,1-.63,1.55,8.08,8.08,0,0,1,3.33,6l.42.21.06-.19c0-.11.07-.26.13-.45.1-.38.23-.92.35-1.57a20.93,20.93,0,0,0,.35-4.86,13,13,0,0,0-.41-2.71,9.37,9.37,0,0,0-1-2.36,7.16,7.16,0,0,0-.64-.88,6.51,6.51,0,0,0-.61-.65c-.18-.17-.3-.24-.39-.32l-.13-.1-1.22.86.09.13A2.32,2.32,0,0,1,120.61,10.86Z"/><path class="cls-10" d="M106.46,22.44a8.13,8.13,0,0,1,4.07-5.65,13.93,13.93,0,0,1-.43-1.6,9.24,9.24,0,0,1-.21-2.06,5.65,5.65,0,0,1,.29-1.74,4.37,4.37,0,0,1,.29-.65c.1-.2.2-.32.27-.45A2.6,2.6,0,0,1,111,10a.59.59,0,0,1,.1-.11l-1.11-1-.14.09c-.1.06-.22.12-.42.26s-.46.36-.69.58a5.75,5.75,0,0,0-.73.8,8.37,8.37,0,0,0-1.27,2.22,12.79,12.79,0,0,0-.74,2.64,20.93,20.93,0,0,0-.22,4.87c0,.66.1,1.21.16,1.6,0,.2.06.35.07.46s0,.19,0,.19Z"/><path class="cls-10" d="M131.39,61.64c.07-1.85.11-3.74,0-5.63s-.15-3.79-.37-5.66-.44-3.73-.82-5.52A49.82,49.82,0,0,0,129,39.64,37.21,37.21,0,0,0,127.12,35a24.19,24.19,0,0,0-2.3-3.89q-.66-.85-1.29-1.56l-.69-.69a8.72,8.72,0,0,1-7.42,5.57s0,.06,0,.07l.29.18.17.12c.07,0,0,0,.07.07a1,1,0,0,0,.22.24c.14.15.32.38.52.59l.61.84a18.85,18.85,0,0,1,1.31,2.5,26.54,26.54,0,0,1,1.27,3.48c.37,1.32.76,2.73,1,4.26s.61,3.12.83,4.77.43,3.35.6,5.06.3,3.43.38,5.13.18,3.39.22,5,.06,3.21.07,4.71c0,.75,0,1.48,0,2.18s0,1.39,0,2c0,1.31-.08,2.51-.14,3.57,0,.53-.06,1-.1,1.48s0,.88-.08,1.25c0,.76-.13,1.34-.17,1.75s-.06.62-.06.62l3.88,1.19s.11-.22.3-.63.44-1,.75-1.79.64-1.74,1-2.84.7-2.36,1-3.73.64-2.87.91-4.46.49-3.27.69-5S131.33,63.48,131.39,61.64Z"/><path class="cls-10" d="M122.55,25.79A7.76,7.76,0,1,0,114.17,33,7.83,7.83,0,0,0,122.55,25.79Z"/><path class="cls-10" d="M106.42,28.13c-.49.39-1,.84-1.52,1.32a24.21,24.21,0,0,0-2.9,3.46,38.78,38.78,0,0,0-2.57,4.3,52.39,52.39,0,0,0-2.12,4.92c-.66,1.71-1.19,3.5-1.7,5.31S94.7,51.11,94.32,53s-.64,3.72-.88,5.55-.37,3.65-.49,5.41-.16,3.45-.13,5.07.05,3.13.16,4.54.23,2.7.39,3.85.33,2.14.51,3,.32,1.46.45,1.89l.18.67,4-.55s0-.21,0-.62,0-1,.12-1.75c0-.37.07-.79.12-1.25s.08-.95.15-1.47c.11-1.06.26-2.25.44-3.54.08-.65.18-1.33.3-2s.22-1.42.34-2.16c.26-1.48.51-3,.84-4.64s.64-3.25,1-4.91.8-3.34,1.21-5,.92-3.3,1.42-4.89,1-3.13,1.59-4.58,1.16-2.79,1.74-4a29.4,29.4,0,0,1,1.8-3.23A23.21,23.21,0,0,1,111.39,36l.74-.73.61-.49a1.33,1.33,0,0,0,.26-.21s0,0,.07-.06l.19-.08.25-.11A8.7,8.7,0,0,1,106.42,28.13Z"/><path class="cls-11" d="M110.58,33.33l-.45.36-.74.73a23.21,23.21,0,0,0-1.71,2.25,29.4,29.4,0,0,0-1.8,3.23c-.58,1.24-1.21,2.57-1.74,4s-1.1,3-1.59,4.58-1,3.23-1.42,4.89-.86,3.33-1.21,5-.73,3.31-1,4.91-.58,3.16-.84,4.64c-.12.74-.25,1.46-.34,2.16s-.22,1.37-.3,2c-.18,1.29-.33,2.48-.44,3.54-.07.52-.11,1-.15,1.47s-.1.88-.12,1.25c-.07.76-.09,1.35-.12,1.75s0,.62,0,.62l-2.49.34c.1.47.19.85.28,1.14l.18.67,4-.55s0-.21,0-.62,0-1,.12-1.75c0-.37.07-.79.12-1.25s.08-.95.15-1.47c.11-1.06.26-2.25.44-3.54.08-.65.18-1.33.3-2s.22-1.42.34-2.16c.26-1.48.51-3,.84-4.64s.64-3.25,1-4.91.8-3.34,1.21-5,.92-3.3,1.42-4.89,1-3.13,1.59-4.58,1.16-2.79,1.74-4a29.4,29.4,0,0,1,1.8-3.23A23.21,23.21,0,0,1,111.39,36l.74-.73.61-.49a1.33,1.33,0,0,0,.26-.21s0,0,.07-.06l.19-.08.25-.11A8.57,8.57,0,0,1,110.58,33.33Z"/><path class="cls-10" d="M108.42,31.64a8.77,8.77,0,0,1-2-3.51c-.3.24-.6.5-.9.77A8.74,8.74,0,0,0,108.42,31.64Z"/><path class="cls-3" d="M107.65,47.36a1.47,1.47,0,0,1-.46-.07,1.5,1.5,0,0,1-1-1.89,8.82,8.82,0,0,0-.48-4.33,1.5,1.5,0,0,1,.66-2,1.52,1.52,0,0,1,2,.66,11.41,11.41,0,0,1,.66,6.62A1.51,1.51,0,0,1,107.65,47.36Z"/><path class="cls-11" d="M131.43,56c-.07-1.89-.15-3.79-.37-5.66s-.44-3.73-.82-5.52A49.82,49.82,0,0,0,129,39.64,37.21,37.21,0,0,0,127.12,35a24.19,24.19,0,0,0-2.3-3.89q-.66-.85-1.29-1.56l-.69-.69a9.15,9.15,0,0,1-.7,1.4c.22.27.45.55.68.85a24.19,24.19,0,0,1,2.3,3.89A37.21,37.21,0,0,1,127,39.64a49.82,49.82,0,0,1,1.28,5.19c.38,1.79.61,3.64.82,5.52s.3,3.77.37,5.66,0,3.78,0,5.63-.22,3.65-.39,5.41-.4,3.43-.69,5-.57,3.09-.91,4.46-.67,2.63-1,3.73-.67,2.06-1,2.84-.56,1.39-.75,1.79l0,.09,1.75.54s.11-.22.3-.63.44-1,.75-1.79.64-1.74,1-2.84.7-2.36,1-3.73.64-2.87.91-4.46.49-3.27.69-5,.33-3.57.39-5.41S131.5,57.9,131.43,56Z"/><path class="cls-11" d="M119.18,18.61a8,8,0,0,1,1.37,5.18A7.84,7.84,0,0,1,112.17,31a7.59,7.59,0,0,1-3.72-1.33A7.73,7.73,0,0,0,114.17,33a7.84,7.84,0,0,0,8.38-7.24A7.94,7.94,0,0,0,119.18,18.61Z"/><path class="cls-11" d="M124.68,16.54A12.28,12.28,0,0,0,124.5,15a22.79,22.79,0,0,1-.37,3.45c-.12.65-.25,1.19-.35,1.57-.06.19-.09.34-.13.45l-.06.19-.42-.21a7.8,7.8,0,0,0-2.34-5.15c0,.18-.1.37-.16.56a14,14,0,0,1-.63,1.55,8.08,8.08,0,0,1,3.33,6l.42.21.06-.19c0-.11.07-.26.13-.45.1-.38.23-.92.35-1.57A20.93,20.93,0,0,0,124.68,16.54Z"/><path class="cls-11" d="M110.08,8.9,110,9a2.6,2.6,0,0,0-.29.33c-.07.13-.17.25-.27.45a4.37,4.37,0,0,0-.29.65,5.65,5.65,0,0,0-.29,1.74,9.24,9.24,0,0,0,.21,2.06,13.93,13.93,0,0,0,.43,1.6,8.48,8.48,0,0,0-3.73,4.34,1,1,0,0,0,0,.18c0,.66.1,1.21.16,1.6,0,.2.06.35.07.46s0,.19,0,.19l.38-.12a8.13,8.13,0,0,1,4.07-5.65,13.93,13.93,0,0,1-.43-1.6,9.24,9.24,0,0,1-.21-2.06,5.65,5.65,0,0,1,.29-1.74,4.37,4.37,0,0,1,.29-.65c.1-.2.2-.32.27-.45A2.6,2.6,0,0,1,111,10a.59.59,0,0,1,.1-.11Z"/><polygon class="cls-3" points="109.32 27.39 111.22 22.02 106.43 18.93 111.8 20.83 114.89 16.04 112.99 21.41 117.78 24.5 112.41 22.6 109.32 27.39"/><path class="cls-12" d="M21.34,36c3.79,2.36,8.05,3.71,12.29,5,1.73.52,2.47-2.19.74-2.71-4-1.22-8-2.47-11.61-4.71-1.54-1-3,1.47-1.42,2.42Z"/><path class="cls-12" d="M21.38,42A24,24,0,0,0,33.7,45.38a1.4,1.4,0,0,0,0-2.8,21.23,21.23,0,0,1-10.9-3A1.4,1.4,0,0,0,21.38,42Z"/><path class="cls-12" d="M91.87,37c-3.79,2.36-8.05,3.71-12.29,5-1.73.52-2.47-2.19-.74-2.71,4-1.22,8-2.47,11.61-4.71,1.54-1,3,1.47,1.42,2.42Z"/><path class="cls-12" d="M91.83,43a24,24,0,0,1-12.32,3.37,1.4,1.4,0,0,1,0-2.8,21.23,21.23,0,0,0,10.9-3A1.4,1.4,0,0,1,91.83,43Z"/><path class="cls-13" d="M46.31,33.33a2.94,2.94,0,1,1-2.94-3A3,3,0,0,1,46.31,33.33Z"/><path class="cls-3" d="M42.87,32a.77.77,0,1,1-.77-.77A.77.77,0,0,1,42.87,32Z"/><path class="cls-3" d="M43.93,32.41a.45.45,0,1,1-.45-.44A.45.45,0,0,1,43.93,32.41Z"/><path class="cls-13" d="M73.31,33.33a2.94,2.94,0,1,1-2.94-3A3,3,0,0,1,73.31,33.33Z"/><path class="cls-3" d="M69.87,32a.77.77,0,1,1-.77-.77A.77.77,0,0,1,69.87,32Z"/><path class="cls-3" d="M70.93,32.41a.45.45,0,1,1-.45-.44A.45.45,0,0,1,70.93,32.41Z"/></g></svg>