<svg xmlns="http://www.w3.org/2000/svg" xmlns:xlink="http://www.w3.org/1999/xlink" viewBox="0 0 112 145.27"><defs><style>.cls-1{fill:none;}.cls-2{isolation:isolate;}.cls-3{fill:#139ab0;}.cls-4{clip-path:url(#clip-path);}.cls-5{fill:#ffe699;}.cls-6{fill:#ffe599;}.cls-7{fill:#ffe598;}.cls-8{fill:#ffe497;}.cls-9{fill:#ffe396;}.cls-10{fill:#ffe295;}.cls-11{fill:#ffe195;}.cls-12{fill:#ffe194;}.cls-13{fill:#ffe093;}.cls-14{fill:#ffdf93;}.cls-15{fill:#ffde92;}.cls-16{fill:#ffdd91;}.cls-17{fill:#ffdc90;}.cls-18{fill:#ffdb8f;}.cls-19{fill:#ffda8e;}.cls-20{fill:#ffd98d;}.cls-21{fill:#ffd88c;}.cls-22{fill:#ffd78b;}.cls-23{fill:#ffd68a;}.cls-24{fill:#ffd589;}.cls-25{fill:#ffd388;}.cls-26{fill:#ffd287;}.cls-27{fill:#ffd185;}.cls-28{fill:#ffd084;}.cls-29{fill:#ffce83;}.cls-30{fill:#ffcd82;}.cls-31{fill:#ffcb80;}.cls-32{fill:#ffca7f;}.cls-33{fill:#ffc87e;}.cls-34{fill:#ffc77c;}.cls-35{fill:#ffc57b;}.cls-36{fill:#ffc479;}.cls-37{fill:#ffc278;}.cls-38{fill:#ffc076;}.cls-39{fill:#ffbf75;}.cls-40{fill:#ffbd73;}.cls-41{clip-path:url(#clip-path-2);}.cls-42{fill:#fff7a8;}.cls-43{fill:#fff6a7;}.cls-44{fill:#fff5a6;}.cls-45{fill:#fff4a6;}.cls-46{fill:#fff3a5;}.cls-47{fill:#fff2a4;}.cls-48{fill:#fff1a3;}.cls-49{fill:#fff0a2;}.cls-50{fill:#ffefa2;}.cls-51{fill:#ffeea1;}.cls-52{fill:#ffeda0;}.cls-53{fill:#ffec9f;}.cls-54{fill:#ffeb9e;}.cls-55{fill:#ffea9d;}.cls-56{fill:#ffe99d;}.cls-57{fill:#ffe89c;}.cls-58{fill:#ffe69b;}.cls-59{fill:#ffe59a;}.cls-60{fill:#ffe499;}.cls-61{fill:#ffe398;}.cls-62{fill:#ffe297;}.cls-63{fill:#ffe096;}.cls-64{fill:#ffdf95;}.cls-65{fill:#ffde94;}.cls-66{fill:#ffdd93;}.cls-67{fill:#ffdb92;}.cls-68{fill:#ffda91;}.cls-69{fill:#ffd890;}.cls-70{fill:#ffd78f;}.cls-71{fill:#ffd58d;}.cls-72{fill:#ffd48c;}.cls-73{fill:#ffd28b;}.cls-74{fill:#ffd18a;}.cls-75{fill:#ffcf89;}.cls-76{fill:#ffce87;}.cls-77{fill:#ffcc86;}.cls-78{fill:#ffca85;}.cls-79{fill:#ffc983;}.cls-80{fill:#ffc782;}.cls-81{fill:#dfc29f;}.cls-82{fill:#ffe2bb;}.cls-83{fill:#ce755d;}.cls-135,.cls-84{mix-blend-mode:multiply;}.cls-85{fill:#d35e00;}.cls-86{fill:#fff5eb;}.cls-135,.cls-87{opacity:0.5;}.cls-88{fill:#5e402f;}.cls-89{fill:#d8bfa0;}.cls-90{clip-path:url(#clip-path-3);}.cls-91{fill:#de7f7c;}.cls-92{fill:#dd7e7c;}.cls-93{fill:#dc7d7b;}.cls-94{fill:#db7c7b;}.cls-95{fill:#da7b7a;}.cls-96{fill:#d97a7a;}.cls-97{fill:#d8797a;}.cls-98{fill:#d77879;}.cls-99{fill:#d67779;}.cls-100{fill:#d57678;}.cls-101{fill:#d47578;}.cls-102{fill:#d37478;}.cls-103{fill:#d27377;}.cls-104{fill:#d17277;}.cls-105{fill:#d07176;}.cls-106{fill:#cf7076;}.cls-107{fill:#ce6f76;}.cls-108{fill:#cd6e75;}.cls-109{fill:#cc6d75;}.cls-110{fill:#cb6c74;}.cls-111{fill:#ca6c74;}.cls-112{fill:#c86b74;}.cls-113{fill:#c76a73;}.cls-114{fill:#c66973;}.cls-115{fill:#c56872;}.cls-116{fill:#c46772;}.cls-117{fill:#c36672;}.cls-118{fill:#c26571;}.cls-119{fill:#c16471;}.cls-120{fill:#c06370;}.cls-121{fill:#bf6270;}.cls-122{fill:#be6170;}.cls-123{fill:#bd606f;}.cls-124{fill:#bc5f6f;}.cls-125{fill:#bb5e6e;}.cls-126{fill:#ba5d6e;}.cls-127{fill:#b95c6e;}.cls-128{fill:#b85b6d;}.cls-129{fill:#b75a6d;}.cls-130{fill:#b6596c;}.cls-131{fill:#b5586c;}.cls-132{fill:#573220;}.cls-133{mix-blend-mode:screen;}.cls-134{fill:#fff;}.cls-136{fill:#782600;}.cls-137{fill:#fffaf5;}.cls-138{clip-path:url(#clip-path-4);}.cls-139{fill:#c97106;}.cls-140{fill:#c2e3ff;}.cls-141{clip-path:url(#clip-path-5);}.cls-142{fill:#6b2f00;}.cls-143{fill:#6a2f00;}.cls-144{fill:#692f00;}.cls-145{fill:#682e00;}.cls-146{fill:#672e00;}.cls-147{fill:#662d00;}.cls-148{fill:#652d00;}.cls-149{fill:#642c00;}.cls-150{fill:#632c00;}.cls-151{fill:#622b00;}.cls-152{fill:#612b00;}.cls-153{fill:#602b00;}.cls-154{fill:#5f2a00;}.cls-155{fill:#5e2a00;}.cls-156{fill:#5d2900;}.cls-157{fill:#5c2900;}.cls-158{fill:#5b2800;}.cls-159{fill:#5a2800;}.cls-160{fill:#592700;}.cls-161{fill:#582700;}.cls-162{fill:#572600;}.cls-163{fill:#562600;}.cls-164{fill:#552600;}.cls-165{fill:#542500;}.cls-166{fill:#532500;}.cls-167{fill:#522400;}.cls-168{fill:#512400;}.cls-169{fill:#502300;}.cls-170{fill:#4f2300;}.cls-171{fill:#4e2200;}.cls-172{fill:#4d2200;}.cls-173{fill:#4c2200;}.cls-174{fill:#4b2100;}.cls-175{fill:#4a2100;}.cls-176{fill:#492000;}.cls-177{fill:#482000;}.cls-178{fill:#471f00;}.cls-179{fill:#461f00;}.cls-180{fill:#451e00;}.cls-181{fill:#441e00;}.cls-182{fill:#431e00;}.cls-183{fill:#421d00;}.cls-184{fill:#411d00;}.cls-185{fill:#401c00;}.cls-186{fill:#3f1c00;}.cls-187{fill:#3e1b00;}.cls-188{fill:#3d1b00;}.cls-189{fill:#3c1a00;}.cls-190{fill:#3b1a00;}.cls-191{fill:#3a1a00;}.cls-192{fill:#381900;}.cls-193{fill:#371900;}.cls-194{fill:#361800;}.cls-195{fill:#351800;}.cls-196{fill:#341700;}.cls-197{fill:#331700;}.cls-198{fill:#321600;}.cls-199{fill:#311600;}.cls-200{fill:#301500;}.cls-201{fill:#2f1500;}.cls-202{fill:#2e1500;}.cls-203{fill:#2d1400;}.cls-204{fill:#2c1400;}.cls-205{fill:#2b1300;}.cls-206{fill:#2a1300;}.cls-207{fill:#291200;}.cls-208{fill:#281200;}.cls-209{fill:#271100;}.cls-210{fill:#261100;}.cls-211{fill:#251100;}.cls-212{fill:#241000;}.cls-213{fill:#231000;}.cls-214{fill:#220f00;}.cls-215{fill:#210f00;}.cls-216{fill:#200e00;}.cls-217{fill:#1f0e00;}.cls-218{fill:#1e0d00;}.cls-219{fill:#1d0d00;}.cls-220{fill:#1c0d00;}.cls-221{fill:#1b0c00;}.cls-222{fill:#1a0c00;}.cls-223{fill:#190b00;}.cls-224{fill:#180b00;}.cls-225{fill:#170a00;}.cls-226{fill:#160a00;}.cls-227{fill:#150900;}.cls-228{fill:#140900;}.cls-229{fill:#130900;}.cls-230{fill:#120800;}.cls-231{fill:#110800;}.cls-232{fill:#100700;}.cls-233{fill:#0f0700;}.cls-234{fill:#0e0600;}.cls-235{fill:#0d0600;}.cls-236{fill:#0c0500;}.cls-237{fill:#0b0500;}.cls-238{fill:#0a0400;}.cls-239{fill:#090400;}.cls-240{fill:#080400;}.cls-241{fill:#070300;}.cls-242{fill:#060300;}.cls-243{fill:#050200;}.cls-244{fill:#040200;}.cls-245{fill:#030100;}.cls-246{fill:#020100;}.cls-247{fill:#010000;}.cls-248{clip-path:url(#clip-path-6);}.cls-249{fill:#6e3100;}.cls-250{fill:#6d3000;}.cls-251{fill:#6c3000;}.cls-252{opacity:0.4;}.cls-253{clip-path:url(#clip-path-7);}.cls-254{fill:#c0ffff;}.cls-255{fill:#bffefe;}.cls-256{fill:#befdfe;}.cls-257{fill:#bdfcfd;}.cls-258{fill:#bdfbfc;}.cls-259{fill:#bcfafc;}.cls-260{fill:#bbf9fb;}.cls-261{fill:#baf8fa;}.cls-262{fill:#b9f7fa;}.cls-263{fill:#b8f6f9;}.cls-264{fill:#b7f5f8;}.cls-265{fill:#b6f4f7;}.cls-266{fill:#b6f3f7;}.cls-267{fill:#b5f2f6;}.cls-268{fill:#b4f1f5;}.cls-269{fill:#b3f0f5;}.cls-270{fill:#b2eff4;}.cls-271{fill:#b1eef3;}.cls-272{fill:#b0edf3;}.cls-273{fill:#afecf2;}.cls-274{fill:#afebf1;}.cls-275{fill:#aeeaf1;}.cls-276{fill:#ade9f0;}.cls-277{fill:#ace8ef;}.cls-278{fill:#abe7ef;}.cls-279{fill:#aae6ee;}.cls-280{fill:#a9e5ed;}.cls-281{fill:#a8e4ec;}.cls-282{fill:#a8e3ec;}.cls-283{fill:#a7e2eb;}.cls-284{fill:#a6e1ea;}.cls-285{fill:#a5e0ea;}.cls-286{fill:#a4dfe9;}.cls-287{fill:#a3dee8;}.cls-288{fill:#a2dde8;}.cls-289{fill:#a2dce7;}.cls-290{fill:#a1dae6;}.cls-291{fill:#a0d9e6;}.cls-292{fill:#9fd8e5;}.cls-293{fill:#9ed7e4;}.cls-294{fill:#9dd6e4;}.cls-295{fill:#9cd5e3;}.cls-296{fill:#9bd4e2;}.cls-297{fill:#9bd3e2;}.cls-298{fill:#9ad2e1;}.cls-299{fill:#99d1e0;}.cls-300{fill:#98d0df;}.cls-301{fill:#97cfdf;}.cls-302{fill:#96cede;}.cls-303{fill:#95cddd;}.cls-304{fill:#94ccdd;}.cls-305{fill:#94cbdc;}.cls-306{fill:#93cadb;}.cls-307{fill:#92c9db;}.cls-308{fill:#91c8da;}.cls-309{fill:#90c7d9;}.cls-310{fill:#8fc6d9;}.cls-311{fill:#8ec5d8;}.cls-312{fill:#8dc4d7;}.cls-313{fill:#8dc3d7;}.cls-314{fill:#8cc2d6;}.cls-315{fill:#8bc1d5;}.cls-316{fill:#8ac0d4;}.cls-317{fill:#89bfd4;}.cls-318{fill:#88bed3;}.cls-319{fill:#87bdd2;}.cls-320{fill:#86bcd2;}.cls-321{fill:#86bbd1;}.cls-322{fill:#85bad0;}.cls-323{fill:#84b9d0;}.cls-324{fill:#83b8cf;}.cls-325{clip-path:url(#clip-path-8);}.cls-326{fill:#003044;}</style><clipPath id="clip-path"><path class="cls-1" d="M57.84,11.67s-.82,2.81-5.26,5S47.14,19.38,47,21.19l-.54-1.63-.91,2.81S44.33,20.1,43.25,20c.72,3.9-2.63,5.26-9.07,10.61S16.51,45.12,11.25,43.3C12.25,45,12.79,45,12.79,45s-6.52,1.63-8.52,8,5.62,9.52,1.18,12.42a2,2,0,0,0,2-.27s-3.54,6,.18,8,9.06-.36,7.88,5.44c.82.27,1.54-2.45,1.54-2.45S16,82.91,28.2,83.64c6.53.36,8,.9,7.43,3.44,1,.18,1.63-1.09,1.63-1.09s-1.9,4.81,8.8,6.17c7.61,1.63,12.59,4.35,8.61,9.51,3.71-1.54,4.44-3.53,5.71-5.71S64,92.43,68.44,91.7s16-3.8,16.77-9.33a9.68,9.68,0,0,0,1.63,1.54c-.45-1.54.54-4.44,5.35-5.26s5.8-3.81,5.44-7.07c1,1.45,2,1,2,1s-2.54-2,.45-3.9,8.43-6.8,6.17-15.13c1.27.36,1.45.9,1.45.9s.27-3.89-4.35-7.34a2.71,2.71,0,0,1,2.26,1s0-3.26-5.89-4.9a19.21,19.21,0,0,1-8.25-5.16C89,35.6,72.76,29.17,74,24.89c-1.71,0-2.69,2.2-2.69,2.2S70.07,23.67,68,23.18a2.84,2.84,0,0,1,.37,2.69s-.73-1.73-3.95-4.37S58.06,14.33,57.84,11.67Z"/></clipPath><clipPath id="clip-path-2"><path class="cls-1" d="M103.34,47.11a2.71,2.71,0,0,1,2.26,1s0-3.26-5.89-4.9a19.21,19.21,0,0,1-8.25-5.16C89,35.6,72.76,29.17,74,24.89c-1.71,0-2.69,2.2-2.69,2.2S70.07,23.67,68,23.18a2.84,2.84,0,0,1,.37,2.69s-.73-1.73-3.95-4.37a19.87,19.87,0,0,1-1.74-1.61s0,0,0,.06a23.17,23.17,0,0,1,6.2,9.3,7.59,7.59,0,0,0,.82-3.1c.65.66,1.3,4.74,1.3,4.74s0-1.15,2.94-2.45c1.31,2-1,3.59.82,6.2s.49,6.53.49,6.53l3.1-3.43s.49,5.87,2.28,4.24c0,1.14,4.9,4.9,12.57,3.59s10.6,7.18,10.6,7.18-4.08-2.93-8.65-2.28c5.23,2,4.25,10.28-1,14.85-7-15.5-38.83-14.36-54.2-10.21S21.36,70.87,23.8,74c-13-3.43-10.44-14.36-11.09-12.57s-3.43,2.12-3.43,2.12,2.28-2.12,0-6.85,4.5-10.05,11.07-11.45,10.91.14,10.91.14v-2.1l1.95.7.7-4.75,1.68,1.54a12.72,12.72,0,0,1,1.26-3.22c-1.26-3.22-.84-6.85,3.91-10.07s3.64-4.75,3.64-4.75,2.38,2.65,2,1.82a3.88,3.88,0,0,1,.14-2.38l1,1.54c-.42-1.68.7-3.22,5.87-6.3a8.94,8.94,0,0,0,4.43-5.55c-.26.64-1.4,3-5.2,4.82-4.44,2.17-5.44,2.72-5.62,4.53l-.54-1.63-.91,2.81S44.33,20.1,43.25,20c.72,3.9-2.63,5.26-9.07,10.61S16.51,45.12,11.25,43.3C12.25,45,12.79,45,12.79,45s-6.52,1.63-8.52,8,5.62,9.52,1.18,12.42a2,2,0,0,0,2-.27s-3.54,6,.18,8,9.06-.36,7.88,5.44c.82.27,1.54-2.45,1.54-2.45S16,82.91,28.2,83.64c6.53.36,8,.9,7.43,3.44,1,.18,1.63-1.09,1.63-1.09s-1.9,4.81,8.8,6.17c7.61,1.63,12.59,4.35,8.61,9.51,3.71-1.54,4.44-3.53,5.71-5.71S64,92.43,68.44,91.7s16-3.8,16.77-9.33a9.68,9.68,0,0,0,1.63,1.54c-.45-1.54.54-4.44,5.35-5.26s5.8-3.81,5.44-7.07c1,1.45,2,1,2,1s-2.54-2,.45-3.9,8.43-6.8,6.17-15.13c1.27.36,1.45.9,1.45.9S108,50.56,103.34,47.11Z"/></clipPath><clipPath id="clip-path-3"><path class="cls-1" d="M44.28,59.12s7.84-4.65,16.24-2.53c3,1,0,7.1-4.9,11.09S39.31,61.89,44.28,59.12Z"/></clipPath><clipPath id="clip-path-4"><path class="cls-1" d="M107.15,51.82c-.22.77-.89,1.09-2.37.38,2.55,6.14-2.09,12.58-4.94,13.77a3.76,3.76,0,0,0-2.54,3.74,2.7,2.7,0,0,0-2.55-1.64c1.5,3,.45,7.18-3.44,8.08s-5.09,2.1-5.54,4.64c-1.19-1.5-.89-4.94-3.14-.75C77.84,90.82,61.08,88.57,60.78,91s-2.84,5.09-2.84,5.09-1.5-6.14-9.43-6.59S40.13,85,38.18,82.59a2.77,2.77,0,0,1-1.49,2.24s.29-3.89-5.24-3.59c-12.13.45-14.82-9.58-14.82-9.58a6.8,6.8,0,0,1-.9,3.29c-.3-1-1-3.29-5.83-2.84a3.68,3.68,0,0,1-4-2.12,3.23,3.23,0,0,0,1.7,3.13c3.71,2,9.06-.36,7.88,5.44.82.27,1.54-2.45,1.54-2.45S16,82.91,28.2,83.64c6.53.36,8,.9,7.43,3.44,1,.18,1.63-1.09,1.63-1.09s-1.9,4.81,8.8,6.17c7.61,1.63,12.59,4.35,8.61,9.51,3.71-1.54,4.44-3.53,5.71-5.71S64,92.43,68.44,91.7s16-3.8,16.77-9.33a9.68,9.68,0,0,0,1.63,1.54c-.45-1.54.54-4.44,5.35-5.26s5.8-3.81,5.44-7.07c1,1.45,2,1,2,1s-2.54-2,.45-3.9,8.43-6.8,6.17-15.13c1.27.36,1.45.9,1.45.9A6.7,6.7,0,0,0,107.15,51.82Z"/></clipPath><clipPath id="clip-path-5"><path class="cls-1" d="M59.8,47.61A2.73,2.73,0,1,0,62.44,45,2.64,2.64,0,0,0,59.8,47.61Z"/></clipPath><clipPath id="clip-path-6"><path class="cls-1" d="M47.53,48.38a2.74,2.74,0,1,1-2.91-2.32A2.65,2.65,0,0,1,47.53,48.38Z"/></clipPath><clipPath id="clip-path-7"><ellipse class="cls-1" cx="61.61" cy="52.59" rx="5.53" ry="3.61" transform="translate(-4.17 5.32) rotate(-4.78)"/></clipPath><clipPath id="clip-path-8"><ellipse class="cls-1" cx="45.99" cy="53.52" rx="5.05" ry="3.61" transform="translate(-3.93 3.65) rotate(-4.35)"/></clipPath></defs><title>ГЕОметка на карте</title><g class="cls-2"><g id="Layer_1" data-name="Layer 1"><path class="cls-3" d="M102.15,56c0,21.16-31.79,71-42.6,87.36a4.25,4.25,0,0,1-7.1,0C41.64,127,9.85,77.16,9.85,56a46.15,46.15,0,0,1,92.3,0Z"/><path class="cls-3" d="M56,112a56,56,0,1,1,56-56A56.06,56.06,0,0,1,56,112ZM56,2a54,54,0,1,0,54,54A54.06,54.06,0,0,0,56,2Z"/><g class="cls-4"><rect class="cls-5" x="2.28" y="11.67" width="1.65" height="90"/><rect class="cls-5" x="3.93" y="11.67" width="2.53" height="90"/><rect class="cls-5" x="6.46" y="11.67" width="2.53" height="90"/><rect class="cls-5" x="8.99" y="11.67" width="2.53" height="90"/><rect class="cls-6" x="11.53" y="11.67" width="2.53" height="90"/><rect class="cls-7" x="14.06" y="11.67" width="2.53" height="90"/><rect class="cls-7" x="16.59" y="11.67" width="2.53" height="90"/><rect class="cls-8" x="19.12" y="11.67" width="2.53" height="90"/><rect class="cls-8" x="21.65" y="11.67" width="2.53" height="90"/><rect class="cls-9" x="24.18" y="11.67" width="2.53" height="90"/><rect class="cls-9" x="26.71" y="11.67" width="2.53" height="90"/><rect class="cls-10" x="29.24" y="11.67" width="2.53" height="90"/><rect class="cls-11" x="31.77" y="11.67" width="2.53" height="90"/><rect class="cls-12" x="34.3" y="11.67" width="2.53" height="90"/><rect class="cls-13" x="36.83" y="11.67" width="2.53" height="90"/><rect class="cls-14" x="39.36" y="11.67" width="2.53" height="90"/><rect class="cls-15" x="41.89" y="11.67" width="2.53" height="90"/><rect class="cls-16" x="44.42" y="11.67" width="2.53" height="90"/><rect class="cls-17" x="46.95" y="11.67" width="2.53" height="90"/><rect class="cls-18" x="49.48" y="11.67" width="2.53" height="90"/><rect class="cls-19" x="52.02" y="11.67" width="2.53" height="90"/><rect class="cls-20" x="54.55" y="11.67" width="2.53" height="90"/><rect class="cls-21" x="57.08" y="11.67" width="2.53" height="90"/><rect class="cls-22" x="59.61" y="11.67" width="2.53" height="90"/><rect class="cls-23" x="62.14" y="11.67" width="2.53" height="90"/><rect class="cls-24" x="64.67" y="11.67" width="2.53" height="90"/><rect class="cls-25" x="67.2" y="11.67" width="2.53" height="90"/><rect class="cls-26" x="69.73" y="11.67" width="2.53" height="90"/><rect class="cls-27" x="72.26" y="11.67" width="2.53" height="90"/><rect class="cls-28" x="74.79" y="11.67" width="2.53" height="90"/><rect class="cls-29" x="77.32" y="11.67" width="2.53" height="90"/><rect class="cls-30" x="79.85" y="11.67" width="2.53" height="90"/><rect class="cls-31" x="82.38" y="11.67" width="2.53" height="90"/><rect class="cls-32" x="84.91" y="11.67" width="2.53" height="90"/><rect class="cls-33" x="87.44" y="11.67" width="2.53" height="90"/><rect class="cls-34" x="89.97" y="11.67" width="2.53" height="90"/><rect class="cls-35" x="92.51" y="11.67" width="2.53" height="90"/><rect class="cls-36" x="95.04" y="11.67" width="2.53" height="90"/><rect class="cls-37" x="97.57" y="11.67" width="2.53" height="90"/><rect class="cls-38" x="100.1" y="11.67" width="2.53" height="90"/><rect class="cls-39" x="102.63" y="11.67" width="2.53" height="90"/><rect class="cls-40" x="105.16" y="11.67" width="2.53" height="90"/><rect class="cls-40" x="107.69" y="11.67" width="0.81" height="90"/></g><g class="cls-41"><rect class="cls-42" x="2.28" y="11.84" width="1.65" height="89.83"/><rect class="cls-42" x="3.93" y="11.84" width="2.16" height="89.83"/><rect class="cls-42" x="6.09" y="11.84" width="2.16" height="89.83"/><rect class="cls-42" x="8.26" y="11.84" width="2.16" height="89.83"/><rect class="cls-42" x="10.42" y="11.84" width="2.16" height="89.83"/><rect class="cls-43" x="12.58" y="11.84" width="2.16" height="89.83"/><rect class="cls-43" x="14.74" y="11.84" width="2.16" height="89.83"/><rect class="cls-43" x="16.9" y="11.84" width="2.16" height="89.83"/><rect class="cls-44" x="19.06" y="11.84" width="2.16" height="89.83"/><rect class="cls-44" x="21.23" y="11.84" width="2.16" height="89.83"/><rect class="cls-45" x="23.39" y="11.84" width="2.16" height="89.83"/><rect class="cls-46" x="25.55" y="11.84" width="2.16" height="89.83"/><rect class="cls-46" x="27.71" y="11.84" width="2.16" height="89.83"/><rect class="cls-47" x="29.87" y="11.84" width="2.16" height="89.83"/><rect class="cls-47" x="32.03" y="11.84" width="2.16" height="89.83"/><rect class="cls-48" x="34.2" y="11.84" width="2.16" height="89.83"/><rect class="cls-49" x="36.36" y="11.84" width="2.16" height="89.83"/><rect class="cls-50" x="38.52" y="11.84" width="2.16" height="89.83"/><rect class="cls-51" x="40.68" y="11.84" width="2.16" height="89.83"/><rect class="cls-52" x="42.84" y="11.84" width="2.16" height="89.83"/><rect class="cls-52" x="45" y="11.84" width="2.16" height="89.83"/><rect class="cls-53" x="47.16" y="11.84" width="2.16" height="89.83"/><rect class="cls-54" x="49.33" y="11.84" width="2.16" height="89.83"/><rect class="cls-55" x="51.49" y="11.84" width="2.16" height="89.83"/><rect class="cls-56" x="53.65" y="11.84" width="2.16" height="89.83"/><rect class="cls-57" x="55.81" y="11.84" width="2.16" height="89.83"/><rect class="cls-58" x="57.97" y="11.84" width="2.16" height="89.83"/><rect class="cls-59" x="60.13" y="11.84" width="2.16" height="89.83"/><rect class="cls-60" x="62.3" y="11.84" width="2.16" height="89.83"/><rect class="cls-61" x="64.46" y="11.84" width="2.16" height="89.83"/><rect class="cls-62" x="66.62" y="11.84" width="2.16" height="89.83"/><rect class="cls-63" x="68.78" y="11.84" width="2.16" height="89.83"/><rect class="cls-64" x="70.94" y="11.84" width="2.16" height="89.83"/><rect class="cls-65" x="73.1" y="11.84" width="2.16" height="89.83"/><rect class="cls-66" x="75.27" y="11.84" width="2.16" height="89.83"/><rect class="cls-67" x="77.43" y="11.84" width="2.16" height="89.83"/><rect class="cls-68" x="79.59" y="11.84" width="2.16" height="89.83"/><rect class="cls-69" x="81.75" y="11.84" width="2.16" height="89.83"/><rect class="cls-70" x="83.91" y="11.84" width="2.16" height="89.83"/><rect class="cls-71" x="86.07" y="11.84" width="2.16" height="89.83"/><rect class="cls-72" x="88.23" y="11.84" width="2.16" height="89.83"/><rect class="cls-73" x="90.4" y="11.84" width="2.16" height="89.83"/><rect class="cls-74" x="92.56" y="11.84" width="2.16" height="89.83"/><rect class="cls-75" x="94.72" y="11.84" width="2.16" height="89.83"/><rect class="cls-76" x="96.88" y="11.84" width="2.16" height="89.83"/><rect class="cls-77" x="99.04" y="11.84" width="2.16" height="89.83"/><rect class="cls-78" x="101.2" y="11.84" width="2.16" height="89.83"/><rect class="cls-79" x="103.37" y="11.84" width="2.16" height="89.83"/><rect class="cls-80" x="105.53" y="11.84" width="2.16" height="89.83"/><rect class="cls-80" x="107.69" y="11.84" width="0.81" height="89.83"/></g><path class="cls-81" d="M35.52,36.32s-1.2-1.69-1-7-5.93-7.25-12.84-1.92c-5.55,4.84-6.2,11.53-2.66,14.34,3.39,2,5.82,2,10.52,1.55a18.8,18.8,0,0,1-1.07-2s2.45.7,3.43.85c-.46-2.38,1.65-5.84,1.65-5.84s.72,1.49,1.33,2.54A3,3,0,0,1,35.52,36.32Z"/><path class="cls-82" d="M35.52,36.32s-1.2-1.69-1-7c.18-4-3.18-6-7.76-4.66l.14,0c4.28-.86,6.51,1,6.64,4.17s-1.46,5.79-2.36,2.08-4.6-5-8.17-1.77-4.34,7.37-2.34,9.45,1,3-1.06,1.75c-3.9-2.72-1.43-8.35-.71-9.78-2.86,4.26-2.7,9,.12,11.2,3.39,2,5.82,2,10.52,1.55a18.8,18.8,0,0,1-1.07-2s2.45.7,3.43.85c-.46-2.38,1.65-5.84,1.65-5.84s.72,1.49,1.33,2.54A3,3,0,0,1,35.52,36.32Z"/><path class="cls-83" d="M20.82,33.43s1.64-4.2,5.18-5c2.55-.6,5.21,2.46,5.23,6.25s-3,5.89-7.43,5S20.15,35.2,20.82,33.43Z"/><g class="cls-84"><path class="cls-85" d="M26,28.39c-3.54.84-5.18,5-5.18,5a8.1,8.1,0,0,0-.47,1.87c.28-1,1.65-5.11,5.37-5,4.24.11,5.58,10.61-2.61,9.16l-.08,0a7.84,7.84,0,0,0,.77.2c4.43.84,7.45-1.26,7.43-5S28.55,27.79,26,28.39Z"/></g><path class="cls-86" d="M24.05,27.29a11.29,11.29,0,0,0-5.11,9.16c-.62,2.47-2.23-.78.42-5.62S26.79,25.73,24.05,27.29Z"/><path class="cls-81" d="M76.1,34.69s1.21-1.69,1-7S83,20.41,89.91,25.75c5.54,4.84,6.19,11.53,2.66,14.33-3.39,2-5.83,2-10.53,1.56a18.8,18.8,0,0,0,1.07-2s-2.45.7-3.42.85c.45-2.38-1.66-5.84-1.66-5.84s-.71,1.49-1.33,2.54A2.93,2.93,0,0,0,76.1,34.69Z"/><path class="cls-82" d="M76.1,34.69s1.21-1.69,1-7c-.18-4,3.18-6,7.75-4.65l-.14,0c-4.27-.86-6.5,1-6.64,4.17S79.5,33,80.41,29.24s4.6-5,8.16-1.77,4.35,7.37,2.35,9.44-1,3,1.06,1.76c3.9-2.72,1.42-8.35.71-9.78,2.85,4.26,2.69,9-.12,11.19-3.39,2-5.83,2-10.53,1.56a18.8,18.8,0,0,0,1.07-2s-2.45.7-3.42.85c.45-2.38-1.66-5.84-1.66-5.84s-.71,1.49-1.33,2.54A2.93,2.93,0,0,0,76.1,34.69Z"/><path class="cls-83" d="M90.81,31.8s-1.64-4.2-5.19-5c-2.55-.61-5.21,2.46-5.23,6.25s3,5.89,7.43,5.05S91.47,33.57,90.81,31.8Z"/><g class="cls-84"><path class="cls-85" d="M85.62,26.76c3.55.84,5.19,5,5.19,5a8.1,8.1,0,0,1,.47,1.87c-.28-1-1.65-5.11-5.38-5-4.24.11-5.57,10.61,2.62,9.16l.08,0a7.37,7.37,0,0,1-.78.2c-4.42.84-7.45-1.26-7.43-5.05S83.07,26.15,85.62,26.76Z"/></g><path class="cls-86" d="M87.58,25.66a11.28,11.28,0,0,1,5.1,9.15c.62,2.48,2.23-.77-.41-5.61S84.83,24.1,87.58,25.66Z"/><g class="cls-87"><path class="cls-88" d="M40.16,35.89S33,43.64,33.25,47.16l2.4,1.69L32.41,49s4.93,2.68,6.62,5.92c0,0-10.42,2.82-13,8.73l2.68-1.12s-3,2.39-3,5.77a7.91,7.91,0,0,1,5.77-.84l-2,1.69a21.57,21.57,0,0,1,15.5,8.17c2,2.82,5,1.44,5.89,1.06-1.35,1.57-1.41,2.27-1.41,2.27a11,11,0,0,1,3.3-1.4,6.23,6.23,0,0,0,0,2.54,17.12,17.12,0,0,1,3.24-3.3A24.31,24.31,0,0,0,57.19,81l.49-2.38,2.54.92s-.81-1.57-.38-1.84,5,.81,5,.81l-1-1.83s3-.54,3.89-2.6,9.81-13.46,18.39-10.81A9.52,9.52,0,0,0,84,60.47,7.24,7.24,0,0,1,87.8,62a9.49,9.49,0,0,0-3.55-4.45,5.1,5.1,0,0,1,3.09.58c-1.48-2-5.67-4.45-16.63-6.06.71-2.64,2.13-4.12,3.1-4.32-2.07-.71-2.52-.32-2.52-.32a2.7,2.7,0,0,1,2.19-1.23s-2.38-7.86-8.12-10.31c-3.22,1-9.48,5.16-10.31,8.51a3.8,3.8,0,0,1-.65-2.19,8,8,0,0,0-2,5.54,15.77,15.77,0,0,1-2.51-4.51l-.52,1.74A15.93,15.93,0,0,0,40.16,35.89Z"/></g><path class="cls-82" d="M41,37.06s-6.82,7.35-6.55,10.69l2.27,1.61-3.07.13s4.68,2.54,6.28,5.62c0,0-9.89,2.67-12.3,8.29l2.54-1.07s-2.81,2.27-2.81,5.48a7.57,7.57,0,0,1,5.49-.8L31,68.61a20.46,20.46,0,0,1,14.71,7.76c1.87,2.67,4.77,1.37,5.59,1-1.28,1.49-1.33,2.16-1.33,2.16a10.34,10.34,0,0,1,3.13-1.34,5.81,5.81,0,0,0,0,2.41,16.1,16.1,0,0,1,3.08-3.13,20.78,20.78,0,0,0,1.07,2.36l.46-2.25,2.42.87s-.77-1.49-.36-1.75,4.72.77,4.72.77l-.93-1.74s2.88-.51,3.7-2.46S76.49,60.5,84.63,63a9.2,9.2,0,0,0-2-2.63,6.88,6.88,0,0,1,3.61,1.41,8.9,8.9,0,0,0-3.37-4.22,4.83,4.83,0,0,1,2.94.55c-1.41-1.9-5.38-4.22-15.79-5.75.68-2.51,2-3.92,2.94-4.1-2-.68-2.39-.31-2.39-.31a2.59,2.59,0,0,1,2.09-1.16S70.37,39.33,64.93,37c-3.06,1-9,4.89-9.8,8.07A3.66,3.66,0,0,1,54.52,43a7.65,7.65,0,0,0-1.9,5.27A15.22,15.22,0,0,1,50.24,44l-.49,1.65A15.1,15.1,0,0,0,41,37.06Z"/><path class="cls-89" d="M82.61,60.38a6.88,6.88,0,0,1,3.61,1.41,8.9,8.9,0,0,0-3.37-4.22,4.83,4.83,0,0,1,2.94.55c-1.41-1.9-5.38-4.22-15.79-5.75.68-2.51,2-3.92,2.94-4.1-2-.68-2.39-.31-2.39-.31a2.59,2.59,0,0,1,2.09-1.16S70.37,39.33,64.93,37c-2.74.87-7.77,4.09-9.38,7,0,0,0,.08,0,.12,4-4.09,8.31-6.32,10.85-4.83s4.59,5.2,3.91,5.83-.93,2.35-1.68,4.34-1.55,2-5.14,2.48c17.86.68,19.35,7.31,19.35,7.31s-3.1,0-3.35.69c1.92.12,2.42,1.61,1,1.11s-2.36-.25-7.19,2.11-5.09,0-3.6-.87,2.79-1.86.8-1.49-2.79.87-3.53-.06-1.18-3-1.55-2.29a1.76,1.76,0,0,1-1.67,1.11c-.81,0-1.12-.74-1.37-2.41-.87-3.17-5-5.59-3.66-4.22s3,3.16.16,2.55c-6.39-1.36-14,2.28-14,2.28s.33-.65,4.08-4.57c-2.77,2-7.83,5.22-7.18,8.65s.33,6.36-3.59,4.73-3.26-3.91-5.87-2.93c.65-2.29,5.22-5.39.49-3.43,1.47-2.12,9.46-5.06,14.52-7.64-2.12,0-5.22,2.25-6,.62s-.32-4.08-2.61-5.06c-4.4-2.28-.32-6.36,2-8.32,2-1.69,6.48,2,7.69,3a15.55,15.55,0,0,0-7.3-5.8s-6.82,7.35-6.55,10.69l2.27,1.61-3.07.13s4.68,2.54,6.28,5.62c0,0-9.89,2.67-12.3,8.29l2.54-1.07s-2.81,2.27-2.81,5.48a7.57,7.57,0,0,1,5.49-.8L31,68.61a20.46,20.46,0,0,1,14.71,7.76c1.87,2.67,4.77,1.37,5.59,1-1.28,1.49-1.33,2.16-1.33,2.16a10.34,10.34,0,0,1,3.13-1.34,5.81,5.81,0,0,0,0,2.41,16.1,16.1,0,0,1,3.08-3.13,20.78,20.78,0,0,0,1.07,2.36l.46-2.25,2.42.87s-.77-1.49-.36-1.75,4.72.77,4.72.77l-.93-1.74s2.88-.51,3.7-2.46S76.49,60.5,84.63,63A9.2,9.2,0,0,0,82.61,60.38Z"/><path class="cls-82" d="M51.71,67.93s-6.69-4.41-9-.82,1.38,5.6,4.25,6,5.29,1.1,6.47-2.72c2.64,2.65,4.78,3.53,8.45.29s5.81-7,4.93-9S62,59.47,58.6,63.3A14.72,14.72,0,0,1,51.71,67.93Z"/><g class="cls-90"><rect class="cls-91" x="39.31" y="54.47" width="3.75" height="17.22"/><rect class="cls-91" x="43.05" y="54.47" width="0.46" height="17.22"/><rect class="cls-92" x="43.51" y="54.47" width="0.46" height="17.22"/><rect class="cls-93" x="43.96" y="54.47" width="0.46" height="17.22"/><rect class="cls-94" x="44.42" y="54.47" width="0.46" height="17.22"/><rect class="cls-95" x="44.88" y="54.47" width="0.46" height="17.22"/><rect class="cls-96" x="45.33" y="54.47" width="0.46" height="17.22"/><rect class="cls-97" x="45.79" y="54.47" width="0.46" height="17.22"/><rect class="cls-98" x="46.24" y="54.47" width="0.46" height="17.22"/><rect class="cls-99" x="46.7" y="54.47" width="0.46" height="17.22"/><rect class="cls-100" x="47.15" y="54.47" width="0.46" height="17.22"/><rect class="cls-101" x="47.61" y="54.47" width="0.46" height="17.22"/><rect class="cls-102" x="48.06" y="54.47" width="0.46" height="17.22"/><rect class="cls-103" x="48.52" y="54.47" width="0.46" height="17.22"/><rect class="cls-104" x="48.97" y="54.47" width="0.46" height="17.22"/><rect class="cls-105" x="49.43" y="54.47" width="0.46" height="17.22"/><rect class="cls-106" x="49.89" y="54.47" width="0.46" height="17.22"/><rect class="cls-107" x="50.34" y="54.47" width="0.46" height="17.22"/><rect class="cls-108" x="50.8" y="54.47" width="0.46" height="17.22"/><rect class="cls-109" x="51.25" y="54.47" width="0.46" height="17.22"/><rect class="cls-110" x="51.71" y="54.47" width="0.46" height="17.22"/><rect class="cls-111" x="52.16" y="54.47" width="0.46" height="17.22"/><rect class="cls-112" x="52.62" y="54.47" width="0.46" height="17.22"/><rect class="cls-113" x="53.07" y="54.47" width="0.46" height="17.22"/><rect class="cls-114" x="53.53" y="54.47" width="0.46" height="17.22"/><rect class="cls-115" x="53.98" y="54.47" width="0.46" height="17.22"/><rect class="cls-116" x="54.44" y="54.47" width="0.46" height="17.22"/><rect class="cls-117" x="54.9" y="54.47" width="0.46" height="17.22"/><rect class="cls-118" x="55.35" y="54.47" width="0.46" height="17.22"/><rect class="cls-119" x="55.81" y="54.47" width="0.46" height="17.22"/><rect class="cls-120" x="56.26" y="54.47" width="0.46" height="17.22"/><rect class="cls-121" x="56.72" y="54.47" width="0.46" height="17.22"/><rect class="cls-122" x="57.17" y="54.47" width="0.46" height="17.22"/><rect class="cls-123" x="57.63" y="54.47" width="0.46" height="17.22"/><rect class="cls-124" x="58.08" y="54.47" width="0.46" height="17.22"/><rect class="cls-125" x="58.54" y="54.47" width="0.46" height="17.22"/><rect class="cls-126" x="58.99" y="54.47" width="0.46" height="17.22"/><rect class="cls-127" x="59.45" y="54.47" width="0.46" height="17.22"/><rect class="cls-128" x="59.9" y="54.47" width="0.46" height="17.22"/><rect class="cls-129" x="60.36" y="54.47" width="0.46" height="17.22"/><rect class="cls-130" x="60.82" y="54.47" width="0.46" height="17.22"/><rect class="cls-131" x="61.27" y="54.47" width="0.46" height="17.22"/><rect class="cls-131" x="61.73" y="54.47" width="1.81" height="17.22"/></g><g class="cls-84"><path class="cls-132" d="M50.49,68.14s-.51-3.67-2.27-4.62-2.69-.64-2.72,0S49.17,64.54,50.49,68.14Z"/></g><g class="cls-84"><path class="cls-132" d="M56.37,66.92S56,64.2,57.8,63.08s2.28-2.07,1.36-2.31-3.26,1.46-3.91,2.51S56.24,65.77,56.37,66.92Z"/></g><g class="cls-133"><path class="cls-134" d="M57.9,57.12c0,.18-.41.27-.85.22s-.8-.25-.77-.42.4-.27.85-.22S57.92,57,57.9,57.12Z"/></g><g class="cls-133"><path class="cls-134" d="M44.71,60.24a21.2,21.2,0,0,1,10.35-3C57,57.31,52,55.13,44.71,60.24Z"/></g><g class="cls-135"><path class="cls-136" d="M41.11,54.68l.28-.14c.18-.09.46-.22.82-.37l.59-.24.71-.25c.25-.1.52-.18.81-.27l.91-.28,1-.27,1.07-.24c.74-.18,1.53-.3,2.35-.45.41-.07.83-.12,1.25-.18s.84-.13,1.28-.16l1.31-.12.65-.06.67,0c.88,0,1.76-.1,2.63-.09h1.92l.63,0,2.38.11,2.12.18,1,.09.85.12,1.37.19,1.2.18-1.21-.09-1.38-.1-.85-.06-1,0L62.35,52,60,52H58.73l-1.28,0c-.87,0-1.74.07-2.62.11l-.65,0-.66,0-1.29.11c-.86.08-1.7.19-2.52.29s-1.6.23-2.33.38l-1.08.21-1,.22c-.32.07-.63.16-.92.23s-.56.14-.82.22l-.72.21-.6.2-.84.3Z"/></g><g class="cls-135"><path class="cls-132" d="M60.52,56.59l-.68-.16c2.17.85-.18,3-2.94,3.74-3.22.89-2.4,4.78-5.13,4.78s-3.76-3.35-7-3.35c-1.61,0-1.76-.76-1.51-1.51-1.84,3.55,7.92,11.21,12.34,7.59C60.52,63.69,63.54,57.57,60.52,56.59Z"/></g><path class="cls-82" d="M48.14,74.12s3.7,1.09,4.79-1.1c.89-1.64,1,0,3.08.68s4.92-1,6-2.11a1.75,1.75,0,0,1,3.14.61c.34,1.5-.48,2.53-2.46,2.67s-1.3.27-.68.75-.62.75-2.53.27.2,2-2,.62-.75,1.16-1.5,0-1.78.2-2.8.82S52.52,76.65,53,76s-1.57,1.16-4.1.62S46.57,73.91,48.14,74.12Z"/><path class="cls-89" d="M47.5,56.86s2.27-4.75,5.51-5,4.54,3.47,4.54,3.47A25.61,25.61,0,0,0,47.5,56.86Z"/><path class="cls-137" d="M50.39,55.9a37.81,37.81,0,0,1,4.37-.6c-.34-3.08-.92-3.51-1.75-3.42S50.39,55.9,50.39,55.9Z"/><g class="cls-135"><path class="cls-136" d="M69.77,61.49a1.86,1.86,0,0,1-.27.11l-.34.13-.41.11-.23,0-.23,0a1.89,1.89,0,0,1-.47,0,1.56,1.56,0,0,1-.45-.14,2.48,2.48,0,0,1-.4-.26c-.12-.11-.24-.22-.35-.34a5.68,5.68,0,0,1-.5-.74,8.76,8.76,0,0,1-.42-.82,3.57,3.57,0,0,0,.58,1.82,3.07,3.07,0,0,0,.38.44,2,2,0,0,0,.5.34l.17.07,0,.15c0,.1,0,.22-.07.36l-.11.45c0,.17-.11.34-.17.53s-.15.38-.23.58-.17.4-.27.61-.19.41-.3.61-.21.42-.32.61-.21.4-.32.59c-.21.38-.42.73-.59,1l-.59,1a7,7,0,0,0,.82-.86c.11-.14.24-.29.36-.45s.25-.34.37-.52.25-.38.36-.58.24-.42.35-.63.2-.43.29-.64.17-.44.25-.65.12-.43.17-.63.07-.4.09-.57a4.57,4.57,0,0,0,0-.49,2.12,2.12,0,0,0,0-.38s0-.09,0-.13a1.55,1.55,0,0,0,.36.08,2.3,2.3,0,0,0,.59,0l.27-.06.25-.09a2.25,2.25,0,0,0,.41-.21l.18-.11.14-.11a1.16,1.16,0,0,0,.23-.19L70,61.4Z"/></g><g class="cls-133"><path class="cls-134" d="M46.23,52.86A66.69,66.69,0,0,1,60,51.55,24.13,24.13,0,0,0,46.23,52.86Z"/></g><path class="cls-86" d="M43.43,68.44s.71-2.42,2.85-1.71,3.35,1.64,4.84,2.14S52.76,72.71,49,72.5,42.51,70.72,43.43,68.44Z"/><path class="cls-86" d="M54.9,69.15S58.82,66,60,63.81c1.31-2.55,3.7-2.92,5-1.92s.86,5.12-3.63,8.33S53.69,70.36,54.9,69.15Z"/><path d="M47.34,69.35l-2,.16-2,.18c-.73.07-1.51.14-2.29.24s-1.55.18-2.28.3l-1,.16c-.34,0-.65.13-.94.18s-.54.13-.78.18l-.32.08-.27.08-.52.15.5-.2.27-.1.32-.1c.23-.07.48-.16.77-.22s.6-.16.93-.22.68-.15,1.05-.2c.72-.13,1.5-.24,2.28-.33s1.57-.15,2.3-.21,1.43-.08,2-.1,1.08,0,1.42,0Z"/><path d="M47.34,67.65l-.48-.07-1.26-.16c-.52-.07-1.13-.13-1.78-.2s-1.35-.12-2-.16l-1-.06-1,0c-.33,0-.65,0-.95,0h-.84l-.72,0-.55,0-.48,0,.47-.09a5.27,5.27,0,0,1,.55-.09l.72-.08c.26,0,.54,0,.85-.06s.62,0,.95,0,.67,0,1,0l1.05,0c.71.06,1.41.12,2.06.2s1.26.19,1.78.27C46.66,67.47,47.34,67.65,47.34,67.65Z"/><path d="M47.19,67.18l-.4-.08-1-.21-1.46-.32-1.65-.37L41,65.83l-.77-.16c-.24,0-.47-.1-.69-.13L39,65.43l-.45-.07-.39,0h.39l.46,0,.6.06c.21,0,.44.06.69.1l.78.12,1.67.34c.57.13,1.13.26,1.66.4l1.43.4c.42.11.76.23,1,.3Z"/><path d="M57.49,69.2l.44-.07c.27,0,.67-.11,1.14-.17l1.63-.21c.59-.08,1.22-.15,1.86-.22l1.86-.18,1.64-.14c.47,0,.87,0,1.15-.07l.44,0-.43.07c-.28,0-.67.11-1.15.17l-1.62.21-1.87.22L60.72,69l-1.63.14c-.48,0-.88.06-1.16.07Z"/><path d="M57.84,68s.56-.26,1.43-.56c.44-.15.95-.33,1.51-.48l.87-.23c.29-.08.6-.14.9-.21l.91-.17.89-.12c.28,0,.56-.06.83-.07l.75,0,.63,0c.19,0,.36,0,.49,0l.42,0h-.42a4,4,0,0,0-.49,0l-.62,0-.74.07-.83.1-.87.15-.9.17c-.3.07-.6.12-.9.2s-.58.13-.86.21l-.81.2-.72.2-1.07.31Z"/><path d="M57.72,67.06l.4-.19c.25-.11.62-.28,1.07-.46s1-.38,1.54-.58,1.19-.39,1.81-.57l.93-.24.91-.19.86-.15.78-.09.66,0a4.58,4.58,0,0,1,.51,0h.44l-.44,0c-.14,0-.31,0-.5,0l-.65.09-.77.13-.84.18c-.59.14-1.21.29-1.82.46l-.92.26L60.8,66c-.57.18-1.11.35-1.56.51l-1.11.38Z"/><g class="cls-138"><rect class="cls-5" x="5.91" y="51.82" width="0.01" height="49.86"/><rect class="cls-5" x="5.93" y="51.82" width="2.48" height="49.86"/><rect class="cls-5" x="8.41" y="51.82" width="2.48" height="49.86"/><rect class="cls-5" x="10.89" y="51.82" width="2.48" height="49.86"/><rect class="cls-6" x="13.37" y="51.82" width="2.48" height="49.86"/><rect class="cls-7" x="15.86" y="51.82" width="2.48" height="49.86"/><rect class="cls-7" x="18.34" y="51.82" width="2.48" height="49.86"/><rect class="cls-8" x="20.82" y="51.82" width="2.48" height="49.86"/><rect class="cls-8" x="23.3" y="51.82" width="2.48" height="49.86"/><rect class="cls-9" x="25.78" y="51.82" width="2.48" height="49.86"/><rect class="cls-9" x="28.27" y="51.82" width="2.48" height="49.86"/><rect class="cls-10" x="30.75" y="51.82" width="2.48" height="49.86"/><rect class="cls-11" x="33.23" y="51.82" width="2.48" height="49.86"/><rect class="cls-12" x="35.71" y="51.82" width="2.48" height="49.86"/><rect class="cls-13" x="38.19" y="51.82" width="2.48" height="49.86"/><rect class="cls-14" x="40.68" y="51.82" width="2.48" height="49.86"/><rect class="cls-15" x="43.16" y="51.82" width="2.48" height="49.86"/><rect class="cls-16" x="45.64" y="51.82" width="2.48" height="49.86"/><rect class="cls-17" x="48.12" y="51.82" width="2.48" height="49.86"/><rect class="cls-18" x="50.6" y="51.82" width="2.48" height="49.86"/><rect class="cls-19" x="53.09" y="51.82" width="2.48" height="49.86"/><rect class="cls-20" x="55.57" y="51.82" width="2.48" height="49.86"/><rect class="cls-21" x="58.05" y="51.82" width="2.48" height="49.86"/><rect class="cls-22" x="60.53" y="51.82" width="2.48" height="49.86"/><rect class="cls-23" x="63.01" y="51.82" width="2.48" height="49.86"/><rect class="cls-24" x="65.5" y="51.82" width="2.48" height="49.86"/><rect class="cls-25" x="67.98" y="51.82" width="2.48" height="49.86"/><rect class="cls-26" x="70.46" y="51.82" width="2.48" height="49.86"/><rect class="cls-27" x="72.94" y="51.82" width="2.48" height="49.86"/><rect class="cls-28" x="75.42" y="51.82" width="2.48" height="49.86"/><rect class="cls-29" x="77.91" y="51.82" width="2.48" height="49.86"/><rect class="cls-30" x="80.39" y="51.82" width="2.48" height="49.86"/><rect class="cls-31" x="82.87" y="51.82" width="2.48" height="49.86"/><rect class="cls-32" x="85.35" y="51.82" width="2.48" height="49.86"/><rect class="cls-33" x="87.83" y="51.82" width="2.48" height="49.86"/><rect class="cls-34" x="90.32" y="51.82" width="2.48" height="49.86"/><rect class="cls-35" x="92.8" y="51.82" width="2.48" height="49.86"/><rect class="cls-36" x="95.28" y="51.82" width="2.48" height="49.86"/><rect class="cls-37" x="97.76" y="51.82" width="2.48" height="49.86"/><rect class="cls-38" x="100.24" y="51.82" width="2.48" height="49.86"/><rect class="cls-39" x="102.73" y="51.82" width="2.48" height="49.86"/><rect class="cls-40" x="105.21" y="51.82" width="2.48" height="49.86"/><rect class="cls-40" x="107.69" y="51.82" width="0.81" height="49.86"/></g><g class="cls-133"><path class="cls-136" d="M57.59,15.85S49.08,20.77,50,24.6C48.48,21.85,50,18.85,57.59,15.85Z"/></g><g class="cls-133"><path class="cls-136" d="M46.53,26s-6,2.12-5.93,6.26C38.93,30,41.05,25.74,46.53,26Z"/></g><g class="cls-133"><path class="cls-136" d="M55,19.28s-3.26,3-1.84,5.93C51.2,24.46,51.62,21.37,55,19.28Z"/></g><g class="cls-135"><path class="cls-139" d="M62.3,41.8s1.24-.24,6.53,1.34a18.41,18.41,0,0,0-6.6-3.06C62.28,40.31,62.3,41.8,62.3,41.8Z"/></g><path class="cls-88" d="M62.1,41.63s1.23-.25,6.52,1.34a18,18,0,0,0-6.54-2.89A13.88,13.88,0,0,1,62.1,41.63Z"/><g class="cls-135"><path class="cls-139" d="M44.82,42.48s-1.26,0-6.16,2.55a18.22,18.22,0,0,1,5.91-4.25C44.55,41,44.82,42.48,44.82,42.48Z"/></g><path class="cls-88" d="M45,42.27s-1.26,0-6.16,2.55a18.12,18.12,0,0,1,5.88-4.07A12.84,12.84,0,0,0,45,42.27Z"/><path d="M66.49,48.45a5.37,5.37,0,0,1-3.27,1.71,9.76,9.76,0,0,1-3.87-.26L58,50.37l.09-1s.73-3.89,3.53-4.74c0,0,3.17-1.26,5.75,2.19C67.34,46.86,68.34,47.9,66.49,48.45Z"/><path class="cls-134" d="M58.25,49.7c.56-1.83.81-3.55,3.14-4.61s4.76.76,5.51,2.44a5.3,5.3,0,0,1-3.34,2.37,8.65,8.65,0,0,1-4.25-.24Z"/><path class="cls-140" d="M58.25,49.7c.56-1.83.81-3.55,3.14-4.61s4.76.76,5.51,2.44a5.34,5.34,0,0,1-2.81,2.23l-2.12-4a4.49,4.49,0,0,0-3.11,3.14,3,3,0,0,0,1.35,1,7.08,7.08,0,0,1-.9-.23Z"/><g class="cls-141"><polygon class="cls-142" points="64.93 50.1 65.3 50.09 65.3 50.1 64.93 50.1"/><polygon class="cls-143" points="63.73 50.1 65.3 50.05 65.3 50.09 64.93 50.1 63.73 50.1"/><polygon class="cls-144" points="62.53 50.1 65.3 50.01 65.3 50.05 63.73 50.1 62.53 50.1"/><polygon class="cls-145" points="61.33 50.1 65.3 49.96 65.3 50.01 62.53 50.1 61.33 50.1"/><polygon class="cls-146" points="60.13 50.1 65.3 49.92 65.3 49.96 61.33 50.1 60.13 50.1"/><polygon class="cls-147" points="59.75 50.07 65.3 49.88 65.3 49.92 60.13 50.1 59.75 50.1 59.75 50.07"/><polygon class="cls-148" points="59.75 50.03 65.3 49.83 65.3 49.88 59.75 50.07 59.75 50.03"/><polygon class="cls-149" points="59.75 49.99 65.3 49.79 65.3 49.83 59.75 50.03 59.75 49.99"/><polygon class="cls-150" points="59.75 49.95 65.3 49.75 65.3 49.79 59.75 49.99 59.75 49.95"/><polygon class="cls-151" points="59.75 49.9 65.3 49.7 65.3 49.75 59.75 49.95 59.75 49.9"/><polygon class="cls-152" points="59.75 49.86 65.3 49.66 65.3 49.7 59.75 49.9 59.75 49.86"/><polygon class="cls-153" points="59.75 49.82 65.3 49.62 65.3 49.66 59.75 49.86 59.75 49.82"/><polygon class="cls-154" points="59.75 49.77 65.3 49.58 65.3 49.62 59.75 49.82 59.75 49.77"/><polygon class="cls-155" points="59.75 49.73 65.3 49.53 65.3 49.58 59.75 49.77 59.75 49.73"/><polygon class="cls-156" points="59.75 49.69 65.3 49.49 65.3 49.53 59.75 49.73 59.75 49.69"/><polygon class="cls-157" points="59.75 49.65 65.3 49.45 65.3 49.49 59.75 49.69 59.75 49.65"/><polygon class="cls-158" points="59.75 49.6 65.3 49.41 65.3 49.45 59.75 49.65 59.75 49.6"/><polygon class="cls-159" points="59.75 49.56 65.3 49.36 65.3 49.41 59.75 49.6 59.75 49.56"/><polygon class="cls-160" points="59.75 49.52 65.3 49.32 65.3 49.36 59.75 49.56 59.75 49.52"/><polygon class="cls-161" points="59.75 49.48 65.3 49.28 65.3 49.32 59.75 49.52 59.75 49.48"/><polygon class="cls-162" points="59.75 49.43 65.3 49.23 65.3 49.28 59.75 49.48 59.75 49.43"/><polygon class="cls-163" points="59.75 49.39 65.3 49.19 65.3 49.23 59.75 49.43 59.75 49.39"/><polygon class="cls-164" points="59.75 49.35 65.3 49.15 65.3 49.19 59.75 49.39 59.75 49.35"/><polygon class="cls-165" points="59.75 49.3 65.3 49.11 65.3 49.15 59.75 49.35 59.75 49.3"/><polygon class="cls-166" points="59.75 49.26 65.3 49.06 65.3 49.11 59.75 49.3 59.75 49.26"/><polygon class="cls-167" points="59.75 49.22 65.3 49.02 65.3 49.06 59.75 49.26 59.75 49.22"/><polygon class="cls-168" points="59.75 49.18 65.3 48.98 65.3 49.02 59.75 49.22 59.75 49.18"/><polygon class="cls-169" points="59.75 49.13 65.3 48.94 65.3 48.98 59.75 49.18 59.75 49.13"/><polygon class="cls-170" points="59.75 49.09 65.3 48.89 65.3 48.94 59.75 49.13 59.75 49.09"/><polygon class="cls-171" points="59.75 49.05 65.3 48.85 65.3 48.89 59.75 49.09 59.75 49.05"/><polygon class="cls-172" points="59.75 49.01 65.3 48.81 65.3 48.85 59.75 49.05 59.75 49.01"/><polygon class="cls-173" points="59.75 48.96 65.3 48.77 65.3 48.81 59.75 49.01 59.75 48.96"/><polygon class="cls-174" points="59.75 48.92 65.3 48.72 65.3 48.77 59.75 48.96 59.75 48.92"/><polygon class="cls-175" points="59.75 48.88 65.3 48.68 65.3 48.72 59.75 48.92 59.75 48.88"/><polygon class="cls-176" points="59.75 48.83 65.3 48.64 65.3 48.68 59.75 48.88 59.75 48.83"/><polygon class="cls-177" points="59.75 48.79 65.3 48.59 65.3 48.64 59.75 48.83 59.75 48.79"/><polygon class="cls-178" points="59.75 48.75 65.3 48.55 65.3 48.59 59.75 48.79 59.75 48.75"/><polygon class="cls-179" points="59.75 48.71 65.3 48.51 65.3 48.55 59.75 48.75 59.75 48.71"/><polygon class="cls-180" points="59.75 48.66 65.3 48.47 65.3 48.51 59.75 48.71 59.75 48.66"/><polygon class="cls-181" points="59.75 48.62 65.3 48.42 65.3 48.47 59.75 48.66 59.75 48.62"/><polygon class="cls-182" points="59.75 48.58 65.3 48.38 65.3 48.42 59.75 48.62 59.75 48.58"/><polygon class="cls-183" points="59.75 48.53 65.3 48.34 65.3 48.38 59.75 48.58 59.75 48.53"/><polygon class="cls-184" points="59.75 48.49 65.3 48.29 65.3 48.34 59.75 48.53 59.75 48.49"/><polygon class="cls-185" points="59.75 48.45 65.3 48.25 65.3 48.29 59.75 48.49 59.75 48.45"/><polygon class="cls-186" points="59.75 48.41 65.3 48.21 65.3 48.25 59.75 48.45 59.75 48.41"/><polygon class="cls-187" points="59.75 48.36 65.3 48.17 65.3 48.21 59.75 48.41 59.75 48.36"/><polygon class="cls-188" points="59.75 48.32 65.3 48.12 65.3 48.17 59.75 48.36 59.75 48.32"/><polygon class="cls-189" points="59.75 48.28 65.3 48.08 65.3 48.12 59.75 48.32 59.75 48.28"/><polygon class="cls-190" points="59.75 48.23 65.3 48.04 65.3 48.08 59.75 48.28 59.75 48.23"/><polygon class="cls-191" points="59.75 48.19 65.3 47.99 65.3 48.04 59.75 48.23 59.75 48.19"/><polygon class="cls-192" points="59.75 48.15 65.3 47.95 65.3 47.99 59.75 48.19 59.75 48.15"/><polygon class="cls-193" points="59.75 48.11 65.3 47.91 65.3 47.95 59.75 48.15 59.75 48.11"/><polygon class="cls-194" points="59.75 48.06 65.3 47.87 65.3 47.91 59.75 48.11 59.75 48.06"/><polygon class="cls-195" points="59.75 48.02 65.3 47.82 65.3 47.87 59.75 48.06 59.75 48.02"/><polygon class="cls-196" points="59.75 47.98 65.3 47.78 65.3 47.82 59.75 48.02 59.75 47.98"/><polygon class="cls-197" points="59.75 47.94 65.3 47.74 65.3 47.78 59.75 47.98 59.75 47.94"/><polygon class="cls-198" points="59.75 47.89 65.3 47.7 65.3 47.74 59.75 47.94 59.75 47.89"/><polygon class="cls-199" points="59.75 47.85 65.3 47.65 65.3 47.7 59.75 47.89 59.75 47.85"/><polygon class="cls-200" points="59.75 47.81 65.3 47.61 65.3 47.65 59.75 47.85 59.75 47.81"/><polygon class="cls-201" points="59.75 47.77 65.3 47.57 65.3 47.61 59.75 47.81 59.75 47.77"/><polygon class="cls-202" points="59.75 47.72 65.3 47.52 65.3 47.57 59.75 47.77 59.75 47.72"/><polygon class="cls-203" points="59.75 47.68 65.3 47.48 65.3 47.52 59.75 47.72 59.75 47.68"/><polygon class="cls-204" points="59.75 47.64 65.3 47.44 65.3 47.48 59.75 47.68 59.75 47.64"/><polygon class="cls-205" points="59.75 47.59 65.3 47.4 65.3 47.44 59.75 47.64 59.75 47.59"/><polygon class="cls-206" points="59.75 47.55 65.3 47.35 65.3 47.4 59.75 47.59 59.75 47.55"/><polygon class="cls-207" points="59.75 47.51 65.3 47.31 65.3 47.35 59.75 47.55 59.75 47.51"/><polygon class="cls-208" points="59.75 47.47 65.3 47.27 65.3 47.31 59.75 47.51 59.75 47.47"/><polygon class="cls-209" points="59.75 47.42 65.3 47.23 65.3 47.27 59.75 47.47 59.75 47.42"/><polygon class="cls-210" points="59.75 47.38 65.3 47.18 65.3 47.23 59.75 47.42 59.75 47.38"/><polygon class="cls-211" points="59.75 47.34 65.3 47.14 65.3 47.18 59.75 47.38 59.75 47.34"/><polygon class="cls-212" points="59.75 47.3 65.3 47.1 65.3 47.14 59.75 47.34 59.75 47.3"/><polygon class="cls-213" points="59.75 47.25 65.3 47.05 65.3 47.1 59.75 47.3 59.75 47.25"/><polygon class="cls-214" points="59.75 47.21 65.3 47.01 65.3 47.05 59.75 47.25 59.75 47.21"/><polygon class="cls-215" points="59.75 47.17 65.3 46.97 65.3 47.01 59.75 47.21 59.75 47.17"/><polygon class="cls-216" points="59.75 47.12 65.3 46.93 65.3 46.97 59.75 47.17 59.75 47.12"/><polygon class="cls-217" points="59.75 47.08 65.3 46.88 65.3 46.93 59.75 47.12 59.75 47.08"/><polygon class="cls-218" points="59.75 47.04 65.3 46.84 65.3 46.88 59.75 47.08 59.75 47.04"/><polygon class="cls-219" points="59.75 46.99 65.3 46.8 65.3 46.84 59.75 47.04 59.75 46.99"/><polygon class="cls-220" points="59.75 46.95 65.3 46.76 65.3 46.8 59.75 46.99 59.75 46.95"/><polygon class="cls-221" points="59.75 46.91 65.3 46.71 65.3 46.76 59.75 46.95 59.75 46.91"/><polygon class="cls-222" points="59.75 46.87 65.3 46.67 65.3 46.71 59.75 46.91 59.75 46.87"/><polygon class="cls-223" points="59.75 46.82 65.3 46.63 65.3 46.67 59.75 46.87 59.75 46.82"/><polygon class="cls-224" points="59.75 46.78 65.3 46.58 65.3 46.63 59.75 46.82 59.75 46.78"/><polygon class="cls-225" points="59.75 46.74 65.3 46.54 65.3 46.58 59.75 46.78 59.75 46.74"/><polygon class="cls-226" points="59.75 46.7 65.3 46.5 65.3 46.54 59.75 46.74 59.75 46.7"/><polygon class="cls-227" points="59.75 46.65 65.3 46.46 65.3 46.5 59.75 46.7 59.75 46.65"/><polygon class="cls-228" points="59.75 46.61 65.3 46.41 65.3 46.46 59.75 46.65 59.75 46.61"/><polygon class="cls-229" points="59.75 46.57 65.3 46.37 65.3 46.41 59.75 46.61 59.75 46.57"/><polygon class="cls-230" points="59.75 46.52 65.3 46.33 65.3 46.37 59.75 46.57 59.75 46.52"/><polygon class="cls-231" points="59.75 46.48 65.3 46.28 65.3 46.33 59.75 46.52 59.75 46.48"/><polygon class="cls-232" points="59.75 46.44 65.3 46.24 65.3 46.28 59.75 46.48 59.75 46.44"/><polygon class="cls-233" points="59.75 46.4 65.3 46.2 65.3 46.24 59.75 46.44 59.75 46.4"/><polygon class="cls-234" points="59.75 46.35 65.3 46.16 65.3 46.2 59.75 46.4 59.75 46.35"/><polygon class="cls-235" points="59.75 46.31 65.3 46.11 65.3 46.16 59.75 46.35 59.75 46.31"/><polygon class="cls-236" points="59.75 46.27 65.3 46.07 65.3 46.11 59.75 46.31 59.75 46.27"/><polygon class="cls-237" points="59.75 46.23 65.3 46.03 65.3 46.07 59.75 46.27 59.75 46.23"/><polygon class="cls-238" points="59.75 46.18 65.3 45.99 65.3 46.03 59.75 46.23 59.75 46.18"/><polygon class="cls-239" points="59.75 46.14 65.3 45.94 65.3 45.99 59.75 46.18 59.75 46.14"/><polygon class="cls-240" points="59.75 46.1 65.3 45.9 65.3 45.94 59.75 46.14 59.75 46.1"/><polygon class="cls-241" points="59.75 46.05 65.3 45.86 65.3 45.9 59.75 46.1 59.75 46.05"/><polygon class="cls-242" points="59.75 46.01 65.3 45.81 65.3 45.86 59.75 46.05 59.75 46.01"/><polygon class="cls-243" points="59.75 45.97 65.3 45.77 65.3 45.81 59.75 46.01 59.75 45.97"/><polygon class="cls-244" points="59.75 45.93 65.3 45.73 65.3 45.77 59.75 45.97 59.75 45.93"/><polygon class="cls-245" points="59.75 45.88 65.3 45.69 65.3 45.73 59.75 45.93 59.75 45.88"/><polygon class="cls-246" points="59.75 45.84 65.3 45.64 65.3 45.69 59.75 45.88 59.75 45.84"/><polygon class="cls-247" points="59.75 45.8 65.3 45.6 65.3 45.64 59.75 45.84 59.75 45.8"/><polygon points="59.75 45.76 65.3 45.56 65.3 45.6 59.75 45.8 59.75 45.76"/><polygon points="65.3 45.56 59.75 45.76 59.75 44.92 65.3 44.92 65.3 45.56"/></g><path class="cls-3" d="M60.11,47.6a2.43,2.43,0,1,0,2.34-2.34A2.33,2.33,0,0,0,60.11,47.6Z"/><path d="M60.81,47.58a1.73,1.73,0,1,0,1.66-1.67A1.67,1.67,0,0,0,60.81,47.58Z"/><path class="cls-86" d="M62.23,46.77a1,1,0,0,0,1,.9.94.94,0,1,0-.07-1.87A1,1,0,0,0,62.23,46.77Z"/><path class="cls-82" d="M60.93,48.76a.61.61,0,1,0,.59-.59A.58.58,0,0,0,60.93,48.76Z"/><path d="M66.88,47.54c-.88-1.68-3.2-3.31-5.58-2.27-2.14.95-2.48,2.73-3,4.44,0,0-.11,0-.09,0,.53-1.78,1.06-4,3.47-4.87s4.56,1,5.24,2.71c0,0,0,0,0,0Z"/><path d="M41,49.86a5.39,5.39,0,0,0,3.44,1.33,9.77,9.77,0,0,0,3.82-.67l1.43.31-.2-.94s-1.15-3.79-4-4.33c0,0-3.28-.91-5.47,2.8C40,48.36,39.08,49.51,41,49.86Z"/><path class="cls-134" d="M49.31,50.19c-.76-1.75-1.19-3.43-3.62-4.23S41,47.23,40.48,49a5.27,5.27,0,0,0,3.58,2,8.64,8.64,0,0,0,4.19-.71Z"/><path class="cls-140" d="M49.31,50.19c-.76-1.75-1.19-3.43-3.62-4.23S41,47.23,40.48,49a5.32,5.32,0,0,0,3,1.9l1.68-4.21a4.5,4.5,0,0,1,3.43,2.78,3.05,3.05,0,0,1-1.23,1.14,6.43,6.43,0,0,0,.86-.33Z"/><g class="cls-248"><polygon class="cls-249" points="47.07 51.23 47.63 51.19 47.63 51.23 47.07 51.23"/><polygon class="cls-250" points="46.49 51.23 47.63 51.14 47.63 51.19 47.07 51.23 46.49 51.23"/><polygon class="cls-251" points="45.91 51.23 47.63 51.1 47.63 51.14 46.49 51.23 45.91 51.23"/><polygon class="cls-142" points="45.34 51.23 47.63 51.06 47.63 51.1 45.91 51.23 45.34 51.23"/><polygon class="cls-143" points="44.76 51.23 47.63 51.01 47.63 51.06 45.34 51.23 44.76 51.23"/><polygon class="cls-144" points="44.18 51.23 47.63 50.97 47.63 51.01 44.76 51.23 44.18 51.23"/><polygon class="cls-145" points="43.6 51.23 47.63 50.93 47.63 50.97 44.18 51.23 43.6 51.23"/><polygon class="cls-146" points="43.02 51.23 47.63 50.89 47.63 50.93 43.6 51.23 43.02 51.23"/><polygon class="cls-147" points="42.44 51.23 47.63 50.84 47.63 50.89 43.02 51.23 42.44 51.23"/><polygon class="cls-148" points="41.99 51.22 47.63 50.8 47.63 50.84 42.44 51.23 41.99 51.23 41.99 51.22"/><polygon class="cls-149" points="41.99 51.17 47.63 50.76 47.63 50.8 41.99 51.22 41.99 51.17"/><polygon class="cls-150" points="41.99 51.13 47.63 50.71 47.63 50.76 41.99 51.17 41.99 51.13"/><polygon class="cls-151" points="41.99 51.09 47.63 50.67 47.63 50.71 41.99 51.13 41.99 51.09"/><polygon class="cls-152" points="41.99 51.05 47.63 50.63 47.63 50.67 41.99 51.09 41.99 51.05"/><polygon class="cls-153" points="41.99 51 47.63 50.59 47.63 50.63 41.99 51.05 41.99 51"/><polygon class="cls-154" points="41.99 50.96 47.63 50.54 47.63 50.59 41.99 51 41.99 50.96"/><polygon class="cls-155" points="41.99 50.92 47.63 50.5 47.63 50.54 41.99 50.96 41.99 50.92"/><polygon class="cls-156" points="41.99 50.88 47.63 50.46 47.63 50.5 41.99 50.92 41.99 50.88"/><polygon class="cls-157" points="41.99 50.83 47.63 50.41 47.63 50.46 41.99 50.88 41.99 50.83"/><polygon class="cls-158" points="41.99 50.79 47.63 50.37 47.63 50.41 41.99 50.83 41.99 50.79"/><polygon class="cls-159" points="41.99 50.75 47.63 50.33 47.63 50.37 41.99 50.79 41.99 50.75"/><polygon class="cls-160" points="41.99 50.7 47.63 50.29 47.63 50.33 41.99 50.75 41.99 50.7"/><polygon class="cls-161" points="41.99 50.66 47.63 50.24 47.63 50.29 41.99 50.7 41.99 50.66"/><polygon class="cls-162" points="41.99 50.62 47.63 50.2 47.63 50.24 41.99 50.66 41.99 50.62"/><polygon class="cls-163" points="41.99 50.58 47.63 50.16 47.63 50.2 41.99 50.62 41.99 50.58"/><polygon class="cls-164" points="41.99 50.53 47.63 50.12 47.63 50.16 41.99 50.58 41.99 50.53"/><polygon class="cls-165" points="41.99 50.49 47.63 50.07 47.63 50.12 41.99 50.53 41.99 50.49"/><polygon class="cls-166" points="41.99 50.45 47.63 50.03 47.63 50.07 41.99 50.49 41.99 50.45"/><polygon class="cls-167" points="41.99 50.4 47.63 49.99 47.63 50.03 41.99 50.45 41.99 50.4"/><polygon class="cls-168" points="41.99 50.36 47.63 49.94 47.63 49.99 41.99 50.4 41.99 50.36"/><polygon class="cls-169" points="41.99 50.32 47.63 49.9 47.63 49.94 41.99 50.36 41.99 50.32"/><polygon class="cls-170" points="41.99 50.27 47.63 49.86 47.63 49.9 41.99 50.32 41.99 50.27"/><polygon class="cls-171" points="41.99 50.23 47.63 49.81 47.63 49.86 41.99 50.27 41.99 50.23"/><polygon class="cls-172" points="41.99 50.19 47.63 49.77 47.63 49.81 41.99 50.23 41.99 50.19"/><polygon class="cls-173" points="41.99 50.15 47.63 49.73 47.63 49.77 41.99 50.19 41.99 50.15"/><polygon class="cls-174" points="41.99 50.1 47.63 49.69 47.63 49.73 41.99 50.15 41.99 50.1"/><polygon class="cls-175" points="41.99 50.06 47.63 49.64 47.63 49.69 41.99 50.1 41.99 50.06"/><polygon class="cls-176" points="41.99 50.02 47.63 49.6 47.63 49.64 41.99 50.06 41.99 50.02"/><polygon class="cls-177" points="41.99 49.98 47.63 49.56 47.63 49.6 41.99 50.02 41.99 49.98"/><polygon class="cls-178" points="41.99 49.93 47.63 49.52 47.63 49.56 41.99 49.98 41.99 49.93"/><polygon class="cls-179" points="41.99 49.89 47.63 49.47 47.63 49.52 41.99 49.93 41.99 49.89"/><polygon class="cls-180" points="41.99 49.85 47.63 49.43 47.63 49.47 41.99 49.89 41.99 49.85"/><polygon class="cls-181" points="41.99 49.8 47.63 49.39 47.63 49.43 41.99 49.85 41.99 49.8"/><polygon class="cls-182" points="41.99 49.76 47.63 49.34 47.63 49.39 41.99 49.8 41.99 49.76"/><polygon class="cls-183" points="41.99 49.72 47.63 49.3 47.63 49.34 41.99 49.76 41.99 49.72"/><polygon class="cls-184" points="41.99 49.68 47.63 49.26 47.63 49.3 41.99 49.72 41.99 49.68"/><polygon class="cls-185" points="41.99 49.63 47.63 49.22 47.63 49.26 41.99 49.68 41.99 49.63"/><polygon class="cls-186" points="41.99 49.59 47.63 49.17 47.63 49.22 41.99 49.63 41.99 49.59"/><polygon class="cls-187" points="41.99 49.55 47.63 49.13 47.63 49.17 41.99 49.59 41.99 49.55"/><polygon class="cls-188" points="41.99 49.5 47.63 49.09 47.63 49.13 41.99 49.55 41.99 49.5"/><polygon class="cls-189" points="41.99 49.46 47.63 49.04 47.63 49.09 41.99 49.5 41.99 49.46"/><polygon class="cls-190" points="41.99 49.42 47.63 49 47.63 49.04 41.99 49.46 41.99 49.42"/><polygon class="cls-191" points="41.99 49.38 47.63 48.96 47.63 49 41.99 49.42 41.99 49.38"/><polygon class="cls-192" points="41.99 49.33 47.63 48.91 47.63 48.96 41.99 49.38 41.99 49.33"/><polygon class="cls-193" points="41.99 49.29 47.63 48.87 47.63 48.91 41.99 49.33 41.99 49.29"/><polygon class="cls-194" points="41.99 49.25 47.63 48.83 47.63 48.87 41.99 49.29 41.99 49.25"/><polygon class="cls-195" points="41.99 49.2 47.63 48.79 47.63 48.83 41.99 49.25 41.99 49.2"/><polygon class="cls-196" points="41.99 49.16 47.63 48.74 47.63 48.79 41.99 49.2 41.99 49.16"/><polygon class="cls-197" points="41.99 49.12 47.63 48.7 47.63 48.74 41.99 49.16 41.99 49.12"/><polygon class="cls-198" points="41.99 49.08 47.63 48.66 47.63 48.7 41.99 49.12 41.99 49.08"/><polygon class="cls-199" points="41.99 49.03 47.63 48.62 47.63 48.66 41.99 49.08 41.99 49.03"/><polygon class="cls-200" points="41.99 48.99 47.63 48.57 47.63 48.62 41.99 49.03 41.99 48.99"/><polygon class="cls-201" points="41.99 48.95 47.63 48.53 47.63 48.57 41.99 48.99 41.99 48.95"/><polygon class="cls-202" points="41.99 48.9 47.63 48.49 47.63 48.53 41.99 48.95 41.99 48.9"/><polygon class="cls-203" points="41.99 48.86 47.63 48.44 47.63 48.49 41.99 48.9 41.99 48.86"/><polygon class="cls-204" points="41.99 48.82 47.63 48.4 47.63 48.44 41.99 48.86 41.99 48.82"/><polygon class="cls-205" points="41.99 48.78 47.63 48.36 47.63 48.4 41.99 48.82 41.99 48.78"/><polygon class="cls-206" points="41.99 48.73 47.63 48.31 47.63 48.36 41.99 48.78 41.99 48.73"/><polygon class="cls-207" points="41.99 48.69 47.63 48.27 47.63 48.31 41.99 48.73 41.99 48.69"/><polygon class="cls-208" points="41.99 48.65 47.63 48.23 47.63 48.27 41.99 48.69 41.99 48.65"/><polygon class="cls-209" points="41.99 48.6 47.63 48.19 47.63 48.23 41.99 48.65 41.99 48.6"/><polygon class="cls-210" points="41.99 48.56 47.63 48.14 47.63 48.19 41.99 48.6 41.99 48.56"/><polygon class="cls-211" points="41.99 48.52 47.63 48.1 47.63 48.14 41.99 48.56 41.99 48.52"/><polygon class="cls-212" points="41.99 48.48 47.63 48.06 47.63 48.1 41.99 48.52 41.99 48.48"/><polygon class="cls-213" points="41.99 48.43 47.63 48.02 47.63 48.06 41.99 48.48 41.99 48.43"/><polygon class="cls-214" points="41.99 48.39 47.63 47.97 47.63 48.02 41.99 48.43 41.99 48.39"/><polygon class="cls-215" points="41.99 48.35 47.63 47.93 47.63 47.97 41.99 48.39 41.99 48.35"/><polygon class="cls-216" points="41.99 48.3 47.63 47.89 47.63 47.93 41.99 48.35 41.99 48.3"/><polygon class="cls-217" points="41.99 48.26 47.63 47.84 47.63 47.89 41.99 48.3 41.99 48.26"/><polygon class="cls-218" points="41.99 48.22 47.63 47.8 47.63 47.84 41.99 48.26 41.99 48.22"/><polygon class="cls-219" points="41.99 48.18 47.63 47.76 47.63 47.8 41.99 48.22 41.99 48.18"/><polygon class="cls-220" points="41.99 48.13 47.63 47.72 47.63 47.76 41.99 48.18 41.99 48.13"/><polygon class="cls-221" points="41.99 48.09 47.63 47.67 47.63 47.72 41.99 48.13 41.99 48.09"/><polygon class="cls-222" points="41.99 48.05 47.63 47.63 47.63 47.67 41.99 48.09 41.99 48.05"/><polygon class="cls-223" points="41.99 48.01 47.63 47.59 47.63 47.63 41.99 48.05 41.99 48.01"/><polygon class="cls-224" points="41.99 47.96 47.63 47.54 47.63 47.59 41.99 48.01 41.99 47.96"/><polygon class="cls-225" points="41.99 47.92 47.63 47.5 47.63 47.54 41.99 47.96 41.99 47.92"/><polygon class="cls-226" points="41.99 47.88 47.63 47.46 47.63 47.5 41.99 47.92 41.99 47.88"/><polygon class="cls-227" points="41.99 47.83 47.63 47.41 47.63 47.46 41.99 47.88 41.99 47.83"/><polygon class="cls-228" points="41.99 47.79 47.63 47.37 47.63 47.41 41.99 47.83 41.99 47.79"/><polygon class="cls-229" points="41.99 47.75 47.63 47.33 47.63 47.37 41.99 47.79 41.99 47.75"/><polygon class="cls-230" points="41.99 47.7 47.63 47.29 47.63 47.33 41.99 47.75 41.99 47.7"/><polygon class="cls-231" points="41.99 47.66 47.63 47.24 47.63 47.29 41.99 47.7 41.99 47.66"/><polygon class="cls-232" points="41.99 47.62 47.63 47.2 47.63 47.24 41.99 47.66 41.99 47.62"/><polygon class="cls-233" points="41.99 47.58 47.63 47.16 47.63 47.2 41.99 47.62 41.99 47.58"/><polygon class="cls-234" points="41.99 47.53 47.63 47.12 47.63 47.16 41.99 47.58 41.99 47.53"/><polygon class="cls-235" points="41.99 47.49 47.63 47.07 47.63 47.12 41.99 47.53 41.99 47.49"/><polygon class="cls-236" points="41.99 47.45 47.63 47.03 47.63 47.07 41.99 47.49 41.99 47.45"/><polygon class="cls-237" points="41.99 47.41 47.63 46.99 47.63 47.03 41.99 47.45 41.99 47.41"/><polygon class="cls-238" points="41.99 47.36 47.63 46.94 47.63 46.99 41.99 47.41 41.99 47.36"/><polygon class="cls-239" points="41.99 47.32 47.63 46.9 47.63 46.94 41.99 47.36 41.99 47.32"/><polygon class="cls-240" points="41.99 47.28 47.63 46.86 47.63 46.9 41.99 47.32 41.99 47.28"/><polygon class="cls-241" points="41.99 47.23 47.63 46.81 47.63 46.86 41.99 47.28 41.99 47.23"/><polygon class="cls-242" points="41.99 47.19 47.63 46.77 47.63 46.81 41.99 47.23 41.99 47.19"/><polygon class="cls-243" points="41.99 47.15 47.63 46.73 47.63 46.77 41.99 47.19 41.99 47.15"/><polygon class="cls-244" points="41.99 47.1 47.63 46.69 47.63 46.73 41.99 47.15 41.99 47.1"/><polygon class="cls-245" points="41.99 47.06 47.63 46.64 47.63 46.69 41.99 47.1 41.99 47.06"/><polygon class="cls-246" points="41.99 47.02 47.63 46.6 47.63 46.64 41.99 47.06 41.99 47.02"/><polygon class="cls-247" points="41.99 46.98 47.63 46.56 47.63 46.6 41.99 47.02 41.99 46.98"/><polygon points="41.99 46.93 47.63 46.52 47.63 46.56 41.99 46.98 41.99 46.93"/><polygon points="47.63 46.52 41.99 46.93 41.99 45.94 47.63 45.94 47.63 46.52"/></g><path class="cls-3" d="M47.23,48.41a2.43,2.43,0,1,1-2.59-2.07A2.35,2.35,0,0,1,47.23,48.41Z"/><path d="M46.53,48.46A1.73,1.73,0,1,1,44.69,47,1.67,1.67,0,0,1,46.53,48.46Z"/><path class="cls-86" d="M45,47.82A1,1,0,1,1,44,47,1,1,0,0,1,45,47.82Z"/><path class="cls-82" d="M46.54,49.65a.59.59,0,0,1-.57.61.57.57,0,1,1,.57-.61Z"/><path d="M40.5,49c.69-1.76,2.82-3.64,5.29-2.86,2.24.7,2.77,2.44,3.47,4.08,0,0,.12,0,.1,0-.73-1.71-1.5-3.89-4-4.46S41,47.25,40.46,49c0,0,0,0,0,0Z"/><g class="cls-252"><g class="cls-253"><polygon class="cls-254" points="55.86 53 57.69 56.48 55.86 56.48 55.86 53"/><polygon class="cls-254" points="55.86 52.68 57.86 56.48 57.69 56.48 55.86 53 55.86 52.68"/><polygon class="cls-255" points="55.86 52.36 58.02 56.48 57.86 56.48 55.86 52.68 55.86 52.36"/><polygon class="cls-256" points="55.86 52.05 58.19 56.48 58.02 56.48 55.86 52.36 55.86 52.05"/><polygon class="cls-257" points="55.86 51.73 58.36 56.48 58.19 56.48 55.86 52.05 55.86 51.73"/><polygon class="cls-258" points="55.86 51.41 58.53 56.48 58.36 56.48 55.86 51.73 55.86 51.41"/><polygon class="cls-259" points="55.86 51.09 58.7 56.48 58.53 56.48 55.86 51.41 55.86 51.09"/><polygon class="cls-260" points="55.86 50.77 58.87 56.48 58.7 56.48 55.86 51.09 55.86 50.77"/><polygon class="cls-261" points="55.86 50.45 59.03 56.48 58.87 56.48 55.86 50.77 55.86 50.45"/><polygon class="cls-262" points="55.86 50.13 59.2 56.48 59.03 56.48 55.86 50.45 55.86 50.13"/><polygon class="cls-263" points="55.86 49.81 59.37 56.48 59.2 56.48 55.86 50.13 55.86 49.81"/><polygon class="cls-264" points="55.86 49.49 59.54 56.48 59.37 56.48 55.86 49.81 55.86 49.49"/><polygon class="cls-265" points="55.86 49.17 59.7 56.48 59.54 56.48 55.86 49.49 55.86 49.17"/><polygon class="cls-266" points="55.86 48.85 59.87 56.48 59.7 56.48 55.86 49.17 55.86 48.85"/><polygon class="cls-267" points="55.94 48.7 60.04 56.48 59.87 56.48 55.86 48.85 55.86 48.7 55.94 48.7"/><polygon class="cls-268" points="56.11 48.7 60.21 56.48 60.04 56.48 55.94 48.7 56.11 48.7"/><polygon class="cls-269" points="56.28 48.7 60.38 56.48 60.21 56.48 56.11 48.7 56.28 48.7"/><polygon class="cls-270" points="56.45 48.7 60.55 56.48 60.38 56.48 56.28 48.7 56.45 48.7"/><polygon class="cls-271" points="56.62 48.7 60.71 56.48 60.55 56.48 56.45 48.7 56.62 48.7"/><polygon class="cls-272" points="56.78 48.7 60.88 56.48 60.71 56.48 56.62 48.7 56.78 48.7"/><polygon class="cls-273" points="56.95 48.7 61.05 56.48 60.88 56.48 56.78 48.7 56.95 48.7"/><polygon class="cls-274" points="57.12 48.7 61.22 56.48 61.05 56.48 56.95 48.7 57.12 48.7"/><polygon class="cls-275" points="57.29 48.7 61.39 56.48 61.22 56.48 57.12 48.7 57.29 48.7"/><polygon class="cls-276" points="57.45 48.7 61.55 56.48 61.39 56.48 57.29 48.7 57.45 48.7"/><polygon class="cls-277" points="57.62 48.7 61.72 56.48 61.55 56.48 57.45 48.7 57.62 48.7"/><polygon class="cls-278" points="57.79 48.7 61.89 56.48 61.72 56.48 57.62 48.7 57.79 48.7"/><polygon class="cls-279" points="57.96 48.7 62.06 56.48 61.89 56.48 57.79 48.7 57.96 48.7"/><polygon class="cls-280" points="58.13 48.7 62.23 56.48 62.06 56.48 57.96 48.7 58.13 48.7"/><polygon class="cls-281" points="58.3 48.7 62.39 56.48 62.23 56.48 58.13 48.7 58.3 48.7"/><polygon class="cls-282" points="58.46 48.7 62.56 56.48 62.39 56.48 58.3 48.7 58.46 48.7"/><polygon class="cls-283" points="58.63 48.7 62.73 56.48 62.56 56.48 58.46 48.7 58.63 48.7"/><polygon class="cls-284" points="58.8 48.7 62.9 56.48 62.73 56.48 58.63 48.7 58.8 48.7"/><polygon class="cls-285" points="58.97 48.7 63.07 56.48 62.9 56.48 58.8 48.7 58.97 48.7"/><polygon class="cls-286" points="59.14 48.7 63.23 56.48 63.07 56.48 58.97 48.7 59.14 48.7"/><polygon class="cls-287" points="59.3 48.7 63.4 56.48 63.23 56.48 59.14 48.7 59.3 48.7"/><polygon class="cls-288" points="59.47 48.7 63.57 56.48 63.4 56.48 59.3 48.7 59.47 48.7"/><polygon class="cls-289" points="59.64 48.7 63.74 56.48 63.57 56.48 59.47 48.7 59.64 48.7"/><polygon class="cls-290" points="59.81 48.7 63.91 56.48 63.74 56.48 59.64 48.7 59.81 48.7"/><polygon class="cls-291" points="59.98 48.7 64.08 56.48 63.91 56.48 59.81 48.7 59.98 48.7"/><polygon class="cls-292" points="60.14 48.7 64.24 56.48 64.08 56.48 59.98 48.7 60.14 48.7"/><polygon class="cls-293" points="60.31 48.7 64.41 56.48 64.24 56.48 60.14 48.7 60.31 48.7"/><polygon class="cls-294" points="60.48 48.7 64.58 56.48 64.41 56.48 60.31 48.7 60.48 48.7"/><polygon class="cls-295" points="60.65 48.7 64.75 56.48 64.58 56.48 60.48 48.7 60.65 48.7"/><polygon class="cls-296" points="60.82 48.7 64.92 56.48 64.75 56.48 60.65 48.7 60.82 48.7"/><polygon class="cls-297" points="60.98 48.7 65.08 56.48 64.92 56.48 60.82 48.7 60.98 48.7"/><polygon class="cls-298" points="61.15 48.7 65.25 56.48 65.08 56.48 60.98 48.7 61.15 48.7"/><polygon class="cls-299" points="61.32 48.7 65.42 56.48 65.25 56.48 61.15 48.7 61.32 48.7"/><polygon class="cls-300" points="61.49 48.7 65.59 56.48 65.42 56.48 61.32 48.7 61.49 48.7"/><polygon class="cls-301" points="61.66 48.7 65.75 56.48 65.59 56.48 61.49 48.7 61.66 48.7"/><polygon class="cls-302" points="61.83 48.7 65.92 56.48 65.75 56.48 61.66 48.7 61.83 48.7"/><polygon class="cls-303" points="61.99 48.7 66.09 56.48 65.92 56.48 61.83 48.7 61.99 48.7"/><polygon class="cls-304" points="62.16 48.7 66.26 56.48 66.09 56.48 61.99 48.7 62.16 48.7"/><polygon class="cls-305" points="62.33 48.7 66.43 56.48 66.26 56.48 62.16 48.7 62.33 48.7"/><polygon class="cls-306" points="62.5 48.7 66.6 56.48 66.43 56.48 62.33 48.7 62.5 48.7"/><polygon class="cls-307" points="62.66 48.7 66.76 56.48 66.6 56.48 62.5 48.7 62.66 48.7"/><polygon class="cls-308" points="62.83 48.7 66.93 56.48 66.76 56.48 62.66 48.7 62.83 48.7"/><polygon class="cls-309" points="63 48.7 67.1 56.48 66.93 56.48 62.83 48.7 63 48.7"/><polygon class="cls-310" points="63.17 48.7 67.27 56.48 67.1 56.48 63 48.7 63.17 48.7"/><polygon class="cls-311" points="63.34 48.7 67.35 56.32 67.35 56.48 67.27 56.48 63.17 48.7 63.34 48.7"/><polygon class="cls-312" points="63.51 48.7 67.35 56 67.35 56.32 63.34 48.7 63.51 48.7"/><polygon class="cls-313" points="63.67 48.7 67.35 55.68 67.35 56 63.51 48.7 63.67 48.7"/><polygon class="cls-314" points="63.84 48.7 67.35 55.36 67.35 55.68 63.67 48.7 63.84 48.7"/><polygon class="cls-315" points="64.01 48.7 67.35 55.04 67.35 55.36 63.84 48.7 64.01 48.7"/><polygon class="cls-316" points="64.18 48.7 67.35 54.73 67.35 55.04 64.01 48.7 64.18 48.7"/><polygon class="cls-317" points="64.35 48.7 67.35 54.41 67.35 54.73 64.18 48.7 64.35 48.7"/><polygon class="cls-318" points="64.51 48.7 67.35 54.09 67.35 54.41 64.35 48.7 64.51 48.7"/><polygon class="cls-319" points="64.68 48.7 67.35 53.77 67.35 54.09 64.51 48.7 64.68 48.7"/><polygon class="cls-320" points="64.85 48.7 67.35 53.45 67.35 53.77 64.68 48.7 64.85 48.7"/><polygon class="cls-321" points="65.02 48.7 67.35 53.13 67.35 53.45 64.85 48.7 65.02 48.7"/><polygon class="cls-322" points="65.19 48.7 67.35 52.81 67.35 53.13 65.02 48.7 65.19 48.7"/><polygon class="cls-323" points="65.35 48.7 67.35 52.49 67.35 52.81 65.19 48.7 65.35 48.7"/><polygon class="cls-324" points="65.52 48.7 67.35 52.17 67.35 52.49 65.35 48.7 65.52 48.7"/><polygon class="cls-324" points="67.35 52.17 65.52 48.7 67.35 48.7 67.35 52.17"/></g></g><g class="cls-252"><g class="cls-325"><polygon class="cls-254" points="40.72 53.84 42.45 57.38 40.72 57.38 40.72 53.84"/><polygon class="cls-254" points="40.72 53.53 42.6 57.38 42.45 57.38 40.72 53.84 40.72 53.53"/><polygon class="cls-255" points="40.72 53.22 42.76 57.38 42.6 57.38 40.72 53.53 40.72 53.22"/><polygon class="cls-256" points="40.72 52.9 42.91 57.38 42.76 57.38 40.72 53.22 40.72 52.9"/><polygon class="cls-257" points="40.72 52.59 43.06 57.38 42.91 57.38 40.72 52.9 40.72 52.59"/><polygon class="cls-258" points="40.72 52.28 43.22 57.38 43.06 57.38 40.72 52.59 40.72 52.28"/><polygon class="cls-259" points="40.72 51.96 43.37 57.38 43.22 57.38 40.72 52.28 40.72 51.96"/><polygon class="cls-260" points="40.72 51.65 43.52 57.38 43.37 57.38 40.72 51.96 40.72 51.65"/><polygon class="cls-261" points="40.72 51.34 43.67 57.38 43.52 57.38 40.72 51.65 40.72 51.34"/><polygon class="cls-262" points="40.72 51.03 43.83 57.38 43.67 57.38 40.72 51.34 40.72 51.03"/><polygon class="cls-263" points="40.72 50.71 43.98 57.38 43.83 57.38 40.72 51.03 40.72 50.71"/><polygon class="cls-264" points="40.72 50.4 44.13 57.38 43.98 57.38 40.72 50.71 40.72 50.4"/><polygon class="cls-265" points="40.72 50.09 44.29 57.38 44.13 57.38 40.72 50.4 40.72 50.09"/><polygon class="cls-266" points="40.72 49.78 44.44 57.38 44.29 57.38 40.72 50.09 40.72 49.78"/><polygon class="cls-267" points="40.81 49.65 44.59 57.38 44.44 57.38 40.72 49.78 40.72 49.65 40.81 49.65"/><polygon class="cls-268" points="40.96 49.65 44.75 57.38 44.59 57.38 40.81 49.65 40.96 49.65"/><polygon class="cls-269" points="41.11 49.65 44.9 57.38 44.75 57.38 40.96 49.65 41.11 49.65"/><polygon class="cls-270" points="41.27 49.65 45.05 57.38 44.9 57.38 41.11 49.65 41.27 49.65"/><polygon class="cls-271" points="41.42 49.65 45.21 57.38 45.05 57.38 41.27 49.65 41.42 49.65"/><polygon class="cls-272" points="41.57 49.65 45.36 57.38 45.21 57.38 41.42 49.65 41.57 49.65"/><polygon class="cls-273" points="41.73 49.65 45.51 57.38 45.36 57.38 41.57 49.65 41.73 49.65"/><polygon class="cls-274" points="41.88 49.65 45.66 57.38 45.51 57.38 41.73 49.65 41.88 49.65"/><polygon class="cls-275" points="42.03 49.65 45.82 57.38 45.66 57.38 41.88 49.65 42.03 49.65"/><polygon class="cls-276" points="42.19 49.65 45.97 57.38 45.82 57.38 42.03 49.65 42.19 49.65"/><polygon class="cls-277" points="42.34 49.65 46.13 57.38 45.97 57.38 42.19 49.65 42.34 49.65"/><polygon class="cls-278" points="42.49 49.65 46.28 57.38 46.13 57.38 42.34 49.65 42.49 49.65"/><polygon class="cls-279" points="42.65 49.65 46.43 57.38 46.28 57.38 42.49 49.65 42.65 49.65"/><polygon class="cls-280" points="42.8 49.65 46.58 57.38 46.43 57.38 42.65 49.65 42.8 49.65"/><polygon class="cls-281" points="42.95 49.65 46.74 57.38 46.58 57.38 42.8 49.65 42.95 49.65"/><polygon class="cls-282" points="43.1 49.65 46.89 57.38 46.74 57.38 42.95 49.65 43.1 49.65"/><polygon class="cls-283" points="43.26 49.65 47.04 57.38 46.89 57.38 43.1 49.65 43.26 49.65"/><polygon class="cls-284" points="43.41 49.65 47.2 57.38 47.04 57.38 43.26 49.65 43.41 49.65"/><polygon class="cls-285" points="43.56 49.65 47.35 57.38 47.2 57.38 43.41 49.65 43.56 49.65"/><polygon class="cls-286" points="43.72 49.65 47.5 57.38 47.35 57.38 43.56 49.65 43.72 49.65"/><polygon class="cls-287" points="43.87 49.65 47.66 57.38 47.5 57.38 43.72 49.65 43.87 49.65"/><polygon class="cls-288" points="44.02 49.65 47.81 57.38 47.66 57.38 43.87 49.65 44.02 49.65"/><polygon class="cls-289" points="44.18 49.65 47.96 57.38 47.81 57.38 44.02 49.65 44.18 49.65"/><polygon class="cls-290" points="44.33 49.65 48.12 57.38 47.96 57.38 44.18 49.65 44.33 49.65"/><polygon class="cls-291" points="44.48 49.65 48.27 57.38 48.12 57.38 44.33 49.65 44.48 49.65"/><polygon class="cls-292" points="44.63 49.65 48.42 57.38 48.27 57.38 44.48 49.65 44.63 49.65"/><polygon class="cls-293" points="44.79 49.65 48.57 57.38 48.42 57.38 44.63 49.65 44.79 49.65"/><polygon class="cls-294" points="44.94 49.65 48.73 57.38 48.57 57.38 44.79 49.65 44.94 49.65"/><polygon class="cls-295" points="45.09 49.65 48.88 57.38 48.73 57.38 44.94 49.65 45.09 49.65"/><polygon class="cls-296" points="45.25 49.65 49.03 57.38 48.88 57.38 45.09 49.65 45.25 49.65"/><polygon class="cls-297" points="45.4 49.65 49.19 57.38 49.03 57.38 45.25 49.65 45.4 49.65"/><polygon class="cls-298" points="45.55 49.65 49.34 57.38 49.19 57.38 45.4 49.65 45.55 49.65"/><polygon class="cls-299" points="45.71 49.65 49.49 57.38 49.34 57.38 45.55 49.65 45.71 49.65"/><polygon class="cls-300" points="45.86 49.65 49.65 57.38 49.49 57.38 45.71 49.65 45.86 49.65"/><polygon class="cls-301" points="46.01 49.65 49.8 57.38 49.65 57.38 45.86 49.65 46.01 49.65"/><polygon class="cls-302" points="46.17 49.65 49.95 57.38 49.8 57.38 46.01 49.65 46.17 49.65"/><polygon class="cls-303" points="46.32 49.65 50.1 57.38 49.95 57.38 46.17 49.65 46.32 49.65"/><polygon class="cls-304" points="46.47 49.65 50.26 57.38 50.1 57.38 46.32 49.65 46.47 49.65"/><polygon class="cls-305" points="46.63 49.65 50.41 57.38 50.26 57.38 46.47 49.65 46.63 49.65"/><polygon class="cls-306" points="46.78 49.65 50.56 57.38 50.41 57.38 46.63 49.65 46.78 49.65"/><polygon class="cls-307" points="46.93 49.65 50.72 57.38 50.56 57.38 46.78 49.65 46.93 49.65"/><polygon class="cls-308" points="47.08 49.65 50.87 57.38 50.72 57.38 46.93 49.65 47.08 49.65"/><polygon class="cls-309" points="47.24 49.65 51.02 57.38 50.87 57.38 47.08 49.65 47.24 49.65"/><polygon class="cls-310" points="47.39 49.65 51.18 57.38 51.02 57.38 47.24 49.65 47.39 49.65"/><polygon class="cls-311" points="47.54 49.65 51.27 57.26 51.27 57.38 51.18 57.38 47.39 49.65 47.54 49.65"/><polygon class="cls-312" points="47.7 49.65 51.27 56.95 51.27 57.26 47.54 49.65 47.7 49.65"/><polygon class="cls-313" points="47.85 49.65 51.27 56.63 51.27 56.95 47.7 49.65 47.85 49.65"/><polygon class="cls-314" points="48 49.65 51.27 56.32 51.27 56.63 47.85 49.65 48 49.65"/><polygon class="cls-315" points="48.16 49.65 51.27 56.01 51.27 56.32 48 49.65 48.16 49.65"/><polygon class="cls-316" points="48.31 49.65 51.27 55.7 51.27 56.01 48.16 49.65 48.31 49.65"/><polygon class="cls-317" points="48.46 49.65 51.27 55.38 51.27 55.7 48.31 49.65 48.46 49.65"/><polygon class="cls-318" points="48.62 49.65 51.27 55.07 51.27 55.38 48.46 49.65 48.62 49.65"/><polygon class="cls-319" points="48.77 49.65 51.27 54.76 51.27 55.07 48.62 49.65 48.77 49.65"/><polygon class="cls-320" points="48.92 49.65 51.27 54.45 51.27 54.76 48.77 49.65 48.92 49.65"/><polygon class="cls-321" points="49.07 49.65 51.27 54.13 51.27 54.45 48.92 49.65 49.07 49.65"/><polygon class="cls-322" points="49.23 49.65 51.27 53.82 51.27 54.13 49.07 49.65 49.23 49.65"/><polygon class="cls-323" points="49.38 49.65 51.27 53.51 51.27 53.82 49.23 49.65 49.38 49.65"/><polygon class="cls-324" points="49.53 49.65 51.27 53.2 51.27 53.51 49.38 49.65 49.53 49.65"/><polygon class="cls-324" points="51.27 53.2 49.53 49.65 51.27 49.65 51.27 53.2"/></g></g><path class="cls-326" d="M61.08,48.64c-2.95.32-5.18,2-5.35,4a3.62,3.62,0,0,0-4.37,0c-.38-2-3.06-3.32-6.1-3s-5.38,2.29-5.1,4.35,3,3.46,6.13,3.12c2.87-.32,5.05-2,5.11-3.91a3.83,3.83,0,0,1,4.35,0c.31,2.15,3.17,3.6,6.41,3.24s5.63-2.39,5.34-4.56S64.33,48.28,61.08,48.64ZM46.21,56.56c-2.64.3-5-.9-5.23-2.66s1.71-3.42,4.36-3.71,5,.9,5.22,2.66S48.86,56.27,46.21,56.56Zm15.87-.67c-2.77.31-5.23-.94-5.48-2.79s1.79-3.58,4.56-3.89,5.22.94,5.48,2.79S64.85,55.59,62.08,55.89Z"/></g></g></svg>