<svg id="Слой_2" data-name="Слой 2" xmlns="http://www.w3.org/2000/svg" xmlns:xlink="http://www.w3.org/1999/xlink" viewBox="0 0 79.78 130"><defs><style>.cls-1{fill:#ad6899;}.cls-2{fill:#cafaff;}.cls-3{fill:#efd1ad;}.cls-4{fill:#fbc397;}.cls-5{fill:#a53e2c;}.cls-6{fill:#ffe2bb;}.cls-7{fill:#eec5a4;}.cls-8{fill:#b8b7b5;}.cls-9{fill:#b04687;}.cls-10{fill:#efecea;}.cls-11{fill:#172733;}.cls-12{fill:#90d1e0;}.cls-13{fill:#821618;}.cls-14,.cls-29{fill:#fff;}.cls-15{fill:#ffd9ac;}.cls-16{fill:#fff5eb;}.cls-17{fill:#ce755d;}.cls-18{fill:#bb845d;}.cls-19{fill:#bfe7ea;}.cls-20{fill:#8bc2ce;}.cls-21{fill:#dfb798;}.cls-22{fill:#e0c2a0;}.cls-23{fill:#fffaf5;}.cls-24{fill:url(#Безымянный_градиент_21);}.cls-25{fill:#ab8a6d;}.cls-26{fill:#ab968a;}.cls-27{fill:#ab9385;}.cls-28{fill:url(#Безымянный_градиент_23);}.cls-29,.cls-40{fill-rule:evenodd;}.cls-30{fill:#e4a960;}.cls-31{fill:#c2e3ff;}.cls-32{fill:url(#Безымянный_градиент_27);}.cls-33{fill:#139ab0;}.cls-34{fill:#e8ece5;}.cls-35{fill:#e6ddd4;}.cls-36{fill:url(#Безымянный_градиент_27-2);}.cls-37{fill:#5e402f;}.cls-38{fill:url(#Безымянный_градиент_30);}.cls-39{fill:url(#Безымянный_градиент_29);}.cls-40,.cls-42{fill:#ffe799;}.cls-41{fill:url(#Безымянный_градиент_30-2);}.cls-43{fill:#573220;}.cls-44{fill:#7b1128;}.cls-45{fill:#bd606f;}.cls-46{fill:#d7293e;}.cls-47{fill:#a63622;}.cls-48{fill:#935279;}</style><linearGradient id="Безымянный_градиент_21" x1="704.03" y1="485.7" x2="704.83" y2="485.7" gradientTransform="translate(-9052.23 -12550.93) rotate(19.61) scale(18.14)" gradientUnits="userSpaceOnUse"><stop offset="0" stop-color="#de7f7c"/><stop offset="1" stop-color="#b5586c"/></linearGradient><linearGradient id="Безымянный_градиент_23" x1="704.03" y1="485.7" x2="704.83" y2="485.7" gradientTransform="translate(-9052.24 -12550.93) rotate(19.61) scale(18.14)" gradientUnits="userSpaceOnUse"><stop offset="0" stop-color="#9a584e"/><stop offset="1" stop-color="#864546"/></linearGradient><linearGradient id="Безымянный_градиент_27" x1="702.87" y1="485.21" x2="703.68" y2="485.21" gradientTransform="matrix(3.52, -7.94, -9.26, -4.07, 2061.37, 7591.36)" gradientUnits="userSpaceOnUse"><stop offset="0" stop-color="#733300"/><stop offset="1"/></linearGradient><linearGradient id="Безымянный_градиент_27-2" x1="702.69" y1="484.72" x2="703.49" y2="484.72" gradientTransform="matrix(2.28, -8.01, -8.96, -2.49, 2761.88, 6859.68)" xlink:href="#Безымянный_градиент_27"/><linearGradient id="Безымянный_градиент_30" x1="703.91" y1="485.07" x2="704.72" y2="485.07" gradientTransform="matrix(31.22, 22.07, 19.93, -28.6, -31611.6, -1662.49)" gradientUnits="userSpaceOnUse"><stop offset="0" stop-color="#ffe699"/><stop offset="0.3" stop-color="#ffe194"/><stop offset="0.66" stop-color="#ffd286"/><stop offset="1" stop-color="#ffbd73"/></linearGradient><linearGradient id="Безымянный_градиент_29" x1="703.86" y1="485.05" x2="704.67" y2="485.05" gradientTransform="matrix(32.16, 17.73, 15.96, -29.52, -30342.03, 1848.74)" gradientUnits="userSpaceOnUse"><stop offset="0" stop-color="#fff7a8"/><stop offset="0.27" stop-color="#fff2a4"/><stop offset="0.6" stop-color="#ffe398"/><stop offset="0.97" stop-color="#ffca84"/><stop offset="1" stop-color="#ffc782"/></linearGradient><linearGradient id="Безымянный_градиент_30-2" x1="704.02" y1="485.48" x2="704.83" y2="485.48" gradientTransform="translate(-8061.3 -12444.18) rotate(22.52) scale(17.4)" xlink:href="#Безымянный_градиент_30"/></defs><title>Мини Львенок для страницы услуги</title><path class="cls-1" d="M43.39,78.12c.08-6.49-.87-10.23-2-12.24A8,8,0,0,1,40,67.59a8.92,8.92,0,0,0,1.35-1.71,6.24,6.24,0,0,0-.77-1.06A2.75,2.75,0,0,1,39.66,63c-6.31,6.21-9.38-.19-10.42-3.29-.71.88-1.4,1.76-2,2.53a15.29,15.29,0,0,0-1.18,1.82,1.89,1.89,0,0,1-1.9,1.21c-5.75,8.18-6.72,15.53-7.86,23.08s-3.16,21.41-3.79,27.89a74.23,74.23,0,0,0,.31,13.58H45.05a47,47,0,0,1,1-7c1-4.17,3.5-6.55,1.73-12.48A123.08,123.08,0,0,1,43.39,78.12Z"/><path class="cls-2" d="M55,56.26c-.54,1.39-3.72,5.47-6.8,10.44-2.68-.17-5.28-4.5-6.78-4.65-1-.11-1.13,1.47-1.1,2.52l.24.26c1.51,1.62,2.91,5.44,2.82,13.3a123,123,0,0,0,4.35,32.27c1.77,5.93-.63,8.31-1.73,12.48a43.24,43.24,0,0,0-1,7h10A4.77,4.77,0,0,1,57.61,128a5.65,5.65,0,0,1,.76-3.22c3.79,1.66,8.06,3.53,11.19,3.28.64-.64,5-5.45,8.85-16.77,2.54-8.59.26-17.72-3.49-28.73C71.55,73.19,68.73,68.33,55,56.26Z"/><path class="cls-2" d="M18,64.79l-.19-3a69.61,69.61,0,0,0-7.4,6.2c-3.79,3.62-4.16,8.32-4.7,15s-1.62,17-1.62,17-2.61,2.26-.7,5c-.89,1.58-1.12,6.64-1.75,9.73-.89,4.3-2.32,9.4-.33,11.91,0,0,2.09,1.74,3.79,1.55a6.58,6.58,0,0,0-.22,1.71h7.89a72.44,72.44,0,0,1-.31-13.57c.65-6.47,2.7-20.32,3.79-27.89s2.12-14.9,7.86-23.06L23,62.53Z"/><path class="cls-3" d="M2.06,128.64c-.26.4-.52.81-.77,1.22h3l-2.18-1.22"/><path class="cls-3" d="M2,128.24s-.43.67-1,1.62h.35c.25-.41.51-.82.77-1.22l2.18,1.22H4.9L2,128.24"/><path class="cls-4" d="M39.68,63c0-1,.74-2.15,2.42-4a7,7,0,0,0,.78-7.8,23.77,23.77,0,0,1-11.31.09c.11,1.16.24,2.84.36,5.29-.71.75-1.7,1.89-2.67,3.09,1,3.1,4.12,9.5,10.42,3.29"/><path class="cls-5" d="M34.78,66c-3.27,0-5.05-3.79-5.8-6.1a.32.32,0,0,1,0-.3c1-1.18,1.9-2.26,2.6-3-.11-2.08-.21-3.79-.36-5.15a.32.32,0,0,1,.31-.33h.07A23.32,23.32,0,0,0,42.81,51a.32.32,0,0,1,.34.17,7.27,7.27,0,0,1-.83,8.13C40.64,61.09,40,62.17,40,63a.32.32,0,0,1-.1.22C38.07,65,36.35,66,34.78,66M29.6,59.81c.74,2.14,2.36,5.54,5.18,5.54q2.09,0,4.61-2.44c0-1,.74-2.16,2.49-4a6.57,6.57,0,0,0,.82-7.24,23.93,23.93,0,0,1-10.78.13c.11,1.31.22,3,.3,4.88a.27.27,0,0,1-.08.23c-.66.73-1.59,1.77-2.54,3"/><path class="cls-6" d="M39.68,63c0-1,.74-2.15,2.42-4a7,7,0,0,0,.78-7.8,23.77,23.77,0,0,1-11.31.09c.11,1.16.24,2.84.36,5.29-.71.75-1.7,1.89-2.67,3.09,1,3.1,4.12,9.5,10.42,3.29"/><path class="cls-7" d="M41.1,56.66c-.32.13-.65.25-1,.37l1-.23v-.14m2.13-1-.37.19a4.32,4.32,0,0,0-.49.58l.16,0c.25-.07.51-.16.76-.25,0-.13.05-.26.07-.38l0,0-.05,0s0-.06,0-.14"/><path class="cls-8" d="M27.58,62.39a7.54,7.54,0,0,0,5,7,7.52,7.52,0,0,0,1.94.28A7.9,7.9,0,0,0,41,65.87a5.12,5.12,0,0,0-.63-.84,3.66,3.66,0,0,1-.88-1.38,7.23,7.23,0,0,1-4.7,2.3c-3,0-4.78-3.29-5.63-5.6C28.57,61.09,28,61.78,27.58,62.39Z"/><path class="cls-9" d="M40.59,64.82A2.75,2.75,0,0,1,39.68,63c-6.31,6.21-9.38-.19-10.42-3.29-.71.88-1.41,1.76-2,2.53a10.36,10.36,0,0,0,.34,2.15,2.4,2.4,0,0,1,.46-.59c.08-.09.29-.26.4-.09,1,1.54,2.37,3,4.36,3a13.5,13.5,0,0,0,5-1.3.18.18,0,0,1,.26.05l0,0a4,4,0,0,1-.82,3.88,8.94,8.94,0,0,0,4.12-3.59A6.16,6.16,0,0,0,40.59,64.82Z"/><path class="cls-10" d="M53,127.22h0c6.68.59,12.1,1.43,14.53,2.25,0,.13,0,.26,0,.39h0c0-.13,0-.26,0-.39-2.43-.83-7.85-1.66-14.54-2.25"/><path class="cls-11" d="M52.62,127.19h0l.37,0h0l-.37,0"/><path class="cls-3" d="M52.62,127.19c.35.72.83,1.64,1.44,2.67h13.5c0-.13,0-.26,0-.39-2.43-.82-7.85-1.66-14.53-2.25l-.37,0"/><path class="cls-2" d="M31.57,51.37a22.43,22.43,0,0,1-3.5-1.16,44.27,44.27,0,0,1-6.78,4.37c-3.86,2.13-3.46,3.16-3.46,5.17v2l.19,3,5.05-2.28,1.11,2.82a1.91,1.91,0,0,0,1.9-1.22,53.36,53.36,0,0,1,5.84-7.45c-.11-2.45-.24-4.12-.35-5.29"/><path class="cls-12" d="M24.32,65.63h-.21a.25.25,0,0,1-.22-.18l-1-2.53-4.76,2.16a.32.32,0,0,1-.27,0,.3.3,0,0,1-.16-.23l-.17-3V59.29c0-1.9.11-3,3.62-4.95A44.12,44.12,0,0,0,27.87,50a.31.31,0,0,1,.31,0,22.32,22.32,0,0,0,3.46,1.16.29.29,0,0,1,.22.26q.22,2.07.36,5.31a.27.27,0,0,1-.08.22,54,54,0,0,0-5.78,7.38,2.23,2.23,0,0,1-2,1.38m-1.26-3.42h.12a.25.25,0,0,1,.16.17L24.39,65A1.67,1.67,0,0,0,25.83,64a53.44,53.44,0,0,1,5.81-7.43c-.1-2-.2-3.63-.33-4.94a23.39,23.39,0,0,1-3.19-1.06,44.09,44.09,0,0,1-6.67,4.3c-3.37,1.85-3.37,2.74-3.32,4.4v2.5l.15,2.6,4.65-2.12.13,0"/><path class="cls-2" d="M41.45,62.05c1.49.15,4.09,4.48,6.77,4.65,3.08-5,6.27-9.05,6.8-10.44-.12-3.23-5.64-7.51-5.64-7.51a24.39,24.39,0,0,1-6.5,2.53,7,7,0,0,1-.8,7.8c-2.53,2.77-3,4-1.73,5.46,0-1,.09-2.6,1.1-2.49"/><path class="cls-12" d="M48.23,67c-1.67-.09-3.21-1.6-4.57-2.93-.89-.86-1.7-1.66-2.23-1.72a.4.4,0,0,0-.36.13,3.14,3.14,0,0,0-.39,2.08.35.35,0,0,1-.21.3.31.31,0,0,1-.34-.1c-1.49-1.79-.63-3.32,1.76-5.88a6.67,6.67,0,0,0,.73-7.46.3.3,0,0,1,0-.26.28.28,0,0,1,.2-.17,25.23,25.23,0,0,0,6.43-2.52.3.3,0,0,1,.34,0c.22.17,5.62,4.42,5.76,7.75v.12a30.09,30.09,0,0,1-2.67,4.23c-1.2,1.73-2.7,3.9-4.15,6.25a.3.3,0,0,1-.3.18m-6.89-5.25h.14c.74.08,1.56.87,2.58,1.89,1.26,1.21,2.63,2.57,4,2.75C49.5,64.08,51,62,52.14,60.25a32.94,32.94,0,0,0,2.57-4c-.18-2.74-4.47-6.37-5.36-7.09a25.47,25.47,0,0,1-6.06,2.38,7.15,7.15,0,0,1-1,7.79c-2.09,2.23-2.57,3.33-2.24,4.26a2.33,2.33,0,0,1,.54-1.49.94.94,0,0,1,.73-.31"/><path class="cls-12" d="M4.91,130c0-.48.07-1,.1-1.47s.14-1,.2-1.44l.12-.73.18-.71.36-1.44v.11c-.72-.84-1.54-1.55-2.21-2.49a1.25,1.25,0,0,1,.12-1.71A8.49,8.49,0,0,1,5.05,119a13.8,13.8,0,0,0,1.26-1,1.14,1.14,0,0,0,.31-.63v-.78c0-1.11-.09-2.21-.11-3.31l0-3.31c0-1.11,0-2.21,0-3.32V103.3L6.66,100c.07-1.11.12-2.22.28-3.31s.31-2.19.48-3.29c.36-2.18.79-4.34,1.27-6.51s1-4.31,1.56-6.44c.31-1,.63-2.12,1-3.16a18.57,18.57,0,0,1,1.33-3,18.83,18.83,0,0,0-1.21,3.07c-.32,1.06-.6,2.12-.88,3.16S10,82.62,9.76,83.7s-.45,2.15-.63,3.24Q8.52,90.18,8,93.44c-.17,1.1-.33,2.18-.46,3.27s-.21,2.18-.27,3.28l-.16,3.29-.05,3.31c0,1.1,0,2.19,0,3.31v3.29l.06,3.3v.94a1.68,1.68,0,0,1-.44.83,10.43,10.43,0,0,1-1.34,1,11.07,11.07,0,0,0-1.22,1,1.14,1.14,0,0,0-.31.63,1.19,1.19,0,0,0,.21.68,12.21,12.21,0,0,0,1,1.26l1.08,1.26v.11l-.41,1.4-.21.7-.14.72a14,14,0,0,0-.26,1.44C5.05,129,4.93,129.52,4.91,130Z"/><path class="cls-13" d="M6,124.25a2.52,2.52,0,0,1,.49.43,3.05,3.05,0,0,1,.43.51,5.23,5.23,0,0,1,.41.63,5.86,5.86,0,0,1,.32.67,5.1,5.1,0,0,1,.2.63c.1.38.14.63.14.63a4.32,4.32,0,0,1-.45-.5,9.8,9.8,0,0,1-.74-1.15,11.28,11.28,0,0,1-.59-1.27,4.64,4.64,0,0,1-.15-.44Z"/><path class="cls-13" d="M58.35,124.82a1.67,1.67,0,0,1-.63-1.14V123a3.8,3.8,0,0,1,.07-.66,9.32,9.32,0,0,1,.31-1.29c.13-.42.27-.83.39-1.27l1.41-5.05c.48-1.69,1-3.37,1.47-5,.27-.84.55-1.68.84-2.53.17-.41.31-.83.48-1.26.09-.22.19-.41.29-.63a2.35,2.35,0,0,1,.41-.63V105a4.84,4.84,0,0,1-.75-.94,2.57,2.57,0,0,1-.26-.56,1.92,1.92,0,0,1-.14-.63,2.22,2.22,0,0,1,0-.63,2.19,2.19,0,0,1,.23-.6,1.83,1.83,0,0,1,.39-.49,1.72,1.72,0,0,1,.53-.34,1.09,1.09,0,0,1,.31-.08H64a2.24,2.24,0,0,1,.58.06,8.77,8.77,0,0,1,1.12.29,20.88,20.88,0,0,1,2.17.8c-.73-.22-1.47-.44-2.21-.63-.37-.07-.74-.16-1.1-.2a5.23,5.23,0,0,0-.56,0h-.25c-.09,0-.16.06-.24.08a1.63,1.63,0,0,0-.87,1.71,3.23,3.23,0,0,0,1.07,1.78.27.27,0,0,1,0,.32l0,.06a1.81,1.81,0,0,0-.29.48,6,6,0,0,0-.26.58c-.17.4-.31.81-.45,1.22-.29.82-.55,1.66-.8,2.53l-1.53,5.09c-.48,1.67-1,3.35-1.58,5q-.21.61-.45,1.26a7.16,7.16,0,0,0-.39,1.27,5,5,0,0,1-.12.63q0,.32,0,.63A1.73,1.73,0,0,0,58.35,124.82Z"/><path class="cls-13" d="M63.36,101.29s-.42-1.69-1-4.27c-.27-1.26-.63-2.79-.95-4.42l-1-5.06c-.17-.85-.32-1.72-.47-2.52s-.21-1.71-.32-2.53c0-.41-.11-.8-.11-1.2s0-.79,0-1.17V78c0-.66.09-1.26.13-1.79a5.47,5.47,0,0,1,.07-.75,4.91,4.91,0,0,1,.1-.63l.23-1.18-.11,1.2c0,.19,0,.4-.06.64s0,.48,0,.74V78c0,.66.06,1.35.1,2.1A7.45,7.45,0,0,0,60,81.24c.06.39.09.79.15,1.21.11.8.17,1.67.34,2.49s.35,1.7.51,2.55L62,92.55c.3,1.6.53,3.15.75,4.42C63.12,99.56,63.36,101.29,63.36,101.29Z"/><path class="cls-13" d="M56.71,71.17s.15.63.39,1.56l.38,1.58c.13.58.32,1.18.48,1.79.07.31.18.63.27.91s.17.59.26.88c.22.54.41,1.06.56,1.51.42.84.67,1.44.67,1.44l-.27-.34c-.16-.22-.44-.53-.71-.94A14.47,14.47,0,0,1,58,78.08c-.09-.3-.21-.58-.32-.89s-.21-.64-.29-.92c-.14-.63-.33-1.26-.42-1.86s-.17-1.15-.21-1.63A12.41,12.41,0,0,1,56.71,71.17Z"/><path class="cls-12" d="M31.57,51.37a22.43,22.43,0,0,1-3.5-1.16,45.74,45.74,0,0,1-6.52,4.23h.22a15.78,15.78,0,0,0,5.15-1.27c1.79-1,1.89.77,2,2.4s-2.58,3.7-3.6,5.33S23.06,59.49,21.77,58s-1.8-.34-.94,1.73C21.58,61.6,22,61.41,18,63.61L18,64.79l5.05-2.28,1.11,2.82a1.91,1.91,0,0,0,1.9-1.22,53.36,53.36,0,0,1,5.84-7.45c-.11-2.45-.24-4.12-.35-5.29"/><path class="cls-12" d="M44.74,61.6c-1.62-1.31.8-3,1.3-5.15s.64-3.32,3.43-4.22,4,.8,4,.8l.08,0a24.78,24.78,0,0,0-4.2-4.24,24.39,24.39,0,0,1-6.5,2.53,7,7,0,0,1-.8,7.8c-2.53,2.77-3,4-1.73,5.46,0-1,.09-2.62,1.1-2.52,1.5.15,4.1,4.48,6.78,4.64.21-.32.41-.63.63-1-1.3-1.42-2.68-2.78-4.12-4.07"/><path class="cls-14" d="M9.71,69.6c-1.26,2.06-2.93,3.48-3.25,6C5.89,80,5.82,84.41,5.65,88.8c0,.6.69-.06.71-.4.21-3.35.36-6.7.52-10.07s1.43-5.68,3-8.63C10,69.54,9.83,69.44,9.71,69.6Z"/><path class="cls-15" d="M35.79,11.13A30.34,30.34,0,0,1,34.33,5c-.5-3.63-3.75-5.44-8.48-2.39S19.36,13.29,20.53,16.4c.73,2,3.32,1.91,5.33,1.88,1.19,0,2.17,0,2.45.35,1.21-1.6,2.9-3,4.36-2.91-2.44-.71-2.32-1.11-2.32-1.11a13.09,13.09,0,0,1,4.55-.79c-1.84-2.41-1.84-2.69-1.84-2.69l2.63,1.52.1-1.52"/><path class="cls-6" d="M35.79,11.16A30.62,30.62,0,0,1,34.33,5c-.41-2.91-2.59-4.67-5.9-3.63C32,1,33.19,2.94,33.35,4.9,33.54,7.21,32.3,9.52,31.8,8c-.92-2.73-5-5.76-8.23-1.42s.27,9.68-1.9,8.78c-2.5-1.27-.38-6.11-.26-6.58-1.19,2.36-1.49,6.22-.92,7.82.72,1.92,3.27,1.82,5.28,1.71,1.24-.07,2.27-.13,2.56.27,1.21-1.59,2.91-3,4.37-2.91-2.44-.71-2.32-1.1-2.32-1.1a12.78,12.78,0,0,1,4.54-.8c-1.83-2.41-1.83-2.69-1.83-2.69l2.63,1.53.07-1.49"/><path class="cls-16" d="M30.19,3.93s-2.18-2.27-5.45,1c-.83.77.22-1.7,2.67-3S31.66,4.8,30.19,3.93Z"/><path class="cls-17" d="M30.69,14.83s3.58-8.65-1.45-11c-3.89-1.92-9.62,8.89-5.67,12,3.85,2.5,6.28.07,6.28.07s-1-.69-.83-1,1.67-.09,1.67-.09"/><path class="cls-17" d="M30.69,14.83s3.58-8.65-1.45-11c-2.75-1.35-6.39,3.61-6.92,7.75.05-.11,2.13-5.95,5.63-4.75,3.3,1.12,2.48,9.68-2.06,10a4.46,4.46,0,0,0,4-.94s-1-.69-.84-1,1.66-.1,1.66-.1"/><path class="cls-6" d="M48.47,53.91c2.38-.59,4.49-2,4.42-1.24l-.59.85s2.14-.61,2.48-1.41c0,0,.93-.22.65.64l-.25.87,1.32-1.93a43.37,43.37,0,0,1,3.63-3.34c.52-.5,1-1,1.56-1.6a12.68,12.68,0,0,0,2.63-4.55,20.59,20.59,0,0,0,.84-7c-.07-1.89,3.24-6.08,2.63-8.48-3.15-12.43-6.48-12.11-6.48-12.11C58.2,10.17,53.89,9.16,48,7.56s-9.33-1-15.43.21S24.35,13,24.35,13s-4.88,1.69-7,9.37c-1.49,5.48-4.21,5.59-4.28,5.76a12.34,12.34,0,0,0,1.37,2.28,2.75,2.75,0,0,1-1.39,1.34,10.15,10.15,0,0,0-1,.44c-.06.34,2.08.22,2.08.22a14.47,14.47,0,0,0,.87,9c2.33,5.28,2.52,5.29,2.52,5.29a18.42,18.42,0,0,0,3.27,6c2.64,3.15,9.72,5.58,14.25,5.11a20.84,20.84,0,0,0,3.83-.79c.72-.22,1.4-.46,2.05-.72.17-.06.16.16.15.38s0,.44.13.37c.31-.14,1.11-1.35,1.32-1.45l.62-.31c.12-.06.1.08.08.23s-.06.29.06.22,1.16-1.16,1.38-1.31,1.48,0,3.78-.57"/><path class="cls-18" d="M30.05,22.8a23.17,23.17,0,0,0-.83,3.76c-.4,2.58-1.44,3.31-1.94,4.2a9.52,9.52,0,0,1-1.91,2.05l-.15.38.53-.48.8-.73a11.4,11.4,0,0,0,3.5-9.18"/><path class="cls-18" d="M43.8,28a26.49,26.49,0,0,0-5.67,5.26,10.39,10.39,0,0,0-2.2,5.31l.29.12a15.49,15.49,0,0,1,2.6-5.82c.6-.74,4.56-4.39,4.56-4.39L43.8,28"/><path class="cls-10" d="M55,52.09a1.55,1.55,0,0,0-.25,0,1.87,1.87,0,0,1-.86.76L54,53a1.94,1.94,0,0,0,.86-.77.76.76,0,0,1,.29-.05.49.49,0,0,1,.24.05.48.48,0,0,0-.39-.15M67.79,28.15c-.44,2.39-2.69,5.51-2.63,7.07a20.59,20.59,0,0,1-.84,7,12.68,12.68,0,0,1-2.63,4.55c-.51.58-1,1.1-1.56,1.6a43.37,43.37,0,0,0-3.63,3.34l-1.11,1.62-.13.4,1.32-1.93c.56-.82,2.54-2,3.85-3.25,2.48-2.39,5.18-5.37,5-13.14,0-1.57,2-4.8,2.39-7.24m-1.35-6v.06q.39,1.13.78,2.49-.39-1.41-.78-2.55"/><path class="cls-19" d="M53.33,53.16l-.72.27-.16.24a10.37,10.37,0,0,0,1-.37l-.11-.14"/><path class="cls-20" d="M53.92,52.87a6.45,6.45,0,0,1-.59.29l.11.14A6.4,6.4,0,0,0,54,53l-.11-.14"/><path class="cls-19" d="M52.67,52.43c-.6,0-2.32,1-4.2,1.48a16.89,16.89,0,0,1-1.78.34l-.1.22a18.2,18.2,0,0,0,2.11-.4c1.79-.47,3.52-1.5,4.12-1.5h.06l-.11-.13-.1,0"/><path class="cls-20" d="M43.68,55.47l-.14.13v.18c0,.12,0,.24,0,.24h0a5,5,0,0,0,.07-.54m9.09-3,.11.13h0l-.12-.13"/><path class="cls-20" d="M46.69,54.25a17,17,0,0,0-2,.23c-.15.1-.64.63-1,1a5,5,0,0,1-.07.54h0c.22-.13,1.13-1.19,1.36-1.34a11.53,11.53,0,0,1,1.62-.2l.1-.22"/><path class="cls-3" d="M42.37,56.44l-.67.2-.25.28v0c0,.19,0,.38.07.38h0a3.8,3.8,0,0,0,.8-.88"/><path class="cls-21" d="M43.22,55.33h0l-.62.31a7.84,7.84,0,0,0-.85,1l.67-.2a4.32,4.32,0,0,1,.49-.58l.37-.19,0-.1c0-.12,0-.24,0-.24"/><path class="cls-3" d="M40.11,57a25.67,25.67,0,0,1-2.74.45,19.7,19.7,0,0,1-2.3.38,11.28,11.28,0,0,1-1.19.06,15.71,15.71,0,0,1-2.5-.21l-.13.15a17.35,17.35,0,0,0,3.12.31,11.17,11.17,0,0,0,1.17-.06,20.06,20.06,0,0,0,3.75-.81c.28-.08.55-.17.82-.27"/><path class="cls-21" d="M41,56.34H41c-.65.26-1.33.5-2.05.72-.51.16-1,.29-1.53.41A25.67,25.67,0,0,0,40.11,57c.34-.12.67-.24,1-.37,0-.17,0-.32-.09-.32"/><path class="cls-19" d="M26.9,56.54h0c.48.2,1,.39,1.49.55l0-.06c-.51-.15-1-.32-1.51-.5"/><path class="cls-20" d="M31,57.66l-.12.13.35.07.13-.15L31,57.66"/><path class="cls-20" d="M28.41,57l0,.06a23,23,0,0,0,2.52.69l.12-.13A22.93,22.93,0,0,1,28.41,57"/><path class="cls-3" d="M25.55,55.84h-.1l0,0,.84.4a.74.74,0,0,0-.71-.44M21.35,52c-.09,0-.2.13-.3.31.16.24.34.47.52.7a2,2,0,0,0-.14-1l-.08,0M66.44,22.17c.17,4.71,0,9.41-1.31,11.23-2.13,3.06-8.32,5.4-13.79,5.4a15,15,0,0,1-4.1-.53l-.54,0c1.75,1.12,6.38,3.88,9.78,3.93,4.28.05,4.75,4,1.16,5.62-3.36,1.54-13.58,7.94-20.27,7.94a7.87,7.87,0,0,1-1.3-.1,15.47,15.47,0,0,1-1.78-.38,4.27,4.27,0,0,1-2.37,1.44c-.14,0-.2-.06-.14-.17.39-.66-.46-1.1-.46-1.1l-.71.66-2,.61-.09,0h0l.11,0c.23-.24-.18-1.55-.18-1.55-.53.49-1.12,1-1.55,1.34.5.18,1,.35,1.51.5a22.93,22.93,0,0,0,2.61.62l.36.05a15.71,15.71,0,0,0,2.5.21,11.28,11.28,0,0,0,1.19-.06,19.7,19.7,0,0,0,2.3-.38c.51-.12,1-.25,1.53-.41.72-.22,1.4-.46,2.05-.72H41c.09,0,.1.15.09.32l.21-.08,0,0c.1,0,.1.18.09.36l.25-.28a7.84,7.84,0,0,1,.85-1l.62-.31h0c.07,0,.05.12,0,.24l0,.1.24-.12h0l0,.06.14-.13c.37-.36.86-.89,1-1a17,17,0,0,1,2-.23,16.89,16.89,0,0,0,1.78-.34c1.88-.47,3.6-1.48,4.2-1.48l.1,0,.12.13a.17.17,0,0,1,.14.22l-.42.63.72-.27a6.45,6.45,0,0,0,.59-.29,1.87,1.87,0,0,0,.86-.76,1.55,1.55,0,0,1,.25,0,.48.48,0,0,1,.39.15c.14.07.24.24.12.6l-.15.47,1.11-1.62a43.37,43.37,0,0,1,3.63-3.34c.52-.5,1-1,1.56-1.6a12.68,12.68,0,0,0,2.63-4.55,20.59,20.59,0,0,0,.84-7c-.06-1.56,2.19-4.68,2.63-7.07a3.79,3.79,0,0,0,0-1.39c-.18-.75-.37-1.45-.55-2.1q-.39-1.36-.78-2.49"/><path class="cls-16" d="M25,33.34s2.44-2.1,4.57-4.26c1.79-1.83,3.34-3.5,6.46-2.1,3.92,1.74-1.06,12-1.06,12a34.17,34.17,0,0,0-5.62-3.4c-.86-.4-3.06-1.89-4.35-2.19"/><path class="cls-3" d="M24.77,30.22a6.67,6.67,0,0,0,1.58.59s-.64-.26-1.58-.59"/><path class="cls-10" d="M14.16,32.37l-.6,0h.6"/><path class="cls-3" d="M24.56,12.88s-4.8,1.7-6.87,9.38c-1.49,5.49-4.13,5.63-4.23,5.77a13.21,13.21,0,0,0,1.31,2.33,2.9,2.9,0,0,1-1.37,1.35,7.57,7.57,0,0,0-1,.45c0,.18.59.23,1.15.23l.6,0h0l.28,0a14.68,14.68,0,0,0,.81,9c2.26,5.23,2.48,5.23,2.49,5.23.09.32.2.64.31.95h0a3.86,3.86,0,0,0,.19-.84c-.12-.23-.33-.63-.66-1.36.15.19.32.38.49.57A13.58,13.58,0,0,0,17,44.39a8.69,8.69,0,0,1-1-2.77,9.57,9.57,0,0,1-.31-4.57c-.69-2.42,0-4.83.89-7.35.23-.65,1-.9,2-.9a21.53,21.53,0,0,1,6.13,1.4,17.66,17.66,0,0,1-4-2.83C17.35,24.32,19,22.59,19,22.59c.78-6,2.6-7.43,5.55-9.65l-.57.4.59-.46"/><path class="cls-22" d="M17.59,45.37c.33.73.54,1.13.66,1.36a1.37,1.37,0,0,0-.17-.79c-.17-.19-.34-.38-.49-.57"/><path class="cls-23" d="M34.23,27.84c-1.88,0-6.57,6.41-6.57,6.41l.12.12a8.54,8.54,0,0,0,.9.53L29,35l1.9.78,1,.38c.27-.51,4.14-7.72,2.52-8.32a.59.59,0,0,0-.23,0"/><path class="cls-23" d="M27.27,33.24s-6.64.92-8.69.41-3.9,3.72-2.56,8a8.69,8.69,0,0,0,1,2.77c1.23,1.66,1.51,1.82,1.07,3.18-.32,1,1.11,2.38,1.14,2.84a1.72,1.72,0,0,0,.13.68l.77-.27s-.55-.91-.07.89l.49,1.79s.64-1.83.91-1.46,0,1.76.26,3.2l.92-.57s-.23,1.65-.23,2.14c0,0,2.71-.4,3.07-1,0,0,1-.16.89,1.14,0,0,1.17-.92,2.11-1.79,0,0,.52,1.65.07,1.58l2.09-.64.71-.66s.85.44.46,1.1c-.27.47,1.62.05,3.13-2,.5-.67.79-1.72,1.59-1.39,3.16,1.3,9-2.57,8.94-5.32s-8.3-7-10-9.47-9-1-8.15-5.15"/><path class="cls-24" d="M35.45,40.05l0,.08,0-.08m0,0h0M30.9,35.82a14.86,14.86,0,0,1,2.73,1.32c-.21-.15-.44-.3-.7-.46a5.34,5.34,0,0,0-1-.48l-1-.38m-8.6-.2h0s1.76,4.23,4.3,5.32l.1,0-.07,0c-2.54-1.09-4.33-5.33-4.33-5.33m4.3-1.77c.62.24,1.27.68,2.08,1a8.54,8.54,0,0,1-.9-.53,6.19,6.19,0,0,0-.56-.3L27,34l-.37-.12M24,33.52c-1.05,0-1.52.38-1.56.88a3.31,3.31,0,0,0,2.22,3.24c1.12.26.86,1.07,1.22,2.12a1.74,1.74,0,0,0,1.7,1,1.52,1.52,0,0,0,1-.31,2.58,2.58,0,0,1,1.57-.63,1.08,1.08,0,0,1,.76.27,1.8,1.8,0,0,0,1.38.63,3.78,3.78,0,0,0,.81-.1c1.68-.38,1.72-1.48.48-2.78-.87-.92-2.64-1.06-4.72-2s-3.27-2.2-4.33-2.31a4.79,4.79,0,0,0-.52,0"/><path class="cls-25" d="M23.78,33.33c-1,0-1.38.33-1.45.41h0c.08-.09.42-.41,1.43-.41a7.85,7.85,0,0,1,1.43.16h0a7.13,7.13,0,0,0-1.44-.16"/><path class="cls-26" d="M22.34,33.74h0v0a1.41,1.41,0,0,0,0,1.86,1.41,1.41,0,0,1,0-1.86l0,0m2.88-.25h0a13.86,13.86,0,0,1,1.4.36l-.24-.08c-.42-.12-.8-.21-1.14-.28"/><path class="cls-26" d="M28.68,34.9l.31.15c.77.34,1.39.58,1.91.77L29,35l-.32-.14"/><path class="cls-27" d="M33.63,37.14l.3.23h0a2.83,2.83,0,0,0-.28-.2l0,0"/><path class="cls-26" d="M35.42,40.13c-.28.73-3,1.33-5.46,1.33A9.26,9.26,0,0,1,26.7,41a9,9,0,0,0,3.26.49c2.51,0,5.19-.6,5.46-1.34m0-.08h0m-1.52-2.68c1.46,1.12,1.74,2,1.52,2.67.22-.65-.06-1.54-1.51-2.67h0"/><path class="cls-28" d="M27.59,40.78a1.74,1.74,0,0,1-1.7-1c-.36-1-.1-1.86-1.22-2.12a3.31,3.31,0,0,1-2.22-3.24c0-.5.51-.88,1.56-.88a4.79,4.79,0,0,1,.52,0c1.06.11,2.24,1.37,4.33,2.31s3.85,1.09,4.72,2c1.24,1.3,1.2,2.4-.48,2.78a3.78,3.78,0,0,1-.81.1,1.8,1.8,0,0,1-1.38-.63,1.08,1.08,0,0,0-.76-.27,2.58,2.58,0,0,0-1.57.63,1.52,1.52,0,0,1-1,.31m-3.82-7.45c-1,0-1.35.32-1.43.41l0,0a1.41,1.41,0,0,0,0,1.86s1.79,4.24,4.33,5.33l.07,0a9.26,9.26,0,0,0,3.26.48c2.51,0,5.18-.6,5.46-1.33l0-.08h0c.22-.65-.06-1.55-1.52-2.67l-.3-.23a14.86,14.86,0,0,0-2.73-1.32c-.52-.19-1.14-.43-1.91-.77l-.31-.15c-.81-.37-1.46-.81-2.08-1a13.86,13.86,0,0,0-1.4-.36,7.85,7.85,0,0,0-1.43-.16"/><path class="cls-29" d="M27.63,36.28a5.12,5.12,0,0,0-2.84-1.71C22.68,34,23.2,34,23.24,34a4.08,4.08,0,0,1,2.65.47A6.29,6.29,0,0,1,27.64,36C27.73,36.18,27.69,36.25,27.63,36.28Z"/><path class="cls-30" d="M44.36,23.26a21.6,21.6,0,0,1-.68,2.63s2.43.08,10.83,4.31c-2-2.83-6.36-5.26-10.15-6.94"/><path d="M49.48,37.67a6.85,6.85,0,0,1-4.92.32,11.6,11.6,0,0,1-4.41-2.56l-1.68-.69.47-.67S42.22,29.45,46,30c0,0,4.05-.3,5.62,6,.06,0,.36,2.11-2.18,1.76"/><path class="cls-14" d="M39.05,34.58c1.77-2,3.53-4.15,6.29-3.82a6,6,0,0,1,5.18,6.05,6.92,6.92,0,0,1-5.36,1.07,10.53,10.53,0,0,1-4.83-2.74l-1.28-.56"/><path class="cls-31" d="M39.05,34.57c2-2,2.48-3.84,5.86-3.83s5.73,3.55,5.61,6.07A7,7,0,0,1,45.87,38l-.08-6.26a6,6,0,0,0-5.55,2.17,4.07,4.07,0,0,0,1,2,7.66,7.66,0,0,1-.91-.8l-1.26-.56"/><path class="cls-32" d="M42.43,31.86a2.32,2.32,0,0,1,2-1.15,1.75,1.75,0,0,1,.4,0h0a3.29,3.29,0,0,1,1.26.25,3.16,3.16,0,1,1-4.21,1.68,3.24,3.24,0,0,1,.51-.82m2.36-1.53a3.27,3.27,0,0,0-2.2.84,3.2,3.2,0,0,0-.74,1,3.29,3.29,0,0,0-.17.39l0,.06a3.57,3.57,0,0,0,1.09,4.35,3,3,0,0,0,.6.37,3.74,3.74,0,0,0,.89.3,3.79,3.79,0,0,0,.67.06,3.42,3.42,0,0,0,1-.13,3.56,3.56,0,0,0,2.26-1.89,2.4,2.4,0,0,0,.11-.23,3.57,3.57,0,0,0-.74-3.92l-.11-.11a3.58,3.58,0,0,0-1-.66l-.07,0a3.25,3.25,0,0,0-1.5-.36"/><path class="cls-33" d="M41.92,32.68A3.15,3.15,0,1,0,46.13,31a3.22,3.22,0,0,0-4.21,1.68"/><path d="M42.31,32.1a2.27,2.27,0,1,0,3-1.2,2.29,2.29,0,0,0-3,1.2"/><path class="cls-34" d="M46.09,31.19a1,1,0,0,0-.24,0,2.31,2.31,0,0,1,.82,1.54.92.92,0,0,0-.25-1.51,1,1,0,0,0-.33-.06"/><path class="cls-35" d="M45.85,31.22a1,1,0,0,0-.66.6A.9.9,0,0,0,45.78,33a.92.92,0,0,0,.28,0,.94.94,0,0,0,.61-.24,2.31,2.31,0,0,0-.82-1.54"/><path class="cls-6" d="M42.28,33.23a.67.67,0,0,0,.33.87.67.67,0,0,0,.51-1.23.63.63,0,0,0-.83.34Z"/><path d="M27.25,29.91c.21-.52.38-.6.55-1,.3-.8,1.07-5.3-.63-7.27s-3.76-2.24-6.66.08c0,0-1.43.25-.33,2.34,0,0,.33,2.87,1.92,3.93a8.44,8.44,0,0,0,3.39,1.22l1.38.64s.18.52.38.09"/><path class="cls-14" d="M20.94,22.93c1-1.59,3.06-3.27,5.37-1.09,2,1.92,2,4.84,1,7.47l-.27.43L25.81,29s-3.54-.5-4.48-2.37a5.44,5.44,0,0,1-.39-3.66"/><path class="cls-31" d="M21.33,26.59a5.44,5.44,0,0,1-.39-3.66c1-1.59,3.06-3.27,5.37-1.09,2,1.92,2,4.84,1,7.47l-.27.43L25.81,29a4.44,4.44,0,0,1-.49-.09L26,25.13l-.33-2.93a2.63,2.63,0,0,0-3.6.9l0,.08c-1.54,2.37-.69,3.82.41,4.54l.1.07a3.21,3.21,0,0,1-1.17-1.2"/><path class="cls-36" d="M24.08,27.62a2.89,2.89,0,0,1-2.67-4,3.28,3.28,0,0,1,.18-.61,2.88,2.88,0,0,1,5.34,2.16,3.28,3.28,0,0,1-.18.61,2.88,2.88,0,0,1-2.67,1.8M24.32,21a3.35,3.35,0,0,0-3.25,2.56,3.26,3.26,0,0,0,3.05,4.34,3.27,3.27,0,0,0,3.05-2.15,3,3,0,0,0,.12-.45,3.35,3.35,0,0,0-1.48-3.89,3.47,3.47,0,0,0-.71-.31h0a3.44,3.44,0,0,0-.77-.09"/><path class="cls-33" d="M21.41,23.66a2.88,2.88,0,0,0,5.34,2.16,3.28,3.28,0,0,0,.18-.61,2.88,2.88,0,0,0-5.34-2.16,3.28,3.28,0,0,0-.18.61"/><path d="M22.15,23a2,2,0,1,0,2.56-1.55A2.13,2.13,0,0,0,22.15,23"/><path class="cls-34" d="M25.46,21.81h-.05a2,2,0,0,1,.79,1.6.91.91,0,0,0,.2-.42,1,1,0,0,0-.7-1.15,1,1,0,0,0-.24,0"/><path class="cls-35" d="M25.41,21.81a1,1,0,0,0-.94.77,1,1,0,0,0,.76,1.17l.21,0a1,1,0,0,0,.76-.36,2,2,0,0,0-.79-1.6"/><path class="cls-6" d="M21.75,24.26a.63.63,0,0,0,.4.8l0,0a.67.67,0,0,0,.83-.44.66.66,0,0,0-1.27-.39Z"/><path d="M27.27,29.3c.73-1.95,1.28-4.5-.38-6.6-.75-1-2.15-1.91-3.47-1.53A5.52,5.52,0,0,0,21.05,23c-.06.05-.21,0-.18-.07a3.34,3.34,0,0,1,5.38-1.44,5.65,5.65,0,0,1,1.66,3.32,8.31,8.31,0,0,1-.59,4.54l-.05,0Z"/><path class="cls-37" d="M43.66,25.68s2.16-.08,10.58,4.18C53,28.15,48.8,25.23,44.3,23.25A15.51,15.51,0,0,1,43.66,25.68Z"/><path class="cls-30" d="M24.33,16.1a8.27,8.27,0,0,0-2,.2c7.19,2.08,8.42,3.38,8.42,3.38a15.33,15.33,0,0,1,1.21-2.28,24.56,24.56,0,0,0-7.58-1.3"/><path class="cls-37" d="M30.81,19.34s-1.3-1.22-8.56-3c1.57-.49,6,0,9.78,1.15C31.82,17.72,30.81,19.34,30.81,19.34Z"/><path d="M35.27,42l1.88.56.92.26,1,.33c.35.1.71.23,1.08.34l1.12.36,1.1.38c.36.15.73.24,1.07.38l1,.4.88.37,1.31.54.5.21-.48-.26c-.31-.13-.73-.4-1.26-.67l-.88-.37-1-.4A11.1,11.1,0,0,0,42.44,44c-.37-.12-.74-.26-1.11-.4-.75-.22-1.5-.47-2.21-.66s-1.38-.37-2-.5l-1.39-.3Z"/><path d="M35,42.64l.47.19,1.21.57,1.71.8c.64.27,1.29.6,2,.92s1.32.63,1.93.94,1.18.59,1.68.88a4.86,4.86,0,0,1,.65.37,4.94,4.94,0,0,1,.49.3l.43.27-.39-.32-.47-.34c-.2-.15-.41-.29-.62-.42-.47-.3-1-.63-1.65-1s-1.26-.66-1.92-1l-1-.46-1-.4-1.75-.73c-.53-.22-1-.35-1.25-.46Z"/><path d="M34.34,43.4l.38.36,1,.9L37.16,46c.64.54,1,.86,1.7,1.42s1.15,1,1.7,1.4,1.08.85,1.55,1.21.82.63,1.07.84l.43.31-.39-.36-1-.91-1.45-1.28-1.73-1.42c-.66-.55-1-.88-1.71-1.39l-1.5-1.21-1.09-.84Z"/><path d="M21.25,36.16l-1.61-1.07-.78-.53L18,34c-.3-.21-.63-.4-1-.61l-1-.65-1-.61c-.33-.19-.65-.4-1-.58L13.1,31l-.83-.46L11,29.93l-.48-.25,1.82.75c.27.11.56.28.85.42l1,.5a7.56,7.56,0,0,1,1,.56l1,.6c.65.43,1.32.85,1.92,1.27s1.16.83,1.63,1.19.85.66,1.13.87Z"/><path d="M21,36.79l-.47-.19L19.29,36l-1.72-.8c-.64-.27-1.28-.61-2-.91l-2-.89c-.63-.27-1.22-.5-1.75-.72l-.69-.29a3.4,3.4,0,0,0-.54-.18l-.48-.15.49.09c.15.06.35.09.57.15a4.89,4.89,0,0,1,.72.21c.53.17,1.14.37,1.78.64l2,.83,1,.47c.34.14.64.32,1,.48.62.31,1.18.62,1.68.89s.88.5,1.16.66A2.55,2.55,0,0,1,21,36.79Z"/><path class="cls-3" d="M41.47,10.29c-1.56,0-3.23.1-5.18.23-.4,0-.78.07-1.16.12a8,8,0,0,0-3.39,4.41,31.35,31.35,0,0,1,6.51-.7,18.35,18.35,0,0,1,7,1.22,1.38,1.38,0,0,1,.25.17c-.59.25-1.84.79-3.63,1.66,0,0,.32,0,.82,0a10.06,10.06,0,0,1,4.48.94l.13.06c2.28,1.27,3.32,2.34,4.91,2.4a6.87,6.87,0,0,0,3,1.52,8.73,8.73,0,0,0,3.94,1.16,5,5,0,0,0,1.27-.16,6.84,6.84,0,0,0,3.9-2.69,1.78,1.78,0,0,0-.85-.38c-2.73-4.46-6.8-5.9-12.39-8.06a24.64,24.64,0,0,0-9.65-1.87"/><path d="M20.78,37.77l-.52-.07c-.32,0-.8-.1-1.35-.19L17,37.21l-2.18-.39-2.17-.41L10.75,36l-1.33-.3-.51-.13.52.07,1.36.19c.55.1,1.2.19,1.92.31l2.16.39L17,37c.69.13,1.34.28,1.89.39s1,.23,1.33.3Z"/><path class="cls-38" d="M58.72,20.92a7.69,7.69,0,0,1-5.08-1.28,7.62,7.62,0,0,1-3-1.62c-1.54-.15-2.57-1.23-4.8-2.56l-.14-.06a11.62,11.62,0,0,0-5.15-1.2c1.71-.69,2.9-1.11,3.47-1.29a1.44,1.44,0,0,0-.25-.18c-5.53-2.61-13.1-1.39-13.1-1.39a6.45,6.45,0,0,1,6.82-4.6A16.7,16.7,0,0,0,35,4.07c2.35-.71,4.63,1,4.63,1,.57-1.14-1.52-3.52-1.52-3.52,2.06-1.4,5.68,1.81,5.68,1.81A2.79,2.79,0,0,0,43.64,0a15.77,15.77,0,0,1,7.94,6c.88-.8,0-2.59,0-2.59,7.65,3.91,7.88,7.37,7.88,7.37.6.21.73-1.57.73-1.57C61.55,11.5,61,13,61,13a3.72,3.72,0,0,0,1.59-1.48c1,2.94.78,5.63.4,6.32A6,6,0,0,1,58.72,20.92Z"/><path class="cls-39" d="M56.1,21c-1.37,0-3.46-1.44-3.46-1.44-1.72,0-3-1-5.62-2.23l-.15-.06a8.55,8.55,0,0,0-1.93-.56l.56-.27a1.3,1.3,0,0,0-.26-.14,13.61,13.61,0,0,0-2.54-.6c.93-.48,1.61-.81,2-1a2.28,2.28,0,0,0-.3-.17,24.5,24.5,0,0,0-10.8-.63,6.22,6.22,0,0,1,5-2.64A15,15,0,0,0,35.91,9a5.52,5.52,0,0,1,4.52.5c.32-.88-1-2.32-1.53-2.91a1.11,1.11,0,0,0,0-.48c1.93-1.14,5.36,1.3,5.36,1.3a2.68,2.68,0,0,0-.55-3.2A15.27,15.27,0,0,1,52,9.06c.75-.86-.31-2.47-.31-2.47C59.38,9.5,60,12.78,60,12.78c.63.14.53-1.58.53-1.58,1.58,2,1.19,3.51,1.19,3.51A3.64,3.64,0,0,0,63,13.12c1.26,2.7,1.36,5.29,1.07,6a6,6,0,0,1-1.91,2.5c-.12,0-.21.09-.33.12C60.15,22.26,58.27,21.88,56.1,21Z"/><path class="cls-40" d="M62.83,18.42c.06,0,0,.33-.26.81A3,3,0,0,1,61,20.75a4.13,4.13,0,0,1-1.36.23,5.73,5.73,0,0,1-1.43-.13,4.79,4.79,0,0,1-1.36-.57,12.16,12.16,0,0,1-1.06-.74,7.51,7.51,0,0,0-1.72-1A8.67,8.67,0,0,0,52.52,18c-1-.19-1.58-.24-1.6-.42s.58-.41,1.64-.42a6,6,0,0,1,3.93,1.44,6.29,6.29,0,0,0,2,1.23,4.72,4.72,0,0,0,1.19.22,3.83,3.83,0,0,0,1.17,0,2.77,2.77,0,0,0,1.45-1C62.59,18.65,62.79,18.39,62.83,18.42Z"/><path class="cls-41" d="M21.34,48.18s.14.6,2.23.87,3.76,1.17,4.34,2.48,4,2.3,4,2.3-5.87.69-5.34,2c0,0-2.35-.62-1.41-2.34l-2.26,1.8a2.43,2.43,0,0,1-.51-2.85,3.6,3.6,0,0,0-2.44.74,4.59,4.59,0,0,1,.61-2.73s-.49-1.26-1.51-1.3c0,0,.37-.9.9-.86a.79.79,0,0,0-.54-.72A5.35,5.35,0,0,1,21.34,48.18Z"/><path class="cls-42" d="M27.91,51.53c-.58-1.31-2.25-2.2-4.34-2.48s-2.23-.87-2.23-.87l-.08,0,0,.08c-.45,0-.73.69-.73.69C21.38,49,21.78,50,21.78,50a3.58,3.58,0,0,0-.49,2.17,2.93,2.93,0,0,1,2-.59,2,2,0,0,0,.42,2.3l1.82-1.45c-.75,1.38,1.13,1.88,1.13,1.88-.28-.67,1.6-1.14,3-1.39A3.6,3.6,0,0,1,27.91,51.53Z"/><path class="cls-43" d="M27.7,40.73a3.47,3.47,0,0,1,2.59-.1c1.14.57,2.11.32,1.16-.69s-1.8-1.07-2.5-.43S27.7,40.73,27.7,40.73Z"/><path class="cls-43" d="M25.36,39.31A3,3,0,0,0,24,37.66c-.95-.39-1.33-1.14-.19-1.07s1.59.57,1.58,1.34S25.36,39.31,25.36,39.31Z"/><path class="cls-44" d="M26.26,47.65a12.16,12.16,0,0,1-5.12-3.11c-2.4-2.76-3.31-3.95-3.67-4.45l.61.41a15.85,15.85,0,0,0,2.52,1.31,5.57,5.57,0,0,0,3,.2,9.41,9.41,0,0,1,1.3-.15,4,4,0,0,1,1.49.25,2.58,2.58,0,0,1,.31.13c.89.41,1.28,1.12,2.05,2.56a7.71,7.71,0,0,0,3,3.48,9,9,0,0,0,1.78.83l.74.24A37.5,37.5,0,0,1,26.26,47.65Z"/><path class="cls-14" d="M22,42.19A.79.79,0,0,0,22,43c.25.52.24-.81,1.52-.52a16.46,16.46,0,0,1,2,.43,7.48,7.48,0,0,1,2.08,1,4,4,0,0,1,.9,1.11c.3.44.59.65.62,1a1.48,1.48,0,0,1-.07.66.75.75,0,0,0,.6-.13c.36-.21-.21-.46-.64-1.34s-.58-1.25-.72-1.56a5.31,5.31,0,0,0-1.63-1.5,4.32,4.32,0,0,0-2-.3,8.25,8.25,0,0,1-1.4.27A4.23,4.23,0,0,1,22,42.19Z"/><path class="cls-45" d="M26.34,42.24l.3.12c.87.41,1.22,1,2,2.53a7.89,7.89,0,0,0,3.08,3.51,7.2,7.2,0,0,0,1.39.69,34.59,34.59,0,0,1-6.82-1.56,11.86,11.86,0,0,1-5.07-3.08c-1.73-2-2.69-3.16-3.2-3.83l0,0a15.6,15.6,0,0,0,2.5,1.3,5.55,5.55,0,0,0,3.05.2A9.09,9.09,0,0,1,24.92,42a3.93,3.93,0,0,1,1.44.24m.1-.24a4.15,4.15,0,0,0-1.52-.25,9.68,9.68,0,0,0-1.32.14,5.28,5.28,0,0,1-3-.2,14.13,14.13,0,0,1-2.5-1.3l-1-.65s-.51-.16,3.88,4.91a12.18,12.18,0,0,0,5.17,3.13,38.43,38.43,0,0,0,9.56,1.85A20.49,20.49,0,0,1,33.63,49a8.52,8.52,0,0,1-1.76-.81,7.66,7.66,0,0,1-3-3.43c-.84-1.54-1.21-2.2-2.14-2.63Z"/><path class="cls-46" d="M22.14,45.32a4.82,4.82,0,0,1,4.48-.6c2,.93,3,3.75,3,3.75A23.35,23.35,0,0,1,24.88,47,11.09,11.09,0,0,1,22.14,45.32Z"/><path class="cls-45" d="M35.68,49s.38,0,.06.71l-.32.63s.72-.39.74-.9a.42.42,0,0,0-.38-.45Z"/><path class="cls-45" d="M18,39.13s-.22-.34-.72.1-.49.61-.49.61.2-1.05.63-1A.91.91,0,0,1,18,39.13Z"/><path class="cls-6" d="M57.91,24.23A32.36,32.36,0,0,0,64,20.35c3.63-2.81,6.52-2.36,8.36,2s1,10.12-1.69,12.42-6,.91-7.77-.85a7.45,7.45,0,0,0-3.46-2A27,27,0,0,0,58.55,29a11.62,11.62,0,0,1,1.71.71A5.39,5.39,0,0,0,58,26.14a6.87,6.87,0,0,1,1.77-1.63A3.3,3.3,0,0,0,57.91,24.23Z"/><path class="cls-15" d="M67.21,38.13c2-.59,6.51-5.38,6.11-10.35-1.47,4.31-6.09,8.34-6.84,6.74s4.14-1.39,4-7.63-5.94-5.29-4.18-6.74,3.59-1,6,2.78l.08.11c-.13-.33-.27-.66-.42-1-2.08-4.24-5-4.5-8.47-1.5a33,33,0,0,1-5.92,4.23,3.21,3.21,0,0,1,1.84.16,6.62,6.62,0,0,0-1.68,1.74,5.35,5.35,0,0,1,2.51,3.43,10.89,10.89,0,0,0-1.74-.61c.16.16,1.06,2.8,1.06,2.8s-1.51,2.79.39,4.43S63.93,39.12,67.21,38.13Z"/><path class="cls-16" d="M71.84,25.31s.35,4.29-1.72,6.39c-3.12,3.17.54,2.73,2.37-.55C74,28.46,72.26,22.31,71.84,25.31Z"/><path class="cls-17" d="M59.26,28.3s5.7-9.7,9.95-5.42c3.48,3.5-.23,13.43-6.86,13.26-1.49,0-.78-3.37-2.83-4.27l-.85-1.52,2,.6A7,7,0,0,0,59.26,28.3Z"/><path class="cls-47" d="M61.43,35.25h0l2-.14c-4.89-2.75,2-13.7,5.18-9,2.34,3.46-.44,5.91-2.08,7a5.87,5.87,0,0,0,2.47-1c1.78-2.92,2.2-6.71.59-8.8-.11-.12-.2-.25-.32-.37-4.25-4.29-10,5.44-10,5.44A7.15,7.15,0,0,1,60.72,31l-2-.65.82,1.51C60.5,32.08,61.33,34.17,61.43,35.25Z"/><path class="cls-12" d="M23.37,62.42a.3.3,0,0,0-.16-.17.33.33,0,0,0-.24,0l-4.65,2.12-.15-2.61A.3.3,0,0,0,18,61.5a.29.29,0,0,0-.31,0,70.12,70.12,0,0,0-7.43,6.22C6.37,71.46,6,76.27,5.45,83,5,89.22,4,98.7,3.86,99.84A4,4,0,0,0,3.09,105,23.74,23.74,0,0,0,2,110.67c-.21,1.39-.4,2.83-.63,4-.09.49-.2,1-.32,1.49-.88,4.09-1.81,8.33.09,10.71a7.54,7.54,0,0,0,3.61,1.62,8.09,8.09,0,0,0-.14,1.39H7.29c-.81-2.14-.68-2.66-.68-2.66L8.22,129s.4-5-1.61-7.06.21-4,1.81-1,0-2.82.4-15.92,3-22,5.25-32.85c-2.62,1.62-3,4.65-3.23,3.23s-.63-4-.63-4S9,76.21,9.8,79.64s-2.42,12.5-3.63,22,.41,13.9-1.8,16.13-2,1.6-1.22,3.62S4.37,123.17,4,126a4.54,4.54,0,0,1-3.08-.79c-.74-2.29,0-5.77.69-8.94.12-.51.22-1,.32-1.51.26-1.16.45-2.61.63-4,.29-2.29.6-4.67,1.13-5.6a.29.29,0,0,0,0-.33c-1.72-2.46.57-4.5.66-4.58a.31.31,0,0,0,.11-.19c0-.11,1.06-10.44,1.59-17s.91-11.28,4.61-14.86c1.08-1,2.18-2,3.31-3,1.27,2.24,3.14,2.26,5.4,1.13,2.82-1.41.4,2-2.22,9.48s-4,19.94-5.64,31.84c-1.33,9.77-.61,17-.55,22.22h2.24a73.61,73.61,0,0,1-.32-13.53c.6-6,2.39-18.1,3.56-26.11l.31-2.11c1.1-7.51,2.14-14.62,7.76-22.59a.32.32,0,0,0,0-.3Z"/><path class="cls-12" d="M55.21,56a.3.3,0,0,0-.27-.05.35.35,0,0,0-.22.19,31,31,0,0,1-2.6,4.08c-1.18,1.72-2.64,3.84-4.06,6.14-1.38-.19-2.76-1.54-4-2.75-1-1-1.84-1.81-2.58-1.9a1,1,0,0,0-.86.31A3.74,3.74,0,0,0,40,64.58l.08.18.25.28c1.07,1.15,2.86,4.36,2.73,13.08a123.34,123.34,0,0,0,4.38,32.37c1.26,4.23.31,6.66-.69,9.23a27.72,27.72,0,0,0-1.05,3.11,47.23,47.23,0,0,0-1,7h2.64a61.13,61.13,0,0,1,.93-6.5c1-4.63,1.62-10.11,4-6.66s4,5.44,0-3.83C47.91,102,46.08,80.66,45.27,74.79s0-7.25,3-5.44,5.64-5.64,7.46-8.26c.93-1.37,1.87-1.58,2.56-1.47a92.47,92.47,0,0,1,8.06,8.19c.34,2.12-3.71.61-5.52,3-2,2.57-1.81,7.66-2.2,5.24a64.24,64.24,0,0,0-2.43-7.85,16.12,16.12,0,0,0,0,7.44A99.91,99.91,0,0,1,59,87.28c1.4,7.26,1.81,13.31-.63,9.88s-.42,2.62,1.6,6,.21,6.24-2,12.28-2.2,8.67-5.42,11.7a16.83,16.83,0,0,0-2.22,2.67h5.09a4.76,4.76,0,0,1,2.26-1.53.33.33,0,0,0,.2-.33,5.13,5.13,0,0,1,.59-2.79c3.73,1.63,7.91,3.43,11.07,3.2a.42.42,0,0,0,.2-.1c.81-.85,5.11-5.65,8.94-16.89,2.46-8.33.5-17.24-3.5-28.93C71.92,73.31,69.24,68.33,55.21,56Zm23,55.09c-.93,1.69-1.77,3.26-2.4,4.58-3.44,7.06-5.64,10.11-10.11,7.86s-3.83-2.82-2.22-8.26,1.42-10.11,2.83-9.07,4.63,1,1.61-.8-2.82-3.22.81-2.62,6,.6.8-1S65.26,95,64.06,85.68s-1.82-14.53,2.4-14.1c3.05.3,6.75,8,8.58,12.3C78.71,94.81,80.46,103.28,78.17,111.12Z"/><path class="cls-2" d="M58.35,124.82a5.59,5.59,0,0,0-.76,3.22l.13,0a30.49,30.49,0,0,0,5.1,1.86h6.52c.12-1.28.12-1.67.12-1.67l.08-.09C66.4,128.33,62.14,126.48,58.35,124.82Z"/><path class="cls-2" d="M1.31,126.6c-.06,1.41-.07,2.78,1.41,3.26H4.89a7,7,0,0,1,.21-1.71C3.41,128.33,1.31,126.6,1.31,126.6Z"/><path class="cls-48" d="M43.39,78.12A24.16,24.16,0,0,0,39.66,63c-2,2-5,2.7-5.64,2.53-4.35-1.63-6.74-.64-6.82-2.64a10.35,10.35,0,0,0-1,1.58,1.71,1.71,0,0,1-1.9,1.11,33.07,33.07,0,0,0-4.07,7.45,88.05,88.05,0,0,0-3.91,15.32C15.2,96,13.15,109.8,12.52,116.28A70.79,70.79,0,0,0,13,129.86h2.79a.46.46,0,0,1,0-.19c0-1.6-.26-5.91,5.12-3.49s1.61.26-3-3.79.27-15,1.34-31.71c1.08-16.92,5.38-21.22,5.38-21.22,3,6.44,8.85,9.41,12.89,4.3s1.08,9.13,4,20.15,1.39,23.13.59,29.57h0a26.69,26.69,0,0,1-1.26,6.38H45a53.37,53.37,0,0,1,1.1-7c1.07-4.15,3.47-6.57,1.7-12.5C44.4,98.17,42.79,86,43.39,78.12Z"/><path class="cls-9" d="M43.71,78.09c.07-5.67-.65-10-2.09-12.4a.32.32,0,0,0-.26-.15.31.31,0,0,0-.26.15,8,8,0,0,1-6.59,4,7.1,7.1,0,0,1-1.94-.27,7.56,7.56,0,0,1-5-7.16.29.29,0,0,0-.21-.27.28.28,0,0,0-.33.11A14.57,14.57,0,0,0,25.81,64,1.67,1.67,0,0,1,24.22,65a.29.29,0,0,0-.3.12c-5.7,8.1-6.75,15.27-7.86,22.85l-.31,2.1c-1.18,8-3,20.14-3.56,26.15a72.65,72.65,0,0,0,.33,13.61h.59a72,72,0,0,1-.32-13.55c.6-6,2.39-18.1,3.56-26.11l.31-2.11c1.09-7.47,2.12-14.53,7.65-22.46a2.22,2.22,0,0,0,2-1.38A7.91,7.91,0,0,1,27,63.14,8,8,0,0,0,32.38,70a7.59,7.59,0,0,0,2.12.3,8.44,8.44,0,0,0,6.81-3.85c.91,1.79,1.85,5.21,1.77,11.64a122.92,122.92,0,0,0,4.38,32.37c1.25,4.22.31,6.65-.7,9.23a26.24,26.24,0,0,0-1,3.1,46.55,46.55,0,0,0-1,7.05h.62a44.5,44.5,0,0,1,1-6.91,23.64,23.64,0,0,1,1-3c1-2.66,2-5.19.7-9.61A122.12,122.12,0,0,1,43.71,78.09Z"/></svg>