<svg id="Слой_1" data-name="Слой 1" xmlns="http://www.w3.org/2000/svg" viewBox="0 0 26 26"><defs><style>.cls-1{fill:#fff;}.cls-2{fill:#b04687;}</style></defs><title>Автор статьи</title><path class="cls-1" d="M23,13A10,10,0,1,1,13,3,10,10,0,0,1,23,13Z"/><path class="cls-2" d="M13,26A13,13,0,1,1,26,13,13,13,0,0,1,13,26ZM13,1A12,12,0,1,0,25,13,12,12,0,0,0,13,1Z"/><circle class="cls-2" cx="12.98" cy="9.24" r="2.75"/><path class="cls-2" d="M17.19,14.77a3.82,3.82,0,0,0-3.77-3.2h-.84a3.82,3.82,0,0,0-3.77,3.2L8,19.5H9.44l.73-4.43V19.5h5.67V15.07l.73,4.43H18Z"/></svg>