<svg id="Слой_1" data-name="Слой 1" xmlns="http://www.w3.org/2000/svg" viewBox="0 0 34 34"><defs><style>.cls-1{fill:#fff;}.cls-2{fill:#b04687;}</style></defs><title>Время</title><path class="cls-1" d="M31.15,17A14.16,14.16,0,1,1,17,2.85,14.14,14.14,0,0,1,31.15,17Z"/><path class="cls-2" d="M17,34A17,17,0,0,1,10.17,1.43,16.83,16.83,0,0,1,17,0a17,17,0,0,1,0,34ZM17,1A16,16,0,1,0,33,17,15.9,15.9,0,0,0,17,1Z"/><path class="cls-2" d="M26,17a9,9,0,1,1-9-9A9,9,0,0,1,26,17Z"/><path class="cls-1" d="M19.92,20.42a.77.77,0,0,1-.53-.22l-3.14-3.14V12.3a.75.75,0,0,1,1.5,0v4.14l2.7,2.7a.75.75,0,0,1,0,1.06A.79.79,0,0,1,19.92,20.42Z"/></svg>