<svg id="Слой_1" data-name="Слой 1" xmlns="http://www.w3.org/2000/svg" viewBox="0 0 26 24.23"><defs><style>.cls-1{fill:#fff;}.cls-2{fill:#b04687;}</style></defs><title>График работы</title><rect class="cls-1" x="3" y="5.33" width="20" height="16"/><path class="cls-2" d="M26,24.23H0v-22H26Zm-25-1H25v-20H1Z"/><path class="cls-2" d="M6.5,6.47A.5.5,0,0,1,6,6V.5a.5.5,0,0,1,1,0V6A.5.5,0,0,1,6.5,6.47Z"/><path class="cls-2" d="M19.27,6.47a.5.5,0,0,1-.5-.5V.5a.5.5,0,0,1,.5-.5.5.5,0,0,1,.5.5V6A.5.5,0,0,1,19.27,6.47Z"/><rect class="cls-2" x="6" y="8.33" width="2" height="2"/><rect class="cls-2" x="10" y="8.33" width="2" height="2"/><rect class="cls-2" x="14" y="8.33" width="2" height="2"/><rect class="cls-2" x="18" y="8.33" width="2" height="2"/><rect class="cls-2" x="6" y="12.33" width="2" height="2"/><rect class="cls-2" x="10" y="12.33" width="2" height="2"/><rect class="cls-2" x="14" y="12.33" width="2" height="2"/><rect class="cls-2" x="18" y="12.33" width="2" height="2"/><rect class="cls-2" x="6" y="16.33" width="2" height="2"/><rect class="cls-2" x="10" y="16.33" width="2" height="2"/><rect class="cls-2" x="14" y="16.33" width="2" height="2"/><rect class="cls-2" x="18" y="16.33" width="2" height="2"/></svg>