<svg id="Слой_1" data-name="Слой 1" xmlns="http://www.w3.org/2000/svg" viewBox="0 0 26 26"><defs><style>.cls-1{fill:#fff;}.cls-2{fill:#b04687;}</style></defs><title>Достижения</title><path class="cls-1" d="M23,13A10,10,0,1,1,13,3,10,10,0,0,1,23,13Z"/><path class="cls-2" d="M13,26A13,13,0,1,1,26,13,13,13,0,0,1,13,26ZM13,1A12,12,0,1,0,25,13,12,12,0,0,0,13,1Z"/><path class="cls-2" d="M13.35,6.82l1.5,3a.54.54,0,0,0,.38.28l3.36.48a.51.51,0,0,1,.28.86l-2.43,2.37a.5.5,0,0,0-.14.45l.57,3.34a.5.5,0,0,1-.73.53l-3-1.58a.55.55,0,0,0-.47,0l-3,1.58a.5.5,0,0,1-.73-.53l.58-3.34a.53.53,0,0,0-.15-.45L6.93,11.48a.51.51,0,0,1,.28-.86l3.36-.48A.54.54,0,0,0,11,9.86l1.5-3A.5.5,0,0,1,13.35,6.82Z"/></svg>