<svg id="Слой_1" data-name="Слой 1" xmlns="http://www.w3.org/2000/svg" viewBox="0 0 176.62 200"><defs><style>.cls-1{fill:#e6f4f8;}</style></defs><title>Лев (для врачей)</title><path class="cls-1" d="M175.33,87.05c-2.31-12.69-7.27-24.34-13.92-35.31A104.27,104.27,0,0,0,143.33,29c-10.94-10.11-23.68-17.32-37.52-22.58C94.75,2.21,83.32-.29,71.4,0A110.46,110.46,0,0,0,49.06,2.79c-9.15,2.13-17.8,5.44-25.39,11.14-.46.34-1.14.57-1.2,1.45.85,0,1.65,0,2.46,0s1.6-.17,1.59,1c0,1,.25,1.94-1.14,2.34a27,27,0,0,0-6.14,2.8c-2.44,1.44-4.9,2.87-6.57,5.28-.58.84-.45,1.19.6,1.29,1.84.19,3.67.52,5.51.68,1.15.11,1,.55.59,1.32a7.39,7.39,0,0,1-4.12,3.27c-1.76.72-3.59,1.31-5.3,2.13a5.85,5.85,0,0,0-3.39,4.18c3.71-1.31,7.11-2.56,10.54-3.7,3.06-1,4.32,0,3.69,3-.29,1.4-1,3.11-2.58,3.3a47.92,47.92,0,0,0-7.62,1.57c-1.52.42-3.32.22-4.27,1.9A20.18,20.18,0,0,0,1.4,49.32c-.74.73-.6,1.15.41,1.32s1.93.39,2.9.53c1.44.21,1.69.68.82,2C3.63,56,1.9,59,0,62.07a3.81,3.81,0,0,0,1.82-1,25.78,25.78,0,0,1,4.69-3c1.19-.5,4.54.14,4.78,1.07a31.4,31.4,0,0,1,.89,5.46c.07.82-1.35.14-1.58,1-.06.19-.32.32-.48.49-1.51,1.52-3.06,3-4.52,4.57-.59.63-2,1.34-1.47,2,.78,1,1.5-.49,2.21-.91,1.91-1.12,3.66-.27,3.85,1.91a6.7,6.7,0,0,1-1.11,4.1,92.73,92.73,0,0,0-5.5,9.83A16,16,0,0,0,1.76,94.3c1.43-.88,2.61-1.58,3.77-2.33.57-.37,1.16-.68,1.69-.07.71.81,2.29.88,2.1,2.46-.15,1.26-.33,2.52-.42,3.79a102.87,102.87,0,0,0-.59,10.39c0,1,.32,1.43,1.31,1.23s.52-.91.56-1.42c.15-2.45-.43-5,.78-7.33a25.54,25.54,0,0,1,4.46-6.37,6.39,6.39,0,0,1,9.27-.33c1.65,1.45,2.76,3.42,4.5,4.8a1.27,1.27,0,0,1,.35,1.12,46.17,46.17,0,0,0,3.6,16.52c3.7,9.62,8.89,18.31,16.53,25.36a21.65,21.65,0,0,0,8.74,5.18c-1.12-1.75-2-3.1-2.84-4.46a4.32,4.32,0,0,1-.87-2.23c-.13-10.59-.32-21.19-.39-31.78,0-1-.22-1.36-1.12-1.65a10.25,10.25,0,0,1-6.91-7.2c-1.1-3.55-1.41-7.26-2.29-10.85a1.44,1.44,0,0,1,.14-1,38.5,38.5,0,0,1,4.45-7.82,6.22,6.22,0,0,1,7.84-1.6c1,.5,1.92,1.08,2.86,1.64.68.41.92.2.92-.54,0-1.57,0-3.13,0-4.69,0-.74-.29-1-1-1.16-2.56-.58-4.14-2.37-5.46-4.49a19.35,19.35,0,0,1-2.25-6.68q0-6,0-12c.4-.65.2-1.42.39-2.11a33,33,0,0,1,1.65-4.56c5-8.7,12.15-11.56,21.91-7.44-1.17-1.59-1.55-2-3-2.61-4.84-1.91-9.69-2.12-14.4.38s-8.38,6.1-11.92,9.93c.1.64-2.77,4.92-4,4.27h0a2.11,2.11,0,0,1-1,1,115.24,115.24,0,0,1-9.83,10.65,11.88,11.88,0,0,1-4.59,3c-2.84.84-5.43-1.33-4.7-4.16a14.88,14.88,0,0,1,6.85-9.57A14.49,14.49,0,0,0,33.79,49c-.65,0-1.12,0-1.26-.42.14.37.61.44,1.26.42l.66-.12a5.85,5.85,0,0,1-.68-3l-1.34-1.49c-.51-.77-1-1.54-1.51-2.32a1.66,1.66,0,0,1-.45-1.07c.18-3.66,1.84-5.6,5.5-6.24.76-.13,1.29-.19,1.26-1.19,0-1.15-.81-.92-1.46-.92-2.84,0-5.68,0-8.52,0-2.16,0-3-1.25-2.42-3.34a10.57,10.57,0,0,1,.46-1.12c.35-.88.18-1.35-.9-1.52a15.41,15.41,0,0,1-4-.74c.17-.67.7-.83,1.13-1.11a81.81,81.81,0,0,1,8.74-4.61c8.88-4.37,18.26-5.65,28-4.71a13.09,13.09,0,0,1,3.2.76c4,1.41,7.53,3.77,11.07,6.07.5.32,1,1,1.59.21s-.35-1-.72-1.3c-2.3-2.15-4.62-4.27-7-6.45.3-.17.39-.26.48-.27.47,0,.93,0,1.39,0a87.23,87.23,0,0,1,26.2,4.68A33.06,33.06,0,0,1,105.27,25c.58.5,1.32,1.05,0,1.53-1,.36-.75.93-.33,1.6a4.35,4.35,0,0,0,1.51,1.38,31.36,31.36,0,0,1,6.27,4.92c1.55,1.6,2.68,3.35,2.34,5.7-.14,1,.32,1.39,1.21,1.74a4.57,4.57,0,0,1,3.15,4.69c0,1.5.16,3,.23,4.51.12,2.69.12,2.69-2.65,2.81-.27,0-.6-.06-.7.42a8.57,8.57,0,0,0,3,2.75,8.71,8.71,0,0,1,4,4.82,13.28,13.28,0,0,0,3.12,4.93,27.69,27.69,0,0,1,3,3.57,30.34,30.34,0,0,0,7.73,7.64,65.25,65.25,0,0,1,5.18,4.07,83.71,83.71,0,0,1,9.57,9.54c2.47,3,1.7,4.85-2.09,5.7-2.33.52-4.71.54-7,.91a2.45,2.45,0,0,1-1.9-.63c-1.45-1-2.93-2-4.61-3.14-.12,3.62,1.52,6.08,3.92,8.15,1.54,1.32,3.24,2.6,3.94,4.53s1.22,1.43,2.25.4c1.26-1.27,2.62-2.44,4-3.62.56-.5,1.25-1.09,2-.71s.56,1.41.54,2.2a3,3,0,0,1-.09.51,35.57,35.57,0,0,1-6.71,16.36,7.22,7.22,0,0,0-1.45,4.32c-.16,4.47-.78,8.88-3.08,12.85-.88,1.54-2.05,2.9-4,3-6.09.23-12.16.07-18-2.11a15.14,15.14,0,0,1-5.29-2.81c2,.35,3.66.57,5.28.93,1.23.27,1.18-.23.79-1.06a6.69,6.69,0,0,0-.46-.93,5.88,5.88,0,0,1,2.88-8.91,25.58,25.58,0,0,1,4.9-1.11c2.84-.48,5.67-1,8-3.11-8.19,2.2-15.21,1.61-18.86-7.4,0-1.57,0-3.14,0-4.7.1-4.3,3.68-5.88,6.9-8.22a21.1,21.1,0,0,1-10.88-4c-2.45-1.77-4.59-3.88-6.88-5.83-1-.86-2.07-1.64-3.11-2.46a40.46,40.46,0,0,0,3.58,7.46,5,5,0,0,1-.07,5.37,6.43,6.43,0,0,1-3.82,3.37c-4.51,1.31-8.94,1.68-13-1.54S81.9,98.1,78.29,94.2c-.55-.59-1.07-1.22-1.65-1.78a5.75,5.75,0,0,0-1.93-1.6c1.47,4.81,4.51,8.17,7.94,11.23,3.71,3.3,7.8,6.18,11.15,9.89,2.62,2.89,4.52,6.12,4.8,10.15.06.93-.09,1.19-1,1.25a16.22,16.22,0,0,1-10.37-2.76A33.31,33.31,0,0,1,81.58,116c-7.06-7.47-12.71-15.72-14.52-26.14a8.48,8.48,0,0,0-2-4.73,67.89,67.89,0,0,0,1.86,16.78c2.46,10.73,7.31,20.42,13.14,29.67C85,139.41,90.48,147,95.22,155c4.53,7.66,8.16,15.68,9.93,24.47a88.16,88.16,0,0,1,1.29,12.1,17.65,17.65,0,0,0,3-7.65A54.89,54.89,0,0,0,106,154c1.27-1,2.21-2.07,1.57-3.83a.6.6,0,0,1,.23-.74l.73.71a4.09,4.09,0,0,1,.36,2c.06.61-.41,1.5.6,1.71s.56-1,1.08-1.25c.6.78,1.26,1.52,1.78,2.34,5,7.83,5.66,16.79,6,25.64a30,30,0,0,1-4.08,16.12,6.39,6.39,0,0,0-.9,3.31c21.28-10.32,39.05-24.32,50-45.73l.28-1,.06.28,1.8-3.44c.3-.58.17-1.39.9-1.76,5.29-11.6,9.27-23.57,9.93-36.42C176.8,103.63,176.82,95.31,175.33,87.05ZM29.59,44.29a2,2,0,0,0-.81.48A2,2,0,0,1,29.59,44.29Z"/><path class="cls-1" d="M57.64,58.37c3.66.42,5.85,2.69,7.52,5.76A7.61,7.61,0,0,0,68,67.55a2.56,2.56,0,0,0,0-1.94c-.45-2-1-4-1.42-6.07-.83-3.87,0-5.29,3.64-6.29l.4-.27h0c-2-1-1.19-2.88-1.38-4.45l-.67-.14c-.16-1.63-1.41-.72-2.17-.93A6.16,6.16,0,0,0,64.15,47L64,47.1l.16-.06c-1.6-.62-3.28-.4-4.94-.45-.7,0-.75.6-1,1-1.07-.28-1.73-.22-1.21,1.19a5.58,5.58,0,0,1,.06,1.69c-.7,2.27-.25,4.6-.39,6.91C56.64,58.13,57.1,58.31,57.64,58.37Zm6.19-11.25h0Zm-1.44-.06.18,0-.18,0a.92.92,0,0,0-.32.1A.92.92,0,0,1,62.39,47.06Z"/><path class="cls-1" d="M99.75,71.75c-4.67.38-9.32-.34-14,0l15,7.61c0-2.41,0-4.54,0-6.67C100.68,72,100.41,71.7,99.75,71.75Z"/></svg>