<svg id="Слой_1" data-name="Слой 1" xmlns="http://www.w3.org/2000/svg" viewBox="0 0 257.38 60"><defs><style>.cls-1,.cls-2{fill:#095f70;}.cls-2{font-size:11.09px;font-family:Ubuntu-Medium, Ubuntu;font-weight:500;}.cls-3{letter-spacing:0.01em;}.cls-4{letter-spacing:-0.02em;}.cls-5{letter-spacing:-0.06em;}.cls-6{letter-spacing:-0.02em;}</style></defs><title>Логотип</title><path class="cls-1" d="M52.6,26.12a31,31,0,0,0-4.18-10.6A31.06,31.06,0,0,0,43,8.7,34.1,34.1,0,0,0,31.74,1.92,26.74,26.74,0,0,0,21.42,0a33.55,33.55,0,0,0-6.7.83A20,20,0,0,0,7.1,4.18c-.14.1-.34.17-.36.43h.74c.22,0,.48-.06.48.3s.07.58-.35.7a8.48,8.48,0,0,0-1.84.84A5.81,5.81,0,0,0,3.8,8c-.17.26-.13.36.18.39.55.06,1.1.16,1.65.21.35,0,.3.16.18.39a2.17,2.17,0,0,1-1.23,1c-.53.22-1.08.4-1.6.64a1.76,1.76,0,0,0-1,1.26c1.11-.4,2.13-.77,3.16-1.11s1.3,0,1.11.91c-.09.42-.29.93-.78,1a14.64,14.64,0,0,0-2.28.47c-.46.13-1,.06-1.29.57A6.11,6.11,0,0,0,.42,14.8q-.33.31.12.39c.29.05.58.12.87.16s.51.2.25.6C1.09,16.8.57,17.7,0,18.62a1.08,1.08,0,0,0,.55-.31A7.55,7.55,0,0,1,2,17.42c.36-.15,1.36,0,1.44.32a9.18,9.18,0,0,1,.26,1.64c0,.25-.4,0-.47.3,0,.06-.1.1-.14.15-.46.45-.92.9-1.36,1.37-.18.19-.6.4-.44.6s.45-.14.66-.27a.71.71,0,0,1,1.16.57,2,2,0,0,1-.34,1.23,30.42,30.42,0,0,0-1.65,3,4.9,4.9,0,0,0-.54,2c.43-.26.78-.47,1.13-.7.17-.11.35-.2.51,0s.68.26.63.74-.1.75-.13,1.13c-.07,1-.21,2.08-.18,3.12,0,.29.1.43.4.37s.15-.27.16-.42a5.35,5.35,0,0,1,.24-2.21,8.13,8.13,0,0,1,1.34-1.91,1.92,1.92,0,0,1,2.78-.09c.49.43.83,1,1.35,1.44a.39.39,0,0,1,.1.33,14.06,14.06,0,0,0,1.08,5,19.86,19.86,0,0,0,5,7.61,6.5,6.5,0,0,0,2.62,1.55l-.85-1.34a1.2,1.2,0,0,1-.26-.67c0-3.17-.1-6.35-.12-9.53,0-.31-.06-.41-.33-.5A3.08,3.08,0,0,1,13.88,30c-.33-1.06-.42-2.17-.68-3.25a.39.39,0,0,1,0-.3,11.84,11.84,0,0,1,1.33-2.35,1.89,1.89,0,0,1,2.36-.48c.29.15.57.33.85.5s.28.06.28-.17c0-.47,0-.94,0-1.41,0-.21-.08-.29-.29-.34a2.65,2.65,0,0,1-1.64-1.35,5.91,5.91,0,0,1-.67-2v-3.6c.12-.2.06-.43.11-.64a10.66,10.66,0,0,1,.5-1.36c1.51-2.61,3.64-3.47,6.57-2.24-.35-.47-.46-.61-.9-.78a5,5,0,0,0-4.32.11,13.63,13.63,0,0,0-3.57,3c0,.2-.84,1.48-1.21,1.28h0a.67.67,0,0,1-.3.32A35.6,35.6,0,0,1,9.39,18.1,3.52,3.52,0,0,1,8,19,1.05,1.05,0,0,1,6.6,17.76a4.43,4.43,0,0,1,2.05-2.87,4.43,4.43,0,0,0,1.49-.19c-.2,0-.34,0-.38-.12,0,.11.18.13.38.12l.2,0a1.74,1.74,0,0,1-.21-.89l-.4-.45-.45-.69a.47.47,0,0,1-.14-.32,1.75,1.75,0,0,1,1.65-1.87c.23,0,.39-.06.38-.36s-.24-.28-.44-.28H8.18c-.65,0-.91-.38-.73-1a2,2,0,0,1,.14-.34c.1-.27,0-.41-.27-.46a4.23,4.23,0,0,1-1.21-.22c0-.2.21-.25.34-.33A23.35,23.35,0,0,1,9.07,6.08a15.26,15.26,0,0,1,8.41-1.42,4,4,0,0,1,1,.23,15.53,15.53,0,0,1,3.32,1.82c.15.1.31.31.48.07s-.1-.29-.22-.4L19.93,4.45c.09,0,.11-.08.14-.08h.42a26,26,0,0,1,7.86,1.4,9.91,9.91,0,0,1,3.23,1.74c.17.15.4.32,0,.46s-.22.28-.1.48a1.29,1.29,0,0,0,.46.41,9.58,9.58,0,0,1,1.88,1.48,2,2,0,0,1,.7,1.71c0,.3.1.42.36.52a1.38,1.38,0,0,1,1,1.41c0,.45,0,.9.07,1.35,0,.81,0,.81-.8.84-.08,0-.18,0-.21.13a2.54,2.54,0,0,0,.89.83A2.58,2.58,0,0,1,37,18.57a3.88,3.88,0,0,0,.93,1.48,9.2,9.2,0,0,1,.91,1.07,9,9,0,0,0,2.32,2.29c.53.39,1.06.79,1.55,1.23a24.23,24.23,0,0,1,2.87,2.86c.74.91.51,1.45-.62,1.71-.7.15-1.42.16-2.12.27a.71.71,0,0,1-.57-.19c-.43-.31-.88-.6-1.38-.94a2.91,2.91,0,0,0,1.17,2.44,3.64,3.64,0,0,1,1.19,1.37c.19.54.36.42.67.11s.79-.73,1.19-1.08c.17-.15.38-.33.6-.22s.17.43.17.66a.76.76,0,0,1,0,.16,10.74,10.74,0,0,1-2,4.91A2.14,2.14,0,0,0,43.39,38a8.11,8.11,0,0,1-.92,3.86,1.48,1.48,0,0,1-1.2.89,13.66,13.66,0,0,1-5.39-.63,4.63,4.63,0,0,1-1.59-.84c.6.1,1.1.17,1.59.27s.35-.06.23-.31A1.22,1.22,0,0,0,36,41a1.77,1.77,0,0,1,.87-2.68,7.28,7.28,0,0,1,1.47-.33A4.4,4.4,0,0,0,40.72,37c-2.46.66-4.57.48-5.66-2.22V33.38c0-1.29,1.11-1.76,2.07-2.47a6.38,6.38,0,0,1-3.26-1.18c-.73-.53-1.38-1.17-2.06-1.75-.3-.26-.62-.49-.94-.74a12.53,12.53,0,0,0,1.08,2.24,1.49,1.49,0,0,1,0,1.61,2,2,0,0,1-1.15,1,4,4,0,0,1-3.89-.46,31.82,31.82,0,0,1-3.39-3.38c-.17-.18-.32-.37-.5-.53a1.67,1.67,0,0,0-.58-.48,7.34,7.34,0,0,0,2.39,3.36c1.11,1,2.33,1.86,3.34,3a5,5,0,0,1,1.44,3.05c0,.28,0,.35-.31.37a4.89,4.89,0,0,1-3.11-.82,10.25,10.25,0,0,1-1.69-1.39A15.23,15.23,0,0,1,20.12,27a2.52,2.52,0,0,0-.6-1.42,19.8,19.8,0,0,0,.56,5A28.53,28.53,0,0,0,24,39.46c1.49,2.36,3.12,4.63,4.55,7a23.81,23.81,0,0,1,3,7.34,25.55,25.55,0,0,1,.39,3.63,5.22,5.22,0,0,0,.92-2.29,16.44,16.44,0,0,0-1.07-9c.39-.29.67-.62.48-1.15a.17.17,0,0,1,.06-.22l.22.21a1.15,1.15,0,0,1,.11.6c0,.18-.12.45.18.51s.17-.29.33-.37c.18.23.37.45.53.7,1.49,2.35,1.7,5,1.81,7.69A9,9,0,0,1,34.28,59,1.84,1.84,0,0,0,34,60c6.38-3.1,11.71-7.3,15-13.72L49.1,46a.31.31,0,0,1,0,.08l.54-1c.09-.17.05-.42.27-.53a30,30,0,0,0,3-10.92A32.19,32.19,0,0,0,52.6,26.12ZM8.88,13.29a.57.57,0,0,0-.25.14A.57.57,0,0,1,8.88,13.29Z"/><path class="cls-1" d="M17.29,17.51a2.91,2.91,0,0,1,2.26,1.73,2.24,2.24,0,0,0,.84,1,.78.78,0,0,0,0-.58c-.13-.6-.29-1.21-.42-1.82-.25-1.16,0-1.58,1.09-1.89l.12-.07h0c-.59-.31-.36-.87-.42-1.34l-.2,0c-.05-.49-.42-.21-.65-.28a2,2,0,0,0-.67-.13l-.05,0,.05,0A4.41,4.41,0,0,0,17.76,14c-.21,0-.22.18-.29.31-.33-.09-.52-.07-.37.36a1.38,1.38,0,0,1,0,.5A8.45,8.45,0,0,0,17,17.22C17,17.44,17.13,17.49,17.29,17.51Zm1.86-3.37h0Zm-.43,0h0a.17.17,0,0,0-.1,0A.17.17,0,0,1,18.72,14.12Z"/><path class="cls-1" d="M29.93,21.53c-1.41.11-2.8-.11-4.22,0l4.49,2.29v-2C30.21,21.61,30.12,21.51,29.93,21.53Z"/><path class="cls-1" d="M68.24,15.81v4.84h2.31a23.27,23.27,0,0,1,4.57.4,10.1,10.1,0,0,1,3.41,1.27,5.82,5.82,0,0,1,2.12,2.29,7.38,7.38,0,0,1,.74,3.44,6.24,6.24,0,0,1-2.78,5.58q-2.77,1.84-7.92,1.84-1.43,0-3.24-.15a23.32,23.32,0,0,1-3.4-.51V12.26H79.17v3.55Zm1.5,16h.85l1,0a12,12,0,0,0,2-.24,5.27,5.27,0,0,0,1.7-.63,3.2,3.2,0,0,0,1.16-1.12A3.28,3.28,0,0,0,77,28.08a3.92,3.92,0,0,0-.44-2,3.18,3.18,0,0,0-1.3-1.21,6.41,6.41,0,0,0-2.06-.63,18.79,18.79,0,0,0-2.74-.18H68.24v7.69l.66.05Z"/><path class="cls-1" d="M101.45,35.24h-16v-23h15.16v3.55H89.77v5.67h9.67V25H89.77v6.73h12a14.51,14.51,0,0,0,3.34-.16,5.73,5.73,0,0,0,1.6-.88,5.62,5.62,0,0,0,1.19-1.36,9.16,9.16,0,0,0,.89-1.91A25.52,25.52,0,0,0,110,20.92q.31-3.89.31-8.66h14.75v23h-4.33V15.84h-6.3c-.07,1.51-.15,3-.24,4.6a42.44,42.44,0,0,1-.49,4.5,24.34,24.34,0,0,1-1,4.1,11.14,11.14,0,0,1-1.87,3.37,8.74,8.74,0,0,1-3,2.3C106.61,35.29,101.45,35.24,101.45,35.24Z"/><path class="cls-1" d="M147.85,28a6.86,6.86,0,0,1-.73,3.25A6.46,6.46,0,0,1,145,33.6,10.19,10.19,0,0,1,141.67,35a18.62,18.62,0,0,1-4.41.48c-1,0-2-.06-3.17-.17a27.87,27.87,0,0,1-3.37-.53V12.26H135v8.26a7,7,0,0,1,1-.07h1c3.59,0,6.29.63,8.11,1.87A6.46,6.46,0,0,1,147.85,28Zm-11-4H136a5.61,5.61,0,0,0-.94.07v7.76a8.33,8.33,0,0,0,1,.06h1.51a13.55,13.55,0,0,0,2.24-.18,5.53,5.53,0,0,0,1.85-.63,3.59,3.59,0,0,0,1.26-1.19,3.47,3.47,0,0,0,.48-1.91,3.64,3.64,0,0,0-.46-1.92,3.38,3.38,0,0,0-1.31-1.23,6.24,6.24,0,0,0-2.06-.64A17.46,17.46,0,0,0,136.81,24Zm14.31-11.77h4.3v23h-4.3Z"/><path class="cls-1" d="M161.07,35.24v-23h4.26V27.51q1.15-1.78,2.64-3.86T171,19.52q1.58-2.06,3.15-4t2.93-3.3h3.51v23H176.4V18.79c-1,1.11-2,2.35-3,3.73s-2.1,2.81-3.12,4.28-2,2.93-3,4.38-1.81,2.8-2.58,4.06Zm10-25.1a6.58,6.58,0,0,1-2-.3A5.73,5.73,0,0,1,167.34,9a4.78,4.78,0,0,1-1.23-1.38,4.43,4.43,0,0,1-.58-1.84l3-.76c.38,1.57,1.23,2.35,2.55,2.35s2.19-.77,2.56-2.32l2.93.76a5,5,0,0,1-.6,1.85A4.45,4.45,0,0,1,174.75,9a5.69,5.69,0,0,1-1.69.84A6.6,6.6,0,0,1,171.05,10.14Z"/><path class="cls-1" d="M203.21,15.84c-.07,1.51-.15,3-.24,4.6a42.44,42.44,0,0,1-.49,4.5,24.34,24.34,0,0,1-1,4.1,11.14,11.14,0,0,1-1.87,3.37,8.68,8.68,0,0,1-3,2.3,10.65,10.65,0,0,1-4.37.93L191.73,32a9.54,9.54,0,0,0,2.15-.46,5.73,5.73,0,0,0,1.6-.88,5.62,5.62,0,0,0,1.19-1.36,9.16,9.16,0,0,0,.89-1.91,25.52,25.52,0,0,0,1.22-6.46q.32-3.89.31-8.66h14.75v23h-4.33V15.84Z"/><path class="cls-1" d="M219.5,35.24v-23h15.16v3.55H223.79v5.67h9.67V25h-9.67v6.73h11.68v3.55Z"/><path class="cls-1" d="M246.58,35.51q-1.87,0-3.78-.12a18.44,18.44,0,0,1-3.34-.48V12.59c.5-.09,1-.17,1.6-.25s1.15-.13,1.74-.18,1.17-.08,1.75-.1l1.65,0a23.76,23.76,0,0,1,4,.31,10.08,10.08,0,0,1,3.18,1.05,5.58,5.58,0,0,1,2.1,1.92,5.45,5.45,0,0,1,.75,3,4.8,4.8,0,0,1-.8,2.79,5.72,5.72,0,0,1-2.23,1.86A6.21,6.21,0,0,1,256.36,25a5.61,5.61,0,0,1,1,3.45,6,6,0,0,1-2.66,5.32C253,34.92,250.23,35.51,246.58,35.51Zm-2.9-13.9h3a8.82,8.82,0,0,0,3.85-.68A2.45,2.45,0,0,0,252,18.5a2.42,2.42,0,0,0-1.45-2.36,8.76,8.76,0,0,0-3.76-.7c-.66,0-1.24,0-1.76,0s-.94,0-1.31.1Zm0,3.29v7c.48.05,1,.08,1.54.1l1.49,0a17.52,17.52,0,0,0,2.48-.16,6.43,6.43,0,0,0,2-.58,3.55,3.55,0,0,0,1.33-1.11,3,3,0,0,0,.49-1.79,2.8,2.8,0,0,0-1.46-2.72,8.9,8.9,0,0,0-4.06-.76Z"/><text class="cls-2" transform="translate(64.05 52.73) scale(0.98 1)">ЦЕНТР СЕМЕЙНОЙ <tspan class="cls-3" x="104.25" y="0">С</tspan><tspan class="cls-4" x="111.49" y="0">Т</tspan><tspan x="117.64" y="0">ОМ</tspan><tspan class="cls-5" x="136.12" y="0">А</tspan><tspan class="cls-4" x="143.07" y="0">Т</tspan><tspan class="cls-6" x="149.23" y="0">О</tspan><tspan x="157.68" y="0">ЛОГИИ</tspan></text></svg>