<svg id="Layer_1" data-name="Layer 1" xmlns="http://www.w3.org/2000/svg" viewBox="0 0 30 30"><defs><style>.cls-1{fill:#ae9061;}.cls-2{fill:#584e3f;}.cls-3{fill:#ffe2bb;}.cls-4{opacity:0.7;}.cls-5{fill:#110e0a;}</style></defs><title>Львенок (активный индикатор)</title><circle class="cls-1" cx="15" cy="15" r="14.5"/><path class="cls-2" d="M15,30A15,15,0,1,1,30,15,15,15,0,0,1,15,30ZM15,1A14,14,0,1,0,29,15,14,14,0,0,0,15,1Z"/><path class="cls-3" d="M27.12,7.3a3.53,3.53,0,0,0-6.89-1.07,10.49,10.49,0,0,0-11,.29A3.53,3.53,0,1,0,5.49,10.8a10.5,10.5,0,1,0,18.92-.07A3.54,3.54,0,0,0,27.12,7.3Z"/><path class="cls-2" d="M15,26.31a11,11,0,0,1-11-11,10.8,10.8,0,0,1,.81-4.12,4,4,0,0,1-3-3.89A4,4,0,0,1,9.51,5.76,11.13,11.13,0,0,1,20,5.52,4,4,0,1,1,25.1,11,10.85,10.85,0,0,1,26,15.31,11,11,0,0,1,15,26.31Zm-9.19-22a3,3,0,0,0-3,3,3,3,0,0,0,2.79,3l.72.06L6,11a9.87,9.87,0,0,0-1,4.29,10,10,0,1,0,19-4.37l-.27-.56.6-.14a3,3,0,1,0-3.58-3.86l-.19.6L20,6.66A10.12,10.12,0,0,0,9.5,6.94l-.61.4-.15-.71A3,3,0,0,0,5.78,4.26Z"/><g class="cls-4"><circle class="cls-5" cx="11.02" cy="13.68" r="1.54"/><circle class="cls-5" cx="18.35" cy="13.68" r="1.54"/></g><path class="cls-2" d="M17.34,21.14a3.17,3.17,0,0,1-2.66-1.46A3.16,3.16,0,0,1,9.59,20a.5.5,0,0,1,.07-.7.49.49,0,0,1,.7.06A2.16,2.16,0,0,0,14.18,18a.51.51,0,0,1,.5-.49.49.49,0,0,1,.5.49,2.17,2.17,0,0,0,2.16,2.14A2.13,2.13,0,0,0,19,19.36a.51.51,0,0,1,.71-.06.49.49,0,0,1,.06.7A3.13,3.13,0,0,1,17.34,21.14Z"/></svg>