<svg id="Слой_1" data-name="Слой 1" xmlns="http://www.w3.org/2000/svg" viewBox="0 0 20 20"><defs><style>.cls-1{fill:#b04687;}</style></defs><title>Скрепка</title><path class="cls-1" d="M18.27,1.71a5.57,5.57,0,0,0-8,0l-9,9.43a4.85,4.85,0,0,0,.07,6.6,4.32,4.32,0,0,0,6.21,0l8.13-8.55a3.19,3.19,0,0,0,0-4.36,2.82,2.82,0,0,0-4.15,0L3.73,13a1,1,0,0,0,0,1.4.9.9,0,0,0,1.31,0l7.77-8.16a1,1,0,0,1,1.5,0,1.16,1.16,0,0,1,0,1.54L6.21,16.34a2.55,2.55,0,0,1-1.81.77,2.43,2.43,0,0,1-1.81-.8,2.81,2.81,0,0,1,0-3.77l9-9.44A3.74,3.74,0,0,1,17,3.1a4.21,4.21,0,0,1,0,5.74l-9,9.42a1,1,0,0,0-.1,1.4.93.93,0,0,0,.71.34.89.89,0,0,0,.61-.24l.09-.09,9-9.43A6.14,6.14,0,0,0,20,6,6.12,6.12,0,0,0,18.27,1.71Z"/></svg>