<svg id="Слой_1" data-name="Слой 1" xmlns="http://www.w3.org/2000/svg" viewBox="0 0 34 34"><defs><style>.cls-1{fill:#fff;}.cls-2{fill:#b04687;}</style></defs><title>Телефон</title><path class="cls-1" d="M31.15,17A14.16,14.16,0,1,1,17,2.85,14.14,14.14,0,0,1,31.15,17Z"/><path class="cls-2" d="M17,34A17,17,0,0,1,10.17,1.43,16.83,16.83,0,0,1,17,0a17,17,0,0,1,0,34ZM17,1A16,16,0,1,0,33,17,15.9,15.9,0,0,0,17,1Z"/><path class="cls-2" d="M25,20.5a11.36,11.36,0,0,1-3.57-.57,1,1,0,0,0-1,.25l-2.2,2.2a15,15,0,0,1-6.59-6.58l2.19-2.21a1,1,0,0,0,.25-1A11.36,11.36,0,0,1,13.5,9a1,1,0,0,0-1-1H9A1,1,0,0,0,8,9,17,17,0,0,0,25,26a1,1,0,0,0,1-1V21.5A1,1,0,0,0,25,20.5Z"/></svg>