<?xml version="1.0" encoding="utf-8"?>
<!-- Generator: Adobe Illustrator 23.0.6, SVG Export Plug-In . SVG Version: 6.00 Build 0)  -->
<svg version="1.1" id="Слой_1" xmlns="http://www.w3.org/2000/svg" xmlns:xlink="http://www.w3.org/1999/xlink" x="0px" y="0px"
	 viewBox="0 0 20 20" style="enable-background:new 0 0 20 20;" xml:space="preserve">
<style type="text/css">
	.st0{fill:#139AB0;}
</style>
<g>
	<path class="st0" d="M19.7,18.3C19.7,18.3,19.7,18.3,19.7,18.3l-5.7-5.7c1.1-1.4,1.7-3.1,1.7-4.8c0-4.3-3.6-7.8-7.9-7.8
		c0,0,0,0,0,0C3.6,0,0,3.4,0,7.7c0,0,0,0,0,0c0,4.3,3.6,7.8,7.9,7.8c0,0,0,0,0,0c1.7,0,3.3-0.5,4.7-1.5l5.6,5.7
		c0.2,0.2,0.5,0.3,0.8,0.3c0.3,0,0.5-0.1,0.7-0.3C20.1,19.3,20.1,18.7,19.7,18.3z M7.9,13.7c-3.3,0-6-2.6-6-5.9c0-3.3,2.7-5.9,6-5.9
		c3.3,0,6,2.6,6,5.9C13.8,11,11.2,13.7,7.9,13.7z"/>
	<path class="st0" d="M9,6.8V4.3c0-0.6-0.4-1-1-1s-1,0.4-1,1v2.5H4.5c-0.6,0-1,0.4-1,1s0.4,1,1,1H7v2.5c0,0.6,0.4,1,1,1s1-0.4,1-1
		V8.8h2.5c0.6,0,1-0.4,1-1s-0.4-1-1-1H9z"/>
</g>
</svg>
